<svg xmlns="http://www.w3.org/2000/svg" xmlns:xlink="http://www.w3.org/1999/xlink" version="1.1" class="marks" width="663" height="498" viewBox="0 0 663 498"><rect width="663" height="498" fill="white"/><g fill="none" stroke-miterlimit="10" transform="translate(18,5)"><g class="mark-group role-frame root" role="graphics-object" aria-roledescription="group mark container"><g transform="translate(0,0)"><path class="background" aria-hidden="true" d="M0,0h640v0h-640Z"/><g><g class="mark-group role-scope concat_0_group" role="graphics-object" aria-roledescription="group mark container"><g transform="translate(0,0)"><path class="background" aria-hidden="true" d="M0,0h0v0h0Z"/><g><g class="mark-group role-scope concat_0_concat_0_group" role="graphics-object" aria-roledescription="group mark container"><g transform="translate(0,0)"><path class="background" aria-hidden="true" d="M0,0h640v22h-640Z" stroke-width="0"/><g><g class="mark-text role-mark concat_0_concat_0_marks" role="graphics-object" aria-roledescription="text mark container"><text text-anchor="start" transform="translate(0,14)" font-family="Circular Std" font-size="16px" font-weight="bold" fill="#122b39">Trust in Chile's institutions has broadly fallen since 2010</text></g></g><path class="foreground" aria-hidden="true" d="" display="none"/></g></g><g class="mark-group role-scope concat_0_concat_1_group" role="graphics-object" aria-roledescription="group mark container"><g transform="translate(0,23)"><path class="background" aria-hidden="true" d="M0,0h640v18h-640Z" stroke-width="0"/><g><g class="mark-text role-mark concat_0_concat_1_marks" role="graphics-object" aria-roledescription="text mark container"><text text-anchor="start" transform="translate(0,18)" font-family="Circular Std" font-size="12px" fill="rgba(24, 42, 56)">Mean reported trust, 1 (not at all) to 7 (a lot)</text></g></g><path class="foreground" aria-hidden="true" d="" display="none"/></g></g></g><path class="foreground" aria-hidden="true" d="" display="none"/></g></g><g class="mark-group role-scope concat_1_group" role="graphics-object" aria-roledescription="group mark container"><g transform="translate(0,55)"><path class="background" aria-hidden="true" d="M0,0h640v380h-640Z" stroke-width="0"/><g><g class="mark-group role-axis" aria-hidden="true"><g transform="translate(0.5,0.5)"><path class="background" aria-hidden="true" d="M0,0h0v0h0Z" pointer-events="none"/><g><g class="mark-rule role-axis-grid" pointer-events="none"><line transform="translate(0,380)" x2="640" y2="0" stroke="#122b39" stroke-opacity="0.5" stroke-width="1" stroke-dasharray="1,5" opacity="1"/><line transform="translate(0,317)" x2="640" y2="0" stroke="#122b39" stroke-opacity="0.5" stroke-width="1" stroke-dasharray="1,5" opacity="1"/><line transform="translate(0,253)" x2="640" y2="0" stroke="#122b39" stroke-opacity="0.5" stroke-width="1" stroke-dasharray="1,5" opacity="1"/><line transform="translate(0,190)" x2="640" y2="0" stroke="#122b39" stroke-opacity="0.5" stroke-width="1" stroke-dasharray="1,5" opacity="1"/><line transform="translate(0,127)" x2="640" y2="0" stroke="#122b39" stroke-opacity="0.5" stroke-width="1" stroke-dasharray="1,5" opacity="1"/><line transform="translate(0,63)" x2="640" y2="0" stroke="#122b39" stroke-opacity="0.5" stroke-width="1" stroke-dasharray="1,5" opacity="1"/><line transform="translate(0,0)" x2="640" y2="0" stroke="#122b39" stroke-opacity="0.5" stroke-width="1" stroke-dasharray="1,5" opacity="1"/></g></g><path class="foreground" aria-hidden="true" d="" pointer-events="none" display="none"/></g></g><g class="mark-group role-axis" role="graphics-symbol" aria-roledescription="axis" aria-label="X-axis for a linear scale with values from 2005 to 2032"><g transform="translate(0.5,380.5)"><path class="background" aria-hidden="true" d="M0,0h0v0h0Z" pointer-events="none"/><g><g class="mark-rule role-axis-tick" pointer-events="none"><line transform="translate(0,0)" x2="0" y2="0" stroke="#122b39" stroke-width="1" opacity="1"/><line transform="translate(71,0)" x2="0" y2="0" stroke="#122b39" stroke-width="1" opacity="1"/><line transform="translate(142,0)" x2="0" y2="0" stroke="#122b39" stroke-width="1" opacity="1"/><line transform="translate(213,0)" x2="0" y2="0" stroke="#122b39" stroke-width="1" opacity="1"/><line transform="translate(284,0)" x2="0" y2="0" stroke="#122b39" stroke-width="1" opacity="1"/><line transform="translate(356,0)" x2="0" y2="0" stroke="#122b39" stroke-width="1" opacity="1"/><line transform="translate(427,0)" x2="0" y2="0" stroke="#122b39" stroke-width="1" opacity="1"/></g><g class="mark-text role-axis-label" pointer-events="none"><text text-anchor="middle" transform="translate(0,14)" font-family="Circular Std" font-size="11px" fill="#122b39" opacity="1">2005</text><text text-anchor="middle" transform="translate(71.11111111111111,14)" font-family="Circular Std" font-size="11px" fill="#122b39" opacity="1">2008</text><text text-anchor="middle" transform="translate(142.22222222222223,14)" font-family="Circular Std" font-size="11px" fill="#122b39" opacity="1">2011</text><text text-anchor="middle" transform="translate(213.33333333333331,14)" font-family="Circular Std" font-size="11px" fill="#122b39" opacity="1">2014</text><text text-anchor="middle" transform="translate(284.44444444444446,14)" font-family="Circular Std" font-size="11px" fill="#122b39" opacity="1">2017</text><text text-anchor="middle" transform="translate(355.55555555555554,14)" font-family="Circular Std" font-size="11px" fill="#122b39" opacity="1">2020</text><text text-anchor="middle" transform="translate(426.66666666666663,14)" font-family="Circular Std" font-size="11px" fill="#122b39" opacity="1">2023</text></g><g class="mark-rule role-axis-domain" pointer-events="none"><line transform="translate(0,0)" x2="640" y2="0" stroke="#122b39" stroke-opacity="0.5" stroke-width="1" opacity="1"/></g></g><path class="foreground" aria-hidden="true" d="" pointer-events="none" display="none"/></g></g><g class="mark-group role-axis" role="graphics-symbol" aria-roledescription="axis" aria-label="Y-axis for a linear scale with values from 1 to 7"><g transform="translate(0.5,0.5)"><path class="background" aria-hidden="true" d="M0,0h0v0h0Z" pointer-events="none"/><g><g class="mark-rule role-axis-tick" pointer-events="none"><line transform="translate(0,380)" x2="0" y2="0" stroke="#122b39" stroke-width="1" opacity="1"/><line transform="translate(0,317)" x2="0" y2="0" stroke="#122b39" stroke-width="1" opacity="1"/><line transform="translate(0,253)" x2="0" y2="0" stroke="#122b39" stroke-width="1" opacity="1"/><line transform="translate(0,190)" x2="0" y2="0" stroke="#122b39" stroke-width="1" opacity="1"/><line transform="translate(0,127)" x2="0" y2="0" stroke="#122b39" stroke-width="1" opacity="1"/><line transform="translate(0,63)" x2="0" y2="0" stroke="#122b39" stroke-width="1" opacity="1"/><line transform="translate(0,0)" x2="0" y2="0" stroke="#122b39" stroke-width="1" opacity="1"/></g><g class="mark-rule role-axis-domain" pointer-events="none"><line transform="translate(0,380)" x2="0" y2="-380" stroke="#122b39" stroke-opacity="0.5" stroke-width="1" opacity="1"/></g></g><path class="foreground" aria-hidden="true" d="" pointer-events="none" display="none"/></g></g><g class="mark-text role-mark concat_1_layer_0_marks" role="graphics-object" aria-roledescription="text mark container"><text aria-label="v: 1" role="graphics-symbol" aria-roledescription="text mark" text-anchor="end" transform="translate(-6,383)" font-family="Circular Std" font-size="11px" fill="#122b39">1</text><text aria-label="v: 2" role="graphics-symbol" aria-roledescription="text mark" text-anchor="end" transform="translate(-6,319.6666666666667)" font-family="Circular Std" font-size="11px" fill="#122b39">2</text><text aria-label="v: 3" role="graphics-symbol" aria-roledescription="text mark" text-anchor="end" transform="translate(-6,256.33333333333337)" font-family="Circular Std" font-size="11px" fill="#122b39">3</text><text aria-label="v: 4" role="graphics-symbol" aria-roledescription="text mark" text-anchor="end" transform="translate(-6,193)" font-family="Circular Std" font-size="11px" fill="#122b39">4</text><text aria-label="v: 5" role="graphics-symbol" aria-roledescription="text mark" text-anchor="end" transform="translate(-6,129.66666666666669)" font-family="Circular Std" font-size="11px" fill="#122b39">5</text><text aria-label="v: 6" role="graphics-symbol" aria-roledescription="text mark" text-anchor="end" transform="translate(-6,66.33333333333331)" font-family="Circular Std" font-size="11px" fill="#122b39">6</text><text aria-label="v: 7" role="graphics-symbol" aria-roledescription="text mark" text-anchor="end" transform="translate(-6,3)" font-family="Circular Std" font-size="11px" fill="#122b39">7</text></g><g class="mark-group role-scope concat_1_layer_1_pathgroup" role="graphics-object" aria-roledescription="group mark container"><g transform="translate(0,0)"><path class="background" aria-hidden="true" d="M0,0h640v380h-640Z"/><g><g class="mark-line role-mark concat_1_layer_1_marks" role="graphics-object" aria-roledescription="line mark container"><path aria-label="year: 2006; trust: 5; fill: #179fdb; institution: Police" role="graphics-symbol" aria-roledescription="line mark" d="M23.704,128.595L71.111,124.486L118.519,111.895L165.926,130.236L213.333,138.052L284.444,165.722L331.852,180.958L426.667,158.314" stroke="#179fdb" stroke-width="2"/></g></g><path class="foreground" aria-hidden="true" d="" display="none"/></g><g transform="translate(0,0)"><path class="background" aria-hidden="true" d="M0,0h640v380h-640Z"/><g><g class="mark-line role-mark concat_1_layer_1_marks" role="graphics-object" aria-roledescription="line mark container"><path aria-label="year: 2006; trust: 4; fill: #e6224b; institution: Congress" role="graphics-symbol" aria-roledescription="line mark" d="M23.704,186.244L71.111,188.115L118.519,182.474L165.926,189.739L213.333,233.137L284.444,258.638L331.852,252.894L426.667,255.63" stroke="#e6224b" stroke-width="2"/></g></g><path class="foreground" aria-hidden="true" d="" display="none"/></g><g transform="translate(0,0)"><path class="background" aria-hidden="true" d="M0,0h640v380h-640Z"/><g><g class="mark-line role-mark concat_1_layer_1_marks" role="graphics-object" aria-roledescription="line mark container"><path aria-label="year: 2006; trust: 5; fill: #36b7b4; institution: Armed Forces" role="graphics-symbol" aria-roledescription="line mark" d="M23.704,133.44L71.111,132.107L118.519,106.622L165.926,138.089L213.333,150.708L284.444,135.816L331.852,164.549L426.667,150.966" stroke="#36b7b4" stroke-width="2"/></g></g><path class="foreground" aria-hidden="true" d="" display="none"/></g><g transform="translate(0,0)"><path class="background" aria-hidden="true" d="M0,0h640v380h-640Z"/><g><g class="mark-line role-mark concat_1_layer_1_marks" role="graphics-object" aria-roledescription="line mark container"><path aria-label="year: 2006; trust: 3; fill: #f4c245; institution: Political parties" role="graphics-symbol" aria-roledescription="line mark" d="M23.704,229.658L71.111,224.352L118.519,237.261L165.926,229.596L213.333,264.793L284.444,303.439L331.852,290.407L426.667,298.744" stroke="#f4c245" stroke-width="2"/></g></g><path class="foreground" aria-hidden="true" d="" display="none"/></g><g transform="translate(0,0)"><path class="background" aria-hidden="true" d="M0,0h640v380h-640Z"/><g><g class="mark-line role-mark concat_1_layer_1_marks" role="graphics-object" aria-roledescription="line mark container"><path aria-label="year: 2008; trust: 5; fill: #122b39; institution: President" role="graphics-symbol" aria-roledescription="line mark" d="M71.111,146.874L118.519,150.963L165.926,199.132L213.333,152.346L284.444,213.174L331.852,219.595L426.667,240.31" stroke="#122b39" stroke-width="2"/></g></g><path class="foreground" aria-hidden="true" d="" display="none"/></g><g transform="translate(0,0)"><path class="background" aria-hidden="true" d="M0,0h640v380h-640Z"/><g><g class="mark-line role-mark concat_1_layer_1_marks" role="graphics-object" aria-roledescription="line mark container"><path aria-label="year: 2006; trust: 4; fill: #eb5c2e; institution: Courts" role="graphics-symbol" aria-roledescription="line mark" d="M23.704,209.448L71.111,197.155L118.519,194.548L165.926,186.36L213.333,233.859L284.444,253.649L331.852,243.112L426.667,234.971" stroke="#eb5c2e" stroke-width="2"/></g></g><path class="foreground" aria-hidden="true" d="" display="none"/></g></g><g class="mark-symbol role-mark concat_1_layer_2_marks" role="graphics-object" aria-roledescription="symbol mark container"><path aria-label="year: 2023; trust: 4.50030358227; fill: #179fdb; institution: Police" role="graphics-symbol" aria-roledescription="point" transform="translate(426.66666666666663,158.31410645618294)" d="M2.345,0A2.345,2.345,0,1,1,-2.345,0A2.345,2.345,0,1,1,2.345,0" fill="#179fdb" stroke-width="2" opacity="1"/><path aria-label="year: 2023; trust: 2.96373693915; fill: #e6224b; institution: Congress" role="graphics-symbol" aria-roledescription="point" transform="translate(426.66666666666663,255.62999385371847)" d="M2.345,0A2.345,2.345,0,1,1,-2.345,0A2.345,2.345,0,1,1,2.345,0" fill="#e6224b" stroke-width="2" opacity="1"/><path aria-label="year: 2023; trust: 4.61632903622; fill: #36b7b4; institution: Armed Forces" role="graphics-symbol" aria-roledescription="point" transform="translate(426.66666666666663,150.9658277061592)" d="M2.345,0A2.345,2.345,0,1,1,-2.345,0A2.345,2.345,0,1,1,2.345,0" fill="#36b7b4" stroke-width="2" opacity="1"/><path aria-label="year: 2023; trust: 2.28298397041; fill: #f4c245; institution: Political parties" role="graphics-symbol" aria-roledescription="point" transform="translate(426.66666666666663,298.744348540896)" d="M2.345,0A2.345,2.345,0,1,1,-2.345,0A2.345,2.345,0,1,1,2.345,0" fill="#f4c245" stroke-width="2" opacity="1"/><path aria-label="year: 2023; trust: 3.20563035496; fill: #122b39; institution: President" role="graphics-symbol" aria-roledescription="point" transform="translate(426.66666666666663,240.31007751937983)" d="M2.345,0A2.345,2.345,0,1,1,-2.345,0A2.345,2.345,0,1,1,2.345,0" fill="#122b39" stroke-width="2" opacity="1"/><path aria-label="year: 2023; trust: 3.28992628993; fill: #eb5c2e; institution: Courts" role="graphics-symbol" aria-roledescription="point" transform="translate(426.66666666666663,234.97133497133498)" d="M2.345,0A2.345,2.345,0,1,1,-2.345,0A2.345,2.345,0,1,1,2.345,0" fill="#eb5c2e" stroke-width="2" opacity="1"/><path aria-label="year: 2006; trust: 4.96955658504; fill: #179fdb; institution: Police" role="graphics-symbol" aria-roledescription="point" transform="translate(23.703703703703702,128.5947496139422)" d="M2.345,0A2.345,2.345,0,1,1,-2.345,0A2.345,2.345,0,1,1,2.345,0" fill="#179fdb" stroke-width="2" opacity="1"/><path aria-label="year: 2006; trust: 4.05929919137; fill: #e6224b; institution: Congress" role="graphics-symbol" aria-roledescription="point" transform="translate(23.703703703703702,186.24438454627136)" d="M2.345,0A2.345,2.345,0,1,1,-2.345,0A2.345,2.345,0,1,1,2.345,0" fill="#e6224b" stroke-width="2" opacity="1"/><path aria-label="year: 2006; trust: 4.89304812834; fill: #36b7b4; institution: Armed Forces" role="graphics-symbol" aria-roledescription="point" transform="translate(23.703703703703702,133.4402852049911)" d="M2.345,0A2.345,2.345,0,1,1,-2.345,0A2.345,2.345,0,1,1,2.345,0" fill="#36b7b4" stroke-width="2" opacity="1"/><path aria-label="year: 2006; trust: 3.37381916329; fill: #f4c245; institution: Political parties" role="graphics-symbol" aria-roledescription="point" transform="translate(23.703703703703702,229.6581196581197)" d="M2.345,0A2.345,2.345,0,1,1,-2.345,0A2.345,2.345,0,1,1,2.345,0" fill="#f4c245" stroke-width="2" opacity="1"/><path aria-label="year: 2006; trust: 3.69292389853; fill: #eb5c2e; institution: Courts" role="graphics-symbol" aria-roledescription="point" transform="translate(23.703703703703702,209.4481530930129)" d="M2.345,0A2.345,2.345,0,1,1,-2.345,0A2.345,2.345,0,1,1,2.345,0" fill="#eb5c2e" stroke-width="2" opacity="1"/><path aria-label="year: 2008; trust: 5.03443708609; fill: #179fdb; institution: Police" role="graphics-symbol" aria-roledescription="point" transform="translate(71.11111111111111,124.48565121412803)" d="M2.345,0A2.345,2.345,0,1,1,-2.345,0A2.345,2.345,0,1,1,2.345,0" fill="#179fdb" stroke-width="2" opacity="1"/><path aria-label="year: 2008; trust: 4.0297699594; fill: #e6224b; institution: Congress" role="graphics-symbol" aria-roledescription="point" transform="translate(71.11111111111111,188.11456923770862)" d="M2.345,0A2.345,2.345,0,1,1,-2.345,0A2.345,2.345,0,1,1,2.345,0" fill="#e6224b" stroke-width="2" opacity="1"/><path aria-label="year: 2008; trust: 4.91409395973; fill: #36b7b4; institution: Armed Forces" role="graphics-symbol" aria-roledescription="point" transform="translate(71.11111111111111,132.1073825503356)" d="M2.345,0A2.345,2.345,0,1,1,-2.345,0A2.345,2.345,0,1,1,2.345,0" fill="#36b7b4" stroke-width="2" opacity="1"/><path aria-label="year: 2008; trust: 3.45760430686; fill: #f4c245; institution: Political parties" role="graphics-symbol" aria-roledescription="point" transform="translate(71.11111111111111,224.35172723194253)" d="M2.345,0A2.345,2.345,0,1,1,-2.345,0A2.345,2.345,0,1,1,2.345,0" fill="#f4c245" stroke-width="2" opacity="1"/><path aria-label="year: 2008; trust: 4.68093645485; fill: #122b39; institution: President" role="graphics-symbol" aria-roledescription="point" transform="translate(71.11111111111111,146.8740245261984)" d="M2.345,0A2.345,2.345,0,1,1,-2.345,0A2.345,2.345,0,1,1,2.345,0" fill="#122b39" stroke-width="2" opacity="1"/><path aria-label="year: 2008; trust: 3.88702084734; fill: #eb5c2e; institution: Courts" role="graphics-symbol" aria-roledescription="point" transform="translate(71.11111111111111,197.15534633490248)" d="M2.345,0A2.345,2.345,0,1,1,-2.345,0A2.345,2.345,0,1,1,2.345,0" fill="#eb5c2e" stroke-width="2" opacity="1"/><path aria-label="year: 2010; trust: 5.23323593129; fill: #179fdb; institution: Police" role="graphics-symbol" aria-roledescription="point" transform="translate(118.5185185185185,111.8950576850197)" d="M2.345,0A2.345,2.345,0,1,1,-2.345,0A2.345,2.345,0,1,1,2.345,0" fill="#179fdb" stroke-width="2" opacity="1"/><path aria-label="year: 2010; trust: 4.11882406555; fill: #e6224b; institution: Congress" role="graphics-symbol" aria-roledescription="point" transform="translate(118.5185185185185,182.47447584877935)" d="M2.345,0A2.345,2.345,0,1,1,-2.345,0A2.345,2.345,0,1,1,2.345,0" fill="#e6224b" stroke-width="2" opacity="1"/><path aria-label="year: 2010; trust: 5.31649060828; fill: #36b7b4; institution: Armed Forces" role="graphics-symbol" aria-roledescription="point" transform="translate(118.5185185185185,106.62226147589297)" d="M2.345,0A2.345,2.345,0,1,1,-2.345,0A2.345,2.345,0,1,1,2.345,0" fill="#36b7b4" stroke-width="2" opacity="1"/><path aria-label="year: 2010; trust: 3.2537784658; fill: #f4c245; institution: Political parties" role="graphics-symbol" aria-roledescription="point" transform="translate(118.5185185185185,237.26069716599602)" d="M2.345,0A2.345,2.345,0,1,1,-2.345,0A2.345,2.345,0,1,1,2.345,0" fill="#f4c245" stroke-width="2" opacity="1"/><path aria-label="year: 2010; trust: 4.61637015175; fill: #122b39; institution: President" role="graphics-symbol" aria-roledescription="point" transform="translate(118.5185185185185,150.96322372219356)" d="M2.345,0A2.345,2.345,0,1,1,-2.345,0A2.345,2.345,0,1,1,2.345,0" fill="#122b39" stroke-width="2" opacity="1"/><path aria-label="year: 2010; trust: 3.92818243906; fill: #eb5c2e; institution: Courts" role="graphics-symbol" aria-roledescription="point" transform="translate(118.5185185185185,194.5484455263106)" d="M2.345,0A2.345,2.345,0,1,1,-2.345,0A2.345,2.345,0,1,1,2.345,0" fill="#eb5c2e" stroke-width="2" opacity="1"/><path aria-label="year: 2012; trust: 4.94363606759; fill: #179fdb; institution: Police" role="graphics-symbol" aria-roledescription="point" transform="translate(165.92592592592592,130.23638238587486)" d="M2.345,0A2.345,2.345,0,1,1,-2.345,0A2.345,2.345,0,1,1,2.345,0" fill="#179fdb" stroke-width="2" opacity="1"/><path aria-label="year: 2012; trust: 4.00411359189; fill: #e6224b; institution: Congress" role="graphics-symbol" aria-roledescription="point" transform="translate(165.92592592592592,189.7394725136954)" d="M2.345,0A2.345,2.345,0,1,1,-2.345,0A2.345,2.345,0,1,1,2.345,0" fill="#e6224b" stroke-width="2" opacity="1"/><path aria-label="year: 2012; trust: 4.81964332831; fill: #36b7b4; institution: Armed Forces" role="graphics-symbol" aria-roledescription="point" transform="translate(165.92592592592592,138.0892558734437)" d="M2.345,0A2.345,2.345,0,1,1,-2.345,0A2.345,2.345,0,1,1,2.345,0" fill="#36b7b4" stroke-width="2" opacity="1"/><path aria-label="year: 2012; trust: 3.37480312266; fill: #f4c245; institution: Political parties" role="graphics-symbol" aria-roledescription="point" transform="translate(165.92592592592592,229.5958022316839)" d="M2.345,0A2.345,2.345,0,1,1,-2.345,0A2.345,2.345,0,1,1,2.345,0" fill="#f4c245" stroke-width="2" opacity="1"/><path aria-label="year: 2012; trust: 3.85580653165; fill: #122b39; institution: President" role="graphics-symbol" aria-roledescription="point" transform="translate(165.92592592592592,199.13225299531524)" d="M2.345,0A2.345,2.345,0,1,1,-2.345,0A2.345,2.345,0,1,1,2.345,0" fill="#122b39" stroke-width="2" opacity="1"/><path aria-label="year: 2012; trust: 4.05746818803; fill: #eb5c2e; institution: Courts" role="graphics-symbol" aria-roledescription="point" transform="translate(165.92592592592592,186.36034809148032)" d="M2.345,0A2.345,2.345,0,1,1,-2.345,0A2.345,2.345,0,1,1,2.345,0" fill="#eb5c2e" stroke-width="2" opacity="1"/><path aria-label="year: 2014; trust: 4.82023754506; fill: #179fdb; institution: Police" role="graphics-symbol" aria-roledescription="point" transform="translate(213.33333333333331,138.0516221460148)" d="M2.345,0A2.345,2.345,0,1,1,-2.345,0A2.345,2.345,0,1,1,2.345,0" fill="#179fdb" stroke-width="2" opacity="1"/><path aria-label="year: 2014; trust: 3.31889110857; fill: #e6224b; institution: Congress" role="graphics-symbol" aria-roledescription="point" transform="translate(213.33333333333331,233.1368964569438)" d="M2.345,0A2.345,2.345,0,1,1,-2.345,0A2.345,2.345,0,1,1,2.345,0" fill="#e6224b" stroke-width="2" opacity="1"/><path aria-label="year: 2014; trust: 4.62039595552; fill: #36b7b4; institution: Armed Forces" role="graphics-symbol" aria-roledescription="point" transform="translate(213.33333333333331,150.70825615064592)" d="M2.345,0A2.345,2.345,0,1,1,-2.345,0A2.345,2.345,0,1,1,2.345,0" fill="#36b7b4" stroke-width="2" opacity="1"/><path aria-label="year: 2014; trust: 2.81906193605; fill: #f4c245; institution: Political parties" role="graphics-symbol" aria-roledescription="point" transform="translate(213.33333333333331,264.7927440500746)" d="M2.345,0A2.345,2.345,0,1,1,-2.345,0A2.345,2.345,0,1,1,2.345,0" fill="#f4c245" stroke-width="2" opacity="1"/><path aria-label="year: 2014; trust: 4.59454386685; fill: #122b39; institution: President" role="graphics-symbol" aria-roledescription="point" transform="translate(213.33333333333331,152.3455550995912)" d="M2.345,0A2.345,2.345,0,1,1,-2.345,0A2.345,2.345,0,1,1,2.345,0" fill="#122b39" stroke-width="2" opacity="1"/><path aria-label="year: 2014; trust: 3.30749538506; fill: #eb5c2e; institution: Courts" role="graphics-symbol" aria-roledescription="point" transform="translate(213.33333333333331,233.85862561285137)" d="M2.345,0A2.345,2.345,0,1,1,-2.345,0A2.345,2.345,0,1,1,2.345,0" fill="#eb5c2e" stroke-width="2" opacity="1"/><path aria-label="year: 2017; trust: 4.38333333333; fill: #179fdb; institution: Police" role="graphics-symbol" aria-roledescription="point" transform="translate(284.44444444444446,165.72222222222217)" d="M2.345,0A2.345,2.345,0,1,1,-2.345,0A2.345,2.345,0,1,1,2.345,0" fill="#179fdb" stroke-width="2" opacity="1"/><path aria-label="year: 2017; trust: 2.91624365482; fill: #e6224b; institution: Congress" role="graphics-symbol" aria-roledescription="point" transform="translate(284.44444444444446,258.6379018612521)" d="M2.345,0A2.345,2.345,0,1,1,-2.345,0A2.345,2.345,0,1,1,2.345,0" fill="#e6224b" stroke-width="2" opacity="1"/><path aria-label="year: 2017; trust: 4.85553470919; fill: #36b7b4; institution: Armed Forces" role="graphics-symbol" aria-roledescription="point" transform="translate(284.44444444444446,135.81613508442777)" d="M2.345,0A2.345,2.345,0,1,1,-2.345,0A2.345,2.345,0,1,1,2.345,0" fill="#36b7b4" stroke-width="2" opacity="1"/><path aria-label="year: 2017; trust: 2.20886075949; fill: #f4c245; institution: Political parties" role="graphics-symbol" aria-roledescription="point" transform="translate(284.44444444444446,303.4388185654009)" d="M2.345,0A2.345,2.345,0,1,1,-2.345,0A2.345,2.345,0,1,1,2.345,0" fill="#f4c245" stroke-width="2" opacity="1"/><path aria-label="year: 2017; trust: 3.63410080896; fill: #122b39; institution: President" role="graphics-symbol" aria-roledescription="point" transform="translate(284.44444444444446,213.17361543248288)" d="M2.345,0A2.345,2.345,0,1,1,-2.345,0A2.345,2.345,0,1,1,2.345,0" fill="#122b39" stroke-width="2" opacity="1"/><path aria-label="year: 2017; trust: 2.99501246883; fill: #eb5c2e; institution: Courts" role="graphics-symbol" aria-roledescription="point" transform="translate(284.44444444444446,253.64921030756443)" d="M2.345,0A2.345,2.345,0,1,1,-2.345,0A2.345,2.345,0,1,1,2.345,0" fill="#eb5c2e" stroke-width="2" opacity="1"/><path aria-label="year: 2019; trust: 4.14276960784; fill: #179fdb; institution: Police" role="graphics-symbol" aria-roledescription="point" transform="translate(331.85185185185185,180.9579248366013)" d="M2.345,0A2.345,2.345,0,1,1,-2.345,0A2.345,2.345,0,1,1,2.345,0" fill="#179fdb" stroke-width="2" opacity="1"/><path aria-label="year: 2019; trust: 3.00693568726; fill: #e6224b; institution: Congress" role="graphics-symbol" aria-roledescription="point" transform="translate(331.85185185185185,252.8940731399748)" d="M2.345,0A2.345,2.345,0,1,1,-2.345,0A2.345,2.345,0,1,1,2.345,0" fill="#e6224b" stroke-width="2" opacity="1"/><path aria-label="year: 2019; trust: 4.40186335404; fill: #36b7b4; institution: Armed Forces" role="graphics-symbol" aria-roledescription="point" transform="translate(331.85185185185185,164.54865424430645)" d="M2.345,0A2.345,2.345,0,1,1,-2.345,0A2.345,2.345,0,1,1,2.345,0" fill="#36b7b4" stroke-width="2" opacity="1"/><path aria-label="year: 2019; trust: 2.41463414634; fill: #f4c245; institution: Political parties" role="graphics-symbol" aria-roledescription="point" transform="translate(331.85185185185185,290.4065040650407)" d="M2.345,0A2.345,2.345,0,1,1,-2.345,0A2.345,2.345,0,1,1,2.345,0" fill="#f4c245" stroke-width="2" opacity="1"/><path aria-label="year: 2019; trust: 3.53271604938; fill: #122b39; institution: President" role="graphics-symbol" aria-roledescription="point" transform="translate(331.85185185185185,219.5946502057613)" d="M2.345,0A2.345,2.345,0,1,1,-2.345,0A2.345,2.345,0,1,1,2.345,0" fill="#122b39" stroke-width="2" opacity="1"/><path aria-label="year: 2019; trust: 3.16139044072; fill: #eb5c2e; institution: Courts" role="graphics-symbol" aria-roledescription="point" transform="translate(331.85185185185185,243.11193875439682)" d="M2.345,0A2.345,2.345,0,1,1,-2.345,0A2.345,2.345,0,1,1,2.345,0" fill="#eb5c2e" stroke-width="2" opacity="1"/></g><g class="mark-rule role-mark concat_1_layer_3_marks" role="graphics-object" aria-roledescription="rule mark container"><line aria-label="year: 2023; trust: 2.28298397041; label_x: 2023.6; ylab: 2.28298397041; fill: #f4c245" role="graphics-symbol" aria-roledescription="rule mark" transform="translate(426.66666666666663,298.744348540896)" x2="14.222222222220125" y2="0" stroke="#f4c245" stroke-width="1" opacity="0.55"/><line aria-label="year: 2023; trust: 2.96373693915; label_x: 2023.6; ylab: 2.96373693915; fill: #e6224b" role="graphics-symbol" aria-roledescription="rule mark" transform="translate(426.66666666666663,255.62999385371847)" x2="14.222222222220125" y2="0" stroke="#e6224b" stroke-width="1" opacity="0.55"/><line aria-label="year: 2023; trust: 3.20563035496; label_x: 2023.6; ylab: 3.26373693915; fill: #122b39" role="graphics-symbol" aria-roledescription="rule mark" transform="translate(426.66666666666663,240.31007751937983)" x2="14.222222222220125" y2="-3.6800836656613" stroke="#122b39" stroke-width="1" opacity="0.55"/><line aria-label="year: 2023; trust: 3.28992628993; label_x: 2023.6; ylab: 3.56373693915; fill: #eb5c2e" role="graphics-symbol" aria-roledescription="rule mark" transform="translate(426.66666666666663,234.97133497133498)" x2="14.222222222220125" y2="-17.34134111761645" stroke="#eb5c2e" stroke-width="1" opacity="0.55"/><line aria-label="year: 2023; trust: 4.50030358227; label_x: 2023.6; ylab: 4.50030358227; fill: #179fdb" role="graphics-symbol" aria-roledescription="rule mark" transform="translate(426.66666666666663,158.31410645618294)" x2="14.222222222220125" y2="0" stroke="#179fdb" stroke-width="1" opacity="0.55"/><line aria-label="year: 2023; trust: 4.61632903622; label_x: 2023.6; ylab: 4.80030358227; fill: #36b7b4" role="graphics-symbol" aria-roledescription="rule mark" transform="translate(426.66666666666663,150.9658277061592)" x2="14.222222222220125" y2="-11.651721249976248" stroke="#36b7b4" stroke-width="1" opacity="0.55"/></g><g class="mark-text role-mark concat_1_layer_4_marks" role="graphics-object" aria-roledescription="text mark container"><text aria-label="label_x: 2023.6; ylab: 2.28298397041; fill: #f4c245; institution: Political parties" role="graphics-symbol" aria-roledescription="text mark" text-anchor="start" transform="translate(444.88888888888675,301.744348540896)" font-family="Circular Std" font-size="11px" font-weight="600" fill="#f4c245">Political parties</text><text aria-label="label_x: 2023.6; ylab: 2.96373693915; fill: #e6224b; institution: Congress" role="graphics-symbol" aria-roledescription="text mark" text-anchor="start" transform="translate(444.88888888888675,258.6299938537185)" font-family="Circular Std" font-size="11px" font-weight="600" fill="#e6224b">Congress</text><text aria-label="label_x: 2023.6; ylab: 3.26373693915; fill: #122b39; institution: President" role="graphics-symbol" aria-roledescription="text mark" text-anchor="start" transform="translate(444.88888888888675,239.62999385371853)" font-family="Circular Std" font-size="11px" font-weight="600" fill="#122b39">President</text><text aria-label="label_x: 2023.6; ylab: 3.56373693915; fill: #eb5c2e; institution: Courts" role="graphics-symbol" aria-roledescription="text mark" text-anchor="start" transform="translate(444.88888888888675,220.62999385371853)" font-family="Circular Std" font-size="11px" font-weight="600" fill="#eb5c2e">Courts</text><text aria-label="label_x: 2023.6; ylab: 4.50030358227; fill: #179fdb; institution: Police" role="graphics-symbol" aria-roledescription="text mark" text-anchor="start" transform="translate(444.88888888888675,161.31410645618294)" font-family="Circular Std" font-size="11px" font-weight="600" fill="#179fdb">Police</text><text aria-label="label_x: 2023.6; ylab: 4.80030358227; fill: #36b7b4; institution: Armed Forces" role="graphics-symbol" aria-roledescription="text mark" text-anchor="start" transform="translate(444.88888888888675,142.31410645618294)" font-family="Circular Std" font-size="11px" font-weight="600" fill="#36b7b4">Armed Forces</text></g><g class="mark-text role-mark concat_1_layer_5_layer_0_marks" role="graphics-object" aria-roledescription="text mark container"><text aria-label="t: Source: LAPOP AmericasBarometer (2006–2023). Population-weighted means." role="graphics-symbol" aria-roledescription="text mark" text-anchor="start" transform="translate(0,418)" font-family="Circular Std" font-size="9.5px" fill="rgba(24, 42, 56)">Source: LAPOP AmericasBarometer (2006–2023). Population-weighted means.</text></g><g class="mark-text role-mark concat_1_layer_5_layer_1_marks" role="graphics-object" aria-roledescription="text mark container"><text aria-label="t: Trust in the President first recorded in 2008; the 2021 round omitted the trust battery." role="graphics-symbol" aria-roledescription="text mark" text-anchor="start" transform="translate(0,431)" font-family="Circular Std" font-size="9.5px" fill="rgba(24, 42, 56)">Trust in the President first recorded in 2008; the 2021 round omitted the trust battery.</text></g></g><path class="foreground" aria-hidden="true" d="" display="none"/></g></g></g><path class="foreground" aria-hidden="true" d="" display="none"/></g></g></g></svg>