<svg xmlns="http://www.w3.org/2000/svg" xmlns:xlink="http://www.w3.org/1999/xlink" version="1.1" class="marks" width="627" height="421" viewBox="0 0 627 421"><rect width="627" height="421" fill="white"/><g fill="none" stroke-miterlimit="10" transform="translate(101,71)"><g class="mark-group role-frame root" role="graphics-object" aria-roledescription="group mark container"><g transform="translate(0,0)"><path class="background" aria-hidden="true" d="M0,0h0v0h0Z"/><g><g class="mark-group role-scope concat_0_group" role="graphics-object" aria-roledescription="group mark container"><g transform="translate(0,0)"><path class="background" aria-hidden="true" d="M0.5,0.5h480v300h-480Z"/><g><g class="mark-group role-axis" aria-hidden="true"><g transform="translate(0.5,300.5)"><path class="background" aria-hidden="true" d="M0,0h0v0h0Z" pointer-events="none"/><g><g class="mark-rule role-axis-grid" pointer-events="none"><line transform="translate(0,0)" x2="0" y2="-300" stroke="#ddd" stroke-opacity="0" stroke-width="1" opacity="1"/><line transform="translate(96,0)" x2="0" y2="-300" stroke="#ddd" stroke-opacity="0" stroke-width="1" opacity="1"/><line transform="translate(192,0)" x2="0" y2="-300" stroke="#ddd" stroke-opacity="0" stroke-width="1" opacity="1"/><line transform="translate(288,0)" x2="0" y2="-300" stroke="#ddd" stroke-opacity="0" stroke-width="1" opacity="1"/><line transform="translate(384,0)" x2="0" y2="-300" stroke="#ddd" stroke-opacity="0" stroke-width="1" opacity="1"/><line transform="translate(480,0)" x2="0" y2="-300" stroke="#ddd" stroke-opacity="0" stroke-width="1" opacity="1"/></g></g><path class="foreground" aria-hidden="true" d="" pointer-events="none" display="none"/></g></g><g class="mark-group role-axis" role="graphics-symbol" aria-roledescription="axis" aria-label="X-axis for a linear scale with values from 0 to 500"><g transform="translate(0.5,300.5)"><path class="background" aria-hidden="true" d="M0,0h0v0h0Z" pointer-events="none"/><g><g class="mark-rule role-axis-tick" pointer-events="none"><line transform="translate(0,0)" x2="0" y2="0" stroke="#122b39" stroke-width="1" opacity="1"/><line transform="translate(96,0)" x2="0" y2="0" stroke="#122b39" stroke-width="1" opacity="1"/><line transform="translate(192,0)" x2="0" y2="0" stroke="#122b39" stroke-width="1" opacity="1"/><line transform="translate(288,0)" x2="0" y2="0" stroke="#122b39" stroke-width="1" opacity="1"/><line transform="translate(384,0)" x2="0" y2="0" stroke="#122b39" stroke-width="1" opacity="1"/><line transform="translate(480,0)" x2="0" y2="0" stroke="#122b39" stroke-width="1" opacity="1"/></g><g class="mark-text role-axis-label" pointer-events="none"><text text-anchor="middle" transform="translate(0,14)" font-family="Circular Std" font-size="11px" fill="#122b39" opacity="1">0%</text><text text-anchor="middle" transform="translate(96,14)" font-family="Circular Std" font-size="11px" fill="#122b39" opacity="1">100%</text><text text-anchor="middle" transform="translate(192,14)" font-family="Circular Std" font-size="11px" fill="#122b39" opacity="1">200%</text><text text-anchor="middle" transform="translate(288,14)" font-family="Circular Std" font-size="11px" fill="#122b39" opacity="1">300%</text><text text-anchor="middle" transform="translate(384,14)" font-family="Circular Std" font-size="11px" fill="#122b39" opacity="1">400%</text><text text-anchor="middle" transform="translate(480,14)" font-family="Circular Std" font-size="11px" fill="#122b39" opacity="1">500%</text></g><g class="mark-rule role-axis-domain" pointer-events="none"><line transform="translate(0,0)" x2="480" y2="0" stroke="#122b39" stroke-opacity="0.5" stroke-width="1" opacity="1"/></g></g><path class="foreground" aria-hidden="true" d="" pointer-events="none" display="none"/></g></g><g class="mark-group role-axis" role="graphics-symbol" aria-roledescription="axis" aria-label="Y-axis for a discrete scale with 7 values: Japan, Canada, France, United States, United Kingdom, Italy, Germany"><g transform="translate(0.5,0.5)"><path class="background" aria-hidden="true" d="M0,0h0v0h0Z" pointer-events="none"/><g><g class="mark-rule role-axis-tick" pointer-events="none"><line transform="translate(0,21)" x2="0" y2="0" stroke="#122b39" stroke-width="1" opacity="1"/><line transform="translate(0,64)" x2="0" y2="0" stroke="#122b39" stroke-width="1" opacity="1"/><line transform="translate(0,107)" x2="0" y2="0" stroke="#122b39" stroke-width="1" opacity="1"/><line transform="translate(0,149)" x2="0" y2="0" stroke="#122b39" stroke-width="1" opacity="1"/><line transform="translate(0,192)" x2="0" y2="0" stroke="#122b39" stroke-width="1" opacity="1"/><line transform="translate(0,235)" x2="0" y2="0" stroke="#122b39" stroke-width="1" opacity="1"/><line transform="translate(0,278)" x2="0" y2="0" stroke="#122b39" stroke-width="1" opacity="1"/></g><g class="mark-text role-axis-label" pointer-events="none"><text text-anchor="end" transform="translate(-5,24.928571428571423)" font-family="Circular Std" font-size="12px" fill="#122b39" opacity="1">Japan</text><text text-anchor="end" transform="translate(-5,67.78571428571428)" font-family="Circular Std" font-size="12px" fill="#122b39" opacity="1">Canada</text><text text-anchor="end" transform="translate(-5,110.64285714285714)" font-family="Circular Std" font-size="12px" fill="#122b39" opacity="1">France</text><text text-anchor="end" transform="translate(-5,153.49999999999997)" font-family="Circular Std" font-size="12px" fill="#122b39" opacity="1">United States</text><text text-anchor="end" transform="translate(-5,196.35714285714283)" font-family="Circular Std" font-size="12px" fill="#122b39" opacity="1">United Kingdom</text><text text-anchor="end" transform="translate(-5,239.2142857142857)" font-family="Circular Std" font-size="12px" fill="#122b39" opacity="1">Italy</text><text text-anchor="end" transform="translate(-5,282.0714285714285)" font-family="Circular Std" font-size="12px" fill="#122b39" opacity="1">Germany</text></g><g class="mark-rule role-axis-domain" pointer-events="none"><line transform="translate(0,0)" x2="0" y2="300" stroke="#122b39" stroke-opacity="0.5" stroke-width="1" opacity="1"/></g></g><path class="foreground" aria-hidden="true" d="" pointer-events="none" display="none"/></g></g><g class="mark-group role-scope" role="graphics-object" aria-roledescription="group mark container"><g transform="translate(0,50.28571428571428)"><path class="background" aria-hidden="true" d="M0,0L313.7152,0C314.819030048988,0,315.7152,0.896169951012,315.7152,2L315.7152,26C315.7152,27.103830048988,314.819030048988,28,313.7152,28L0,28C0,28,0,28,0,28L0,0C0,0,0,0,0,0Z"/><g clip-path="url(#clip219)"><g class="mark-group role-scope" role="graphics-object" aria-roledescription="group mark container"><g transform="translate(0,0)"><path class="background" aria-hidden="true" d="M0,0h0v28h0Z"/><g><g class="mark-rect role-mark concat_0_layer_0_marks" role="graphics-object" aria-roledescription="rect mark container"><path aria-label="debt_pct: 118; country: Canada; sector: Non-financial corporate debt; sector_sort: 1" role="graphics-symbol" aria-roledescription="bar" d="M106.33919999999999,0h113.3088v28h-113.3088Z" fill="#f4c245"/><path aria-label="debt_pct: 111; country: Canada; sector: Government debt; sector_sort: 0" role="graphics-symbol" aria-roledescription="bar" d="M0,0h106.33919999999999v28h-106.33919999999999Z" fill="#e6224b"/><path aria-label="debt_pct: 100; country: Canada; sector: Household debt; sector_sort: 2" role="graphics-symbol" aria-roledescription="bar" d="M219.648,0h96.06719999999999v28h-96.06719999999999Z" fill="#179fdb"/></g></g><path class="foreground" aria-hidden="true" d="" display="none"/></g></g></g><path class="foreground" aria-hidden="true" d="" display="none"/></g><g transform="translate(0,93.14285714285714)"><path class="background" aria-hidden="true" d="M0,0L313.4176,0C314.521430048988,0,315.4176,0.896169951012,315.4176,2L315.4176,26C315.4176,27.103830048988,314.521430048988,28,313.4176,28L0,28C0,28,0,28,0,28L0,0C0,0,0,0,0,0Z"/><g clip-path="url(#clip220)"><g class="mark-group role-scope" role="graphics-object" aria-roledescription="group mark container"><g transform="translate(0,0)"><path class="background" aria-hidden="true" d="M0,0h0v28h0Z"/><g><g class="mark-rect role-mark concat_0_layer_0_marks" role="graphics-object" aria-roledescription="rect mark container"><path aria-label="debt_pct: 113; country: France; sector: Government debt; sector_sort: 0" role="graphics-symbol" aria-roledescription="bar" d="M0,0h108.5856v28h-108.5856Z" fill="#e6224b"/><path aria-label="debt_pct: 155; country: France; sector: Non-financial corporate debt; sector_sort: 1" role="graphics-symbol" aria-roledescription="bar" d="M108.5856,0h148.74240000000003v28h-148.74240000000003Z" fill="#f4c245"/><path aria-label="debt_pct: 61; country: France; sector: Household debt; sector_sort: 2" role="graphics-symbol" aria-roledescription="bar" d="M257.32800000000003,0h58.08959999999996v28h-58.08959999999996Z" fill="#179fdb"/></g></g><path class="foreground" aria-hidden="true" d="" display="none"/></g></g></g><path class="foreground" aria-hidden="true" d="" display="none"/></g><g transform="translate(0,264.5714285714285)"><path class="background" aria-hidden="true" d="M0,0L193.168,0C194.271830048988,0,195.168,0.896169951012,195.168,2L195.168,26C195.168,27.103830048988,194.271830048988,28,193.168,28L0,28C0,28,0,28,0,28L0,0C0,0,0,0,0,0Z"/><g clip-path="url(#clip221)"><g class="mark-group role-scope" role="graphics-object" aria-roledescription="group mark container"><g transform="translate(0,0)"><path class="background" aria-hidden="true" d="M0,0h0v28h0Z"/><g><g class="mark-rect role-mark concat_0_layer_0_marks" role="graphics-object" aria-roledescription="rect mark container"><path aria-label="debt_pct: 50; country: Germany; sector: Household debt; sector_sort: 2" role="graphics-symbol" aria-roledescription="bar" d="M147.23520000000002,0h47.932799999999986v28h-47.932799999999986Z" fill="#179fdb"/><path aria-label="debt_pct: 64; country: Germany; sector: Government debt; sector_sort: 0" role="graphics-symbol" aria-roledescription="bar" d="M0,0h61.3344v28h-61.3344Z" fill="#e6224b"/><path aria-label="debt_pct: 89; country: Germany; sector: Non-financial corporate debt; sector_sort: 1" role="graphics-symbol" aria-roledescription="bar" d="M61.3344,0h85.90080000000002v28h-85.90080000000002Z" fill="#f4c245"/></g></g><path class="foreground" aria-hidden="true" d="" display="none"/></g></g></g><path class="foreground" aria-hidden="true" d="" display="none"/></g><g transform="translate(0,221.7142857142857)"><path class="background" aria-hidden="true" d="M0,0L219.42400000000004,0C220.52783004898802,0,221.42400000000004,0.896169951012,221.42400000000004,2L221.42400000000004,26C221.42400000000004,27.103830048988,220.52783004898802,28,219.42400000000004,28L0,28C0,28,0,28,0,28L0,0C0,0,0,0,0,0Z"/><g clip-path="url(#clip222)"><g class="mark-group role-scope" role="graphics-object" aria-roledescription="group mark container"><g transform="translate(0,0)"><path class="background" aria-hidden="true" d="M0,0h0v28h0Z"/><g><g class="mark-rect role-mark concat_0_layer_0_marks" role="graphics-object" aria-roledescription="rect mark container"><path aria-label="debt_pct: 36; country: Italy; sector: Household debt; sector_sort: 2" role="graphics-symbol" aria-roledescription="bar" d="M186.75840000000002,0h34.66560000000001v28h-34.66560000000001Z" fill="#179fdb"/><path aria-label="debt_pct: 135; country: Italy; sector: Government debt; sector_sort: 0" role="graphics-symbol" aria-roledescription="bar" d="M0,0h129.9168v28h-129.9168Z" fill="#e6224b"/><path aria-label="debt_pct: 59; country: Italy; sector: Non-financial corporate debt; sector_sort: 1" role="graphics-symbol" aria-roledescription="bar" d="M129.9168,0h56.84160000000003v28h-56.84160000000003Z" fill="#f4c245"/></g></g><path class="foreground" aria-hidden="true" d="" display="none"/></g></g></g><path class="foreground" aria-hidden="true" d="" display="none"/></g><g transform="translate(0,7.4285714285714235)"><path class="background" aria-hidden="true" d="M0,0L399.32800000000003,0C400.43183004898805,0,401.32800000000003,0.896169951012,401.32800000000003,2L401.32800000000003,26C401.32800000000003,27.103830048988,400.43183004898805,28,399.32800000000003,28L0,28C0,28,0,28,0,28L0,0C0,0,0,0,0,0Z"/><g clip-path="url(#clip223)"><g class="mark-group role-scope" role="graphics-object" aria-roledescription="group mark container"><g transform="translate(0,0)"><path class="background" aria-hidden="true" d="M0,0h0v28h0Z"/><g><g class="mark-rect role-mark concat_0_layer_0_marks" role="graphics-object" aria-roledescription="rect mark container"><path aria-label="debt_pct: 116; country: Japan; sector: Non-financial corporate debt; sector_sort: 1" role="graphics-symbol" aria-roledescription="bar" d="M227.1936,0h111.66720000000004v28h-111.66720000000004Z" fill="#f4c245"/><path aria-label="debt_pct: 237; country: Japan; sector: Government debt; sector_sort: 0" role="graphics-symbol" aria-roledescription="bar" d="M0,0h227.1936v28h-227.1936Z" fill="#e6224b"/><path aria-label="debt_pct: 65; country: Japan; sector: Household debt; sector_sort: 2" role="graphics-symbol" aria-roledescription="bar" d="M338.86080000000004,0h62.46719999999999v28h-62.46719999999999Z" fill="#179fdb"/></g></g><path class="foreground" aria-hidden="true" d="" display="none"/></g></g></g><path class="foreground" aria-hidden="true" d="" display="none"/></g><g transform="translate(0,178.85714285714283)"><path class="background" aria-hidden="true" d="M0,0L227.0752,0C228.17903004898798,0,229.0752,0.896169951012,229.0752,2L229.0752,26C229.0752,27.103830048988,228.17903004898798,28,227.0752,28L0,28C0,28,0,28,0,28L0,0C0,0,0,0,0,0Z"/><g clip-path="url(#clip224)"><g class="mark-group role-scope" role="graphics-object" aria-roledescription="group mark container"><g transform="translate(0,0)"><path class="background" aria-hidden="true" d="M0,0h0v28h0Z"/><g><g class="mark-rect role-mark concat_0_layer_0_marks" role="graphics-object" aria-roledescription="rect mark container"><path aria-label="debt_pct: 101; country: United Kingdom; sector: Government debt; sector_sort: 0" role="graphics-symbol" aria-roledescription="bar" d="M0,0h97.2384v28h-97.2384Z" fill="#e6224b"/><path aria-label="debt_pct: 61; country: United Kingdom; sector: Non-financial corporate debt; sector_sort: 1" role="graphics-symbol" aria-roledescription="bar" d="M97.2384,0h58.70399999999999v28h-58.70399999999999Z" fill="#f4c245"/><path aria-label="debt_pct: 76; country: United Kingdom; sector: Household debt; sector_sort: 2" role="graphics-symbol" aria-roledescription="bar" d="M155.9424,0h73.1328v28h-73.1328Z" fill="#179fdb"/></g></g><path class="foreground" aria-hidden="true" d="" display="none"/></g></g></g><path class="foreground" aria-hidden="true" d="" display="none"/></g><g transform="translate(0,135.99999999999997)"><path class="background" aria-hidden="true" d="M0,0L251.35359999999997,0C252.45743004898796,0,253.35359999999997,0.896169951012,253.35359999999997,2L253.35359999999997,26C253.35359999999997,27.103830048988,252.45743004898796,28,251.35359999999997,28L0,28C0,28,0,28,0,28L0,0C0,0,0,0,0,0Z"/><g clip-path="url(#clip225)"><g class="mark-group role-scope" role="graphics-object" aria-roledescription="group mark container"><g transform="translate(0,0)"><path class="background" aria-hidden="true" d="M0,0h0v28h0Z"/><g><g class="mark-rect role-mark concat_0_layer_0_marks" role="graphics-object" aria-roledescription="rect mark container"><path aria-label="debt_pct: 121; country: United States; sector: Government debt; sector_sort: 0" role="graphics-symbol" aria-roledescription="bar" d="M0,0h115.95840000000001v28h-115.95840000000001Z" fill="#e6224b"/><path aria-label="debt_pct: 74; country: United States; sector: Non-financial corporate debt; sector_sort: 1" role="graphics-symbol" aria-roledescription="bar" d="M115.95840000000001,0h70.8192v28h-70.8192Z" fill="#f4c245"/><path aria-label="debt_pct: 69; country: United States; sector: Household debt; sector_sort: 2" role="graphics-symbol" aria-roledescription="bar" d="M186.7776,0h66.57599999999996v28h-66.57599999999996Z" fill="#179fdb"/></g></g><path class="foreground" aria-hidden="true" d="" display="none"/></g></g></g><path class="foreground" aria-hidden="true" d="" display="none"/></g></g><g class="mark-text role-mark concat_0_layer_1_marks" role="graphics-object" aria-roledescription="text mark container"><text aria-label="Total: 328.87; country: Canada; label: 329%" role="graphics-symbol" aria-roledescription="text mark" text-anchor="start" transform="translate(320.7152,68.28571428571428)" font-family="Circular Std" font-size="12px" font-weight="bold" fill="#122b39">329%</text><text aria-label="Total: 328.56; country: France; label: 329%" role="graphics-symbol" aria-roledescription="text mark" text-anchor="start" transform="translate(320.4176,111.14285714285714)" font-family="Circular Std" font-size="12px" font-weight="bold" fill="#122b39">329%</text><text aria-label="Total: 203.3; country: Germany; label: 203%" role="graphics-symbol" aria-roledescription="text mark" text-anchor="start" transform="translate(200.168,282.5714285714285)" font-family="Circular Std" font-size="12px" font-weight="bold" fill="#122b39">203%</text><text aria-label="Total: 230.65; country: Italy; label: 231%" role="graphics-symbol" aria-roledescription="text mark" text-anchor="start" transform="translate(226.424,239.7142857142857)" font-family="Circular Std" font-size="12px" font-weight="bold" fill="#122b39">231%</text><text aria-label="Total: 418.05; country: Japan; label: 418%" role="graphics-symbol" aria-roledescription="text mark" text-anchor="start" transform="translate(406.328,25.428571428571423)" font-family="Circular Std" font-size="12px" font-weight="bold" fill="#122b39">418%</text><text aria-label="Total: 238.62; country: United Kingdom; label: 239%" role="graphics-symbol" aria-roledescription="text mark" text-anchor="start" transform="translate(234.0752,196.85714285714283)" font-family="Circular Std" font-size="12px" font-weight="bold" fill="#122b39">239%</text><text aria-label="Total: 263.91; country: United States; label: 264%" role="graphics-symbol" aria-roledescription="text mark" text-anchor="start" transform="translate(258.35360000000003,153.99999999999997)" font-family="Circular Std" font-size="12px" font-weight="bold" fill="#122b39">264%</text></g><g class="mark-group role-title"><g transform="translate(-94.32799530029297,-60)"><path class="background" aria-hidden="true" d="M0,0h0v0h0Z" pointer-events="none"/><g><g class="mark-text role-title-text" role="graphics-symbol" aria-roledescription="title" aria-label="Title text 'Debt in G7 countries'" pointer-events="none"><text text-anchor="start" transform="translate(0,13)" font-family="Circular Std" font-size="16px" font-weight="bold" fill="#122b39" opacity="1">Debt in G7 countries</text></g><g class="mark-text role-title-subtitle" role="graphics-symbol" aria-roledescription="subtitle" aria-label="Subtitle text 'Total debt as % of GDP (2024)'" pointer-events="none"><text text-anchor="start" transform="translate(0,28)" font-family="Circular Std" font-size="11px" fill="#676A86" opacity="1">Total debt as % of GDP (2024)</text></g></g><path class="foreground" aria-hidden="true" d="" pointer-events="none" display="none"/></g></g></g><path class="foreground" aria-hidden="true" d="" display="none"/></g></g><g class="mark-group role-scope concat_1_group" role="graphics-object" aria-roledescription="group mark container"><g transform="translate(0,336)"><path class="background" aria-hidden="true" d="M0.5,0.5h520v5h-520Z"/><g><g class="mark-text role-mark concat_1_marks" role="graphics-object" aria-roledescription="text mark container"><text aria-label="text: Source: IMF Global Debt Database (GDD)" role="graphics-symbol" aria-roledescription="text mark" text-anchor="start" transform="translate(300,5.5)" font-family="Circular Std" font-size="10px" fill="#676A86">Source: IMF Global Debt Database (GDD)</text></g></g><path class="foreground" aria-hidden="true" d="" display="none"/></g></g><g class="mark-group role-legend" role="graphics-symbol" aria-roledescription="legend" aria-label="Symbol legend for fill color with 3 values: Government debt, Non-financial corporate debt, Household debt"><g transform="translate(0,-16)"><path class="background" aria-hidden="true" d="M0,0h350v10h-350Z" pointer-events="none"/><g><g class="mark-group role-legend-entry"><g transform="translate(0,0)"><path class="background" aria-hidden="true" d="M0,0h0v0h0Z" pointer-events="none"/><g><g class="mark-group role-scope" role="graphics-object" aria-roledescription="group mark container"><g transform="translate(0,0)"><path class="background" aria-hidden="true" d="M0,0h94.76000213623047v10h-94.76000213623047Z" pointer-events="none" opacity="1"/><g><g class="mark-symbol role-legend-symbol" pointer-events="none"><path transform="translate(5,5)" d="M-5,-5h10v10h-10Z" fill="#e6224b" stroke-width="0" opacity="1"/></g><g class="mark-text role-legend-label" pointer-events="none"><text text-anchor="start" transform="translate(14,8)" font-family="Circular Std" font-size="10px" fill="#000" opacity="1">Government debt</text></g></g><path class="foreground" aria-hidden="true" d="" pointer-events="none" display="none"/></g><g transform="translate(105,0)"><path class="background" aria-hidden="true" d="M0,0h147.0600128173828v10h-147.0600128173828Z" pointer-events="none" opacity="1"/><g><g class="mark-symbol role-legend-symbol" pointer-events="none"><path transform="translate(5,5)" d="M-5,-5h10v10h-10Z" fill="#f4c245" stroke-width="0" opacity="1"/></g><g class="mark-text role-legend-label" pointer-events="none"><text text-anchor="start" transform="translate(14,8)" font-family="Circular Std" font-size="10px" fill="#000" opacity="1">Non-financial corporate debt</text></g></g><path class="foreground" aria-hidden="true" d="" pointer-events="none" display="none"/></g><g transform="translate(263,0)"><path class="background" aria-hidden="true" d="M0,0h86.81999969482422v10h-86.81999969482422Z" pointer-events="none" opacity="1"/><g><g class="mark-symbol role-legend-symbol" pointer-events="none"><path transform="translate(5,5)" d="M-5,-5h10v10h-10Z" fill="#179fdb" stroke-width="0" opacity="1"/></g><g class="mark-text role-legend-label" pointer-events="none"><text text-anchor="start" transform="translate(14,8)" font-family="Circular Std" font-size="10px" fill="#000" opacity="1">Household debt</text></g></g><path class="foreground" aria-hidden="true" d="" pointer-events="none" display="none"/></g></g></g><path class="foreground" aria-hidden="true" d="" pointer-events="none" display="none"/></g></g></g><path class="foreground" aria-hidden="true" d="" pointer-events="none" display="none"/></g></g></g><path class="foreground" aria-hidden="true" d="" display="none"/></g></g></g><defs><clipPath id="clip219"><path d="M0,0L313.7152,0C314.819030048988,0,315.7152,0.896169951012,315.7152,2L315.7152,26C315.7152,27.103830048988,314.819030048988,28,313.7152,28L0,28C0,28,0,28,0,28L0,0C0,0,0,0,0,0Z"/></clipPath><clipPath id="clip220"><path d="M0,0L313.4176,0C314.521430048988,0,315.4176,0.896169951012,315.4176,2L315.4176,26C315.4176,27.103830048988,314.521430048988,28,313.4176,28L0,28C0,28,0,28,0,28L0,0C0,0,0,0,0,0Z"/></clipPath><clipPath id="clip221"><path d="M0,0L193.168,0C194.271830048988,0,195.168,0.896169951012,195.168,2L195.168,26C195.168,27.103830048988,194.271830048988,28,193.168,28L0,28C0,28,0,28,0,28L0,0C0,0,0,0,0,0Z"/></clipPath><clipPath id="clip222"><path d="M0,0L219.42400000000004,0C220.52783004898802,0,221.42400000000004,0.896169951012,221.42400000000004,2L221.42400000000004,26C221.42400000000004,27.103830048988,220.52783004898802,28,219.42400000000004,28L0,28C0,28,0,28,0,28L0,0C0,0,0,0,0,0Z"/></clipPath><clipPath id="clip223"><path d="M0,0L399.32800000000003,0C400.43183004898805,0,401.32800000000003,0.896169951012,401.32800000000003,2L401.32800000000003,26C401.32800000000003,27.103830048988,400.43183004898805,28,399.32800000000003,28L0,28C0,28,0,28,0,28L0,0C0,0,0,0,0,0Z"/></clipPath><clipPath id="clip224"><path d="M0,0L227.0752,0C228.17903004898798,0,229.0752,0.896169951012,229.0752,2L229.0752,26C229.0752,27.103830048988,228.17903004898798,28,227.0752,28L0,28C0,28,0,28,0,28L0,0C0,0,0,0,0,0Z"/></clipPath><clipPath id="clip225"><path d="M0,0L251.35359999999997,0C252.45743004898796,0,253.35359999999997,0.896169951012,253.35359999999997,2L253.35359999999997,26C253.35359999999997,27.103830048988,252.45743004898796,28,251.35359999999997,28L0,28C0,28,0,28,0,28L0,0C0,0,0,0,0,0Z"/></clipPath></defs></svg>