<svg xmlns="http://www.w3.org/2000/svg" xmlns:xlink="http://www.w3.org/1999/xlink" version="1.1" class="marks" width="511" height="362" viewBox="0 0 511 362"><rect width="511" height="362" fill="#122b39"/><g fill="none" stroke-miterlimit="10" transform="translate(28,39)"><g class="mark-group role-frame root" role="graphics-object" aria-roledescription="group mark container"><g transform="translate(0,0)"><path class="background" aria-hidden="true" d="M0,0h360v300h-360Z"/><g><g class="mark-group role-axis" aria-hidden="true"><g transform="translate(0.5,0.5)"><path class="background" aria-hidden="true" d="M0,0h0v0h0Z" pointer-events="none"/><g><g class="mark-rule role-axis-grid" pointer-events="none"><line transform="translate(0,300)" x2="360" y2="0" stroke="#b4c8d8" stroke-opacity="0.5" stroke-width="1" stroke-dasharray="1,5" opacity="1"/><line transform="translate(0,273)" x2="360" y2="0" stroke="#b4c8d8" stroke-opacity="0.5" stroke-width="1" stroke-dasharray="1,5" opacity="1"/><line transform="translate(0,245)" x2="360" y2="0" stroke="#b4c8d8" stroke-opacity="0.5" stroke-width="1" stroke-dasharray="1,5" opacity="1"/><line transform="translate(0,218)" x2="360" y2="0" stroke="#b4c8d8" stroke-opacity="0.5" stroke-width="1" stroke-dasharray="1,5" opacity="1"/><line transform="translate(0,191)" x2="360" y2="0" stroke="#b4c8d8" stroke-opacity="0.5" stroke-width="1" stroke-dasharray="1,5" opacity="1"/><line transform="translate(0,164)" x2="360" y2="0" stroke="#b4c8d8" stroke-opacity="0.5" stroke-width="1" stroke-dasharray="1,5" opacity="1"/><line transform="translate(0,136)" x2="360" y2="0" stroke="#b4c8d8" stroke-opacity="0.5" stroke-width="1" stroke-dasharray="1,5" opacity="1"/><line transform="translate(0,109)" x2="360" y2="0" stroke="#b4c8d8" stroke-opacity="0.5" stroke-width="1" stroke-dasharray="1,5" opacity="1"/><line transform="translate(0,82)" x2="360" y2="0" stroke="#b4c8d8" stroke-opacity="0.5" stroke-width="1" stroke-dasharray="1,5" opacity="1"/><line transform="translate(0,55)" x2="360" y2="0" stroke="#b4c8d8" stroke-opacity="0.5" stroke-width="1" stroke-dasharray="1,5" opacity="1"/><line transform="translate(0,27)" x2="360" y2="0" stroke="#b4c8d8" stroke-opacity="0.5" stroke-width="1" stroke-dasharray="1,5" opacity="1"/><line transform="translate(0,0)" x2="360" y2="0" stroke="#b4c8d8" stroke-opacity="0.5" stroke-width="1" stroke-dasharray="1,5" opacity="1"/></g></g><path class="foreground" aria-hidden="true" d="" pointer-events="none" display="none"/></g></g><g class="mark-group role-axis" role="graphics-symbol" aria-roledescription="axis" aria-label="X-axis for a time scale with values from Monday, 01 January 2018, 12:00:00 AM to Friday, 01 September 2023, 12:00:00 AM"><g transform="translate(0.5,300.5)"><path class="background" aria-hidden="true" d="M0,0h0v0h0Z" pointer-events="none"/><g><g class="mark-rule role-axis-tick" pointer-events="none"><line transform="translate(0,0)" x2="0" y2="5" stroke="#b4c8d8" stroke-opacity="0.5" stroke-width="1" opacity="1"/><line transform="translate(64,0)" x2="0" y2="5" stroke="#b4c8d8" stroke-opacity="0.5" stroke-width="1" opacity="1"/><line transform="translate(127,0)" x2="0" y2="5" stroke="#b4c8d8" stroke-opacity="0.5" stroke-width="1" opacity="1"/><line transform="translate(191,0)" x2="0" y2="5" stroke="#b4c8d8" stroke-opacity="0.5" stroke-width="1" opacity="1"/><line transform="translate(254,0)" x2="0" y2="5" stroke="#b4c8d8" stroke-opacity="0.5" stroke-width="1" opacity="1"/><line transform="translate(318,0)" x2="0" y2="5" stroke="#b4c8d8" stroke-opacity="0.5" stroke-width="1" opacity="1"/></g><g class="mark-text role-axis-label" pointer-events="none"><text text-anchor="start" transform="translate(0,16)" font-family="Circular Std" font-size="11px" fill="#b4c8d8" opacity="1">2018</text><text text-anchor="middle" transform="translate(63.51022052159903,16)" font-family="Circular Std" font-size="11px" fill="#b4c8d8" opacity="1">2019</text><text text-anchor="middle" transform="translate(127.02044104319806,16)" font-family="Circular Std" font-size="11px" fill="#b4c8d8" opacity="1">2020</text><text text-anchor="middle" transform="translate(190.70466216896588,16)" font-family="Circular Std" font-size="11px" fill="#b4c8d8" opacity="1">2021</text><text text-anchor="middle" transform="translate(254.2148826905649,16)" font-family="Circular Std" font-size="11px" fill="#b4c8d8" opacity="1">2022</text><text text-anchor="middle" transform="translate(317.7251032121639,16)" font-family="Circular Std" font-size="11px" fill="#b4c8d8" opacity="1">2023</text></g><g class="mark-rule role-axis-domain" pointer-events="none"><line transform="translate(0,0)" x2="360" y2="0" stroke="#b4c8d8" stroke-opacity="0.5" stroke-width="1" opacity="1"/></g></g><path class="foreground" aria-hidden="true" d="" pointer-events="none" display="none"/></g></g><g class="mark-group role-axis" role="graphics-symbol" aria-roledescription="axis" aria-label="Y-axis for a linear scale with values from 85 to 140"><g transform="translate(0.5,0.5)"><path class="background" aria-hidden="true" d="M0,0h0v0h0Z" pointer-events="none"/><g><g class="mark-text role-axis-label" pointer-events="none"><text text-anchor="end" transform="translate(-5,303)" font-family="Circular Std" font-size="11px" fill="#b4c8d8" opacity="1">85</text><text text-anchor="end" transform="translate(-5,275.7272727272727)" font-family="Circular Std" font-size="11px" fill="#b4c8d8" opacity="1">90</text><text text-anchor="end" transform="translate(-5,248.45454545454544)" font-family="Circular Std" font-size="11px" fill="#b4c8d8" opacity="1">95</text><text text-anchor="end" transform="translate(-5,221.1818181818182)" font-family="Circular Std" font-size="11px" fill="#b4c8d8" opacity="1">100</text><text text-anchor="end" transform="translate(-5,193.9090909090909)" font-family="Circular Std" font-size="11px" fill="#b4c8d8" opacity="1">105</text><text text-anchor="end" transform="translate(-5,166.63636363636363)" font-family="Circular Std" font-size="11px" fill="#b4c8d8" opacity="1">110</text><text text-anchor="end" transform="translate(-5,139.36363636363637)" font-family="Circular Std" font-size="11px" fill="#b4c8d8" opacity="1">115</text><text text-anchor="end" transform="translate(-5,112.0909090909091)" font-family="Circular Std" font-size="11px" fill="#b4c8d8" opacity="1">120</text><text text-anchor="end" transform="translate(-5,84.81818181818181)" font-family="Circular Std" font-size="11px" fill="#b4c8d8" opacity="1">125</text><text text-anchor="end" transform="translate(-5,57.54545454545453)" font-family="Circular Std" font-size="11px" fill="#b4c8d8" opacity="1">130</text><text text-anchor="end" transform="translate(-5,30.27272727272728)" font-family="Circular Std" font-size="11px" fill="#b4c8d8" opacity="1">135</text><text text-anchor="end" transform="translate(-5,3)" font-family="Circular Std" font-size="11px" fill="#b4c8d8" opacity="1">140</text></g><g class="mark-rule role-axis-domain" pointer-events="none"><line transform="translate(0,300)" x2="0" y2="-300" stroke="#b4c8d8" stroke-opacity="0.5" stroke-width="1" opacity="1"/></g></g><path class="foreground" aria-hidden="true" d="" pointer-events="none" display="none"/></g></g><g class="mark-rule role-mark layer_0_marks" role="graphics-object" aria-roledescription="rule mark container"><line aria-label="y: 100" role="graphics-symbol" aria-roledescription="rule mark" transform="translate(360,218.6818181818182)" x2="-360" y2="0" stroke="#b4c8d8" stroke-width="2" opacity="0.6"/></g><g class="mark-group role-scope layer_1_pathgroup" role="graphics-object" aria-roledescription="group mark container"><g transform="translate(0,0)"><path class="background" aria-hidden="true" d="M0,0h360v300h-360Z"/><g><g class="mark-line role-mark layer_1_marks" role="graphics-object" aria-roledescription="line mark container"><path aria-label="date: Jan 01, 2018; value_3m: 91.4967967385; series: CPIH: All items" role="graphics-symbol" aria-roledescription="line mark" d="M0,264.56292688092327L5.394018729231698,264.24524805421703L10.266035645957105,264.086408640864L15.652804350015105,262.498014507333L20.87282247507804,260.9096203738021L26.266841204309735,259.6389050669773L31.48685932937267,259.0035474135648L36.880878058604374,258.0505109334462L42.27489678783607,256.9386350399746L47.494914912899006,255.66791973314992L52.896183667304406,255.0325620797373L58.11620179236733,254.23836501297174L63.51022052159903,254.71488325303113L68.90423925083073,254.87372266638437L73.77625616755614,255.0325620797373L79.16302487161414,253.12648911950018L84.38304299667708,251.37925557261602L89.77706172590877,249.94970085243818L94.9970798509717,249.31434319902567L100.3910985802034,248.67898554561336L105.7851173094351,247.8847884788476L111.00513543449803,247.40827023878862L116.40640418890344,247.09059141208232L121.62642231396637,246.93175199872908L127.02044104319806,246.9317519987293L132.41445977242978,246.77291258537616L137.46047729332392,246.6140731720231L142.84724599738195,246.1375549319638L148.06726412244487,246.1375549319638L153.46128285167657,245.81987610525758L158.6813009767395,244.86683962513888L164.0753197059712,244.54916079843275L169.4693384352029,243.91380314502044L174.68935656026582,243.91380314502044L180.09062531467123,243.43728490496096L185.31064343973415,243.11960607825492L190.70466216896588,242.96076666490174L196.09868089819756,242.4842484248424L200.97069781492297,242.00773018478316L206.35746651898097,240.26049663789902L211.5774846440439,237.71906602424937L216.97150337327562,235.01879599724674L222.19152149833855,233.43040186371582L227.58554022757022,231.68316831683168L232.97955895680192,230.09477418330053L238.19957708186487,226.91798591623868L243.60084583627025,223.74119764917657L248.8208639613332,220.0878911420554L254.2148826905649,218.1818181818182L259.6089014197966,216.11690580822784L264.480918336522,213.25779636787203L269.86768704058,206.2688621803357L275.08770516564294,199.43876740615224L280.4817238948746,193.0851908720283L285.70174201993757,189.59072377826004L291.0957607491693,186.25509609784493L296.489779478401,183.39598665748926L301.70979760346387,178.47196484354313L307.11106635786933,173.70678244295019L312.3310844829322,168.94160004235712L317.7251032121639,168.14740297559175L323.11912194139563,166.24133001535435L327.991138858121,163.85873881505793L333.377907562179,158.29935934769935L338.59792568724197,153.3753375337534L343.99194441647364,149.24551278657285L349.2119625415366,148.1336368931009L354.6059812707683,147.65711865304186L360,146.54524275957002" stroke="#4c78a8" stroke-width="2" stroke-dasharray="4,2"/></g></g><path class="foreground" aria-hidden="true" d="" display="none"/></g><g transform="translate(0,0)"><path class="background" aria-hidden="true" d="M0,0h360v300h-360Z"/><g><g class="mark-line role-mark layer_1_marks" role="graphics-object" aria-roledescription="line mark container"><path aria-label="date: Jan 01, 2018; value_3m: 95.2439777641; series: Bread and cereals" role="graphics-symbol" aria-roledescription="line mark" d="M0,244.12375765062612L5.394018729231698,243.6183951934415L10.266035645957105,246.65056993654898L15.652804350015105,246.81902408894376L20.87282247507804,247.82974900331303L26.266841204309735,248.33511146049756L31.48685932937267,247.82974900331303L36.880878058604374,247.66129485091813L42.27489678783607,249.00892807007702L47.494914912899006,249.68274467965642L52.896183667304406,251.0303778988152L58.11620179236733,246.4821157841542L63.51022052159903,248.840473917682L68.90423925083073,245.80829917457478L73.77625616755614,245.63984502217983L79.16302487161414,240.08085799314958L84.38304299667708,239.07013307878034L89.77706172590877,240.5862204503341L94.9970798509717,240.9231287551238L100.3910985802034,238.90167892638573L105.7851173094351,240.24931214554428L111.00513543449803,240.08085799314958L116.40640418890344,241.42849121230842L121.62642231396637,237.38559155483193L127.02044104319806,238.22786231680615L132.41445977242978,240.08085799314958L137.46047729332392,236.71177494525253L142.84724599738195,234.1849626593295L148.06726412244487,229.6367005446684L153.46128285167657,233.34269189735522L158.6813009767395,231.48969622101185L164.0753197059712,233.84805435453993L169.4693384352029,234.69032511651403L174.68935656026582,235.02723342130395L180.09062531467123,233.17423774496052L185.31064343973415,230.81587961143245L190.70466216896588,232.6688752877759L196.09868089819756,232.33196698298616L200.97069781492297,233.67960020214505L206.35746651898097,231.65815037340673L211.5774846440439,234.3534168117243L216.97150337327562,232.1635128305913L222.19152149833855,232.33196698298616L227.58554022757022,228.28906732550968L232.97955895680192,228.962883935089L238.19957708186487,228.62597563029925L243.60084583627025,228.45752147790446L248.8208639613332,222.3931719916896L254.2148826905649,218.1818181818182L259.6089014197966,212.1174686956034L264.480918336522,210.43292717165474L269.86768704058,203.69476107586058L275.08770516564294,196.95659498006643L280.4817238948746,186.84934583637494L285.70174201993757,176.23673423549891L291.0957607491693,168.15093492054592L296.489779478401,160.4020439103824L301.70979760346387,155.011511033747L307.11106635786933,146.2518951092145L312.3310844829322,138.16609579426148L317.7251032121639,131.76483800325687L323.11912194139563,124.35285529788302L327.991138858121,114.4140603065867L333.377907562179,101.44309057218263L338.59792568724197,91.50429558088601L343.99194441647364,84.76612948509188L349.2119625415366,80.89168398001011L354.6059812707683,77.18569262732325L360,74.49042618900545" stroke="#f58518" stroke-width="2" stroke-dasharray="1,0"/></g></g><path class="foreground" aria-hidden="true" d="" display="none"/></g><g transform="translate(0,0)"><path class="background" aria-hidden="true" d="M0,0h360v300h-360Z"/><g><g class="mark-line role-mark layer_1_marks" role="graphics-object" aria-roledescription="line mark container"><path aria-label="date: Jan 01, 2018; value_3m: 97.0319634703; series: Meat" role="graphics-symbol" aria-roledescription="line mark" d="M0,234.37110834371114L5.394018729231698,233.30368261875097L10.266035645957105,233.48158690624442L15.652804350015105,232.59206546877783L20.87282247507804,233.12577833125766L26.266841204309735,235.61643835616445L31.48685932937267,237.21757694360446L36.880878058604374,238.107098381071L42.27489678783607,238.8187155310442L47.494914912899006,240.95356698096418L52.896183667304406,242.910514143391L58.11620179236733,242.73260985589766L63.51022052159903,240.95356698096424L68.90423925083073,239.70823696851085L73.77625616755614,240.0640455434976L79.16302487161414,241.4872798434442L84.38304299667708,241.6651841309375L89.77706172590877,241.13147126845755L94.9970798509717,240.5977584059775L100.3910985802034,238.99661981853748L105.7851173094351,238.107098381071L111.00513543449803,237.92919409357765L116.40640418890344,237.57338551859095L121.62642231396637,235.61643835616445L127.02044104319806,231.70254403131108L132.41445977242978,229.38978829389794L137.46047729332392,229.21188400640457L142.84724599738195,228.85607543141782L148.06726412244487,228.32236256893785L153.46128285167657,226.5433196940046L158.6813009767395,227.07703255648462L164.0753197059712,227.07703255648462L169.4693384352029,228.14445828144454L174.68935656026582,228.67817114392474L180.09062531467123,231.3467354563246L185.31064343973415,234.72691691869787L190.70466216896588,235.61643835616445L196.09868089819756,236.32805550613764L200.97069781492297,235.79434264365776L206.35746651898097,237.03967265611115L211.5774846440439,238.46290695605762L216.97150337327562,237.39548123109773L222.19152149833855,236.5059597936311L227.58554022757022,232.94787404376447L232.97955895680192,232.59206546877778L238.19957708186487,230.2793097313645L243.60084583627025,228.8560754314179L248.8208639613332,222.98523394413797L254.2148826905649,218.1818181818182L259.6089014197966,212.66678526952495L264.480918336522,210.1761252446184L269.86768704058,204.6610923323251L275.08770516564294,198.07863369507203L280.4817238948746,187.2264721579789L285.70174201993757,176.73011919587262L291.0957607491693,166.76747909624615L296.489779478401,158.93969044653974L301.70979760346387,151.82351894680662L307.11106635786933,144.35153887208685L312.3310844829322,137.2353673723536L317.7251032121639,132.7877601850204L323.11912194139563,126.73901441024728L327.991138858121,120.1565557729941L333.377907562179,109.66020281088777L338.59792568724197,102.01031844867455L343.99194441647364,96.1394769613947L349.2119625415366,92.93719978651474L354.6059812707683,90.09073118662168L360,88.13378402419494" stroke="#72b7b2" stroke-width="2" stroke-dasharray="1,0"/></g></g><path class="foreground" aria-hidden="true" d="" display="none"/></g><g transform="translate(0,0)"><path class="background" aria-hidden="true" d="M0,0h360v300h-360Z"/><g><g class="mark-line role-mark layer_1_marks" role="graphics-object" aria-roledescription="line mark container"><path aria-label="date: Jan 01, 2018; value_3m: 96.6272189349; series: Fish" role="graphics-symbol" aria-roledescription="line mark" d="M0,236.57880580957504L5.394018729231698,233.351264120495L10.266035645957105,233.351264120495L15.652804350015105,232.54437869822485L20.87282247507804,231.25336202259274L26.266841204309735,227.86444324905858L31.48685932937267,228.5099515868747L36.880878058604374,228.9940828402367L42.27489678783607,229.31683700914462L47.494914912899006,226.08929532006456L52.896183667304406,226.57342657342647L58.11620179236733,227.05755782678864L63.51022052159903,226.89618074233465L68.90423925083073,224.15277030661647L73.77625616755614,224.15277030661656L79.16302487161414,227.05755782678864L84.38304299667708,227.86444324905858L89.77706172590877,225.1210328133405L94.9970798509717,218.6659494351803L100.3910985802034,218.82732651963425L105.7851173094351,216.72942442173206L111.00513543449803,218.1818181818182L116.40640418890344,215.76116191500802L121.62642231396637,216.083916083916L127.02044104319806,216.72942442173206L132.41445977242978,216.24529316837018L137.46047729332392,216.89080150618614L142.84724599738195,209.14470145239383L148.06726412244487,205.43302850995158L153.46128285167657,200.43033889187737L158.6813009767395,204.9488972565897L164.0753197059712,208.17643894566962L169.4693384352029,212.37224314147397L174.68935656026582,217.21355567509409L180.09062531467123,219.1500806885423L185.31064343973415,224.95965572888664L190.70466216896588,225.2824098977946L196.09868089819756,226.25067240451853L200.97069781492297,224.4755244755245L206.35746651898097,226.4120494889726L211.5774846440439,228.83270575578274L216.97150337327562,226.89618074233465L222.19152149833855,228.18719741796676L227.58554022757022,227.21893491124254L232.97955895680192,229.96234534696063L238.19957708186487,224.95965572888664L243.60084583627025,223.83001613770844L248.8208639613332,221.73211403980633L254.2148826905649,218.1818181818182L259.6089014197966,212.0494889725658L264.480918336522,204.9488972565897L269.86768704058,198.17105970952122L275.08770516564294,194.29800968262506L280.4817238948746,186.22915545992467L285.70174201993757,179.1285637439483L291.0957607491693,165.08875739644975L296.489779478401,158.3109198493814L301.70979760346387,147.33727810650896L307.11106635786933,142.49596557288876L312.3310844829322,129.10166756320578L317.7251032121639,125.067240451856L323.11912194139563,118.45077998924137L327.991138858121,115.3846153846154L333.377907562179,110.22054868208728L338.59792568724197,103.9268423883807L343.99194441647364,101.99031737493269L349.2119625415366,95.53523399677243L354.6059812707683,99.24690693921443L360,99.89241527703066" stroke="#e45756" stroke-width="2" stroke-dasharray="1,0"/></g></g><path class="foreground" aria-hidden="true" d="" display="none"/></g><g transform="translate(0,0)"><path class="background" aria-hidden="true" d="M0,0h360v300h-360Z"/><g><g class="mark-line role-mark layer_1_marks" role="graphics-object" aria-roledescription="line mark container"><path aria-label="date: Jan 01, 2018; value_3m: 96.0815546352; series: Milk, cheese and eggs" role="graphics-symbol" aria-roledescription="line mark" d="M0,239.55515653508652L5.394018729231698,236.42735092241298L10.266035645957105,233.64707926670337L15.652804350015105,231.56187552492108L20.87282247507804,234.51591415911258L26.266841204309735,238.68632164267703L31.48685932937267,237.81748675026785L36.880878058604374,237.29618581482242L42.27489678783607,236.42735092241298L47.494914912899006,239.90269049205014L52.896183667304406,242.33542819079608L58.11620179236733,241.64036027686865L63.51022052159903,240.7715253844594L68.90423925083073,237.46995279330415L73.77625616755614,238.33878768571353L79.16302487161414,237.99125372874983L84.38304299667708,238.68632164267703L89.77706172590877,238.68632164267703L94.9970798509717,238.1650207072315L100.3910985802034,237.64371977178604L105.7851173094351,236.25358394393103L111.00513543449803,235.38474905152194L116.40640418890344,235.5585160300037L121.62642231396637,233.82084624518515L127.02044104319806,234.1683802021488L132.41445977242978,233.47331228822162L137.46047729332392,234.3421471806308L142.84724599738195,235.55851603000374L148.06726412244487,237.81748675026785L153.46128285167657,238.86008862115898L158.6813009767395,237.99125372874983L164.0753197059712,235.9060499869674L169.4693384352029,239.90269049205014L174.68935656026582,241.64036027686865L180.09062531467123,244.07309797561464L185.31064343973415,241.11905934142308L190.70466216896588,241.81412725535054L196.09868089819756,240.07645747053203L200.97069781492297,241.81412725535054L206.35746651898097,239.033855599641L211.5774846440439,238.5125546641953L216.97150337327562,236.25358394393103L222.19152149833855,237.12241883634042L227.58554022757022,236.25358394393103L232.97955895680192,235.9060499869674L238.19957708186487,231.90940948188478L243.60084583627025,228.95537084769325L248.8208639613332,222.00469170841896L254.2148826905649,218.1818181818182L259.6089014197966,211.5786729995076L264.480918336522,206.19189666657007L269.86768704058,196.63471285006813L275.08770516564294,188.120130904457L280.4817238948746,174.74007356135422L285.70174201993757,158.23221060557796L291.0957607491693,137.20640620927333L296.489779478401,120.17724231805143L301.70979760346387,101.58417562049287L307.11106635786933,89.42048712676296L312.3310844829322,69.95858553679503L317.7251032121639,57.96866402154701L323.11912194139563,42.15586897969828L327.991138858121,36.0740247328334L333.377907562179,27.0381418517768L338.59792568724197,22.520200411248446L343.99194441647364,19.04486084161129L349.2119625415366,19.91369573402072L354.6059812707683,19.218627820093282L360,21.3038315618754" stroke="#54a24b" stroke-width="2" stroke-dasharray="1,0"/></g></g><path class="foreground" aria-hidden="true" d="" display="none"/></g></g><g class="mark-text role-mark layer_2_marks" role="graphics-object" aria-roledescription="text mark container"><text aria-label="date: Sep 01, 2023; value_3m: 113.133372161; series: CPIH: All items" role="graphics-symbol" aria-roledescription="text mark" text-anchor="start" transform="translate(367,149.54524275957002)" font-family="Circular Std" font-size="11px" fill="#b4c8d8">CPIH: All items</text><text aria-label="date: Sep 01, 2023; value_3m: 123.842139596; series: Meat" role="graphics-symbol" aria-roledescription="text mark" text-anchor="start" transform="translate(367,91.13378402419494)" font-family="Circular Std" font-size="11px" fill="#b4c8d8">Meat</text><text aria-label="date: Sep 01, 2023; value_3m: 136.094297547; series: Milk, cheese and eggs" role="graphics-symbol" aria-roledescription="text mark" text-anchor="start" transform="translate(367,24.3038315618754)" font-family="Circular Std" font-size="11px" fill="#b4c8d8">Milk, cheese and eggs</text></g><g class="mark-text role-mark layer_3_marks" role="graphics-object" aria-roledescription="text mark container"><text aria-label="date: Sep 01, 2023; value_3m: 121.686390533; series: Fish" role="graphics-symbol" aria-roledescription="text mark" text-anchor="start" transform="translate(367,105.89241527703066)" font-family="Circular Std" font-size="11px" fill="#b4c8d8">Fish</text></g><g class="mark-text role-mark layer_4_marks" role="graphics-object" aria-roledescription="text mark container"><text aria-label="date: Sep 01, 2023; value_3m: 126.343421865; series: Bread and cereals" role="graphics-symbol" aria-roledescription="text mark" text-anchor="start" transform="translate(367,74.49042618900545)" font-family="Circular Std" font-size="11px" fill="#b4c8d8">Bread and cereals</text></g><g class="mark-symbol role-mark layer_5_marks" role="graphics-object" aria-roledescription="symbol mark container"><path aria-label="date: Sep 01, 2023; value_3m: 126.343421865; series: Bread and cereals" role="graphics-symbol" aria-roledescription="circle" transform="translate(360,74.49042618900545)" d="M3.3541019662496847,0A3.3541019662496847,3.3541019662496847,0,1,1,-3.3541019662496847,0A3.3541019662496847,3.3541019662496847,0,1,1,3.3541019662496847,0" fill="#f58518" stroke-width="2" opacity="1"/><path aria-label="date: Sep 01, 2023; value_3m: 113.133372161; series: CPIH: All items" role="graphics-symbol" aria-roledescription="circle" transform="translate(360,146.54524275957002)" d="M3.3541019662496847,0A3.3541019662496847,3.3541019662496847,0,1,1,-3.3541019662496847,0A3.3541019662496847,3.3541019662496847,0,1,1,3.3541019662496847,0" fill="#4c78a8" stroke-width="2" opacity="1"/><path aria-label="date: Sep 01, 2023; value_3m: 121.686390533; series: Fish" role="graphics-symbol" aria-roledescription="circle" transform="translate(360,99.89241527703066)" d="M3.3541019662496847,0A3.3541019662496847,3.3541019662496847,0,1,1,-3.3541019662496847,0A3.3541019662496847,3.3541019662496847,0,1,1,3.3541019662496847,0" fill="#e45756" stroke-width="2" opacity="1"/><path aria-label="date: Sep 01, 2023; value_3m: 123.842139596; series: Meat" role="graphics-symbol" aria-roledescription="circle" transform="translate(360,88.13378402419494)" d="M3.3541019662496847,0A3.3541019662496847,3.3541019662496847,0,1,1,-3.3541019662496847,0A3.3541019662496847,3.3541019662496847,0,1,1,3.3541019662496847,0" fill="#72b7b2" stroke-width="2" opacity="1"/><path aria-label="date: Sep 01, 2023; value_3m: 136.094297547; series: Milk, cheese and eggs" role="graphics-symbol" aria-roledescription="circle" transform="translate(360,21.3038315618754)" d="M3.3541019662496847,0A3.3541019662496847,3.3541019662496847,0,1,1,-3.3541019662496847,0A3.3541019662496847,3.3541019662496847,0,1,1,3.3541019662496847,0" fill="#54a24b" stroke-width="2" opacity="1"/></g><g class="mark-group role-title"><g transform="translate(-22.391,-34)"><path class="background" aria-hidden="true" d="M0,0h0v0h0Z" pointer-events="none"/><g><g class="mark-text role-title-text" role="graphics-symbol" aria-roledescription="title" aria-label="Title text 'UK food inflation'" pointer-events="none"><text text-anchor="start" transform="translate(24,11)" font-family="Circular Std" font-size="14px" font-weight="bold" fill="#b4c8d8" opacity="1">UK food inflation</text></g><g class="mark-text role-title-subtitle" role="graphics-symbol" aria-roledescription="subtitle" aria-label="Subtitle text 'CPIH index 100 = 2022, 3-month rolling mean | Source: ONS'" pointer-events="none"><text text-anchor="start" transform="translate(24,27)" font-family="Circular Std" font-size="12px" fill="#b4c8d8E6" opacity="1">CPIH index 100 = 2022, 3-month rolling mean | Source: ONS</text></g></g><path class="foreground" aria-hidden="true" d="" pointer-events="none" display="none"/></g></g></g><path class="foreground" aria-hidden="true" d="" display="none"/></g></g></g></svg>