<svg xmlns="http://www.w3.org/2000/svg" xmlns:xlink="http://www.w3.org/1999/xlink" version="1.1" class="marks" width="455" height="402" viewBox="0 0 455 402"><rect width="455" height="402" fill="white"/><g fill="none" stroke-miterlimit="10" transform="translate(17,80)"><g class="mark-group role-frame root" role="graphics-object" aria-roledescription="group mark container"><g transform="translate(0,0)"><path class="background" aria-hidden="true" d="M0.5,0.5h400v300h-400Z"/><g><g class="mark-group role-axis" aria-hidden="true"><g transform="translate(0.5,0.5)"><path class="background" aria-hidden="true" d="M0,0h0v0h0Z" pointer-events="none"/><g><g class="mark-rule role-axis-grid" pointer-events="none"><line transform="translate(0,300)" x2="400" y2="0" stroke="#676A86" stroke-opacity="0.5" stroke-width="1" stroke-dasharray="1,5" opacity="1"/><line transform="translate(0,250)" x2="400" y2="0" stroke="#676A86" stroke-opacity="0.5" stroke-width="1" stroke-dasharray="1,5" opacity="1"/><line transform="translate(0,200)" x2="400" y2="0" stroke="#676A86" stroke-opacity="0.5" stroke-width="1" stroke-dasharray="1,5" opacity="1"/><line transform="translate(0,150)" x2="400" y2="0" stroke="#676A86" stroke-opacity="0.5" stroke-width="1" stroke-dasharray="1,5" opacity="1"/><line transform="translate(0,100)" x2="400" y2="0" stroke="#676A86" stroke-opacity="0.5" stroke-width="1" stroke-dasharray="1,5" opacity="1"/><line transform="translate(0,50)" x2="400" y2="0" stroke="#676A86" stroke-opacity="0.5" stroke-width="1" stroke-dasharray="1,5" opacity="1"/><line transform="translate(0,0)" x2="400" y2="0" stroke="#676A86" stroke-opacity="0.5" stroke-width="1" stroke-dasharray="1,5" opacity="1"/></g></g><path class="foreground" aria-hidden="true" d="" pointer-events="none" display="none"/></g></g><g class="mark-group role-axis" role="graphics-symbol" aria-roledescription="axis" aria-label="X-axis for a time scale with values from January 1960 to January 2022"><g transform="translate(0.5,300.5)"><path class="background" aria-hidden="true" d="M0,0h0v0h0Z" pointer-events="none"/><g><g class="mark-rule role-axis-tick" pointer-events="none"><line transform="translate(0,0)" x2="0" y2="5" stroke="#676A86" stroke-opacity="0.5" stroke-width="1" opacity="1"/><line transform="translate(32,0)" x2="0" y2="5" stroke="#676A86" stroke-opacity="0.5" stroke-width="1" opacity="1"/><line transform="translate(65,0)" x2="0" y2="5" stroke="#676A86" stroke-opacity="0.5" stroke-width="1" opacity="1"/><line transform="translate(97,0)" x2="0" y2="5" stroke="#676A86" stroke-opacity="0.5" stroke-width="1" opacity="1"/><line transform="translate(129,0)" x2="0" y2="5" stroke="#676A86" stroke-opacity="0.5" stroke-width="1" opacity="1"/><line transform="translate(161,0)" x2="0" y2="5" stroke="#676A86" stroke-opacity="0.5" stroke-width="1" opacity="1"/><line transform="translate(194,0)" x2="0" y2="5" stroke="#676A86" stroke-opacity="0.5" stroke-width="1" opacity="1"/><line transform="translate(226,0)" x2="0" y2="5" stroke="#676A86" stroke-opacity="0.5" stroke-width="1" opacity="1"/><line transform="translate(258,0)" x2="0" y2="5" stroke="#676A86" stroke-opacity="0.5" stroke-width="1" opacity="1"/><line transform="translate(290,0)" x2="0" y2="5" stroke="#676A86" stroke-opacity="0.5" stroke-width="1" opacity="1"/><line transform="translate(323,0)" x2="0" y2="5" stroke="#676A86" stroke-opacity="0.5" stroke-width="1" opacity="1"/><line transform="translate(355,0)" x2="0" y2="5" stroke="#676A86" stroke-opacity="0.5" stroke-width="1" opacity="1"/><line transform="translate(387,0)" x2="0" y2="5" stroke="#676A86" stroke-opacity="0.5" stroke-width="1" opacity="1"/></g><g class="mark-text role-axis-label" pointer-events="none"><text text-anchor="start" transform="translate(0,15)" font-family="Circular Std" font-size="10px" fill="#676A86" fill-opacity="0.7" opacity="1">Jan 1960</text><text text-anchor="middle" transform="translate(32.270599664399896,15)" font-family="Circular Std" font-size="10px" fill="#676A86" fill-opacity="0.7" opacity="0">Jan 1965</text><text text-anchor="middle" transform="translate(64.52353616532722,15)" font-family="Circular Std" font-size="10px" fill="#676A86" fill-opacity="0.7" opacity="1">Jan 1970</text><text text-anchor="middle" transform="translate(96.77647266625453,15)" font-family="Circular Std" font-size="10px" fill="#676A86" fill-opacity="0.7" opacity="0">Jan 1975</text><text text-anchor="middle" transform="translate(129.02940916718185,15)" font-family="Circular Std" font-size="10px" fill="#676A86" fill-opacity="0.7" opacity="1">Jan 1980</text><text text-anchor="middle" transform="translate(161.30000883158172,15)" font-family="Circular Std" font-size="10px" fill="#676A86" fill-opacity="0.7" opacity="0">Jan 1985</text><text text-anchor="middle" transform="translate(193.55294533250907,15)" font-family="Circular Std" font-size="10px" fill="#676A86" fill-opacity="0.7" opacity="1">Jan 1990</text><text text-anchor="middle" transform="translate(225.80588183343636,15)" font-family="Circular Std" font-size="10px" fill="#676A86" fill-opacity="0.7" opacity="0">Jan 1995</text><text text-anchor="middle" transform="translate(258.0588183343637,15)" font-family="Circular Std" font-size="10px" fill="#676A86" fill-opacity="0.7" opacity="1">Jan 2000</text><text text-anchor="middle" transform="translate(290.3294179987636,15)" font-family="Circular Std" font-size="10px" fill="#676A86" fill-opacity="0.7" opacity="0">Jan 2005</text><text text-anchor="middle" transform="translate(322.5823544996909,15)" font-family="Circular Std" font-size="10px" fill="#676A86" fill-opacity="0.7" opacity="1">Jan 2010</text><text text-anchor="middle" transform="translate(354.8352910006182,15)" font-family="Circular Std" font-size="10px" fill="#676A86" fill-opacity="0.7" opacity="0">Jan 2015</text><text text-anchor="middle" transform="translate(387.08822750154553,15)" font-family="Circular Std" font-size="10px" fill="#676A86" fill-opacity="0.7" opacity="1">Jan 2020</text></g><g class="mark-rule role-axis-domain" pointer-events="none"><line transform="translate(0,0)" x2="400" y2="0" stroke="#676A86" stroke-opacity="0.5" stroke-width="1" opacity="1"/></g></g><path class="foreground" aria-hidden="true" d="" pointer-events="none" display="none"/></g></g><g class="mark-group role-axis" role="graphics-symbol" aria-roledescription="axis" aria-label="Y-axis for a linear scale with values from 0 to 6"><g transform="translate(0.5,0.5)"><path class="background" aria-hidden="true" d="M0,0h0v0h0Z" pointer-events="none"/><g><g class="mark-text role-axis-label" pointer-events="none"><text text-anchor="end" transform="translate(-5,303)" font-family="Circular Std" font-size="10px" fill="#676A86" fill-opacity="0.7" opacity="1">0</text><text text-anchor="end" transform="translate(-5,253)" font-family="Circular Std" font-size="10px" fill="#676A86" fill-opacity="0.7" opacity="1">1</text><text text-anchor="end" transform="translate(-5,203.00000000000003)" font-family="Circular Std" font-size="10px" fill="#676A86" fill-opacity="0.7" opacity="1">2</text><text text-anchor="end" transform="translate(-5,153)" font-family="Circular Std" font-size="10px" fill="#676A86" fill-opacity="0.7" opacity="1">3</text><text text-anchor="end" transform="translate(-5,103.00000000000001)" font-family="Circular Std" font-size="10px" fill="#676A86" fill-opacity="0.7" opacity="1">4</text><text text-anchor="end" transform="translate(-5,52.999999999999986)" font-family="Circular Std" font-size="10px" fill="#676A86" fill-opacity="0.7" opacity="1">5</text><text text-anchor="end" transform="translate(-5,3)" font-family="Circular Std" font-size="10px" fill="#676A86" fill-opacity="0.7" opacity="1">6</text></g><g class="mark-rule role-axis-domain" pointer-events="none"><line transform="translate(0,300)" x2="0" y2="-300" stroke="#676A86" stroke-opacity="0.5" stroke-width="1" opacity="1"/></g></g><path class="foreground" aria-hidden="true" d="" pointer-events="none" display="none"/></g></g><g class="mark-line role-mark layer_0_layer_0_marks" role="graphics-object" aria-roledescription="line mark container"><path aria-label="date (year-month): Jan 1960; value: 4.69" role="graphics-symbol" aria-roledescription="line mark" d="M0,65.5L6.465,71.55L12.912,48.55L19.359,34.15L25.806,43.3L32.271,45.7L38.718,51.5L45.165,56.7L51.612,51.1L58.076,55.9L64.524,57.9L70.971,65.4L77.418,72.5L83.882,79L90.329,87.05L96.776,96.2L103.224,101.55L109.688,107.8L116.135,111.15L122.582,112L129.029,113.3L135.494,114.65L141.941,113.85L148.388,120.3L154.835,121.55L161.3,123.4L167.747,124.1L174.194,125.55L180.641,130.1L187.106,132.6L193.553,134.6L200,143.65L206.447,147.95L212.912,151.35L219.359,154L225.806,156.7L232.253,159.1L238.718,161.15L245.165,162.9L251.612,164.25L258.059,163.8L264.524,165.7L270.971,167.05L277.418,168.2L283.865,168.6L290.329,169.55L296.776,169.9L303.224,169.95L309.671,169.95L316.135,170.65L322.582,171.85L329.029,172.9L335.476,172.1L341.941,173.9L348.388,174.3L354.835,175.7L361.282,175.55L367.747,176.65L374.194,179.75L380.641,181.6L387.088,184.6L393.553,185.9L400,186.6" stroke="#00A767" stroke-width="2"/></g><g class="mark-symbol role-mark layer_0_layer_1_marks" role="graphics-object" aria-roledescription="symbol mark container"><path aria-label="date (year-month): Jan 2022; value: 2.268" role="graphics-symbol" aria-roledescription="point" transform="translate(400,186.60000000000002)" d="M2.739,0A2.739,2.739,0,1,1,-2.739,0A2.739,2.739,0,1,1,2.739,0" fill="#00A767" stroke="#00A767" stroke-width="2" opacity="1"/><path aria-label="date (year-month): Jan 2021; value: 2.282" role="graphics-symbol" aria-roledescription="point" transform="translate(393.55294533250907,185.89999999999998)" d="M2.739,0A2.739,2.739,0,1,1,-2.739,0A2.739,2.739,0,1,1,2.739,0" fill="#00A767" stroke="#00A767" stroke-width="2" opacity="0"/><path aria-label="date (year-month): Jan 2020; value: 2.308" role="graphics-symbol" aria-roledescription="point" transform="translate(387.08822750154553,184.6)" d="M2.739,0A2.739,2.739,0,1,1,-2.739,0A2.739,2.739,0,1,1,2.739,0" fill="#00A767" stroke="#00A767" stroke-width="2" opacity="0"/><path aria-label="date (year-month): Jan 2019; value: 2.368" role="graphics-symbol" aria-roledescription="point" transform="translate(380.6411728340546,181.6)" d="M2.739,0A2.739,2.739,0,1,1,-2.739,0A2.739,2.739,0,1,1,2.739,0" fill="#00A767" stroke="#00A767" stroke-width="2" opacity="0"/><path aria-label="date (year-month): Jan 2018; value: 2.405" role="graphics-symbol" aria-roledescription="point" transform="translate(374.19411816656367,179.75)" d="M2.739,0A2.739,2.739,0,1,1,-2.739,0A2.739,2.739,0,1,1,2.739,0" fill="#00A767" stroke="#00A767" stroke-width="2" opacity="0"/><path aria-label="date (year-month): Jan 2017; value: 2.467" role="graphics-symbol" aria-roledescription="point" transform="translate(367.7470634990727,176.65)" d="M2.739,0A2.739,2.739,0,1,1,-2.739,0A2.739,2.739,0,1,1,2.739,0" fill="#00A767" stroke="#00A767" stroke-width="2" opacity="0"/><path aria-label="date (year-month): Jan 2016; value: 2.489" role="graphics-symbol" aria-roledescription="point" transform="translate(361.2823456681092,175.54999999999998)" d="M2.739,0A2.739,2.739,0,1,1,-2.739,0A2.739,2.739,0,1,1,2.739,0" fill="#00A767" stroke="#00A767" stroke-width="2" opacity="0"/><path aria-label="date (year-month): Jan 2015; value: 2.486" role="graphics-symbol" aria-roledescription="point" transform="translate(354.8352910006182,175.69999999999996)" d="M2.739,0A2.739,2.739,0,1,1,-2.739,0A2.739,2.739,0,1,1,2.739,0" fill="#00A767" stroke="#00A767" stroke-width="2" opacity="0"/><path aria-label="date (year-month): Jan 2014; value: 2.514" role="graphics-symbol" aria-roledescription="point" transform="translate(348.3882363331273,174.29999999999998)" d="M2.739,0A2.739,2.739,0,1,1,-2.739,0A2.739,2.739,0,1,1,2.739,0" fill="#00A767" stroke="#00A767" stroke-width="2" opacity="0"/><path aria-label="date (year-month): Jan 2013; value: 2.522" role="graphics-symbol" aria-roledescription="point" transform="translate(341.9411816656363,173.90000000000003)" d="M2.739,0A2.739,2.739,0,1,1,-2.739,0A2.739,2.739,0,1,1,2.739,0" fill="#00A767" stroke="#00A767" stroke-width="2" opacity="0"/><path aria-label="date (year-month): Jan 2012; value: 2.558" role="graphics-symbol" aria-roledescription="point" transform="translate(335.47646383467276,172.10000000000002)" d="M2.739,0A2.739,2.739,0,1,1,-2.739,0A2.739,2.739,0,1,1,2.739,0" fill="#00A767" stroke="#00A767" stroke-width="2" opacity="0"/><path aria-label="date (year-month): Jan 2011; value: 2.542" role="graphics-symbol" aria-roledescription="point" transform="translate(329.0294091671818,172.9)" d="M2.739,0A2.739,2.739,0,1,1,-2.739,0A2.739,2.739,0,1,1,2.739,0" fill="#00A767" stroke="#00A767" stroke-width="2" opacity="0"/><path aria-label="date (year-month): Jan 2010; value: 2.563" role="graphics-symbol" aria-roledescription="point" transform="translate(322.5823544996909,171.85)" d="M2.739,0A2.739,2.739,0,1,1,-2.739,0A2.739,2.739,0,1,1,2.739,0" fill="#00A767" stroke="#00A767" stroke-width="2" opacity="0"/><path aria-label="date (year-month): Jan 2009; value: 2.587" role="graphics-symbol" aria-roledescription="point" transform="translate(316.13529983219996,170.64999999999998)" d="M2.739,0A2.739,2.739,0,1,1,-2.739,0A2.739,2.739,0,1,1,2.739,0" fill="#00A767" stroke="#00A767" stroke-width="2" opacity="0"/><path aria-label="date (year-month): Jan 2008; value: 2.601" role="graphics-symbol" aria-roledescription="point" transform="translate(309.6705820012364,169.95)" d="M2.739,0A2.739,2.739,0,1,1,-2.739,0A2.739,2.739,0,1,1,2.739,0" fill="#00A767" stroke="#00A767" stroke-width="2" opacity="0"/><path aria-label="date (year-month): Jan 2007; value: 2.601" role="graphics-symbol" aria-roledescription="point" transform="translate(303.2235273337455,169.95)" d="M2.739,0A2.739,2.739,0,1,1,-2.739,0A2.739,2.739,0,1,1,2.739,0" fill="#00A767" stroke="#00A767" stroke-width="2" opacity="0"/><path aria-label="date (year-month): Jan 2006; value: 2.602" role="graphics-symbol" aria-roledescription="point" transform="translate(296.7764726662545,169.9)" d="M2.739,0A2.739,2.739,0,1,1,-2.739,0A2.739,2.739,0,1,1,2.739,0" fill="#00A767" stroke="#00A767" stroke-width="2" opacity="0"/><path aria-label="date (year-month): Jan 2005; value: 2.609" role="graphics-symbol" aria-roledescription="point" transform="translate(290.3294179987636,169.54999999999998)" d="M2.739,0A2.739,2.739,0,1,1,-2.739,0A2.739,2.739,0,1,1,2.739,0" fill="#00A767" stroke="#00A767" stroke-width="2" opacity="0"/><path aria-label="date (year-month): Jan 2004; value: 2.628" role="graphics-symbol" aria-roledescription="point" transform="translate(283.86470016780004,168.60000000000002)" d="M2.739,0A2.739,2.739,0,1,1,-2.739,0A2.739,2.739,0,1,1,2.739,0" fill="#00A767" stroke="#00A767" stroke-width="2" opacity="0"/><path aria-label="date (year-month): Jan 2003; value: 2.636" role="graphics-symbol" aria-roledescription="point" transform="translate(277.4176455003091,168.2)" d="M2.739,0A2.739,2.739,0,1,1,-2.739,0A2.739,2.739,0,1,1,2.739,0" fill="#00A767" stroke="#00A767" stroke-width="2" opacity="0"/><path aria-label="date (year-month): Jan 2002; value: 2.659" role="graphics-symbol" aria-roledescription="point" transform="translate(270.9705908328182,167.04999999999998)" d="M2.739,0A2.739,2.739,0,1,1,-2.739,0A2.739,2.739,0,1,1,2.739,0" fill="#00A767" stroke="#00A767" stroke-width="2" opacity="0"/><path aria-label="date (year-month): Jan 2001; value: 2.686" role="graphics-symbol" aria-roledescription="point" transform="translate(264.52353616532724,165.7)" d="M2.739,0A2.739,2.739,0,1,1,-2.739,0A2.739,2.739,0,1,1,2.739,0" fill="#00A767" stroke="#00A767" stroke-width="2" opacity="0"/><path aria-label="date (year-month): Jan 2000; value: 2.724" role="graphics-symbol" aria-roledescription="point" transform="translate(258.0588183343637,163.8)" d="M2.739,0A2.739,2.739,0,1,1,-2.739,0A2.739,2.739,0,1,1,2.739,0" fill="#00A767" stroke="#00A767" stroke-width="2" opacity="0"/><path aria-label="date (year-month): Jan 1999; value: 2.715" role="graphics-symbol" aria-roledescription="point" transform="translate(251.61176366687275,164.25000000000003)" d="M2.739,0A2.739,2.739,0,1,1,-2.739,0A2.739,2.739,0,1,1,2.739,0" fill="#00A767" stroke="#00A767" stroke-width="2" opacity="0"/><path aria-label="date (year-month): Jan 1998; value: 2.742" role="graphics-symbol" aria-roledescription="point" transform="translate(245.16470899938182,162.89999999999998)" d="M2.739,0A2.739,2.739,0,1,1,-2.739,0A2.739,2.739,0,1,1,2.739,0" fill="#00A767" stroke="#00A767" stroke-width="2" opacity="0"/><path aria-label="date (year-month): Jan 1997; value: 2.777" role="graphics-symbol" aria-roledescription="point" transform="translate(238.71765433189083,161.14999999999998)" d="M2.739,0A2.739,2.739,0,1,1,-2.739,0A2.739,2.739,0,1,1,2.739,0" fill="#00A767" stroke="#00A767" stroke-width="2" opacity="0"/><path aria-label="date (year-month): Jan 1996; value: 2.818" role="graphics-symbol" aria-roledescription="point" transform="translate(232.25293650092732,159.1)" d="M2.739,0A2.739,2.739,0,1,1,-2.739,0A2.739,2.739,0,1,1,2.739,0" fill="#00A767" stroke="#00A767" stroke-width="2" opacity="0"/><path aria-label="date (year-month): Jan 1995; value: 2.866" role="graphics-symbol" aria-roledescription="point" transform="translate(225.80588183343636,156.7)" d="M2.739,0A2.739,2.739,0,1,1,-2.739,0A2.739,2.739,0,1,1,2.739,0" fill="#00A767" stroke="#00A767" stroke-width="2" opacity="0"/><path aria-label="date (year-month): Jan 1994; value: 2.92" role="graphics-symbol" aria-roledescription="point" transform="translate(219.3588271659454,154.00000000000003)" d="M2.739,0A2.739,2.739,0,1,1,-2.739,0A2.739,2.739,0,1,1,2.739,0" fill="#00A767" stroke="#00A767" stroke-width="2" opacity="0"/><path aria-label="date (year-month): Jan 1993; value: 2.973" role="graphics-symbol" aria-roledescription="point" transform="translate(212.91177249845447,151.35)" d="M2.739,0A2.739,2.739,0,1,1,-2.739,0A2.739,2.739,0,1,1,2.739,0" fill="#00A767" stroke="#00A767" stroke-width="2" opacity="0"/><path aria-label="date (year-month): Jan 1992; value: 3.041" role="graphics-symbol" aria-roledescription="point" transform="translate(206.44705466749093,147.95)" d="M2.739,0A2.739,2.739,0,1,1,-2.739,0A2.739,2.739,0,1,1,2.739,0" fill="#00A767" stroke="#00A767" stroke-width="2" opacity="0"/><path aria-label="date (year-month): Jan 1991; value: 3.127" role="graphics-symbol" aria-roledescription="point" transform="translate(200,143.65)" d="M2.739,0A2.739,2.739,0,1,1,-2.739,0A2.739,2.739,0,1,1,2.739,0" fill="#00A767" stroke="#00A767" stroke-width="2" opacity="0"/><path aria-label="date (year-month): Jan 1990; value: 3.308" role="graphics-symbol" aria-roledescription="point" transform="translate(193.55294533250907,134.6)" d="M2.739,0A2.739,2.739,0,1,1,-2.739,0A2.739,2.739,0,1,1,2.739,0" fill="#00A767" stroke="#00A767" stroke-width="2" opacity="0"/><path aria-label="date (year-month): Jan 1989; value: 3.348" role="graphics-symbol" aria-roledescription="point" transform="translate(187.1058906650181,132.60000000000002)" d="M2.739,0A2.739,2.739,0,1,1,-2.739,0A2.739,2.739,0,1,1,2.739,0" fill="#00A767" stroke="#00A767" stroke-width="2" opacity="0"/><path aria-label="date (year-month): Jan 1988; value: 3.398" role="graphics-symbol" aria-roledescription="point" transform="translate(180.6411728340546,130.1)" d="M2.739,0A2.739,2.739,0,1,1,-2.739,0A2.739,2.739,0,1,1,2.739,0" fill="#00A767" stroke="#00A767" stroke-width="2" opacity="0"/><path aria-label="date (year-month): Jan 1987; value: 3.489" role="graphics-symbol" aria-roledescription="point" transform="translate(174.19411816656364,125.55)" d="M2.739,0A2.739,2.739,0,1,1,-2.739,0A2.739,2.739,0,1,1,2.739,0" fill="#00A767" stroke="#00A767" stroke-width="2" opacity="0"/><path aria-label="date (year-month): Jan 1986; value: 3.518" role="graphics-symbol" aria-roledescription="point" transform="translate(167.74706349907268,124.10000000000002)" d="M2.739,0A2.739,2.739,0,1,1,-2.739,0A2.739,2.739,0,1,1,2.739,0" fill="#00A767" stroke="#00A767" stroke-width="2" opacity="0"/><path aria-label="date (year-month): Jan 1985; value: 3.532" role="graphics-symbol" aria-roledescription="point" transform="translate(161.30000883158172,123.4)" d="M2.739,0A2.739,2.739,0,1,1,-2.739,0A2.739,2.739,0,1,1,2.739,0" fill="#00A767" stroke="#00A767" stroke-width="2" opacity="0"/><path aria-label="date (year-month): Jan 1984; value: 3.569" role="graphics-symbol" aria-roledescription="point" transform="translate(154.8352910006182,121.55)" d="M2.739,0A2.739,2.739,0,1,1,-2.739,0A2.739,2.739,0,1,1,2.739,0" fill="#00A767" stroke="#00A767" stroke-width="2" opacity="0"/><path aria-label="date (year-month): Jan 1983; value: 3.594" role="graphics-symbol" aria-roledescription="point" transform="translate(148.38823633312725,120.30000000000001)" d="M2.739,0A2.739,2.739,0,1,1,-2.739,0A2.739,2.739,0,1,1,2.739,0" fill="#00A767" stroke="#00A767" stroke-width="2" opacity="0"/><path aria-label="date (year-month): Jan 1982; value: 3.723" role="graphics-symbol" aria-roledescription="point" transform="translate(141.94118166563632,113.85000000000002)" d="M2.739,0A2.739,2.739,0,1,1,-2.739,0A2.739,2.739,0,1,1,2.739,0" fill="#00A767" stroke="#00A767" stroke-width="2" opacity="0"/><path aria-label="date (year-month): Jan 1981; value: 3.707" role="graphics-symbol" aria-roledescription="point" transform="translate(135.49412699814536,114.64999999999999)" d="M2.739,0A2.739,2.739,0,1,1,-2.739,0A2.739,2.739,0,1,1,2.739,0" fill="#00A767" stroke="#00A767" stroke-width="2" opacity="0"/><path aria-label="date (year-month): Jan 1980; value: 3.734" role="graphics-symbol" aria-roledescription="point" transform="translate(129.02940916718185,113.30000000000001)" d="M2.739,0A2.739,2.739,0,1,1,-2.739,0A2.739,2.739,0,1,1,2.739,0" fill="#00A767" stroke="#00A767" stroke-width="2" opacity="0"/><path aria-label="date (year-month): Jan 1979; value: 3.76" role="graphics-symbol" aria-roledescription="point" transform="translate(122.58235449969091,112.00000000000003)" d="M2.739,0A2.739,2.739,0,1,1,-2.739,0A2.739,2.739,0,1,1,2.739,0" fill="#00A767" stroke="#00A767" stroke-width="2" opacity="0"/><path aria-label="date (year-month): Jan 1978; value: 3.777" role="graphics-symbol" aria-roledescription="point" transform="translate(116.13529983219995,111.14999999999998)" d="M2.739,0A2.739,2.739,0,1,1,-2.739,0A2.739,2.739,0,1,1,2.739,0" fill="#00A767" stroke="#00A767" stroke-width="2" opacity="0"/><path aria-label="date (year-month): Jan 1977; value: 3.844" role="graphics-symbol" aria-roledescription="point" transform="translate(109.688245164709,107.80000000000001)" d="M2.739,0A2.739,2.739,0,1,1,-2.739,0A2.739,2.739,0,1,1,2.739,0" fill="#00A767" stroke="#00A767" stroke-width="2" opacity="0"/><path aria-label="date (year-month): Jan 1976; value: 3.969" role="graphics-symbol" aria-roledescription="point" transform="translate(103.22352733374547,101.55000000000001)" d="M2.739,0A2.739,2.739,0,1,1,-2.739,0A2.739,2.739,0,1,1,2.739,0" fill="#00A767" stroke="#00A767" stroke-width="2" opacity="0"/><path aria-label="date (year-month): Jan 1975; value: 4.076" role="graphics-symbol" aria-roledescription="point" transform="translate(96.77647266625453,96.20000000000003)" d="M2.739,0A2.739,2.739,0,1,1,-2.739,0A2.739,2.739,0,1,1,2.739,0" fill="#00A767" stroke="#00A767" stroke-width="2" opacity="0"/><path aria-label="date (year-month): Jan 1974; value: 4.259" role="graphics-symbol" aria-roledescription="point" transform="translate(90.32941799876359,87.04999999999997)" d="M2.739,0A2.739,2.739,0,1,1,-2.739,0A2.739,2.739,0,1,1,2.739,0" fill="#00A767" stroke="#00A767" stroke-width="2" opacity="0"/><path aria-label="date (year-month): Jan 1973; value: 4.42" role="graphics-symbol" aria-roledescription="point" transform="translate(83.88236333127264,78.99999999999999)" d="M2.739,0A2.739,2.739,0,1,1,-2.739,0A2.739,2.739,0,1,1,2.739,0" fill="#00A767" stroke="#00A767" stroke-width="2" opacity="0"/><path aria-label="date (year-month): Jan 1972; value: 4.55" role="graphics-symbol" aria-roledescription="point" transform="translate(77.4176455003091,72.50000000000001)" d="M2.739,0A2.739,2.739,0,1,1,-2.739,0A2.739,2.739,0,1,1,2.739,0" fill="#00A767" stroke="#00A767" stroke-width="2" opacity="0"/><path aria-label="date (year-month): Jan 1971; value: 4.692" role="graphics-symbol" aria-roledescription="point" transform="translate(70.97059083281816,65.39999999999999)" d="M2.739,0A2.739,2.739,0,1,1,-2.739,0A2.739,2.739,0,1,1,2.739,0" fill="#00A767" stroke="#00A767" stroke-width="2" opacity="0"/><path aria-label="date (year-month): Jan 1970; value: 4.842" role="graphics-symbol" aria-roledescription="point" transform="translate(64.52353616532722,57.90000000000002)" d="M2.739,0A2.739,2.739,0,1,1,-2.739,0A2.739,2.739,0,1,1,2.739,0" fill="#00A767" stroke="#00A767" stroke-width="2" opacity="0"/><path aria-label="date (year-month): Jan 1969; value: 4.882" role="graphics-symbol" aria-roledescription="point" transform="translate(58.07648149783626,55.900000000000006)" d="M2.739,0A2.739,2.739,0,1,1,-2.739,0A2.739,2.739,0,1,1,2.739,0" fill="#00A767" stroke="#00A767" stroke-width="2" opacity="0"/><path aria-label="date (year-month): Jan 1968; value: 4.978" role="graphics-symbol" aria-roledescription="point" transform="translate(51.61176366687273,51.1)" d="M2.739,0A2.739,2.739,0,1,1,-2.739,0A2.739,2.739,0,1,1,2.739,0" fill="#00A767" stroke="#00A767" stroke-width="2" opacity="0"/><path aria-label="date (year-month): Jan 1967; value: 4.866" role="graphics-symbol" aria-roledescription="point" transform="translate(45.164708999381794,56.70000000000002)" d="M2.739,0A2.739,2.739,0,1,1,-2.739,0A2.739,2.739,0,1,1,2.739,0" fill="#00A767" stroke="#00A767" stroke-width="2" opacity="0"/><path aria-label="date (year-month): Jan 1966; value: 4.97" role="graphics-symbol" aria-roledescription="point" transform="translate(38.71765433189084,51.50000000000002)" d="M2.739,0A2.739,2.739,0,1,1,-2.739,0A2.739,2.739,0,1,1,2.739,0" fill="#00A767" stroke="#00A767" stroke-width="2" opacity="0"/><path aria-label="date (year-month): Jan 1965; value: 5.086" role="graphics-symbol" aria-roledescription="point" transform="translate(32.270599664399896,45.699999999999996)" d="M2.739,0A2.739,2.739,0,1,1,-2.739,0A2.739,2.739,0,1,1,2.739,0" fill="#00A767" stroke="#00A767" stroke-width="2" opacity="0"/><path aria-label="date (year-month): Jan 1964; value: 5.134" role="graphics-symbol" aria-roledescription="point" transform="translate(25.805881833436366,43.3)" d="M2.739,0A2.739,2.739,0,1,1,-2.739,0A2.739,2.739,0,1,1,2.739,0" fill="#00A767" stroke="#00A767" stroke-width="2" opacity="0"/><path aria-label="date (year-month): Jan 1963; value: 5.317" role="graphics-symbol" aria-roledescription="point" transform="translate(19.35882716594542,34.150000000000006)" d="M2.739,0A2.739,2.739,0,1,1,-2.739,0A2.739,2.739,0,1,1,2.739,0" fill="#00A767" stroke="#00A767" stroke-width="2" opacity="0"/><path aria-label="date (year-month): Jan 1962; value: 5.029" role="graphics-symbol" aria-roledescription="point" transform="translate(12.911772498454473,48.55000000000002)" d="M2.739,0A2.739,2.739,0,1,1,-2.739,0A2.739,2.739,0,1,1,2.739,0" fill="#00A767" stroke="#00A767" stroke-width="2" opacity="0"/><path aria-label="date (year-month): Jan 1961; value: 4.569" role="graphics-symbol" aria-roledescription="point" transform="translate(6.464717830963526,71.55000000000001)" d="M2.739,0A2.739,2.739,0,1,1,-2.739,0A2.739,2.739,0,1,1,2.739,0" fill="#00A767" stroke="#00A767" stroke-width="2" opacity="0"/><path aria-label="date (year-month): Jan 1960; value: 4.69" role="graphics-symbol" aria-roledescription="point" transform="translate(0,65.49999999999999)" d="M2.739,0A2.739,2.739,0,1,1,-2.739,0A2.739,2.739,0,1,1,2.739,0" fill="#00A767" stroke="#00A767" stroke-width="2" opacity="0"/></g><g class="mark-text role-mark layer_1_marks" role="graphics-object" aria-roledescription="text mark container"><text aria-label="date (year-month): Jan 2022; value: 2.268" role="graphics-symbol" aria-roledescription="text mark" text-anchor="start" transform="translate(405,190.60000000000002)" font-family="Circular Std" font-size="12px" font-weight="bold" fill="#00A767">2.3%</text></g><g class="mark-group role-title"><g transform="translate(0,-74)"><path class="background" aria-hidden="true" d="M0,0h0v0h0Z" pointer-events="none"/><g><g class="mark-text role-title-text" role="graphics-symbol" aria-roledescription="title" aria-label="Title text 'Global Fertility Rates'" pointer-events="none"><text text-anchor="start" transform="translate(0,17)" font-family="Circular Std" font-size="22px" font-weight="bold" fill="#000" opacity="1">Global Fertility Rates</text></g><g class="mark-text role-title-subtitle" role="graphics-symbol" aria-roledescription="subtitle" aria-label="Subtitle text 'Total births per woman, 1960 - 2022 Source: World Bank '" pointer-events="none"><text text-anchor="start" transform="translate(0,34)" font-family="Circular Std" font-size="12px" fill="#676A86" opacity="1"><tspan>Total births per woman, 1960 - 2022</tspan><tspan x="0" dy="14">Source: World Bank</tspan><tspan x="0" dy="14"/></text></g></g><path class="foreground" aria-hidden="true" d="" pointer-events="none" display="none"/></g></g></g><path class="foreground" aria-hidden="true" d="" display="none"/></g></g></g></svg>