<svg xmlns="http://www.w3.org/2000/svg" xmlns:xlink="http://www.w3.org/1999/xlink" version="1.1" class="marks" width="824" height="542" viewBox="0 0 824 542"><rect width="824" height="542" fill="white"/><g fill="none" stroke-miterlimit="10" transform="translate(38,95)"><g class="mark-group role-frame root" role="graphics-object" aria-roledescription="group mark container"><g transform="translate(0,0)"><path class="background" aria-hidden="true" d="M0.5,0.5h700v400h-700Z"/><g><g class="mark-group role-axis" aria-hidden="true"><g transform="translate(0.5,0.5)"><path class="background" aria-hidden="true" d="M0,0h0v0h0Z" pointer-events="none"/><g><g class="mark-rule role-axis-grid" pointer-events="none"><line transform="translate(0,400)" x2="700" y2="0" stroke="#676A86" stroke-opacity="0.5" stroke-width="1" stroke-dasharray="1,5" opacity="1"/><line transform="translate(0,343)" x2="700" y2="0" stroke="#676A86" stroke-opacity="0.5" stroke-width="1" stroke-dasharray="1,5" opacity="1"/><line transform="translate(0,286)" x2="700" y2="0" stroke="#676A86" stroke-opacity="0.5" stroke-width="1" stroke-dasharray="1,5" opacity="1"/><line transform="translate(0,229)" x2="700" y2="0" stroke="#676A86" stroke-opacity="0.5" stroke-width="1" stroke-dasharray="1,5" opacity="1"/><line transform="translate(0,171)" x2="700" y2="0" stroke="#676A86" stroke-opacity="0.5" stroke-width="1" stroke-dasharray="1,5" opacity="1"/><line transform="translate(0,114)" x2="700" y2="0" stroke="#676A86" stroke-opacity="0.5" stroke-width="1" stroke-dasharray="1,5" opacity="1"/><line transform="translate(0,57)" x2="700" y2="0" stroke="#676A86" stroke-opacity="0.5" stroke-width="1" stroke-dasharray="1,5" opacity="1"/><line transform="translate(0,0)" x2="700" y2="0" stroke="#676A86" stroke-opacity="0.5" stroke-width="1" stroke-dasharray="1,5" opacity="1"/></g></g><path class="foreground" aria-hidden="true" d="" pointer-events="none" display="none"/></g></g><g class="mark-group role-axis" role="graphics-symbol" aria-roledescription="axis" aria-label="X-axis for a discrete scale with 19 values: 2006-07, 2007-08, 2008-09, 2009-10, 2010-11, ending with 2024-25"><g transform="translate(0.5,400.5)"><path class="background" aria-hidden="true" d="M0,0h0v0h0Z" pointer-events="none"/><g><g class="mark-rule role-axis-tick" pointer-events="none"><line transform="translate(18,0)" x2="0" y2="5" stroke="#676A86" stroke-opacity="0.5" stroke-width="1" opacity="1"/><line transform="translate(55,0)" x2="0" y2="5" stroke="#676A86" stroke-opacity="0.5" stroke-width="1" opacity="1"/><line transform="translate(92,0)" x2="0" y2="5" stroke="#676A86" stroke-opacity="0.5" stroke-width="1" opacity="1"/><line transform="translate(128,0)" x2="0" y2="5" stroke="#676A86" stroke-opacity="0.5" stroke-width="1" opacity="1"/><line transform="translate(165,0)" x2="0" y2="5" stroke="#676A86" stroke-opacity="0.5" stroke-width="1" opacity="1"/><line transform="translate(202,0)" x2="0" y2="5" stroke="#676A86" stroke-opacity="0.5" stroke-width="1" opacity="1"/><line transform="translate(239,0)" x2="0" y2="5" stroke="#676A86" stroke-opacity="0.5" stroke-width="1" opacity="1"/><line transform="translate(276,0)" x2="0" y2="5" stroke="#676A86" stroke-opacity="0.5" stroke-width="1" opacity="1"/><line transform="translate(313,0)" x2="0" y2="5" stroke="#676A86" stroke-opacity="0.5" stroke-width="1" opacity="1"/><line transform="translate(350,0)" x2="0" y2="5" stroke="#676A86" stroke-opacity="0.5" stroke-width="1" opacity="1"/><line transform="translate(386,0)" x2="0" y2="5" stroke="#676A86" stroke-opacity="0.5" stroke-width="1" opacity="1"/><line transform="translate(423,0)" x2="0" y2="5" stroke="#676A86" stroke-opacity="0.5" stroke-width="1" opacity="1"/><line transform="translate(460,0)" x2="0" y2="5" stroke="#676A86" stroke-opacity="0.5" stroke-width="1" opacity="1"/><line transform="translate(497,0)" x2="0" y2="5" stroke="#676A86" stroke-opacity="0.5" stroke-width="1" opacity="1"/><line transform="translate(534,0)" x2="0" y2="5" stroke="#676A86" stroke-opacity="0.5" stroke-width="1" opacity="1"/><line transform="translate(571,0)" x2="0" y2="5" stroke="#676A86" stroke-opacity="0.5" stroke-width="1" opacity="1"/><line transform="translate(607,0)" x2="0" y2="5" stroke="#676A86" stroke-opacity="0.5" stroke-width="1" opacity="1"/><line transform="translate(644,0)" x2="0" y2="5" stroke="#676A86" stroke-opacity="0.5" stroke-width="1" opacity="1"/><line transform="translate(681,0)" x2="0" y2="5" stroke="#676A86" stroke-opacity="0.5" stroke-width="1" opacity="1"/></g><g class="mark-text role-axis-label" pointer-events="none"><text text-anchor="end" transform="translate(17.921052631578974,7) rotate(315) translate(0,8)" font-family="Circular Std" font-size="10px" fill="#676A86" fill-opacity="0.7" opacity="1">2006-07</text><text text-anchor="end" transform="translate(54.76315789473687,7) rotate(315) translate(0,8)" font-family="Circular Std" font-size="10px" fill="#676A86" fill-opacity="0.7" opacity="1">2007-08</text><text text-anchor="end" transform="translate(91.60526315789477,7) rotate(315) translate(0,8)" font-family="Circular Std" font-size="10px" fill="#676A86" fill-opacity="0.7" opacity="1">2008-09</text><text text-anchor="end" transform="translate(128.44736842105266,7) rotate(315) translate(0,8)" font-family="Circular Std" font-size="10px" fill="#676A86" fill-opacity="0.7" opacity="1">2009-10</text><text text-anchor="end" transform="translate(165.28947368421058,7) rotate(315) translate(0,8)" font-family="Circular Std" font-size="10px" fill="#676A86" fill-opacity="0.7" opacity="1">2010-11</text><text text-anchor="end" transform="translate(202.13157894736844,7) rotate(315) translate(0,8)" font-family="Circular Std" font-size="10px" fill="#676A86" fill-opacity="0.7" opacity="1">2011-12</text><text text-anchor="end" transform="translate(238.97368421052636,7) rotate(315) translate(0,8)" font-family="Circular Std" font-size="10px" fill="#676A86" fill-opacity="0.7" opacity="1">2012-13</text><text text-anchor="end" transform="translate(275.8157894736842,7) rotate(315) translate(0,8)" font-family="Circular Std" font-size="10px" fill="#676A86" fill-opacity="0.7" opacity="1">2013-14</text><text text-anchor="end" transform="translate(312.65789473684214,7) rotate(315) translate(0,8)" font-family="Circular Std" font-size="10px" fill="#676A86" fill-opacity="0.7" opacity="1">2014-15</text><text text-anchor="end" transform="translate(349.50000000000006,7) rotate(315) translate(0,8)" font-family="Circular Std" font-size="10px" fill="#676A86" fill-opacity="0.7" opacity="1">2015-16</text><text text-anchor="end" transform="translate(386.3421052631579,7) rotate(315) translate(0,8)" font-family="Circular Std" font-size="10px" fill="#676A86" fill-opacity="0.7" opacity="1">2016-17</text><text text-anchor="end" transform="translate(423.18421052631584,7) rotate(315) translate(0,8)" font-family="Circular Std" font-size="10px" fill="#676A86" fill-opacity="0.7" opacity="1">2017-18</text><text text-anchor="end" transform="translate(460.02631578947376,7) rotate(315) translate(0,8)" font-family="Circular Std" font-size="10px" fill="#676A86" fill-opacity="0.7" opacity="1">2018-19</text><text text-anchor="end" transform="translate(496.8684210526316,7) rotate(315) translate(0,8)" font-family="Circular Std" font-size="10px" fill="#676A86" fill-opacity="0.7" opacity="1">2019-20</text><text text-anchor="end" transform="translate(533.7105263157895,7) rotate(315) translate(0,8)" font-family="Circular Std" font-size="10px" fill="#676A86" fill-opacity="0.7" opacity="1">2020-21</text><text text-anchor="end" transform="translate(570.5526315789474,7) rotate(315) translate(0,8)" font-family="Circular Std" font-size="10px" fill="#676A86" fill-opacity="0.7" opacity="1">2021-22</text><text text-anchor="end" transform="translate(607.3947368421053,7) rotate(315) translate(0,8)" font-family="Circular Std" font-size="10px" fill="#676A86" fill-opacity="0.7" opacity="1">2022-23</text><text text-anchor="end" transform="translate(644.2368421052632,7) rotate(315) translate(0,8)" font-family="Circular Std" font-size="10px" fill="#676A86" fill-opacity="0.7" opacity="1">2023-24</text><text text-anchor="end" transform="translate(681.0789473684212,7) rotate(315) translate(0,8)" font-family="Circular Std" font-size="10px" fill="#676A86" fill-opacity="0.7" opacity="1">2024-25</text></g><g class="mark-rule role-axis-domain" pointer-events="none"><line transform="translate(0,0)" x2="700" y2="0" stroke="#676A86" stroke-opacity="0.5" stroke-width="1" opacity="1"/></g></g><path class="foreground" aria-hidden="true" d="" pointer-events="none" display="none"/></g></g><g class="mark-group role-axis" role="graphics-symbol" aria-roledescription="axis" aria-label="Y-axis titled 'Number of International Students' for a linear scale with values from 0 to 7,000"><g transform="translate(0.5,0.5)"><path class="background" aria-hidden="true" d="M0,0h0v0h0Z" pointer-events="none"/><g><g class="mark-text role-axis-label" pointer-events="none"><text text-anchor="end" transform="translate(-5,403)" font-family="Circular Std" font-size="10px" fill="#676A86" fill-opacity="0.7" opacity="1">0</text><text text-anchor="end" transform="translate(-5,345.8571428571429)" font-family="Circular Std" font-size="10px" fill="#676A86" fill-opacity="0.7" opacity="1">1,000</text><text text-anchor="end" transform="translate(-5,288.7142857142857)" font-family="Circular Std" font-size="10px" fill="#676A86" fill-opacity="0.7" opacity="1">2,000</text><text text-anchor="end" transform="translate(-5,231.57142857142856)" font-family="Circular Std" font-size="10px" fill="#676A86" fill-opacity="0.7" opacity="1">3,000</text><text text-anchor="end" transform="translate(-5,174.42857142857144)" font-family="Circular Std" font-size="10px" fill="#676A86" fill-opacity="0.7" opacity="1">4,000</text><text text-anchor="end" transform="translate(-5,117.28571428571428)" font-family="Circular Std" font-size="10px" fill="#676A86" fill-opacity="0.7" opacity="1">5,000</text><text text-anchor="end" transform="translate(-5,60.14285714285716)" font-family="Circular Std" font-size="10px" fill="#676A86" fill-opacity="0.7" opacity="1">6,000</text><text text-anchor="end" transform="translate(-5,3)" font-family="Circular Std" font-size="10px" fill="#676A86" fill-opacity="0.7" opacity="1">7,000</text></g><g class="mark-rule role-axis-domain" pointer-events="none"><line transform="translate(0,400)" x2="0" y2="-400" stroke="#676A86" stroke-opacity="0.5" stroke-width="1" opacity="1"/></g><g class="mark-text role-axis-title" pointer-events="none"><text text-anchor="start" transform="translate(0,-10)" font-family="Circular Std" font-size="12px" font-weight="bold" fill="#676A86" fill-opacity="0.8" opacity="1">Number of International Students</text></g></g><path class="foreground" aria-hidden="true" d="" pointer-events="none" display="none"/></g></g><g class="mark-group role-axis" role="graphics-symbol" aria-roledescription="axis" aria-label="Y-axis titled 'Share enrolled' for a linear scale with values from 15% to 30%"><g transform="translate(700.5,0.5)"><path class="background" aria-hidden="true" d="M0,0h0v0h0Z" pointer-events="none"/><g><g class="mark-text role-axis-label" pointer-events="none"><text text-anchor="start" transform="translate(5,376.3333333333333)" font-family="Circular Std" font-size="10px" fill="#676A86" fill-opacity="0.7" opacity="1">16%</text><text text-anchor="start" transform="translate(5,323)" font-family="Circular Std" font-size="10px" fill="#676A86" fill-opacity="0.7" opacity="1">18%</text><text text-anchor="start" transform="translate(5,269.66666666666663)" font-family="Circular Std" font-size="10px" fill="#676A86" fill-opacity="0.7" opacity="1">20%</text><text text-anchor="start" transform="translate(5,216.3333333333333)" font-family="Circular Std" font-size="10px" fill="#676A86" fill-opacity="0.7" opacity="1">22%</text><text text-anchor="start" transform="translate(5,163)" font-family="Circular Std" font-size="10px" fill="#676A86" fill-opacity="0.7" opacity="1">24%</text><text text-anchor="start" transform="translate(5,109.6666666666666)" font-family="Circular Std" font-size="10px" fill="#676A86" fill-opacity="0.7" opacity="1">26%</text><text text-anchor="start" transform="translate(5,56.33333333333323)" font-family="Circular Std" font-size="10px" fill="#676A86" fill-opacity="0.7" opacity="1">28%</text><text text-anchor="start" transform="translate(5,3)" font-family="Circular Std" font-size="10px" fill="#676A86" fill-opacity="0.7" opacity="1">30%</text></g><g class="mark-rule role-axis-domain" pointer-events="none"><line transform="translate(0,400)" x2="0" y2="-400" stroke="#676A86" stroke-opacity="0.5" stroke-width="1" opacity="1"/></g><g class="mark-text role-axis-title" pointer-events="none"><text text-anchor="start" transform="translate(0,-10)" font-family="Circular Std" font-size="12px" font-weight="bold" fill="#676A86" fill-opacity="0.8" opacity="1">Share enrolled</text></g></g><path class="foreground" aria-hidden="true" d="" pointer-events="none" display="none"/></g></g><g class="mark-rect role-mark layer_0_marks" role="graphics-object" aria-roledescription="rect mark container"><path aria-label="Academic Year: 2006-07; Number of International Students: 3941" role="graphics-symbol" aria-roledescription="bar" d="M1.8421052631579187,174.8h33.15789473684211v225.2h-33.15789473684211Z" fill="#36B7B4"/><path aria-label="Academic Year: 2007-08; Number of International Students: 3961" role="graphics-symbol" aria-roledescription="bar" d="M38.684210526315816,173.65714285714287h33.15789473684211v226.34285714285713h-33.15789473684211Z" fill="#36B7B4"/><path aria-label="Academic Year: 2008-09; Number of International Students: 4025" role="graphics-symbol" aria-roledescription="bar" d="M75.52631578947371,170.00000000000003h33.15789473684211v229.99999999999997h-33.15789473684211Z" fill="#36B7B4"/><path aria-label="Academic Year: 2009-10; Number of International Students: 4201" role="graphics-symbol" aria-roledescription="bar" d="M112.36842105263162,159.94285714285718h33.15789473684211v240.05714285714282h-33.15789473684211Z" fill="#36B7B4"/><path aria-label="Academic Year: 2010-11; Number of International Students: 4207" role="graphics-symbol" aria-roledescription="bar" d="M149.2105263157895,159.60000000000002h33.15789473684211v240.39999999999998h-33.15789473684211Z" fill="#36B7B4"/><path aria-label="Academic Year: 2011-12; Number of International Students: 4347" role="graphics-symbol" aria-roledescription="bar" d="M186.0526315789474,151.6h33.15789473684211v248.4h-33.15789473684211Z" fill="#36B7B4"/><path aria-label="Academic Year: 2012-13; Number of International Students: 4531" role="graphics-symbol" aria-roledescription="bar" d="M222.89473684210532,141.0857142857143h33.15789473684211v258.9142857142857h-33.15789473684211Z" fill="#36B7B4"/><path aria-label="Academic Year: 2013-14; Number of International Students: 4633" role="graphics-symbol" aria-roledescription="bar" d="M259.7368421052632,135.25714285714287h33.15789473684211v264.74285714285713h-33.15789473684211Z" fill="#36B7B4"/><path aria-label="Academic Year: 2014-15; Number of International Students: 4822" role="graphics-symbol" aria-roledescription="bar" d="M296.5789473684211,124.45714285714287h33.15789473684211v275.54285714285714h-33.15789473684211Z" fill="#36B7B4"/><path aria-label="Academic Year: 2015-16; Number of International Students: 4961" role="graphics-symbol" aria-roledescription="bar" d="M333.421052631579,116.5142857142857h33.15789473684211v283.48571428571427h-33.15789473684211Z" fill="#36B7B4"/><path aria-label="Academic Year: 2016-17; Number of International Students: 5245" role="graphics-symbol" aria-roledescription="bar" d="M370.2631578947369,100.28571428571426h33.15789473684211v299.7142857142857h-33.15789473684211Z" fill="#36B7B4"/><path aria-label="Academic Year: 2017-18; Number of International Students: 5483" role="graphics-symbol" aria-roledescription="bar" d="M407.1052631578948,86.6857142857143h33.15789473684211v313.3142857142857h-33.15789473684211Z" fill="#36B7B4"/><path aria-label="Academic Year: 2018-19; Number of International Students: 5542" role="graphics-symbol" aria-roledescription="bar" d="M443.9473684210527,83.31428571428572h33.15789473684211v316.6857142857143h-33.15789473684211Z" fill="#36B7B4"/><path aria-label="Academic Year: 2019-20; Number of International Students: 5718" role="graphics-symbol" aria-roledescription="bar" d="M480.7894736842106,73.25714285714287h33.15789473684211v326.74285714285713h-33.15789473684211Z" fill="#36B7B4"/><path aria-label="Academic Year: 2020-21; Number of International Students: 5359" role="graphics-symbol" aria-roledescription="bar" d="M517.6315789473684,93.77142857142857h33.15789473684211v306.2285714285714h-33.15789473684211Z" fill="#36B7B4"/><path aria-label="Academic Year: 2021-22; Number of International Students: 5473" role="graphics-symbol" aria-roledescription="bar" d="M554.4736842105264,87.25714285714288h33.15789473684211v312.74285714285713h-33.15789473684211Z" fill="#36B7B4"/><path aria-label="Academic Year: 2022-23; Number of International Students: 6527" role="graphics-symbol" aria-roledescription="bar" d="M591.3157894736843,27.028571428571446h33.15789473684211v372.97142857142853h-33.15789473684211Z" fill="#36B7B4"/><path aria-label="Academic Year: 2023-24; Number of International Students: 6713" role="graphics-symbol" aria-roledescription="bar" d="M628.1578947368422,16.400000000000013h33.15789473684211v383.59999999999997h-33.15789473684211Z" fill="#36B7B4"/><path aria-label="Academic Year: 2024-25; Number of International Students: 6793" role="graphics-symbol" aria-roledescription="bar" d="M665.0000000000001,11.828571428571433h33.15789473684211v388.1714285714286h-33.15789473684211Z" fill="#36B7B4"/></g><g class="mark-line role-mark layer_1_layer_0_marks" role="graphics-object" aria-roledescription="line mark container"><path aria-label="Academic Year: 2006-07; International % of Total Enrollment: 20%" role="graphics-symbol" aria-roledescription="line mark" d="M18.421,277.333L55.263,272L92.105,272L128.947,269.333L165.789,274.667L202.632,250.667L239.474,232L276.316,218.667L313.158,200L350,194.667L386.842,176L423.684,162.667L460.526,165.333L497.368,157.333L534.211,157.333L571.053,112L607.895,112L644.737,85.333L681.579,74.667" stroke="#E6224B" stroke-width="2"/></g><g class="mark-symbol role-mark layer_1_layer_1_marks" role="graphics-object" aria-roledescription="symbol mark container"><path aria-label="Academic Year: 2006-07; International % of Total Enrollment: 20%" role="graphics-symbol" aria-roledescription="point" transform="translate(18.421052631578974,277.3333333333333)" d="M2.739,0A2.739,2.739,0,1,1,-2.739,0A2.739,2.739,0,1,1,2.739,0" fill="#E6224B" stroke-width="2" opacity="1"/><path aria-label="Academic Year: 2007-08; International % of Total Enrollment: 20%" role="graphics-symbol" aria-roledescription="point" transform="translate(55.26315789473687,272)" d="M2.739,0A2.739,2.739,0,1,1,-2.739,0A2.739,2.739,0,1,1,2.739,0" fill="#E6224B" stroke-width="2" opacity="1"/><path aria-label="Academic Year: 2008-09; International % of Total Enrollment: 20%" role="graphics-symbol" aria-roledescription="point" transform="translate(92.10526315789477,272)" d="M2.739,0A2.739,2.739,0,1,1,-2.739,0A2.739,2.739,0,1,1,2.739,0" fill="#E6224B" stroke-width="2" opacity="1"/><path aria-label="Academic Year: 2009-10; International % of Total Enrollment: 20%" role="graphics-symbol" aria-roledescription="point" transform="translate(128.94736842105266,269.3333333333333)" d="M2.739,0A2.739,2.739,0,1,1,-2.739,0A2.739,2.739,0,1,1,2.739,0" fill="#E6224B" stroke-width="2" opacity="1"/><path aria-label="Academic Year: 2010-11; International % of Total Enrollment: 20%" role="graphics-symbol" aria-roledescription="point" transform="translate(165.78947368421058,274.6666666666667)" d="M2.739,0A2.739,2.739,0,1,1,-2.739,0A2.739,2.739,0,1,1,2.739,0" fill="#E6224B" stroke-width="2" opacity="1"/><path aria-label="Academic Year: 2011-12; International % of Total Enrollment: 21%" role="graphics-symbol" aria-roledescription="point" transform="translate(202.63157894736844,250.6666666666666)" d="M2.739,0A2.739,2.739,0,1,1,-2.739,0A2.739,2.739,0,1,1,2.739,0" fill="#E6224B" stroke-width="2" opacity="1"/><path aria-label="Academic Year: 2012-13; International % of Total Enrollment: 21%" role="graphics-symbol" aria-roledescription="point" transform="translate(239.47368421052636,231.99999999999997)" d="M2.739,0A2.739,2.739,0,1,1,-2.739,0A2.739,2.739,0,1,1,2.739,0" fill="#E6224B" stroke-width="2" opacity="1"/><path aria-label="Academic Year: 2013-14; International % of Total Enrollment: 22%" role="graphics-symbol" aria-roledescription="point" transform="translate(276.3157894736842,218.66666666666666)" d="M2.739,0A2.739,2.739,0,1,1,-2.739,0A2.739,2.739,0,1,1,2.739,0" fill="#E6224B" stroke-width="2" opacity="1"/><path aria-label="Academic Year: 2014-15; International % of Total Enrollment: 23%" role="graphics-symbol" aria-roledescription="point" transform="translate(313.15789473684214,199.99999999999994)" d="M2.739,0A2.739,2.739,0,1,1,-2.739,0A2.739,2.739,0,1,1,2.739,0" fill="#E6224B" stroke-width="2" opacity="1"/><path aria-label="Academic Year: 2015-16; International % of Total Enrollment: 23%" role="graphics-symbol" aria-roledescription="point" transform="translate(350.00000000000006,194.66666666666669)" d="M2.739,0A2.739,2.739,0,1,1,-2.739,0A2.739,2.739,0,1,1,2.739,0" fill="#E6224B" stroke-width="2" opacity="1"/><path aria-label="Academic Year: 2016-17; International % of Total Enrollment: 23%" role="graphics-symbol" aria-roledescription="point" transform="translate(386.8421052631579,176.00000000000003)" d="M2.739,0A2.739,2.739,0,1,1,-2.739,0A2.739,2.739,0,1,1,2.739,0" fill="#E6224B" stroke-width="2" opacity="1"/><path aria-label="Academic Year: 2017-18; International % of Total Enrollment: 24%" role="graphics-symbol" aria-roledescription="point" transform="translate(423.68421052631584,162.66666666666666)" d="M2.739,0A2.739,2.739,0,1,1,-2.739,0A2.739,2.739,0,1,1,2.739,0" fill="#E6224B" stroke-width="2" opacity="1"/><path aria-label="Academic Year: 2018-19; International % of Total Enrollment: 24%" role="graphics-symbol" aria-roledescription="point" transform="translate(460.52631578947376,165.33333333333326)" d="M2.739,0A2.739,2.739,0,1,1,-2.739,0A2.739,2.739,0,1,1,2.739,0" fill="#E6224B" stroke-width="2" opacity="1"/><path aria-label="Academic Year: 2019-20; International % of Total Enrollment: 24%" role="graphics-symbol" aria-roledescription="point" transform="translate(497.3684210526316,157.33333333333323)" d="M2.739,0A2.739,2.739,0,1,1,-2.739,0A2.739,2.739,0,1,1,2.739,0" fill="#E6224B" stroke-width="2" opacity="1"/><path aria-label="Academic Year: 2020-21; International % of Total Enrollment: 24%" role="graphics-symbol" aria-roledescription="point" transform="translate(534.2105263157895,157.33333333333323)" d="M2.739,0A2.739,2.739,0,1,1,-2.739,0A2.739,2.739,0,1,1,2.739,0" fill="#E6224B" stroke-width="2" opacity="1"/><path aria-label="Academic Year: 2021-22; International % of Total Enrollment: 26%" role="graphics-symbol" aria-roledescription="point" transform="translate(571.0526315789474,111.99999999999997)" d="M2.739,0A2.739,2.739,0,1,1,-2.739,0A2.739,2.739,0,1,1,2.739,0" fill="#E6224B" stroke-width="2" opacity="1"/><path aria-label="Academic Year: 2022-23; International % of Total Enrollment: 26%" role="graphics-symbol" aria-roledescription="point" transform="translate(607.8947368421053,111.99999999999997)" d="M2.739,0A2.739,2.739,0,1,1,-2.739,0A2.739,2.739,0,1,1,2.739,0" fill="#E6224B" stroke-width="2" opacity="1"/><path aria-label="Academic Year: 2023-24; International % of Total Enrollment: 27%" role="graphics-symbol" aria-roledescription="point" transform="translate(644.7368421052632,85.33333333333326)" d="M2.739,0A2.739,2.739,0,1,1,-2.739,0A2.739,2.739,0,1,1,2.739,0" fill="#E6224B" stroke-width="2" opacity="1"/><path aria-label="Academic Year: 2024-25; International % of Total Enrollment: 27%" role="graphics-symbol" aria-roledescription="point" transform="translate(681.5789473684212,74.66666666666657)" d="M2.739,0A2.739,2.739,0,1,1,-2.739,0A2.739,2.739,0,1,1,2.739,0" fill="#E6224B" stroke-width="2" opacity="1"/></g><g class="mark-text role-mark layer_2_marks" role="graphics-object" aria-roledescription="text mark container"><text aria-label="Academic Year: 2006-07; International % of Total Enrollment: 0.196" role="graphics-symbol" aria-roledescription="text mark" text-anchor="middle" transform="translate(18.421052631578974,270.3333333333333)" font-family="Circular Std" font-size="10px" fill="#E6224B">20%</text><text aria-label="Academic Year: 2007-08; International % of Total Enrollment: 0.198" role="graphics-symbol" aria-roledescription="text mark" text-anchor="middle" transform="translate(55.26315789473687,265)" font-family="Circular Std" font-size="10px" fill="#E6224B">20%</text><text aria-label="Academic Year: 2008-09; International % of Total Enrollment: 0.198" role="graphics-symbol" aria-roledescription="text mark" text-anchor="middle" transform="translate(92.10526315789477,265)" font-family="Circular Std" font-size="10px" fill="#E6224B">20%</text><text aria-label="Academic Year: 2009-10; International % of Total Enrollment: 0.199" role="graphics-symbol" aria-roledescription="text mark" text-anchor="middle" transform="translate(128.94736842105266,262.3333333333333)" font-family="Circular Std" font-size="10px" fill="#E6224B">20%</text><text aria-label="Academic Year: 2010-11; International % of Total Enrollment: 0.197" role="graphics-symbol" aria-roledescription="text mark" text-anchor="middle" transform="translate(165.78947368421058,267.6666666666667)" font-family="Circular Std" font-size="10px" fill="#E6224B">20%</text><text aria-label="Academic Year: 2011-12; International % of Total Enrollment: 0.206" role="graphics-symbol" aria-roledescription="text mark" text-anchor="middle" transform="translate(202.63157894736844,243.6666666666666)" font-family="Circular Std" font-size="10px" fill="#E6224B">21%</text><text aria-label="Academic Year: 2012-13; International % of Total Enrollment: 0.213" role="graphics-symbol" aria-roledescription="text mark" text-anchor="middle" transform="translate(239.47368421052636,224.99999999999997)" font-family="Circular Std" font-size="10px" fill="#E6224B">21%</text><text aria-label="Academic Year: 2013-14; International % of Total Enrollment: 0.218" role="graphics-symbol" aria-roledescription="text mark" text-anchor="middle" transform="translate(276.3157894736842,211.66666666666666)" font-family="Circular Std" font-size="10px" fill="#E6224B">22%</text><text aria-label="Academic Year: 2014-15; International % of Total Enrollment: 0.225" role="graphics-symbol" aria-roledescription="text mark" text-anchor="middle" transform="translate(313.15789473684214,192.99999999999994)" font-family="Circular Std" font-size="10px" fill="#E6224B">23%</text><text aria-label="Academic Year: 2015-16; International % of Total Enrollment: 0.227" role="graphics-symbol" aria-roledescription="text mark" text-anchor="middle" transform="translate(350.00000000000006,187.66666666666669)" font-family="Circular Std" font-size="10px" fill="#E6224B">23%</text><text aria-label="Academic Year: 2016-17; International % of Total Enrollment: 0.234" role="graphics-symbol" aria-roledescription="text mark" text-anchor="middle" transform="translate(386.8421052631579,169.00000000000003)" font-family="Circular Std" font-size="10px" fill="#E6224B">23%</text><text aria-label="Academic Year: 2017-18; International % of Total Enrollment: 0.239" role="graphics-symbol" aria-roledescription="text mark" text-anchor="middle" transform="translate(423.68421052631584,155.66666666666666)" font-family="Circular Std" font-size="10px" fill="#E6224B">24%</text><text aria-label="Academic Year: 2018-19; International % of Total Enrollment: 0.238" role="graphics-symbol" aria-roledescription="text mark" text-anchor="middle" transform="translate(460.52631578947376,158.33333333333326)" font-family="Circular Std" font-size="10px" fill="#E6224B">24%</text><text aria-label="Academic Year: 2019-20; International % of Total Enrollment: 0.241" role="graphics-symbol" aria-roledescription="text mark" text-anchor="middle" transform="translate(497.3684210526316,150.33333333333323)" font-family="Circular Std" font-size="10px" fill="#E6224B">24%</text><text aria-label="Academic Year: 2020-21; International % of Total Enrollment: 0.241" role="graphics-symbol" aria-roledescription="text mark" text-anchor="middle" transform="translate(534.2105263157895,150.33333333333323)" font-family="Circular Std" font-size="10px" fill="#E6224B">24%</text><text aria-label="Academic Year: 2021-22; International % of Total Enrollment: 0.258" role="graphics-symbol" aria-roledescription="text mark" text-anchor="middle" transform="translate(571.0526315789474,104.99999999999997)" font-family="Circular Std" font-size="10px" fill="#E6224B">26%</text><text aria-label="Academic Year: 2022-23; International % of Total Enrollment: 0.258" role="graphics-symbol" aria-roledescription="text mark" text-anchor="middle" transform="translate(607.8947368421053,104.99999999999997)" font-family="Circular Std" font-size="10px" fill="#E6224B">26%</text><text aria-label="Academic Year: 2023-24; International % of Total Enrollment: 0.268" role="graphics-symbol" aria-roledescription="text mark" text-anchor="middle" transform="translate(644.7368421052632,78.33333333333326)" font-family="Circular Std" font-size="10px" fill="#E6224B">27%</text><text aria-label="Academic Year: 2024-25; International % of Total Enrollment: 0.272" role="graphics-symbol" aria-roledescription="text mark" text-anchor="middle" transform="translate(681.5789473684212,67.66666666666657)" font-family="Circular Std" font-size="10px" fill="#E6224B">27%</text></g><g class="mark-group role-title"><g transform="translate(-32.220001220703125,-89)"><path class="background" aria-hidden="true" d="M0,0h0v0h0Z" pointer-events="none"/><g><g class="mark-text role-title-text" role="graphics-symbol" aria-roledescription="title" aria-label="Title text 'International Students at Harvard'" pointer-events="none"><text text-anchor="start" transform="translate(0,17)" font-family="Circular Std" font-size="22px" font-weight="bold" fill="#000" opacity="1">International Students at Harvard</text></g><g class="mark-text role-title-subtitle" role="graphics-symbol" aria-roledescription="subtitle" aria-label="Subtitle text 'Number and share of international students at Harvard university Source: Harvard University '" pointer-events="none"><text text-anchor="start" transform="translate(0,34)" font-family="Circular Std" font-size="12px" fill="#676A86" opacity="1"><tspan>Number and share of international students at Harvard university</tspan><tspan x="0" dy="14">Source: Harvard University</tspan><tspan x="0" dy="14"/></text></g></g><path class="foreground" aria-hidden="true" d="" pointer-events="none" display="none"/></g></g></g><path class="foreground" aria-hidden="true" d="" display="none"/></g></g></g></svg>