<svg xmlns="http://www.w3.org/2000/svg" xmlns:xlink="http://www.w3.org/1999/xlink" version="1.1" class="marks" width="608" height="412" viewBox="0 0 608 412"><rect width="608" height="412" fill="white"/><g fill="none" stroke-miterlimit="10" transform="translate(56,40)"><g class="mark-group role-frame root" role="graphics-object" aria-roledescription="group mark container"><g transform="translate(0,0)"><path class="background" aria-hidden="true" d="M0.5,0.5h500v350h-500Z"/><g><g class="mark-group role-axis" aria-hidden="true"><g transform="translate(0.5,0.5)"><path class="background" aria-hidden="true" d="M0,0h0v0h0Z" pointer-events="none"/><g><g class="mark-rule role-axis-grid" pointer-events="none"><line transform="translate(0,350)" x2="500" y2="0" stroke="#676A86" stroke-opacity="0.5" stroke-width="1" stroke-dasharray="1,5" opacity="1"/><line transform="translate(0,292)" x2="500" y2="0" stroke="#676A86" stroke-opacity="0.5" stroke-width="1" stroke-dasharray="1,5" opacity="1"/><line transform="translate(0,233)" x2="500" y2="0" stroke="#676A86" stroke-opacity="0.5" stroke-width="1" stroke-dasharray="1,5" opacity="1"/><line transform="translate(0,175)" x2="500" y2="0" stroke="#676A86" stroke-opacity="0.5" stroke-width="1" stroke-dasharray="1,5" opacity="1"/><line transform="translate(0,117)" x2="500" y2="0" stroke="#676A86" stroke-opacity="0.5" stroke-width="1" stroke-dasharray="1,5" opacity="1"/><line transform="translate(0,58)" x2="500" y2="0" stroke="#676A86" stroke-opacity="0.5" stroke-width="1" stroke-dasharray="1,5" opacity="1"/><line transform="translate(0,0)" x2="500" y2="0" stroke="#676A86" stroke-opacity="0.5" stroke-width="1" stroke-dasharray="1,5" opacity="1"/></g></g><path class="foreground" aria-hidden="true" d="" pointer-events="none" display="none"/></g></g><g class="mark-group role-axis" role="graphics-symbol" aria-roledescription="axis" aria-label="X-axis for a time scale with values from Friday, 01 June 2012, 12:00:00 AM to Sunday, 01 December 2024, 12:00:00 AM"><g transform="translate(0.5,350.5)"><path class="background" aria-hidden="true" d="M0,0h0v0h0Z" pointer-events="none"/><g><g class="mark-rule role-axis-tick" pointer-events="none"><line transform="translate(23,0)" x2="0" y2="5" stroke="#676A86" stroke-opacity="0.5" stroke-width="1" opacity="1"/><line transform="translate(63,0)" x2="0" y2="5" stroke="#676A86" stroke-opacity="0.5" stroke-width="1" opacity="1"/><line transform="translate(103,0)" x2="0" y2="5" stroke="#676A86" stroke-opacity="0.5" stroke-width="1" opacity="1"/><line transform="translate(143,0)" x2="0" y2="5" stroke="#676A86" stroke-opacity="0.5" stroke-width="1" opacity="1"/><line transform="translate(183,0)" x2="0" y2="5" stroke="#676A86" stroke-opacity="0.5" stroke-width="1" opacity="1"/><line transform="translate(223,0)" x2="0" y2="5" stroke="#676A86" stroke-opacity="0.5" stroke-width="1" opacity="1"/><line transform="translate(263,0)" x2="0" y2="5" stroke="#676A86" stroke-opacity="0.5" stroke-width="1" opacity="1"/><line transform="translate(303,0)" x2="0" y2="5" stroke="#676A86" stroke-opacity="0.5" stroke-width="1" opacity="1"/><line transform="translate(343,0)" x2="0" y2="5" stroke="#676A86" stroke-opacity="0.5" stroke-width="1" opacity="1"/><line transform="translate(383,0)" x2="0" y2="5" stroke="#676A86" stroke-opacity="0.5" stroke-width="1" opacity="1"/><line transform="translate(423,0)" x2="0" y2="5" stroke="#676A86" stroke-opacity="0.5" stroke-width="1" opacity="1"/><line transform="translate(463,0)" x2="0" y2="5" stroke="#676A86" stroke-opacity="0.5" stroke-width="1" opacity="1"/></g><g class="mark-text role-axis-label" pointer-events="none"><text text-anchor="middle" transform="translate(23.438426791987958,15)" font-family="Circular Std" font-size="10px" fill="#676A86" fill-opacity="0.7" opacity="1">2013</text><text text-anchor="middle" transform="translate(63.40740064789889,15)" font-family="Circular Std" font-size="10px" fill="#676A86" fill-opacity="0.7" opacity="1">2014</text><text text-anchor="middle" transform="translate(103.37637450380983,15)" font-family="Circular Std" font-size="10px" fill="#676A86" fill-opacity="0.7" opacity="1">2015</text><text text-anchor="middle" transform="translate(143.34534835972076,15)" font-family="Circular Std" font-size="10px" fill="#676A86" fill-opacity="0.7" opacity="1">2016</text><text text-anchor="middle" transform="translate(183.4238262535931,15)" font-family="Circular Std" font-size="10px" fill="#676A86" fill-opacity="0.7" opacity="1">2017</text><text text-anchor="middle" transform="translate(223.39280010950404,15)" font-family="Circular Std" font-size="10px" fill="#676A86" fill-opacity="0.7" opacity="1">2018</text><text text-anchor="middle" transform="translate(263.361773965415,15)" font-family="Circular Std" font-size="10px" fill="#676A86" fill-opacity="0.7" opacity="1">2019</text><text text-anchor="middle" transform="translate(303.33074782132593,15)" font-family="Circular Std" font-size="10px" fill="#676A86" fill-opacity="0.7" opacity="1">2020</text><text text-anchor="middle" transform="translate(343.40922571519826,15)" font-family="Circular Std" font-size="10px" fill="#676A86" fill-opacity="0.7" opacity="1">2021</text><text text-anchor="middle" transform="translate(383.3781995711092,15)" font-family="Circular Std" font-size="10px" fill="#676A86" fill-opacity="0.7" opacity="1">2022</text><text text-anchor="middle" transform="translate(423.3471734270201,15)" font-family="Circular Std" font-size="10px" fill="#676A86" fill-opacity="0.7" opacity="1">2023</text><text text-anchor="middle" transform="translate(463.31614728293107,15)" font-family="Circular Std" font-size="10px" fill="#676A86" fill-opacity="0.7" opacity="1">2024</text></g><g class="mark-rule role-axis-domain" pointer-events="none"><line transform="translate(0,0)" x2="500" y2="0" stroke="#676A86" stroke-opacity="0.5" stroke-width="1" opacity="1"/></g></g><path class="foreground" aria-hidden="true" d="" pointer-events="none" display="none"/></g></g><g class="mark-group role-axis" role="graphics-symbol" aria-roledescription="axis" aria-label="Y-axis for a linear scale with values from −200,000 to 1,000,000"><g transform="translate(0.5,0.5)"><path class="background" aria-hidden="true" d="M0,0h0v0h0Z" pointer-events="none"/><g><g class="mark-text role-axis-label" pointer-events="none"><text text-anchor="end" transform="translate(-5,353)" font-family="Circular Std" font-size="10px" fill="#676A86" fill-opacity="0.7" opacity="1">−200,000</text><text text-anchor="end" transform="translate(-5,294.6666666666667)" font-family="Circular Std" font-size="10px" fill="#676A86" fill-opacity="0.7" opacity="1">0</text><text text-anchor="end" transform="translate(-5,236.33333333333337)" font-family="Circular Std" font-size="10px" fill="#676A86" fill-opacity="0.7" opacity="1">200,000</text><text text-anchor="end" transform="translate(-5,178)" font-family="Circular Std" font-size="10px" fill="#676A86" fill-opacity="0.7" opacity="1">400,000</text><text text-anchor="end" transform="translate(-5,119.66666666666669)" font-family="Circular Std" font-size="10px" fill="#676A86" fill-opacity="0.7" opacity="1">600,000</text><text text-anchor="end" transform="translate(-5,61.33333333333332)" font-family="Circular Std" font-size="10px" fill="#676A86" fill-opacity="0.7" opacity="1">800,000</text><text text-anchor="end" transform="translate(-5,3)" font-family="Circular Std" font-size="10px" fill="#676A86" fill-opacity="0.7" opacity="1">1,000,000</text></g><g class="mark-rule role-axis-domain" pointer-events="none"><line transform="translate(0,350)" x2="0" y2="-350" stroke="#676A86" stroke-opacity="0.5" stroke-width="1" opacity="1"/></g></g><path class="foreground" aria-hidden="true" d="" pointer-events="none" display="none"/></g></g><g class="mark-text role-mark layer_0_marks" role="graphics-object" aria-roledescription="text mark container"><text aria-label="date: Dec 01, 2024; value: 544000; Series: Non-EU+; label: Non-EU+" role="graphics-symbol" aria-roledescription="text mark" text-anchor="start" transform="translate(505,136)" font-family="Circular Std" font-size="10px" font-weight="bold" fill="#00A767">Non-EU+</text><text aria-label="date: Dec 01, 2024; value: −96000; Series: EU+; label: EU+" role="graphics-symbol" aria-roledescription="text mark" text-anchor="start" transform="translate(505,322.6666666666667)" font-family="Circular Std" font-size="10px" font-weight="bold" fill="#179FDB">EU+</text><text aria-label="date: Dec 01, 2024; value: −17000; Series: British; label: British" role="graphics-symbol" aria-roledescription="text mark" text-anchor="start" transform="translate(505,299.625)" font-family="Circular Std" font-size="10px" font-weight="bold" fill="#EB5C2E">British</text><text aria-label="date: Dec 01, 2024; value: 431000; Series: Total; label: Total" role="graphics-symbol" aria-roledescription="text mark" text-anchor="start" transform="translate(505,168.95833333333331)" font-family="Circular Std" font-size="10px" font-weight="bold" fill="hsl(206, 100%, 34%)">Total</text></g><g class="mark-group role-scope layer_1_pathgroup" role="graphics-object" aria-roledescription="group mark container"><g transform="translate(0,0)"><path class="background" aria-hidden="true" d="M0,0h500v350h-500Z"/><g><g class="mark-line role-mark layer_1_marks" role="graphics-object" aria-roledescription="line mark container"><path aria-label="date: Jun 01, 2012; value: 57000; Series: Non-EU+" role="graphics-symbol" aria-roledescription="line mark" d="M0,275.042L10.074,275.917L20.044,273.875L29.899,274.167L39.969,275.333L50.043,273L60.013,273.292L69.868,272.125L79.938,272.708L90.012,270.375L99.982,266.292L109.837,264.25L119.907,262.208L129.981,261.625L139.951,266L149.916,268.333L159.985,267.75L170.06,267.458L180.029,265.417L189.885,263.375L199.954,265.125L210.029,263.083L219.998,258.417L229.854,256.083L239.923,249.958L249.998,246.458L259.967,239.75L269.823,236.25L279.892,239.458L289.967,241.792L299.936,237.417L309.901,243.25L319.971,258.125L330.045,274.167L340.015,262.208L349.87,247.917L359.94,218.458L370.014,163.042L379.984,137.375L389.839,105L399.909,71.75L409.983,28.583L419.953,10.208L429.808,12.542L439.878,13.417L449.952,12.542L459.922,14L469.886,21.292L479.956,42L490.031,84.875L500,133" stroke="#00A767" stroke-width="2"/></g></g><path class="foreground" aria-hidden="true" d="" display="none"/></g><g transform="translate(0,0)"><path class="background" aria-hidden="true" d="M0,0h500v350h-500Z"/><g><g class="mark-line role-mark layer_1_marks" role="graphics-object" aria-roledescription="line mark container"><path aria-label="date: Jun 01, 2012; value: 187000; Series: EU+" role="graphics-symbol" aria-roledescription="line mark" d="M0,237.125L10.074,238.292L20.044,231.583L29.899,226.625L39.969,221.083L50.043,211.458L60.013,215.25L69.868,214.958L79.938,216.417L90.012,212.917L99.982,210.875L109.837,211.458L119.907,213.792L129.981,215.25L139.951,207.958L149.916,205.917L159.985,197.75L170.06,205.917L180.029,217.875L189.885,223.125L199.954,236.833L210.029,235.667L219.998,240.333L229.854,245L239.923,245.583L249.998,251.417L259.967,242.083L269.823,246.458L279.892,254.917L289.967,258.417L299.936,268.333L309.901,268.042L319.971,271.25L330.045,278.542L340.015,271.25L349.87,273.875L359.94,269.792L370.014,288.167L379.984,314.125L389.839,327.25L399.909,332.5L409.983,326.375L419.953,317.333L429.808,307.417L439.878,302.75L449.952,307.417L459.922,307.708L469.886,316.458L479.956,319.375L490.031,316.75L500,319.667" stroke="#179FDB" stroke-width="2"/></g></g><path class="foreground" aria-hidden="true" d="" display="none"/></g><g transform="translate(0,0)"><path class="background" aria-hidden="true" d="M0,0h500v350h-500Z"/><g><g class="mark-line role-mark layer_1_marks" role="graphics-object" aria-roledescription="line mark container"><path aria-label="date: Jun 01, 2012; value: −83000; Series: British" role="graphics-symbol" aria-roledescription="line mark" d="M0,315.875L10.074,315L20.044,312.667L29.899,314.708L39.969,315.875L50.043,315L60.013,315.292L69.868,313.25L79.938,313.542L90.012,314.708L99.982,315L109.837,312.958L119.907,312.667L129.981,312.667L139.951,312.958L149.916,314.125L159.985,315.875L170.06,317.042L180.029,319.083L189.885,318.208L199.954,314.708L210.029,316.458L219.998,315.292L229.854,317.625L239.923,316.167L249.998,311.208L259.967,312.667L269.823,312.667L279.892,315.583L289.967,315.875L299.936,315.583L309.901,314.125L319.971,313.25L330.045,312.083L340.015,314.417L349.87,314.708L359.94,312.958L370.014,287.583L379.984,282.333L389.839,283.208L399.909,285.833L409.983,289.917L419.953,292.833L429.808,294.292L439.878,294.583L449.952,300.708L459.922,302.458L469.886,296.625L479.956,297.792L490.031,297.792L500,296.625" stroke="#EB5C2E" stroke-width="2"/></g></g><path class="foreground" aria-hidden="true" d="" display="none"/></g><g transform="translate(0,0)"><path class="background" aria-hidden="true" d="M0,0h500v350h-500Z"/><g><g class="mark-line role-mark layer_1_marks" role="graphics-object" aria-roledescription="line mark container"><path aria-label="date: Jun 01, 2012; value: 162000; Series: Total" role="graphics-symbol" aria-roledescription="line mark" d="M0,244.417L10.074,245.875L20.044,234.792L29.899,232.167L39.969,228.958L50.043,216.125L60.013,220.5L69.868,217L79.938,219.333L90.012,214.667L99.982,208.833L109.837,205.333L119.907,205.333L129.981,206.208L139.951,203.292L149.916,204.75L159.985,198.042L170.06,207.083L180.029,219.042L189.885,221.667L199.954,233.333L210.029,231.875L219.998,231L229.854,235.375L239.923,228.667L249.998,225.75L259.967,211.167L269.823,211.75L279.892,226.333L289.967,232.75L299.936,238L309.901,242.083L319.971,259.292L330.045,281.458L340.015,264.542L349.87,253.167L359.94,217.583L370.014,155.458L379.984,150.5L389.839,131.833L399.909,106.75L409.983,61.542L419.953,37.042L429.808,30.917L439.878,27.417L449.952,37.333L459.922,40.833L469.886,51.042L479.956,76.125L490.031,116.375L500,165.958" stroke="hsl(206, 100%, 34%)" stroke-width="2"/></g></g><path class="foreground" aria-hidden="true" d="" display="none"/></g></g><g class="mark-rule role-mark layer_2_marks" role="graphics-object" aria-roledescription="rule mark container"><line aria-label="y: 0" role="graphics-symbol" aria-roledescription="rule mark" transform="translate(500,291.6666666666667)" x2="-500" y2="0" stroke="black" stroke-dasharray="1,0"/></g><g class="mark-rule role-mark layer_3_marks" role="graphics-object" aria-roledescription="rule mark container"><line aria-label="date: Jan 01, 2021" role="graphics-symbol" aria-roledescription="rule mark" transform="translate(343.40922571519826,0)" x2="0" y2="350" stroke="#676A86" stroke-dasharray="3,5" opacity="0.8"/></g><g class="mark-text role-mark layer_4_marks" role="graphics-object" aria-roledescription="text mark container"><text aria-label="date: Jan 01, 2021; label: Introduction of,points-based immigration system" role="graphics-symbol" aria-roledescription="text mark" text-anchor="start" transform="translate(343.40922571519826,-27)" font-family="Circular Std" font-size="10px" fill="#676A86"><tspan>Introduction of</tspan><tspan x="0" dy="12">points-based immigration system</tspan></text></g></g><path class="foreground" aria-hidden="true" d="" display="none"/></g></g></g></svg>