<svg xmlns="http://www.w3.org/2000/svg" xmlns:xlink="http://www.w3.org/1999/xlink" version="1.1" class="marks" width="450" height="406" viewBox="0 0 450 406"><rect width="450" height="406" fill="white"/><g fill="none" stroke-miterlimit="10" transform="translate(43,85)"><g class="mark-group role-frame root" role="graphics-object" aria-roledescription="group mark container"><g transform="translate(0,0)"><path class="background" aria-hidden="true" d="M0.5,0.5h400v300h-400Z"/><g><g class="mark-group role-axis" role="graphics-symbol" aria-roledescription="axis" aria-label="X-axis for a time scale with values from January 2022 to May 2022"><g transform="translate(0.5,300.5)"><path class="background" aria-hidden="true" d="M0,0h0v0h0Z" pointer-events="none"/><g><g class="mark-text role-axis-label" pointer-events="none"><text text-anchor="middle" transform="translate(76.7342278047388,14)" font-family="sans-serif" font-size="10px" fill="#000" opacity="1">Feb 2022</text><text text-anchor="middle" transform="translate(153.4684556094776,14)" font-family="sans-serif" font-size="10px" fill="#000" opacity="1">Mar 2022</text><text text-anchor="middle" transform="translate(238.31001998287184,14)" font-family="sans-serif" font-size="10px" fill="#000" opacity="1">Apr 2022</text><text text-anchor="middle" transform="translate(320.5252640593777,14)" font-family="sans-serif" font-size="10px" fill="#000" opacity="1">May 2022</text></g><g class="mark-rule role-axis-domain" pointer-events="none"><line transform="translate(0,0)" x2="400" y2="0" stroke="#888" stroke-width="1" opacity="1"/></g></g><path class="foreground" aria-hidden="true" d="" pointer-events="none" display="none"/></g></g><g class="mark-group role-axis" role="graphics-symbol" aria-roledescription="axis" aria-label="Y-axis for a linear scale with values from 0 to 14,000"><g transform="translate(0.5,0.5)"><path class="background" aria-hidden="true" d="M0,0h0v0h0Z" pointer-events="none"/><g><g class="mark-rule role-axis-tick" pointer-events="none"><line transform="translate(0,300)" x2="-5" y2="0" stroke="#888" stroke-opacity="0" stroke-width="1" opacity="1"/><line transform="translate(0,257)" x2="-5" y2="0" stroke="#888" stroke-opacity="0" stroke-width="1" opacity="1"/><line transform="translate(0,214)" x2="-5" y2="0" stroke="#888" stroke-opacity="0" stroke-width="1" opacity="1"/><line transform="translate(0,171)" x2="-5" y2="0" stroke="#888" stroke-opacity="0" stroke-width="1" opacity="1"/><line transform="translate(0,129)" x2="-5" y2="0" stroke="#888" stroke-opacity="0" stroke-width="1" opacity="1"/><line transform="translate(0,86)" x2="-5" y2="0" stroke="#888" stroke-opacity="0" stroke-width="1" opacity="1"/><line transform="translate(0,43)" x2="-5" y2="0" stroke="#888" stroke-opacity="0" stroke-width="1" opacity="1"/><line transform="translate(0,0)" x2="-5" y2="0" stroke="#888" stroke-opacity="0" stroke-width="1" opacity="1"/></g><g class="mark-text role-axis-label" pointer-events="none"><text text-anchor="end" transform="translate(-7,303)" font-family="sans-serif" font-size="10px" fill="#000" opacity="1">0</text><text text-anchor="end" transform="translate(-7,260.14285714285717)" font-family="sans-serif" font-size="10px" fill="#000" opacity="1">2,000</text><text text-anchor="end" transform="translate(-7,217.28571428571428)" font-family="sans-serif" font-size="10px" fill="#000" opacity="1">4,000</text><text text-anchor="end" transform="translate(-7,174.42857142857142)" font-family="sans-serif" font-size="10px" fill="#000" opacity="1">6,000</text><text text-anchor="end" transform="translate(-7,131.57142857142858)" font-family="sans-serif" font-size="10px" fill="#000" opacity="1">8,000</text><text text-anchor="end" transform="translate(-7,88.71428571428571)" font-family="sans-serif" font-size="10px" fill="#000" opacity="1">10,000</text><text text-anchor="end" transform="translate(-7,45.85714285714287)" font-family="sans-serif" font-size="10px" fill="#000" opacity="1">12,000</text><text text-anchor="end" transform="translate(-7,3)" font-family="sans-serif" font-size="10px" fill="#000" opacity="1">14,000</text></g><g class="mark-rule role-axis-domain" pointer-events="none"><line transform="translate(0,300)" x2="0" y2="-300" stroke="#888" stroke-width="1" opacity="1"/></g></g><path class="foreground" aria-hidden="true" d="" pointer-events="none" display="none"/></g></g><g class="mark-line role-mark layer_0_marks" role="graphics-object" aria-roledescription="line mark container"><path aria-label="Date: Jan 2022; Value: 125.65" role="graphics-symbol" aria-roledescription="line mark" d="M0,297.308L2.741,297.308L2.741,297.434L5.481,297.434L5.481,297.434L8.222,297.434L8.222,297.35L16.443,297.35L16.443,297.328L19.184,297.328L19.184,297.18L21.924,297.18L21.924,297.223L24.665,297.223L24.665,297.117L27.405,297.117L27.405,296.608L35.627,296.608L35.627,296.246L38.367,296.246L38.367,295.925L41.108,295.925L41.108,295.694L43.848,295.694L43.848,296.246L46.589,296.246L46.589,295.694L54.81,295.694L54.81,295.65L57.551,295.65L57.551,294.673L60.291,294.673L60.291,294.757L63.032,294.757L63.032,294.924L65.772,294.924L65.772,295.457L73.994,295.457L73.994,295.116L76.734,295.116L76.734,295.245L79.475,295.245L79.475,295.33L82.215,295.33L82.215,295.712L84.956,295.712L84.956,295.84L93.177,295.84L93.177,295.736L95.918,295.736L95.918,295.734L98.658,295.734L98.658,295.864L101.399,295.864L101.399,296.162L104.139,296.162L104.139,296.035L112.361,296.035L112.361,295.374L115.101,295.374L115.101,294.717L117.842,294.717L117.842,295.354L120.582,295.354L120.582,295.524L123.323,295.524L123.323,294.884L131.544,294.884L131.544,294.247L134.285,294.247L134.285,293.294L137.025,293.294L137.025,292.637L139.766,292.637L139.766,291.161L156.209,291.161L156.209,263.874L158.949,263.874L158.949,264.102L161.69,264.102L161.69,264.381L169.912,264.381L169.912,255.392L172.652,255.392L172.652,196.879L175.393,196.879L175.393,209.208L178.133,209.208L178.133,222.044L180.874,222.044L180.874,150.982L191.836,150.982L191.836,204.143L194.576,204.143L194.576,204.712L200.057,204.712L200.057,256.349L208.279,256.349L208.279,259.194L211.019,259.194L211.019,253.228L213.76,253.228L213.76,244.509L216.5,244.509L216.5,189.383L219.241,189.383L219.241,189.209L227.348,189.209L227.348,200.06L230.088,200.06L230.088,209.415L232.829,209.415L232.829,233.713L235.57,233.713L235.57,233.672L238.31,233.672L238.31,230.132L246.532,230.132L246.532,229.743L249.272,229.743L249.272,229.717L254.753,229.717L254.753,81.272L257.494,81.272L257.494,21.132L265.715,21.132L265.715,18.238L268.456,18.238L268.456,37.977L271.196,37.977L271.196,14.796L273.937,14.796L273.937,22.645L284.899,22.645L284.899,22.645L287.639,22.645L287.639,22.645L290.38,22.645L290.38,3.793L312.304,3.793L312.304,11.559L328.747,11.559L328.747,163.022L331.487,163.022L331.487,162.677L334.228,162.677L334.228,162.677L342.449,162.677L342.449,147.405L345.19,147.405L345.19,141.503L347.93,141.503L347.93,141.059L350.671,141.059L350.671,141.059L353.411,141.059L353.411,141.047L361.633,141.047L361.633,105.514L364.373,105.514L364.373,100.105L367.114,100.105L367.114,94.041L369.854,94.041L369.854,16.292L372.595,16.292L372.595,14.978L380.816,14.978L380.816,39.759L383.557,39.759L383.557,38.596L386.297,38.596L386.297,68.486L389.038,68.486L389.038,26.014L391.778,26.014L391.778,8.18L400,8.18L400,4.818" stroke="rgb(9, 32, 95)" stroke-width="2"/></g><g class="mark-rule role-mark layer_1_marks" role="graphics-object" aria-roledescription="rule mark container"><line aria-label="Date: Feb 24, 2022" role="graphics-symbol" aria-roledescription="rule mark" transform="translate(139.76591493005995,0)" x2="0" y2="300" stroke="black" stroke-width="2" stroke-dasharray="3,3"/></g><g class="mark-text role-mark layer_2_marks" role="graphics-object" aria-roledescription="text mark container"><text aria-label="Date: Feb 24, 2022; Value: 13822.99" role="graphics-symbol" aria-roledescription="text mark" text-anchor="middle" transform="translate(139.76591493005995,-8.206928571428573)" font-family="sans-serif" font-size="11px" fill="black">Invasion of Ukraine</text></g><g class="mark-group role-title"><g transform="translate(-37.5859375,-79.20692857142858)"><path class="background" aria-hidden="true" d="M0,0h0v0h0Z" pointer-events="none"/><g><g class="mark-text role-title-text" role="graphics-symbol" aria-roledescription="title" aria-label="Title text 'Russia: Credit Default Swap'" pointer-events="none"><text text-anchor="start" transform="translate(0,13)" font-family="sans-serif" font-size="16px" font-weight="bold" fill="black" opacity="1">Russia: Credit Default Swap</text></g><g class="mark-text role-title-subtitle" role="graphics-symbol" aria-roledescription="subtitle" aria-label="Subtitle text '5-Year CDS Price Source: investing.com '" pointer-events="none"><text text-anchor="start" transform="translate(0,28)" font-family="sans-serif" font-size="12px" font-style="italic" fill="#000" opacity="1"><tspan>5-Year CDS Price</tspan><tspan x="0" dy="14">Source: investing.com</tspan><tspan x="0" dy="14"/></text></g></g><path class="foreground" aria-hidden="true" d="" pointer-events="none" display="none"/></g></g></g><path class="foreground" aria-hidden="true" d="" display="none"/></g></g></g></svg>