<svg xmlns="http://www.w3.org/2000/svg" xmlns:xlink="http://www.w3.org/1999/xlink" version="1.1" class="marks" width="527" height="392" viewBox="0 0 527 392"><rect width="527" height="392" fill="white"/><g fill="none" stroke-miterlimit="10" transform="translate(32,49)"><g class="mark-group role-frame root" role="graphics-object" aria-roledescription="group mark container"><g transform="translate(0,0)"><path class="background" aria-hidden="true" d="M0,0h480v0h-480Z"/><g><g class="mark-group role-scope concat_0_group" role="graphics-object" aria-roledescription="group mark container"><g transform="translate(0,0)"><path class="background" aria-hidden="true" d="M0,0h480v300h-480Z" stroke-width="0"/><g><g class="mark-group role-axis" aria-hidden="true"><g transform="translate(0.5,300.5)"><path class="background" aria-hidden="true" d="M0,0h0v0h0Z" pointer-events="none"/><g><g class="mark-rule role-axis-grid" pointer-events="none"><line transform="translate(43,-300)" x2="0" y2="300" stroke="#ddd" stroke-opacity="0" stroke-width="1" opacity="1"/><line transform="translate(112,-300)" x2="0" y2="300" stroke="#ddd" stroke-opacity="0" stroke-width="1" opacity="1"/><line transform="translate(181,-300)" x2="0" y2="300" stroke="#ddd" stroke-opacity="0" stroke-width="1" opacity="1"/><line transform="translate(250,-300)" x2="0" y2="300" stroke="#ddd" stroke-opacity="0" stroke-width="1" opacity="1"/><line transform="translate(320,-300)" x2="0" y2="300" stroke="#ddd" stroke-opacity="0" stroke-width="1" opacity="1"/><line transform="translate(389,-300)" x2="0" y2="300" stroke="#ddd" stroke-opacity="0" stroke-width="1" opacity="1"/><line transform="translate(458,-300)" x2="0" y2="300" stroke="#ddd" stroke-opacity="0" stroke-width="1" opacity="1"/></g></g><path class="foreground" aria-hidden="true" d="" pointer-events="none" display="none"/></g></g><g class="mark-group role-axis" aria-hidden="true"><g transform="translate(0.5,0.5)"><path class="background" aria-hidden="true" d="M0,0h0v0h0Z" pointer-events="none"/><g><g class="mark-rule role-axis-grid" pointer-events="none"><line transform="translate(0,300)" x2="480" y2="0" stroke="#122b39" stroke-opacity="0.5" stroke-width="1" stroke-dasharray="1,5" opacity="1"/><line transform="translate(0,232)" x2="480" y2="0" stroke="#122b39" stroke-opacity="0.5" stroke-width="1" stroke-dasharray="1,5" opacity="1"/><line transform="translate(0,164)" x2="480" y2="0" stroke="#122b39" stroke-opacity="0.5" stroke-width="1" stroke-dasharray="1,5" opacity="1"/><line transform="translate(0,95)" x2="480" y2="0" stroke="#122b39" stroke-opacity="0.5" stroke-width="1" stroke-dasharray="1,5" opacity="1"/><line transform="translate(0,27)" x2="480" y2="0" stroke="#122b39" stroke-opacity="0.5" stroke-width="1" stroke-dasharray="1,5" opacity="1"/></g></g><path class="foreground" aria-hidden="true" d="" pointer-events="none" display="none"/></g></g><g class="mark-group role-axis" role="graphics-symbol" aria-roledescription="axis" aria-label="X-axis for a time scale with values from 1991 to 2026"><g transform="translate(0.5,300.5)"><path class="background" aria-hidden="true" d="M0,0h0v0h0Z" pointer-events="none"/><g><g class="mark-rule role-axis-tick" pointer-events="none"><line transform="translate(43,0)" x2="0" y2="0" stroke="#122b39" stroke-width="1" opacity="1"/><line transform="translate(112,0)" x2="0" y2="0" stroke="#122b39" stroke-width="1" opacity="1"/><line transform="translate(181,0)" x2="0" y2="0" stroke="#122b39" stroke-width="1" opacity="1"/><line transform="translate(250,0)" x2="0" y2="0" stroke="#122b39" stroke-width="1" opacity="1"/><line transform="translate(320,0)" x2="0" y2="0" stroke="#122b39" stroke-width="1" opacity="1"/><line transform="translate(389,0)" x2="0" y2="0" stroke="#122b39" stroke-width="1" opacity="1"/><line transform="translate(458,0)" x2="0" y2="0" stroke="#122b39" stroke-width="1" opacity="1"/></g><g class="mark-text role-axis-label" pointer-events="none"><text text-anchor="middle" transform="translate(42.9278919914084,14)" font-family="Circular Std" font-size="11px" fill="#122b39" opacity="1">1995</text><text text-anchor="middle" transform="translate(112.08425020821463,14)" font-family="Circular Std" font-size="11px" fill="#122b39" opacity="1">2000</text><text text-anchor="middle" transform="translate(181.27848156752728,14)" font-family="Circular Std" font-size="11px" fill="#122b39" opacity="1">2005</text><text text-anchor="middle" transform="translate(250.43483978433346,14)" font-family="Circular Std" font-size="11px" fill="#122b39" opacity="1">2010</text><text text-anchor="middle" transform="translate(319.5911980011397,14)" font-family="Circular Std" font-size="11px" fill="#122b39" opacity="1">2015</text><text text-anchor="middle" transform="translate(388.7475562179459,14)" font-family="Circular Std" font-size="11px" fill="#122b39" opacity="1">2020</text><text text-anchor="middle" transform="translate(457.9417875772586,14)" font-family="Circular Std" font-size="11px" fill="#122b39" opacity="1">2025</text></g><g class="mark-rule role-axis-domain" pointer-events="none"><line transform="translate(0,0)" x2="480" y2="0" stroke="#122b39" stroke-opacity="0.5" stroke-width="1" opacity="1"/></g></g><path class="foreground" aria-hidden="true" d="" pointer-events="none" display="none"/></g></g><g class="mark-group role-axis" role="graphics-symbol" aria-roledescription="axis" aria-label="Y-axis for a linear scale with values from 0 to 22"><g transform="translate(0.5,0.5)"><path class="background" aria-hidden="true" d="M0,0h0v0h0Z" pointer-events="none"/><g><g class="mark-rule role-axis-tick" pointer-events="none"><line transform="translate(0,300)" x2="0" y2="0" stroke="#122b39" stroke-width="1" opacity="1"/><line transform="translate(0,232)" x2="0" y2="0" stroke="#122b39" stroke-width="1" opacity="1"/><line transform="translate(0,164)" x2="0" y2="0" stroke="#122b39" stroke-width="1" opacity="1"/><line transform="translate(0,95)" x2="0" y2="0" stroke="#122b39" stroke-width="1" opacity="1"/><line transform="translate(0,27)" x2="0" y2="0" stroke="#122b39" stroke-width="1" opacity="1"/></g><g class="mark-text role-axis-label" pointer-events="none"><text text-anchor="end" transform="translate(-5,303)" font-family="Circular Std" font-size="11px" fill="#122b39" opacity="1">0%</text><text text-anchor="end" transform="translate(-5,234.8181818181818)" font-family="Circular Std" font-size="11px" fill="#122b39" opacity="1">5%</text><text text-anchor="end" transform="translate(-5,166.63636363636363)" font-family="Circular Std" font-size="11px" fill="#122b39" opacity="1">10%</text><text text-anchor="end" transform="translate(-5,98.45454545454547)" font-family="Circular Std" font-size="11px" fill="#122b39" opacity="1">15%</text><text text-anchor="end" transform="translate(-5,30.27272727272728)" font-family="Circular Std" font-size="11px" fill="#122b39" opacity="1">20%</text></g><g class="mark-rule role-axis-domain" pointer-events="none"><line transform="translate(0,300)" x2="0" y2="-300" stroke="#122b39" stroke-opacity="0.5" stroke-width="1" opacity="1"/></g></g><path class="foreground" aria-hidden="true" d="" pointer-events="none" display="none"/></g></g><g class="mark-line role-mark concat_0_layer_0_marks" role="graphics-object" aria-roledescription="line mark container"><path aria-label="date: 1992; rate: 16.9331515957" role="graphics-symbol" aria-roledescription="line mark" d="M6,69.093L7.174,65.492L8.31,61.938L9.484,62.279L10.658,63.785L11.795,58.945L12.97,53.652L14.106,52.562L15.28,50.536L16.455,46.838L17.515,42.927L18.688,42.435L19.824,44.742L20.998,45.523L22.134,45.794L23.308,46.91L24.482,50.972L25.618,49.663L26.794,48.584L27.93,46.407L29.104,45.825L30.278,55.582L31.339,59.041L32.511,62.767L33.647,59.482L34.821,61.888L35.958,61.48L37.132,61.559L38.306,64.414L39.442,65.99L40.618,74.898L41.754,76.671L42.928,76.864L44.102,76.987L45.162,78.316L46.335,78.657L47.471,78.889L48.645,80.435L49.781,79.874L50.955,81.544L52.129,80.798L53.266,81.843L54.441,83.62L55.578,89.018L56.752,86.25L57.926,84.102L59.024,83.045L60.196,80.548L61.333,82.519L62.507,85.891L63.643,86.345L64.817,88.757L65.991,86.47L67.127,84.206L68.303,87.697L69.439,90.419L70.613,92.867L71.787,96.132L72.848,101.158L74.02,105.037L75.156,108.495L76.33,110.332L77.467,101.825L78.641,103.993L79.815,111.628L80.951,117.142L82.127,122.79L83.263,121.755L84.437,122.238L85.611,119.005L86.671,120.032L87.844,121.506L88.98,123.175L90.154,121.982L91.29,122.142L92.464,121.894L93.638,123.882L94.775,122.809L95.95,115.815L97.086,114.167L98.261,114.358L99.435,120.481L100.495,125.784L101.668,127.951L102.804,126.38L103.978,127.099L105.114,128.102L106.288,129.561L107.462,134.401L108.598,134.398L109.774,138.489L110.91,137.414L112.084,136.841L113.258,137.351L114.357,135.477L115.529,134.371L116.665,131.54L117.839,135.808L118.976,140.783L120.15,141.507L121.324,138.832L122.46,136.888L123.636,137.664L124.772,140.344L125.946,142.594L127.12,136.276L128.18,138.414L129.353,140.068L130.489,143.964L131.663,144.111L132.799,146.195L133.973,144.894L135.147,143.971L136.284,140.395L137.459,135.56L138.595,131.387L139.77,134.557L140.944,134.155L142.004,131.742L143.177,134.175L144.313,137.385L145.487,138.364L146.623,135.384L147.797,135.88L148.971,139.242L150.107,142.477L151.283,139.417L152.419,139.37L153.593,141.822L154.767,132.795L155.828,126.195L157,127.935L158.136,131.609L159.31,135.421L160.447,134.756L161.621,134.469L162.795,138.69L163.931,141.402L165.107,145.555L166.243,144.919L167.417,144.95L168.591,146.346L169.689,146.296L170.862,146.302L171.998,148.352L173.172,143.853L174.308,141.858L175.482,137.256L176.656,133.312L177.793,132.948L178.968,134.336L180.104,132.847L181.278,135.949L182.453,133.189L183.513,138.143L184.685,137.296L185.822,133.48L186.996,130.928L188.132,132.384L189.306,129.958L190.48,127.504L191.616,118.132L192.792,120.286L193.928,115.232L195.102,119.696L196.276,120.886L197.337,124.35L198.509,121.64L199.645,116.281L200.819,110.231L201.956,108.036L203.13,112.828L204.304,108.728L205.44,112.376L206.616,120.698L207.752,119.698L208.926,117.115L210.1,112.012L211.16,110.901L212.333,108.309L213.469,108.661L214.643,109.529L215.779,114.346L216.953,117.352L218.127,120.958L219.264,121.607L220.439,120.394L221.576,123.294L222.75,120.732L223.924,123.672L225.022,121.848L226.194,117.131L227.331,118.62L228.505,113.204L229.641,109.158L230.815,105.273L231.989,101.505L233.125,94.632L234.301,88.983L235.437,83.179L236.611,81.031L237.785,76.043L238.846,59.763L240.018,53.178L241.154,43.669L242.328,47.73L243.465,42.696L244.639,44.202L245.813,42.857L246.949,40.064L248.125,46.272L249.261,48.802L250.435,44.755L251.609,37.915L252.669,38.659L253.842,43.939L254.978,51.907L256.152,52.158L257.288,53.799L258.462,47.735L259.636,50.556L260.773,39.144L261.948,36.099L263.084,35.005L264.259,35.069L265.433,43.815L266.493,46.876L267.666,53.76L268.802,47.82L269.976,39.169L271.112,25.7L272.286,18.967L273.46,15.589L274.596,12.391L275.772,14.043L276.908,16.617L278.082,15.991L279.256,21.028L280.355,22.906L281.527,21.574L282.663,19.368L283.837,24.663L284.974,24.679L286.148,40.045L287.322,43.429L288.458,52.875L289.634,50.65L290.77,47.747L291.944,39.052L293.118,38.693L294.178,37.997L295.351,41.53L296.487,34.688L297.661,29.876L298.797,32.162L299.971,37.193L301.145,39.612L302.282,47.108L303.457,52.089L304.593,52.759L305.768,56.235L306.942,67.765L308.002,73.856L309.175,82.477L310.311,90.06L311.485,103.659L312.621,106.307L313.795,114.163L314.969,103.604L316.105,100.02L317.281,92.412L318.417,102.264L319.591,104.782L320.765,109.021L321.826,112.304L322.998,113.45L324.134,116.831L325.308,115.571L326.445,112.974L327.619,121.347L328.793,128.757L329.929,133.995L331.105,133.373L332.241,136.287L333.415,133.762L334.589,133.204L335.687,134.378L336.86,137.229L337.996,140.178L339.17,136.221L340.306,135.789L341.48,133.738L342.654,138.944L343.791,139.112L344.966,147.56L346.102,152.636L347.276,152.236L348.451,151.829L349.511,153.819L350.683,155.282L351.82,154.859L352.994,155.375L354.13,157.16L355.304,156.18L356.478,157.725L357.614,160.877L358.79,154.588L359.926,151.435L361.1,153.611L362.274,155.858L363.335,157.248L364.507,157.391L365.643,152.448L366.817,163.83L367.954,166.56L369.128,172.508L370.302,170.125L371.438,164.821L372.614,161.395L373.75,157.646L374.924,157.755L376.098,159.326L377.158,163.059L378.331,159.285L379.467,151.959L380.641,151.217L381.777,149.65L382.951,144.731L384.125,146.778L385.262,152.52L386.437,155.547L387.573,161.912L388.748,155.378L389.922,152.525L391.02,147.003L392.192,146.122L393.329,147.507L394.503,145.187L395.639,133.622L396.813,123.003L397.987,115.269L399.123,115.807L400.299,119.321L401.435,122.45L402.609,123.205L403.783,129.001L404.844,135.564L406.016,140.199L407.152,141.979L408.326,155.036L409.463,154.554L410.637,156.547L411.811,157.206L412.947,158.806L414.123,166.267L415.259,164.072L416.433,159.4L417.607,165.714L418.667,173.714L419.84,175.134L420.976,177.357L422.15,181.829L423.286,196.651L424.46,195.776L425.634,180.941L426.771,164.285L427.946,158.048L429.082,149.409L430.257,162.389L431.431,150.848L432.491,152.186L433.664,158.134L434.8,157.138L435.974,143.602L437.11,130.184L438.284,136.36L439.458,150.686L440.594,156.256L441.77,150.461L442.906,155.268L444.08,149.36L445.254,144.905L446.353,140.133L447.525,133.989L448.661,131.034L449.835,138.151L450.972,122.644L452.146,129.56L453.32,116.469L454.456,130.416L455.632,126.645L456.768,120.978L457.942,122.772L459.116,119.034L460.176,128.256L461.349,126.476L462.485,128.84L463.659,128.825L464.795,139.312L465.969,131.784L467.143,126.343L468.28,115.535L469.455,114.132L470.591,107.366L471.765,102.734L472.94,105.452L474,101.151" stroke="#179fdb" stroke-width="2.5"/></g><g class="mark-symbol role-mark concat_0_layer_1_marks" role="graphics-object" aria-roledescription="symbol mark container"><path aria-label="date: Mar 01, 2026; rate: 14.5822921315" role="graphics-symbol" aria-roledescription="circle" transform="translate(474,101.15056184344301)" d="M4.183,0A4.183,4.183,0,1,1,-4.183,0A4.183,4.183,0,1,1,4.183,0" fill="#179fdb" stroke-width="2" opacity="0.7"/></g><g class="mark-text role-mark concat_0_layer_2_marks" role="graphics-object" aria-roledescription="text mark container"><text aria-label="date: Mar 01, 2026; rate: 14.5822921315" role="graphics-symbol" aria-roledescription="text mark" text-anchor="end" transform="translate(466,91.15056184344301)" font-family="Circular Std" font-size="13px" font-weight="bold" fill="#179fdb"><tspan>14.6%</tspan><tspan x="0" dy="13">Jan–Mar 2026</tspan></text></g><g class="mark-group role-title"><g transform="translate(-26.702999114990234,-44)"><path class="background" aria-hidden="true" d="M0,0h0v0h0Z" pointer-events="none"/><g><g class="mark-text role-title-text" role="graphics-symbol" aria-roledescription="title" aria-label="Title text 'Youth unemployment is back at its highest since 2014'" pointer-events="none"><text text-anchor="start" transform="translate(0,13)" font-family="Circular Std" font-size="16px" font-weight="bold" fill="#000" opacity="1">Youth unemployment is back at its highest since 2014</text></g><g class="mark-text role-title-subtitle" role="graphics-symbol" aria-roledescription="subtitle" aria-label="Subtitle text 'Unemployment rate, 16- to 24-year-olds not in full-time education, UK, seasonally adjusted (%)'" pointer-events="none"><text text-anchor="start" transform="translate(0,28)" font-family="Circular Std" font-size="12px" fill="rgba(93, 115, 102, 1)" opacity="1">Unemployment rate, 16- to 24-year-olds not in full-time education, UK, seasonally adjusted (%)</text></g></g><path class="foreground" aria-hidden="true" d="" pointer-events="none" display="none"/></g></g></g><path class="foreground" aria-hidden="true" d="" display="none"/></g></g><g class="mark-group role-scope concat_1_group" role="graphics-object" aria-roledescription="group mark container"><g transform="translate(0,326)"><path class="background" aria-hidden="true" d="M0,0h480v12h-480Z" stroke-width="0"/><g><g class="mark-text role-mark concat_1_marks" role="graphics-object" aria-roledescription="text mark container"><text text-anchor="start" transform="translate(0,3)" font-family="Circular Std" font-size="10px" fill="rgba(93, 115, 102, 1)">Source: ONS, Labour Force Survey, May 2026.</text></g></g><path class="foreground" aria-hidden="true" d="" display="none"/></g></g></g><path class="foreground" aria-hidden="true" d="" display="none"/></g></g></g></svg>