<svg xmlns="http://www.w3.org/2000/svg" xmlns:xlink="http://www.w3.org/1999/xlink" version="1.1" class="marks" width="1156" height="890" viewBox="0 0 578 445"><rect width="578" height="445" fill="#122B39"/><g fill="none" stroke-miterlimit="10" transform="translate(23,73)"><g class="mark-group role-frame root" role="graphics-object" aria-roledescription="group mark container"><g transform="translate(0,0)"><path class="background" aria-hidden="true" d="M0.5,0.5h500v350h-500Z"/><g><g class="mark-group role-axis" aria-hidden="true"><g transform="translate(0.5,0.5)"><path class="background" aria-hidden="true" d="M0,0h0v0h0Z" pointer-events="none"/><g><g class="mark-rule role-axis-grid" pointer-events="none"><line transform="translate(0,350)" x2="500" y2="0" stroke="#b4c8d8" stroke-opacity="0.6" stroke-width="1" stroke-dasharray="1,5" opacity="1"/><line transform="translate(0,292)" x2="500" y2="0" stroke="#b4c8d8" stroke-opacity="0.6" stroke-width="1" stroke-dasharray="1,5" opacity="1"/><line transform="translate(0,233)" x2="500" y2="0" stroke="#b4c8d8" stroke-opacity="0.6" stroke-width="1" stroke-dasharray="1,5" opacity="1"/><line transform="translate(0,175)" x2="500" y2="0" stroke="#b4c8d8" stroke-opacity="0.6" stroke-width="1" stroke-dasharray="1,5" opacity="1"/><line transform="translate(0,117)" x2="500" y2="0" stroke="#b4c8d8" stroke-opacity="0.6" stroke-width="1" stroke-dasharray="1,5" opacity="1"/><line transform="translate(0,58)" x2="500" y2="0" stroke="#b4c8d8" stroke-opacity="0.6" stroke-width="1" stroke-dasharray="1,5" opacity="1"/><line transform="translate(0,0)" x2="500" y2="0" stroke="#b4c8d8" stroke-opacity="0.6" stroke-width="1" stroke-dasharray="1,5" opacity="1"/></g></g><path class="foreground" aria-hidden="true" d="" pointer-events="none" display="none"/></g></g><g class="mark-group role-axis" role="graphics-symbol" aria-roledescription="axis" aria-label="X-axis for a time scale with values from Thursday, 01 January 1970, 1:00:00 AM to Sunday, 01 January 2012, 12:00:00 AM"><g transform="translate(0.5,350.5)"><path class="background" aria-hidden="true" d="M0,0h0v0h0Z" pointer-events="none"/><g><g class="mark-text role-axis-label" pointer-events="none"><text text-anchor="middle" transform="translate(59.517601043024776,15)" font-family="sans-serif" font-size="11px" fill="#b4c8d8" fill-opacity="0.7" opacity="1">1975</text><text text-anchor="middle" transform="translate(119.03520208604955,15)" font-family="sans-serif" font-size="11px" fill="#b4c8d8" fill-opacity="0.7" opacity="1">1980</text><text text-anchor="middle" transform="translate(178.58539765319426,15)" font-family="sans-serif" font-size="11px" fill="#b4c8d8" fill-opacity="0.7" opacity="1">1985</text><text text-anchor="middle" transform="translate(238.10299869621903,15)" font-family="sans-serif" font-size="11px" fill="#b4c8d8" fill-opacity="0.7" opacity="1">1990</text><text text-anchor="middle" transform="translate(297.6205997392438,15)" font-family="sans-serif" font-size="11px" fill="#b4c8d8" fill-opacity="0.7" opacity="1">1995</text><text text-anchor="middle" transform="translate(357.1382007822686,15)" font-family="sans-serif" font-size="11px" fill="#b4c8d8" fill-opacity="0.7" opacity="1">2000</text><text text-anchor="middle" transform="translate(416.68839634941327,15)" font-family="sans-serif" font-size="11px" fill="#b4c8d8" fill-opacity="0.7" opacity="1">2005</text><text text-anchor="middle" transform="translate(476.20599739243806,15)" font-family="sans-serif" font-size="11px" fill="#b4c8d8" fill-opacity="0.7" opacity="1">2010</text></g><g class="mark-rule role-axis-domain" pointer-events="none"><line transform="translate(0,0)" x2="500" y2="0" stroke="#b4c8d8" stroke-opacity="0.5" stroke-width="1" opacity="1"/></g></g><path class="foreground" aria-hidden="true" d="" pointer-events="none" display="none"/></g></g><g class="mark-group role-axis" role="graphics-symbol" aria-roledescription="axis" aria-label="Y-axis for a linear scale with values from 20 to 80"><g transform="translate(0.5,0.5)"><path class="background" aria-hidden="true" d="M0,0h0v0h0Z" pointer-events="none"/><g><g class="mark-text role-axis-label" pointer-events="none"><text text-anchor="end" transform="translate(-5,353)" font-family="sans-serif" font-size="11px" fill="#b4c8d8" fill-opacity="0.7" opacity="1">20</text><text text-anchor="end" transform="translate(-5,294.6666666666667)" font-family="sans-serif" font-size="11px" fill="#b4c8d8" fill-opacity="0.7" opacity="1">30</text><text text-anchor="end" transform="translate(-5,236.33333333333337)" font-family="sans-serif" font-size="11px" fill="#b4c8d8" fill-opacity="0.7" opacity="1">40</text><text text-anchor="end" transform="translate(-5,178)" font-family="sans-serif" font-size="11px" fill="#b4c8d8" fill-opacity="0.7" opacity="1">50</text><text text-anchor="end" transform="translate(-5,119.66666666666669)" font-family="sans-serif" font-size="11px" fill="#b4c8d8" fill-opacity="0.7" opacity="1">60</text><text text-anchor="end" transform="translate(-5,61.33333333333332)" font-family="sans-serif" font-size="11px" fill="#b4c8d8" fill-opacity="0.7" opacity="1">70</text><text text-anchor="end" transform="translate(-5,3)" font-family="sans-serif" font-size="11px" fill="#b4c8d8" fill-opacity="0.7" opacity="1">80</text></g><g class="mark-rule role-axis-domain" pointer-events="none"><line transform="translate(0,350)" x2="0" y2="-350" stroke="#b4c8d8" stroke-opacity="0.5" stroke-width="1" opacity="1"/></g></g><path class="foreground" aria-hidden="true" d="" pointer-events="none" display="none"/></g></g><g class="mark-group role-scope layer_0_layer_0_pathgroup" role="graphics-object" aria-roledescription="group mark container"><g transform="translate(0,0)"><path class="background" aria-hidden="true" d="M0,0h500v350h-500Z"/><g><g class="mark-line role-mark layer_0_layer_0_marks" role="graphics-object" aria-roledescription="line mark container" pointer-events="none"><path aria-label="Date: Jan 01, 1970; Value: 36.2623809524; Series: Africa" role="graphics-symbol" aria-roledescription="line mark" d="M0,255.136L11.897,255.136L23.794,236.157L35.724,243.672L47.621,243.672L59.518,244.747L71.415,249.429L83.344,249.429L95.241,249.429L107.138,246.328L119.035,246.328L130.965,246.237L142.862,246.237L154.759,249.229L166.656,247.738L178.585,246.763L190.482,246.763L202.379,246.763L214.276,244.439L226.206,243.639L238.103,244.297L250,241.555L261.897,236.564L273.827,232.454L285.724,223.024L297.621,223.024L309.518,215.709L321.447,204.107L333.344,204.107L345.241,201.73L357.138,195.606L369.068,195.606L380.965,192.145L392.862,189.32L404.759,186.288L416.688,178.231L428.585,176.375L440.482,174.454L452.379,171.851L464.309,164.943L476.206,133.264L488.103,132.831L500,129.937" stroke="#36B7B4" stroke-width="2"/></g></g><path class="foreground" aria-hidden="true" d="" display="none"/></g><g transform="translate(0,0)"><path class="background" aria-hidden="true" d="M0,0h500v350h-500Z"/><g><g class="mark-line role-mark layer_0_layer_0_marks" role="graphics-object" aria-roledescription="line mark container" pointer-events="none"><path aria-label="Date: Jan 01, 1970; Value: 37.0895; Series: Americas" role="graphics-symbol" aria-roledescription="line mark" d="M0,250.311L11.897,250.311L23.794,249.892L35.724,250.969L47.621,250.969L59.518,255.495L71.415,255.495L83.344,255.495L95.241,255.495L107.138,253.974L119.035,253.974L130.965,253.974L142.862,250.628L154.759,233.625L166.656,232.531L178.585,232.531L190.482,232.531L202.379,232.531L214.276,232.531L226.206,217.633L238.103,217.633L250,211.398L261.897,174.815L273.827,170.044L285.724,170.044L297.621,149.441L309.518,143.666L321.447,151.978L333.344,147.7L345.241,147.244L357.138,147.381L369.068,146.984L380.965,140.122L392.862,140.346L404.759,142.131L416.688,141.369L428.585,141.369L440.482,141.369L452.379,153.546L464.309,152.536L476.206,150.509L488.103,150.509L500,152.15" stroke="#E6224B" stroke-width="2"/></g></g><path class="foreground" aria-hidden="true" d="" display="none"/></g><g transform="translate(0,0)"><path class="background" aria-hidden="true" d="M0,0h500v350h-500Z"/><g><g class="mark-line role-mark layer_0_layer_0_marks" role="graphics-object" aria-roledescription="line mark container" pointer-events="none"><path aria-label="Date: Jan 01, 1970; Value: 31.3082352941; Series: Asia" role="graphics-symbol" aria-roledescription="line mark" d="M0,284.035L11.897,277.326L23.794,278.093L35.724,279.347L47.621,269.049L59.518,269.049L71.415,269.049L83.344,268.386L95.241,268.386L107.138,268.386L119.035,265.381L130.965,263.453L142.862,263.674L154.759,263.674L166.656,263.58L178.585,263.503L190.482,263.503L202.379,263.503L214.276,263.503L226.206,263.503L238.103,264.087L250,265.555L261.897,268.02L273.827,255.069L285.724,251.593L297.621,233.929L309.518,211.675L321.447,203.198L333.344,203.198L345.241,187.458L357.138,186.78L369.068,183.08L380.965,174.111L392.862,167.471L404.759,166.746L416.688,166.746L428.585,162.859L440.482,162.677L452.379,154.973L464.309,152.981L476.206,145.093L488.103,140.413L500,140.413" stroke="#F4C245" stroke-width="2"/></g></g><path class="foreground" aria-hidden="true" d="" display="none"/></g><g transform="translate(0,0)"><path class="background" aria-hidden="true" d="M0,0h500v350h-500Z"/><g><g class="mark-line role-mark layer_0_layer_0_marks" role="graphics-object" aria-roledescription="line mark container" pointer-events="none"><path aria-label="Date: Jan 01, 1970; Value: 36.839047619; Series: Europe" role="graphics-symbol" aria-roledescription="line mark" d="M0,251.772L11.897,251.772L23.794,260.439L35.724,263.233L47.621,264.761L59.518,268.386L71.415,268.386L83.344,268.086L95.241,266.639L107.138,266.639L119.035,260.842L130.965,260.842L142.862,260.842L154.759,260.842L166.656,260.842L178.585,262.003L190.482,262.003L202.379,262.003L214.276,265.905L226.206,256.42L238.103,239.611L250,226.708L261.897,223.905L273.827,190.087L285.724,178.396L297.621,176.527L309.518,176.527L321.447,159.144L333.344,97.894L345.241,87.095L357.138,80.984L369.068,57.388L380.965,41.763L392.862,33.609L404.759,31.028L416.688,30.313L428.585,31.513L440.482,24.297L452.379,25.547L464.309,19.255L476.206,8.642L488.103,8.433L500,8.433" stroke="#0a91f9" stroke-width="2"/></g></g><path class="foreground" aria-hidden="true" d="" display="none"/></g><g transform="translate(0,0)"><path class="background" aria-hidden="true" d="M0,0h500v350h-500Z"/><g><g class="mark-line role-mark layer_0_layer_0_marks" role="graphics-object" aria-roledescription="line mark container" pointer-events="none"><path aria-label="Date: Jan 01, 1970; Value: 29.475; Series: Oceania" role="graphics-symbol" aria-roledescription="line mark" d="M0,294.729L11.897,294.729L23.794,294.729L35.724,272.514L47.621,272.514L59.518,272.514L71.415,250.965L83.344,250.965L95.241,250.965L107.138,250.965L119.035,270.443L130.965,270.443L142.862,270.443L154.759,262.233L166.656,263.645L178.585,263.645L190.482,263.645L202.379,263.645L214.276,274.031L226.206,267.141L238.103,267.141L250,267.141L261.897,267.141L273.827,267.141L285.724,267.141L297.621,267.141L309.518,267.141L321.447,267.141L333.344,273.369L345.241,273.369L357.138,262.04L369.068,262.04L380.965,265.929L392.862,265.929L404.759,265.929L416.688,265.929L428.585,265.929L440.482,256.518L452.379,228.731L464.309,228.731L476.206,228.731L488.103,230.352L500,211.607" stroke="#00A767" stroke-width="2"/></g></g><path class="foreground" aria-hidden="true" d="" display="none"/></g></g><g class="mark-symbol role-mark layer_0_layer_1_marks" role="graphics-symbol" aria-roledescription="symbol mark container" pointer-events="none"/><g class="mark-text role-mark layer_1_marks" role="graphics-object" aria-roledescription="text mark container" pointer-events="none"><text aria-label="Date: Jan 01, 2012; Value: 58; Series: Africa" role="graphics-symbol" aria-roledescription="text mark" text-anchor="start" transform="translate(504,132.9368794326241)" font-family="sans-serif" font-size="11px" fill="#36B7B4">Africa</text><text aria-label="Date: Jan 01, 2012; Value: 54; Series: Americas" role="graphics-symbol" aria-roledescription="text mark" text-anchor="start" transform="translate(504,155.14973958333337)" font-family="sans-serif" font-size="11px" fill="#E6224B">Americas</text><text aria-label="Date: Jan 01, 2012; Value: 56; Series: Asia" role="graphics-symbol" aria-roledescription="text mark" text-anchor="start" transform="translate(504,143.4126016260162)" font-family="sans-serif" font-size="11px" fill="#F4C245">Asia</text><text aria-label="Date: Jan 01, 2012; Value: 79; Series: Europe" role="graphics-symbol" aria-roledescription="text mark" text-anchor="start" transform="translate(504,11.433333333333358)" font-family="sans-serif" font-size="11px" fill="#0a91f9">Europe</text><text aria-label="Date: Jan 01, 2012; Value: 44; Series: Oceania" role="graphics-symbol" aria-roledescription="text mark" text-anchor="start" transform="translate(504,214.6074074074074)" font-family="sans-serif" font-size="11px" fill="#00A767">Oceania</text></g><g class="mark-rule role-mark layer_2_marks" role="graphics-object" aria-roledescription="rule mark container"><line aria-label="Date: Jan 01, 1970; Year: 1970; Europe: 37; Africa: 36; Asia: 31; Americas: 37; Oceania: 29" role="graphics-symbol" aria-roledescription="rule mark" transform="translate(0,0)" x2="0" y2="350" stroke="black" opacity="0"/><line aria-label="Date: Jan 01, 1971; Year: 1971; Europe: 37; Africa: 36; Asia: 32; Americas: 37; Oceania: 29" role="graphics-symbol" aria-roledescription="rule mark" transform="translate(11.897001303780964,0)" x2="0" y2="350" stroke="black" opacity="0"/><line aria-label="Date: Jan 01, 1972; Year: 1972; Europe: 35; Africa: 40; Asia: 32; Americas: 37; Oceania: 29" role="graphics-symbol" aria-roledescription="rule mark" transform="translate(23.79400260756193,0)" x2="0" y2="350" stroke="black" opacity="0"/><line aria-label="Date: Jan 01, 1973; Year: 1973; Europe: 35; Africa: 38; Asia: 32; Americas: 37; Oceania: 33" role="graphics-symbol" aria-roledescription="rule mark" transform="translate(35.72359843546284,0)" x2="0" y2="350" stroke="black" opacity="0"/><line aria-label="Date: Jan 01, 1974; Year: 1974; Europe: 35; Africa: 38; Asia: 34; Americas: 37; Oceania: 33" role="graphics-symbol" aria-roledescription="rule mark" transform="translate(47.62059973924381,0)" x2="0" y2="350" stroke="black" opacity="0"/><line aria-label="Date: Jan 01, 1975; Year: 1975; Europe: 34; Africa: 38; Asia: 34; Americas: 36; Oceania: 33" role="graphics-symbol" aria-roledescription="rule mark" transform="translate(59.517601043024776,0)" x2="0" y2="350" stroke="black" opacity="0"/><line aria-label="Date: Jan 01, 1976; Year: 1976; Europe: 34; Africa: 37; Asia: 34; Americas: 36; Oceania: 37" role="graphics-symbol" aria-roledescription="rule mark" transform="translate(71.41460234680574,0)" x2="0" y2="350" stroke="black" opacity="0"/><line aria-label="Date: Jan 01, 1977; Year: 1977; Europe: 34; Africa: 37; Asia: 34; Americas: 36; Oceania: 37" role="graphics-symbol" aria-roledescription="rule mark" transform="translate(83.34419817470665,0)" x2="0" y2="350" stroke="black" opacity="0"/><line aria-label="Date: Jan 01, 1978; Year: 1978; Europe: 34; Africa: 37; Asia: 34; Americas: 36; Oceania: 37" role="graphics-symbol" aria-roledescription="rule mark" transform="translate(95.24119947848762,0)" x2="0" y2="350" stroke="black" opacity="0"/><line aria-label="Date: Jan 01, 1979; Year: 1979; Europe: 34; Africa: 38; Asia: 34; Americas: 36; Oceania: 37" role="graphics-symbol" aria-roledescription="rule mark" transform="translate(107.13820078226857,0)" x2="0" y2="350" stroke="black" opacity="0"/><line aria-label="Date: Jan 01, 1980; Year: 1980; Europe: 35; Africa: 38; Asia: 35; Americas: 36; Oceania: 34" role="graphics-symbol" aria-roledescription="rule mark" transform="translate(119.03520208604955,0)" x2="0" y2="350" stroke="black" opacity="0"/><line aria-label="Date: Jan 01, 1981; Year: 1981; Europe: 35; Africa: 38; Asia: 35; Americas: 36; Oceania: 34" role="graphics-symbol" aria-roledescription="rule mark" transform="translate(130.96479791395046,0)" x2="0" y2="350" stroke="black" opacity="0"/><line aria-label="Date: Jan 01, 1982; Year: 1982; Europe: 35; Africa: 38; Asia: 35; Americas: 37; Oceania: 34" role="graphics-symbol" aria-roledescription="rule mark" transform="translate(142.86179921773143,0)" x2="0" y2="350" stroke="black" opacity="0"/><line aria-label="Date: Jan 01, 1983; Year: 1983; Europe: 35; Africa: 37; Asia: 35; Americas: 40; Oceania: 35" role="graphics-symbol" aria-roledescription="rule mark" transform="translate(154.7588005215124,0)" x2="0" y2="350" stroke="black" opacity="0"/><line aria-label="Date: Jan 01, 1984; Year: 1984; Europe: 35; Africa: 38; Asia: 35; Americas: 40; Oceania: 35" role="graphics-symbol" aria-roledescription="rule mark" transform="translate(166.65580182529337,0)" x2="0" y2="350" stroke="black" opacity="0"/><line aria-label="Date: Jan 01, 1985; Year: 1985; Europe: 35; Africa: 38; Asia: 35; Americas: 40; Oceania: 35" role="graphics-symbol" aria-roledescription="rule mark" transform="translate(178.58539765319426,0)" x2="0" y2="350" stroke="black" opacity="0"/><line aria-label="Date: Jan 01, 1986; Year: 1986; Europe: 35; Africa: 38; Asia: 35; Americas: 40; Oceania: 35" role="graphics-symbol" aria-roledescription="rule mark" transform="translate(190.48239895697523,0)" x2="0" y2="350" stroke="black" opacity="0"/><line aria-label="Date: Jan 01, 1987; Year: 1987; Europe: 35; Africa: 38; Asia: 35; Americas: 40; Oceania: 35" role="graphics-symbol" aria-roledescription="rule mark" transform="translate(202.37940026075617,0)" x2="0" y2="350" stroke="black" opacity="0"/><line aria-label="Date: Jan 01, 1988; Year: 1988; Europe: 34; Africa: 38; Asia: 35; Americas: 40; Oceania: 33" role="graphics-symbol" aria-roledescription="rule mark" transform="translate(214.27640156453714,0)" x2="0" y2="350" stroke="black" opacity="0"/><line aria-label="Date: Jan 01, 1989; Year: 1989; Europe: 36; Africa: 38; Asia: 35; Americas: 43; Oceania: 34" role="graphics-symbol" aria-roledescription="rule mark" transform="translate(226.20599739243806,0)" x2="0" y2="350" stroke="black" opacity="0"/><line aria-label="Date: Jan 01, 1990; Year: 1990; Europe: 39; Africa: 38; Asia: 35; Americas: 43; Oceania: 34" role="graphics-symbol" aria-roledescription="rule mark" transform="translate(238.10299869621903,0)" x2="0" y2="350" stroke="black" opacity="0"/><line aria-label="Date: Jan 01, 1991; Year: 1991; Europe: 41; Africa: 39; Asia: 34; Americas: 44; Oceania: 34" role="graphics-symbol" aria-roledescription="rule mark" transform="translate(250,0)" x2="0" y2="350" stroke="black" opacity="0"/><line aria-label="Date: Jan 01, 1992; Year: 1992; Europe: 42; Africa: 39; Asia: 34; Americas: 50; Oceania: 34" role="graphics-symbol" aria-roledescription="rule mark" transform="translate(261.89700130378094,0)" x2="0" y2="350" stroke="black" opacity="0"/><line aria-label="Date: Jan 01, 1993; Year: 1993; Europe: 47; Africa: 40; Asia: 36; Americas: 51; Oceania: 34" role="graphics-symbol" aria-roledescription="rule mark" transform="translate(273.82659713168186,0)" x2="0" y2="350" stroke="black" opacity="0"/><line aria-label="Date: Jan 01, 1994; Year: 1994; Europe: 49; Africa: 42; Asia: 37; Americas: 51; Oceania: 34" role="graphics-symbol" aria-roledescription="rule mark" transform="translate(285.72359843546286,0)" x2="0" y2="350" stroke="black" opacity="0"/><line aria-label="Date: Jan 01, 1995; Year: 1995; Europe: 50; Africa: 42; Asia: 40; Americas: 54; Oceania: 34" role="graphics-symbol" aria-roledescription="rule mark" transform="translate(297.6205997392438,0)" x2="0" y2="350" stroke="black" opacity="0"/><line aria-label="Date: Jan 01, 1996; Year: 1996; Europe: 50; Africa: 43; Asia: 44; Americas: 55; Oceania: 34" role="graphics-symbol" aria-roledescription="rule mark" transform="translate(309.5176010430248,0)" x2="0" y2="350" stroke="black" opacity="0"/><line aria-label="Date: Jan 01, 1997; Year: 1997; Europe: 53; Africa: 45; Asia: 45; Americas: 54; Oceania: 34" role="graphics-symbol" aria-roledescription="rule mark" transform="translate(321.4471968709257,0)" x2="0" y2="350" stroke="black" opacity="0"/><line aria-label="Date: Jan 01, 1998; Year: 1998; Europe: 63; Africa: 45; Asia: 45; Americas: 55; Oceania: 33" role="graphics-symbol" aria-roledescription="rule mark" transform="translate(333.34419817470666,0)" x2="0" y2="350" stroke="black" opacity="0"/><line aria-label="Date: Jan 01, 1999; Year: 1999; Europe: 65; Africa: 45; Asia: 48; Americas: 55; Oceania: 33" role="graphics-symbol" aria-roledescription="rule mark" transform="translate(345.24119947848766,0)" x2="0" y2="350" stroke="black" opacity="0"/><line aria-label="Date: Jan 01, 2000; Year: 2000; Europe: 66; Africa: 46; Asia: 48; Americas: 55; Oceania: 35" role="graphics-symbol" aria-roledescription="rule mark" transform="translate(357.1382007822686,0)" x2="0" y2="350" stroke="black" opacity="0"/><line aria-label="Date: Jan 01, 2001; Year: 2001; Europe: 70; Africa: 46; Asia: 49; Americas: 55; Oceania: 35" role="graphics-symbol" aria-roledescription="rule mark" transform="translate(369.06779661016947,0)" x2="0" y2="350" stroke="black" opacity="0"/><line aria-label="Date: Jan 01, 2002; Year: 2002; Europe: 73; Africa: 47; Asia: 50; Americas: 56; Oceania: 34" role="graphics-symbol" aria-roledescription="rule mark" transform="translate(380.96479791395046,0)" x2="0" y2="350" stroke="black" opacity="0"/><line aria-label="Date: Jan 01, 2003; Year: 2003; Europe: 74; Africa: 48; Asia: 51; Americas: 56; Oceania: 34" role="graphics-symbol" aria-roledescription="rule mark" transform="translate(392.8617992177314,0)" x2="0" y2="350" stroke="black" opacity="0"/><line aria-label="Date: Jan 01, 2004; Year: 2004; Europe: 75; Africa: 48; Asia: 51; Americas: 56; Oceania: 34" role="graphics-symbol" aria-roledescription="rule mark" transform="translate(404.75880052151234,0)" x2="0" y2="350" stroke="black" opacity="0"/><line aria-label="Date: Jan 01, 2005; Year: 2005; Europe: 75; Africa: 49; Asia: 51; Americas: 56; Oceania: 34" role="graphics-symbol" aria-roledescription="rule mark" transform="translate(416.68839634941327,0)" x2="0" y2="350" stroke="black" opacity="0"/><line aria-label="Date: Jan 01, 2006; Year: 2006; Europe: 75; Africa: 50; Asia: 52; Americas: 56; Oceania: 34" role="graphics-symbol" aria-roledescription="rule mark" transform="translate(428.58539765319426,0)" x2="0" y2="350" stroke="black" opacity="0"/><line aria-label="Date: Jan 01, 2007; Year: 2007; Europe: 76; Africa: 50; Asia: 52; Americas: 56; Oceania: 36" role="graphics-symbol" aria-roledescription="rule mark" transform="translate(440.4823989569752,0)" x2="0" y2="350" stroke="black" opacity="0"/><line aria-label="Date: Jan 01, 2008; Year: 2008; Europe: 76; Africa: 51; Asia: 53; Americas: 54; Oceania: 41" role="graphics-symbol" aria-roledescription="rule mark" transform="translate(452.3794002607562,0)" x2="0" y2="350" stroke="black" opacity="0"/><line aria-label="Date: Jan 01, 2009; Year: 2009; Europe: 77; Africa: 52; Asia: 54; Americas: 54; Oceania: 41" role="graphics-symbol" aria-roledescription="rule mark" transform="translate(464.3089960886571,0)" x2="0" y2="350" stroke="black" opacity="0"/><line aria-label="Date: Jan 01, 2010; Year: 2010; Europe: 79; Africa: 57; Asia: 55; Americas: 54; Oceania: 41" role="graphics-symbol" aria-roledescription="rule mark" transform="translate(476.20599739243806,0)" x2="0" y2="350" stroke="black" opacity="0"/><line aria-label="Date: Jan 01, 2011; Year: 2011; Europe: 79; Africa: 57; Asia: 56; Americas: 54; Oceania: 41" role="graphics-symbol" aria-roledescription="rule mark" transform="translate(488.10299869621906,0)" x2="0" y2="350" stroke="black" opacity="0"/><line aria-label="Date: Jan 01, 2012; Year: 2012; Europe: 79; Africa: 58; Asia: 56; Americas: 54; Oceania: 44" role="graphics-symbol" aria-roledescription="rule mark" transform="translate(500,0)" x2="0" y2="350" stroke="black" opacity="0"/></g><g class="mark-path role-mark layer_2_voronoi" role="graphics-symbol" aria-roledescription="path mark container"><path transform="translate(0,0)" d="M5.948499100661285,0L5.94853084202704,350L0,350L0,0Z" stroke-width="0.35"/><path transform="translate(0,0)" d="M5.94853084202704,350L5.948499100661285,0L17.845497971453998,0L17.845579496804014,350Z" stroke-width="0.35"/><path transform="translate(0,0)" d="M17.845579496804014,350L17.845497971453998,0L29.758795790489838,0L29.758887289289603,350Z" stroke-width="0.35"/><path transform="translate(0,0)" d="M29.758887289289603,350L29.758795790489838,0L41.672095597980274,0L41.67216699778815,350Z" stroke-width="0.35"/><path transform="translate(0,0)" d="M53.56909962930236,0L53.569115217963464,350L41.67216699778815,350L41.672095597980274,0Z" stroke-width="0.35"/><path transform="translate(0,0)" d="M65.46610398941081,0L65.46605703927399,350L53.569115217963464,350L53.56909962930236,0Z" stroke-width="0.35"/><path transform="translate(0,0)" d="M77.37940461517397,0L77.37932039997561,350L65.46605703927399,350L65.46610398941081,0Z" stroke-width="0.35"/><path transform="translate(0,0)" d="M89.29270341077037,0L89.2926096090806,350L77.37932039997561,350L77.37940461517397,0Z" stroke-width="0.35"/><path transform="translate(0,0)" d="M101.18970302114482,0L101.18964387006356,350L89.2926096090806,350L89.29270341077037,0Z" stroke-width="0.35"/><path transform="translate(0,0)" d="M101.18964387006356,350L101.18970302114482,0L113.08670138393974,0L113.0867024115312,350Z" stroke-width="0.35"/><path transform="translate(0,0)" d="M113.0867024115312,350L113.08670138393974,0L124.9999970746036,0L125.00005365227972,350Z" stroke-width="0.35"/><path transform="translate(0,0)" d="M125.00005365227972,350L124.9999970746036,0L136.91329399481583,0L136.91338752746756,350Z" stroke-width="0.35"/><path transform="translate(0,0)" d="M136.91338752746756,350L136.91329399481583,0L148.81029554859074,0L148.8103839658483,350Z" stroke-width="0.35"/><path transform="translate(0,0)" d="M148.8103839658483,350L148.81029554859074,0L160.70729896720843,0L160.7073441105214,350Z" stroke-width="0.35"/><path transform="translate(0,0)" d="M172.62060052857893,0L172.62058526269993,350L160.7073441105214,350L160.70729896720843,0Z" stroke-width="0.35"/><path transform="translate(0,0)" d="M184.53390175819115,0L184.53383110047443,350L172.62058526269993,350L172.62060052857893,0Z" stroke-width="0.35"/><path transform="translate(0,0)" d="M196.430904315814,0L196.43080800189244,350L184.53383110047443,350L184.53390175819115,0Z" stroke-width="0.35"/><path transform="translate(0,0)" d="M208.32790484204193,0L208.32782443846685,350L196.43080800189244,350L196.430904315814,0Z" stroke-width="0.35"/><path transform="translate(0,0)" d="M208.32782443846685,350L208.32790484204193,0L220.24120101598731,0L220.24117128047476,350Z" stroke-width="0.35"/><path transform="translate(0,0)" d="M220.24117128047476,350L220.24120101598731,0L232.15449654371926,0L232.15452724929656,350Z" stroke-width="0.35"/><path transform="translate(0,0)" d="M244.05149539286472,0L244.05157632537367,350L232.15452724929656,350L232.15449654371926,0Z" stroke-width="0.35"/><path transform="translate(0,0)" d="M244.05157632537367,350L244.05149539286472,0L255.94849594899046,0L255.94859218007664,350Z" stroke-width="0.35"/><path transform="translate(0,0)" d="M255.94859218007664,350L255.94849594899046,0L267.8617957249957,0L267.8618632751117,350Z" stroke-width="0.35"/><path transform="translate(0,0)" d="M279.7750969690016,0L279.7751136368083,350L267.8618632751117,350L267.8617957249957,0Z" stroke-width="0.35"/><path transform="translate(0,0)" d="M291.6721013349509,0L291.67205534444315,350L279.7751136368083,350L279.7750969690016,0Z" stroke-width="0.35"/><path transform="translate(0,0)" d="M291.67205534444315,350L291.6721013349509,0L303.569104730897,0L303.569015930355,350Z" stroke-width="0.35"/><path transform="translate(0,0)" d="M303.569015930355,350L303.569104730897,0L315.4824035607904,0L315.482314522204,350Z" stroke-width="0.35"/><path transform="translate(0,0)" d="M315.482314522204,350L315.4824035607904,0L327.3957004556942,0L327.39564044292774,350Z" stroke-width="0.35"/><path transform="translate(0,0)" d="M327.39564044292774,350L327.3957004556942,0L339.29269882986625,0L339.29269876297275,350Z" stroke-width="0.35"/><path transform="translate(0,0)" d="M339.29269876297275,350L339.29269882986625,0L351.1896972026275,0L351.1897571104764,350Z" stroke-width="0.35"/><path transform="translate(0,0)" d="M363.10299409402,0L363.10308310135133,350L351.1897571104764,350L351.1896972026275,0Z" stroke-width="0.35"/><path transform="translate(0,0)" d="M375.0162929197228,0L375.01638177294456,350L363.10308310135133,350L363.10299409402,0Z" stroke-width="0.35"/><path transform="translate(0,0)" d="M386.91329631249516,0L386.9133424206225,350L375.01638177294456,350L375.0162929197228,0Z" stroke-width="0.35"/><path transform="translate(0,0)" d="M398.8103006777515,0L398.81028414174256,350L386.9133424206225,350L386.91329631249516,0Z" stroke-width="0.35"/><path transform="translate(0,0)" d="M398.81028414174256,350L398.8103006777515,0L410.72360192374083,0L410.7235344598361,350Z" stroke-width="0.35"/><path transform="translate(0,0)" d="M410.7235344598361,350L410.72360192374083,0L422.63690170360314,0L422.6368054848071,350Z" stroke-width="0.35"/><path transform="translate(0,0)" d="M422.6368054848071,350L422.63690170360314,0L434.53390226389826,0L434.5338212583647,350Z" stroke-width="0.35"/><path transform="translate(0,0)" d="M434.5338212583647,350L434.53390226389826,0L446.43090111567295,0L446.43087028327176,350Z" stroke-width="0.35"/><path transform="translate(0,0)" d="M446.43087028327176,350L446.43090111567295,0L458.34419664342875,0L458.3442262586102,350Z" stroke-width="0.35"/><path transform="translate(0,0)" d="M458.3442262586102,350L458.34419664342875,0L470.2574928147829,0L470.2575731440684,350Z" stroke-width="0.35"/><path transform="translate(0,0)" d="M470.2575731440684,350L470.2574928147829,0L482.1544933368535,0L482.15458966155546,350Z" stroke-width="0.35"/><path transform="translate(0,0)" d="M494.0514958905462,0L494.0515666394609,350L482.15458966155546,350L482.1544933368535,0Z" stroke-width="0.35"/><path transform="translate(0,0)" d="M494.0515666394609,350L494.0514958905462,0L500,0L500,350Z" stroke-width="0.35"/></g><g class="mark-group role-title"><g transform="translate(-17.2353515625,-68)"><path class="background" aria-hidden="true" d="M0,0h0v0h0Z" pointer-events="none"/><g><g class="mark-text role-title-text" role="graphics-symbol" aria-roledescription="title" aria-label="Title text 'Central Bank Independence'" pointer-events="none"><text text-anchor="start" transform="translate(0,13)" font-family="sans-serif" font-size="16px" font-weight="400" fill="whitesmoke" opacity="1">Central Bank Independence</text></g><g class="mark-text role-title-subtitle" role="graphics-symbol" aria-roledescription="subtitle" aria-label="Subtitle text 'Average CBI by continent, 100=fully independent Source: Garriga, 2016 '" pointer-events="none"><text text-anchor="start" transform="translate(0,28)" font-family="sans-serif" font-size="12px" fill="#b4c8d8" opacity="1"><tspan>Average CBI by continent, 100=fully independent</tspan><tspan x="0" dy="14">Source: Garriga, 2016</tspan><tspan x="0" dy="14"/></text></g></g><path class="foreground" aria-hidden="true" d="" pointer-events="none" display="none"/></g></g></g><path class="foreground" aria-hidden="true" d="" display="none"/></g></g></g></svg>