<svg xmlns="http://www.w3.org/2000/svg" xmlns:xlink="http://www.w3.org/1999/xlink" version="1.1" class="marks" width="1366" height="1016" viewBox="0 0 683 508"><rect width="683" height="508" fill="white"/><g fill="none" stroke-miterlimit="10" transform="translate(27,86)"><g class="mark-group role-frame root" role="graphics-object" aria-roledescription="group mark container"><g transform="translate(0,0)"><path class="background" aria-hidden="true" d="M0.5,0.5h600v400h-600Z"/><g><g class="mark-group role-axis" aria-hidden="true"><g transform="translate(0.5,0.5)"><path class="background" aria-hidden="true" d="M0,0h0v0h0Z" pointer-events="none"/><g><g class="mark-rule role-axis-grid" pointer-events="none"><line transform="translate(0,360)" x2="600" y2="0" stroke="#676A86" stroke-opacity="0.5" stroke-width="1" stroke-dasharray="1,5" opacity="1"/><line transform="translate(0,293)" x2="600" y2="0" stroke="#676A86" stroke-opacity="0.5" stroke-width="1" stroke-dasharray="1,5" opacity="1"/><line transform="translate(0,227)" x2="600" y2="0" stroke="#676A86" stroke-opacity="0.5" stroke-width="1" stroke-dasharray="1,5" opacity="1"/><line transform="translate(0,160)" x2="600" y2="0" stroke="#676A86" stroke-opacity="0.5" stroke-width="1" stroke-dasharray="1,5" opacity="1"/><line transform="translate(0,93)" x2="600" y2="0" stroke="#676A86" stroke-opacity="0.5" stroke-width="1" stroke-dasharray="1,5" opacity="1"/><line transform="translate(0,27)" x2="600" y2="0" stroke="#676A86" stroke-opacity="0.5" stroke-width="1" stroke-dasharray="1,5" opacity="1"/></g></g><path class="foreground" aria-hidden="true" d="" pointer-events="none" display="none"/></g></g><g class="mark-group role-axis" role="graphics-symbol" aria-roledescription="axis" aria-label="X-axis for a time scale with values from Tuesday, 21 January 2025, 12:00:00 AM to Friday, 04 April 2025, 1:00:00 AM"><g transform="translate(0.5,400.5)"><path class="background" aria-hidden="true" d="M0,0h0v0h0Z" pointer-events="none"/><g><g class="mark-rule role-axis-tick" pointer-events="none"><line transform="translate(90,0)" x2="0" y2="5" stroke="#676A86" stroke-opacity="0.5" stroke-width="1" opacity="1"/><line transform="translate(321,0)" x2="0" y2="5" stroke="#676A86" stroke-opacity="0.5" stroke-width="1" opacity="1"/><line transform="translate(575,0)" x2="0" y2="5" stroke="#676A86" stroke-opacity="0.5" stroke-width="1" opacity="1"/></g><g class="mark-text role-axis-label" pointer-events="none"><text text-anchor="middle" transform="translate(90.41095890410958,15)" font-family="Circular Std" font-size="10px" fill="#676A86" fill-opacity="0.7" opacity="1">February</text><text text-anchor="middle" transform="translate(320.5479452054795,15)" font-family="Circular Std" font-size="10px" fill="#676A86" fill-opacity="0.7" opacity="1">March</text><text text-anchor="middle" transform="translate(575,15)" font-family="Circular Std" font-size="10px" fill="#676A86" fill-opacity="0.7" opacity="1">April</text></g><g class="mark-rule role-axis-domain" pointer-events="none"><line transform="translate(0,0)" x2="600" y2="0" stroke="#676A86" stroke-opacity="0.5" stroke-width="1" opacity="1"/></g></g><path class="foreground" aria-hidden="true" d="" pointer-events="none" display="none"/></g></g><g class="mark-group role-axis" role="graphics-symbol" aria-roledescription="axis" aria-label="Y-axis titled 'Stock Market Performance (Trump Inauguration = 100)' for a linear scale with values from 82 to 112"><g transform="translate(0.5,0.5)"><path class="background" aria-hidden="true" d="M0,0h0v0h0Z" pointer-events="none"/><g><g class="mark-text role-axis-label" pointer-events="none"><text text-anchor="end" transform="translate(-5,363)" font-family="Circular Std" font-size="10px" fill="#676A86" fill-opacity="0.7" opacity="1">85</text><text text-anchor="end" transform="translate(-5,296.33333333333337)" font-family="Circular Std" font-size="10px" fill="#676A86" fill-opacity="0.7" opacity="1">90</text><text text-anchor="end" transform="translate(-5,229.66666666666666)" font-family="Circular Std" font-size="10px" fill="#676A86" fill-opacity="0.7" opacity="1">95</text><text text-anchor="end" transform="translate(-5,163)" font-family="Circular Std" font-size="10px" fill="#676A86" fill-opacity="0.7" opacity="1">100</text><text text-anchor="end" transform="translate(-5,96.33333333333331)" font-family="Circular Std" font-size="10px" fill="#676A86" fill-opacity="0.7" opacity="1">105</text><text text-anchor="end" transform="translate(-5,29.66666666666666)" font-family="Circular Std" font-size="10px" fill="#676A86" fill-opacity="0.7" opacity="1">110</text></g><g class="mark-rule role-axis-domain" pointer-events="none"><line transform="translate(0,400)" x2="0" y2="-400" stroke="#676A86" stroke-opacity="0.5" stroke-width="1" opacity="1"/></g><g class="mark-text role-axis-title" pointer-events="none"><text text-anchor="start" transform="translate(0,-10)" font-family="Circular Std" font-size="12px" font-weight="bold" fill="#676A86" fill-opacity="0.8" opacity="1">Stock Market Performance (Trump Inauguration = 100)</text></g></g><path class="foreground" aria-hidden="true" d="" pointer-events="none" display="none"/></g></g><g class="mark-group role-scope layer_0_pathgroup" role="graphics-object" aria-roledescription="group mark container"><g transform="translate(0,0)"><path class="background" aria-hidden="true" d="M0,0h600v400h-600Z"/><g><g class="mark-line role-mark layer_0_marks" role="graphics-object" aria-roledescription="line mark container"><path aria-label="Date: Jan 21, 2025; Stock Market Performance (Trump Inauguration = 100): 100; Index: China" role="graphics-symbol" aria-roledescription="line mark" d="M0,160L8.219,171.924L16.438,165.123L24.658,155.887L49.315,156.72L123.288,165.401L131.507,148.472L139.726,134.899L164.384,127.291L172.603,128.982L180.822,117.334L189.041,123.051L197.26,117.195L221.918,113.45L230.137,126.337L238.356,115.215L246.575,115.526L254.795,103.877L279.452,106.379L287.671,117.476L295.89,103.424L304.11,100.197L312.329,127.815L336.986,129.448L345.205,126.452L353.425,119.152L361.644,103.061L369.863,106.577L394.521,109.202L402.74,103.583L410.959,106.833L419.178,112.258L427.397,87.245L452.055,84.544L460.274,83.052L468.493,84.421L476.712,91.609L484.932,109.749L509.589,107.612L517.808,107.634L526.027,108.16L534.247,106.082L542.466,115.31L567.123,121.709L575.342,116.491L583.562,115.795L591.781,119.134" stroke-width="8"/></g></g><path class="foreground" aria-hidden="true" d="" display="none"/></g><g transform="translate(0,0)"><path class="background" aria-hidden="true" d="M0,0h600v400h-600Z"/><g><g class="mark-line role-mark layer_0_marks" role="graphics-object" aria-roledescription="line mark container"><path aria-label="Date: Jan 21, 2025; Stock Market Performance (Trump Inauguration = 100): 100; Index: UK" role="graphics-symbol" aria-roledescription="line mark" d="M0,160L8.219,160.499L16.438,157.364L24.658,167.159L49.315,166.956L57.534,162.246L65.753,158.518L73.973,144.621L82.192,140.394L106.849,154.494L115.068,156.491L123.288,148.302L131.507,132.08L139.726,136.26L164.384,125.763L172.603,124.266L180.822,119.586L189.041,126.247L197.26,131.269L221.918,125.732L230.137,125.935L238.356,134.389L246.575,142.109L254.795,142.671L279.452,142.733L287.671,141.22L295.89,131.425L304.11,127.572L312.329,119.228L336.986,109.62L345.205,127.136L353.425,127.635L361.644,139.021L369.863,139.473L394.521,151.905L402.74,168.158L410.959,161.139L419.178,160.889L427.397,146.898L452.055,139.411L460.274,135.527L468.493,135.293L476.712,136.026L484.932,144.636L509.589,146.009L517.808,141.985L526.027,137.961L534.247,141.626L542.466,142.749L567.123,154.619L575.342,146.508L583.562,150.61L591.781,171.48L600,211.382" stroke-width="8"/></g></g><path class="foreground" aria-hidden="true" d="" display="none"/></g><g transform="translate(0,0)"><path class="background" aria-hidden="true" d="M0,0h600v400h-600Z"/><g><g class="mark-line role-mark layer_0_marks" role="graphics-object" aria-roledescription="line mark container"><path aria-label="Date: Jan 21, 2025; Stock Market Performance (Trump Inauguration = 100): 100; Index: Germany" role="graphics-symbol" aria-roledescription="line mark" d="M0,160L8.219,146.549L16.438,136.585L24.658,137.636L49.315,144.781L57.534,135.377L65.753,122.264L73.973,116.582L82.192,116.275L106.849,135.526L115.068,130.618L123.288,125.534L131.507,105.479L139.726,112.793L164.384,104.889L172.603,96.899L180.822,89.916L189.041,60.515L197.26,66.763L221.918,48.725L230.137,45.784L238.356,71.819L246.575,79.358L254.795,81.075L279.452,72.307L287.671,73.299L295.89,48.977L304.11,64.389L312.329,64.354L336.986,26.615L345.205,78.588L353.425,30.796L361.644,9.35L369.863,35.364L394.521,59.949L402.74,78.463L410.959,56.435L419.178,63.359L427.397,36.766L452.055,26.136L460.274,11.808L468.493,17.678L476.712,35.985L484.932,42.794L509.589,45.267L517.808,28.974L526.027,46.131L534.247,56.287L542.466,70.052L567.123,88.936L575.342,65.08L583.562,74.53L591.781,117.204L600,159.636" stroke-width="8"/></g></g><path class="foreground" aria-hidden="true" d="" display="none"/></g><g transform="translate(0,0)"><path class="background" aria-hidden="true" d="M0,0h600v400h-600Z"/><g><g class="mark-line role-mark layer_0_marks" role="graphics-object" aria-roledescription="line mark container"><path aria-label="Date: Jan 21, 2025; Stock Market Performance (Trump Inauguration = 100): 100; Index: US" role="graphics-symbol" aria-roledescription="line mark" d="M0,160L8.219,142.955L16.438,139.963L24.658,146.67L49.315,188.004L57.534,161.565L65.753,168.399L73.973,165.064L82.192,168.729L106.849,184.621L115.068,166.935L123.288,164.35L131.507,157.624L139.726,175.75L164.384,162.869L172.603,167.621L180.822,167.21L189.041,147.254L197.26,141.779L230.137,140.801L238.356,139.79L246.575,146.126L254.795,175.709L279.452,191.709L287.671,209.292L295.89,205.994L304.11,241.819L312.329,221.38L336.986,254.927L345.205,259.316L353.425,241.258L361.644,273.886L369.863,265.318L394.521,314.442L402.74,316.617L410.959,302.286L419.178,325.598L427.397,295.156L452.055,291.473L460.274,312.026L468.493,295.379L476.712,299.371L484.932,293.134L509.589,265.833L517.808,260.213L526.027,285.375L534.247,291.786L542.466,324.25L567.123,325.85L575.342,315.686L583.562,305.484L591.781,376.376" stroke-width="8"/></g></g><path class="foreground" aria-hidden="true" d="" display="none"/></g><g transform="translate(0,0)"><path class="background" aria-hidden="true" d="M0,0h600v400h-600Z"/><g><g class="mark-line role-mark layer_0_marks" role="graphics-object" aria-roledescription="line mark container"><path aria-label="Date: Jan 21, 2025; Stock Market Performance (Trump Inauguration = 100): 100; Index: Japan" role="graphics-symbol" aria-roledescription="line mark" d="M0,160L8.219,138.878L16.438,128.197L24.658,129.116L49.315,141.626L57.534,160.38L65.753,146.786L73.973,143.397L82.192,141.398L106.849,177.351L115.068,167.844L123.288,166.713L131.507,158.683L139.726,168.232L164.384,167.749L180.822,162.196L189.041,145.191L197.26,155.851L221.918,155.003L230.137,151.718L238.356,155.332L246.575,171.955L254.795,168.576L287.671,186.996L295.89,190.256L304.11,186.368L312.329,223.971L336.986,202.449L345.205,217.969L353.425,214.994L361.644,205.2L369.863,233.138L394.521,228.317L402.74,236.351L410.959,235.463L419.178,236.456L427.397,227.469L452.055,215.736L460.274,200.4L468.493,203.596L484.932,206.152L509.589,208.495L517.808,202.617L526.027,194.187L534.247,201.953L542.466,225.172L567.123,276.512L575.342,276.276L583.562,272.812L591.781,306.632L600,339.27" stroke-width="8"/></g></g><path class="foreground" aria-hidden="true" d="" display="none"/></g></g><g class="mark-group role-scope layer_1_pathgroup" role="graphics-object" aria-roledescription="group mark container"><g transform="translate(0,0)"><path class="background" aria-hidden="true" d="M0,0h600v400h-600Z"/><g><g class="mark-line role-mark layer_1_marks" role="graphics-object" aria-roledescription="line mark container" pointer-events="none"><path aria-label="Date: Jan 21, 2025; Stock Market Performance (Trump Inauguration = 100): 100; Index: China" role="graphics-symbol" aria-roledescription="line mark" d="M0,160L8.219,171.924L16.438,165.123L24.658,155.887L49.315,156.72L123.288,165.401L131.507,148.472L139.726,134.899L164.384,127.291L172.603,128.982L180.822,117.334L189.041,123.051L197.26,117.195L221.918,113.45L230.137,126.337L238.356,115.215L246.575,115.526L254.795,103.877L279.452,106.379L287.671,117.476L295.89,103.424L304.11,100.197L312.329,127.815L336.986,129.448L345.205,126.452L353.425,119.152L361.644,103.061L369.863,106.577L394.521,109.202L402.74,103.583L410.959,106.833L419.178,112.258L427.397,87.245L452.055,84.544L460.274,83.052L468.493,84.421L476.712,91.609L484.932,109.749L509.589,107.612L517.808,107.634L526.027,108.16L534.247,106.082L542.466,115.31L567.123,121.709L575.342,116.491L583.562,115.795L591.781,119.134" stroke="#36B7B4" stroke-width="2"/></g></g><path class="foreground" aria-hidden="true" d="" display="none"/></g><g transform="translate(0,0)"><path class="background" aria-hidden="true" d="M0,0h600v400h-600Z"/><g><g class="mark-line role-mark layer_1_marks" role="graphics-object" aria-roledescription="line mark container" pointer-events="none"><path aria-label="Date: Jan 21, 2025; Stock Market Performance (Trump Inauguration = 100): 100; Index: UK" role="graphics-symbol" aria-roledescription="line mark" d="M0,160L8.219,160.499L16.438,157.364L24.658,167.159L49.315,166.956L57.534,162.246L65.753,158.518L73.973,144.621L82.192,140.394L106.849,154.494L115.068,156.491L123.288,148.302L131.507,132.08L139.726,136.26L164.384,125.763L172.603,124.266L180.822,119.586L189.041,126.247L197.26,131.269L221.918,125.732L230.137,125.935L238.356,134.389L246.575,142.109L254.795,142.671L279.452,142.733L287.671,141.22L295.89,131.425L304.11,127.572L312.329,119.228L336.986,109.62L345.205,127.136L353.425,127.635L361.644,139.021L369.863,139.473L394.521,151.905L402.74,168.158L410.959,161.139L419.178,160.889L427.397,146.898L452.055,139.411L460.274,135.527L468.493,135.293L476.712,136.026L484.932,144.636L509.589,146.009L517.808,141.985L526.027,137.961L534.247,141.626L542.466,142.749L567.123,154.619L575.342,146.508L583.562,150.61L591.781,171.48L600,211.382" stroke="#0063AF" stroke-width="2"/></g></g><path class="foreground" aria-hidden="true" d="" display="none"/></g><g transform="translate(0,0)"><path class="background" aria-hidden="true" d="M0,0h600v400h-600Z"/><g><g class="mark-line role-mark layer_1_marks" role="graphics-object" aria-roledescription="line mark container" pointer-events="none"><path aria-label="Date: Jan 21, 2025; Stock Market Performance (Trump Inauguration = 100): 100; Index: Germany" role="graphics-symbol" aria-roledescription="line mark" d="M0,160L8.219,146.549L16.438,136.585L24.658,137.636L49.315,144.781L57.534,135.377L65.753,122.264L73.973,116.582L82.192,116.275L106.849,135.526L115.068,130.618L123.288,125.534L131.507,105.479L139.726,112.793L164.384,104.889L172.603,96.899L180.822,89.916L189.041,60.515L197.26,66.763L221.918,48.725L230.137,45.784L238.356,71.819L246.575,79.358L254.795,81.075L279.452,72.307L287.671,73.299L295.89,48.977L304.11,64.389L312.329,64.354L336.986,26.615L345.205,78.588L353.425,30.796L361.644,9.35L369.863,35.364L394.521,59.949L402.74,78.463L410.959,56.435L419.178,63.359L427.397,36.766L452.055,26.136L460.274,11.808L468.493,17.678L476.712,35.985L484.932,42.794L509.589,45.267L517.808,28.974L526.027,46.131L534.247,56.287L542.466,70.052L567.123,88.936L575.342,65.08L583.562,74.53L591.781,117.204L600,159.636" stroke="#E6224B" stroke-width="2"/></g></g><path class="foreground" aria-hidden="true" d="" display="none"/></g><g transform="translate(0,0)"><path class="background" aria-hidden="true" d="M0,0h600v400h-600Z"/><g><g class="mark-line role-mark layer_1_marks" role="graphics-object" aria-roledescription="line mark container" pointer-events="none"><path aria-label="Date: Jan 21, 2025; Stock Market Performance (Trump Inauguration = 100): 100; Index: US" role="graphics-symbol" aria-roledescription="line mark" d="M0,160L8.219,142.955L16.438,139.963L24.658,146.67L49.315,188.004L57.534,161.565L65.753,168.399L73.973,165.064L82.192,168.729L106.849,184.621L115.068,166.935L123.288,164.35L131.507,157.624L139.726,175.75L164.384,162.869L172.603,167.621L180.822,167.21L189.041,147.254L197.26,141.779L230.137,140.801L238.356,139.79L246.575,146.126L254.795,175.709L279.452,191.709L287.671,209.292L295.89,205.994L304.11,241.819L312.329,221.38L336.986,254.927L345.205,259.316L353.425,241.258L361.644,273.886L369.863,265.318L394.521,314.442L402.74,316.617L410.959,302.286L419.178,325.598L427.397,295.156L452.055,291.473L460.274,312.026L468.493,295.379L476.712,299.371L484.932,293.134L509.589,265.833L517.808,260.213L526.027,285.375L534.247,291.786L542.466,324.25L567.123,325.85L575.342,315.686L583.562,305.484L591.781,376.376" stroke="#00A767" stroke-width="2"/></g></g><path class="foreground" aria-hidden="true" d="" display="none"/></g><g transform="translate(0,0)"><path class="background" aria-hidden="true" d="M0,0h600v400h-600Z"/><g><g class="mark-line role-mark layer_1_marks" role="graphics-object" aria-roledescription="line mark container" pointer-events="none"><path aria-label="Date: Jan 21, 2025; Stock Market Performance (Trump Inauguration = 100): 100; Index: Japan" role="graphics-symbol" aria-roledescription="line mark" d="M0,160L8.219,138.878L16.438,128.197L24.658,129.116L49.315,141.626L57.534,160.38L65.753,146.786L73.973,143.397L82.192,141.398L106.849,177.351L115.068,167.844L123.288,166.713L131.507,158.683L139.726,168.232L164.384,167.749L180.822,162.196L189.041,145.191L197.26,155.851L221.918,155.003L230.137,151.718L238.356,155.332L246.575,171.955L254.795,168.576L287.671,186.996L295.89,190.256L304.11,186.368L312.329,223.971L336.986,202.449L345.205,217.969L353.425,214.994L361.644,205.2L369.863,233.138L394.521,228.317L402.74,236.351L410.959,235.463L419.178,236.456L427.397,227.469L452.055,215.736L460.274,200.4L468.493,203.596L484.932,206.152L509.589,208.495L517.808,202.617L526.027,194.187L534.247,201.953L542.466,225.172L567.123,276.512L575.342,276.276L583.562,272.812L591.781,306.632L600,339.27" stroke="#F4C245" stroke-width="2"/></g></g><path class="foreground" aria-hidden="true" d="" display="none"/></g></g><g class="mark-symbol role-mark layer_2_layer_0_marks" role="graphics-object" aria-roledescription="symbol mark container" pointer-events="none"><path aria-label="Max of Date: Apr 03, 2025; Stock Market Performance (Trump Inauguration = 100): 103.064957238; Index: China" role="graphics-symbol" aria-roledescription="circle" transform="translate(591.7808219178082,119.1339034977028)" d="M3.873,0A3.873,3.873,0,1,1,-3.873,0A3.873,3.873,0,1,1,3.873,0" fill="#36B7B4" stroke-width="2"/><path aria-label="Max of Date: Apr 04, 2025; Stock Market Performance (Trump Inauguration = 100): 96.1463691096; Index: UK" role="graphics-symbol" aria-roledescription="circle" transform="translate(600,211.38174520495267)" d="M3.873,0A3.873,3.873,0,1,1,-3.873,0A3.873,3.873,0,1,1,3.873,0" fill="#0063AF" stroke-width="2"/><path aria-label="Max of Date: Apr 04, 2025; Stock Market Performance (Trump Inauguration = 100): 100.0273263; Index: Germany" role="graphics-symbol" aria-roledescription="circle" transform="translate(600,159.63564933624806)" d="M3.873,0A3.873,3.873,0,1,1,-3.873,0A3.873,3.873,0,1,1,3.873,0" fill="#E6224B" stroke-width="2"/><path aria-label="Max of Date: Apr 03, 2025; Stock Market Performance (Trump Inauguration = 100): 83.7717986637; Index: US" role="graphics-symbol" aria-roledescription="circle" transform="translate(591.7808219178082,376.37601781798725)" d="M3.873,0A3.873,3.873,0,1,1,-3.873,0A3.873,3.873,0,1,1,3.873,0" fill="#00A767" stroke-width="2"/><path aria-label="Max of Date: Apr 04, 2025; Stock Market Performance (Trump Inauguration = 100): 86.5547684489; Index: Japan" role="graphics-symbol" aria-roledescription="circle" transform="translate(600,339.2697540149563)" d="M3.873,0A3.873,3.873,0,1,1,-3.873,0A3.873,3.873,0,1,1,3.873,0" fill="#F4C245" stroke-width="2"/></g><g class="mark-text role-mark layer_2_layer_1_marks" role="graphics-object" aria-roledescription="text mark container" pointer-events="none"><text aria-label="Max of Date: Apr 03, 2025; Stock Market Performance (Trump Inauguration = 100): 103.064957238; Index: China" role="graphics-symbol" aria-roledescription="text mark" text-anchor="start" transform="translate(595.7808219178082,122.1339034977028)" font-family="Circular Std" font-size="11px" fill="#36B7B4">China</text><text aria-label="Max of Date: Apr 04, 2025; Stock Market Performance (Trump Inauguration = 100): 96.1463691096; Index: UK" role="graphics-symbol" aria-roledescription="text mark" text-anchor="start" transform="translate(604,214.38174520495267)" font-family="Circular Std" font-size="11px" fill="#0063AF">UK</text><text aria-label="Max of Date: Apr 04, 2025; Stock Market Performance (Trump Inauguration = 100): 100.0273263; Index: Germany" role="graphics-symbol" aria-roledescription="text mark" text-anchor="start" transform="translate(604,162.63564933624806)" font-family="Circular Std" font-size="11px" fill="#E6224B">Germany</text><text aria-label="Max of Date: Apr 03, 2025; Stock Market Performance (Trump Inauguration = 100): 83.7717986637; Index: US" role="graphics-symbol" aria-roledescription="text mark" text-anchor="start" transform="translate(595.7808219178082,379.37601781798725)" font-family="Circular Std" font-size="11px" fill="#00A767">US</text><text aria-label="Max of Date: Apr 04, 2025; Stock Market Performance (Trump Inauguration = 100): 86.5547684489; Index: Japan" role="graphics-symbol" aria-roledescription="text mark" text-anchor="start" transform="translate(604,342.2697540149563)" font-family="Circular Std" font-size="11px" fill="#F4C245">Japan</text></g><g class="mark-group role-title"><g transform="translate(-21.189971923828125,-80)"><path class="background" aria-hidden="true" d="M0,0h0v0h0Z" pointer-events="none"/><g><g class="mark-text role-title-text" role="graphics-symbol" aria-roledescription="title" aria-label="Title text 'Stock Markets Since Trump's Inauguration'" pointer-events="none"><text text-anchor="start" transform="translate(0,17)" font-family="Circular Std" font-size="22px" font-weight="lighter" fill="#000" opacity="1">Stock Markets Since Trump's Inauguration</text></g><g class="mark-text role-title-subtitle" role="graphics-symbol" aria-roledescription="subtitle" aria-label="Subtitle text 'Source: Yahoo Finance '" pointer-events="none"><text text-anchor="start" transform="translate(0,36)" font-family="Circular Std" font-size="14px" font-weight="lighter" fill="#676A86" opacity="1"><tspan>Source: Yahoo Finance</tspan><tspan x="0" dy="16"/></text></g></g><path class="foreground" aria-hidden="true" d="" pointer-events="none" display="none"/></g></g></g><path class="foreground" aria-hidden="true" d="" display="none"/></g></g></g></svg>