<svg xmlns="http://www.w3.org/2000/svg" xmlns:xlink="http://www.w3.org/1999/xlink" version="1.1" class="marks" width="563" height="398" viewBox="0 0 563 398"><rect width="563" height="398" fill="white"/><g fill="none" stroke-miterlimit="10" transform="translate(36,76)"><g class="mark-group role-frame root" role="graphics-object" aria-roledescription="group mark container"><g transform="translate(0,0)"><path class="background" aria-hidden="true" d="M0.5,0.5h400v300h-400Z"/><g><g class="mark-group role-axis" aria-hidden="true"><g transform="translate(0.5,0.5)"><path class="background" aria-hidden="true" d="M0,0h0v0h0Z" pointer-events="none"/><g><g class="mark-rule role-axis-grid" pointer-events="none"><line transform="translate(0,300)" x2="400" y2="0" stroke="#676A86" stroke-opacity="0.5" stroke-width="1" stroke-dasharray="1,5" opacity="1"/><line transform="translate(0,250)" x2="400" y2="0" stroke="#676A86" stroke-opacity="0.5" stroke-width="1" stroke-dasharray="1,5" opacity="1"/><line transform="translate(0,200)" x2="400" y2="0" stroke="#676A86" stroke-opacity="0.5" stroke-width="1" stroke-dasharray="1,5" opacity="1"/><line transform="translate(0,150)" x2="400" y2="0" stroke="#676A86" stroke-opacity="0.5" stroke-width="1" stroke-dasharray="1,5" opacity="1"/><line transform="translate(0,100)" x2="400" y2="0" stroke="#676A86" stroke-opacity="0.5" stroke-width="1" stroke-dasharray="1,5" opacity="1"/><line transform="translate(0,50)" x2="400" y2="0" stroke="#676A86" stroke-opacity="0.5" stroke-width="1" stroke-dasharray="1,5" opacity="1"/><line transform="translate(0,0)" x2="400" y2="0" stroke="#676A86" stroke-opacity="0.5" stroke-width="1" stroke-dasharray="1,5" opacity="1"/></g></g><path class="foreground" aria-hidden="true" d="" pointer-events="none" display="none"/></g></g><g class="mark-group role-axis" role="graphics-symbol" aria-roledescription="axis" aria-label="X-axis for a time scale with values from Friday, 01 March 2019, 12:00:00 AM to Saturday, 01 March 2025, 12:00:00 AM"><g transform="translate(0.5,300.5)"><path class="background" aria-hidden="true" d="M0,0h0v0h0Z" pointer-events="none"/><g><g class="mark-rule role-axis-tick" pointer-events="none"><line transform="translate(56,0)" x2="0" y2="5" stroke="#676A86" stroke-opacity="0.5" stroke-width="1" opacity="1"/><line transform="translate(123,0)" x2="0" y2="5" stroke="#676A86" stroke-opacity="0.5" stroke-width="1" opacity="1"/><line transform="translate(189,0)" x2="0" y2="5" stroke="#676A86" stroke-opacity="0.5" stroke-width="1" opacity="1"/><line transform="translate(256,0)" x2="0" y2="5" stroke="#676A86" stroke-opacity="0.5" stroke-width="1" opacity="1"/><line transform="translate(322,0)" x2="0" y2="5" stroke="#676A86" stroke-opacity="0.5" stroke-width="1" opacity="1"/><line transform="translate(389,0)" x2="0" y2="5" stroke="#676A86" stroke-opacity="0.5" stroke-width="1" opacity="1"/></g><g class="mark-text role-axis-label" pointer-events="none"><text text-anchor="middle" transform="translate(55.839416058394164,15)" font-family="Circular Std" font-size="10px" fill="#676A86" fill-opacity="0.7" opacity="1">2020</text><text text-anchor="middle" transform="translate(122.62773722627738,15)" font-family="Circular Std" font-size="10px" fill="#676A86" fill-opacity="0.7" opacity="1">2021</text><text text-anchor="middle" transform="translate(189.23357664233578,15)" font-family="Circular Std" font-size="10px" fill="#676A86" fill-opacity="0.7" opacity="1">2022</text><text text-anchor="middle" transform="translate(255.83941605839416,15)" font-family="Circular Std" font-size="10px" fill="#676A86" fill-opacity="0.7" opacity="1">2023</text><text text-anchor="middle" transform="translate(322.44525547445255,15)" font-family="Circular Std" font-size="10px" fill="#676A86" fill-opacity="0.7" opacity="1">2024</text><text text-anchor="middle" transform="translate(389.2335766423358,15)" font-family="Circular Std" font-size="10px" fill="#676A86" fill-opacity="0.7" opacity="1">2025</text></g><g class="mark-rule role-axis-domain" pointer-events="none"><line transform="translate(0,0)" x2="400" y2="0" stroke="#676A86" stroke-opacity="0.5" stroke-width="1" opacity="1"/></g></g><path class="foreground" aria-hidden="true" d="" pointer-events="none" display="none"/></g></g><g class="mark-group role-axis" role="graphics-symbol" aria-roledescription="axis" aria-label="Y-axis for a linear scale with values from 0 to 600"><g transform="translate(0.5,0.5)"><path class="background" aria-hidden="true" d="M0,0h0v0h0Z" pointer-events="none"/><g><g class="mark-text role-axis-label" pointer-events="none"><text text-anchor="end" transform="translate(-5,303)" font-family="Circular Std" font-size="10px" fill="#676A86" fill-opacity="0.7" opacity="1">0K</text><text text-anchor="end" transform="translate(-5,253)" font-family="Circular Std" font-size="10px" fill="#676A86" fill-opacity="0.7" opacity="1">100K</text><text text-anchor="end" transform="translate(-5,203.00000000000003)" font-family="Circular Std" font-size="10px" fill="#676A86" fill-opacity="0.7" opacity="1">200K</text><text text-anchor="end" transform="translate(-5,153)" font-family="Circular Std" font-size="10px" fill="#676A86" fill-opacity="0.7" opacity="1">300K</text><text text-anchor="end" transform="translate(-5,103.00000000000001)" font-family="Circular Std" font-size="10px" fill="#676A86" fill-opacity="0.7" opacity="1">400K</text><text text-anchor="end" transform="translate(-5,52.999999999999986)" font-family="Circular Std" font-size="10px" fill="#676A86" fill-opacity="0.7" opacity="1">500K</text><text text-anchor="end" transform="translate(-5,3)" font-family="Circular Std" font-size="10px" fill="#676A86" fill-opacity="0.7" opacity="1">600K</text></g><g class="mark-rule role-axis-domain" pointer-events="none"><line transform="translate(0,300)" x2="0" y2="-300" stroke="#676A86" stroke-opacity="0.5" stroke-width="1" opacity="1"/></g></g><path class="foreground" aria-hidden="true" d="" pointer-events="none" display="none"/></g></g><g class="mark-group role-scope layer_0_pathgroup" role="graphics-object" aria-roledescription="group mark container"><g transform="translate(0,0)"><path class="background" aria-hidden="true" d="M0,0h400v300h-400Z"/><g><g class="mark-line role-mark layer_0_marks" role="graphics-object" aria-roledescription="line mark container"><path aria-label="date_dt: Mar 01, 2019; percentage: 380.703247046; group: Men" role="graphics-symbol" aria-roledescription="line mark" d="M0,109.648L16.781,93.628L33.569,88.043L50.182,112.308L66.788,97.575L83.569,94.996L100.357,88.032L116.971,69.917L133.394,94.337L150.175,125.173L166.963,111.774L183.577,96.522L200,98.197L216.781,104.993L233.569,104.524L250.182,83.477L266.606,92.914L283.387,83.885L300.175,68.4L316.788,57.009L333.394,37.923L350.175,43.64L366.963,19.652L383.577,28.935L400,50.888" stroke="#36B7B4" stroke-width="1"/></g></g><path class="foreground" aria-hidden="true" d="" display="none"/></g><g transform="translate(0,0)"><path class="background" aria-hidden="true" d="M0,0h400v300h-400Z"/><g><g class="mark-line role-mark layer_0_marks" role="graphics-object" aria-roledescription="line mark container"><path aria-label="date_dt: Mar 01, 2019; percentage: 394.331314947; group: Women" role="graphics-symbol" aria-roledescription="line mark" d="M0,102.834L16.781,107.092L33.569,98.368L50.182,112.446L66.788,105.9L83.569,105.26L100.357,122.085L116.971,116.819L133.394,132.504L150.175,145.305L166.963,128.843L183.577,137.982L200,131.656L216.781,132.017L233.569,122.207L250.182,95.045L266.606,96.877L283.387,103.689L300.175,95.949L316.788,104.255L333.394,96.976L350.175,102.212L366.963,98.428L383.577,77.524L400,87.595" stroke="#EB5C2E" stroke-width="1"/></g></g><path class="foreground" aria-hidden="true" d="" display="none"/></g></g><g class="mark-text role-mark layer_1_marks" role="graphics-object" aria-roledescription="text mark container"><text aria-label="date_dt: Mar 01, 2025; percentage: 498.22323083; group: Men" role="graphics-symbol" aria-roledescription="text mark" text-anchor="start" transform="translate(405,53.88838458482363)" font-family="Circular Std" font-size="11px" fill="#36B7B4">Men</text><text aria-label="date_dt: Mar 01, 2025; percentage: 424.809338685; group: Women" role="graphics-symbol" aria-roledescription="text mark" text-anchor="start" transform="translate(405,90.59533065728866)" font-family="Circular Std" font-size="11px" fill="#EB5C2E">Women</text></g><g class="mark-group role-title"><g transform="translate(-30.06999969482422,-71)"><path class="background" aria-hidden="true" d="M0,0h0v0h0Z" pointer-events="none"/><g><g class="mark-text role-title-text" role="graphics-symbol" aria-roledescription="title" aria-label="Title text 'UK: Young people not in education, employment or training '" pointer-events="none"><text text-anchor="start" transform="translate(0,16)" font-family="Circular Std" font-size="20px" font-weight="bold" fill="#000" opacity="1">UK: Young people not in education, employment or training</text></g><g class="mark-text role-title-subtitle" role="graphics-symbol" aria-roledescription="subtitle" aria-label="Subtitle text 'Men and women aged 16 to 24 years, seasonally adjusted, Jan-Mar 2019 to Jan-Mar 2025 Source: ONS 2025 '" pointer-events="none"><text text-anchor="start" transform="translate(0,32)" font-family="Circular Std" font-size="12px" fill="#676A86" opacity="1"><tspan>Men and women aged 16 to 24 years, seasonally adjusted, Jan-Mar 2019 to Jan-Mar 2025</tspan><tspan x="0" dy="14">Source: ONS 2025</tspan><tspan x="0" dy="14"/></text></g></g><path class="foreground" aria-hidden="true" d="" pointer-events="none" display="none"/></g></g></g><path class="foreground" aria-hidden="true" d="" display="none"/></g></g></g></svg>