<svg xmlns="http://www.w3.org/2000/svg" xmlns:xlink="http://www.w3.org/1999/xlink" version="1.1" class="marks" width="384" height="394" viewBox="0 0 384 394"><rect width="384" height="394" fill="white"/><g fill="none" stroke-miterlimit="10" transform="translate(28,36)"><g class="mark-group role-frame root" role="graphics-object" aria-roledescription="group mark container"><g transform="translate(0,0)"><path class="background" aria-hidden="true" d="M0.5,0.5h350v280h-350Z"/><g><g class="mark-group role-axis" aria-hidden="true"><g transform="translate(0.5,280.5)"><path class="background" aria-hidden="true" d="M0,0h0v0h0Z" pointer-events="none"/><g><g class="mark-rule role-axis-grid" pointer-events="none"><line transform="translate(0,-280)" x2="0" y2="280" stroke="#676A86" stroke-opacity="0.5" stroke-width="1" stroke-dasharray="2,2" opacity="1"/><line transform="translate(35,-280)" x2="0" y2="280" stroke="#676A86" stroke-opacity="0.5" stroke-width="1" stroke-dasharray="2,2" opacity="1"/><line transform="translate(70,-280)" x2="0" y2="280" stroke="#676A86" stroke-opacity="0.5" stroke-width="1" stroke-dasharray="2,2" opacity="1"/><line transform="translate(105,-280)" x2="0" y2="280" stroke="#676A86" stroke-opacity="0.5" stroke-width="1" stroke-dasharray="2,2" opacity="1"/><line transform="translate(140,-280)" x2="0" y2="280" stroke="#676A86" stroke-opacity="0.5" stroke-width="1" stroke-dasharray="2,2" opacity="1"/><line transform="translate(175,-280)" x2="0" y2="280" stroke="#676A86" stroke-opacity="0.5" stroke-width="1" stroke-dasharray="2,2" opacity="1"/><line transform="translate(210,-280)" x2="0" y2="280" stroke="#676A86" stroke-opacity="0.5" stroke-width="1" stroke-dasharray="2,2" opacity="1"/><line transform="translate(245,-280)" x2="0" y2="280" stroke="#676A86" stroke-opacity="0.5" stroke-width="1" stroke-dasharray="2,2" opacity="1"/><line transform="translate(280,-280)" x2="0" y2="280" stroke="#676A86" stroke-opacity="0.5" stroke-width="1" stroke-dasharray="2,2" opacity="1"/><line transform="translate(315,-280)" x2="0" y2="280" stroke="#676A86" stroke-opacity="0.5" stroke-width="1" stroke-dasharray="2,2" opacity="1"/><line transform="translate(350,-280)" x2="0" y2="280" stroke="#676A86" stroke-opacity="0.5" stroke-width="1" stroke-dasharray="2,2" opacity="1"/></g></g><path class="foreground" aria-hidden="true" d="" pointer-events="none" display="none"/></g></g><g class="mark-group role-axis" role="graphics-symbol" aria-roledescription="axis" aria-label="X-axis titled 'Debt (% of GDP), previous year' for a linear scale with values from 0 to 100"><g transform="translate(0.5,280.5)"><path class="background" aria-hidden="true" d="M0,0h0v0h0Z" pointer-events="none"/><g><g class="mark-rule role-axis-tick" pointer-events="none"><line transform="translate(0,0)" x2="0" y2="4" stroke="#676A86" stroke-opacity="0.5" stroke-width="1" opacity="1"/><line transform="translate(35,0)" x2="0" y2="4" stroke="#676A86" stroke-opacity="0.5" stroke-width="1" opacity="1"/><line transform="translate(70,0)" x2="0" y2="4" stroke="#676A86" stroke-opacity="0.5" stroke-width="1" opacity="1"/><line transform="translate(105,0)" x2="0" y2="4" stroke="#676A86" stroke-opacity="0.5" stroke-width="1" opacity="1"/><line transform="translate(140,0)" x2="0" y2="4" stroke="#676A86" stroke-opacity="0.5" stroke-width="1" opacity="1"/><line transform="translate(175,0)" x2="0" y2="4" stroke="#676A86" stroke-opacity="0.5" stroke-width="1" opacity="1"/><line transform="translate(210,0)" x2="0" y2="4" stroke="#676A86" stroke-opacity="0.5" stroke-width="1" opacity="1"/><line transform="translate(245,0)" x2="0" y2="4" stroke="#676A86" stroke-opacity="0.5" stroke-width="1" opacity="1"/><line transform="translate(280,0)" x2="0" y2="4" stroke="#676A86" stroke-opacity="0.5" stroke-width="1" opacity="1"/><line transform="translate(315,0)" x2="0" y2="4" stroke="#676A86" stroke-opacity="0.5" stroke-width="1" opacity="1"/><line transform="translate(350,0)" x2="0" y2="4" stroke="#676A86" stroke-opacity="0.5" stroke-width="1" opacity="1"/></g><g class="mark-text role-axis-label" pointer-events="none"><text text-anchor="start" transform="translate(0,15)" font-family="Circular Std" font-size="11px" fill="#676A86" fill-opacity="0.7" opacity="1">0</text><text text-anchor="middle" transform="translate(35,15)" font-family="Circular Std" font-size="11px" fill="#676A86" fill-opacity="0.7" opacity="1">10</text><text text-anchor="middle" transform="translate(70,15)" font-family="Circular Std" font-size="11px" fill="#676A86" fill-opacity="0.7" opacity="1">20</text><text text-anchor="middle" transform="translate(105,15)" font-family="Circular Std" font-size="11px" fill="#676A86" fill-opacity="0.7" opacity="1">30</text><text text-anchor="middle" transform="translate(140,15)" font-family="Circular Std" font-size="11px" fill="#676A86" fill-opacity="0.7" opacity="1">40</text><text text-anchor="middle" transform="translate(175,15)" font-family="Circular Std" font-size="11px" fill="#676A86" fill-opacity="0.7" opacity="1">50</text><text text-anchor="middle" transform="translate(210,15)" font-family="Circular Std" font-size="11px" fill="#676A86" fill-opacity="0.7" opacity="1">60</text><text text-anchor="middle" transform="translate(244.99999999999997,15)" font-family="Circular Std" font-size="11px" fill="#676A86" fill-opacity="0.7" opacity="1">70</text><text text-anchor="middle" transform="translate(280,15)" font-family="Circular Std" font-size="11px" fill="#676A86" fill-opacity="0.7" opacity="1">80</text><text text-anchor="middle" transform="translate(315,15)" font-family="Circular Std" font-size="11px" fill="#676A86" fill-opacity="0.7" opacity="1">90</text><text text-anchor="end" transform="translate(350,15)" font-family="Circular Std" font-size="11px" fill="#676A86" fill-opacity="0.7" opacity="1">100</text></g><g class="mark-rule role-axis-domain" pointer-events="none"><line transform="translate(0,0)" x2="350" y2="0" stroke="#676A86" stroke-opacity="0.5" stroke-width="1" opacity="1"/></g><g class="mark-text role-axis-title" pointer-events="none"><text text-anchor="middle" transform="translate(175,30)" font-family="Circular Std" font-size="11px" font-weight="bold" fill="#676A86" fill-opacity="0.8" opacity="1">Debt (% of GDP), previous year</text></g></g><path class="foreground" aria-hidden="true" d="" pointer-events="none" display="none"/></g></g><g class="mark-group role-axis" role="graphics-symbol" aria-roledescription="axis" aria-label="Y-axis titled 'Primary balance (% of GDP)' for a linear scale with values from −14 to 4"><g transform="translate(0.5,0.5)"><path class="background" aria-hidden="true" d="M0,0h0v0h0Z" pointer-events="none"/><g><g class="mark-text role-axis-label" pointer-events="none"><text text-anchor="end" transform="translate(-5,283)" font-family="Circular Std" font-size="11px" fill="#676A86" fill-opacity="0.7" opacity="1">−14</text><text text-anchor="end" transform="translate(-5,251.88888888888889)" font-family="Circular Std" font-size="11px" fill="#676A86" fill-opacity="0.7" opacity="1">−12</text><text text-anchor="end" transform="translate(-5,220.77777777777777)" font-family="Circular Std" font-size="11px" fill="#676A86" fill-opacity="0.7" opacity="1">−10</text><text text-anchor="end" transform="translate(-5,189.66666666666669)" font-family="Circular Std" font-size="11px" fill="#676A86" fill-opacity="0.7" opacity="1">−8</text><text text-anchor="end" transform="translate(-5,158.55555555555557)" font-family="Circular Std" font-size="11px" fill="#676A86" fill-opacity="0.7" opacity="1">−6</text><text text-anchor="end" transform="translate(-5,127.44444444444444)" font-family="Circular Std" font-size="11px" fill="#676A86" fill-opacity="0.7" opacity="1">−4</text><text text-anchor="end" transform="translate(-5,96.33333333333334)" font-family="Circular Std" font-size="11px" fill="#676A86" fill-opacity="0.7" opacity="1">−2</text><text text-anchor="end" transform="translate(-5,65.22222222222223)" font-family="Circular Std" font-size="11px" fill="#676A86" fill-opacity="0.7" opacity="1">0</text><text text-anchor="end" transform="translate(-5,34.11111111111113)" font-family="Circular Std" font-size="11px" fill="#676A86" fill-opacity="0.7" opacity="1">2</text><text text-anchor="end" transform="translate(-5,3)" font-family="Circular Std" font-size="11px" fill="#676A86" fill-opacity="0.7" opacity="1">4</text></g><g class="mark-rule role-axis-domain" pointer-events="none"><line transform="translate(0,280)" x2="0" y2="-280" stroke="#676A86" stroke-opacity="0.5" stroke-width="1" opacity="1"/></g><g class="mark-text role-axis-title" pointer-events="none"><text text-anchor="start" transform="translate(0,-7)" font-family="Circular Std" font-size="11px" font-weight="bold" fill="#676A86" fill-opacity="0.8" opacity="1">Primary balance (% of GDP)</text></g></g><path class="foreground" aria-hidden="true" d="" pointer-events="none" display="none"/></g></g><g class="mark-rule role-mark layer_0_marks" role="graphics-symbol" aria-roledescription="rule mark container"><line transform="translate(350,62.22222222222222)" x2="-350" y2="0" stroke="#c9c9c9" stroke-dasharray="2,3"/><line transform="translate(350,62.22222222222222)" x2="-350" y2="0" stroke="#c9c9c9" stroke-dasharray="2,3"/><line transform="translate(350,62.22222222222222)" x2="-350" y2="0" stroke="#c9c9c9" stroke-dasharray="2,3"/><line transform="translate(350,62.22222222222222)" x2="-350" y2="0" stroke="#c9c9c9" stroke-dasharray="2,3"/><line transform="translate(350,62.22222222222222)" x2="-350" y2="0" stroke="#c9c9c9" stroke-dasharray="2,3"/><line transform="translate(350,62.22222222222222)" x2="-350" y2="0" stroke="#c9c9c9" stroke-dasharray="2,3"/><line transform="translate(350,62.22222222222222)" x2="-350" y2="0" stroke="#c9c9c9" stroke-dasharray="2,3"/><line transform="translate(350,62.22222222222222)" x2="-350" y2="0" stroke="#c9c9c9" stroke-dasharray="2,3"/><line transform="translate(350,62.22222222222222)" x2="-350" y2="0" stroke="#c9c9c9" stroke-dasharray="2,3"/><line transform="translate(350,62.22222222222222)" x2="-350" y2="0" stroke="#c9c9c9" stroke-dasharray="2,3"/><line transform="translate(350,62.22222222222222)" x2="-350" y2="0" stroke="#c9c9c9" stroke-dasharray="2,3"/><line transform="translate(350,62.22222222222222)" x2="-350" y2="0" stroke="#c9c9c9" stroke-dasharray="2,3"/><line transform="translate(350,62.22222222222222)" x2="-350" y2="0" stroke="#c9c9c9" stroke-dasharray="2,3"/><line transform="translate(350,62.22222222222222)" x2="-350" y2="0" stroke="#c9c9c9" stroke-dasharray="2,3"/><line transform="translate(350,62.22222222222222)" x2="-350" y2="0" stroke="#c9c9c9" stroke-dasharray="2,3"/><line transform="translate(350,62.22222222222222)" x2="-350" y2="0" stroke="#c9c9c9" stroke-dasharray="2,3"/><line transform="translate(350,62.22222222222222)" x2="-350" y2="0" stroke="#c9c9c9" stroke-dasharray="2,3"/><line transform="translate(350,62.22222222222222)" x2="-350" y2="0" stroke="#c9c9c9" stroke-dasharray="2,3"/><line transform="translate(350,62.22222222222222)" x2="-350" y2="0" stroke="#c9c9c9" stroke-dasharray="2,3"/><line transform="translate(350,62.22222222222222)" x2="-350" y2="0" stroke="#c9c9c9" stroke-dasharray="2,3"/><line transform="translate(350,62.22222222222222)" x2="-350" y2="0" stroke="#c9c9c9" stroke-dasharray="2,3"/><line transform="translate(350,62.22222222222222)" x2="-350" y2="0" stroke="#c9c9c9" stroke-dasharray="2,3"/><line transform="translate(350,62.22222222222222)" x2="-350" y2="0" stroke="#c9c9c9" stroke-dasharray="2,3"/><line transform="translate(350,62.22222222222222)" x2="-350" y2="0" stroke="#c9c9c9" stroke-dasharray="2,3"/><line transform="translate(350,62.22222222222222)" x2="-350" y2="0" stroke="#c9c9c9" stroke-dasharray="2,3"/><line transform="translate(350,62.22222222222222)" x2="-350" y2="0" stroke="#c9c9c9" stroke-dasharray="2,3"/><line transform="translate(350,62.22222222222222)" x2="-350" y2="0" stroke="#c9c9c9" stroke-dasharray="2,3"/><line transform="translate(350,62.22222222222222)" x2="-350" y2="0" stroke="#c9c9c9" stroke-dasharray="2,3"/><line transform="translate(350,62.22222222222222)" x2="-350" y2="0" stroke="#c9c9c9" stroke-dasharray="2,3"/><line transform="translate(350,62.22222222222222)" x2="-350" y2="0" stroke="#c9c9c9" stroke-dasharray="2,3"/><line transform="translate(350,62.22222222222222)" x2="-350" y2="0" stroke="#c9c9c9" stroke-dasharray="2,3"/><line transform="translate(350,62.22222222222222)" x2="-350" y2="0" stroke="#c9c9c9" stroke-dasharray="2,3"/><line transform="translate(350,62.22222222222222)" x2="-350" y2="0" stroke="#c9c9c9" stroke-dasharray="2,3"/><line transform="translate(350,62.22222222222222)" x2="-350" y2="0" stroke="#c9c9c9" stroke-dasharray="2,3"/><line transform="translate(350,62.22222222222222)" x2="-350" y2="0" stroke="#c9c9c9" stroke-dasharray="2,3"/><line transform="translate(350,62.22222222222222)" x2="-350" y2="0" stroke="#c9c9c9" stroke-dasharray="2,3"/><line transform="translate(350,62.22222222222222)" x2="-350" y2="0" stroke="#c9c9c9" stroke-dasharray="2,3"/><line transform="translate(350,62.22222222222222)" x2="-350" y2="0" stroke="#c9c9c9" stroke-dasharray="2,3"/><line transform="translate(350,62.22222222222222)" x2="-350" y2="0" stroke="#c9c9c9" stroke-dasharray="2,3"/><line transform="translate(350,62.22222222222222)" x2="-350" y2="0" stroke="#c9c9c9" stroke-dasharray="2,3"/><line transform="translate(350,62.22222222222222)" x2="-350" y2="0" stroke="#c9c9c9" stroke-dasharray="2,3"/><line transform="translate(350,62.22222222222222)" x2="-350" y2="0" stroke="#c9c9c9" stroke-dasharray="2,3"/><line transform="translate(350,62.22222222222222)" x2="-350" y2="0" stroke="#c9c9c9" stroke-dasharray="2,3"/><line transform="translate(350,62.22222222222222)" x2="-350" y2="0" stroke="#c9c9c9" stroke-dasharray="2,3"/><line transform="translate(350,62.22222222222222)" x2="-350" y2="0" stroke="#c9c9c9" stroke-dasharray="2,3"/><line transform="translate(350,62.22222222222222)" x2="-350" y2="0" stroke="#c9c9c9" stroke-dasharray="2,3"/><line transform="translate(350,62.22222222222222)" x2="-350" y2="0" stroke="#c9c9c9" stroke-dasharray="2,3"/><line transform="translate(350,62.22222222222222)" x2="-350" y2="0" stroke="#c9c9c9" stroke-dasharray="2,3"/><line transform="translate(350,62.22222222222222)" x2="-350" y2="0" stroke="#c9c9c9" stroke-dasharray="2,3"/><line transform="translate(350,62.22222222222222)" x2="-350" y2="0" stroke="#c9c9c9" stroke-dasharray="2,3"/></g><g class="mark-symbol role-mark layer_1_marks" role="graphics-object" aria-roledescription="symbol mark container"><path aria-label="Debt (% of GDP), previous year: 47.8152733547; Primary balance (% of GDP): −3.00132582035; era: 1975–1999" role="graphics-symbol" aria-roledescription="point" transform="translate(167.3534567414029,108.90951276102089)" d="M3.873,0A3.873,3.873,0,1,1,-3.873,0A3.873,3.873,0,1,1,3.873,0" fill="#36B7B4" stroke-width="2" opacity="0.75"/><path aria-label="Debt (% of GDP), previous year: 49.3987402176; Primary balance (% of GDP): −1.30900939639; era: 1975–1999" role="graphics-symbol" aria-roledescription="point" transform="translate(172.89559076159574,82.58459061050294)" d="M3.873,0A3.873,3.873,0,1,1,-3.873,0A3.873,3.873,0,1,1,3.873,0" fill="#36B7B4" stroke-width="2" opacity="0.75"/><path aria-label="Debt (% of GDP), previous year: 47.867739355; Primary balance (% of GDP): −0.323238171051; era: 1975–1999" role="graphics-symbol" aria-roledescription="point" transform="translate(167.53708774234667,67.25037154968044)" d="M3.873,0A3.873,3.873,0,1,1,-3.873,0A3.873,3.873,0,1,1,3.873,0" fill="#36B7B4" stroke-width="2" opacity="0.75"/><path aria-label="Debt (% of GDP), previous year: 44.3965420957; Primary balance (% of GDP): −1.0555862227; era: 1975–1999" role="graphics-symbol" aria-roledescription="point" transform="translate(155.38789733509057,78.64245235309569)" d="M3.873,0A3.873,3.873,0,1,1,-3.873,0A3.873,3.873,0,1,1,3.873,0" fill="#36B7B4" stroke-width="2" opacity="0.75"/><path aria-label="Debt (% of GDP), previous year: 42.254058488; Primary balance (% of GDP): −0.0697770579925; era: 1975–1999" role="graphics-symbol" aria-roledescription="point" transform="translate(147.88920470803683,63.30764312432758)" d="M3.873,0A3.873,3.873,0,1,1,-3.873,0A3.873,3.873,0,1,1,3.873,0" fill="#36B7B4" stroke-width="2" opacity="0.75"/><path aria-label="Debt (% of GDP), previous year: 39.1473687148; Primary balance (% of GDP): −0.557577663941; era: 1975–1999" role="graphics-symbol" aria-roledescription="point" transform="translate(137.01579050177995,70.89565255018658)" d="M3.873,0A3.873,3.873,0,1,1,-3.873,0A3.873,3.873,0,1,1,3.873,0" fill="#36B7B4" stroke-width="2" opacity="0.75"/><path aria-label="Debt (% of GDP), previous year: 40.4034666032; Primary balance (% of GDP): 1.93000782617; era: 1975–1999" role="graphics-symbol" aria-roledescription="point" transform="translate(141.41213311131546,32.19987825955197)" d="M3.873,0A3.873,3.873,0,1,1,-3.873,0A3.873,3.873,0,1,1,3.873,0" fill="#36B7B4" stroke-width="2" opacity="0.75"/><path aria-label="Debt (% of GDP), previous year: 40.0917113909; Primary balance (% of GDP): 1.02969158198; era: 1975–1999" role="graphics-symbol" aria-roledescription="point" transform="translate(140.3209898681969,46.204797613633495)" d="M3.873,0A3.873,3.873,0,1,1,-3.873,0A3.873,3.873,0,1,1,3.873,0" fill="#36B7B4" stroke-width="2" opacity="0.75"/><path aria-label="Debt (% of GDP), previous year: 38.7226493891; Primary balance (% of GDP): 0.1625029368; era: 1975–1999" role="graphics-symbol" aria-roledescription="point" transform="translate(135.52927286170606,59.694398760887914)" d="M3.873,0A3.873,3.873,0,1,1,-3.873,0A3.873,3.873,0,1,1,3.873,0" fill="#36B7B4" stroke-width="2" opacity="0.75"/><path aria-label="Debt (% of GDP), previous year: 38.8783751222; Primary balance (% of GDP): 0.36840917287; era: 1975–1999" role="graphics-symbol" aria-roledescription="point" transform="translate(136.07431292760117,56.49141286647417)" d="M3.873,0A3.873,3.873,0,1,1,-3.873,0A3.873,3.873,0,1,1,3.873,0" fill="#36B7B4" stroke-width="2" opacity="0.75"/><path aria-label="Debt (% of GDP), previous year: 38.7384586535; Primary balance (% of GDP): 1.31130424101; era: 1975–1999" role="graphics-symbol" aria-roledescription="point" transform="translate(135.58460528718277,41.824156250959675)" d="M3.873,0A3.873,3.873,0,1,1,-3.873,0A3.873,3.873,0,1,1,3.873,0" fill="#36B7B4" stroke-width="2" opacity="0.75"/><path aria-label="Debt (% of GDP), previous year: 37.1051159392; Primary balance (% of GDP): 1.35740145164; era: 1975–1999" role="graphics-symbol" aria-roledescription="point" transform="translate(129.86790578725638,41.107088529980935)" d="M3.873,0A3.873,3.873,0,1,1,-3.873,0A3.873,3.873,0,1,1,3.873,0" fill="#36B7B4" stroke-width="2" opacity="0.75"/><path aria-label="Debt (% of GDP), previous year: 34.8439290995; Primary balance (% of GDP): 1.99341852985; era: 1975–1999" role="graphics-symbol" aria-roledescription="point" transform="translate(121.95375184809872,31.21348953564506)" d="M3.873,0A3.873,3.873,0,1,1,-3.873,0A3.873,3.873,0,1,1,3.873,0" fill="#36B7B4" stroke-width="2" opacity="0.75"/><path aria-label="Debt (% of GDP), previous year: 30.971781266; Primary balance (% of GDP): 3.61867472413; era: 1975–1999" role="graphics-symbol" aria-roledescription="point" transform="translate(108.4012344308519,5.931726513462596)" d="M3.873,0A3.873,3.873,0,1,1,-3.873,0A3.873,3.873,0,1,1,3.873,0" fill="#36B7B4" stroke-width="2" opacity="0.75"/><path aria-label="Debt (% of GDP), previous year: 25.6138918284; Primary balance (% of GDP): 2.28096808807; era: 1975–1999" role="graphics-symbol" aria-roledescription="point" transform="translate(89.64862139934839,26.74049640786514)" d="M3.873,0A3.873,3.873,0,1,1,-3.873,0A3.873,3.873,0,1,1,3.873,0" fill="#36B7B4" stroke-width="2" opacity="0.75"/><path aria-label="Debt (% of GDP), previous year: 23.0689791331; Primary balance (% of GDP): 1.00681016875; era: 1975–1999" role="graphics-symbol" aria-roledescription="point" transform="translate(80.74142696595085,46.56073070828239)" d="M3.873,0A3.873,3.873,0,1,1,-3.873,0A3.873,3.873,0,1,1,3.873,0" fill="#36B7B4" stroke-width="2" opacity="0.75"/><path aria-label="Debt (% of GDP), previous year: 21.6702281756; Primary balance (% of GDP): −1.53555553074; era: 1975–1999" role="graphics-symbol" aria-roledescription="point" transform="translate(75.84579861459693,86.10864158923037)" d="M3.873,0A3.873,3.873,0,1,1,-3.873,0A3.873,3.873,0,1,1,3.873,0" fill="#36B7B4" stroke-width="2" opacity="0.75"/><path aria-label="Debt (% of GDP), previous year: 22.8178849279; Primary balance (% of GDP): −4.30743414687; era: 1975–1999" role="graphics-symbol" aria-roledescription="point" transform="translate(79.86259724781627,129.2267533957488)" d="M3.873,0A3.873,3.873,0,1,1,-3.873,0A3.873,3.873,0,1,1,3.873,0" fill="#36B7B4" stroke-width="2" opacity="0.75"/><path aria-label="Debt (% of GDP), previous year: 26.6017017711; Primary balance (% of GDP): −4.39460119942; era: 1975–1999" role="graphics-symbol" aria-roledescription="point" transform="translate(93.10595619876305,130.58268532433218)" d="M3.873,0A3.873,3.873,0,1,1,-3.873,0A3.873,3.873,0,1,1,3.873,0" fill="#36B7B4" stroke-width="2" opacity="0.75"/><path aria-label="Debt (% of GDP), previous year: 31.0922361516; Primary balance (% of GDP): −2.93730798479; era: 1975–1999" role="graphics-symbol" aria-roledescription="point" transform="translate(108.82282653071385,107.91367976341357)" d="M3.873,0A3.873,3.873,0,1,1,-3.873,0A3.873,3.873,0,1,1,3.873,0" fill="#36B7B4" stroke-width="2" opacity="0.75"/><path aria-label="Debt (% of GDP), previous year: 34.451993523; Primary balance (% of GDP): −1.47326035911; era: 1975–1999" role="graphics-symbol" aria-roledescription="point" transform="translate(120.58197733058827,85.13960558622442)" d="M3.873,0A3.873,3.873,0,1,1,-3.873,0A3.873,3.873,0,1,1,3.873,0" fill="#36B7B4" stroke-width="2" opacity="0.75"/><path aria-label="Debt (% of GDP), previous year: 35.9567268997; Primary balance (% of GDP): −0.511474016513; era: 1975–1999" role="graphics-symbol" aria-roledescription="point" transform="translate(125.84854414885483,70.17848470131133)" d="M3.873,0A3.873,3.873,0,1,1,-3.873,0A3.873,3.873,0,1,1,3.873,0" fill="#36B7B4" stroke-width="2" opacity="0.75"/><path aria-label="Debt (% of GDP), previous year: 36.5174362865; Primary balance (% of GDP): 1.541342226; era: 1975–1999" role="graphics-symbol" aria-roledescription="point" transform="translate(127.81102700290772,38.24578759561468)" d="M3.873,0A3.873,3.873,0,1,1,-3.873,0A3.873,3.873,0,1,1,3.873,0" fill="#36B7B4" stroke-width="2" opacity="0.75"/><path aria-label="Debt (% of GDP), previous year: 36.4611260054; Primary balance (% of GDP): 2.45607426501; era: 1975–1999" role="graphics-symbol" aria-roledescription="point" transform="translate(127.61394101876674,24.016622544259878)" d="M3.873,0A3.873,3.873,0,1,1,-3.873,0A3.873,3.873,0,1,1,3.873,0" fill="#36B7B4" stroke-width="2" opacity="0.75"/><path aria-label="Debt (% of GDP), previous year: 35.0613936494; Primary balance (% of GDP): 3.15870432141; era: 1975–1999" role="graphics-symbol" aria-roledescription="point" transform="translate(122.71487777275658,13.086821666945735)" d="M3.873,0A3.873,3.873,0,1,1,-3.873,0A3.873,3.873,0,1,1,3.873,0" fill="#36B7B4" stroke-width="2" opacity="0.75"/><path aria-label="Debt (% of GDP), previous year: 32.350606219; Primary balance (% of GDP): 3.36112122674; era: 2000–2024" role="graphics-symbol" aria-roledescription="point" transform="translate(113.22712176665627,9.938114250782192)" d="M3.873,0A3.873,3.873,0,1,1,-3.873,0A3.873,3.873,0,1,1,3.873,0" fill="#E6224B" stroke-width="2" opacity="0.75"/><path aria-label="Debt (% of GDP), previous year: 28.2080527859; Primary balance (% of GDP): 1.20353402295; era: 2000–2024" role="graphics-symbol" aria-roledescription="point" transform="translate(98.72818475048138,43.50058186525542)" d="M3.873,0A3.873,3.873,0,1,1,-3.873,0A3.873,3.873,0,1,1,3.873,0" fill="#E6224B" stroke-width="2" opacity="0.75"/><path aria-label="Debt (% of GDP), previous year: 27.9783485158; Primary balance (% of GDP): −1.24439530437; era: 2000–2024" role="graphics-symbol" aria-roledescription="point" transform="translate(97.92421980521792,81.57948251239473)" d="M3.873,0A3.873,3.873,0,1,1,-3.873,0A3.873,3.873,0,1,1,3.873,0" fill="#E6224B" stroke-width="2" opacity="0.75"/><path aria-label="Debt (% of GDP), previous year: 29.7310834773; Primary balance (% of GDP): −1.65349868581; era: 2000–2024" role="graphics-symbol" aria-roledescription="point" transform="translate(104.0587921707073,87.9433128903931)" d="M3.873,0A3.873,3.873,0,1,1,-3.873,0A3.873,3.873,0,1,1,3.873,0" fill="#E6224B" stroke-width="2" opacity="0.75"/><path aria-label="Debt (% of GDP), previous year: 30.8337303478; Primary balance (% of GDP): −2.03993265088; era: 2000–2024" role="graphics-symbol" aria-roledescription="point" transform="translate(107.91805621724632,93.954507902579)" d="M3.873,0A3.873,3.873,0,1,1,-3.873,0A3.873,3.873,0,1,1,3.873,0" fill="#E6224B" stroke-width="2" opacity="0.75"/><path aria-label="Debt (% of GDP), previous year: 33.3525821657; Primary balance (% of GDP): −1.40366701158; era: 2000–2024" role="graphics-symbol" aria-roledescription="point" transform="translate(116.7340375800889,84.05704240231414)" d="M3.873,0A3.873,3.873,0,1,1,-3.873,0A3.873,3.873,0,1,1,3.873,0" fill="#E6224B" stroke-width="2" opacity="0.75"/><path aria-label="Debt (% of GDP), previous year: 34.1767101529; Primary balance (% of GDP): −0.869531446692; era: 2000–2024" role="graphics-symbol" aria-roledescription="point" transform="translate(119.61848553512145,75.7482669485498)" d="M3.873,0A3.873,3.873,0,1,1,-3.873,0A3.873,3.873,0,1,1,3.873,0" fill="#E6224B" stroke-width="2" opacity="0.75"/><path aria-label="Debt (% of GDP), previous year: 34.9307813152; Primary balance (% of GDP): −1.09324415192; era: 2000–2024" role="graphics-symbol" aria-roledescription="point" transform="translate(122.25773460307681,79.22824236324799)" d="M3.873,0A3.873,3.873,0,1,1,-3.873,0A3.873,3.873,0,1,1,3.873,0" fill="#E6224B" stroke-width="2" opacity="0.75"/><path aria-label="Debt (% of GDP), previous year: 35.4670241716; Primary balance (% of GDP): −5.37731591755; era: 2000–2024" role="graphics-symbol" aria-roledescription="point" transform="translate(124.1345846006083,145.86935871737475)" d="M3.873,0A3.873,3.873,0,1,1,-3.873,0A3.873,3.873,0,1,1,3.873,0" fill="#E6224B" stroke-width="2" opacity="0.75"/><path aria-label="Debt (% of GDP), previous year: 50.243494578; Primary balance (% of GDP): −8.1880834934; era: 2000–2024" role="graphics-symbol" aria-roledescription="point" transform="translate(175.8522310230602,189.59240989731012)" d="M3.873,0A3.873,3.873,0,1,1,-3.873,0A3.873,3.873,0,1,1,3.873,0" fill="#E6224B" stroke-width="2" opacity="0.75"/><path aria-label="Debt (% of GDP), previous year: 64.3854785346; Primary balance (% of GDP): −6.12697697262; era: 2000–2024" role="graphics-symbol" aria-roledescription="point" transform="translate(225.3491748711852,157.53075290749382)" d="M3.873,0A3.873,3.873,0,1,1,-3.873,0A3.873,3.873,0,1,1,3.873,0" fill="#E6224B" stroke-width="2" opacity="0.75"/><path aria-label="Debt (% of GDP), previous year: 70.6228857549; Primary balance (% of GDP): −4.67798614701; era: 2000–2024" role="graphics-symbol" aria-roledescription="point" transform="translate(247.18010014224893,134.99089562018747)" d="M3.873,0A3.873,3.873,0,1,1,-3.873,0A3.873,3.873,0,1,1,3.873,0" fill="#E6224B" stroke-width="2" opacity="0.75"/><path aria-label="Debt (% of GDP), previous year: 73.8803561208; Primary balance (% of GDP): −4.88707317861; era: 2000–2024" role="graphics-symbol" aria-roledescription="point" transform="translate(258.58124642271093,138.2433605561683)" d="M3.873,0A3.873,3.873,0,1,1,-3.873,0A3.873,3.873,0,1,1,3.873,0" fill="#E6224B" stroke-width="2" opacity="0.75"/><path aria-label="Debt (% of GDP), previous year: 77.1674757898; Primary balance (% of GDP): −3.56595409385; era: 2000–2024" role="graphics-symbol" aria-roledescription="point" transform="translate(270.0861652644689,117.69261923759011)" d="M3.873,0A3.873,3.873,0,1,1,-3.873,0A3.873,3.873,0,1,1,3.873,0" fill="#E6224B" stroke-width="2" opacity="0.75"/><path aria-label="Debt (% of GDP), previous year: 78.7650740427; Primary balance (% of GDP): −3.35625920892; era: 2000–2024" role="graphics-symbol" aria-roledescription="point" transform="translate(275.6777591495463,114.43069880549818)" d="M3.873,0A3.873,3.873,0,1,1,-3.873,0A3.873,3.873,0,1,1,3.873,0" fill="#E6224B" stroke-width="2" opacity="0.75"/><path aria-label="Debt (% of GDP), previous year: 81.0511422837; Primary balance (% of GDP): −2.40493415857; era: 2000–2024" role="graphics-symbol" aria-roledescription="point" transform="translate(283.6789979929149,99.63230913337325)" d="M3.873,0A3.873,3.873,0,1,1,-3.873,0A3.873,3.873,0,1,1,3.873,0" fill="#E6224B" stroke-width="2" opacity="0.75"/><path aria-label="Debt (% of GDP), previous year: 80.5863655953; Primary balance (% of GDP): −0.891413326703; era: 2000–2024" role="graphics-symbol" aria-roledescription="point" transform="translate(282.052279583659,76.08865174871693)" d="M3.873,0A3.873,3.873,0,1,1,-3.873,0A3.873,3.873,0,1,1,3.873,0" fill="#E6224B" stroke-width="2" opacity="0.75"/><path aria-label="Debt (% of GDP), previous year: 82.7086965457; Primary balance (% of GDP): −0.866208869029; era: 2000–2024" role="graphics-symbol" aria-roledescription="point" transform="translate(289.48043790986503,75.69658240712148)" d="M3.873,0A3.873,3.873,0,1,1,-3.873,0A3.873,3.873,0,1,1,3.873,0" fill="#E6224B" stroke-width="2" opacity="0.75"/><path aria-label="Debt (% of GDP), previous year: 81.6067684685; Primary balance (% of GDP): −0.433091199855; era: 2000–2024" role="graphics-symbol" aria-roledescription="point" transform="translate(285.623689639868,68.95919644219406)" d="M3.873,0A3.873,3.873,0,1,1,-3.873,0A3.873,3.873,0,1,1,3.873,0" fill="#E6224B" stroke-width="2" opacity="0.75"/><path aria-label="Debt (% of GDP), previous year: 79.644005645; Primary balance (% of GDP): −1.21284446068; era: 2000–2024" role="graphics-symbol" aria-roledescription="point" transform="translate(278.75401975763293,81.08869161063757)" d="M3.873,0A3.873,3.873,0,1,1,-3.873,0A3.873,3.873,0,1,1,3.873,0" fill="#E6224B" stroke-width="2" opacity="0.75"/><path aria-label="Debt (% of GDP), previous year: 84.4997931482; Primary balance (% of GDP): −13.7395995063; era: 2000–2024" role="graphics-symbol" aria-roledescription="point" transform="translate(295.74927601854176,275.9493256543298)" d="M3.873,0A3.873,3.873,0,1,1,-3.873,0A3.873,3.873,0,1,1,3.873,0" fill="#E6224B" stroke-width="2" opacity="0.75"/><path aria-label="Debt (% of GDP), previous year: 95.3810284209; Primary balance (% of GDP): −2.97996415594; era: 2000–2024" role="graphics-symbol" aria-roledescription="point" transform="translate(333.8335994731494,108.5772202035755)" d="M3.873,0A3.873,3.873,0,1,1,-3.873,0A3.873,3.873,0,1,1,3.873,0" fill="#E6224B" stroke-width="2" opacity="0.75"/><path aria-label="Debt (% of GDP), previous year: 94.313910668; Primary balance (% of GDP): −1.17498299382; era: 2000–2024" role="graphics-symbol" aria-roledescription="point" transform="translate(330.09868733797725,80.49973545937614)" d="M3.873,0A3.873,3.873,0,1,1,-3.873,0A3.873,3.873,0,1,1,3.873,0" fill="#E6224B" stroke-width="2" opacity="0.75"/><path aria-label="Debt (% of GDP), previous year: 93.2141695791; Primary balance (% of GDP): −1.86572379904; era: 2000–2024" role="graphics-symbol" aria-roledescription="point" transform="translate(326.2495935268976,91.2445924295806)" d="M3.873,0A3.873,3.873,0,1,1,-3.873,0A3.873,3.873,0,1,1,3.873,0" fill="#E6224B" stroke-width="2" opacity="0.75"/><path aria-label="Debt (% of GDP), previous year: 94.2; Primary balance (% of GDP): −2.37185429561; era: 2000–2024" role="graphics-symbol" aria-roledescription="point" transform="translate(329.70000000000005,99.11773348722937)" d="M3.873,0A3.873,3.873,0,1,1,-3.873,0A3.873,3.873,0,1,1,3.873,0" fill="#E6224B" stroke-width="2" opacity="0.75"/></g><g class="mark-group role-scope layer_2_pathgroup" role="graphics-object" aria-roledescription="group mark container"><g transform="translate(0,0)"><path class="background" aria-hidden="true" d="M0,0h350v280h-350Z"/><g><g class="mark-line role-mark layer_2_marks" role="graphics-object" aria-roledescription="line mark container"><path aria-label="Debt (% of GDP), previous year: 21.6702281756; Primary balance (% of GDP): −0.269319020591; era: 1975–1999" role="graphics-symbol" aria-roledescription="line mark" d="M75.846,66.412L172.896,57.414" stroke="#36B7B4" stroke-width="2.5"/></g></g><path class="foreground" aria-hidden="true" d="" display="none"/></g><g transform="translate(0,0)"><path class="background" aria-hidden="true" d="M0,0h350v280h-350Z"/><g><g class="mark-line role-mark layer_2_marks" role="graphics-object" aria-roledescription="line mark container"><path aria-label="Debt (% of GDP), previous year: 27.9783485158; Primary balance (% of GDP): −1.57484546243; era: 2000–2024" role="graphics-symbol" aria-roledescription="line mark" d="M97.924,86.72L333.834,121.059" stroke="#E6224B" stroke-width="2.5"/></g></g><path class="foreground" aria-hidden="true" d="" display="none"/></g></g><g class="mark-group role-legend" role="graphics-symbol" aria-roledescription="legend" aria-label="Symbol legend for fill color and stroke color with 2 values: 1975–1999, 2000–2024"><g transform="translate(0,-31)"><path class="background" aria-hidden="true" d="M0,0h155v13h-155Z" pointer-events="none"/><g><g class="mark-group role-legend-entry"><g transform="translate(0,0)"><path class="background" aria-hidden="true" d="M0,0h0v0h0Z" pointer-events="none"/><g><g class="mark-group role-scope" role="graphics-object" aria-roledescription="group mark container"><g transform="translate(0,0.25)"><path class="background" aria-hidden="true" d="M0,0h68.11799621582031v12.5h-68.11799621582031Z" pointer-events="none" opacity="1"/><g><g class="mark-symbol role-legend-symbol" pointer-events="none"><path transform="translate(6,6)" d="M5,0A5,5,0,1,1,-5,0A5,5,0,1,1,5,0" fill="#36B7B4" stroke="#36B7B4" stroke-width="1.5" opacity="0.75"/></g><g class="mark-text role-legend-label" pointer-events="none"><text text-anchor="start" transform="translate(16,9)" font-family="Circular Std" font-size="11px" fill="#122b39" opacity="1">1975–1999</text></g></g><path class="foreground" aria-hidden="true" d="" pointer-events="none" display="none"/></g><g transform="translate(80,0.25)"><path class="background" aria-hidden="true" d="M0,0h74.2449951171875v12.5h-74.2449951171875Z" pointer-events="none" opacity="1"/><g><g class="mark-symbol role-legend-symbol" pointer-events="none"><path transform="translate(6,6)" d="M5,0A5,5,0,1,1,-5,0A5,5,0,1,1,5,0" fill="#E6224B" stroke="#E6224B" stroke-width="1.5" opacity="0.75"/></g><g class="mark-text role-legend-label" pointer-events="none"><text text-anchor="start" transform="translate(16,9)" font-family="Circular Std" font-size="11px" fill="#122b39" opacity="1">2000–2024</text></g></g><path class="foreground" aria-hidden="true" d="" pointer-events="none" display="none"/></g></g></g><path class="foreground" aria-hidden="true" d="" pointer-events="none" display="none"/></g></g></g><path class="foreground" aria-hidden="true" d="" pointer-events="none" display="none"/></g></g><g class="mark-group role-title"><g transform="translate(0,316)"><path class="background" aria-hidden="true" d="M0,0h0v0h0Z" pointer-events="none"/><g><g class="mark-text role-title-text" role="graphics-symbol" aria-roledescription="title" aria-label="Title text 'Source: author's calculation; OBR public finances databank'" pointer-events="none"><text text-anchor="start" transform="translate(0,21)" font-family="Circular Std" font-size="11px" font-weight="bold" fill="#676A86" opacity="1">Source: author's calculation; OBR public finances databank</text></g><g class="mark-text role-title-subtitle" role="graphics-symbol" aria-roledescription="subtitle" aria-label="Subtitle text 'UK primary balance vs previous-year debt, by period.'" pointer-events="none"><text text-anchor="start" transform="translate(0,35)" font-family="Circular Std" font-size="10px" fill="#676A86" opacity="1">UK primary balance vs previous-year debt, by period.</text></g></g><path class="foreground" aria-hidden="true" d="" pointer-events="none" display="none"/></g></g></g><path class="foreground" aria-hidden="true" d="" display="none"/></g></g></g></svg>