<svg xmlns="http://www.w3.org/2000/svg" xmlns:xlink="http://www.w3.org/1999/xlink" version="1.1" class="marks" width="1102" height="886" viewBox="0 0 551 443"><rect width="551" height="443" fill="white"/><g fill="none" stroke-miterlimit="10" transform="translate(44,71)"><g class="mark-group role-frame root" role="graphics-object" aria-roledescription="group mark container"><g transform="translate(0,0)"><path class="background" aria-hidden="true" d="M0.5,0.5h500v350h-500Z"/><g><g class="mark-group role-axis" aria-hidden="true"><g transform="translate(0.5,0.5)"><path class="background" aria-hidden="true" d="M0,0h0v0h0Z" pointer-events="none"/><g><g class="mark-rule role-axis-grid" pointer-events="none"><line transform="translate(0,350)" x2="500" y2="0" stroke="#676A86" stroke-opacity="0.5" stroke-width="1" stroke-dasharray="1,5" opacity="1"/><line transform="translate(0,318)" x2="500" y2="0" stroke="#676A86" stroke-opacity="0.5" stroke-width="1" stroke-dasharray="1,5" opacity="1"/><line transform="translate(0,286)" x2="500" y2="0" stroke="#676A86" stroke-opacity="0.5" stroke-width="1" stroke-dasharray="1,5" opacity="1"/><line transform="translate(0,255)" x2="500" y2="0" stroke="#676A86" stroke-opacity="0.5" stroke-width="1" stroke-dasharray="1,5" opacity="1"/><line transform="translate(0,223)" x2="500" y2="0" stroke="#676A86" stroke-opacity="0.5" stroke-width="1" stroke-dasharray="1,5" opacity="1"/><line transform="translate(0,191)" x2="500" y2="0" stroke="#676A86" stroke-opacity="0.5" stroke-width="1" stroke-dasharray="1,5" opacity="1"/><line transform="translate(0,159)" x2="500" y2="0" stroke="#676A86" stroke-opacity="0.5" stroke-width="1" stroke-dasharray="1,5" opacity="1"/><line transform="translate(0,127)" x2="500" y2="0" stroke="#676A86" stroke-opacity="0.5" stroke-width="1" stroke-dasharray="1,5" opacity="1"/><line transform="translate(0,95)" x2="500" y2="0" stroke="#676A86" stroke-opacity="0.5" stroke-width="1" stroke-dasharray="1,5" opacity="1"/><line transform="translate(0,64)" x2="500" y2="0" stroke="#676A86" stroke-opacity="0.5" stroke-width="1" stroke-dasharray="1,5" opacity="1"/><line transform="translate(0,32)" x2="500" y2="0" stroke="#676A86" stroke-opacity="0.5" stroke-width="1" stroke-dasharray="1,5" opacity="1"/><line transform="translate(0,0)" x2="500" y2="0" stroke="#676A86" stroke-opacity="0.5" stroke-width="1" stroke-dasharray="1,5" opacity="1"/></g></g><path class="foreground" aria-hidden="true" d="" pointer-events="none" display="none"/></g></g><g class="mark-group role-axis" role="graphics-symbol" aria-roledescription="axis" aria-label="X-axis for a time scale with values from Monday, 10 January 2005, 12:00:00 AM to Monday, 31 March 2025, 1:00:00 AM"><g transform="translate(0.5,350.5)"><path class="background" aria-hidden="true" d="M0,0h0v0h0Z" pointer-events="none"/><g><g class="mark-rule role-axis-tick" pointer-events="none"><line transform="translate(24,0)" x2="0" y2="5" stroke="#676A86" stroke-opacity="0.5" stroke-width="1" opacity="1"/><line transform="translate(74,0)" x2="0" y2="5" stroke="#676A86" stroke-opacity="0.5" stroke-width="1" opacity="1"/><line transform="translate(123,0)" x2="0" y2="5" stroke="#676A86" stroke-opacity="0.5" stroke-width="1" opacity="1"/><line transform="translate(172,0)" x2="0" y2="5" stroke="#676A86" stroke-opacity="0.5" stroke-width="1" opacity="1"/><line transform="translate(222,0)" x2="0" y2="5" stroke="#676A86" stroke-opacity="0.5" stroke-width="1" opacity="1"/><line transform="translate(271,0)" x2="0" y2="5" stroke="#676A86" stroke-opacity="0.5" stroke-width="1" opacity="1"/><line transform="translate(321,0)" x2="0" y2="5" stroke="#676A86" stroke-opacity="0.5" stroke-width="1" opacity="1"/><line transform="translate(370,0)" x2="0" y2="5" stroke="#676A86" stroke-opacity="0.5" stroke-width="1" opacity="1"/><line transform="translate(420,0)" x2="0" y2="5" stroke="#676A86" stroke-opacity="0.5" stroke-width="1" opacity="1"/><line transform="translate(469,0)" x2="0" y2="5" stroke="#676A86" stroke-opacity="0.5" stroke-width="1" opacity="1"/></g><g class="mark-text role-axis-label" pointer-events="none"><text text-anchor="middle" transform="translate(24.102911306702776,15)" font-family="Circular Std" font-size="10px" fill="#676A86" fill-opacity="0.7" opacity="1">2006</text><text text-anchor="middle" transform="translate(73.52742044685174,15)" font-family="Circular Std" font-size="10px" fill="#676A86" fill-opacity="0.7" opacity="1">2008</text><text text-anchor="middle" transform="translate(123.01963439404199,15)" font-family="Circular Std" font-size="10px" fill="#676A86" fill-opacity="0.7" opacity="1">2010</text><text text-anchor="middle" transform="translate(172.44414353419094,15)" font-family="Circular Std" font-size="10px" fill="#676A86" fill-opacity="0.7" opacity="1">2012</text><text text-anchor="middle" transform="translate(221.93635748138118,15)" font-family="Circular Std" font-size="10px" fill="#676A86" fill-opacity="0.7" opacity="1">2014</text><text text-anchor="middle" transform="translate(271.36086662153014,15)" font-family="Circular Std" font-size="10px" fill="#676A86" fill-opacity="0.7" opacity="1">2016</text><text text-anchor="middle" transform="translate(320.8530805687204,15)" font-family="Circular Std" font-size="10px" fill="#676A86" fill-opacity="0.7" opacity="1">2018</text><text text-anchor="middle" transform="translate(370.2775897088693,15)" font-family="Circular Std" font-size="10px" fill="#676A86" fill-opacity="0.7" opacity="1">2020</text><text text-anchor="middle" transform="translate(419.7698036560596,15)" font-family="Circular Std" font-size="10px" fill="#676A86" fill-opacity="0.7" opacity="1">2022</text><text text-anchor="middle" transform="translate(469.1943127962085,15)" font-family="Circular Std" font-size="10px" fill="#676A86" fill-opacity="0.7" opacity="1">2024</text></g><g class="mark-rule role-axis-domain" pointer-events="none"><line transform="translate(0,0)" x2="500" y2="0" stroke="#676A86" stroke-opacity="0.5" stroke-width="1" opacity="1"/></g></g><path class="foreground" aria-hidden="true" d="" pointer-events="none" display="none"/></g></g><g class="mark-group role-axis" role="graphics-symbol" aria-roledescription="axis" aria-label="Y-axis for a linear scale with values from $0.0 to $2.2"><g transform="translate(0.5,0.5)"><path class="background" aria-hidden="true" d="M0,0h0v0h0Z" pointer-events="none"/><g><g class="mark-text role-axis-label" pointer-events="none"><text text-anchor="end" transform="translate(-5,353)" font-family="Circular Std" font-size="10px" fill="#676A86" fill-opacity="0.7" opacity="1">$0.0</text><text text-anchor="end" transform="translate(-5,321.1818181818182)" font-family="Circular Std" font-size="10px" fill="#676A86" fill-opacity="0.7" opacity="1">$0.2</text><text text-anchor="end" transform="translate(-5,289.3636363636363)" font-family="Circular Std" font-size="10px" fill="#676A86" fill-opacity="0.7" opacity="1">$0.4</text><text text-anchor="end" transform="translate(-5,257.54545454545456)" font-family="Circular Std" font-size="10px" fill="#676A86" fill-opacity="0.7" opacity="1">$0.6</text><text text-anchor="end" transform="translate(-5,225.72727272727272)" font-family="Circular Std" font-size="10px" fill="#676A86" fill-opacity="0.7" opacity="1">$0.8</text><text text-anchor="end" transform="translate(-5,193.9090909090909)" font-family="Circular Std" font-size="10px" fill="#676A86" fill-opacity="0.7" opacity="1">$1.0</text><text text-anchor="end" transform="translate(-5,162.0909090909091)" font-family="Circular Std" font-size="10px" fill="#676A86" fill-opacity="0.7" opacity="1">$1.2</text><text text-anchor="end" transform="translate(-5,130.2727272727273)" font-family="Circular Std" font-size="10px" fill="#676A86" fill-opacity="0.7" opacity="1">$1.4</text><text text-anchor="end" transform="translate(-5,98.45454545454545)" font-family="Circular Std" font-size="10px" fill="#676A86" fill-opacity="0.7" opacity="1">$1.6</text><text text-anchor="end" transform="translate(-5,66.63636363636365)" font-family="Circular Std" font-size="10px" fill="#676A86" fill-opacity="0.7" opacity="1">$1.8</text><text text-anchor="end" transform="translate(-5,34.81818181818183)" font-family="Circular Std" font-size="10px" fill="#676A86" fill-opacity="0.7" opacity="1">$2.0</text><text text-anchor="end" transform="translate(-5,3)" font-family="Circular Std" font-size="10px" fill="#676A86" fill-opacity="0.7" opacity="1">£1=$2.2</text></g><g class="mark-rule role-axis-domain" pointer-events="none"><line transform="translate(0,350)" x2="0" y2="-350" stroke="#676A86" stroke-opacity="0.5" stroke-width="1" opacity="1"/></g></g><path class="foreground" aria-hidden="true" d="" pointer-events="none" display="none"/></g></g><g class="mark-line role-mark layer_0_marks" role="graphics-object" aria-roledescription="line mark container"><path aria-label="date: Jan 10, 2005; rate: $1.9" role="graphics-symbol" aria-roledescription="line mark" d="M0,51.736L0.474,54.202L0.948,51.593L1.422,49.97L1.896,53.184L2.37,49.811L2.844,48.205L3.318,43.639L3.791,45.516L4.265,45.834L4.739,48.332L5.687,52.15L6.161,49.286L6.635,47.123L7.109,45.898L8.057,50.464L8.531,58.1L9.005,58.975L9.953,60.566L10.427,63.445L10.9,59.818L11.374,59.468L11.848,69.809L12.322,70.7L12.796,71.511L13.27,72.514L13.744,68.361L14.218,65.673L14.692,62.252L15.166,63.207L16.114,56.748L16.588,60.105L17.062,62.857L17.536,67.789L18.009,70.859L18.483,71.225L18.957,71.098L19.431,68.568L19.905,68.409L20.379,72.848L20.853,73.452L21.327,76.555L21.801,76.284L22.275,73.691L22.749,68.027L23.223,69.602L24.645,69.38L25.118,68.886L25.592,65.991L26.066,68.68L26.54,71.464L27.014,72.752L27.488,72.402L27.962,73.261L28.436,71.416L28.91,74.9L29.384,70.716L29.858,71.909L30.332,73.627L30.806,72.609L31.754,66.42L32.701,54.314L33.175,50.575L33.649,50.814L34.597,51.386L35.071,56.907L35.545,57.623L36.019,60.789L36.493,56.605L36.967,57.114L37.441,60.566L37.915,55.666L38.389,52.961L38.863,46.168L39.336,48.952L39.81,48.205L40.758,46.964L41.232,53.693L41.706,51.402L42.18,47.839L42.654,50.114L43.128,53.248L43.602,54.059L44.076,52.182L44.55,47.33L45.024,48.284L45.498,47.218L45.972,48.157L46.445,41.841L46.919,35.175L47.393,39.152L47.867,40.441L49.289,42.207L49.763,37.164L50.237,35.589L50.711,38.516L51.185,38.166L51.659,40.139L52.133,40.155L52.607,37.689L53.081,43.591L53.555,43.098L54.028,40.393L54.502,36.83L54.976,35.366L55.924,33.393L56.398,31.77L56.872,31.866L57.82,34.92L58.294,36.702L59.242,33.218L59.716,37.036L60.19,34.873L60.664,32.359L61.137,29.655L61.611,29.416L62.085,26.059L62.559,22.591L63.033,27.968L63.507,26.823L63.981,29.973L64.455,34.093L65.403,28.955L65.877,27.284L66.351,31.786L66.825,28.302L67.299,24.977L67.773,25.836L68.246,25.105L68.72,27.427L69.194,22.13L69.668,18.995L70.142,22.4L70.616,23.561L71.09,21.032L71.564,21.111L72.038,24.468L72.512,29.416L72.986,34.889L73.46,33.266L73.934,35.716L74.408,38.389L74.882,40.584L75.355,33.823L75.829,35.684L76.303,40.139L76.777,39.486L77.251,36.925L77.725,34.602L78.199,29.177L78.673,31.691L79.621,33.807L80.095,33.473L80.569,34.395L81.043,34.873L81.517,32.645L82.464,37.991L82.938,39.964L83.886,37.593L84.36,35.541L84.834,37.609L85.308,38.277L85.782,33.393L86.256,36.67L86.73,33.123L87.204,32.47L87.678,33.218L88.152,37.275L88.626,44.927L89.1,53.168L90.047,63.827L90.521,69.316L90.995,64.639L91.469,56.62L91.943,62.141L92.417,74.152L92.891,72.927L93.365,77.398L93.839,103.918L94.313,97.873L94.787,100.211L95.261,111.65L95.735,109.932L96.209,113.925L96.682,113.575L97.156,105.605L97.63,115.611L98.104,118.38L98.578,118.252L99.052,113.893L99.526,118.984L100,128.259L100.474,124.695L100.948,112.764L101.422,123.439L101.896,118.411L102.37,127.177L102.844,131.155L103.318,125.841L103.791,119.398L104.265,124.266L104.739,114.593L105.687,118.698L106.161,116.725L107.109,109.582L107.583,106.495L108.531,88.645L109.005,95.693L109.479,90.077L109.953,89.186L110.427,86.736L110.9,92.289L111.374,93.8L111.848,87.945L112.322,87.548L112.796,80.691L113.27,86.959L113.744,90.507L114.218,88.884L115.166,89.489L115.64,85.686L116.114,92.559L116.588,97.316L117.062,96.33L117.536,98.859L118.009,89.234L118.483,89.87L118.957,89.425L119.431,83.57L119.905,83.173L120.379,85.686L120.853,88.916L121.327,88.598L121.801,91.255L122.275,94.341L123.223,93.53L123.697,92.718L124.171,90.093L124.645,92.145L125.118,96.998L125.592,101.182L126.066,100.975L126.54,103.536L127.014,112.334L127.488,110.25L127.962,110.695L128.436,110.25L128.91,111.666L129.858,105.159L130.332,106.559L130.806,103.966L131.754,111.523L132.227,120.416L132.701,120.782L133.649,119.398L134.123,114.736L134.597,114.259L135.071,109.645L135.545,109.614L136.019,110.186L136.493,107.975L136.967,103.839L137.441,97.093L137.915,96.123L138.389,100.641L138.863,103.314L139.81,104.793L140.284,104.459L140.758,102.184L141.232,98.111L141.706,98.016L142.18,96.95L142.654,97.045L143.128,99.861L143.602,94.675L144.076,93.259L144.55,94.373L145.024,96.345L145.498,102.932L145.972,100.434L146.445,97.73L146.919,103.457L148.341,102.295L148.815,96.902L149.289,95.407L149.763,95.2L150.237,93.689L150.711,95.55L151.185,91.955L151.659,91.239L152.133,91.764L152.607,92.607L153.081,91.095L153.555,95.28L154.028,93.18L154.502,88.868L154.976,92.273L156.398,90.682L156.872,91.732L157.346,93.577L158.294,89.886L158.768,90.57L159.242,92.098L159.716,95.407L160.19,94.436L160.664,97.252L161.137,95.152L161.611,90.936L162.085,91.334L162.559,90.507L163.033,89.043L163.507,88.439L164.455,93.816L164.929,98.605L165.403,101.134L165.877,102.677L166.351,103.775L166.825,100.657L167.299,98.986L167.773,96.17L168.246,93.211L168.72,94.961L169.194,97.03L169.668,101.405L170.142,102.693L170.616,100.084L171.09,101.5L171.564,102.9L172.986,104.268L173.46,106.145L173.934,101.898L174.408,100.53L174.882,98.716L175.355,98.78L175.829,97.523L176.303,98L176.777,97.491L177.251,101.58L177.725,97.157L178.199,96.457L178.673,95.216L179.621,97.984L180.095,93.927L180.569,91.652L181.517,93.8L181.991,98.589L182.464,100.132L183.412,103.266L183.886,100.705L184.36,102.439L184.834,100.402L185.308,103.043L185.782,101.516L186.256,103.218L186.73,100.307L187.204,101.564L187.678,100.164L188.152,100.148L189.1,97.093L189.573,95.28L190.047,91.207L190.521,92.352L190.995,93.036L191.469,95.057L191.943,94.627L192.417,94.914L192.891,95.057L193.365,95.9L193.839,97.57L194.313,96.823L194.787,95.073L195.261,93.927L195.735,94.277L196.209,92.305L196.682,92.623L197.156,92.782L197.63,94.134L198.104,94.373L198.578,98.095L199.052,100.084L199.526,99.623L200,100.832L200.474,103.727L200.948,109.63L201.422,110.25L201.896,113.018L202.37,109.63L202.844,108.452L203.791,106.877L204.265,106.4L204.739,107.45L205.213,103.505L206.161,105.891L206.635,107.832L207.583,106.67L208.057,102.995L208.531,100.02L209.005,105.016L209.479,107.784L209.953,112.35L210.427,109.709L210.9,105.477L211.374,105.827L211.848,106.114L212.322,103.711L212.796,100.705L213.744,102.375L214.218,99.893L214.692,96.489L215.166,94.945L215.64,92.368L216.114,94.182L216.588,95.2L217.062,92.925L217.536,93.37L218.009,96.218L218.483,95.884L218.957,93.657L219.431,93.005L219.905,89.6L220.379,89.298L220.853,90.698L221.327,89.775L221.801,87.102L222.275,88.916L222.749,89.361L223.223,88.757L223.697,86.323L224.171,90.173L224.645,89.123L225.118,84.143L225.592,85.416L226.066,84.048L226.54,85.384L227.014,85.209L227.488,87.675L227.962,84.748L228.436,85.734L228.91,83.761L229.858,82.616L230.806,81.582L231.28,82.298L232.227,83.411L232.701,82.823L233.175,79.768L233.649,79.418L234.123,78.002L234.597,77.493L235.071,78.13L235.545,78.511L236.019,79.545L236.493,82.091L236.967,82.886L237.441,83.952L238.389,85.67L238.863,92.893L239.336,91.732L239.81,90.252L240.284,91.605L240.758,95.343L241.232,94.548L241.706,93.37L242.18,93.339L242.654,95.805L243.128,97.507L243.602,101.039L244.076,100.259L244.55,99.877L245.024,101.5L245.498,101.595L245.972,101.357L246.445,102.948L246.919,107.545L247.393,109.184L247.867,108.85L248.341,110.552L248.815,110.807L249.289,107.545L249.763,105.334L250.237,104.22L250.711,105.605L251.185,109.836L251.659,114.545L252.133,112.382L252.607,114.45L253.555,117.059L254.028,112.716L254.502,108.007L255.45,102.423L255.924,100.514L256.872,108.07L257.346,107.005L257.82,102.741L258.294,98.334L258.768,99.527L259.242,101.786L259.716,102.995L260.19,101.945L260.664,102.168L261.137,101.516L261.611,102.709L262.085,101.834L262.559,99.623L263.507,107.116L263.981,105.27L264.455,103.664L264.929,108.58L265.403,108.516L265.877,105.907L266.351,103.727L266.825,105.62L267.299,104.555L267.773,109.645L268.246,108.214L268.72,109.28L269.194,110.52L269.668,110.234L270.142,109.518L270.616,113.177L271.564,116.311L272.038,118.825L272.512,122.977L272.986,123.025L273.46,121.45L273.934,121.418L274.408,120.034L274.882,125.125L275.355,128.402L275.829,124.011L276.303,122.134L276.777,120.877L277.725,122.643L278.199,123.089L278.673,122.914L279.147,119.318L280.095,120.941L280.569,120.83L281.043,119.939L281.991,119.891L282.464,122.786L282.938,116.232L283.412,140.764L283.886,138.616L284.36,143.389L284.834,138.632L285.308,141.241L285.782,139.905L286.256,142.577L286.73,145.17L287.204,140.859L288.152,138.52L288.626,138.361L289.1,142.211L289.573,143.564L290.047,145.823L290.521,153.093L290.995,156.625L291.469,155.83L291.943,155.686L292.417,152.839L292.891,151.884L293.365,151.55L293.839,152.536L294.313,147.843L294.787,148.448L295.261,152.855L296.682,156.752L297.156,158.057L297.63,151.216L298.104,150.898L298.578,152.027L299.052,151.089L299.526,151.566L300,151.614L300.474,155.034L300.948,155.368L301.422,153.268L301.896,150.023L302.37,151.407L302.844,152.314L303.791,146.73L304.739,144.12L305.213,144.486L305.687,142.927L306.635,144.295L307.109,148.384L307.583,147.032L308.057,147.35L308.531,144.184L309.005,145.377L309.479,142.132L309.953,142.434L310.427,140.27L310.9,142.816L311.374,143.389L311.848,144.709L312.796,143.866L313.27,140.27L313.744,134.32L314.218,135.482L314.692,138.791L315.166,141.082L315.64,138.695L316.114,140.239L316.588,140.08L317.062,141.257L317.536,141.4L318.009,139.014L318.483,137.773L318.957,135.561L319.431,137.423L319.905,136.85L321.327,133.939L321.801,130.423L322.275,127.766L322.749,126.27L323.223,127.018L323.697,130.311L324.171,127.368L324.645,128.211L325.118,129.691L325.592,128.895L326.066,126.811L326.54,123.725L327.488,125.22L327.962,122.055L328.436,128.068L328.91,130.836L329.858,133.748L330.332,136.659L331.28,137.9L331.754,136.914L332.227,139.348L332.701,138.902L333.175,141.209L333.649,139.045L334.123,139.507L334.597,141.384L335.071,140.875L335.545,144.136L336.019,146.73L336.493,147.016L337.441,145.011L337.915,142.88L338.389,140.78L338.863,140.97L339.336,142.498L339.81,142.052L340.284,140.891L340.758,143.595L341.232,146.268L341.706,142.895L342.18,145.314L342.654,145.345L343.128,145.95L343.602,147.366L344.076,150.564L344.55,149.386L345.024,148.766L345.498,146.857L345.972,146.809L346.445,144.582L346.919,144.852L347.393,140.7L347.867,141.83L348.341,145.314L348.815,144.327L349.289,142.116L349.763,140.43L350.237,141.67L350.711,139.682L351.185,140.048L351.659,140.939L352.133,142.418L352.607,141.336L353.555,144.423L354.502,143.436L354.976,147.414L355.924,149.052L356.398,148.114L356.872,150.245L357.346,147.605L357.82,148.718L358.294,150.898L358.768,150.866L359.242,151.168L359.716,155.4L360.19,156.832L360.664,157.786L361.137,156.943L362.085,158.105L362.559,153.618L363.033,152.409L363.507,152.25L363.981,154L364.455,153.984L364.929,149.768L365.403,143.452L365.877,145.441L366.351,144.677L366.825,145.218L367.299,143.723L367.773,144.661L368.246,144.423L368.72,140.716L369.194,137.868L369.668,144.359L370.142,141.352L370.616,140.652L371.09,143.516L371.564,143.214L372.038,142.291L372.512,142.975L372.986,144.407L373.46,143.086L373.934,144.391L374.408,147.191L374.882,141.432L375.355,154.684L375.829,167.173L376.303,152.473L376.777,155.034L377.725,151.566L378.199,152.584L378.673,152.393L379.147,153.395L379.621,156.036L380.569,151.439L381.043,147.986L381.517,150.198L381.991,151.964L382.464,154.827L382.938,150.993L383.412,149.243L383.886,148.798L384.36,144.852L384.834,142.673L385.308,141.766L385.782,141.607L386.256,142.052L387.204,140.366L387.678,145.043L388.152,146.443L388.626,145.695L389.1,143.595L389.573,142.068L390.047,143.23L390.521,142.864L390.995,144.709L391.469,140.795L391.943,140.382L392.417,138.505L392.891,137.566L393.365,138.202L393.839,137.932L394.313,138.186L395.261,133.97L395.735,135.355L396.209,134.034L396.682,132.507L397.156,132.634L397.63,131.409L398.104,128.673L398.578,126.445L399.052,128.259L399.526,130.264L400,129.468L400.474,129.58L400.948,130.9L401.896,131.345L402.37,127.527L402.844,128.959L403.791,125.077L404.265,125.395L404.739,124.759L405.687,124.6L406.161,125.443L406.635,128.784L407.109,129.102L407.583,129.818L408.057,128.959L408.531,132.523L409.005,130.073L409.479,128.895L409.953,129.691L410.427,129.532L410.9,131.823L411.848,130.025L412.322,129.691L412.796,132.602L413.27,131.918L413.744,133.557L414.218,133.223L414.692,131.727L415.166,130.916L415.64,132.395L416.114,134.225L416.588,136.325L417.062,136.786L417.536,138.489L418.009,139.427L418.483,139.507L418.957,139.666L420.379,134.257L420.853,132.841L421.327,135.8L421.801,136.532L422.275,134.75L422.749,135.02L423.223,133.525L423.697,136.516L424.171,141.034L424.645,142.434L425.118,139.968L425.592,141.766L426.066,141.336L426.54,142.53L427.488,147.684L428.436,154.223L428.91,155.114L429.384,150.007L429.858,148.782L430.332,150.23L430.806,157.007L431.28,155.034L431.754,154.27L432.227,157.23L432.701,160.92L433.175,158.677L433.649,158.375L434.123,154.589L434.597,157.198L435.071,157.818L435.545,162.432L436.493,166.934L436.967,163.8L437.915,178.389L438.389,170.545L438.863,174.236L439.336,168.095L439.81,170.005L440.284,166.823L440.758,167.586L441.232,163.402L441.706,162.495L442.18,158.455L442.654,155.623L443.128,155.066L443.602,157.023L445.024,156.02L445.498,155.814L445.972,153.236L446.445,153.061L446.919,158.884L447.393,156.911L447.867,158.645L448.341,158.598L448.815,159.059L449.289,156.561L449.763,155.034L450.237,154.732L450.711,152.775L451.659,153.284L452.133,151.836L453.555,150.977L454.028,152.361L454.976,152.568L455.45,150.977L455.924,146.427L456.398,147.811L456.872,148.13L457.346,146.125L457.82,141.877L458.294,146.093L458.768,145.361L459.242,146.809L459.716,148.575L460.19,147.525L461.137,149.259L461.611,150.675L462.085,153.045L462.559,155.941L463.033,157.15L463.507,155.75L463.981,156.084L464.455,155.782L464.929,156.609L465.403,152.775L465.877,155.066L466.351,151.248L466.825,149.434L467.299,149.355L467.773,150.325L468.246,148.83L469.668,147.159L470.142,147.461L470.616,147.62L471.09,148.305L471.564,150.802L472.038,149.307L472.512,149.752L472.986,148.209L473.46,147.986L473.934,146.284L474.408,147.43L474.882,148.83L475.829,148.798L476.303,151.916L476.777,153.825L477.251,150.373L478.199,150.134L478.673,147.827L479.621,146.809L480.095,147.684L480.569,148.273L481.043,148.145L481.517,148.798L481.991,145.839L482.464,143.436L482.938,144.566L483.412,145.616L483.886,147.016L484.36,146.602L484.834,143.405L485.782,140.764L486.256,141.925L486.73,140L487.204,137.614L487.678,136.611L488.152,141.925L488.626,142.275L489.1,143.15L489.573,143.484L490.047,143.484L490.521,145.25L490.995,148.909L491.469,150.325L491.943,149.084L492.417,146.427L492.891,148.098L493.365,150.834L493.839,150.961L494.313,151.009L494.787,156.673L495.261,154.43L495.735,151.566L496.209,152.536L496.682,152.886L497.156,149.434L497.63,149.211L498.104,147.97L498.578,144.709L499.052,143.42L499.526,144.598L500,144.614" stroke="#36b7b4" stroke-width="2"/></g><g class="mark-image role-mark layer_1_marks" role="graphics-symbol" aria-roledescription="image mark container"/><g class="mark-group role-title"><g transform="translate(0,-65)"><path class="background" aria-hidden="true" d="M0,0h0v0h0Z" pointer-events="none"/><g><g class="mark-text role-title-text" role="graphics-symbol" aria-roledescription="title" aria-label="Title text 'Dollar-Sterling Exchange Rate'" pointer-events="none"><text text-anchor="start" transform="translate(0,17)" font-family="Circular Std" font-size="22px" font-weight="bold" fill="#243B5A" opacity="1">Dollar-Sterling Exchange Rate</text></g><g class="mark-text role-title-subtitle" role="graphics-symbol" aria-roledescription="subtitle" aria-label="Subtitle text '2005 - present Source: Bank of England '" pointer-events="none"><text text-anchor="start" transform="translate(0,37)" font-family="Circular Std" font-size="13px" fill="#676A86" opacity="1"><tspan>2005 - present</tspan><tspan x="0" dy="15">Source: Bank of England</tspan></text></g></g><path class="foreground" aria-hidden="true" d="" pointer-events="none" display="none"/></g></g></g><path class="foreground" aria-hidden="true" d="" display="none"/></g></g></g></svg>