<svg xmlns="http://www.w3.org/2000/svg" xmlns:xlink="http://www.w3.org/1999/xlink" version="1.1" class="marks" width="600" height="518" viewBox="0 0 600 518"><rect width="600" height="518" fill="white"/><g fill="none" stroke-miterlimit="10" transform="translate(100,36)"><g class="mark-group role-frame root" role="graphics-object" aria-roledescription="group mark container"><g transform="translate(0,0)"><path class="background" aria-hidden="true" d="M0,0h450v440h-450Z" stroke-width="0"/><g><g class="mark-group role-axis" aria-hidden="true"><g transform="translate(0.5,440.5)"><path class="background" aria-hidden="true" d="M0,0h0v0h0Z" pointer-events="none"/><g><g class="mark-rule role-axis-grid" pointer-events="none"><line transform="translate(0,0)" x2="0" y2="-440" stroke="#ddd" stroke-opacity="0.3" stroke-width="1" stroke-dasharray="1,5" opacity="1"/><line transform="translate(90,0)" x2="0" y2="-440" stroke="#ddd" stroke-opacity="0.3" stroke-width="1" stroke-dasharray="1,5" opacity="1"/><line transform="translate(180,0)" x2="0" y2="-440" stroke="#ddd" stroke-opacity="0.3" stroke-width="1" stroke-dasharray="1,5" opacity="1"/><line transform="translate(270,0)" x2="0" y2="-440" stroke="#ddd" stroke-opacity="0.3" stroke-width="1" stroke-dasharray="1,5" opacity="1"/><line transform="translate(360,0)" x2="0" y2="-440" stroke="#ddd" stroke-opacity="0.3" stroke-width="1" stroke-dasharray="1,5" opacity="1"/><line transform="translate(450,0)" x2="0" y2="-440" stroke="#ddd" stroke-opacity="0.3" stroke-width="1" stroke-dasharray="1,5" opacity="1"/></g></g><path class="foreground" aria-hidden="true" d="" pointer-events="none" display="none"/></g></g><g class="mark-group role-axis" role="graphics-symbol" aria-roledescription="axis" aria-label="X-axis titled '% of students who have used GenAI' for a linear scale with values from 0 to 100"><g transform="translate(0.5,440.5)"><path class="background" aria-hidden="true" d="M0,0h0v0h0Z" pointer-events="none"/><g><g class="mark-rule role-axis-tick" pointer-events="none"><line transform="translate(0,0)" x2="0" y2="0" stroke="#122b39" stroke-width="1" opacity="1"/><line transform="translate(90,0)" x2="0" y2="0" stroke="#122b39" stroke-width="1" opacity="1"/><line transform="translate(180,0)" x2="0" y2="0" stroke="#122b39" stroke-width="1" opacity="1"/><line transform="translate(270,0)" x2="0" y2="0" stroke="#122b39" stroke-width="1" opacity="1"/><line transform="translate(360,0)" x2="0" y2="0" stroke="#122b39" stroke-width="1" opacity="1"/><line transform="translate(450,0)" x2="0" y2="0" stroke="#122b39" stroke-width="1" opacity="1"/></g><g class="mark-text role-axis-label" pointer-events="none"><text text-anchor="middle" transform="translate(0,14)" font-family="Circular Std" font-size="11px" fill="#122b39" opacity="1">0%</text><text text-anchor="middle" transform="translate(90,14)" font-family="Circular Std" font-size="11px" fill="#122b39" opacity="1">20%</text><text text-anchor="middle" transform="translate(180,14)" font-family="Circular Std" font-size="11px" fill="#122b39" opacity="1">40%</text><text text-anchor="middle" transform="translate(270,14)" font-family="Circular Std" font-size="11px" fill="#122b39" opacity="1">60%</text><text text-anchor="middle" transform="translate(360,14)" font-family="Circular Std" font-size="11px" fill="#122b39" opacity="1">80%</text><text text-anchor="middle" transform="translate(450,14)" font-family="Circular Std" font-size="11px" fill="#122b39" opacity="1">100%</text></g><g class="mark-rule role-axis-domain" pointer-events="none"><line transform="translate(0,0)" x2="450" y2="0" stroke="#122b39" stroke-opacity="0.5" stroke-width="1" opacity="1"/></g><g class="mark-text role-axis-title" pointer-events="none"><text text-anchor="middle" transform="translate(225,35)" font-family="Circular Std" font-size="11px" font-weight="bold" fill="#000" opacity="1">% of students who have used GenAI</text></g></g><path class="foreground" aria-hidden="true" d="" pointer-events="none" display="none"/></g></g><g class="mark-group role-axis" role="graphics-symbol" aria-roledescription="axis" aria-label="Y-axis for a discrete scale with 15 values: Indonesia, Malaysia, Saudi Arabia, Spain, Brazil, ending with United Kingdom"><g transform="translate(0.5,0.5)"><path class="background" aria-hidden="true" d="M0,0h0v0h0Z" pointer-events="none"/><g><g class="mark-rule role-axis-tick" pointer-events="none"><line transform="translate(0,14)" x2="0" y2="0" stroke="#122b39" stroke-width="1" opacity="1"/><line transform="translate(0,44)" x2="0" y2="0" stroke="#122b39" stroke-width="1" opacity="1"/><line transform="translate(0,73)" x2="0" y2="0" stroke="#122b39" stroke-width="1" opacity="1"/><line transform="translate(0,102)" x2="0" y2="0" stroke="#122b39" stroke-width="1" opacity="1"/><line transform="translate(0,132)" x2="0" y2="0" stroke="#122b39" stroke-width="1" opacity="1"/><line transform="translate(0,161)" x2="0" y2="0" stroke="#122b39" stroke-width="1" opacity="1"/><line transform="translate(0,190)" x2="0" y2="0" stroke="#122b39" stroke-width="1" opacity="1"/><line transform="translate(0,219)" x2="0" y2="0" stroke="#122b39" stroke-width="1" opacity="1"/><line transform="translate(0,249)" x2="0" y2="0" stroke="#122b39" stroke-width="1" opacity="1"/><line transform="translate(0,278)" x2="0" y2="0" stroke="#122b39" stroke-width="1" opacity="1"/><line transform="translate(0,308)" x2="0" y2="0" stroke="#122b39" stroke-width="1" opacity="1"/><line transform="translate(0,337)" x2="0" y2="0" stroke="#122b39" stroke-width="1" opacity="1"/><line transform="translate(0,366)" x2="0" y2="0" stroke="#122b39" stroke-width="1" opacity="1"/><line transform="translate(0,396)" x2="0" y2="0" stroke="#122b39" stroke-width="1" opacity="1"/><line transform="translate(0,425)" x2="0" y2="0" stroke="#122b39" stroke-width="1" opacity="1"/></g><g class="mark-text role-axis-label" pointer-events="none"><text text-anchor="end" transform="translate(-5,18.166666666666664)" font-family="Circular Std" font-size="12px" fill="#122b39" opacity="1">Indonesia</text><text text-anchor="end" transform="translate(-5,47.5)" font-family="Circular Std" font-size="12px" fill="#122b39" opacity="1">Malaysia</text><text text-anchor="end" transform="translate(-5,76.83333333333333)" font-family="Circular Std" font-size="12px" fill="#122b39" opacity="1">Saudi Arabia</text><text text-anchor="end" transform="translate(-5,106.16666666666667)" font-family="Circular Std" font-size="12px" fill="#122b39" opacity="1">Spain</text><text text-anchor="end" transform="translate(-5,135.5)" font-family="Circular Std" font-size="12px" fill="#122b39" opacity="1">Brazil</text><text text-anchor="end" transform="translate(-5,164.83333333333331)" font-family="Circular Std" font-size="12px" fill="#122b39" opacity="1">South Korea</text><text text-anchor="end" transform="translate(-5,194.16666666666666)" font-family="Circular Std" font-size="12px" fill="#122b39" opacity="1">India</text><text text-anchor="end" transform="translate(-5,223.49999999999997)" font-family="Circular Std" font-size="12px" fill="#122b39" opacity="1">Kenya</text><text text-anchor="end" transform="translate(-5,252.83333333333331)" font-family="Circular Std" font-size="12px" fill="#122b39" opacity="1">Mexico</text><text text-anchor="end" transform="translate(-5,282.1666666666667)" font-family="Circular Std" font-size="12px" fill="#122b39" opacity="1">South Africa</text><text text-anchor="end" transform="translate(-5,311.5)" font-family="Circular Std" font-size="12px" fill="#122b39" opacity="1">Canada</text><text text-anchor="end" transform="translate(-5,340.8333333333333)" font-family="Circular Std" font-size="12px" fill="#122b39" opacity="1">Australia</text><text text-anchor="end" transform="translate(-5,370.1666666666667)" font-family="Circular Std" font-size="12px" fill="#122b39" opacity="1">Turkey</text><text text-anchor="end" transform="translate(-5,399.5)" font-family="Circular Std" font-size="12px" fill="#122b39" opacity="1">United States</text><text text-anchor="end" transform="translate(-5,428.8333333333333)" font-family="Circular Std" font-size="12px" fill="#122b39" opacity="1">United Kingdom</text></g><g class="mark-rule role-axis-domain" pointer-events="none"><line transform="translate(0,0)" x2="0" y2="440" stroke="#122b39" stroke-opacity="0.5" stroke-width="1" opacity="1"/></g></g><path class="foreground" aria-hidden="true" d="" pointer-events="none" display="none"/></g></g><g class="mark-rule role-mark layer_0_marks" role="graphics-object" aria-roledescription="rule mark container"><line aria-label="y2023: 53; country: Indonesia; y2025: 95" role="graphics-symbol" aria-roledescription="rule mark" transform="translate(238.5,14.666666666666666)" x2="189" y2="0" stroke="#aaa" stroke-width="1.5"/><line aria-label="y2023: 49; country: Malaysia; y2025: 90" role="graphics-symbol" aria-roledescription="rule mark" transform="translate(220.5,44)" x2="184.5" y2="0" stroke="#aaa" stroke-width="1.5"/><line aria-label="y2023: 62; country: Saudi Arabia; y2025: 89" role="graphics-symbol" aria-roledescription="rule mark" transform="translate(279,73.33333333333333)" x2="121.5" y2="0" stroke="#aaa" stroke-width="1.5"/><line aria-label="y2023: 62; country: Spain; y2025: 87" role="graphics-symbol" aria-roledescription="rule mark" transform="translate(279,102.66666666666667)" x2="112.5" y2="0" stroke="#aaa" stroke-width="1.5"/><line aria-label="y2023: 52; country: Brazil; y2025: 84" role="graphics-symbol" aria-roledescription="rule mark" transform="translate(234,132)" x2="144" y2="0" stroke="#aaa" stroke-width="1.5"/><line aria-label="y2023: 23; country: South Korea; y2025: 84" role="graphics-symbol" aria-roledescription="rule mark" transform="translate(103.5,161.33333333333331)" x2="274.5" y2="0" stroke="#aaa" stroke-width="1.5"/><line aria-label="y2023: 44; country: India; y2025: 84" role="graphics-symbol" aria-roledescription="rule mark" transform="translate(198,190.66666666666666)" x2="180" y2="0" stroke="#aaa" stroke-width="1.5"/><line aria-label="y2023: 63; country: Kenya; y2025: 83" role="graphics-symbol" aria-roledescription="rule mark" transform="translate(283.5,219.99999999999997)" x2="90" y2="0" stroke="#aaa" stroke-width="1.5"/><line aria-label="y2023: 33; country: Mexico; y2025: 83" role="graphics-symbol" aria-roledescription="rule mark" transform="translate(148.5,249.33333333333331)" x2="225" y2="0" stroke="#aaa" stroke-width="1.5"/><line aria-label="y2023: 33; country: South Africa; y2025: 81" role="graphics-symbol" aria-roledescription="rule mark" transform="translate(148.5,278.6666666666667)" x2="216" y2="0" stroke="#aaa" stroke-width="1.5"/><line aria-label="y2023: 54; country: Canada; y2025: 79" role="graphics-symbol" aria-roledescription="rule mark" transform="translate(243.00000000000003,308)" x2="112.49999999999997" y2="0" stroke="#aaa" stroke-width="1.5"/><line aria-label="y2023: 33; country: Australia; y2025: 77" role="graphics-symbol" aria-roledescription="rule mark" transform="translate(148.5,337.3333333333333)" x2="198" y2="0" stroke="#aaa" stroke-width="1.5"/><line aria-label="y2023: 30; country: Turkey; y2025: 68" role="graphics-symbol" aria-roledescription="rule mark" transform="translate(135,366.6666666666667)" x2="171" y2="0" stroke="#aaa" stroke-width="1.5"/><line aria-label="y2023: 20; country: United States; y2025: 67" role="graphics-symbol" aria-roledescription="rule mark" transform="translate(90,396)" x2="211.5" y2="0" stroke="#aaa" stroke-width="1.5"/><line aria-label="y2023: 19; country: United Kingdom; y2025: 67" role="graphics-symbol" aria-roledescription="rule mark" transform="translate(85.5,425.3333333333333)" x2="216" y2="0" stroke="#aaa" stroke-width="1.5"/></g><g class="mark-symbol role-mark layer_1_marks" role="graphics-object" aria-roledescription="symbol mark container"><path aria-label="% of students who have used GenAI: 53; country: Indonesia; year: 2023" role="graphics-symbol" aria-roledescription="circle" transform="translate(238.5,14.666666666666666)" d="M4.472,0A4.472,4.472,0,1,1,-4.472,0A4.472,4.472,0,1,1,4.472,0" fill="#d4b5e9" stroke-width="2" opacity="0.7"/><path aria-label="% of students who have used GenAI: 49; country: Malaysia; year: 2023" role="graphics-symbol" aria-roledescription="circle" transform="translate(220.5,44)" d="M4.472,0A4.472,4.472,0,1,1,-4.472,0A4.472,4.472,0,1,1,4.472,0" fill="#d4b5e9" stroke-width="2" opacity="0.7"/><path aria-label="% of students who have used GenAI: 62; country: Saudi Arabia; year: 2023" role="graphics-symbol" aria-roledescription="circle" transform="translate(279,73.33333333333333)" d="M4.472,0A4.472,4.472,0,1,1,-4.472,0A4.472,4.472,0,1,1,4.472,0" fill="#d4b5e9" stroke-width="2" opacity="0.7"/><path aria-label="% of students who have used GenAI: 62; country: Spain; year: 2023" role="graphics-symbol" aria-roledescription="circle" transform="translate(279,102.66666666666667)" d="M4.472,0A4.472,4.472,0,1,1,-4.472,0A4.472,4.472,0,1,1,4.472,0" fill="#d4b5e9" stroke-width="2" opacity="0.7"/><path aria-label="% of students who have used GenAI: 52; country: Brazil; year: 2023" role="graphics-symbol" aria-roledescription="circle" transform="translate(234,132)" d="M4.472,0A4.472,4.472,0,1,1,-4.472,0A4.472,4.472,0,1,1,4.472,0" fill="#d4b5e9" stroke-width="2" opacity="0.7"/><path aria-label="% of students who have used GenAI: 23; country: South Korea; year: 2023" role="graphics-symbol" aria-roledescription="circle" transform="translate(103.5,161.33333333333331)" d="M4.472,0A4.472,4.472,0,1,1,-4.472,0A4.472,4.472,0,1,1,4.472,0" fill="#d4b5e9" stroke-width="2" opacity="0.7"/><path aria-label="% of students who have used GenAI: 44; country: India; year: 2023" role="graphics-symbol" aria-roledescription="circle" transform="translate(198,190.66666666666666)" d="M4.472,0A4.472,4.472,0,1,1,-4.472,0A4.472,4.472,0,1,1,4.472,0" fill="#d4b5e9" stroke-width="2" opacity="0.7"/><path aria-label="% of students who have used GenAI: 63; country: Kenya; year: 2023" role="graphics-symbol" aria-roledescription="circle" transform="translate(283.5,219.99999999999997)" d="M4.472,0A4.472,4.472,0,1,1,-4.472,0A4.472,4.472,0,1,1,4.472,0" fill="#d4b5e9" stroke-width="2" opacity="0.7"/><path aria-label="% of students who have used GenAI: 33; country: Mexico; year: 2023" role="graphics-symbol" aria-roledescription="circle" transform="translate(148.5,249.33333333333331)" d="M4.472,0A4.472,4.472,0,1,1,-4.472,0A4.472,4.472,0,1,1,4.472,0" fill="#d4b5e9" stroke-width="2" opacity="0.7"/><path aria-label="% of students who have used GenAI: 33; country: South Africa; year: 2023" role="graphics-symbol" aria-roledescription="circle" transform="translate(148.5,278.6666666666667)" d="M4.472,0A4.472,4.472,0,1,1,-4.472,0A4.472,4.472,0,1,1,4.472,0" fill="#d4b5e9" stroke-width="2" opacity="0.7"/><path aria-label="% of students who have used GenAI: 54; country: Canada; year: 2023" role="graphics-symbol" aria-roledescription="circle" transform="translate(243.00000000000003,308)" d="M4.472,0A4.472,4.472,0,1,1,-4.472,0A4.472,4.472,0,1,1,4.472,0" fill="#d4b5e9" stroke-width="2" opacity="0.7"/><path aria-label="% of students who have used GenAI: 33; country: Australia; year: 2023" role="graphics-symbol" aria-roledescription="circle" transform="translate(148.5,337.3333333333333)" d="M4.472,0A4.472,4.472,0,1,1,-4.472,0A4.472,4.472,0,1,1,4.472,0" fill="#d4b5e9" stroke-width="2" opacity="0.7"/><path aria-label="% of students who have used GenAI: 30; country: Turkey; year: 2023" role="graphics-symbol" aria-roledescription="circle" transform="translate(135,366.6666666666667)" d="M4.472,0A4.472,4.472,0,1,1,-4.472,0A4.472,4.472,0,1,1,4.472,0" fill="#d4b5e9" stroke-width="2" opacity="0.7"/><path aria-label="% of students who have used GenAI: 20; country: United States; year: 2023" role="graphics-symbol" aria-roledescription="circle" transform="translate(90,396)" d="M4.472,0A4.472,4.472,0,1,1,-4.472,0A4.472,4.472,0,1,1,4.472,0" fill="#d4b5e9" stroke-width="2" opacity="0.7"/><path aria-label="% of students who have used GenAI: 19; country: United Kingdom; year: 2023" role="graphics-symbol" aria-roledescription="circle" transform="translate(85.5,425.3333333333333)" d="M4.472,0A4.472,4.472,0,1,1,-4.472,0A4.472,4.472,0,1,1,4.472,0" fill="#d4b5e9" stroke-width="2" opacity="0.7"/><path aria-label="% of students who have used GenAI: 95; country: Indonesia; year: 2025" role="graphics-symbol" aria-roledescription="circle" transform="translate(427.5,14.666666666666666)" d="M4.472,0A4.472,4.472,0,1,1,-4.472,0A4.472,4.472,0,1,1,4.472,0" fill="#179fdb" stroke-width="2" opacity="0.7"/><path aria-label="% of students who have used GenAI: 90; country: Malaysia; year: 2025" role="graphics-symbol" aria-roledescription="circle" transform="translate(405,44)" d="M4.472,0A4.472,4.472,0,1,1,-4.472,0A4.472,4.472,0,1,1,4.472,0" fill="#179fdb" stroke-width="2" opacity="0.7"/><path aria-label="% of students who have used GenAI: 89; country: Saudi Arabia; year: 2025" role="graphics-symbol" aria-roledescription="circle" transform="translate(400.5,73.33333333333333)" d="M4.472,0A4.472,4.472,0,1,1,-4.472,0A4.472,4.472,0,1,1,4.472,0" fill="#179fdb" stroke-width="2" opacity="0.7"/><path aria-label="% of students who have used GenAI: 87; country: Spain; year: 2025" role="graphics-symbol" aria-roledescription="circle" transform="translate(391.5,102.66666666666667)" d="M4.472,0A4.472,4.472,0,1,1,-4.472,0A4.472,4.472,0,1,1,4.472,0" fill="#179fdb" stroke-width="2" opacity="0.7"/><path aria-label="% of students who have used GenAI: 84; country: Brazil; year: 2025" role="graphics-symbol" aria-roledescription="circle" transform="translate(378,132)" d="M4.472,0A4.472,4.472,0,1,1,-4.472,0A4.472,4.472,0,1,1,4.472,0" fill="#179fdb" stroke-width="2" opacity="0.7"/><path aria-label="% of students who have used GenAI: 84; country: South Korea; year: 2025" role="graphics-symbol" aria-roledescription="circle" transform="translate(378,161.33333333333331)" d="M4.472,0A4.472,4.472,0,1,1,-4.472,0A4.472,4.472,0,1,1,4.472,0" fill="#179fdb" stroke-width="2" opacity="0.7"/><path aria-label="% of students who have used GenAI: 84; country: India; year: 2025" role="graphics-symbol" aria-roledescription="circle" transform="translate(378,190.66666666666666)" d="M4.472,0A4.472,4.472,0,1,1,-4.472,0A4.472,4.472,0,1,1,4.472,0" fill="#179fdb" stroke-width="2" opacity="0.7"/><path aria-label="% of students who have used GenAI: 83; country: Kenya; year: 2025" role="graphics-symbol" aria-roledescription="circle" transform="translate(373.5,219.99999999999997)" d="M4.472,0A4.472,4.472,0,1,1,-4.472,0A4.472,4.472,0,1,1,4.472,0" fill="#179fdb" stroke-width="2" opacity="0.7"/><path aria-label="% of students who have used GenAI: 83; country: Mexico; year: 2025" role="graphics-symbol" aria-roledescription="circle" transform="translate(373.5,249.33333333333331)" d="M4.472,0A4.472,4.472,0,1,1,-4.472,0A4.472,4.472,0,1,1,4.472,0" fill="#179fdb" stroke-width="2" opacity="0.7"/><path aria-label="% of students who have used GenAI: 81; country: South Africa; year: 2025" role="graphics-symbol" aria-roledescription="circle" transform="translate(364.5,278.6666666666667)" d="M4.472,0A4.472,4.472,0,1,1,-4.472,0A4.472,4.472,0,1,1,4.472,0" fill="#179fdb" stroke-width="2" opacity="0.7"/><path aria-label="% of students who have used GenAI: 79; country: Canada; year: 2025" role="graphics-symbol" aria-roledescription="circle" transform="translate(355.5,308)" d="M4.472,0A4.472,4.472,0,1,1,-4.472,0A4.472,4.472,0,1,1,4.472,0" fill="#179fdb" stroke-width="2" opacity="0.7"/><path aria-label="% of students who have used GenAI: 77; country: Australia; year: 2025" role="graphics-symbol" aria-roledescription="circle" transform="translate(346.5,337.3333333333333)" d="M4.472,0A4.472,4.472,0,1,1,-4.472,0A4.472,4.472,0,1,1,4.472,0" fill="#179fdb" stroke-width="2" opacity="0.7"/><path aria-label="% of students who have used GenAI: 68; country: Turkey; year: 2025" role="graphics-symbol" aria-roledescription="circle" transform="translate(306,366.6666666666667)" d="M4.472,0A4.472,4.472,0,1,1,-4.472,0A4.472,4.472,0,1,1,4.472,0" fill="#179fdb" stroke-width="2" opacity="0.7"/><path aria-label="% of students who have used GenAI: 67; country: United States; year: 2025" role="graphics-symbol" aria-roledescription="circle" transform="translate(301.5,396)" d="M4.472,0A4.472,4.472,0,1,1,-4.472,0A4.472,4.472,0,1,1,4.472,0" fill="#179fdb" stroke-width="2" opacity="0.7"/><path aria-label="% of students who have used GenAI: 67; country: United Kingdom; year: 2025" role="graphics-symbol" aria-roledescription="circle" transform="translate(301.5,425.3333333333333)" d="M4.472,0A4.472,4.472,0,1,1,-4.472,0A4.472,4.472,0,1,1,4.472,0" fill="#179fdb" stroke-width="2" opacity="0.7"/></g><g class="mark-text role-mark layer_2_marks" role="graphics-object" aria-roledescription="text mark container"><text aria-label="y2025: 95; country: Indonesia; label_2025: 95% (+42 pp)" role="graphics-symbol" aria-roledescription="text mark" text-anchor="start" transform="translate(435.5,17.666666666666664)" font-family="Circular Std" font-size="10px" fill="#122b39">95% (+42 pp)</text><text aria-label="y2025: 90; country: Malaysia; label_2025: 90% (+41 pp)" role="graphics-symbol" aria-roledescription="text mark" text-anchor="start" transform="translate(413,47)" font-family="Circular Std" font-size="10px" fill="#122b39">90% (+41 pp)</text><text aria-label="y2025: 89; country: Saudi Arabia; label_2025: 89% (+27 pp)" role="graphics-symbol" aria-roledescription="text mark" text-anchor="start" transform="translate(408.5,76.33333333333333)" font-family="Circular Std" font-size="10px" fill="#122b39">89% (+27 pp)</text><text aria-label="y2025: 87; country: Spain; label_2025: 87% (+25 pp)" role="graphics-symbol" aria-roledescription="text mark" text-anchor="start" transform="translate(399.5,105.66666666666667)" font-family="Circular Std" font-size="10px" fill="#122b39">87% (+25 pp)</text><text aria-label="y2025: 84; country: Brazil; label_2025: 84% (+32 pp)" role="graphics-symbol" aria-roledescription="text mark" text-anchor="start" transform="translate(386,135)" font-family="Circular Std" font-size="10px" fill="#122b39">84% (+32 pp)</text><text aria-label="y2025: 84; country: South Korea; label_2025: 84% (+61 pp)" role="graphics-symbol" aria-roledescription="text mark" text-anchor="start" transform="translate(386,164.33333333333331)" font-family="Circular Std" font-size="10px" fill="#122b39">84% (+61 pp)</text><text aria-label="y2025: 84; country: India; label_2025: 84% (+40 pp)" role="graphics-symbol" aria-roledescription="text mark" text-anchor="start" transform="translate(386,193.66666666666666)" font-family="Circular Std" font-size="10px" fill="#122b39">84% (+40 pp)</text><text aria-label="y2025: 83; country: Kenya; label_2025: 83% (+20 pp)" role="graphics-symbol" aria-roledescription="text mark" text-anchor="start" transform="translate(381.5,222.99999999999997)" font-family="Circular Std" font-size="10px" fill="#122b39">83% (+20 pp)</text><text aria-label="y2025: 83; country: Mexico; label_2025: 83% (+50 pp)" role="graphics-symbol" aria-roledescription="text mark" text-anchor="start" transform="translate(381.5,252.33333333333331)" font-family="Circular Std" font-size="10px" fill="#122b39">83% (+50 pp)</text><text aria-label="y2025: 81; country: South Africa; label_2025: 81% (+48 pp)" role="graphics-symbol" aria-roledescription="text mark" text-anchor="start" transform="translate(372.5,281.6666666666667)" font-family="Circular Std" font-size="10px" fill="#122b39">81% (+48 pp)</text><text aria-label="y2025: 79; country: Canada; label_2025: 79% (+25 pp)" role="graphics-symbol" aria-roledescription="text mark" text-anchor="start" transform="translate(363.5,311)" font-family="Circular Std" font-size="10px" fill="#122b39">79% (+25 pp)</text><text aria-label="y2025: 77; country: Australia; label_2025: 77% (+44 pp)" role="graphics-symbol" aria-roledescription="text mark" text-anchor="start" transform="translate(354.5,340.3333333333333)" font-family="Circular Std" font-size="10px" fill="#122b39">77% (+44 pp)</text><text aria-label="y2025: 68; country: Turkey; label_2025: 68% (+38 pp)" role="graphics-symbol" aria-roledescription="text mark" text-anchor="start" transform="translate(314,369.6666666666667)" font-family="Circular Std" font-size="10px" fill="#122b39">68% (+38 pp)</text><text aria-label="y2025: 67; country: United States; label_2025: 67% (+47 pp)" role="graphics-symbol" aria-roledescription="text mark" text-anchor="start" transform="translate(309.5,399)" font-family="Circular Std" font-size="10px" fill="#122b39">67% (+47 pp)</text><text aria-label="y2025: 67; country: United Kingdom; label_2025: 67% (+48 pp)" role="graphics-symbol" aria-roledescription="text mark" text-anchor="start" transform="translate(309.5,428.3333333333333)" font-family="Circular Std" font-size="10px" fill="#122b39">67% (+48 pp)</text></g><g class="mark-text role-mark layer_3_marks" role="graphics-object" aria-roledescription="text mark container"><text aria-label="y2023: 53; country: Indonesia; label_2023: 53%" role="graphics-symbol" aria-roledescription="text mark" text-anchor="end" transform="translate(230.5,17.666666666666664)" font-family="Circular Std" font-size="10px" fill="#999">53%</text><text aria-label="y2023: 49; country: Malaysia; label_2023: 49%" role="graphics-symbol" aria-roledescription="text mark" text-anchor="end" transform="translate(212.5,47)" font-family="Circular Std" font-size="10px" fill="#999">49%</text><text aria-label="y2023: 62; country: Saudi Arabia; label_2023: 62%" role="graphics-symbol" aria-roledescription="text mark" text-anchor="end" transform="translate(271,76.33333333333333)" font-family="Circular Std" font-size="10px" fill="#999">62%</text><text aria-label="y2023: 62; country: Spain; label_2023: 62%" role="graphics-symbol" aria-roledescription="text mark" text-anchor="end" transform="translate(271,105.66666666666667)" font-family="Circular Std" font-size="10px" fill="#999">62%</text><text aria-label="y2023: 52; country: Brazil; label_2023: 52%" role="graphics-symbol" aria-roledescription="text mark" text-anchor="end" transform="translate(226,135)" font-family="Circular Std" font-size="10px" fill="#999">52%</text><text aria-label="y2023: 23; country: South Korea; label_2023: 23%" role="graphics-symbol" aria-roledescription="text mark" text-anchor="end" transform="translate(95.5,164.33333333333331)" font-family="Circular Std" font-size="10px" fill="#999">23%</text><text aria-label="y2023: 44; country: India; label_2023: 44%" role="graphics-symbol" aria-roledescription="text mark" text-anchor="end" transform="translate(190,193.66666666666666)" font-family="Circular Std" font-size="10px" fill="#999">44%</text><text aria-label="y2023: 63; country: Kenya; label_2023: 63%" role="graphics-symbol" aria-roledescription="text mark" text-anchor="end" transform="translate(275.5,222.99999999999997)" font-family="Circular Std" font-size="10px" fill="#999">63%</text><text aria-label="y2023: 33; country: Mexico; label_2023: 33%" role="graphics-symbol" aria-roledescription="text mark" text-anchor="end" transform="translate(140.5,252.33333333333331)" font-family="Circular Std" font-size="10px" fill="#999">33%</text><text aria-label="y2023: 33; country: South Africa; label_2023: 33%" role="graphics-symbol" aria-roledescription="text mark" text-anchor="end" transform="translate(140.5,281.6666666666667)" font-family="Circular Std" font-size="10px" fill="#999">33%</text><text aria-label="y2023: 54; country: Canada; label_2023: 54%" role="graphics-symbol" aria-roledescription="text mark" text-anchor="end" transform="translate(235.00000000000003,311)" font-family="Circular Std" font-size="10px" fill="#999">54%</text><text aria-label="y2023: 33; country: Australia; label_2023: 33%" role="graphics-symbol" aria-roledescription="text mark" text-anchor="end" transform="translate(140.5,340.3333333333333)" font-family="Circular Std" font-size="10px" fill="#999">33%</text><text aria-label="y2023: 30; country: Turkey; label_2023: 30%" role="graphics-symbol" aria-roledescription="text mark" text-anchor="end" transform="translate(127,369.6666666666667)" font-family="Circular Std" font-size="10px" fill="#999">30%</text><text aria-label="y2023: 20; country: United States; label_2023: 20%" role="graphics-symbol" aria-roledescription="text mark" text-anchor="end" transform="translate(82,399)" font-family="Circular Std" font-size="10px" fill="#999">20%</text><text aria-label="y2023: 19; country: United Kingdom; label_2023: 19%" role="graphics-symbol" aria-roledescription="text mark" text-anchor="end" transform="translate(77.5,428.3333333333333)" font-family="Circular Std" font-size="10px" fill="#999">19%</text></g><g class="mark-group role-legend" role="graphics-symbol" aria-roledescription="legend" aria-label="Symbol legend for fill color with 2 values: 2023, 2025"><g transform="translate(392,397)"><path class="background" aria-hidden="true" d="M0,0h40v25h-40Z" pointer-events="none"/><g><g class="mark-group role-legend-entry"><g transform="translate(0,0)"><path class="background" aria-hidden="true" d="M0,0h0v0h0Z" pointer-events="none"/><g><g class="mark-group role-scope" role="graphics-object" aria-roledescription="group mark container"><g transform="translate(0,0)"><path class="background" aria-hidden="true" d="M0,0h39.68400192260742v10.5h-39.68400192260742Z" pointer-events="none" opacity="1"/><g><g class="mark-symbol role-legend-symbol" pointer-events="none"><path transform="translate(5.5,5.5)" d="M4.472,0A4.472,4.472,0,1,1,-4.472,0A4.472,4.472,0,1,1,4.472,0" fill="#d4b5e9" stroke-width="1.5" opacity="0.7"/></g><g class="mark-text role-legend-label" pointer-events="none"><text text-anchor="start" transform="translate(15,8.5)" font-family="Circular Std" font-size="11px" fill="#000" opacity="1">2023</text></g></g><path class="foreground" aria-hidden="true" d="" pointer-events="none" display="none"/></g><g transform="translate(0,14)"><path class="background" aria-hidden="true" d="M0,0h39.68400192260742v10.5h-39.68400192260742Z" pointer-events="none" opacity="1"/><g><g class="mark-symbol role-legend-symbol" pointer-events="none"><path transform="translate(5.5,5.5)" d="M4.472,0A4.472,4.472,0,1,1,-4.472,0A4.472,4.472,0,1,1,4.472,0" fill="#179fdb" stroke-width="1.5" opacity="0.7"/></g><g class="mark-text role-legend-label" pointer-events="none"><text text-anchor="start" transform="translate(15,8.5)" font-family="Circular Std" font-size="11px" fill="#000" opacity="1">2025</text></g></g><path class="foreground" aria-hidden="true" d="" pointer-events="none" display="none"/></g></g></g><path class="foreground" aria-hidden="true" d="" pointer-events="none" display="none"/></g></g></g><path class="foreground" aria-hidden="true" d="" pointer-events="none" display="none"/></g></g><g class="mark-group role-title"><g transform="translate(-94.32799530029297,-31)"><path class="background" aria-hidden="true" d="M0,0h0v0h0Z" pointer-events="none"/><g><g class="mark-text role-title-text" role="graphics-symbol" aria-roledescription="title" aria-label="Title text 'University students who have used GenAI to support their studies, 2023-2025'" pointer-events="none"><text text-anchor="start" transform="translate(0,11)" font-family="Circular Std" font-size="14px" font-weight="bold" fill="#000" opacity="1">University students who have used GenAI to support their studies, 2023-2025</text></g><g class="mark-text role-title-subtitle" role="graphics-symbol" aria-roledescription="subtitle" aria-label="Subtitle text 'Source: Chegg Global Student Survey on 2026 AI Index report'" pointer-events="none"><text text-anchor="start" transform="translate(0,25)" font-family="Circular Std" font-size="10px" fill="#666" opacity="1">Source: Chegg Global Student Survey on 2026 AI Index report</text></g></g><path class="foreground" aria-hidden="true" d="" pointer-events="none" display="none"/></g></g></g><path class="foreground" aria-hidden="true" d="" display="none"/></g></g></g></svg>