<svg xmlns="http://www.w3.org/2000/svg" xmlns:xlink="http://www.w3.org/1999/xlink" version="1.1" class="marks" width="583" height="372" viewBox="0 0 583 372"><rect width="583" height="372" fill="white"/><g fill="none" stroke-miterlimit="10" transform="translate(101,45)"><g class="mark-group role-frame root" role="graphics-object" aria-roledescription="group mark container"><g transform="translate(0,0)"><path class="background" aria-hidden="true" d="M0,0h0v0h0Z"/><g><g class="mark-group role-scope concat_0_group" role="graphics-object" aria-roledescription="group mark container"><g transform="translate(0,0)"><path class="background" aria-hidden="true" d="M0.5,0.5h420v260h-420Z"/><g><g class="mark-group role-axis" role="graphics-symbol" aria-roledescription="axis" aria-label="X-axis titled 'Share using generative AI for work (%)' for a linear scale with values from 0 to 50"><g transform="translate(0.5,260.5)"><path class="background" aria-hidden="true" d="M0,0h0v0h0Z" pointer-events="none"/><g><g class="mark-rule role-axis-tick" pointer-events="none"><line transform="translate(0,0)" x2="0" y2="0" stroke="#122b39" stroke-width="1" opacity="1"/><line transform="translate(42,0)" x2="0" y2="0" stroke="#122b39" stroke-width="1" opacity="1"/><line transform="translate(84,0)" x2="0" y2="0" stroke="#122b39" stroke-width="1" opacity="1"/><line transform="translate(126,0)" x2="0" y2="0" stroke="#122b39" stroke-width="1" opacity="1"/><line transform="translate(168,0)" x2="0" y2="0" stroke="#122b39" stroke-width="1" opacity="1"/><line transform="translate(210,0)" x2="0" y2="0" stroke="#122b39" stroke-width="1" opacity="1"/><line transform="translate(252,0)" x2="0" y2="0" stroke="#122b39" stroke-width="1" opacity="1"/><line transform="translate(294,0)" x2="0" y2="0" stroke="#122b39" stroke-width="1" opacity="1"/><line transform="translate(336,0)" x2="0" y2="0" stroke="#122b39" stroke-width="1" opacity="1"/><line transform="translate(378,0)" x2="0" y2="0" stroke="#122b39" stroke-width="1" opacity="1"/></g><g class="mark-text role-axis-label" pointer-events="none"><text text-anchor="middle" transform="translate(0,14)" font-family="Circular Std" font-size="11px" fill="#122b39" opacity="1">0%</text><text text-anchor="middle" transform="translate(42,14)" font-family="Circular Std" font-size="11px" fill="#122b39" opacity="1">5%</text><text text-anchor="middle" transform="translate(84,14)" font-family="Circular Std" font-size="11px" fill="#122b39" opacity="1">10%</text><text text-anchor="middle" transform="translate(126,14)" font-family="Circular Std" font-size="11px" fill="#122b39" opacity="1">15%</text><text text-anchor="middle" transform="translate(168,14)" font-family="Circular Std" font-size="11px" fill="#122b39" opacity="1">20%</text><text text-anchor="middle" transform="translate(210,14)" font-family="Circular Std" font-size="11px" fill="#122b39" opacity="1">25%</text><text text-anchor="middle" transform="translate(252,14)" font-family="Circular Std" font-size="11px" fill="#122b39" opacity="1">30%</text><text text-anchor="middle" transform="translate(294,14)" font-family="Circular Std" font-size="11px" fill="#122b39" opacity="1">35%</text><text text-anchor="middle" transform="translate(336,14)" font-family="Circular Std" font-size="11px" fill="#122b39" opacity="1">40%</text><text text-anchor="middle" transform="translate(378,14)" font-family="Circular Std" font-size="11px" fill="#122b39" opacity="1">45%</text></g><g class="mark-rule role-axis-domain" pointer-events="none"><line transform="translate(0,0)" x2="420" y2="0" stroke="#122b39" stroke-opacity="0.5" stroke-width="1" opacity="1"/></g><g class="mark-text role-axis-title" pointer-events="none"><text text-anchor="middle" transform="translate(210,37)" font-family="Circular Std" font-size="11px" font-weight="bold" fill="#122b39" opacity="1">Share using generative AI for work (%)</text></g></g><path class="foreground" aria-hidden="true" d="" pointer-events="none" display="none"/></g></g><g class="mark-group role-axis" role="graphics-symbol" aria-roledescription="axis" aria-label="Y-axis for a discrete scale with 7 values: United States, United Kingdom, Sweden, Netherlands, Germany, France, Italy"><g transform="translate(0.5,0.5)"><path class="background" aria-hidden="true" d="M0,0h0v0h0Z" pointer-events="none"/><g><g class="mark-rule role-axis-tick" pointer-events="none"><line transform="translate(0,18)" x2="0" y2="0" stroke="#122b39" stroke-width="1" opacity="1"/><line transform="translate(0,55)" x2="0" y2="0" stroke="#122b39" stroke-width="1" opacity="1"/><line transform="translate(0,92)" x2="0" y2="0" stroke="#122b39" stroke-width="1" opacity="1"/><line transform="translate(0,130)" x2="0" y2="0" stroke="#122b39" stroke-width="1" opacity="1"/><line transform="translate(0,167)" x2="0" y2="0" stroke="#122b39" stroke-width="1" opacity="1"/><line transform="translate(0,204)" x2="0" y2="0" stroke="#122b39" stroke-width="1" opacity="1"/><line transform="translate(0,241)" x2="0" y2="0" stroke="#122b39" stroke-width="1" opacity="1"/></g><g class="mark-text role-axis-label" pointer-events="none"><text text-anchor="end" transform="translate(-5,22.071428571428548)" font-family="Circular Std" font-size="12px" fill="#122b39" opacity="1">United States</text><text text-anchor="end" transform="translate(-5,59.214285714285694)" font-family="Circular Std" font-size="12px" fill="#122b39" opacity="1">United Kingdom</text><text text-anchor="end" transform="translate(-5,96.35714285714283)" font-family="Circular Std" font-size="12px" fill="#122b39" opacity="1">Sweden</text><text text-anchor="end" transform="translate(-5,133.5)" font-family="Circular Std" font-size="12px" fill="#122b39" opacity="1">Netherlands</text><text text-anchor="end" transform="translate(-5,170.64285714285714)" font-family="Circular Std" font-size="12px" fill="#122b39" opacity="1">Germany</text><text text-anchor="end" transform="translate(-5,207.78571428571428)" font-family="Circular Std" font-size="12px" fill="#122b39" opacity="1">France</text><text text-anchor="end" transform="translate(-5,244.92857142857144)" font-family="Circular Std" font-size="12px" fill="#122b39" opacity="1">Italy</text></g><g class="mark-rule role-axis-domain" pointer-events="none"><line transform="translate(0,0)" x2="0" y2="260" stroke="#122b39" stroke-opacity="0.5" stroke-width="1" opacity="1"/></g></g><path class="foreground" aria-hidden="true" d="" pointer-events="none" display="none"/></g></g><g class="mark-group role-scope" role="graphics-object" aria-roledescription="group mark container"><g transform="translate(0,4.571428571428548)"><path class="background" aria-hidden="true" d="M0,0L358.2,0C359.855745073482,0,361.2,1.344254926518,361.2,3L361.2,25C361.2,26.655745073482,359.855745073482,28,358.2,28L0,28C0,28,0,28,0,28L0,0C0,0,0,0,0,0Z"/><g clip-path="url(#clip141)"><g class="mark-group role-scope" role="graphics-object" aria-roledescription="group mark container"><g transform="translate(0,0)"><path class="background" aria-hidden="true" d="M0,0h0v28h0Z"/><g><g class="mark-rect role-mark concat_0_layer_0_marks" role="graphics-object" aria-roledescription="rect mark container"><path aria-label="share: 43; country: United States" role="graphics-symbol" aria-roledescription="bar" d="M0,0h361.2v28h-361.2Z" fill="#e6224b"/></g></g><path class="foreground" aria-hidden="true" d="" display="none"/></g></g></g><path class="foreground" aria-hidden="true" d="" display="none"/></g><g transform="translate(0,41.714285714285694)"><path class="background" aria-hidden="true" d="M0,0L301.92,0C303.57574507348204,0,304.92,1.344254926518,304.92,3L304.92,25C304.92,26.655745073482,303.57574507348204,28,301.92,28L0,28C0,28,0,28,0,28L0,0C0,0,0,0,0,0Z"/><g clip-path="url(#clip142)"><g class="mark-group role-scope" role="graphics-object" aria-roledescription="group mark container"><g transform="translate(0,0)"><path class="background" aria-hidden="true" d="M0,0h0v28h0Z"/><g><g class="mark-rect role-mark concat_0_layer_0_marks" role="graphics-object" aria-roledescription="rect mark container"><path aria-label="share: 36; country: United Kingdom" role="graphics-symbol" aria-roledescription="bar" d="M0,0h304.92v28h-304.92Z" fill="#179fdb"/></g></g><path class="foreground" aria-hidden="true" d="" display="none"/></g></g></g><path class="foreground" aria-hidden="true" d="" display="none"/></g><g transform="translate(0,78.85714285714283)"><path class="background" aria-hidden="true" d="M0,0L296.04,0C297.69574507348204,0,299.04,1.344254926518,299.04,3L299.04,25C299.04,26.655745073482,297.69574507348204,28,296.04,28L0,28C0,28,0,28,0,28L0,0C0,0,0,0,0,0Z"/><g clip-path="url(#clip143)"><g class="mark-group role-scope" role="graphics-object" aria-roledescription="group mark container"><g transform="translate(0,0)"><path class="background" aria-hidden="true" d="M0,0h0v28h0Z"/><g><g class="mark-rect role-mark concat_0_layer_0_marks" role="graphics-object" aria-roledescription="rect mark container"><path aria-label="share: 36; country: Sweden" role="graphics-symbol" aria-roledescription="bar" d="M0,0h299.04v28h-299.04Z" fill="#f4c245"/></g></g><path class="foreground" aria-hidden="true" d="" display="none"/></g></g></g><path class="foreground" aria-hidden="true" d="" display="none"/></g><g transform="translate(0,116)"><path class="background" aria-hidden="true" d="M0,0L296.04,0C297.69574507348204,0,299.04,1.344254926518,299.04,3L299.04,25C299.04,26.655745073482,297.69574507348204,28,296.04,28L0,28C0,28,0,28,0,28L0,0C0,0,0,0,0,0Z"/><g clip-path="url(#clip144)"><g class="mark-group role-scope" role="graphics-object" aria-roledescription="group mark container"><g transform="translate(0,0)"><path class="background" aria-hidden="true" d="M0,0h0v28h0Z"/><g><g class="mark-rect role-mark concat_0_layer_0_marks" role="graphics-object" aria-roledescription="rect mark container"><path aria-label="share: 36; country: Netherlands" role="graphics-symbol" aria-roledescription="bar" d="M0,0h299.04v28h-299.04Z" fill="#eb5c2e"/></g></g><path class="foreground" aria-hidden="true" d="" display="none"/></g></g></g><path class="foreground" aria-hidden="true" d="" display="none"/></g><g transform="translate(0,153.14285714285714)"><path class="background" aria-hidden="true" d="M0,0L261.6,0C263.25574507348205,0,264.6,1.344254926518,264.6,3L264.6,25C264.6,26.655745073482,263.25574507348205,28,261.6,28L0,28C0,28,0,28,0,28L0,0C0,0,0,0,0,0Z"/><g clip-path="url(#clip145)"><g class="mark-group role-scope" role="graphics-object" aria-roledescription="group mark container"><g transform="translate(0,0)"><path class="background" aria-hidden="true" d="M0,0h0v28h0Z"/><g><g class="mark-rect role-mark concat_0_layer_0_marks" role="graphics-object" aria-roledescription="rect mark container"><path aria-label="share: 32; country: Germany" role="graphics-symbol" aria-roledescription="bar" d="M0,0h264.6v28h-264.6Z" fill="#122b39"/></g></g><path class="foreground" aria-hidden="true" d="" display="none"/></g></g></g><path class="foreground" aria-hidden="true" d="" display="none"/></g><g transform="translate(0,190.28571428571428)"><path class="background" aria-hidden="true" d="M0,0L233.04000000000002,0C234.69574507348202,0,236.04000000000002,1.344254926518,236.04000000000002,3L236.04000000000002,25C236.04000000000002,26.655745073482,234.69574507348202,28,233.04000000000002,28L0,28C0,28,0,28,0,28L0,0C0,0,0,0,0,0Z"/><g clip-path="url(#clip146)"><g class="mark-group role-scope" role="graphics-object" aria-roledescription="group mark container"><g transform="translate(0,0)"><path class="background" aria-hidden="true" d="M0,0h0v28h0Z"/><g><g class="mark-rect role-mark concat_0_layer_0_marks" role="graphics-object" aria-roledescription="rect mark container"><path aria-label="share: 28; country: France" role="graphics-symbol" aria-roledescription="bar" d="M0,0h236.04000000000002v28h-236.04000000000002Z" fill="#36b7b4"/></g></g><path class="foreground" aria-hidden="true" d="" display="none"/></g></g></g><path class="foreground" aria-hidden="true" d="" display="none"/></g><g transform="translate(0,227.42857142857144)"><path class="background" aria-hidden="true" d="M0,0L212.04,0C213.695745073482,0,215.04,1.344254926518,215.04,3L215.04,25C215.04,26.655745073482,213.695745073482,28,212.04,28L0,28C0,28,0,28,0,28L0,0C0,0,0,0,0,0Z"/><g clip-path="url(#clip147)"><g class="mark-group role-scope" role="graphics-object" aria-roledescription="group mark container"><g transform="translate(0,0)"><path class="background" aria-hidden="true" d="M0,0h0v28h0Z"/><g><g class="mark-rect role-mark concat_0_layer_0_marks" role="graphics-object" aria-roledescription="rect mark container"><path aria-label="share: 26; country: Italy" role="graphics-symbol" aria-roledescription="bar" d="M0,0h215.04v28h-215.04Z" fill="#d6d4d4"/></g></g><path class="foreground" aria-hidden="true" d="" display="none"/></g></g></g><path class="foreground" aria-hidden="true" d="" display="none"/></g></g><g class="mark-text role-mark concat_0_layer_1_marks" role="graphics-object" aria-roledescription="text mark container"><text aria-label="share: 43; country: United States; label: 43.0%" role="graphics-symbol" aria-roledescription="text mark" text-anchor="start" transform="translate(366.2,22.571428571428548)" font-family="Circular Std" font-size="13px" font-weight="bold" fill="#122b39">43.0%</text><text aria-label="share: 36.3; country: United Kingdom; label: 36.3%" role="graphics-symbol" aria-roledescription="text mark" text-anchor="start" transform="translate(309.92,59.714285714285694)" font-family="Circular Std" font-size="13px" font-weight="bold" fill="#122b39">36.3%</text><text aria-label="share: 35.6; country: Sweden; label: 35.6%" role="graphics-symbol" aria-roledescription="text mark" text-anchor="start" transform="translate(304.04,96.85714285714283)" font-family="Circular Std" font-size="13px" font-weight="bold" fill="#122b39">35.6%</text><text aria-label="share: 35.6; country: Netherlands; label: 35.6%" role="graphics-symbol" aria-roledescription="text mark" text-anchor="start" transform="translate(304.04,134)" font-family="Circular Std" font-size="13px" font-weight="bold" fill="#122b39">35.6%</text><text aria-label="share: 31.5; country: Germany; label: 31.5%" role="graphics-symbol" aria-roledescription="text mark" text-anchor="start" transform="translate(269.6,171.14285714285714)" font-family="Circular Std" font-size="13px" font-weight="bold" fill="#122b39">31.5%</text><text aria-label="share: 28.1; country: France; label: 28.1%" role="graphics-symbol" aria-roledescription="text mark" text-anchor="start" transform="translate(241.04000000000002,208.28571428571428)" font-family="Circular Std" font-size="13px" font-weight="bold" fill="#122b39">28.1%</text><text aria-label="share: 25.6; country: Italy; label: 25.6%" role="graphics-symbol" aria-roledescription="text mark" text-anchor="start" transform="translate(220.04,245.42857142857144)" font-family="Circular Std" font-size="13px" font-weight="bold" fill="#122b39">25.6%</text></g><g class="mark-group role-title"><g transform="translate(-94.32799530029297,-39)"><path class="background" aria-hidden="true" d="M0,0h0v0h0Z" pointer-events="none"/><g><g class="mark-text role-title-text" role="graphics-symbol" aria-roledescription="title" aria-label="Title text 'One in three UK workers uses AI on the job'" pointer-events="none"><text text-anchor="start" transform="translate(0,13)" font-family="Circular Std" font-size="16px" font-weight="bold" fill="#122b39" opacity="1">One in three UK workers uses AI on the job</text></g><g class="mark-text role-title-subtitle" role="graphics-symbol" aria-roledescription="subtitle" aria-label="Subtitle text 'Share of workers using generative AI for work, 2026 (%)'" pointer-events="none"><text text-anchor="start" transform="translate(0,33)" font-family="Circular Std" font-size="12px" fill="#666666" opacity="1">Share of workers using generative AI for work, 2026 (%)</text></g></g><path class="foreground" aria-hidden="true" d="" pointer-events="none" display="none"/></g></g></g><path class="foreground" aria-hidden="true" d="" display="none"/></g></g><g class="mark-group role-scope concat_1_group" role="graphics-object" aria-roledescription="group mark container"><g transform="translate(0,306)"><path class="background" aria-hidden="true" d="M0.5,0.5h400v15h-400Z"/><g><g class="mark-text role-mark concat_1_marks" role="graphics-object" aria-roledescription="text mark container"><text aria-label="text: Source: Bick, Blandin, Deming, Fuchs-Schundeln &amp; Jessen (2026), Mind the Gap: AI Adoption in Europe and the U.S." role="graphics-symbol" aria-roledescription="text mark" text-anchor="start" transform="translate(0,7)" font-family="Circular Std" font-size="9px" fill="#999999">Source: Bick, Blandin, Deming, Fuchs-Schundeln &amp; Jessen (2026), Mind the Gap: AI Adoption in Europe and the U.S.</text></g></g><path class="foreground" aria-hidden="true" d="" display="none"/></g></g></g><path class="foreground" aria-hidden="true" d="" display="none"/></g></g></g><defs><clipPath id="clip141"><path d="M0,0L358.2,0C359.855745073482,0,361.2,1.344254926518,361.2,3L361.2,25C361.2,26.655745073482,359.855745073482,28,358.2,28L0,28C0,28,0,28,0,28L0,0C0,0,0,0,0,0Z"/></clipPath><clipPath id="clip142"><path d="M0,0L301.92,0C303.57574507348204,0,304.92,1.344254926518,304.92,3L304.92,25C304.92,26.655745073482,303.57574507348204,28,301.92,28L0,28C0,28,0,28,0,28L0,0C0,0,0,0,0,0Z"/></clipPath><clipPath id="clip143"><path d="M0,0L296.04,0C297.69574507348204,0,299.04,1.344254926518,299.04,3L299.04,25C299.04,26.655745073482,297.69574507348204,28,296.04,28L0,28C0,28,0,28,0,28L0,0C0,0,0,0,0,0Z"/></clipPath><clipPath id="clip144"><path d="M0,0L296.04,0C297.69574507348204,0,299.04,1.344254926518,299.04,3L299.04,25C299.04,26.655745073482,297.69574507348204,28,296.04,28L0,28C0,28,0,28,0,28L0,0C0,0,0,0,0,0Z"/></clipPath><clipPath id="clip145"><path d="M0,0L261.6,0C263.25574507348205,0,264.6,1.344254926518,264.6,3L264.6,25C264.6,26.655745073482,263.25574507348205,28,261.6,28L0,28C0,28,0,28,0,28L0,0C0,0,0,0,0,0Z"/></clipPath><clipPath id="clip146"><path d="M0,0L233.04000000000002,0C234.69574507348202,0,236.04000000000002,1.344254926518,236.04000000000002,3L236.04000000000002,25C236.04000000000002,26.655745073482,234.69574507348202,28,233.04000000000002,28L0,28C0,28,0,28,0,28L0,0C0,0,0,0,0,0Z"/></clipPath><clipPath id="clip147"><path d="M0,0L212.04,0C213.695745073482,0,215.04,1.344254926518,215.04,3L215.04,25C215.04,26.655745073482,213.695745073482,28,212.04,28L0,28C0,28,0,28,0,28L0,0C0,0,0,0,0,0Z"/></clipPath></defs></svg>