<svg xmlns="http://www.w3.org/2000/svg" xmlns:xlink="http://www.w3.org/1999/xlink" version="1.1" class="marks" width="588" height="327" viewBox="0 0 588 327"><rect width="588" height="327" fill="white"/><g fill="none" stroke-miterlimit="10" transform="translate(34,5)"><g class="mark-group role-frame root" role="graphics-object" aria-roledescription="group mark container"><g transform="translate(0,0)"><path class="background" aria-hidden="true" d="M0.5,0.5h500v300h-500Z"/><g><g class="mark-group role-axis" aria-hidden="true"><g transform="translate(0.5,0.5)"><path class="background" aria-hidden="true" d="M0,0h0v0h0Z" pointer-events="none"/><g><g class="mark-rule role-axis-grid" pointer-events="none"><line transform="translate(0,300)" x2="500" y2="0" stroke="#676A86" stroke-opacity="0.5" stroke-width="1" stroke-dasharray="1,5" opacity="1"/><line transform="translate(0,254)" x2="500" y2="0" stroke="#676A86" stroke-opacity="0.5" stroke-width="1" stroke-dasharray="1,5" opacity="1"/><line transform="translate(0,208)" x2="500" y2="0" stroke="#676A86" stroke-opacity="0.5" stroke-width="1" stroke-dasharray="1,5" opacity="1"/><line transform="translate(0,162)" x2="500" y2="0" stroke="#676A86" stroke-opacity="0.5" stroke-width="1" stroke-dasharray="1,5" opacity="1"/><line transform="translate(0,115)" x2="500" y2="0" stroke="#676A86" stroke-opacity="0.5" stroke-width="1" stroke-dasharray="1,5" opacity="1"/><line transform="translate(0,69)" x2="500" y2="0" stroke="#676A86" stroke-opacity="0.5" stroke-width="1" stroke-dasharray="1,5" opacity="1"/><line transform="translate(0,23)" x2="500" y2="0" stroke="#676A86" stroke-opacity="0.5" stroke-width="1" stroke-dasharray="1,5" opacity="1"/></g></g><path class="foreground" aria-hidden="true" d="" pointer-events="none" display="none"/></g></g><g class="mark-group role-axis" role="graphics-symbol" aria-roledescription="axis" aria-label="X-axis for a time scale with values from Tuesday, 01 January 2002, 12:00:00 AM to Tuesday, 01 October 2024, 1:00:00 AM"><g transform="translate(0.5,300.5)"><path class="background" aria-hidden="true" d="M0,0h0v0h0Z" pointer-events="none"/><g><g class="mark-rule role-axis-tick" pointer-events="none"><line transform="translate(0,0)" x2="0" y2="5" stroke="#676A86" stroke-opacity="0.5" stroke-width="1" opacity="1"/><line transform="translate(44,0)" x2="0" y2="5" stroke="#676A86" stroke-opacity="0.5" stroke-width="1" opacity="1"/><line transform="translate(88,0)" x2="0" y2="5" stroke="#676A86" stroke-opacity="0.5" stroke-width="1" opacity="1"/><line transform="translate(132,0)" x2="0" y2="5" stroke="#676A86" stroke-opacity="0.5" stroke-width="1" opacity="1"/><line transform="translate(176,0)" x2="0" y2="5" stroke="#676A86" stroke-opacity="0.5" stroke-width="1" opacity="1"/><line transform="translate(220,0)" x2="0" y2="5" stroke="#676A86" stroke-opacity="0.5" stroke-width="1" opacity="1"/><line transform="translate(264,0)" x2="0" y2="5" stroke="#676A86" stroke-opacity="0.5" stroke-width="1" opacity="1"/><line transform="translate(308,0)" x2="0" y2="5" stroke="#676A86" stroke-opacity="0.5" stroke-width="1" opacity="1"/><line transform="translate(352,0)" x2="0" y2="5" stroke="#676A86" stroke-opacity="0.5" stroke-width="1" opacity="1"/><line transform="translate(396,0)" x2="0" y2="5" stroke="#676A86" stroke-opacity="0.5" stroke-width="1" opacity="1"/><line transform="translate(440,0)" x2="0" y2="5" stroke="#676A86" stroke-opacity="0.5" stroke-width="1" opacity="1"/><line transform="translate(484,0)" x2="0" y2="5" stroke="#676A86" stroke-opacity="0.5" stroke-width="1" opacity="1"/></g><g class="mark-text role-axis-label" pointer-events="none"><text text-anchor="start" transform="translate(0,15)" font-family="Circular Std" font-size="10px" fill="#676A86" fill-opacity="0.7" opacity="1">2002</text><text text-anchor="middle" transform="translate(43.92827055000602,15)" font-family="Circular Std" font-size="10px" fill="#676A86" fill-opacity="0.7" opacity="1">2004</text><text text-anchor="middle" transform="translate(87.91671681309424,15)" font-family="Circular Std" font-size="10px" fill="#676A86" fill-opacity="0.7" opacity="1">2006</text><text text-anchor="middle" transform="translate(131.84498736310024,15)" font-family="Circular Std" font-size="10px" fill="#676A86" fill-opacity="0.7" opacity="1">2008</text><text text-anchor="middle" transform="translate(175.83343362618848,15)" font-family="Circular Std" font-size="10px" fill="#676A86" fill-opacity="0.7" opacity="1">2010</text><text text-anchor="middle" transform="translate(219.76170417619448,15)" font-family="Circular Std" font-size="10px" fill="#676A86" fill-opacity="0.7" opacity="1">2012</text><text text-anchor="middle" transform="translate(263.75015043928266,15)" font-family="Circular Std" font-size="10px" fill="#676A86" fill-opacity="0.7" opacity="1">2014</text><text text-anchor="middle" transform="translate(307.6784209892887,15)" font-family="Circular Std" font-size="10px" fill="#676A86" fill-opacity="0.7" opacity="1">2016</text><text text-anchor="middle" transform="translate(351.66686725237696,15)" font-family="Circular Std" font-size="10px" fill="#676A86" fill-opacity="0.7" opacity="1">2018</text><text text-anchor="middle" transform="translate(395.59513780238296,15)" font-family="Circular Std" font-size="10px" fill="#676A86" fill-opacity="0.7" opacity="1">2020</text><text text-anchor="middle" transform="translate(439.58358406547114,15)" font-family="Circular Std" font-size="10px" fill="#676A86" fill-opacity="0.7" opacity="1">2022</text><text text-anchor="middle" transform="translate(483.5118546154772,15)" font-family="Circular Std" font-size="10px" fill="#676A86" fill-opacity="0.7" opacity="1">2024</text></g><g class="mark-rule role-axis-domain" pointer-events="none"><line transform="translate(0,0)" x2="500" y2="0" stroke="#676A86" stroke-opacity="0.5" stroke-width="1" opacity="1"/></g></g><path class="foreground" aria-hidden="true" d="" pointer-events="none" display="none"/></g></g><g class="mark-group role-axis" role="graphics-symbol" aria-roledescription="axis" aria-label="Y-axis for a linear scale with values from 0.0 to 1.3"><g transform="translate(0.5,0.5)"><path class="background" aria-hidden="true" d="M0,0h0v0h0Z" pointer-events="none"/><g><g class="mark-text role-axis-label" pointer-events="none"><text text-anchor="end" transform="translate(-5,303)" font-family="Circular Std" font-size="10px" fill="#676A86" fill-opacity="0.7" opacity="1">0M</text><text text-anchor="end" transform="translate(-5,256.8461538461538)" font-family="Circular Std" font-size="10px" fill="#676A86" fill-opacity="0.7" opacity="1">0.2M</text><text text-anchor="end" transform="translate(-5,210.69230769230768)" font-family="Circular Std" font-size="10px" fill="#676A86" fill-opacity="0.7" opacity="1">0.4M</text><text text-anchor="end" transform="translate(-5,164.53846153846158)" font-family="Circular Std" font-size="10px" fill="#676A86" fill-opacity="0.7" opacity="1">0.6M</text><text text-anchor="end" transform="translate(-5,118.38461538461537)" font-family="Circular Std" font-size="10px" fill="#676A86" fill-opacity="0.7" opacity="1">0.8M</text><text text-anchor="end" transform="translate(-5,72.23076923076925)" font-family="Circular Std" font-size="10px" fill="#676A86" fill-opacity="0.7" opacity="1">1M</text><text text-anchor="end" transform="translate(-5,26.076923076923094)" font-family="Circular Std" font-size="10px" fill="#676A86" fill-opacity="0.7" opacity="1">1.2M</text></g><g class="mark-rule role-axis-domain" pointer-events="none"><line transform="translate(0,300)" x2="0" y2="-300" stroke="#676A86" stroke-opacity="0.5" stroke-width="1" opacity="1"/></g></g><path class="foreground" aria-hidden="true" d="" pointer-events="none" display="none"/></g></g><g class="mark-group role-scope layer_0_pathgroup" role="graphics-object" aria-roledescription="group mark container"><g transform="translate(0,0)"><path class="background" aria-hidden="true" d="M0,0h500v300h-500Z"/><g><g class="mark-area role-mark layer_0_marks" role="graphics-object" aria-roledescription="area mark container"><path aria-label="year_month: Jan 01, 2002; value: 0.365269090796; type: Men; custom_order: 0" role="graphics-symbol" aria-roledescription="area mark" d="M0,215.707C1.805,215.11,3.611,214.513,5.416,214.288C7.241,214.061,9.066,213.948,10.892,213.948C12.737,213.948,14.583,220.629,16.428,220.629C18.273,220.629,20.119,213.266,21.964,213.266C23.769,213.266,25.575,217.834,27.38,217.834C29.205,217.834,31.031,217.151,32.856,217.151C34.701,217.151,36.547,219.891,38.392,219.951C40.237,220.012,42.083,220.042,43.928,220.042C45.754,220.042,47.579,219.294,49.404,218.313C51.23,217.333,53.055,215.629,54.88,214.159C56.726,212.672,58.571,209.438,60.416,209.438C62.262,209.438,64.107,211.145,65.953,211.145C67.758,211.145,69.563,208.848,71.368,207.934C73.194,207.009,75.019,207.168,76.844,205.638C78.69,204.09,80.535,197.868,82.381,197.868C84.226,197.868,86.071,202.182,87.917,202.182C89.722,202.182,91.527,193.542,93.333,193.542C95.158,193.542,96.983,200.748,98.809,201.163C100.654,201.582,102.499,201.792,104.345,201.792C106.19,201.792,108.035,200.084,109.881,199.585C111.686,199.097,113.491,198.803,115.297,198.803C117.122,198.803,118.947,202.576,120.773,203.761C122.618,204.959,124.463,205.6,126.309,205.919C128.154,206.239,130,206.398,131.845,206.398C133.67,206.398,135.496,204.872,137.321,203.091C139.146,201.309,140.972,195.708,142.797,195.708C144.642,195.708,146.488,197.634,148.333,197.634C150.179,197.634,152.024,187.617,153.869,184.778C155.675,182,157.48,180.598,159.285,180.598C161.11,180.598,162.936,181.167,164.761,182.306C166.606,183.457,168.452,189.243,170.297,189.243C172.143,189.243,173.988,182.854,175.833,182.854C177.639,182.854,179.444,188.312,181.249,188.312C183.075,188.312,184.9,187.41,186.725,185.606C188.571,183.782,190.416,176.484,192.261,176.484C194.107,176.484,195.952,178.204,197.798,178.204C199.603,178.204,201.408,177.588,203.213,176.356C205.039,175.111,206.864,164.064,208.689,164.064C210.535,164.064,212.38,164.752,214.226,165.478C216.071,166.204,217.916,168.419,219.762,168.419C221.587,168.419,223.412,168.265,225.238,168.265C227.063,168.265,228.888,178.602,230.714,180.544C232.559,182.508,234.404,183.296,236.25,183.489C238.095,183.683,239.941,183.708,241.786,183.78C243.591,183.851,245.397,183.924,247.202,183.924C249.027,183.924,250.852,180.806,252.678,180.806C254.523,180.806,256.369,181.814,258.214,183.831C260.059,185.848,261.905,192.837,263.75,194.105C265.555,195.345,267.361,195.546,269.166,195.965C270.991,196.389,272.817,196.184,274.642,196.622C276.487,197.064,278.333,202.966,280.178,203.073C282.024,203.181,283.869,203.235,285.714,203.235C287.52,203.235,289.325,202.544,291.13,202.544C292.955,202.544,294.781,208.567,296.606,208.608C298.451,208.649,300.297,208.669,302.142,208.669C303.988,208.669,305.833,206.531,307.678,206.035C309.504,205.545,311.329,205.79,313.154,205.3C314.98,204.81,316.805,200.279,318.63,200.279C320.476,200.279,322.321,202.132,324.167,203.62C326.012,205.109,327.857,208.492,329.703,209.211C331.508,209.914,333.313,210.266,335.119,210.266C336.944,210.266,338.769,202.625,340.595,202.625C342.44,202.625,344.285,204.546,346.131,205.46C347.976,206.374,349.821,207.33,351.667,208.11C353.472,208.873,355.277,208.775,357.083,210.104C358.908,211.448,360.733,219.985,362.559,219.985C364.404,219.985,366.249,214.585,368.095,213.609C369.94,212.633,371.786,213.121,373.631,212.145C375.436,211.191,377.242,206.413,379.047,204.751C380.872,203.071,382.697,202.174,384.523,202.174C386.368,202.174,388.214,213.373,390.059,213.373C391.904,213.373,393.75,207.375,395.595,206.573C397.42,205.78,399.246,206.117,401.071,205.383C402.896,204.649,404.722,204.078,406.547,202.169C408.393,200.238,410.238,193.808,412.083,193.808C413.929,193.808,415.774,200.77,417.619,205.079C419.425,209.294,421.23,219.31,423.035,219.31C424.861,219.31,426.686,215.317,428.511,213.126C430.357,210.912,432.202,206.087,434.047,206.087C435.893,206.087,437.738,206.345,439.584,206.86C441.389,207.365,443.194,209.997,444.999,209.997C446.825,209.997,448.65,209.925,450.475,209.78C452.321,209.634,454.166,200.067,456.012,200.067C457.857,200.067,459.702,204.422,461.548,204.422C463.353,204.422,465.158,202.124,466.964,200.255C468.789,198.364,470.614,195.167,472.44,193.108C474.285,191.025,476.13,190.195,477.976,187.85C479.821,185.506,481.666,179.041,483.512,179.041C485.337,179.041,487.163,181.68,488.988,181.68C490.813,181.68,492.639,170.609,494.464,170.609C496.309,170.609,498.155,172.751,500,174.893L500,300C498.155,300,496.309,300,494.464,300C492.639,300,490.813,300,488.988,300C487.163,300,485.337,300,483.512,300C481.666,300,479.821,300,477.976,300C476.13,300,474.285,300,472.44,300C470.614,300,468.789,300,466.964,300C465.158,300,463.353,300,461.548,300C459.702,300,457.857,300,456.012,300C454.166,300,452.321,300,450.475,300C448.65,300,446.825,300,444.999,300C443.194,300,441.389,300,439.584,300C437.738,300,435.893,300,434.047,300C432.202,300,430.357,300,428.511,300C426.686,300,424.861,300,423.035,300C421.23,300,419.425,300,417.619,300C415.774,300,413.929,300,412.083,300C410.238,300,408.393,300,406.547,300C404.722,300,402.896,300,401.071,300C399.246,300,397.42,300,395.595,300C393.75,300,391.904,300,390.059,300C388.214,300,386.368,300,384.523,300C382.697,300,380.872,300,379.047,300C377.242,300,375.436,300,373.631,300C371.786,300,369.94,300,368.095,300C366.249,300,364.404,300,362.559,300C360.733,300,358.908,300,357.083,300C355.277,300,353.472,300,351.667,300C349.821,300,347.976,300,346.131,300C344.285,300,342.44,300,340.595,300C338.769,300,336.944,300,335.119,300C333.313,300,331.508,300,329.703,300C327.857,300,326.012,300,324.167,300C322.321,300,320.476,300,318.63,300C316.805,300,314.98,300,313.154,300C311.329,300,309.504,300,307.678,300C305.833,300,303.988,300,302.142,300C300.297,300,298.451,300,296.606,300C294.781,300,292.955,300,291.13,300C289.325,300,287.52,300,285.714,300C283.869,300,282.024,300,280.178,300C278.333,300,276.487,300,274.642,300C272.817,300,270.991,300,269.166,300C267.361,300,265.555,300,263.75,300C261.905,300,260.059,300,258.214,300C256.369,300,254.523,300,252.678,300C250.852,300,249.027,300,247.202,300C245.397,300,243.591,300,241.786,300C239.941,300,238.095,300,236.25,300C234.404,300,232.559,300,230.714,300C228.888,300,227.063,300,225.238,300C223.412,300,221.587,300,219.762,300C217.916,300,216.071,300,214.226,300C212.38,300,210.535,300,208.689,300C206.864,300,205.039,300,203.213,300C201.408,300,199.603,300,197.798,300C195.952,300,194.107,300,192.261,300C190.416,300,188.571,300,186.725,300C184.9,300,183.075,300,181.249,300C179.444,300,177.639,300,175.833,300C173.988,300,172.143,300,170.297,300C168.452,300,166.606,300,164.761,300C162.936,300,161.11,300,159.285,300C157.48,300,155.675,300,153.869,300C152.024,300,150.179,300,148.333,300C146.488,300,144.642,300,142.797,300C140.972,300,139.146,300,137.321,300C135.496,300,133.67,300,131.845,300C130,300,128.154,300,126.309,300C124.463,300,122.618,300,120.773,300C118.947,300,117.122,300,115.297,300C113.491,300,111.686,300,109.881,300C108.035,300,106.19,300,104.345,300C102.499,300,100.654,300,98.809,300C96.983,300,95.158,300,93.333,300C91.527,300,89.722,300,87.917,300C86.071,300,84.226,300,82.381,300C80.535,300,78.69,300,76.844,300C75.019,300,73.194,300,71.368,300C69.563,300,67.758,300,65.953,300C64.107,300,62.262,300,60.416,300C58.571,300,56.726,300,54.88,300C53.055,300,51.23,300,49.404,300C47.579,300,45.754,300,43.928,300C42.083,300,40.237,300,38.392,300C36.547,300,34.701,300,32.856,300C31.031,300,29.205,300,27.38,300C25.575,300,23.769,300,21.964,300C20.119,300,18.273,300,16.428,300C14.583,300,12.737,300,10.892,300C9.066,300,7.241,300,5.416,300C3.611,300,1.805,300,0,300Z" fill="#36B7B4"/></g></g><path class="foreground" aria-hidden="true" d="" display="none"/></g><g transform="translate(0,0)"><path class="background" aria-hidden="true" d="M0,0h500v300h-500Z"/><g><g class="mark-area role-mark layer_0_marks" role="graphics-object" aria-roledescription="area mark container"><path aria-label="year_month: Jan 01, 2002; value: 0.493806098689; type: Women; custom_order: 1" role="graphics-symbol" aria-roledescription="area mark" d="M0,101.752C1.805,100.157,3.611,98.563,5.416,98.563C7.241,98.563,9.066,98.566,10.892,98.574C12.737,98.582,14.583,107.077,16.428,107.077C18.273,107.077,20.119,93.847,21.964,93.847C23.769,93.847,25.575,94.021,27.38,94.369C29.205,94.72,31.031,95.884,32.856,97.561C34.701,99.258,36.547,102.932,38.392,104.532C40.237,106.133,42.083,107.165,43.928,107.165C45.754,107.165,47.579,100.27,49.404,97.106C51.23,93.942,53.055,88.826,54.88,88.179C56.726,87.525,58.571,87.48,60.416,87.198C62.262,86.915,64.107,86.959,65.953,86.482C67.758,86.016,69.563,81.483,71.368,81.483C73.194,81.483,75.019,84.177,76.844,84.177C78.69,84.177,80.535,68.467,82.381,68.467C84.226,68.467,86.071,72.908,87.917,72.908C89.722,72.908,91.527,64.26,93.333,64.26C95.158,64.26,96.983,66.238,98.809,67.862C100.654,69.505,102.499,74.091,104.345,74.091C106.19,74.091,108.035,69.754,109.881,69.15C111.686,68.559,113.491,68.264,115.297,68.264C117.122,68.264,118.947,71.636,120.773,73.14C122.618,74.661,124.463,77.332,126.309,77.332C128.154,77.332,130,77.287,131.845,77.196C133.67,77.106,135.496,72.261,137.321,69.633C139.146,67.005,140.972,61.427,142.797,61.427C144.642,61.427,146.488,63.419,148.333,63.419C150.179,63.419,152.024,50.892,153.869,46.937C155.675,43.068,157.48,39.749,159.285,39.749C161.11,39.749,162.936,40.222,164.761,41.169C166.606,42.127,168.452,50.104,170.297,50.104C172.143,50.104,173.988,39.711,175.833,39.711C177.639,39.711,179.444,52.194,181.249,52.194C183.075,52.194,184.9,45.091,186.725,41.646C188.571,38.163,190.416,31.412,192.261,31.412C194.107,31.412,195.952,40.496,197.798,40.496C199.603,40.496,201.408,35.931,203.213,31.315C205.039,26.648,206.864,12.542,208.689,12.542C210.535,12.542,212.38,18.24,214.226,20.252C216.071,22.264,217.916,24.379,219.762,24.612C221.587,24.843,223.412,24.728,225.238,24.959C227.063,25.19,228.888,42.268,230.714,45.293C232.559,48.351,234.404,49.88,236.25,49.88C238.095,49.88,239.941,46.082,241.786,46.082C243.591,46.082,245.397,48.657,247.202,48.657C249.027,48.657,250.852,47.965,252.678,47.965C254.523,47.965,256.369,56.103,258.214,60.466C260.059,64.83,261.905,71.702,263.75,74.145C265.555,76.536,267.361,77.731,269.166,77.731C270.991,77.731,272.817,77.079,274.642,76.774C276.487,76.465,278.333,75.888,280.178,75.888C282.024,75.888,283.869,82.43,285.714,84.436C287.52,86.399,289.325,85.592,291.13,87.902C292.955,90.239,294.781,102.542,296.606,102.542C298.451,102.542,300.297,102.355,302.142,101.983C303.988,101.61,305.833,100.22,307.678,100.22C309.504,100.22,311.329,105.166,313.154,105.166C314.98,105.166,316.805,101.481,318.63,101.481C320.476,101.481,322.321,107.707,324.167,110.217C326.012,112.727,327.857,115.965,329.703,116.541C331.508,117.104,333.313,117.386,335.119,117.386C336.944,117.386,338.769,116.372,340.595,116.372C342.44,116.372,344.285,116.933,346.131,116.933C347.976,116.933,349.821,115.839,351.667,115.839C353.472,115.839,355.277,118.874,357.083,120.419C358.908,121.982,360.733,125.163,362.559,125.163C364.404,125.163,366.249,118.039,368.095,118.039C369.94,118.039,371.786,121.146,373.631,121.146C375.436,121.146,377.242,117.709,379.047,115.717C380.872,113.702,382.697,109.113,384.523,109.113C386.368,109.113,388.214,126.81,390.059,126.81C391.904,126.81,393.75,117.99,395.595,116.989C397.42,115.998,399.246,115.503,401.071,115.503C402.896,115.503,404.722,120.054,406.547,120.054C408.393,120.054,410.238,109.263,412.083,109.263C413.929,109.263,415.774,121.253,417.619,127.773C419.425,134.151,421.23,147.913,423.035,147.913C424.861,147.913,426.686,135.992,428.511,134.131C430.357,132.25,432.202,132.138,434.047,131.31C435.893,130.482,437.738,129.163,439.584,129.163C441.389,129.163,443.194,132.466,444.999,132.466C446.825,132.466,448.65,130.885,450.475,127.722C452.321,124.524,454.166,105.472,456.012,105.472C457.857,105.472,459.702,110.673,461.548,110.673C463.353,110.673,465.158,110.332,466.964,109.649C468.789,108.96,470.614,99.869,472.44,98.93C474.285,97.981,476.13,98.456,477.976,97.507C479.821,96.558,481.666,85.338,483.512,85.338C485.337,85.338,487.163,90.393,488.988,90.393C490.813,90.393,492.639,80.603,494.464,77.575C496.309,74.515,498.155,73.363,500,72.212L500,174.893C498.155,172.751,496.309,170.609,494.464,170.609C492.639,170.609,490.813,181.68,488.988,181.68C487.163,181.68,485.337,179.041,483.512,179.041C481.666,179.041,479.821,185.506,477.976,187.85C476.13,190.195,474.285,191.025,472.44,193.108C470.614,195.167,468.789,198.364,466.964,200.255C465.158,202.124,463.353,204.422,461.548,204.422C459.702,204.422,457.857,200.067,456.012,200.067C454.166,200.067,452.321,209.634,450.475,209.78C448.65,209.925,446.825,209.997,444.999,209.997C443.194,209.997,441.389,207.365,439.584,206.86C437.738,206.345,435.893,206.087,434.047,206.087C432.202,206.087,430.357,210.912,428.511,213.126C426.686,215.317,424.861,219.31,423.035,219.31C421.23,219.31,419.425,209.294,417.619,205.079C415.774,200.77,413.929,193.808,412.083,193.808C410.238,193.808,408.393,200.238,406.547,202.169C404.722,204.078,402.896,204.649,401.071,205.383C399.246,206.117,397.42,205.78,395.595,206.573C393.75,207.375,391.904,213.373,390.059,213.373C388.214,213.373,386.368,202.174,384.523,202.174C382.697,202.174,380.872,203.071,379.047,204.751C377.242,206.413,375.436,211.191,373.631,212.145C371.786,213.121,369.94,212.633,368.095,213.609C366.249,214.585,364.404,219.985,362.559,219.985C360.733,219.985,358.908,211.448,357.083,210.104C355.277,208.775,353.472,208.873,351.667,208.11C349.821,207.33,347.976,206.374,346.131,205.46C344.285,204.546,342.44,202.625,340.595,202.625C338.769,202.625,336.944,210.266,335.119,210.266C333.313,210.266,331.508,209.914,329.703,209.211C327.857,208.492,326.012,205.109,324.167,203.62C322.321,202.132,320.476,200.279,318.63,200.279C316.805,200.279,314.98,204.81,313.154,205.3C311.329,205.79,309.504,205.545,307.678,206.035C305.833,206.531,303.988,208.669,302.142,208.669C300.297,208.669,298.451,208.649,296.606,208.608C294.781,208.567,292.955,202.544,291.13,202.544C289.325,202.544,287.52,203.235,285.714,203.235C283.869,203.235,282.024,203.181,280.178,203.073C278.333,202.966,276.487,197.064,274.642,196.622C272.817,196.184,270.991,196.389,269.166,195.965C267.361,195.546,265.555,195.345,263.75,194.105C261.905,192.837,260.059,185.848,258.214,183.831C256.369,181.814,254.523,180.806,252.678,180.806C250.852,180.806,249.027,183.924,247.202,183.924C245.397,183.924,243.591,183.851,241.786,183.78C239.941,183.708,238.095,183.683,236.25,183.489C234.404,183.296,232.559,182.508,230.714,180.544C228.888,178.602,227.063,168.265,225.238,168.265C223.412,168.265,221.587,168.419,219.762,168.419C217.916,168.419,216.071,166.204,214.226,165.478C212.38,164.752,210.535,164.064,208.689,164.064C206.864,164.064,205.039,175.111,203.213,176.356C201.408,177.588,199.603,178.204,197.798,178.204C195.952,178.204,194.107,176.484,192.261,176.484C190.416,176.484,188.571,183.782,186.725,185.606C184.9,187.41,183.075,188.312,181.249,188.312C179.444,188.312,177.639,182.854,175.833,182.854C173.988,182.854,172.143,189.243,170.297,189.243C168.452,189.243,166.606,183.457,164.761,182.306C162.936,181.167,161.11,180.598,159.285,180.598C157.48,180.598,155.675,182,153.869,184.778C152.024,187.617,150.179,197.634,148.333,197.634C146.488,197.634,144.642,195.708,142.797,195.708C140.972,195.708,139.146,201.309,137.321,203.091C135.496,204.872,133.67,206.398,131.845,206.398C130,206.398,128.154,206.239,126.309,205.919C124.463,205.6,122.618,204.959,120.773,203.761C118.947,202.576,117.122,198.803,115.297,198.803C113.491,198.803,111.686,199.097,109.881,199.585C108.035,200.084,106.19,201.792,104.345,201.792C102.499,201.792,100.654,201.582,98.809,201.163C96.983,200.748,95.158,193.542,93.333,193.542C91.527,193.542,89.722,202.182,87.917,202.182C86.071,202.182,84.226,197.868,82.381,197.868C80.535,197.868,78.69,204.09,76.844,205.638C75.019,207.168,73.194,207.009,71.368,207.934C69.563,208.848,67.758,211.145,65.953,211.145C64.107,211.145,62.262,209.438,60.416,209.438C58.571,209.438,56.726,212.672,54.88,214.159C53.055,215.629,51.23,217.333,49.404,218.313C47.579,219.294,45.754,220.042,43.928,220.042C42.083,220.042,40.237,220.012,38.392,219.951C36.547,219.891,34.701,217.151,32.856,217.151C31.031,217.151,29.205,217.834,27.38,217.834C25.575,217.834,23.769,213.266,21.964,213.266C20.119,213.266,18.273,220.629,16.428,220.629C14.583,220.629,12.737,213.948,10.892,213.948C9.066,213.948,7.241,214.061,5.416,214.288C3.611,214.513,1.805,215.11,0,215.707Z" fill="#E6224B"/></g></g><path class="foreground" aria-hidden="true" d="" display="none"/></g></g><g class="mark-text role-mark layer_1_marks" role="graphics-object" aria-roledescription="text mark container"><text aria-label="Max of year_month: Oct 01, 2024; value for max year_month: 0.542130503861; type: Men" role="graphics-symbol" aria-roledescription="text mark" text-anchor="start" transform="translate(503,228.8929606475158)" font-family="Circular Std" font-size="13px" fill="#36B7B4">Men</text><text aria-label="Max of year_month: Oct 01, 2024; value for max year_month: 0.444951421032; type: Women" role="graphics-symbol" aria-roledescription="text mark" text-anchor="start" transform="translate(503,141.31890283870936)" font-family="Circular Std" font-size="13px" fill="#E6224B">Women</text></g></g><path class="foreground" aria-hidden="true" d="" display="none"/></g></g></g></svg>