<svg xmlns="http://www.w3.org/2000/svg" xmlns:xlink="http://www.w3.org/1999/xlink" version="1.1" class="marks" width="431" height="356" viewBox="0 0 431 356"><rect width="431" height="356" fill="white"/><g fill="none" stroke-miterlimit="10" transform="translate(25,34)"><g class="mark-group role-frame root" role="graphics-object" aria-roledescription="group mark container"><g transform="translate(0,0)"><path class="background" aria-hidden="true" d="M0.5,0.5h400v300h-400Z"/><g><g class="mark-group role-axis" aria-hidden="true"><g transform="translate(0.5,0.5)"><path class="background" aria-hidden="true" d="M0,0h0v0h0Z" pointer-events="none"/><g><g class="mark-rule role-axis-grid" pointer-events="none"><line transform="translate(0,300)" x2="400" y2="0" stroke="#676A86" stroke-opacity="0.5" stroke-width="1" stroke-dasharray="1,5" opacity="1"/><line transform="translate(0,242)" x2="400" y2="0" stroke="#676A86" stroke-opacity="0.5" stroke-width="1" stroke-dasharray="1,5" opacity="1"/><line transform="translate(0,185)" x2="400" y2="0" stroke="#676A86" stroke-opacity="0.5" stroke-width="1" stroke-dasharray="1,5" opacity="1"/><line transform="translate(0,127)" x2="400" y2="0" stroke="#676A86" stroke-opacity="0.5" stroke-width="1" stroke-dasharray="1,5" opacity="1"/><line transform="translate(0,69)" x2="400" y2="0" stroke="#676A86" stroke-opacity="0.5" stroke-width="1" stroke-dasharray="1,5" opacity="1"/><line transform="translate(0,12)" x2="400" y2="0" stroke="#676A86" stroke-opacity="0.5" stroke-width="1" stroke-dasharray="1,5" opacity="1"/></g></g><path class="foreground" aria-hidden="true" d="" pointer-events="none" display="none"/></g></g><g class="mark-group role-axis" role="graphics-symbol" aria-roledescription="axis" aria-label="X-axis titled 'Management score' for a linear scale with values from −0.1 to 1.1"><g transform="translate(0.5,300.5)"><path class="background" aria-hidden="true" d="M0,0h0v0h0Z" pointer-events="none"/><g><g class="mark-rule role-axis-tick" pointer-events="none"><line transform="translate(0,0)" x2="0" y2="5" stroke="#676A86" stroke-opacity="0.5" stroke-width="1" opacity="1"/><line transform="translate(33,0)" x2="0" y2="5" stroke="#676A86" stroke-opacity="0.5" stroke-width="1" opacity="1"/><line transform="translate(67,0)" x2="0" y2="5" stroke="#676A86" stroke-opacity="0.5" stroke-width="1" opacity="1"/><line transform="translate(100,0)" x2="0" y2="5" stroke="#676A86" stroke-opacity="0.5" stroke-width="1" opacity="1"/><line transform="translate(133,0)" x2="0" y2="5" stroke="#676A86" stroke-opacity="0.5" stroke-width="1" opacity="1"/><line transform="translate(167,0)" x2="0" y2="5" stroke="#676A86" stroke-opacity="0.5" stroke-width="1" opacity="1"/><line transform="translate(200,0)" x2="0" y2="5" stroke="#676A86" stroke-opacity="0.5" stroke-width="1" opacity="1"/><line transform="translate(233,0)" x2="0" y2="5" stroke="#676A86" stroke-opacity="0.5" stroke-width="1" opacity="1"/><line transform="translate(267,0)" x2="0" y2="5" stroke="#676A86" stroke-opacity="0.5" stroke-width="1" opacity="1"/><line transform="translate(300,0)" x2="0" y2="5" stroke="#676A86" stroke-opacity="0.5" stroke-width="1" opacity="1"/><line transform="translate(333,0)" x2="0" y2="5" stroke="#676A86" stroke-opacity="0.5" stroke-width="1" opacity="1"/><line transform="translate(367,0)" x2="0" y2="5" stroke="#676A86" stroke-opacity="0.5" stroke-width="1" opacity="1"/><line transform="translate(400,0)" x2="0" y2="5" stroke="#676A86" stroke-opacity="0.5" stroke-width="1" opacity="1"/></g><g class="mark-text role-axis-label" pointer-events="none"><text text-anchor="start" transform="translate(0,15)" font-family="Circular Std" font-size="10px" fill="#676A86" fill-opacity="0.7" opacity="1">−0.1</text><text text-anchor="middle" transform="translate(33.33333333333333,15)" font-family="Circular Std" font-size="10px" fill="#676A86" fill-opacity="0.7" opacity="1">0.0</text><text text-anchor="middle" transform="translate(66.66666666666666,15)" font-family="Circular Std" font-size="10px" fill="#676A86" fill-opacity="0.7" opacity="1">0.1</text><text text-anchor="middle" transform="translate(100,15)" font-family="Circular Std" font-size="10px" fill="#676A86" fill-opacity="0.7" opacity="1">0.2</text><text text-anchor="middle" transform="translate(133.33333333333331,15)" font-family="Circular Std" font-size="10px" fill="#676A86" fill-opacity="0.7" opacity="1">0.3</text><text text-anchor="middle" transform="translate(166.66666666666666,15)" font-family="Circular Std" font-size="10px" fill="#676A86" fill-opacity="0.7" opacity="1">0.4</text><text text-anchor="middle" transform="translate(199.99999999999994,15)" font-family="Circular Std" font-size="10px" fill="#676A86" fill-opacity="0.7" opacity="1">0.5</text><text text-anchor="middle" transform="translate(233.33333333333331,15)" font-family="Circular Std" font-size="10px" fill="#676A86" fill-opacity="0.7" opacity="1">0.6</text><text text-anchor="middle" transform="translate(266.66666666666663,15)" font-family="Circular Std" font-size="10px" fill="#676A86" fill-opacity="0.7" opacity="1">0.7</text><text text-anchor="middle" transform="translate(299.99999999999994,15)" font-family="Circular Std" font-size="10px" fill="#676A86" fill-opacity="0.7" opacity="1">0.8</text><text text-anchor="middle" transform="translate(333.3333333333333,15)" font-family="Circular Std" font-size="10px" fill="#676A86" fill-opacity="0.7" opacity="1">0.9</text><text text-anchor="middle" transform="translate(366.66666666666663,15)" font-family="Circular Std" font-size="10px" fill="#676A86" fill-opacity="0.7" opacity="1">1.0</text><text text-anchor="end" transform="translate(400,15)" font-family="Circular Std" font-size="10px" fill="#676A86" fill-opacity="0.7" opacity="1">1.1</text></g><g class="mark-rule role-axis-domain" pointer-events="none"><line transform="translate(0,0)" x2="400" y2="0" stroke="#676A86" stroke-opacity="0.5" stroke-width="1" opacity="1"/></g><g class="mark-text role-axis-title" pointer-events="none"><text text-anchor="middle" transform="translate(200,-6)" font-family="Circular Std" font-size="12px" font-weight="bold" fill="#676A86" fill-opacity="0.8" opacity="1">Management score</text></g></g><path class="foreground" aria-hidden="true" d="" pointer-events="none" display="none"/></g></g><g class="mark-group role-axis" role="graphics-symbol" aria-roledescription="axis" aria-label="Y-axis titled 'Density' for a linear scale with values from 0.0 to 2.6"><g transform="translate(0.5,0.5)"><path class="background" aria-hidden="true" d="M0,0h0v0h0Z" pointer-events="none"/><g><g class="mark-text role-axis-label" pointer-events="none"><text text-anchor="end" transform="translate(-5,303)" font-family="Circular Std" font-size="10px" fill="#676A86" fill-opacity="0.7" opacity="1">0.0</text><text text-anchor="end" transform="translate(-5,245.30769230769232)" font-family="Circular Std" font-size="10px" fill="#676A86" fill-opacity="0.7" opacity="1">0.5</text><text text-anchor="end" transform="translate(-5,187.6153846153846)" font-family="Circular Std" font-size="10px" fill="#676A86" fill-opacity="0.7" opacity="1">1.0</text><text text-anchor="end" transform="translate(-5,129.92307692307693)" font-family="Circular Std" font-size="10px" fill="#676A86" fill-opacity="0.7" opacity="1">1.5</text><text text-anchor="end" transform="translate(-5,72.23076923076925)" font-family="Circular Std" font-size="10px" fill="#676A86" fill-opacity="0.7" opacity="1">2.0</text><text text-anchor="end" transform="translate(-5,14.538461538461565)" font-family="Circular Std" font-size="10px" fill="#676A86" fill-opacity="0.7" opacity="1">2.5</text></g><g class="mark-rule role-axis-domain" pointer-events="none"><line transform="translate(0,300)" x2="0" y2="-300" stroke="#676A86" stroke-opacity="0.5" stroke-width="1" opacity="1"/></g><g class="mark-text role-axis-title" pointer-events="none"><text text-anchor="start" transform="translate(0,-3)" font-family="Rubik Vinyl" font-size="12px" font-weight="bold" fill="#676A86" fill-opacity="0.8" opacity="1">Density</text></g></g><path class="foreground" aria-hidden="true" d="" pointer-events="none" display="none"/></g></g><g class="mark-group role-scope pathgroup" role="graphics-object" aria-roledescription="group mark container"><g transform="translate(0,0)"><path class="background" aria-hidden="true" d="M0,0h400v300h-400Z"/><g><g class="mark-line role-mark marks" role="graphics-object" aria-roledescription="line mark container"><path aria-label="Management score: −0.0368421051651; Density: 0.1; Date: 2016" role="graphics-symbol" aria-roledescription="line mark" d="M21.053,284.09L22.26,282.127C23.467,280.163,25.882,276.236,28.297,272.046C30.712,267.855,33.126,263.401,35.541,259.084C37.956,254.766,40.371,250.585,42.786,246.781C45.2,242.976,47.615,239.548,50.03,236.311C52.445,233.073,54.859,230.027,57.274,227.581C59.689,225.135,62.104,223.289,64.518,222.134C66.933,220.978,69.348,220.512,71.763,220.51C74.178,220.507,76.592,220.967,79.007,221.519C81.422,222.072,83.837,222.718,86.251,223.235C88.666,223.753,91.081,224.142,93.496,224.203C95.91,224.264,98.325,223.996,100.74,223.203C103.155,222.41,105.569,221.092,107.984,219.474C110.399,217.857,112.814,215.94,115.229,214.304C117.643,212.669,120.058,211.314,122.473,209.743C124.888,208.171,127.302,206.382,129.717,204.403C132.132,202.424,134.547,200.254,136.961,198.141C139.376,196.027,141.791,193.97,144.206,191.686C146.621,189.403,149.035,186.893,151.45,184.001C153.865,181.11,156.28,177.837,158.694,174.607C161.109,171.377,163.524,168.191,165.939,165.063C168.353,161.936,170.768,158.868,173.183,156.014C175.598,153.16,178.012,150.522,180.427,147.315C182.842,144.108,185.257,140.332,187.672,136.696C190.086,133.061,192.501,129.564,194.916,126.345C197.331,123.125,199.745,120.183,202.16,116.988C204.575,113.793,206.99,110.346,209.404,106.948C211.819,103.55,214.234,100.201,216.649,97.416C219.064,94.631,221.478,92.41,223.893,90.349C226.308,88.287,228.723,86.384,231.137,84.774C233.552,83.164,235.967,81.846,238.382,80.865C240.796,79.883,243.211,79.238,245.626,79.511C248.041,79.784,250.456,80.975,252.87,83.007C255.285,85.038,257.7,87.909,260.115,91.231C262.529,94.553,264.944,98.326,267.359,102.956C269.774,107.586,272.188,113.073,274.603,119.175C277.018,125.277,279.433,131.994,281.847,138.719C284.262,145.444,286.677,152.179,289.092,159.215C291.507,166.251,293.921,173.588,296.336,181.137C298.751,188.686,301.166,196.446,303.58,204.167C305.995,211.888,308.41,219.57,310.825,226.67C313.239,233.771,315.654,240.29,318.069,246.181C320.484,252.073,322.899,257.338,325.313,262.066C327.728,266.794,330.143,270.986,332.558,274.66C334.972,278.334,337.387,281.49,339.802,284.145C342.217,286.8,344.631,288.955,347.046,290.777C349.461,292.599,351.876,294.089,354.29,295.292C356.705,296.496,359.12,297.414,361.535,298.056C363.95,298.698,366.364,299.064,368.779,299.303C371.194,299.542,373.609,299.653,374.816,299.708L376.023,299.764" stroke="#36B7B4" stroke-width="2"/></g></g><path class="foreground" aria-hidden="true" d="" display="none"/></g><g transform="translate(0,0)"><path class="background" aria-hidden="true" d="M0,0h400v300h-400Z"/><g><g class="mark-line role-mark marks" role="graphics-object" aria-roledescription="line mark container"><path aria-label="Management score: −0.05; Density: 0.1; Date: 2019" role="graphics-symbol" aria-roledescription="line mark" d="M16.667,288.959L17.876,287.967C19.085,286.976,21.504,284.993,23.923,282.935C26.342,280.876,28.76,278.743,31.179,276.619C33.598,274.496,36.017,272.383,38.435,270.128C40.854,267.874,43.273,265.478,45.692,262.982C48.11,260.487,50.529,257.891,52.948,255.459C55.367,253.027,57.785,250.758,60.204,248.37C62.623,245.982,65.042,243.476,67.46,240.959C69.879,238.441,72.298,235.914,74.717,233.331C77.135,230.747,79.554,228.108,81.973,225.764C84.392,223.421,86.81,221.373,89.229,219.638C91.648,217.903,94.067,216.482,96.485,215.297C98.904,214.113,101.323,213.165,103.741,212.538C106.16,211.912,108.579,211.605,110.998,211.234C113.416,210.863,115.835,210.427,118.254,209.674C120.673,208.92,123.091,207.849,125.51,206.63C127.929,205.411,130.348,204.044,132.766,201.476C135.185,198.907,137.604,195.136,140.023,190.899C142.441,186.662,144.86,181.958,147.279,177.097C149.698,172.235,152.116,167.216,154.535,161.962C156.954,156.709,159.373,151.222,161.791,146.143C164.21,141.063,166.629,136.391,169.048,131.726C171.466,127.06,173.885,122.401,176.304,118.21C178.723,114.02,181.141,110.298,183.56,106.908C185.979,103.518,188.398,100.46,190.816,97.931C193.235,95.403,195.654,93.404,198.073,91.77C200.491,90.136,202.91,88.866,205.329,87.212C207.748,85.559,210.166,83.522,212.585,81.529C215.004,79.535,217.423,77.584,219.841,76.207C222.26,74.83,224.679,74.028,227.098,73.601C229.516,73.174,231.935,73.124,234.354,74.022C236.772,74.92,239.191,76.767,241.61,79.014C244.029,81.26,246.447,83.907,248.866,86.973C251.285,90.04,253.704,93.527,256.122,97.707C258.541,101.887,260.96,106.76,263.379,112.34C265.797,117.92,268.216,124.206,270.635,130.887C273.054,137.568,275.472,144.643,277.891,151.645C280.31,158.646,282.729,165.573,285.147,172.398C287.566,179.222,289.985,185.945,292.404,192.77C294.822,199.595,297.241,206.523,299.66,213.225C302.079,219.927,304.497,226.404,306.916,232.568C309.335,238.732,311.754,244.583,314.172,250.071C316.591,255.559,319.01,260.685,321.429,265.112C323.847,269.539,326.266,273.267,328.685,276.559C331.104,279.851,333.522,282.707,335.941,285.262C338.36,287.818,340.779,290.074,343.197,291.966C345.616,293.858,348.035,295.386,350.454,296.447C352.872,297.509,355.291,298.104,357.71,298.545C360.128,298.987,362.547,299.275,364.966,299.476C367.385,299.677,369.803,299.791,371.013,299.848L372.222,299.905" stroke="#E6224B" stroke-width="2"/></g></g><path class="foreground" aria-hidden="true" d="" display="none"/></g><g transform="translate(0,0)"><path class="background" aria-hidden="true" d="M0,0h400v300h-400Z"/><g><g class="mark-line role-mark marks" role="graphics-object" aria-roledescription="line mark container"><path aria-label="Management score: −0.05; Density: 0.1; Date: 2020" role="graphics-symbol" aria-roledescription="line mark" d="M16.667,292.979L17.89,292.191C19.114,291.402,21.561,289.825,24.008,288.129C26.455,286.433,28.902,284.618,31.349,282.7C33.796,280.781,36.243,278.759,38.69,276.573C41.138,274.387,43.585,272.038,46.032,269.586C48.479,267.134,50.926,264.579,53.373,262.12C55.82,259.661,58.267,257.297,60.714,254.932C63.161,252.567,65.608,250.201,68.056,247.967C70.503,245.733,72.95,243.632,75.397,241.62C77.844,239.607,80.291,237.685,82.738,236.105C85.185,234.524,87.632,233.287,90.079,232.193C92.526,231.099,94.974,230.148,97.421,229.241C99.868,228.335,102.315,227.472,104.762,226.526C107.209,225.581,109.656,224.553,112.103,222.946C114.55,221.34,116.997,219.155,119.444,216.697C121.892,214.239,124.339,211.508,126.786,208.656C129.233,205.803,131.68,202.829,134.127,199.622C136.574,196.415,139.021,192.977,141.468,189.117C143.915,185.257,146.362,180.975,148.81,176.284C151.257,171.593,153.704,166.492,156.151,161.372C158.598,156.252,161.045,151.113,163.492,146.246C165.939,141.379,168.386,136.785,170.833,132.026C173.28,127.268,175.728,122.345,178.175,117.96C180.622,113.574,183.069,109.726,185.516,105.872C187.963,102.018,190.41,98.159,192.857,94.556C195.304,90.952,197.751,87.603,200.198,84.698C202.646,81.793,205.093,79.331,207.54,77.345C209.987,75.36,212.434,73.85,214.881,72.607C217.328,71.365,219.775,70.389,222.222,69.672C224.669,68.954,227.116,68.495,229.563,68.49C232.011,68.485,234.458,68.936,236.905,69.926C239.352,70.915,241.799,72.444,244.246,74.011C246.693,75.578,249.14,77.184,251.587,79.5C254.034,81.817,256.481,84.845,258.929,88.73C261.376,92.616,263.823,97.36,266.27,102.908C268.717,108.456,271.164,114.808,273.611,121.774C276.058,128.739,278.505,136.317,280.952,144.206C283.399,152.095,285.847,160.295,288.294,168.459C290.741,176.623,293.188,184.751,295.635,192.698C298.082,200.646,300.529,208.412,302.976,215.97C305.423,223.527,307.87,230.875,310.317,237.73C312.765,244.584,315.212,250.946,317.659,256.536C320.106,262.127,322.553,266.948,325,271.074C327.447,275.2,329.894,278.632,332.341,281.51C334.788,284.388,337.235,286.713,339.683,288.676C342.13,290.639,344.577,292.242,347.024,293.564C349.471,294.887,351.918,295.93,354.365,296.763C356.812,297.595,359.259,298.215,361.706,298.663C364.153,299.11,366.601,299.383,369.048,299.565C371.495,299.748,373.942,299.839,375.165,299.885L376.389,299.93" stroke="#F4C245" stroke-width="2"/></g></g><path class="foreground" aria-hidden="true" d="" display="none"/></g><g transform="translate(0,0)"><path class="background" aria-hidden="true" d="M0,0h400v300h-400Z"/><g><g class="mark-line role-mark marks" role="graphics-object" aria-roledescription="line mark container"><path aria-label="Management score: −0.05; Density: 0.0; Date: 2023" role="graphics-symbol" aria-roledescription="line mark" d="M16.667,295.083L17.89,294.423C19.114,293.763,21.561,292.443,24.008,291.102C26.455,289.762,28.902,288.401,31.349,287.045C33.796,285.688,36.243,284.336,38.69,283.031C41.138,281.725,43.585,280.466,46.032,279.368C48.479,278.27,50.926,277.332,53.373,276.456C55.82,275.58,58.267,274.765,60.714,274.075C63.161,273.385,65.608,272.819,68.056,272.255C70.503,271.691,72.95,271.13,75.397,270.412C77.844,269.695,80.291,268.822,82.738,267.982C85.185,267.142,87.632,266.335,90.079,265.441C92.526,264.547,94.974,263.566,97.421,262.535C99.868,261.504,102.315,260.424,104.762,259.027C107.209,257.63,109.656,255.915,112.103,254.095C114.55,252.274,116.997,250.348,119.444,248.326C121.892,246.304,124.339,244.187,126.786,242.216C129.233,240.245,131.68,238.42,134.127,236.453C136.574,234.485,139.021,232.375,141.468,229.962C143.915,227.548,146.362,224.831,148.81,221.79C151.257,218.75,153.704,215.387,156.151,211.504C158.598,207.621,161.045,203.219,163.492,198.688C165.939,194.158,168.386,189.5,170.833,184.567C173.28,179.634,175.728,174.427,178.175,168.913C180.622,163.399,183.069,157.578,185.516,151.454C187.963,145.329,190.41,138.902,192.857,132.285C195.304,125.668,197.751,118.863,200.198,112.126C202.646,105.389,205.093,98.721,207.54,91.944C209.987,85.167,212.434,78.281,214.881,71.31C217.328,64.339,219.775,57.283,222.222,50.811C224.669,44.338,227.116,38.449,229.563,33.176C232.011,27.903,234.458,23.248,236.905,19.33C239.352,15.413,241.799,12.234,244.246,10.076C246.693,7.918,249.14,6.779,251.587,7.123C254.034,7.466,256.481,9.29,258.929,12.394C261.376,15.497,263.823,19.88,266.27,25.632C268.717,31.385,271.164,38.508,273.611,46.799C276.058,55.09,278.505,64.55,280.952,74.636C283.399,84.722,285.847,95.433,288.294,106.325C290.741,117.216,293.188,128.288,295.635,139.481C298.082,150.673,300.529,161.987,302.976,172.876C305.423,183.765,307.87,194.228,310.317,204.044C312.765,213.859,315.212,223.027,317.659,231.296C320.106,239.565,322.553,246.936,325,253.517C327.447,260.099,329.894,265.891,332.341,270.868C334.788,275.846,337.235,280.009,339.683,283.416C342.13,286.823,344.577,289.474,347.024,291.482C349.471,293.491,351.918,294.856,354.365,295.903C356.812,296.95,359.259,297.68,361.706,298.225C364.153,298.769,366.601,299.13,369.048,299.361C371.495,299.593,373.942,299.696,375.165,299.748L376.389,299.799" stroke="#0063AF" stroke-width="2"/></g></g><path class="foreground" aria-hidden="true" d="" display="none"/></g></g><g class="mark-group role-legend" role="graphics-symbol" aria-roledescription="legend" aria-label="Symbol legend for stroke color with 4 values: 2016, 2019, 2020, 2023"><g transform="translate(0,-29)"><path class="background" aria-hidden="true" d="M0,0h188v11h-188Z" pointer-events="none"/><g><g class="mark-group role-legend-entry"><g transform="translate(0,0)"><path class="background" aria-hidden="true" d="M0,0h0v0h0Z" pointer-events="none"/><g><g class="mark-group role-scope" role="graphics-object" aria-roledescription="group mark container"><g transform="translate(0,0)"><path class="background" aria-hidden="true" d="M0,0h37.12999725341797v11h-37.12999725341797Z" pointer-events="none" opacity="1"/><g><g class="mark-symbol role-legend-symbol" pointer-events="none"><path transform="translate(6,6)" d="M-5,0L5,0" stroke="#36B7B4" stroke-width="1.5" opacity="1"/></g><g class="mark-text role-legend-label" pointer-events="none"><text text-anchor="start" transform="translate(16,9)" font-family="Circular Std" font-size="10px" fill="#000" opacity="1">2016</text></g></g><path class="foreground" aria-hidden="true" d="" pointer-events="none" display="none"/></g><g transform="translate(49,0)"><path class="background" aria-hidden="true" d="M0,0h37.07999801635742v11h-37.07999801635742Z" pointer-events="none" opacity="1"/><g><g class="mark-symbol role-legend-symbol" pointer-events="none"><path transform="translate(6,6)" d="M-5,0L5,0" stroke="#E6224B" stroke-width="1.5" opacity="1"/></g><g class="mark-text role-legend-label" pointer-events="none"><text text-anchor="start" transform="translate(16,9)" font-family="Circular Std" font-size="10px" fill="#000" opacity="1">2019</text></g></g><path class="foreground" aria-hidden="true" d="" pointer-events="none" display="none"/></g><g transform="translate(98,0)"><path class="background" aria-hidden="true" d="M0,0h39.099998474121094v11h-39.099998474121094Z" pointer-events="none" opacity="1"/><g><g class="mark-symbol role-legend-symbol" pointer-events="none"><path transform="translate(6,6)" d="M-5,0L5,0" stroke="#F4C245" stroke-width="1.5" opacity="1"/></g><g class="mark-text role-legend-label" pointer-events="none"><text text-anchor="start" transform="translate(16,9)" font-family="Circular Std" font-size="10px" fill="#000" opacity="1">2020</text></g></g><path class="foreground" aria-hidden="true" d="" pointer-events="none" display="none"/></g><g transform="translate(149,0)"><path class="background" aria-hidden="true" d="M0,0h38.44000244140625v11h-38.44000244140625Z" pointer-events="none" opacity="1"/><g><g class="mark-symbol role-legend-symbol" pointer-events="none"><path transform="translate(6,6)" d="M-5,0L5,0" stroke="#0063AF" stroke-width="1.5" opacity="1"/></g><g class="mark-text role-legend-label" pointer-events="none"><text text-anchor="start" transform="translate(16,9)" font-family="Circular Std" font-size="10px" fill="#000" opacity="1">2023</text></g></g><path class="foreground" aria-hidden="true" d="" pointer-events="none" display="none"/></g></g></g><path class="foreground" aria-hidden="true" d="" pointer-events="none" display="none"/></g></g></g><path class="foreground" aria-hidden="true" d="" pointer-events="none" display="none"/></g></g></g><path class="foreground" aria-hidden="true" d="" display="none"/></g></g></g></svg>