<svg xmlns="http://www.w3.org/2000/svg" xmlns:xlink="http://www.w3.org/1999/xlink" version="1.1" class="marks" width="346" height="371" viewBox="0 0 346 371"><rect width="346" height="371" fill="white"/><g fill="none" stroke-miterlimit="10" transform="translate(41,34)"><g class="mark-group role-frame root" role="graphics-object" aria-roledescription="group mark container"><g transform="translate(0,0)"><path class="background" aria-hidden="true" d="M0.5,0.5h300v300h-300Z" stroke="#ddd"/><g><g class="mark-group role-axis" aria-hidden="true"><g transform="translate(0.5,300.5)"><path class="background" aria-hidden="true" d="M0,0h0v0h0Z" pointer-events="none"/><g><g class="mark-rule role-axis-grid" pointer-events="none"><line transform="translate(25,-300)" x2="0" y2="300" stroke="#ddd" stroke-width="1" opacity="1"/><line transform="translate(75,-300)" x2="0" y2="300" stroke="#ddd" stroke-width="1" opacity="1"/><line transform="translate(125,-300)" x2="0" y2="300" stroke="#ddd" stroke-width="1" opacity="1"/><line transform="translate(175,-300)" x2="0" y2="300" stroke="#ddd" stroke-width="1" opacity="1"/><line transform="translate(225,-300)" x2="0" y2="300" stroke="#ddd" stroke-width="1" opacity="1"/><line transform="translate(275,-300)" x2="0" y2="300" stroke="#ddd" stroke-width="1" opacity="1"/></g></g><path class="foreground" aria-hidden="true" d="" pointer-events="none" display="none"/></g></g><g class="mark-group role-axis" aria-hidden="true"><g transform="translate(0.5,0.5)"><path class="background" aria-hidden="true" d="M0,0h0v0h0Z" pointer-events="none"/><g><g class="mark-rule role-axis-grid" pointer-events="none"><line transform="translate(0,300)" x2="300" y2="0" stroke="#ddd" stroke-width="1" opacity="1"/><line transform="translate(0,242)" x2="300" y2="0" stroke="#ddd" stroke-width="1" opacity="1"/><line transform="translate(0,185)" x2="300" y2="0" stroke="#ddd" stroke-width="1" opacity="1"/><line transform="translate(0,127)" x2="300" y2="0" stroke="#ddd" stroke-width="1" opacity="1"/><line transform="translate(0,69)" x2="300" y2="0" stroke="#ddd" stroke-width="1" opacity="1"/><line transform="translate(0,12)" x2="300" y2="0" stroke="#ddd" stroke-width="1" opacity="1"/></g></g><path class="foreground" aria-hidden="true" d="" pointer-events="none" display="none"/></g></g><g class="mark-group role-axis" role="graphics-symbol" aria-roledescription="axis" aria-label="X-axis titled 'Management score' for a linear scale with values from −0.1 to 1.1"><g transform="translate(0.5,300.5)"><path class="background" aria-hidden="true" d="M0,0h0v0h0Z" pointer-events="none"/><g><g class="mark-rule role-axis-tick" pointer-events="none"><line transform="translate(25,0)" x2="0" y2="5" stroke="#888" stroke-width="1" opacity="1"/><line transform="translate(75,0)" x2="0" y2="5" stroke="#888" stroke-width="1" opacity="1"/><line transform="translate(125,0)" x2="0" y2="5" stroke="#888" stroke-width="1" opacity="1"/><line transform="translate(175,0)" x2="0" y2="5" stroke="#888" stroke-width="1" opacity="1"/><line transform="translate(225,0)" x2="0" y2="5" stroke="#888" stroke-width="1" opacity="1"/><line transform="translate(275,0)" x2="0" y2="5" stroke="#888" stroke-width="1" opacity="1"/></g><g class="mark-text role-axis-label" pointer-events="none"><text text-anchor="middle" transform="translate(25,15)" font-family="sans-serif" font-size="10px" fill="#000" opacity="1">0.0</text><text text-anchor="middle" transform="translate(75,15)" font-family="sans-serif" font-size="10px" fill="#000" opacity="1">0.2</text><text text-anchor="middle" transform="translate(124.99999999999999,15)" font-family="sans-serif" font-size="10px" fill="#000" opacity="1">0.4</text><text text-anchor="middle" transform="translate(174.99999999999997,15)" font-family="sans-serif" font-size="10px" fill="#000" opacity="1">0.6</text><text text-anchor="middle" transform="translate(224.99999999999997,15)" font-family="sans-serif" font-size="10px" fill="#000" opacity="1">0.8</text><text text-anchor="middle" transform="translate(275,15)" font-family="sans-serif" font-size="10px" fill="#000" opacity="1">1.0</text></g><g class="mark-rule role-axis-domain" pointer-events="none"><line transform="translate(0,0)" x2="300" y2="0" stroke="#888" stroke-width="1" opacity="1"/></g><g class="mark-text role-axis-title" pointer-events="none"><text text-anchor="middle" transform="translate(150,30)" font-family="sans-serif" font-size="11px" font-weight="bold" fill="#000" opacity="1">Management score</text></g></g><path class="foreground" aria-hidden="true" d="" pointer-events="none" display="none"/></g></g><g class="mark-group role-axis" role="graphics-symbol" aria-roledescription="axis" aria-label="Y-axis titled 'Density' for a linear scale with values from 0.0 to 2.6"><g transform="translate(0.5,0.5)"><path class="background" aria-hidden="true" d="M0,0h0v0h0Z" pointer-events="none"/><g><g class="mark-rule role-axis-tick" pointer-events="none"><line transform="translate(0,300)" x2="-5" y2="0" stroke="#888" stroke-width="1" opacity="1"/><line transform="translate(0,242)" x2="-5" y2="0" stroke="#888" stroke-width="1" opacity="1"/><line transform="translate(0,185)" x2="-5" y2="0" stroke="#888" stroke-width="1" opacity="1"/><line transform="translate(0,127)" x2="-5" y2="0" stroke="#888" stroke-width="1" opacity="1"/><line transform="translate(0,69)" x2="-5" y2="0" stroke="#888" stroke-width="1" opacity="1"/><line transform="translate(0,12)" x2="-5" y2="0" stroke="#888" stroke-width="1" opacity="1"/></g><g class="mark-text role-axis-label" pointer-events="none"><text text-anchor="end" transform="translate(-7,303)" font-family="sans-serif" font-size="10px" fill="#000" opacity="1">0.0</text><text text-anchor="end" transform="translate(-7,245.30769230769232)" font-family="sans-serif" font-size="10px" fill="#000" opacity="1">0.5</text><text text-anchor="end" transform="translate(-7,187.6153846153846)" font-family="sans-serif" font-size="10px" fill="#000" opacity="1">1.0</text><text text-anchor="end" transform="translate(-7,129.92307692307693)" font-family="sans-serif" font-size="10px" fill="#000" opacity="1">1.5</text><text text-anchor="end" transform="translate(-7,72.23076923076925)" font-family="sans-serif" font-size="10px" fill="#000" opacity="1">2.0</text><text text-anchor="end" transform="translate(-7,14.538461538461565)" font-family="sans-serif" font-size="10px" fill="#000" opacity="1">2.5</text></g><g class="mark-rule role-axis-domain" pointer-events="none"><line transform="translate(0,300)" x2="0" y2="-300" stroke="#888" stroke-width="1" opacity="1"/></g><g class="mark-text role-axis-title" pointer-events="none"><text text-anchor="middle" transform="translate(-24.9013671875,0) rotate(-90) translate(0,-2)" font-family="Rubik Vinyl" font-size="11px" font-weight="bold" fill="#000" opacity="1">Density</text></g></g><path class="foreground" aria-hidden="true" d="" pointer-events="none" display="none"/></g></g><g class="mark-group role-scope pathgroup" role="graphics-object" aria-roledescription="group mark container"><g transform="translate(0,0)"><path class="background" aria-hidden="true" d="M0,0h300v300h-300Z"/><g><g class="mark-line role-mark marks" role="graphics-object" aria-roledescription="line mark container"><path aria-label="Management score: −0.0368421051651; Density: 0.1; Date: 2016" role="graphics-symbol" aria-roledescription="line mark" d="M15.789,284.09L16.695,282.127C17.601,280.163,19.412,276.236,21.223,272.046C23.034,267.855,24.845,263.401,26.656,259.084C28.467,254.766,30.278,250.585,32.089,246.781C33.9,242.976,35.711,239.548,37.522,236.311C39.333,233.073,41.145,230.027,42.956,227.581C44.767,225.135,46.578,223.289,48.389,222.134C50.2,220.978,52.011,220.512,53.822,220.51C55.633,220.507,57.444,220.967,59.255,221.519C61.066,222.072,62.877,222.718,64.689,223.235C66.5,223.753,68.311,224.142,70.122,224.203C71.933,224.264,73.744,223.996,75.555,223.203C77.366,222.41,79.177,221.092,80.988,219.474C82.799,217.857,84.61,215.94,86.421,214.304C88.232,212.669,90.044,211.314,91.855,209.743C93.666,208.171,95.477,206.382,97.288,204.403C99.099,202.424,100.91,200.254,102.721,198.141C104.532,196.027,106.343,193.97,108.154,191.686C109.965,189.403,111.776,186.893,113.588,184.001C115.399,181.11,117.21,177.837,119.021,174.607C120.832,171.377,122.643,168.191,124.454,165.063C126.265,161.936,128.076,158.868,129.887,156.014C131.698,153.16,133.509,150.522,135.32,147.315C137.132,144.108,138.943,140.332,140.754,136.696C142.565,133.061,144.376,129.564,146.187,126.345C147.998,123.125,149.809,120.183,151.62,116.988C153.431,113.793,155.242,110.346,157.053,106.948C158.864,103.55,160.676,100.201,162.487,97.416C164.298,94.631,166.109,92.41,167.92,90.349C169.731,88.287,171.542,86.384,173.353,84.774C175.164,83.164,176.975,81.846,178.786,80.865C180.597,79.883,182.408,79.238,184.219,79.511C186.031,79.784,187.842,80.975,189.653,83.007C191.464,85.038,193.275,87.909,195.086,91.231C196.897,94.553,198.708,98.326,200.519,102.956C202.33,107.586,204.141,113.073,205.952,119.175C207.763,125.277,209.575,131.994,211.386,138.719C213.197,145.444,215.008,152.179,216.819,159.215C218.63,166.251,220.441,173.588,222.252,181.137C224.063,188.686,225.874,196.446,227.685,204.167C229.496,211.888,231.307,219.57,233.119,226.67C234.93,233.771,236.741,240.29,238.552,246.181C240.363,252.073,242.174,257.338,243.985,262.066C245.796,266.794,247.607,270.986,249.418,274.66C251.229,278.334,253.04,281.49,254.851,284.145C256.662,286.8,258.474,288.955,260.285,290.777C262.096,292.599,263.907,294.089,265.718,295.292C267.529,296.496,269.34,297.414,271.151,298.056C272.962,298.698,274.773,299.064,276.584,299.303C278.395,299.542,280.206,299.653,281.112,299.708L282.018,299.764" stroke="#4c78a8" stroke-width="2"/></g></g><path class="foreground" aria-hidden="true" d="" display="none"/></g><g transform="translate(0,0)"><path class="background" aria-hidden="true" d="M0,0h300v300h-300Z"/><g><g class="mark-line role-mark marks" role="graphics-object" aria-roledescription="line mark container"><path aria-label="Management score: −0.05; Density: 0.1; Date: 2019" role="graphics-symbol" aria-roledescription="line mark" d="M12.5,288.959L13.407,287.967C14.314,286.976,16.128,284.993,17.942,282.935C19.756,280.876,21.57,278.743,23.384,276.619C25.198,274.496,27.012,272.383,28.827,270.128C30.641,267.874,32.455,265.478,34.269,262.982C36.083,260.487,37.897,257.891,39.711,255.459C41.525,253.027,43.339,250.758,45.153,248.37C46.967,245.982,48.781,243.476,50.595,240.959C52.409,238.441,54.223,235.914,56.037,233.331C57.851,230.747,59.666,228.108,61.48,225.764C63.294,223.421,65.108,221.373,66.922,219.638C68.736,217.903,70.55,216.482,72.364,215.297C74.178,214.113,75.992,213.165,77.806,212.538C79.62,211.912,81.434,211.605,83.248,211.234C85.062,210.863,86.876,210.427,88.69,209.674C90.505,208.92,92.319,207.849,94.133,206.63C95.947,205.411,97.761,204.044,99.575,201.476C101.389,198.907,103.203,195.136,105.017,190.899C106.831,186.662,108.645,181.958,110.459,177.097C112.273,172.235,114.087,167.216,115.901,161.962C117.715,156.709,119.529,151.222,121.344,146.143C123.158,141.063,124.972,136.391,126.786,131.726C128.6,127.06,130.414,122.401,132.228,118.21C134.042,114.02,135.856,110.298,137.67,106.908C139.484,103.518,141.298,100.46,143.112,97.931C144.926,95.403,146.74,93.404,148.554,91.77C150.368,90.136,152.183,88.866,153.997,87.212C155.811,85.559,157.625,83.522,159.439,81.529C161.253,79.535,163.067,77.584,164.881,76.207C166.695,74.83,168.509,74.028,170.323,73.601C172.137,73.174,173.951,73.124,175.765,74.022C177.579,74.92,179.393,76.767,181.207,79.014C183.022,81.26,184.836,83.907,186.65,86.973C188.464,90.04,190.278,93.527,192.092,97.707C193.906,101.887,195.72,106.76,197.534,112.34C199.348,117.92,201.162,124.206,202.976,130.887C204.79,137.568,206.604,144.643,208.418,151.645C210.232,158.646,212.046,165.573,213.861,172.398C215.675,179.222,217.489,185.945,219.303,192.77C221.117,199.595,222.931,206.523,224.745,213.225C226.559,219.927,228.373,226.404,230.187,232.568C232.001,238.732,233.815,244.583,235.629,250.071C237.443,255.559,239.257,260.685,241.071,265.112C242.885,269.539,244.7,273.267,246.514,276.559C248.328,279.851,250.142,282.707,251.956,285.262C253.77,287.818,255.584,290.074,257.398,291.966C259.212,293.858,261.026,295.386,262.84,296.447C264.654,297.509,266.468,298.104,268.282,298.545C270.096,298.987,271.91,299.275,273.724,299.476C275.539,299.677,277.353,299.791,278.26,299.848L279.167,299.905" stroke="#f58518" stroke-width="2"/></g></g><path class="foreground" aria-hidden="true" d="" display="none"/></g><g transform="translate(0,0)"><path class="background" aria-hidden="true" d="M0,0h300v300h-300Z"/><g><g class="mark-line role-mark marks" role="graphics-object" aria-roledescription="line mark container"><path aria-label="Management score: −0.05; Density: 0.1; Date: 2020" role="graphics-symbol" aria-roledescription="line mark" d="M12.5,292.979L13.418,292.191C14.335,291.402,16.171,289.825,18.006,288.129C19.841,286.433,21.677,284.618,23.512,282.7C25.347,280.781,27.183,278.759,29.018,276.573C30.853,274.387,32.688,272.038,34.524,269.586C36.359,267.134,38.194,264.579,40.03,262.12C41.865,259.661,43.7,257.297,45.536,254.932C47.371,252.567,49.206,250.201,51.042,247.967C52.877,245.733,54.712,243.632,56.548,241.62C58.383,239.607,60.218,237.685,62.054,236.105C63.889,234.524,65.724,233.287,67.56,232.193C69.395,231.099,71.23,230.148,73.065,229.241C74.901,228.335,76.736,227.472,78.571,226.526C80.407,225.581,82.242,224.553,84.077,222.946C85.913,221.34,87.748,219.155,89.583,216.697C91.419,214.239,93.254,211.508,95.089,208.656C96.925,205.803,98.76,202.829,100.595,199.622C102.431,196.415,104.266,192.977,106.101,189.117C107.937,185.257,109.772,180.975,111.607,176.284C113.442,171.593,115.278,166.492,117.113,161.372C118.948,156.252,120.784,151.113,122.619,146.246C124.454,141.379,126.29,136.785,128.125,132.026C129.96,127.268,131.796,122.345,133.631,117.96C135.466,113.574,137.302,109.726,139.137,105.872C140.972,102.018,142.808,98.159,144.643,94.556C146.478,90.952,148.313,87.603,150.149,84.698C151.984,81.793,153.819,79.331,155.655,77.345C157.49,75.36,159.325,73.85,161.161,72.607C162.996,71.365,164.831,70.389,166.667,69.672C168.502,68.954,170.337,68.495,172.173,68.49C174.008,68.485,175.843,68.936,177.679,69.926C179.514,70.915,181.349,72.444,183.185,74.011C185.02,75.578,186.855,77.184,188.69,79.5C190.526,81.817,192.361,84.845,194.196,88.73C196.032,92.616,197.867,97.36,199.702,102.908C201.538,108.456,203.373,114.808,205.208,121.774C207.044,128.739,208.879,136.317,210.714,144.206C212.55,152.095,214.385,160.295,216.22,168.459C218.056,176.623,219.891,184.751,221.726,192.698C223.562,200.646,225.397,208.412,227.232,215.97C229.067,223.527,230.903,230.875,232.738,237.73C234.573,244.584,236.409,250.946,238.244,256.536C240.079,262.127,241.915,266.948,243.75,271.074C245.585,275.2,247.421,278.632,249.256,281.51C251.091,284.388,252.927,286.713,254.762,288.676C256.597,290.639,258.433,292.242,260.268,293.564C262.103,294.887,263.938,295.93,265.774,296.763C267.609,297.595,269.444,298.215,271.28,298.663C273.115,299.11,274.95,299.383,276.786,299.565C278.621,299.748,280.456,299.839,281.374,299.885L282.292,299.93" stroke="#e45756" stroke-width="2"/></g></g><path class="foreground" aria-hidden="true" d="" display="none"/></g><g transform="translate(0,0)"><path class="background" aria-hidden="true" d="M0,0h300v300h-300Z"/><g><g class="mark-line role-mark marks" role="graphics-object" aria-roledescription="line mark container"><path aria-label="Management score: −0.05; Density: 0.0; Date: 2023" role="graphics-symbol" aria-roledescription="line mark" d="M12.5,295.083L13.418,294.423C14.335,293.763,16.171,292.443,18.006,291.102C19.841,289.762,21.677,288.401,23.512,287.045C25.347,285.688,27.183,284.336,29.018,283.031C30.853,281.725,32.688,280.466,34.524,279.368C36.359,278.27,38.194,277.332,40.03,276.456C41.865,275.58,43.7,274.765,45.536,274.075C47.371,273.385,49.206,272.819,51.042,272.255C52.877,271.691,54.712,271.13,56.548,270.412C58.383,269.695,60.218,268.822,62.054,267.982C63.889,267.142,65.724,266.335,67.56,265.441C69.395,264.547,71.23,263.566,73.065,262.535C74.901,261.504,76.736,260.424,78.571,259.027C80.407,257.63,82.242,255.915,84.077,254.095C85.913,252.274,87.748,250.348,89.583,248.326C91.419,246.304,93.254,244.187,95.089,242.216C96.925,240.245,98.76,238.42,100.595,236.453C102.431,234.485,104.266,232.375,106.101,229.962C107.937,227.548,109.772,224.831,111.607,221.79C113.442,218.75,115.278,215.387,117.113,211.504C118.948,207.621,120.784,203.219,122.619,198.688C124.454,194.158,126.29,189.5,128.125,184.567C129.96,179.634,131.796,174.427,133.631,168.913C135.466,163.399,137.302,157.578,139.137,151.454C140.972,145.329,142.808,138.902,144.643,132.285C146.478,125.668,148.313,118.863,150.149,112.126C151.984,105.389,153.819,98.721,155.655,91.944C157.49,85.167,159.325,78.281,161.161,71.31C162.996,64.339,164.831,57.283,166.667,50.811C168.502,44.338,170.337,38.449,172.173,33.176C174.008,27.903,175.843,23.248,177.679,19.33C179.514,15.413,181.349,12.234,183.185,10.076C185.02,7.918,186.855,6.779,188.69,7.123C190.526,7.466,192.361,9.29,194.196,12.394C196.032,15.497,197.867,19.88,199.702,25.632C201.538,31.385,203.373,38.508,205.208,46.799C207.044,55.09,208.879,64.55,210.714,74.636C212.55,84.722,214.385,95.433,216.22,106.325C218.056,117.216,219.891,128.288,221.726,139.481C223.562,150.673,225.397,161.987,227.232,172.876C229.067,183.765,230.903,194.228,232.738,204.044C234.573,213.859,236.409,223.027,238.244,231.296C240.079,239.565,241.915,246.936,243.75,253.517C245.585,260.099,247.421,265.891,249.256,270.868C251.091,275.846,252.927,280.009,254.762,283.416C256.597,286.823,258.433,289.474,260.268,291.482C262.103,293.491,263.938,294.856,265.774,295.903C267.609,296.95,269.444,297.68,271.28,298.225C273.115,298.769,274.95,299.13,276.786,299.361C278.621,299.593,280.456,299.696,281.374,299.748L282.292,299.799" stroke="#72b7b2" stroke-width="2"/></g></g><path class="foreground" aria-hidden="true" d="" display="none"/></g></g><g class="mark-group role-legend" role="graphics-symbol" aria-roledescription="legend" aria-label="Symbol legend for stroke color with 4 values: 2016, 2019, 2020, 2023"><g transform="translate(0,-29)"><path class="background" aria-hidden="true" d="M0,0h189v11h-189Z" pointer-events="none"/><g><g class="mark-group role-legend-entry"><g transform="translate(0,0)"><path class="background" aria-hidden="true" d="M0,0h0v0h0Z" pointer-events="none"/><g><g class="mark-group role-scope" role="graphics-object" aria-roledescription="group mark container"><g transform="translate(0,0)"><path class="background" aria-hidden="true" d="M0,0h38.24609375v11h-38.24609375Z" pointer-events="none" opacity="1"/><g><g class="mark-symbol role-legend-symbol" pointer-events="none"><path transform="translate(6,6)" d="M-5,0L5,0" stroke="#4c78a8" stroke-width="1.5" opacity="1"/></g><g class="mark-text role-legend-label" pointer-events="none"><text text-anchor="start" transform="translate(16,9)" font-family="sans-serif" font-size="10px" fill="#000" opacity="1">2016</text></g></g><path class="foreground" aria-hidden="true" d="" pointer-events="none" display="none"/></g><g transform="translate(50,0)"><path class="background" aria-hidden="true" d="M0,0h38.24609375v11h-38.24609375Z" pointer-events="none" opacity="1"/><g><g class="mark-symbol role-legend-symbol" pointer-events="none"><path transform="translate(6,6)" d="M-5,0L5,0" stroke="#f58518" stroke-width="1.5" opacity="1"/></g><g class="mark-text role-legend-label" pointer-events="none"><text text-anchor="start" transform="translate(16,9)" font-family="sans-serif" font-size="10px" fill="#000" opacity="1">2019</text></g></g><path class="foreground" aria-hidden="true" d="" pointer-events="none" display="none"/></g><g transform="translate(100,0)"><path class="background" aria-hidden="true" d="M0,0h38.24609375v11h-38.24609375Z" pointer-events="none" opacity="1"/><g><g class="mark-symbol role-legend-symbol" pointer-events="none"><path transform="translate(6,6)" d="M-5,0L5,0" stroke="#e45756" stroke-width="1.5" opacity="1"/></g><g class="mark-text role-legend-label" pointer-events="none"><text text-anchor="start" transform="translate(16,9)" font-family="sans-serif" font-size="10px" fill="#000" opacity="1">2020</text></g></g><path class="foreground" aria-hidden="true" d="" pointer-events="none" display="none"/></g><g transform="translate(150,0)"><path class="background" aria-hidden="true" d="M0,0h38.24609375v11h-38.24609375Z" pointer-events="none" opacity="1"/><g><g class="mark-symbol role-legend-symbol" pointer-events="none"><path transform="translate(6,6)" d="M-5,0L5,0" stroke="#72b7b2" stroke-width="1.5" opacity="1"/></g><g class="mark-text role-legend-label" pointer-events="none"><text text-anchor="start" transform="translate(16,9)" font-family="sans-serif" font-size="10px" fill="#000" opacity="1">2023</text></g></g><path class="foreground" aria-hidden="true" d="" pointer-events="none" display="none"/></g></g></g><path class="foreground" aria-hidden="true" d="" pointer-events="none" display="none"/></g></g></g><path class="foreground" aria-hidden="true" d="" pointer-events="none" display="none"/></g></g></g><path class="foreground" aria-hidden="true" d="" display="none"/></g></g></g></svg>