<svg xmlns="http://www.w3.org/2000/svg" xmlns:xlink="http://www.w3.org/1999/xlink" version="1.1" class="marks" width="533" height="402" viewBox="0 0 533 402"><rect width="533" height="402" fill="white"/><g fill="none" stroke-miterlimit="10" transform="translate(39,80)"><g class="mark-group role-frame root" role="graphics-object" aria-roledescription="group mark container"><g transform="translate(0,0)"><path class="background" aria-hidden="true" d="M0.5,0.5h400v300h-400Z"/><g><g class="mark-group role-axis" aria-hidden="true"><g transform="translate(0.5,0.5)"><path class="background" aria-hidden="true" d="M0,0h0v0h0Z" pointer-events="none"/><g><g class="mark-rule role-axis-grid" pointer-events="none"><line transform="translate(0,300)" x2="400" y2="0" stroke="#676A86" stroke-opacity="0.5" stroke-width="1" stroke-dasharray="1,5" opacity="1"/><line transform="translate(0,250)" x2="400" y2="0" stroke="#676A86" stroke-opacity="0.5" stroke-width="1" stroke-dasharray="1,5" opacity="1"/><line transform="translate(0,200)" x2="400" y2="0" stroke="#676A86" stroke-opacity="0.5" stroke-width="1" stroke-dasharray="1,5" opacity="1"/><line transform="translate(0,150)" x2="400" y2="0" stroke="#676A86" stroke-opacity="0.5" stroke-width="1" stroke-dasharray="1,5" opacity="1"/><line transform="translate(0,100)" x2="400" y2="0" stroke="#676A86" stroke-opacity="0.5" stroke-width="1" stroke-dasharray="1,5" opacity="1"/><line transform="translate(0,50)" x2="400" y2="0" stroke="#676A86" stroke-opacity="0.5" stroke-width="1" stroke-dasharray="1,5" opacity="1"/><line transform="translate(0,0)" x2="400" y2="0" stroke="#676A86" stroke-opacity="0.5" stroke-width="1" stroke-dasharray="1,5" opacity="1"/></g></g><path class="foreground" aria-hidden="true" d="" pointer-events="none" display="none"/></g></g><g class="mark-group role-axis" role="graphics-symbol" aria-roledescription="axis" aria-label="X-axis for a time scale with values from Thursday, 01 January 2009, 12:00:00 AM to Saturday, 01 January 2022, 12:00:00 AM"><g transform="translate(0.5,300.5)"><path class="background" aria-hidden="true" d="M0,0h0v0h0Z" pointer-events="none"/><g><g class="mark-rule role-axis-tick" pointer-events="none"><line transform="translate(0,0)" x2="0" y2="5" stroke="#676A86" stroke-opacity="0.5" stroke-width="1" opacity="1"/><line transform="translate(31,0)" x2="0" y2="5" stroke="#676A86" stroke-opacity="0.5" stroke-width="1" opacity="1"/><line transform="translate(61,0)" x2="0" y2="5" stroke="#676A86" stroke-opacity="0.5" stroke-width="1" opacity="1"/><line transform="translate(92,0)" x2="0" y2="5" stroke="#676A86" stroke-opacity="0.5" stroke-width="1" opacity="1"/><line transform="translate(123,0)" x2="0" y2="5" stroke="#676A86" stroke-opacity="0.5" stroke-width="1" opacity="1"/><line transform="translate(154,0)" x2="0" y2="5" stroke="#676A86" stroke-opacity="0.5" stroke-width="1" opacity="1"/><line transform="translate(185,0)" x2="0" y2="5" stroke="#676A86" stroke-opacity="0.5" stroke-width="1" opacity="1"/><line transform="translate(215,0)" x2="0" y2="5" stroke="#676A86" stroke-opacity="0.5" stroke-width="1" opacity="1"/><line transform="translate(246,0)" x2="0" y2="5" stroke="#676A86" stroke-opacity="0.5" stroke-width="1" opacity="1"/><line transform="translate(277,0)" x2="0" y2="5" stroke="#676A86" stroke-opacity="0.5" stroke-width="1" opacity="1"/><line transform="translate(308,0)" x2="0" y2="5" stroke="#676A86" stroke-opacity="0.5" stroke-width="1" opacity="1"/><line transform="translate(338,0)" x2="0" y2="5" stroke="#676A86" stroke-opacity="0.5" stroke-width="1" opacity="1"/><line transform="translate(369,0)" x2="0" y2="5" stroke="#676A86" stroke-opacity="0.5" stroke-width="1" opacity="1"/><line transform="translate(400,0)" x2="0" y2="5" stroke="#676A86" stroke-opacity="0.5" stroke-width="1" opacity="1"/></g><g class="mark-text role-axis-label" pointer-events="none"><text text-anchor="start" transform="translate(0,15)" font-family="Circular Std" font-size="10px" fill="#676A86" fill-opacity="0.7" opacity="1">2009</text><text text-anchor="middle" transform="translate(30.749789385004213,15)" font-family="Circular Std" font-size="10px" fill="#676A86" fill-opacity="0.7" opacity="0">2010</text><text text-anchor="middle" transform="translate(61.499578770008426,15)" font-family="Circular Std" font-size="10px" fill="#676A86" fill-opacity="0.7" opacity="1">2011</text><text text-anchor="middle" transform="translate(92.24936815501263,15)" font-family="Circular Std" font-size="10px" fill="#676A86" fill-opacity="0.7" opacity="0">2012</text><text text-anchor="middle" transform="translate(123.08340353833194,15)" font-family="Circular Std" font-size="10px" fill="#676A86" fill-opacity="0.7" opacity="1">2013</text><text text-anchor="middle" transform="translate(153.83319292333616,15)" font-family="Circular Std" font-size="10px" fill="#676A86" fill-opacity="0.7" opacity="0">2014</text><text text-anchor="middle" transform="translate(184.58298230834035,15)" font-family="Circular Std" font-size="10px" fill="#676A86" fill-opacity="0.7" opacity="1">2015</text><text text-anchor="middle" transform="translate(215.33277169334454,15)" font-family="Circular Std" font-size="10px" fill="#676A86" fill-opacity="0.7" opacity="0">2016</text><text text-anchor="middle" transform="translate(246.16680707666387,15)" font-family="Circular Std" font-size="10px" fill="#676A86" fill-opacity="0.7" opacity="1">2017</text><text text-anchor="middle" transform="translate(276.91659646166806,15)" font-family="Circular Std" font-size="10px" fill="#676A86" fill-opacity="0.7" opacity="0">2018</text><text text-anchor="middle" transform="translate(307.6663858466723,15)" font-family="Circular Std" font-size="10px" fill="#676A86" fill-opacity="0.7" opacity="1">2019</text><text text-anchor="middle" transform="translate(338.4161752316765,15)" font-family="Circular Std" font-size="10px" fill="#676A86" fill-opacity="0.7" opacity="0">2020</text><text text-anchor="middle" transform="translate(369.2502106149958,15)" font-family="Circular Std" font-size="10px" fill="#676A86" fill-opacity="0.7" opacity="1">2021</text><text text-anchor="end" transform="translate(400,15)" font-family="Circular Std" font-size="10px" fill="#676A86" fill-opacity="0.7" opacity="0">2022</text></g><g class="mark-rule role-axis-domain" pointer-events="none"><line transform="translate(0,0)" x2="400" y2="0" stroke="#676A86" stroke-opacity="0.5" stroke-width="1" opacity="1"/></g></g><path class="foreground" aria-hidden="true" d="" pointer-events="none" display="none"/></g></g><g class="mark-group role-axis" role="graphics-symbol" aria-roledescription="axis" aria-label="Y-axis for a linear scale with values from 400 to 1,600"><g transform="translate(0.5,0.5)"><path class="background" aria-hidden="true" d="M0,0h0v0h0Z" pointer-events="none"/><g><g class="mark-text role-axis-label" pointer-events="none"><text text-anchor="end" transform="translate(-5,303)" font-family="Circular Std" font-size="10px" fill="#676A86" fill-opacity="0.7" opacity="1">400£</text><text text-anchor="end" transform="translate(-5,253)" font-family="Circular Std" font-size="10px" fill="#676A86" fill-opacity="0.7" opacity="1">600£</text><text text-anchor="end" transform="translate(-5,203.00000000000003)" font-family="Circular Std" font-size="10px" fill="#676A86" fill-opacity="0.7" opacity="1">800£</text><text text-anchor="end" transform="translate(-5,153)" font-family="Circular Std" font-size="10px" fill="#676A86" fill-opacity="0.7" opacity="1">1000£</text><text text-anchor="end" transform="translate(-5,103.00000000000001)" font-family="Circular Std" font-size="10px" fill="#676A86" fill-opacity="0.7" opacity="1">1200£</text><text text-anchor="end" transform="translate(-5,52.999999999999986)" font-family="Circular Std" font-size="10px" fill="#676A86" fill-opacity="0.7" opacity="1">1400£</text><text text-anchor="end" transform="translate(-5,3)" font-family="Circular Std" font-size="10px" fill="#676A86" fill-opacity="0.7" opacity="1">1600£</text></g><g class="mark-rule role-axis-domain" pointer-events="none"><line transform="translate(0,300)" x2="0" y2="-300" stroke="#676A86" stroke-opacity="0.5" stroke-width="1" opacity="1"/></g></g><path class="foreground" aria-hidden="true" d="" pointer-events="none" display="none"/></g></g><g class="mark-group role-scope layer_0_pathgroup" role="graphics-object" aria-roledescription="group mark container"><g transform="translate(0,0)"><path class="background" aria-hidden="true" d="M0,0h400v300h-400Z"/><g><g class="mark-line role-mark layer_0_marks" role="graphics-object" aria-roledescription="line mark container"><path aria-label="Year: Jan 01, 2009; Value: 774; Region name: Wales" role="graphics-symbol" aria-roledescription="line mark" d="M0,206.5L30.75,210L61.5,206.75L92.249,226L123.083,198L153.833,186.25L184.583,182.5L215.333,151.75L246.167,170.25L276.917,177.25L307.666,158.5L338.416,202.25L369.25,164L400,112" stroke="#0063AF" stroke-width="1"/></g></g><path class="foreground" aria-hidden="true" d="" display="none"/></g><g transform="translate(0,0)"><path class="background" aria-hidden="true" d="M0,0h400v300h-400Z"/><g><g class="mark-line role-mark layer_0_marks" role="graphics-object" aria-roledescription="line mark container"><path aria-label="Year: Jan 01, 2009; Value: 851; Region name: Scotland" role="graphics-symbol" aria-roledescription="line mark" d="M0,187.25L30.75,198.25L61.5,186L92.249,182L123.083,164.25L153.833,170.25L184.583,162.75L215.333,143.5L246.167,134.25L276.917,124.5L307.666,104L338.416,161.75L369.25,149.25L400,136.25" stroke="#F4C245" stroke-width="1"/></g></g><path class="foreground" aria-hidden="true" d="" display="none"/></g><g transform="translate(0,0)"><path class="background" aria-hidden="true" d="M0,0h400v300h-400Z"/><g><g class="mark-line role-mark layer_0_marks" role="graphics-object" aria-roledescription="line mark container"><path aria-label="Year: Jan 01, 2009; Value: 1201; Region name: Northern Ireland" role="graphics-symbol" aria-roledescription="line mark" d="M0,99.75L30.75,68.5L61.5,71.5L92.249,105.5L123.083,77L153.833,47L184.583,48L215.333,101.25L246.167,115.75L276.917,91.75L307.666,151.5L338.416,212L369.25,167.75L400,170.5" stroke="#EB5C2E" stroke-width="1"/></g></g><path class="foreground" aria-hidden="true" d="" display="none"/></g><g transform="translate(0,0)"><path class="background" aria-hidden="true" d="M0,0h400v300h-400Z"/><g><g class="mark-line role-mark layer_0_marks" role="graphics-object" aria-roledescription="line mark container"><path aria-label="Year: Jan 01, 2009; Value: 751; Region name: England" role="graphics-symbol" aria-roledescription="line mark" d="M0,212.25L30.75,207.75L61.5,200.5L92.249,192.75L123.083,178.75L153.833,178.5L184.583,167.25L215.333,157.5L246.167,156.5L276.917,150L307.666,138.75L338.416,192.25L369.25,169.75L400,141.5" stroke="#36B7B4" stroke-width="1"/></g></g><path class="foreground" aria-hidden="true" d="" display="none"/></g></g><g class="mark-line role-mark layer_1_marks" role="graphics-object" aria-roledescription="line mark container"><path aria-label="Year: Jan 01, 2009; Value: 774; Region name: UK" role="graphics-symbol" aria-roledescription="line mark" d="M0,206.5L30.75,203L61.5,196L92.249,191L123.083,175.75L153.833,174.5L184.583,164.25L215.333,154.5L246.167,154L276.917,147.5L307.666,137.25L338.416,191L369.25,167.75L400,140.5" stroke="#E6224B" stroke-width="2" stroke-dasharray="1,1"/></g><g class="mark-text role-mark layer_2_marks" role="graphics-object" aria-roledescription="text mark container"><text aria-label="Year: Jan 01, 2022; Value: 1034; Region name: England" role="graphics-symbol" aria-roledescription="text mark" text-anchor="start" transform="translate(405,142.5)" font-family="Circular Std" font-size="11px" fill="#36B7B4">England</text><text aria-label="Year: Jan 01, 2022; Value: 918; Region name: Northern Ireland" role="graphics-symbol" aria-roledescription="text mark" text-anchor="start" transform="translate(405,171.5)" font-family="Circular Std" font-size="11px" fill="#EB5C2E">Northern Ireland</text><text aria-label="Year: Jan 01, 2022; Value: 1055; Region name: Scotland" role="graphics-symbol" aria-roledescription="text mark" text-anchor="start" transform="translate(405,137.25000000000003)" font-family="Circular Std" font-size="11px" fill="#F4C245">Scotland</text><text aria-label="Year: Jan 01, 2022; Value: 1152; Region name: Wales" role="graphics-symbol" aria-roledescription="text mark" text-anchor="start" transform="translate(405,112.99999999999999)" font-family="Circular Std" font-size="11px" fill="#0063AF">Wales</text></g><g class="mark-text role-mark layer_3_marks" role="graphics-object" aria-roledescription="text mark container"><text aria-label="Year: Jan 01, 2022; Value: 1038; Region name: UK" role="graphics-symbol" aria-roledescription="text mark" text-anchor="start" transform="translate(405,154.5)" font-family="Circular Std" font-size="11px" fill="#E6224B">UK</text></g><g class="mark-group role-title"><g transform="translate(-33.279998779296875,-74)"><path class="background" aria-hidden="true" d="M0,0h0v0h0Z" pointer-events="none"/><g><g class="mark-text role-title-text" role="graphics-symbol" aria-roledescription="title" aria-label="Title text 'UK: Regional trends in clothing expenditure'" pointer-events="none"><text text-anchor="start" transform="translate(0,17)" font-family="Circular Std" font-size="22px" font-weight="bold" fill="#000" opacity="1">UK: Regional trends in clothing expenditure</text></g><g class="mark-text role-title-subtitle" role="graphics-symbol" aria-roledescription="subtitle" aria-label="Subtitle text 'National household clothing and footwear expenditure in £ per person, 2009 - 2022 Source: ONS 2025 '" pointer-events="none"><text text-anchor="start" transform="translate(0,34)" font-family="Circular Std" font-size="12px" fill="#676A86" opacity="1"><tspan>National household clothing and footwear expenditure in £ per person, 2009 - 2022</tspan><tspan x="0" dy="14">Source: ONS 2025</tspan><tspan x="0" dy="14"/></text></g></g><path class="foreground" aria-hidden="true" d="" pointer-events="none" display="none"/></g></g></g><path class="foreground" aria-hidden="true" d="" display="none"/></g></g></g></svg>