<svg xmlns="http://www.w3.org/2000/svg" xmlns:xlink="http://www.w3.org/1999/xlink" version="1.1" class="marks" width="717" height="557" viewBox="0 0 717 557"><rect width="717" height="557" fill="white"/><g fill="none" stroke-miterlimit="10" transform="translate(95,45)"><g class="mark-group role-frame root" role="graphics-object" aria-roledescription="group mark container"><g transform="translate(0,0)"><path class="background" aria-hidden="true" d="M0,0h0v0h0Z"/><g><g class="mark-group role-scope concat_0_group" role="graphics-object" aria-roledescription="group mark container"><g transform="translate(0,0)"><path class="background" aria-hidden="true" d="M0,0h0v0h0Z"/><g><g class="mark-group role-scope concat_0_concat_0_group" role="graphics-object" aria-roledescription="group mark container"><g transform="translate(0,0)"><path class="background" aria-hidden="true" d="M0,0h380v440h-380Z" stroke-width="0"/><g><g class="mark-group role-axis" aria-hidden="true"><g transform="translate(0.5,440.5)"><path class="background" aria-hidden="true" d="M0,0h0v0h0Z" pointer-events="none"/><g><g class="mark-rule role-axis-grid" pointer-events="none"><line transform="translate(0,0)" x2="0" y2="-440" stroke="#ddd" stroke-opacity="0" stroke-width="1" opacity="1"/><line transform="translate(95,0)" x2="0" y2="-440" stroke="#ddd" stroke-opacity="0" stroke-width="1" opacity="1"/><line transform="translate(190,0)" x2="0" y2="-440" stroke="#ddd" stroke-opacity="0" stroke-width="1" opacity="1"/><line transform="translate(285,0)" x2="0" y2="-440" stroke="#ddd" stroke-opacity="0" stroke-width="1" opacity="1"/><line transform="translate(380,0)" x2="0" y2="-440" stroke="#ddd" stroke-opacity="0" stroke-width="1" opacity="1"/></g></g><path class="foreground" aria-hidden="true" d="" pointer-events="none" display="none"/></g></g><g class="mark-group role-axis" role="graphics-symbol" aria-roledescription="axis" aria-label="X-axis titled '% of GDP' for a linear scale with values from 0 to 8"><g transform="translate(0.5,440.5)"><path class="background" aria-hidden="true" d="M0,0h0v0h0Z" pointer-events="none"/><g><g class="mark-rule role-axis-tick" pointer-events="none"><line transform="translate(0,0)" x2="0" y2="0" stroke="#122b39" stroke-width="1" opacity="1"/><line transform="translate(95,0)" x2="0" y2="0" stroke="#122b39" stroke-width="1" opacity="1"/><line transform="translate(190,0)" x2="0" y2="0" stroke="#122b39" stroke-width="1" opacity="1"/><line transform="translate(285,0)" x2="0" y2="0" stroke="#122b39" stroke-width="1" opacity="1"/><line transform="translate(380,0)" x2="0" y2="0" stroke="#122b39" stroke-width="1" opacity="1"/></g><g class="mark-text role-axis-label" pointer-events="none"><text text-anchor="middle" transform="translate(0,14)" font-family="Circular Std" font-size="11px" fill="#122b39" opacity="1">0%</text><text text-anchor="middle" transform="translate(95,14)" font-family="Circular Std" font-size="11px" fill="#122b39" opacity="1">2%</text><text text-anchor="middle" transform="translate(190,14)" font-family="Circular Std" font-size="11px" fill="#122b39" opacity="1">4%</text><text text-anchor="middle" transform="translate(285,14)" font-family="Circular Std" font-size="11px" fill="#122b39" opacity="1">6%</text><text text-anchor="middle" transform="translate(380,14)" font-family="Circular Std" font-size="11px" fill="#122b39" opacity="1">8%</text></g><g class="mark-rule role-axis-domain" pointer-events="none"><line transform="translate(0,0)" x2="380" y2="0" stroke="#122b39" stroke-opacity="0.5" stroke-width="1" opacity="1"/></g><g class="mark-text role-axis-title" pointer-events="none"><text text-anchor="middle" transform="translate(190,35)" font-family="Circular Std" font-size="11px" font-weight="bold" fill="#000" opacity="1">% of GDP</text></g></g><path class="foreground" aria-hidden="true" d="" pointer-events="none" display="none"/></g></g><g class="mark-group role-axis" role="graphics-symbol" aria-roledescription="axis" aria-label="Y-axis for a discrete scale with 18 values: Russia, Poland, Norway, Denmark, United States, ending with Canada"><g transform="translate(0.5,0.5)"><path class="background" aria-hidden="true" d="M0,0h0v0h0Z" pointer-events="none"/><g><g class="mark-rule role-axis-tick" pointer-events="none"><line transform="translate(0,12)" x2="0" y2="0" stroke="#122b39" stroke-width="1" opacity="1"/><line transform="translate(0,36)" x2="0" y2="0" stroke="#122b39" stroke-width="1" opacity="1"/><line transform="translate(0,61)" x2="0" y2="0" stroke="#122b39" stroke-width="1" opacity="1"/><line transform="translate(0,85)" x2="0" y2="0" stroke="#122b39" stroke-width="1" opacity="1"/><line transform="translate(0,110)" x2="0" y2="0" stroke="#122b39" stroke-width="1" opacity="1"/><line transform="translate(0,134)" x2="0" y2="0" stroke="#122b39" stroke-width="1" opacity="1"/><line transform="translate(0,158)" x2="0" y2="0" stroke="#122b39" stroke-width="1" opacity="1"/><line transform="translate(0,183)" x2="0" y2="0" stroke="#122b39" stroke-width="1" opacity="1"/><line transform="translate(0,207)" x2="0" y2="0" stroke="#122b39" stroke-width="1" opacity="1"/><line transform="translate(0,232)" x2="0" y2="0" stroke="#122b39" stroke-width="1" opacity="1"/><line transform="translate(0,256)" x2="0" y2="0" stroke="#122b39" stroke-width="1" opacity="1"/><line transform="translate(0,281)" x2="0" y2="0" stroke="#122b39" stroke-width="1" opacity="1"/><line transform="translate(0,305)" x2="0" y2="0" stroke="#122b39" stroke-width="1" opacity="1"/><line transform="translate(0,330)" x2="0" y2="0" stroke="#122b39" stroke-width="1" opacity="1"/><line transform="translate(0,354)" x2="0" y2="0" stroke="#122b39" stroke-width="1" opacity="1"/><line transform="translate(0,378)" x2="0" y2="0" stroke="#122b39" stroke-width="1" opacity="1"/><line transform="translate(0,403)" x2="0" y2="0" stroke="#122b39" stroke-width="1" opacity="1"/><line transform="translate(0,427)" x2="0" y2="0" stroke="#122b39" stroke-width="1" opacity="1"/></g><g class="mark-text role-axis-label" pointer-events="none"><text text-anchor="end" transform="translate(-8,14.722222222222221)" font-family="Circular Std" font-size="11px" fill="#122b39" opacity="1">Russia</text><text text-anchor="end" transform="translate(-8,39.166666666666664)" font-family="Circular Std" font-size="11px" fill="#122b39" opacity="1">Poland</text><text text-anchor="end" transform="translate(-8,63.61111111111111)" font-family="Circular Std" font-size="11px" fill="#122b39" opacity="1">Norway</text><text text-anchor="end" transform="translate(-8,88.05555555555554)" font-family="Circular Std" font-size="11px" fill="#122b39" opacity="1">Denmark</text><text text-anchor="end" transform="translate(-8,112.5)" font-family="Circular Std" font-size="11px" fill="#122b39" opacity="1">United States</text><text text-anchor="end" transform="translate(-8,136.94444444444443)" font-family="Circular Std" font-size="11px" fill="#122b39" opacity="1">Greece</text><text text-anchor="end" transform="translate(-8,161.38888888888889)" font-family="Circular Std" font-size="11px" fill="#122b39" opacity="1">Finland</text><text text-anchor="end" transform="translate(-8,185.83333333333331)" font-family="Circular Std" font-size="11px" fill="#122b39" opacity="1">Sweden</text><text text-anchor="end" transform="translate(-8,210.27777777777777)" font-family="Circular Std" font-size="11px" fill="#122b39" opacity="1">United Kingdom</text><text text-anchor="end" transform="translate(-8,234.72222222222223)" font-family="Circular Std" font-size="11px" fill="#122b39" opacity="1">Romania</text><text text-anchor="end" transform="translate(-8,259.16666666666663)" font-family="Circular Std" font-size="11px" fill="#122b39" opacity="1">Germany</text><text text-anchor="end" transform="translate(-8,283.6111111111111)" font-family="Circular Std" font-size="11px" fill="#122b39" opacity="1">Netherlands</text><text text-anchor="end" transform="translate(-8,308.05555555555554)" font-family="Circular Std" font-size="11px" fill="#122b39" opacity="1">Spain</text><text text-anchor="end" transform="translate(-8,332.5)" font-family="Circular Std" font-size="11px" fill="#122b39" opacity="1">France</text><text text-anchor="end" transform="translate(-8,356.9444444444444)" font-family="Circular Std" font-size="11px" fill="#122b39" opacity="1">Belgium</text><text text-anchor="end" transform="translate(-8,381.38888888888886)" font-family="Circular Std" font-size="11px" fill="#122b39" opacity="1">Italy</text><text text-anchor="end" transform="translate(-8,405.8333333333333)" font-family="Circular Std" font-size="11px" fill="#122b39" opacity="1">Czechia</text><text text-anchor="end" transform="translate(-8,430.27777777777777)" font-family="Circular Std" font-size="11px" fill="#122b39" opacity="1">Canada</text></g><g class="mark-rule role-axis-domain" pointer-events="none"><line transform="translate(0,0)" x2="0" y2="440" stroke="#122b39" stroke-opacity="0.5" stroke-width="1" opacity="1"/></g></g><path class="foreground" aria-hidden="true" d="" pointer-events="none" display="none"/></g></g><g class="mark-rule role-mark concat_0_concat_0_layer_0_marks" role="graphics-object" aria-roledescription="rule mark container"><line aria-label="share_2016: 5.4; country: Russia; share_2025: 7.5" role="graphics-symbol" aria-roledescription="rule mark" transform="translate(256.5,12.222222222222221)" x2="99.75" y2="0" stroke="#d6d4d4" stroke-width="2"/><line aria-label="share_2016: 1.9; country: Poland; share_2025: 4.5" role="graphics-symbol" aria-roledescription="rule mark" transform="translate(90.25,36.666666666666664)" x2="123.5" y2="0" stroke="#d6d4d4" stroke-width="2"/><line aria-label="share_2016: 1.6; country: Norway; share_2025: 3.3" role="graphics-symbol" aria-roledescription="rule mark" transform="translate(76,61.11111111111111)" x2="80.75" y2="0" stroke="#d6d4d4" stroke-width="2"/><line aria-label="share_2016: 1.2; country: Denmark; share_2025: 3.3" role="graphics-symbol" aria-roledescription="rule mark" transform="translate(57,85.55555555555554)" x2="99.75" y2="0" stroke="#d6d4d4" stroke-width="2"/><line aria-label="share_2016: 3.4; country: United States; share_2025: 3.1" role="graphics-symbol" aria-roledescription="rule mark" transform="translate(161.5,110)" x2="-14.25" y2="0" stroke="#d6d4d4" stroke-width="2"/><line aria-label="share_2016: 2.6; country: Greece; share_2025: 3" role="graphics-symbol" aria-roledescription="rule mark" transform="translate(123.5,134.44444444444443)" x2="19" y2="0" stroke="#d6d4d4" stroke-width="2"/><line aria-label="share_2016: 1.4; country: Finland; share_2025: 2.6" role="graphics-symbol" aria-roledescription="rule mark" transform="translate(66.5,158.88888888888889)" x2="57" y2="0" stroke="#d6d4d4" stroke-width="2"/><line aria-label="share_2016: 1.1; country: Sweden; share_2025: 2.5" role="graphics-symbol" aria-roledescription="rule mark" transform="translate(52.25000000000001,183.33333333333331)" x2="66.5" y2="0" stroke="#d6d4d4" stroke-width="2"/><line aria-label="share_2016: 2; country: United Kingdom; share_2025: 2.4" role="graphics-symbol" aria-roledescription="rule mark" transform="translate(95,207.77777777777777)" x2="19" y2="0" stroke="#179fdb" stroke-width="2"/><line aria-label="share_2016: 1.1; country: Germany; share_2025: 2.3" role="graphics-symbol" aria-roledescription="rule mark" transform="translate(52.25000000000001,256.66666666666663)" x2="56.99999999999998" y2="0" stroke="#d6d4d4" stroke-width="2"/><line aria-label="share_2016: 1.4; country: Romania; share_2025: 2.3" role="graphics-symbol" aria-roledescription="rule mark" transform="translate(66.5,232.22222222222223)" x2="42.749999999999986" y2="0" stroke="#d6d4d4" stroke-width="2"/><line aria-label="share_2016: 1.1; country: Netherlands; share_2025: 2.2" role="graphics-symbol" aria-roledescription="rule mark" transform="translate(52.25000000000001,281.1111111111111)" x2="52.25000000000001" y2="0" stroke="#d6d4d4" stroke-width="2"/><line aria-label="share_2016: 1.1; country: Spain; share_2025: 2.1" role="graphics-symbol" aria-roledescription="rule mark" transform="translate(52.25000000000001,305.55555555555554)" x2="47.49999999999999" y2="0" stroke="#d6d4d4" stroke-width="2"/><line aria-label="share_2016: 1.9; country: France; share_2025: 2" role="graphics-symbol" aria-roledescription="rule mark" transform="translate(90.25,330)" x2="4.75" y2="0" stroke="#d6d4d4" stroke-width="2"/><line aria-label="share_2016: 0.9; country: Belgium; share_2025: 2" role="graphics-symbol" aria-roledescription="rule mark" transform="translate(42.75,354.4444444444444)" x2="52.25" y2="0" stroke="#d6d4d4" stroke-width="2"/><line aria-label="share_2016: 1.3; country: Italy; share_2025: 1.9" role="graphics-symbol" aria-roledescription="rule mark" transform="translate(61.75,378.88888888888886)" x2="28.5" y2="0" stroke="#d6d4d4" stroke-width="2"/><line aria-label="share_2016: 1; country: Czechia; share_2025: 1.8" role="graphics-symbol" aria-roledescription="rule mark" transform="translate(47.5,403.3333333333333)" x2="38" y2="0" stroke="#d6d4d4" stroke-width="2"/><line aria-label="share_2016: 1.1; country: Canada; share_2025: 1.6" role="graphics-symbol" aria-roledescription="rule mark" transform="translate(52.25000000000001,427.77777777777777)" x2="23.749999999999993" y2="0" stroke="#d6d4d4" stroke-width="2"/></g><g class="mark-symbol role-mark concat_0_concat_0_layer_1_marks" role="graphics-object" aria-roledescription="symbol mark container"><path aria-label="share: 5.4; country: Russia" role="graphics-symbol" aria-roledescription="circle" transform="translate(256.5,12.222222222222221)" d="M4.743,0A4.743,4.743,0,1,1,-4.743,0A4.743,4.743,0,1,1,4.743,0" fill="#d6d4d4" stroke-width="2" opacity="1"/><path aria-label="share: 1.9; country: Poland" role="graphics-symbol" aria-roledescription="circle" transform="translate(90.25,36.666666666666664)" d="M4.743,0A4.743,4.743,0,1,1,-4.743,0A4.743,4.743,0,1,1,4.743,0" fill="#d6d4d4" stroke-width="2" opacity="1"/><path aria-label="share: 1.6; country: Norway" role="graphics-symbol" aria-roledescription="circle" transform="translate(76,61.11111111111111)" d="M4.743,0A4.743,4.743,0,1,1,-4.743,0A4.743,4.743,0,1,1,4.743,0" fill="#d6d4d4" stroke-width="2" opacity="1"/><path aria-label="share: 1.2; country: Denmark" role="graphics-symbol" aria-roledescription="circle" transform="translate(57,85.55555555555554)" d="M4.743,0A4.743,4.743,0,1,1,-4.743,0A4.743,4.743,0,1,1,4.743,0" fill="#d6d4d4" stroke-width="2" opacity="1"/><path aria-label="share: 3.4; country: United States" role="graphics-symbol" aria-roledescription="circle" transform="translate(161.5,110)" d="M4.743,0A4.743,4.743,0,1,1,-4.743,0A4.743,4.743,0,1,1,4.743,0" fill="#d6d4d4" stroke-width="2" opacity="1"/><path aria-label="share: 2.6; country: Greece" role="graphics-symbol" aria-roledescription="circle" transform="translate(123.5,134.44444444444443)" d="M4.743,0A4.743,4.743,0,1,1,-4.743,0A4.743,4.743,0,1,1,4.743,0" fill="#d6d4d4" stroke-width="2" opacity="1"/><path aria-label="share: 1.4; country: Finland" role="graphics-symbol" aria-roledescription="circle" transform="translate(66.5,158.88888888888889)" d="M4.743,0A4.743,4.743,0,1,1,-4.743,0A4.743,4.743,0,1,1,4.743,0" fill="#d6d4d4" stroke-width="2" opacity="1"/><path aria-label="share: 1.1; country: Sweden" role="graphics-symbol" aria-roledescription="circle" transform="translate(52.25000000000001,183.33333333333331)" d="M4.743,0A4.743,4.743,0,1,1,-4.743,0A4.743,4.743,0,1,1,4.743,0" fill="#d6d4d4" stroke-width="2" opacity="1"/><path aria-label="share: 2; country: United Kingdom" role="graphics-symbol" aria-roledescription="circle" transform="translate(95,207.77777777777777)" d="M4.743,0A4.743,4.743,0,1,1,-4.743,0A4.743,4.743,0,1,1,4.743,0" fill="#179fdb" stroke-width="2" opacity="1"/><path aria-label="share: 1.1; country: Germany" role="graphics-symbol" aria-roledescription="circle" transform="translate(52.25000000000001,256.66666666666663)" d="M4.743,0A4.743,4.743,0,1,1,-4.743,0A4.743,4.743,0,1,1,4.743,0" fill="#d6d4d4" stroke-width="2" opacity="1"/><path aria-label="share: 1.4; country: Romania" role="graphics-symbol" aria-roledescription="circle" transform="translate(66.5,232.22222222222223)" d="M4.743,0A4.743,4.743,0,1,1,-4.743,0A4.743,4.743,0,1,1,4.743,0" fill="#d6d4d4" stroke-width="2" opacity="1"/><path aria-label="share: 1.1; country: Netherlands" role="graphics-symbol" aria-roledescription="circle" transform="translate(52.25000000000001,281.1111111111111)" d="M4.743,0A4.743,4.743,0,1,1,-4.743,0A4.743,4.743,0,1,1,4.743,0" fill="#d6d4d4" stroke-width="2" opacity="1"/><path aria-label="share: 1.1; country: Spain" role="graphics-symbol" aria-roledescription="circle" transform="translate(52.25000000000001,305.55555555555554)" d="M4.743,0A4.743,4.743,0,1,1,-4.743,0A4.743,4.743,0,1,1,4.743,0" fill="#d6d4d4" stroke-width="2" opacity="1"/><path aria-label="share: 1.9; country: France" role="graphics-symbol" aria-roledescription="circle" transform="translate(90.25,330)" d="M4.743,0A4.743,4.743,0,1,1,-4.743,0A4.743,4.743,0,1,1,4.743,0" fill="#d6d4d4" stroke-width="2" opacity="1"/><path aria-label="share: 0.9; country: Belgium" role="graphics-symbol" aria-roledescription="circle" transform="translate(42.75,354.4444444444444)" d="M4.743,0A4.743,4.743,0,1,1,-4.743,0A4.743,4.743,0,1,1,4.743,0" fill="#d6d4d4" stroke-width="2" opacity="1"/><path aria-label="share: 1.3; country: Italy" role="graphics-symbol" aria-roledescription="circle" transform="translate(61.75,378.88888888888886)" d="M4.743,0A4.743,4.743,0,1,1,-4.743,0A4.743,4.743,0,1,1,4.743,0" fill="#d6d4d4" stroke-width="2" opacity="1"/><path aria-label="share: 1; country: Czechia" role="graphics-symbol" aria-roledescription="circle" transform="translate(47.5,403.3333333333333)" d="M4.743,0A4.743,4.743,0,1,1,-4.743,0A4.743,4.743,0,1,1,4.743,0" fill="#d6d4d4" stroke-width="2" opacity="1"/><path aria-label="share: 1.1; country: Canada" role="graphics-symbol" aria-roledescription="circle" transform="translate(52.25000000000001,427.77777777777777)" d="M4.743,0A4.743,4.743,0,1,1,-4.743,0A4.743,4.743,0,1,1,4.743,0" fill="#d6d4d4" stroke-width="2" opacity="1"/></g><g class="mark-symbol role-mark concat_0_concat_0_layer_2_marks" role="graphics-object" aria-roledescription="symbol mark container"><path aria-label="share: 8; country: Russia" role="graphics-symbol" aria-roledescription="point" transform="translate(356.25,12.222222222222221)" d="M-5.916,0L0,-5.916L5.916,0L0,5.916Z" fill="#122b39" stroke-width="2" opacity="1"/><path aria-label="share: 5; country: Poland" role="graphics-symbol" aria-roledescription="point" transform="translate(213.75,36.666666666666664)" d="M-5.916,0L0,-5.916L5.916,0L0,5.916Z" fill="#122b39" stroke-width="2" opacity="1"/><path aria-label="share: 3; country: Norway" role="graphics-symbol" aria-roledescription="point" transform="translate(156.75,61.11111111111111)" d="M-5.916,0L0,-5.916L5.916,0L0,5.916Z" fill="#122b39" stroke-width="2" opacity="1"/><path aria-label="share: 3; country: Denmark" role="graphics-symbol" aria-roledescription="point" transform="translate(156.75,85.55555555555554)" d="M-5.916,0L0,-5.916L5.916,0L0,5.916Z" fill="#122b39" stroke-width="2" opacity="1"/><path aria-label="share: 3; country: United States" role="graphics-symbol" aria-roledescription="point" transform="translate(147.25,110)" d="M-5.916,0L0,-5.916L5.916,0L0,5.916Z" fill="#122b39" stroke-width="2" opacity="1"/><path aria-label="share: 3; country: Greece" role="graphics-symbol" aria-roledescription="point" transform="translate(142.5,134.44444444444443)" d="M-5.916,0L0,-5.916L5.916,0L0,5.916Z" fill="#122b39" stroke-width="2" opacity="1"/><path aria-label="share: 3; country: Finland" role="graphics-symbol" aria-roledescription="point" transform="translate(123.5,158.88888888888889)" d="M-5.916,0L0,-5.916L5.916,0L0,5.916Z" fill="#122b39" stroke-width="2" opacity="1"/><path aria-label="share: 3; country: Sweden" role="graphics-symbol" aria-roledescription="point" transform="translate(118.75,183.33333333333331)" d="M-5.916,0L0,-5.916L5.916,0L0,5.916Z" fill="#122b39" stroke-width="2" opacity="1"/><path aria-label="share: 2; country: United Kingdom" role="graphics-symbol" aria-roledescription="point" transform="translate(114,207.77777777777777)" d="M-5.916,0L0,-5.916L5.916,0L0,5.916Z" fill="#179fdb" stroke-width="2" opacity="1"/><path aria-label="share: 2; country: Germany" role="graphics-symbol" aria-roledescription="point" transform="translate(109.24999999999999,256.66666666666663)" d="M-5.916,0L0,-5.916L5.916,0L0,5.916Z" fill="#122b39" stroke-width="2" opacity="1"/><path aria-label="share: 2; country: Romania" role="graphics-symbol" aria-roledescription="point" transform="translate(109.24999999999999,232.22222222222223)" d="M-5.916,0L0,-5.916L5.916,0L0,5.916Z" fill="#122b39" stroke-width="2" opacity="1"/><path aria-label="share: 2; country: Netherlands" role="graphics-symbol" aria-roledescription="point" transform="translate(104.50000000000001,281.1111111111111)" d="M-5.916,0L0,-5.916L5.916,0L0,5.916Z" fill="#122b39" stroke-width="2" opacity="1"/><path aria-label="share: 2; country: Spain" role="graphics-symbol" aria-roledescription="point" transform="translate(99.75,305.55555555555554)" d="M-5.916,0L0,-5.916L5.916,0L0,5.916Z" fill="#122b39" stroke-width="2" opacity="1"/><path aria-label="share: 2; country: France" role="graphics-symbol" aria-roledescription="point" transform="translate(95,330)" d="M-5.916,0L0,-5.916L5.916,0L0,5.916Z" fill="#122b39" stroke-width="2" opacity="1"/><path aria-label="share: 2; country: Belgium" role="graphics-symbol" aria-roledescription="point" transform="translate(95,354.4444444444444)" d="M-5.916,0L0,-5.916L5.916,0L0,5.916Z" fill="#122b39" stroke-width="2" opacity="1"/><path aria-label="share: 2; country: Italy" role="graphics-symbol" aria-roledescription="point" transform="translate(90.25,378.88888888888886)" d="M-5.916,0L0,-5.916L5.916,0L0,5.916Z" fill="#122b39" stroke-width="2" opacity="1"/><path aria-label="share: 2; country: Czechia" role="graphics-symbol" aria-roledescription="point" transform="translate(85.5,403.3333333333333)" d="M-5.916,0L0,-5.916L5.916,0L0,5.916Z" fill="#122b39" stroke-width="2" opacity="1"/><path aria-label="share: 2; country: Canada" role="graphics-symbol" aria-roledescription="point" transform="translate(76,427.77777777777777)" d="M-5.916,0L0,-5.916L5.916,0L0,5.916Z" fill="#122b39" stroke-width="2" opacity="1"/></g><g class="mark-text role-mark concat_0_concat_0_layer_3_marks" role="graphics-object" aria-roledescription="text mark container"><text aria-label="share: 7.5; country: Russia" role="graphics-symbol" aria-roledescription="text mark" text-anchor="start" transform="translate(366.25,15.222222222222221)" font-family="Circular Std" font-size="10px" font-weight="500" fill="#122b39">7.5</text><text aria-label="share: 4.5; country: Poland" role="graphics-symbol" aria-roledescription="text mark" text-anchor="start" transform="translate(223.75,39.666666666666664)" font-family="Circular Std" font-size="10px" font-weight="500" fill="#122b39">4.5</text><text aria-label="share: 3.3; country: Norway" role="graphics-symbol" aria-roledescription="text mark" text-anchor="start" transform="translate(166.75,64.11111111111111)" font-family="Circular Std" font-size="10px" font-weight="500" fill="#122b39">3.3</text><text aria-label="share: 3.3; country: Denmark" role="graphics-symbol" aria-roledescription="text mark" text-anchor="start" transform="translate(166.75,88.55555555555554)" font-family="Circular Std" font-size="10px" font-weight="500" fill="#122b39">3.3</text><text aria-label="share: 3.1; country: United States" role="graphics-symbol" aria-roledescription="text mark" text-anchor="start" transform="translate(157.25,113)" font-family="Circular Std" font-size="10px" font-weight="500" fill="#122b39">3.1</text><text aria-label="share: 3; country: Greece" role="graphics-symbol" aria-roledescription="text mark" text-anchor="start" transform="translate(152.5,137.44444444444443)" font-family="Circular Std" font-size="10px" font-weight="500" fill="#122b39">3.0</text><text aria-label="share: 2.6; country: Finland" role="graphics-symbol" aria-roledescription="text mark" text-anchor="start" transform="translate(133.5,161.88888888888889)" font-family="Circular Std" font-size="10px" font-weight="500" fill="#122b39">2.6</text><text aria-label="share: 2.5; country: Sweden" role="graphics-symbol" aria-roledescription="text mark" text-anchor="start" transform="translate(128.75,186.33333333333331)" font-family="Circular Std" font-size="10px" font-weight="500" fill="#122b39">2.5</text><text aria-label="share: 2.4; country: United Kingdom" role="graphics-symbol" aria-roledescription="text mark" text-anchor="start" transform="translate(124,210.77777777777777)" font-family="Circular Std" font-size="10px" font-weight="500" fill="#179fdb">2.4</text><text aria-label="share: 2.3; country: Germany" role="graphics-symbol" aria-roledescription="text mark" text-anchor="start" transform="translate(119.24999999999999,259.66666666666663)" font-family="Circular Std" font-size="10px" font-weight="500" fill="#122b39">2.3</text><text aria-label="share: 2.3; country: Romania" role="graphics-symbol" aria-roledescription="text mark" text-anchor="start" transform="translate(119.24999999999999,235.22222222222223)" font-family="Circular Std" font-size="10px" font-weight="500" fill="#122b39">2.3</text><text aria-label="share: 2.2; country: Netherlands" role="graphics-symbol" aria-roledescription="text mark" text-anchor="start" transform="translate(114.50000000000001,284.1111111111111)" font-family="Circular Std" font-size="10px" font-weight="500" fill="#122b39">2.2</text><text aria-label="share: 2.1; country: Spain" role="graphics-symbol" aria-roledescription="text mark" text-anchor="start" transform="translate(109.75,308.55555555555554)" font-family="Circular Std" font-size="10px" font-weight="500" fill="#122b39">2.1</text><text aria-label="share: 2; country: France" role="graphics-symbol" aria-roledescription="text mark" text-anchor="start" transform="translate(105,333)" font-family="Circular Std" font-size="10px" font-weight="500" fill="#122b39">2.0</text><text aria-label="share: 2; country: Belgium" role="graphics-symbol" aria-roledescription="text mark" text-anchor="start" transform="translate(105,357.4444444444444)" font-family="Circular Std" font-size="10px" font-weight="500" fill="#122b39">2.0</text><text aria-label="share: 1.9; country: Italy" role="graphics-symbol" aria-roledescription="text mark" text-anchor="start" transform="translate(100.25,381.88888888888886)" font-family="Circular Std" font-size="10px" font-weight="500" fill="#122b39">1.9</text><text aria-label="share: 1.8; country: Czechia" role="graphics-symbol" aria-roledescription="text mark" text-anchor="start" transform="translate(95.5,406.3333333333333)" font-family="Circular Std" font-size="10px" font-weight="500" fill="#122b39">1.8</text><text aria-label="share: 1.6; country: Canada" role="graphics-symbol" aria-roledescription="text mark" text-anchor="start" transform="translate(86,430.77777777777777)" font-family="Circular Std" font-size="10px" font-weight="500" fill="#122b39">1.6</text></g><g class="mark-symbol role-mark concat_0_concat_0_layer_4_layer_0_marks" role="graphics-object" aria-roledescription="symbol mark container"><path aria-label="x: 6; country: Italy" role="graphics-symbol" aria-roledescription="circle" transform="translate(285,378.88888888888886)" d="M4.743,0A4.743,4.743,0,1,1,-4.743,0A4.743,4.743,0,1,1,4.743,0" fill="#d6d4d4" stroke-width="2" opacity="0.7"/></g><g class="mark-symbol role-mark concat_0_concat_0_layer_4_layer_1_marks" role="graphics-object" aria-roledescription="symbol mark container"><path aria-label="x: 6.9; country: Italy" role="graphics-symbol" aria-roledescription="point" transform="translate(327.75,378.88888888888886)" d="M-5.916,0L0,-5.916L5.916,0L0,5.916Z" fill="#122b39" stroke-width="2" opacity="1"/></g><g class="mark-text role-mark concat_0_concat_0_layer_4_layer_2_marks" role="graphics-object" aria-roledescription="text mark container"><text aria-label="x: 6; country: Italy; label: 2016" role="graphics-symbol" aria-roledescription="text mark" text-anchor="start" transform="translate(295,381.88888888888886)" font-family="Circular Std" font-size="10px" fill="#122b39">2016</text><text aria-label="x: 6.9; country: Italy; label: 2025" role="graphics-symbol" aria-roledescription="text mark" text-anchor="start" transform="translate(337.75,381.88888888888886)" font-family="Circular Std" font-size="10px" fill="#122b39">2025</text></g><g class="mark-group role-title"><g transform="translate(-89.88400268554688,-15)"><path class="background" aria-hidden="true" d="M0,0h0v0h0Z" pointer-events="none"/><g><g class="mark-text role-title-text" role="graphics-symbol" aria-roledescription="title" aria-label="Title text 'Military expenditure as a share of GDP, 2016 vs 2025'" pointer-events="none"><text text-anchor="start" transform="translate(0,9)" font-family="Circular Std" font-size="11px" font-weight="normal" fill="#122b39" opacity="1">Military expenditure as a share of GDP, 2016 vs 2025</text></g></g><path class="foreground" aria-hidden="true" d="" pointer-events="none" display="none"/></g></g></g><path class="foreground" aria-hidden="true" d="" display="none"/></g></g><g class="mark-group role-scope concat_0_concat_1_group" role="graphics-object" aria-roledescription="group mark container"><g transform="translate(415,0)"><path class="background" aria-hidden="true" d="M0,0h180v440h-180Z" stroke-width="0"/><g><g class="mark-group role-axis" aria-hidden="true"><g transform="translate(0.5,440.5)"><path class="background" aria-hidden="true" d="M0,0h0v0h0Z" pointer-events="none"/><g><g class="mark-rule role-axis-grid" pointer-events="none"><line transform="translate(0,0)" x2="0" y2="-440" stroke="#ddd" stroke-opacity="0" stroke-width="1" opacity="1"/><line transform="translate(45,0)" x2="0" y2="-440" stroke="#ddd" stroke-opacity="0" stroke-width="1" opacity="1"/><line transform="translate(90,0)" x2="0" y2="-440" stroke="#ddd" stroke-opacity="0" stroke-width="1" opacity="1"/><line transform="translate(135,0)" x2="0" y2="-440" stroke="#ddd" stroke-opacity="0" stroke-width="1" opacity="1"/><line transform="translate(180,0)" x2="0" y2="-440" stroke="#ddd" stroke-opacity="0" stroke-width="1" opacity="1"/></g></g><path class="foreground" aria-hidden="true" d="" pointer-events="none" display="none"/></g></g><g class="mark-group role-axis" role="graphics-symbol" aria-roledescription="axis" aria-label="X-axis titled 'Expenditure ($ bn)' for a linear scale with values from 0 to 200"><g transform="translate(0.5,440.5)"><path class="background" aria-hidden="true" d="M0,0h0v0h0Z" pointer-events="none"/><g><g class="mark-rule role-axis-tick" pointer-events="none"><line transform="translate(0,0)" x2="0" y2="0" stroke="#122b39" stroke-width="1" opacity="1"/><line transform="translate(45,0)" x2="0" y2="0" stroke="#122b39" stroke-width="1" opacity="1"/><line transform="translate(90,0)" x2="0" y2="0" stroke="#122b39" stroke-width="1" opacity="1"/><line transform="translate(135,0)" x2="0" y2="0" stroke="#122b39" stroke-width="1" opacity="1"/><line transform="translate(180,0)" x2="0" y2="0" stroke="#122b39" stroke-width="1" opacity="1"/></g><g class="mark-text role-axis-label" pointer-events="none"><text text-anchor="middle" transform="translate(0,14)" font-family="Circular Std" font-size="11px" fill="#122b39" opacity="1">$0</text><text text-anchor="middle" transform="translate(45,14)" font-family="Circular Std" font-size="11px" fill="#122b39" opacity="1">$50</text><text text-anchor="middle" transform="translate(90,14)" font-family="Circular Std" font-size="11px" fill="#122b39" opacity="1">$100</text><text text-anchor="middle" transform="translate(135,14)" font-family="Circular Std" font-size="11px" fill="#122b39" opacity="1">$150</text><text text-anchor="middle" transform="translate(180,14)" font-family="Circular Std" font-size="11px" fill="#122b39" opacity="1">$200</text></g><g class="mark-rule role-axis-domain" pointer-events="none"><line transform="translate(0,0)" x2="180" y2="0" stroke="#122b39" stroke-opacity="0.5" stroke-width="1" opacity="1"/></g><g class="mark-text role-axis-title" pointer-events="none"><text text-anchor="middle" transform="translate(90,35)" font-family="Circular Std" font-size="11px" font-weight="bold" fill="#000" opacity="1">Expenditure ($ bn)</text></g></g><path class="foreground" aria-hidden="true" d="" pointer-events="none" display="none"/></g></g><g class="mark-rect role-mark concat_0_concat_1_layer_0_marks" role="graphics-object" aria-roledescription="rect mark container"><path aria-label="spending_capped: 190; country: Russia" role="graphics-symbol" aria-roledescription="bar" d="M0,7.222222222222257h171v10h-171Z" fill="#122b39"/><path aria-label="spending_capped: 47; country: Poland" role="graphics-symbol" aria-roledescription="bar" d="M0,31.6666666666667h42.12v10h-42.12Z" fill="#122b39"/><path aria-label="spending_capped: 17; country: Norway" role="graphics-symbol" aria-roledescription="bar" d="M0,56.11111111111114h15.3v10h-15.3Z" fill="#122b39"/><path aria-label="spending_capped: 15; country: Denmark" role="graphics-symbol" aria-roledescription="bar" d="M0,80.55555555555559h13.41v10h-13.41Z" fill="#122b39"/><path aria-label="spending_capped: 200; country: United States" role="graphics-symbol" aria-roledescription="bar" d="M0,105.00000000000003h180v10h-180Z" fill="#122b39"/><path aria-label="spending_capped: 8; country: Greece" role="graphics-symbol" aria-roledescription="bar" d="M0,129.44444444444446h7.5600000000000005v10h-7.5600000000000005Z" fill="#122b39"/><path aria-label="spending_capped: 8; country: Finland" role="graphics-symbol" aria-roledescription="bar" d="M0,153.8888888888889h7.29v10h-7.29Z" fill="#122b39"/><path aria-label="spending_capped: 17; country: Sweden" role="graphics-symbol" aria-roledescription="bar" d="M0,178.33333333333334h14.850000000000001v10h-14.850000000000001Z" fill="#122b39"/><path aria-label="spending_capped: 89; country: United Kingdom" role="graphics-symbol" aria-roledescription="bar" d="M0,202.7777777777778h80.1v10h-80.1Z" fill="#179fdb"/><path aria-label="spending_capped: 114; country: Germany" role="graphics-symbol" aria-roledescription="bar" d="M0,251.66666666666669h102.6v10h-102.6Z" fill="#122b39"/><path aria-label="spending_capped: 10; country: Romania" role="graphics-symbol" aria-roledescription="bar" d="M0,227.22222222222226h8.729999999999999v10h-8.729999999999999Z" fill="#122b39"/><path aria-label="spending_capped: 29; country: Netherlands" role="graphics-symbol" aria-roledescription="bar" d="M0,276.1111111111111h26.009999999999998v10h-26.009999999999998Z" fill="#122b39"/><path aria-label="spending_capped: 40; country: Spain" role="graphics-symbol" aria-roledescription="bar" d="M0,300.55555555555554h36.18v10h-36.18Z" fill="#122b39"/><path aria-label="spending_capped: 68; country: France" role="graphics-symbol" aria-roledescription="bar" d="M0,325h61.2v10h-61.2Z" fill="#122b39"/><path aria-label="spending_capped: 15; country: Belgium" role="graphics-symbol" aria-roledescription="bar" d="M0,349.44444444444446h13.049999999999999v10h-13.049999999999999Z" fill="#122b39"/><path aria-label="spending_capped: 48; country: Italy" role="graphics-symbol" aria-roledescription="bar" d="M0,373.8888888888889h43.290000000000006v10h-43.290000000000006Z" fill="#122b39"/><path aria-label="spending_capped: 7; country: Czechia" role="graphics-symbol" aria-roledescription="bar" d="M0,398.33333333333337h6.39v10h-6.39Z" fill="#122b39"/><path aria-label="spending_capped: 38; country: Canada" role="graphics-symbol" aria-roledescription="bar" d="M0,422.7777777777778h33.75v10h-33.75Z" fill="#122b39"/></g><g class="mark-text role-mark concat_0_concat_1_layer_1_marks" role="graphics-object" aria-roledescription="text mark container"><text aria-label="spending_capped: 190; country: Russia; spending_label: 190" role="graphics-symbol" aria-roledescription="text mark" text-anchor="start" transform="translate(175,15.222222222222257)" font-family="Circular Std" font-size="10px" font-weight="500" fill="#122b39">190</text><text aria-label="spending_capped: 46.8; country: Poland; spending_label: 47" role="graphics-symbol" aria-roledescription="text mark" text-anchor="start" transform="translate(46.12,39.6666666666667)" font-family="Circular Std" font-size="10px" font-weight="500" fill="#122b39">47</text><text aria-label="spending_capped: 17; country: Norway; spending_label: 17" role="graphics-symbol" aria-roledescription="text mark" text-anchor="start" transform="translate(19.3,64.11111111111114)" font-family="Circular Std" font-size="10px" font-weight="500" fill="#122b39">17</text><text aria-label="spending_capped: 14.9; country: Denmark; spending_label: 15" role="graphics-symbol" aria-roledescription="text mark" text-anchor="start" transform="translate(17.41,88.55555555555559)" font-family="Circular Std" font-size="10px" font-weight="500" fill="#122b39">15</text><text aria-label="spending_capped: 200; country: United States; spending_label: 954" role="graphics-symbol" aria-roledescription="text mark" text-anchor="start" transform="translate(184,113.00000000000003)" font-family="Circular Std" font-size="10px" font-weight="500" fill="#122b39">954</text><text aria-label="spending_capped: 8.4; country: Greece; spending_label: 8" role="graphics-symbol" aria-roledescription="text mark" text-anchor="start" transform="translate(11.56,137.44444444444446)" font-family="Circular Std" font-size="10px" font-weight="500" fill="#122b39">8</text><text aria-label="spending_capped: 8.1; country: Finland; spending_label: 8" role="graphics-symbol" aria-roledescription="text mark" text-anchor="start" transform="translate(11.29,161.8888888888889)" font-family="Circular Std" font-size="10px" font-weight="500" fill="#122b39">8</text><text aria-label="spending_capped: 16.5; country: Sweden; spending_label: 16" role="graphics-symbol" aria-roledescription="text mark" text-anchor="start" transform="translate(18.85,186.33333333333334)" font-family="Circular Std" font-size="10px" font-weight="500" fill="#122b39">16</text><text aria-label="spending_capped: 89; country: United Kingdom; spending_label: 89" role="graphics-symbol" aria-roledescription="text mark" text-anchor="start" transform="translate(84.1,210.7777777777778)" font-family="Circular Std" font-size="10px" font-weight="500" fill="#179fdb">89</text><text aria-label="spending_capped: 114; country: Germany; spending_label: 114" role="graphics-symbol" aria-roledescription="text mark" text-anchor="start" transform="translate(106.6,259.6666666666667)" font-family="Circular Std" font-size="10px" font-weight="500" fill="#122b39">114</text><text aria-label="spending_capped: 9.7; country: Romania; spending_label: 10" role="graphics-symbol" aria-roledescription="text mark" text-anchor="start" transform="translate(12.729999999999999,235.22222222222226)" font-family="Circular Std" font-size="10px" font-weight="500" fill="#122b39">10</text><text aria-label="spending_capped: 28.9; country: Netherlands; spending_label: 29" role="graphics-symbol" aria-roledescription="text mark" text-anchor="start" transform="translate(30.009999999999998,284.1111111111111)" font-family="Circular Std" font-size="10px" font-weight="500" fill="#122b39">29</text><text aria-label="spending_capped: 40.2; country: Spain; spending_label: 40" role="graphics-symbol" aria-roledescription="text mark" text-anchor="start" transform="translate(40.18,308.55555555555554)" font-family="Circular Std" font-size="10px" font-weight="500" fill="#122b39">40</text><text aria-label="spending_capped: 68; country: France; spending_label: 68" role="graphics-symbol" aria-roledescription="text mark" text-anchor="start" transform="translate(65.2,333)" font-family="Circular Std" font-size="10px" font-weight="500" fill="#122b39">68</text><text aria-label="spending_capped: 14.5; country: Belgium; spending_label: 14" role="graphics-symbol" aria-roledescription="text mark" text-anchor="start" transform="translate(17.049999999999997,357.44444444444446)" font-family="Circular Std" font-size="10px" font-weight="500" fill="#122b39">14</text><text aria-label="spending_capped: 48.1; country: Italy; spending_label: 48" role="graphics-symbol" aria-roledescription="text mark" text-anchor="start" transform="translate(47.290000000000006,381.8888888888889)" font-family="Circular Std" font-size="10px" font-weight="500" fill="#122b39">48</text><text aria-label="spending_capped: 7.1; country: Czechia; spending_label: 7" role="graphics-symbol" aria-roledescription="text mark" text-anchor="start" transform="translate(10.39,406.33333333333337)" font-family="Circular Std" font-size="10px" font-weight="500" fill="#122b39">7</text><text aria-label="spending_capped: 37.5; country: Canada; spending_label: 38" role="graphics-symbol" aria-roledescription="text mark" text-anchor="start" transform="translate(37.75,430.7777777777778)" font-family="Circular Std" font-size="10px" font-weight="500" fill="#122b39">38</text></g><g class="mark-group role-title"><g transform="translate(-6.638500213623047,-15)"><path class="background" aria-hidden="true" d="M0,0h0v0h0Z" pointer-events="none"/><g><g class="mark-text role-title-text" role="graphics-symbol" aria-roledescription="title" aria-label="Title text 'Military expenditure, 2025 ($ bn)'" pointer-events="none"><text text-anchor="start" transform="translate(0,9)" font-family="Circular Std" font-size="11px" font-weight="normal" fill="#122b39" opacity="1">Military expenditure, 2025 ($ bn)</text></g></g><path class="foreground" aria-hidden="true" d="" pointer-events="none" display="none"/></g></g></g><path class="foreground" aria-hidden="true" d="" display="none"/></g></g><g class="mark-group role-title"><g transform="translate(-89.88400268554688,-40)"><path class="background" aria-hidden="true" d="M0,0h0v0h0Z" pointer-events="none"/><g><g class="mark-text role-title-text" role="graphics-symbol" aria-roledescription="title" aria-label="Title text 'NATO's military burden is climbing across the alliance'" pointer-events="none"><text text-anchor="start" transform="translate(0,12)" font-family="Circular Std" font-size="15px" font-weight="bold" fill="#000" opacity="1">NATO's military burden is climbing across the alliance</text></g></g><path class="foreground" aria-hidden="true" d="" pointer-events="none" display="none"/></g></g></g><path class="foreground" aria-hidden="true" d="" display="none"/></g></g><g class="mark-group role-scope concat_1_group" role="graphics-object" aria-roledescription="group mark container"><g transform="translate(0,481)"><path class="background" aria-hidden="true" d="M0,0h0v0h0Z"/><g><g class="mark-group role-scope concat_1_concat_0_group" role="graphics-object" aria-roledescription="group mark container"><g transform="translate(0,0)"><path class="background" aria-hidden="true" d="M0,0h580v12h-580Z"/><g><g class="mark-text role-mark concat_1_concat_0_marks" role="graphics-object" aria-roledescription="text mark container"><text aria-label="text: Source: SIPRI Military Expenditure Database, April 2026." role="graphics-symbol" aria-roledescription="text mark" text-anchor="start" transform="translate(0,9)" font-family="Circular Std" font-size="9px" fill="#122b39" opacity="0.7">Source: SIPRI Military Expenditure Database, April 2026.</text></g></g><path class="foreground" aria-hidden="true" d="" display="none"/></g></g><g class="mark-group role-scope concat_1_concat_1_group" role="graphics-object" aria-roledescription="group mark container"><g transform="translate(0,14)"><path class="background" aria-hidden="true" d="M0,0h580v12h-580Z"/><g><g class="mark-text role-mark concat_1_concat_1_marks" role="graphics-object" aria-roledescription="text mark container"><text aria-label="text: Note: US bar capped at $200bn; full value $954bn." role="graphics-symbol" aria-roledescription="text mark" text-anchor="start" transform="translate(0,9)" font-family="Circular Std" font-size="9px" fill="#122b39" opacity="0.7">Note: US bar capped at $200bn; full value $954bn.</text></g></g><path class="foreground" aria-hidden="true" d="" display="none"/></g></g></g><path class="foreground" aria-hidden="true" d="" display="none"/></g></g></g><path class="foreground" aria-hidden="true" d="" display="none"/></g></g></g></svg>