<svg xmlns="http://www.w3.org/2000/svg" xmlns:xlink="http://www.w3.org/1999/xlink" version="1.1" class="marks" width="493" height="364" viewBox="0 0 493 364"><rect width="493" height="364" fill="white"/><g fill="none" stroke-miterlimit="10" transform="translate(33,21)"><g class="mark-group role-frame root" role="graphics-object" aria-roledescription="group mark container"><g transform="translate(0,0)"><path class="background" aria-hidden="true" d="M0.5,0.5h350v280h-350Z"/><g><g class="mark-group role-axis" aria-hidden="true"><g transform="translate(0.5,0.5)"><path class="background" aria-hidden="true" d="M0,0h0v0h0Z" pointer-events="none"/><g><g class="mark-rule role-axis-grid" pointer-events="none"><line transform="translate(0,280)" x2="350" y2="0" stroke="#676A86" stroke-opacity="0.5" stroke-width="1" stroke-dasharray="1,5" opacity="1"/><line transform="translate(0,233)" x2="350" y2="0" stroke="#676A86" stroke-opacity="0.5" stroke-width="1" stroke-dasharray="1,5" opacity="1"/><line transform="translate(0,187)" x2="350" y2="0" stroke="#676A86" stroke-opacity="0.5" stroke-width="1" stroke-dasharray="1,5" opacity="1"/><line transform="translate(0,140)" x2="350" y2="0" stroke="#676A86" stroke-opacity="0.5" stroke-width="1" stroke-dasharray="1,5" opacity="1"/><line transform="translate(0,93)" x2="350" y2="0" stroke="#676A86" stroke-opacity="0.5" stroke-width="1" stroke-dasharray="1,5" opacity="1"/><line transform="translate(0,47)" x2="350" y2="0" stroke="#676A86" stroke-opacity="0.5" stroke-width="1" stroke-dasharray="1,5" opacity="1"/><line transform="translate(0,0)" x2="350" y2="0" stroke="#676A86" stroke-opacity="0.5" stroke-width="1" stroke-dasharray="1,5" opacity="1"/></g></g><path class="foreground" aria-hidden="true" d="" pointer-events="none" display="none"/></g></g><g class="mark-group role-axis" role="graphics-symbol" aria-roledescription="axis" aria-label="X-axis for a time scale with values from 2025 to 2075"><g transform="translate(0.5,280.5)"><path class="background" aria-hidden="true" d="M0,0h0v0h0Z" pointer-events="none"/><g><g class="mark-rule role-axis-tick" pointer-events="none"><line transform="translate(35,0)" x2="0" y2="4" stroke="#676A86" stroke-opacity="0.5" stroke-width="1" opacity="1"/><line transform="translate(105,0)" x2="0" y2="4" stroke="#676A86" stroke-opacity="0.5" stroke-width="1" opacity="1"/><line transform="translate(175,0)" x2="0" y2="4" stroke="#676A86" stroke-opacity="0.5" stroke-width="1" opacity="1"/><line transform="translate(245,0)" x2="0" y2="4" stroke="#676A86" stroke-opacity="0.5" stroke-width="1" opacity="1"/><line transform="translate(315,0)" x2="0" y2="4" stroke="#676A86" stroke-opacity="0.5" stroke-width="1" opacity="1"/></g><g class="mark-text role-axis-label" pointer-events="none"><text text-anchor="middle" transform="translate(34.996166903953565,15)" font-family="Circular Std" font-size="11px" fill="#676A86" fill-opacity="0.7" opacity="1">2030</text><text text-anchor="middle" transform="translate(104.9885007118607,15)" font-family="Circular Std" font-size="11px" fill="#676A86" fill-opacity="0.7" opacity="1">2040</text><text text-anchor="middle" transform="translate(175,15)" font-family="Circular Std" font-size="11px" fill="#676A86" fill-opacity="0.7" opacity="1">2050</text><text text-anchor="middle" transform="translate(244.9923338079071,15)" font-family="Circular Std" font-size="11px" fill="#676A86" fill-opacity="0.7" opacity="1">2060</text><text text-anchor="middle" transform="translate(315.00383309604644,15)" font-family="Circular Std" font-size="11px" fill="#676A86" fill-opacity="0.7" opacity="1">2070</text></g><g class="mark-rule role-axis-domain" pointer-events="none"><line transform="translate(0,0)" x2="350" y2="0" stroke="#676A86" stroke-opacity="0.5" stroke-width="1" opacity="1"/></g></g><path class="foreground" aria-hidden="true" d="" pointer-events="none" display="none"/></g></g><g class="mark-group role-axis" role="graphics-symbol" aria-roledescription="axis" aria-label="Y-axis titled 'Per cent of GDP' for a linear scale with values from 38 to 50"><g transform="translate(0.5,0.5)"><path class="background" aria-hidden="true" d="M0,0h0v0h0Z" pointer-events="none"/><g><g class="mark-text role-axis-label" pointer-events="none"><text text-anchor="end" transform="translate(-5,283)" font-family="Circular Std" font-size="11px" fill="#676A86" fill-opacity="0.7" opacity="1">38%</text><text text-anchor="end" transform="translate(-5,236.33333333333334)" font-family="Circular Std" font-size="11px" fill="#676A86" fill-opacity="0.7" opacity="1">40%</text><text text-anchor="end" transform="translate(-5,189.66666666666669)" font-family="Circular Std" font-size="11px" fill="#676A86" fill-opacity="0.7" opacity="1">42%</text><text text-anchor="end" transform="translate(-5,143)" font-family="Circular Std" font-size="11px" fill="#676A86" fill-opacity="0.7" opacity="1">44%</text><text text-anchor="end" transform="translate(-5,96.33333333333334)" font-family="Circular Std" font-size="11px" fill="#676A86" fill-opacity="0.7" opacity="1">46%</text><text text-anchor="end" transform="translate(-5,49.66666666666666)" font-family="Circular Std" font-size="11px" fill="#676A86" fill-opacity="0.7" opacity="1">48%</text><text text-anchor="end" transform="translate(-5,3)" font-family="Circular Std" font-size="11px" fill="#676A86" fill-opacity="0.7" opacity="1">50%</text></g><g class="mark-rule role-axis-domain" pointer-events="none"><line transform="translate(0,280)" x2="0" y2="-280" stroke="#676A86" stroke-opacity="0.5" stroke-width="1" opacity="1"/></g><g class="mark-text role-axis-title" pointer-events="none"><text text-anchor="start" transform="translate(0,-7)" font-family="Circular Std" font-size="11px" font-weight="bold" fill="#676A86" fill-opacity="0.8" opacity="1">Per cent of GDP</text></g></g><path class="foreground" aria-hidden="true" d="" pointer-events="none" display="none"/></g></g><g class="mark-group role-scope layer_0_pathgroup" role="graphics-object" aria-roledescription="group mark container"><g transform="translate(0,0)"><path class="background" aria-hidden="true" d="M0,0h350v280h-350Z"/><g><g class="mark-line role-mark layer_0_marks" role="graphics-object" aria-roledescription="line mark container"><path aria-label="date: 2025; Per cent of GDP: 40.5; series: Primary spending" role="graphics-symbol" aria-roledescription="line mark" d="M0,221.667L6.995,224.933L13.991,228.2L20.986,231.467L28.001,234.733L34.996,238L41.992,231L48.987,224L56.002,217L62.997,210L69.992,203L76.988,201.367L84.002,199.733L90.998,198.1L97.993,196.467L104.989,194.833L112.003,193.2L118.998,191.567L125.994,189.933L132.989,188.3L140.004,186.667L146.999,181.767L153.995,176.867L160.99,171.967L168.005,167.067L175,162.167L181.995,157.267L188.991,152.367L196.005,147.467L203.001,142.567L209.996,137.667L216.992,132.067L224.006,126.467L231.002,120.867L237.997,115.267L244.992,109.667L252.007,104.067L259.002,98.467L265.998,92.867L272.993,87.267L280.008,81.667L287.003,76.767L293.998,71.867L300.994,66.967L308.008,62.067L315.004,57.167L321.999,52.267L328.995,47.367L336.009,42.467L343.005,37.567L350,32.667" stroke="#E6224B" stroke-width="2.4"/></g></g><path class="foreground" aria-hidden="true" d="" display="none"/></g><g transform="translate(0,0)"><path class="background" aria-hidden="true" d="M0,0h350v280h-350Z"/><g><g class="mark-line role-mark layer_0_marks" role="graphics-object" aria-roledescription="line mark container"><path aria-label="date: 2025; Per cent of GDP: 39.1; series: Primary receipts" role="graphics-symbol" aria-roledescription="line mark" d="M0,254.333L6.995,244.067L13.991,233.8L20.986,223.533L28.001,213.267L34.996,203L41.992,205.333L48.987,207.667L56.002,210L62.997,212.333L69.992,214.667L76.988,214.667L84.002,214.667L90.998,214.667L97.993,214.667L104.989,214.667L112.003,214.667L118.998,214.667L125.994,214.667L132.989,214.667L140.004,214.667L146.999,213.967L153.995,213.267L160.99,212.567L168.005,211.867L175,211.167L181.995,210.467L188.991,209.767L196.005,209.067L203.001,208.367L209.996,207.667L216.992,206.967L224.006,206.267L231.002,205.567L237.997,204.867L244.992,204.167L252.007,203.467L259.002,202.767L265.998,202.067L272.993,201.367L280.008,200.667L287.003,200.9L293.998,201.133L300.994,201.367L308.008,201.6L315.004,201.833L321.999,202.067L328.995,202.3L336.009,202.533L343.005,202.767L350,203" stroke="#36B7B4" stroke-width="2.4"/></g></g><path class="foreground" aria-hidden="true" d="" display="none"/></g></g><g class="mark-text role-mark layer_1_marks" role="graphics-object" aria-roledescription="text mark container"><text aria-label="Max of date: Jan 01, 2075; pct for max date: 48.6; series: Primary spending; series for max date: Primary spending" role="graphics-symbol" aria-roledescription="text mark" text-anchor="start" transform="translate(356,36.66666666666664)" font-family="Circular Std" font-size="12px" font-weight="bold" fill="#E6224B">Primary spending</text><text aria-label="Max of date: Jan 01, 2075; pct for max date: 41.3; series: Primary receipts; series for max date: Primary receipts" role="graphics-symbol" aria-roledescription="text mark" text-anchor="start" transform="translate(356,207.00000000000009)" font-family="Circular Std" font-size="12px" font-weight="bold" fill="#36B7B4">Primary receipts</text></g><g class="mark-group role-title"><g transform="translate(0,301)"><path class="background" aria-hidden="true" d="M0,0h0v0h0Z" pointer-events="none"/><g><g class="mark-text role-title-text" role="graphics-symbol" aria-roledescription="title" aria-label="Title text 'Source: OBR, July 2026 Fiscal Risks and Sustainability report (baseline scenario)'" pointer-events="none"><text text-anchor="start" transform="translate(0,21)" font-family="Circular Std" font-size="11px" font-weight="bold" fill="#676A86" opacity="1">Source: OBR, July 2026 Fiscal Risks and Sustainability report (baseline scenario)</text></g><g class="mark-text role-title-subtitle" role="graphics-symbol" aria-roledescription="subtitle" aria-label="Subtitle text 'Projected UK primary spending and receipts, % of GDP, on unchanged policy.'" pointer-events="none"><text text-anchor="start" transform="translate(0,35)" font-family="Circular Std" font-size="10px" fill="#676A86" opacity="1">Projected UK primary spending and receipts, % of GDP, on unchanged policy.</text></g></g><path class="foreground" aria-hidden="true" d="" pointer-events="none" display="none"/></g></g></g><path class="foreground" aria-hidden="true" d="" display="none"/></g></g></g></svg>