<svg xmlns="http://www.w3.org/2000/svg" xmlns:xlink="http://www.w3.org/1999/xlink" version="1.1" class="marks" width="386" height="364" viewBox="0 0 386 364"><rect width="386" height="364" fill="white"/><g fill="none" stroke-miterlimit="10" transform="translate(29,21)"><g class="mark-group role-frame root" role="graphics-object" aria-roledescription="group mark container"><g transform="translate(0,0)"><path class="background" aria-hidden="true" d="M0.5,0.5h350v280h-350Z"/><g><g class="mark-group role-axis" aria-hidden="true"><g transform="translate(0.5,0.5)"><path class="background" aria-hidden="true" d="M0,0h0v0h0Z" pointer-events="none"/><g><g class="mark-rule role-axis-grid" pointer-events="none"><line transform="translate(0,280)" x2="350" y2="0" stroke="#676A86" stroke-opacity="0.5" stroke-width="1" stroke-dasharray="1,5" opacity="1"/><line transform="translate(0,252)" x2="350" y2="0" stroke="#676A86" stroke-opacity="0.5" stroke-width="1" stroke-dasharray="1,5" opacity="1"/><line transform="translate(0,224)" x2="350" y2="0" stroke="#676A86" stroke-opacity="0.5" stroke-width="1" stroke-dasharray="1,5" opacity="1"/><line transform="translate(0,196)" x2="350" y2="0" stroke="#676A86" stroke-opacity="0.5" stroke-width="1" stroke-dasharray="1,5" opacity="1"/><line transform="translate(0,168)" x2="350" y2="0" stroke="#676A86" stroke-opacity="0.5" stroke-width="1" stroke-dasharray="1,5" opacity="1"/><line transform="translate(0,140)" x2="350" y2="0" stroke="#676A86" stroke-opacity="0.5" stroke-width="1" stroke-dasharray="1,5" opacity="1"/><line transform="translate(0,112)" x2="350" y2="0" stroke="#676A86" stroke-opacity="0.5" stroke-width="1" stroke-dasharray="1,5" opacity="1"/><line transform="translate(0,84)" x2="350" y2="0" stroke="#676A86" stroke-opacity="0.5" stroke-width="1" stroke-dasharray="1,5" opacity="1"/><line transform="translate(0,56)" x2="350" y2="0" stroke="#676A86" stroke-opacity="0.5" stroke-width="1" stroke-dasharray="1,5" opacity="1"/><line transform="translate(0,28)" x2="350" y2="0" stroke="#676A86" stroke-opacity="0.5" stroke-width="1" stroke-dasharray="1,5" opacity="1"/><line transform="translate(0,0)" x2="350" y2="0" stroke="#676A86" stroke-opacity="0.5" stroke-width="1" stroke-dasharray="1,5" opacity="1"/></g></g><path class="foreground" aria-hidden="true" d="" pointer-events="none" display="none"/></g></g><g class="mark-group role-axis" role="graphics-symbol" aria-roledescription="axis" aria-label="X-axis for a time scale with values from 2004 to 2026"><g transform="translate(0.5,280.5)"><path class="background" aria-hidden="true" d="M0,0h0v0h0Z" pointer-events="none"/><g><g class="mark-rule role-axis-tick" pointer-events="none"><line transform="translate(0,0)" x2="0" y2="4" stroke="#676A86" stroke-opacity="0.5" stroke-width="1" opacity="1"/><line transform="translate(31,0)" x2="0" y2="4" stroke="#676A86" stroke-opacity="0.5" stroke-width="1" opacity="1"/><line transform="translate(62,0)" x2="0" y2="4" stroke="#676A86" stroke-opacity="0.5" stroke-width="1" opacity="1"/><line transform="translate(93,0)" x2="0" y2="4" stroke="#676A86" stroke-opacity="0.5" stroke-width="1" opacity="1"/><line transform="translate(124,0)" x2="0" y2="4" stroke="#676A86" stroke-opacity="0.5" stroke-width="1" opacity="1"/><line transform="translate(154,0)" x2="0" y2="4" stroke="#676A86" stroke-opacity="0.5" stroke-width="1" opacity="1"/><line transform="translate(185,0)" x2="0" y2="4" stroke="#676A86" stroke-opacity="0.5" stroke-width="1" opacity="1"/><line transform="translate(216,0)" x2="0" y2="4" stroke="#676A86" stroke-opacity="0.5" stroke-width="1" opacity="1"/><line transform="translate(247,0)" x2="0" y2="4" stroke="#676A86" stroke-opacity="0.5" stroke-width="1" opacity="1"/><line transform="translate(278,0)" x2="0" y2="4" stroke="#676A86" stroke-opacity="0.5" stroke-width="1" opacity="1"/><line transform="translate(309,0)" x2="0" y2="4" stroke="#676A86" stroke-opacity="0.5" stroke-width="1" opacity="1"/><line transform="translate(340,0)" x2="0" y2="4" stroke="#676A86" stroke-opacity="0.5" stroke-width="1" opacity="1"/></g><g class="mark-text role-axis-label" pointer-events="none"><text text-anchor="start" transform="translate(0,15)" font-family="Circular Std" font-size="11px" fill="#676A86" fill-opacity="0.7" opacity="1">2004</text><text text-anchor="middle" transform="translate(30.903490759753595,15)" font-family="Circular Std" font-size="11px" fill="#676A86" fill-opacity="0.7" opacity="0">2006</text><text text-anchor="middle" transform="translate(61.76470588235294,15)" font-family="Circular Std" font-size="11px" fill="#676A86" fill-opacity="0.7" opacity="1">2008</text><text text-anchor="middle" transform="translate(92.66819664210654,15)" font-family="Circular Std" font-size="11px" fill="#676A86" fill-opacity="0.7" opacity="0">2010</text><text text-anchor="middle" transform="translate(123.52941176470588,15)" font-family="Circular Std" font-size="11px" fill="#676A86" fill-opacity="0.7" opacity="1">2012</text><text text-anchor="middle" transform="translate(154.43290252445948,15)" font-family="Circular Std" font-size="11px" fill="#676A86" fill-opacity="0.7" opacity="0">2014</text><text text-anchor="middle" transform="translate(185.2941176470588,15)" font-family="Circular Std" font-size="11px" fill="#676A86" fill-opacity="0.7" opacity="1">2016</text><text text-anchor="middle" transform="translate(216.19760840681244,15)" font-family="Circular Std" font-size="11px" fill="#676A86" fill-opacity="0.7" opacity="0">2018</text><text text-anchor="middle" transform="translate(247.05882352941177,15)" font-family="Circular Std" font-size="11px" fill="#676A86" fill-opacity="0.7" opacity="1">2020</text><text text-anchor="middle" transform="translate(277.96231428916536,15)" font-family="Circular Std" font-size="11px" fill="#676A86" fill-opacity="0.7" opacity="0">2022</text><text text-anchor="middle" transform="translate(308.8235294117647,15)" font-family="Circular Std" font-size="11px" fill="#676A86" fill-opacity="0.7" opacity="1">2024</text><text text-anchor="middle" transform="translate(339.7270201715183,15)" font-family="Circular Std" font-size="11px" fill="#676A86" fill-opacity="0.7" opacity="0">2026</text></g><g class="mark-rule role-axis-domain" pointer-events="none"><line transform="translate(0,0)" x2="350" y2="0" stroke="#676A86" stroke-opacity="0.5" stroke-width="1" opacity="1"/></g></g><path class="foreground" aria-hidden="true" d="" pointer-events="none" display="none"/></g></g><g class="mark-group role-axis" role="graphics-symbol" aria-roledescription="axis" aria-label="Y-axis titled 'Search interest (0–100)' for a linear scale with values from 0 to 100"><g transform="translate(0.5,0.5)"><path class="background" aria-hidden="true" d="M0,0h0v0h0Z" pointer-events="none"/><g><g class="mark-text role-axis-label" pointer-events="none"><text text-anchor="end" transform="translate(-5,283)" font-family="Circular Std" font-size="11px" fill="#676A86" fill-opacity="0.7" opacity="1">0</text><text text-anchor="end" transform="translate(-5,255)" font-family="Circular Std" font-size="11px" fill="#676A86" fill-opacity="0.7" opacity="1">10</text><text text-anchor="end" transform="translate(-5,227)" font-family="Circular Std" font-size="11px" fill="#676A86" fill-opacity="0.7" opacity="1">20</text><text text-anchor="end" transform="translate(-5,199)" font-family="Circular Std" font-size="11px" fill="#676A86" fill-opacity="0.7" opacity="1">30</text><text text-anchor="end" transform="translate(-5,171)" font-family="Circular Std" font-size="11px" fill="#676A86" fill-opacity="0.7" opacity="1">40</text><text text-anchor="end" transform="translate(-5,143)" font-family="Circular Std" font-size="11px" fill="#676A86" fill-opacity="0.7" opacity="1">50</text><text text-anchor="end" transform="translate(-5,115)" font-family="Circular Std" font-size="11px" fill="#676A86" fill-opacity="0.7" opacity="1">60</text><text text-anchor="end" transform="translate(-5,87.00000000000001)" font-family="Circular Std" font-size="11px" fill="#676A86" fill-opacity="0.7" opacity="1">70</text><text text-anchor="end" transform="translate(-5,58.999999999999986)" font-family="Circular Std" font-size="11px" fill="#676A86" fill-opacity="0.7" opacity="1">80</text><text text-anchor="end" transform="translate(-5,30.999999999999993)" font-family="Circular Std" font-size="11px" fill="#676A86" fill-opacity="0.7" opacity="1">90</text><text text-anchor="end" transform="translate(-5,3)" font-family="Circular Std" font-size="11px" fill="#676A86" fill-opacity="0.7" opacity="1">100</text></g><g class="mark-rule role-axis-domain" pointer-events="none"><line transform="translate(0,280)" x2="0" y2="-280" stroke="#676A86" stroke-opacity="0.5" stroke-width="1" opacity="1"/></g><g class="mark-text role-axis-title" pointer-events="none"><text text-anchor="start" transform="translate(0,-7)" font-family="Circular Std" font-size="11px" font-weight="bold" fill="#676A86" fill-opacity="0.8" opacity="1">Search interest (0–100)</text></g></g><path class="foreground" aria-hidden="true" d="" pointer-events="none" display="none"/></g></g><g class="mark-group role-scope pathgroup" role="graphics-object" aria-roledescription="group mark container"><g transform="translate(0,0)"><path class="background" aria-hidden="true" d="M0,0h350v280h-350Z"/><g><g class="mark-line role-mark marks" role="graphics-object" aria-roledescription="line mark container"><path aria-label="date: 2004; Search interest (0–100): 0; series: search" role="graphics-symbol" aria-roledescription="line mark" d="M0,280L1.311,280L2.537,280L3.847,280L5.115,280L6.426,280L7.694,280L9.005,280L10.315,218.4L11.584,218.4L12.894,280L14.162,280L15.473,229.6L16.783,280L17.967,238L19.278,280L20.546,280L21.857,243.6L23.125,280L24.435,280L25.746,235.2L27.014,280L28.325,243.6L29.593,249.2L30.903,235.2L32.214,210L33.398,235.2L34.708,229.6L35.977,252L37.287,246.4L38.555,218.4L39.866,224L41.176,240.8L42.445,204.4L43.755,235.2L45.024,240.8L46.334,221.2L47.645,215.6L48.828,235.2L50.139,232.4L51.407,254.8L52.718,249.2L53.986,240.8L55.297,226.8L56.607,243.6L57.875,232.4L59.186,240.8L60.454,240.8L61.765,232.4L63.075,221.2L64.301,224L65.612,224L66.88,232.4L68.191,240.8L69.459,238L70.769,246.4L72.08,201.6L73.348,204.4L74.659,210L75.927,235.2L77.238,198.8L78.548,210L79.732,193.2L81.042,196L82.311,221.2L83.621,204.4L84.889,210L86.2,207.2L87.511,193.2L88.779,198.8L90.089,196L91.358,224L92.668,196L93.979,165.2L95.162,159.6L96.473,168L97.741,145.6L99.052,193.2L100.32,212.8L101.631,207.2L102.941,204.4L104.209,198.8L105.52,193.2L106.788,226.8L108.099,193.2L109.409,137.2L110.593,126L111.904,198.8L113.172,207.2L114.482,190.4L115.751,184.8L117.061,187.6L118.372,201.6L119.64,198.8L120.951,162.4L122.219,210L123.529,184.8L124.84,198.8L126.066,207.2L127.376,221.2L128.645,201.6L129.955,215.6L131.224,224L132.534,224L133.845,215.6L135.113,212.8L136.423,201.6L137.692,226.8L139.002,201.6L140.313,196L141.497,193.2L142.807,201.6L144.075,226.8L145.386,215.6L146.654,232.4L147.965,224L149.275,226.8L150.544,184.8L151.854,212.8L153.122,224L154.433,201.6L155.743,212.8L156.927,201.6L158.238,215.6L159.506,226.8L160.817,226.8L162.085,226.8L163.395,238L164.706,226.8L165.974,215.6L167.285,212.8L168.553,221.2L169.864,210L171.174,218.4L172.358,198.8L173.668,196L174.937,210L176.247,215.6L177.515,218.4L178.826,235.2L180.136,229.6L181.405,224L182.715,218.4L183.984,238L185.294,224L186.605,212.8L187.831,212.8L189.141,221.2L190.409,224L191.72,224L192.988,226.8L194.299,224L195.609,218.4L196.878,218.4L198.188,210L199.456,235.2L200.767,221.2L202.078,210L203.261,207.2L204.572,212.8L205.84,179.2L207.151,184.8L208.419,224L209.729,235.2L211.04,229.6L212.308,226.8L213.619,218.4L214.887,240.8L216.198,226.8L217.508,224L218.692,229.6L220.002,226.8L221.271,229.6L222.581,235.2L223.849,240.8L225.16,232.4L226.471,226.8L227.739,218.4L229.049,212.8L230.318,238L231.628,221.2L232.939,224L234.122,226.8L235.433,226.8L236.701,229.6L238.012,235.2L239.28,235.2L240.591,232.4L241.901,238L243.169,232.4L244.48,193.2L245.748,212.8L247.059,226.8L248.369,226.8L249.595,210L250.906,193.2L252.174,207.2L253.485,215.6L254.753,221.2L256.064,224L257.374,221.2L258.642,215.6L259.953,215.6L261.221,238L262.532,221.2L263.842,224L265.026,207.2L266.337,235.2L267.605,238L268.915,238L270.184,240.8L271.494,246.4L272.805,232.4L274.073,218.4L275.384,229.6L276.652,240.8L277.962,221.2L279.273,218.4L280.457,207.2L281.767,224L283.035,215.6L284.346,215.6L285.614,218.4L286.925,226.8L288.235,190.4L289.504,187.6L290.814,212.8L292.082,235.2L293.393,190.4L294.703,221.2L295.887,221.2L297.198,224L298.466,173.6L299.777,226.8L301.045,235.2L302.355,238L303.666,229.6L304.934,224L306.245,224L307.513,240.8L308.824,224L310.134,215.6L311.36,212.8L312.671,212.8L313.939,224L315.249,218.4L316.518,226.8L317.828,240.8L319.139,221.2L320.407,215.6L321.718,215.6L322.986,232.4L324.296,207.2L325.607,221.2L326.791,207.2L328.101,212.8L329.369,224L330.68,215.6L331.948,215.6L333.259,210L334.569,196L335.838,201.6L337.148,128.8L338.416,154L339.727,137.2L341.038,106.4L342.221,145.6L343.532,89.6L344.8,148.4L346.111,170.8L347.379,86.8L348.689,14L350,0" stroke="#36B7B4" stroke-width="1.8"/></g></g><path class="foreground" aria-hidden="true" d="" display="none"/></g></g><g class="mark-group role-title"><g transform="translate(0,301)"><path class="background" aria-hidden="true" d="M0,0h0v0h0Z" pointer-events="none"/><g><g class="mark-text role-title-text" role="graphics-symbol" aria-roledescription="title" aria-label="Title text 'Source: Google Trends'" pointer-events="none"><text text-anchor="start" transform="translate(0,21)" font-family="Circular Std" font-size="11px" font-weight="bold" fill="#676A86" opacity="1">Source: Google Trends</text></g><g class="mark-text role-title-subtitle" role="graphics-symbol" aria-roledescription="subtitle" aria-label="Subtitle text 'UK search interest for the term. 100 = peak over 2004–2026.'" pointer-events="none"><text text-anchor="start" transform="translate(0,35)" font-family="Circular Std" font-size="10px" fill="#676A86" opacity="1">UK search interest for the term. 100 = peak over 2004–2026.</text></g></g><path class="foreground" aria-hidden="true" d="" pointer-events="none" display="none"/></g></g></g><path class="foreground" aria-hidden="true" d="" display="none"/></g></g></g></svg>