<svg xmlns="http://www.w3.org/2000/svg" xmlns:xlink="http://www.w3.org/1999/xlink" version="1.1" class="marks" width="734" height="348" viewBox="0 0 734 348"><rect width="734" height="348" fill="white"/><g fill="none" stroke-miterlimit="10" transform="translate(192,0)"><g class="mark-group role-frame root" role="graphics-object" aria-roledescription="group mark container"><g transform="translate(0,0)"><path class="background" aria-hidden="true" d="M0.5,0.5h350v280h-350Z"/><g><g class="mark-group role-axis" role="graphics-symbol" aria-roledescription="axis" aria-label="X-axis for a discrete scale with 2 values: Perceived, Actual"><g transform="translate(0.5,280.5)"><path class="background" aria-hidden="true" d="M0,0h0v0h0Z" pointer-events="none"/><g><g class="mark-text role-axis-label" pointer-events="none"><text text-anchor="middle" transform="translate(77.77777777777779,12)" font-family="Circular Std" font-size="13px" font-weight="bold" fill="#676A86" fill-opacity="0.7" opacity="1">Perceived</text><text text-anchor="middle" transform="translate(272.22222222222223,12)" font-family="Circular Std" font-size="13px" font-weight="bold" fill="#676A86" fill-opacity="0.7" opacity="1">Actual</text></g></g><path class="foreground" aria-hidden="true" d="" pointer-events="none" display="none"/></g></g><g class="mark-group role-scope layer_0_pathgroup" role="graphics-object" aria-roledescription="group mark container"><g transform="translate(0,0)"><path class="background" aria-hidden="true" d="M0,0h350v280h-350Z"/><g><g class="mark-line role-mark layer_0_marks" role="graphics-object" aria-roledescription="line mark container"><path aria-label="type: Perceived; rank: 1; area: Debt interest" role="graphics-symbol" aria-roledescription="line mark" d="M77.778,12.727L272.222,114.545" stroke="#E6224B" stroke-width="3"/></g></g><path class="foreground" aria-hidden="true" d="" display="none"/></g><g transform="translate(0,0)"><path class="background" aria-hidden="true" d="M0,0h350v280h-350Z"/><g><g class="mark-line role-mark layer_0_marks" role="graphics-object" aria-roledescription="line mark container"><path aria-label="type: Perceived; rank: 2; area: NHS and health" role="graphics-symbol" aria-roledescription="line mark" d="M77.778,38.182L272.222,38.182" stroke="#c9cdd6" stroke-width="1.5"/></g></g><path class="foreground" aria-hidden="true" d="" display="none"/></g><g transform="translate(0,0)"><path class="background" aria-hidden="true" d="M0,0h350v280h-350Z"/><g><g class="mark-line role-mark layer_0_marks" role="graphics-object" aria-roledescription="line mark container"><path aria-label="type: Perceived; rank: 3; area: Working-age benefits" role="graphics-symbol" aria-roledescription="line mark" d="M77.778,63.636L272.222,12.727" stroke="#c9cdd6" stroke-width="1.5"/></g></g><path class="foreground" aria-hidden="true" d="" display="none"/></g><g transform="translate(0,0)"><path class="background" aria-hidden="true" d="M0,0h350v280h-350Z"/><g><g class="mark-line role-mark layer_0_marks" role="graphics-object" aria-roledescription="line mark container"><path aria-label="type: Perceived; rank: 4; area: Public order &amp; safety" role="graphics-symbol" aria-roledescription="line mark" d="M77.778,89.091L272.222,165.455" stroke="#c9cdd6" stroke-width="1.5"/></g></g><path class="foreground" aria-hidden="true" d="" display="none"/></g><g transform="translate(0,0)"><path class="background" aria-hidden="true" d="M0,0h350v280h-350Z"/><g><g class="mark-line role-mark layer_0_marks" role="graphics-object" aria-roledescription="line mark container"><path aria-label="type: Perceived; rank: 5; area: Defence" role="graphics-symbol" aria-roledescription="line mark" d="M77.778,114.545L272.222,140" stroke="#c9cdd6" stroke-width="1.5"/></g></g><path class="foreground" aria-hidden="true" d="" display="none"/></g><g transform="translate(0,0)"><path class="background" aria-hidden="true" d="M0,0h350v280h-350Z"/><g><g class="mark-line role-mark layer_0_marks" role="graphics-object" aria-roledescription="line mark container"><path aria-label="type: Perceived; rank: 6; area: State pension" role="graphics-symbol" aria-roledescription="line mark" d="M77.778,140L272.222,63.636" stroke="#c9cdd6" stroke-width="1.5"/></g></g><path class="foreground" aria-hidden="true" d="" display="none"/></g><g transform="translate(0,0)"><path class="background" aria-hidden="true" d="M0,0h350v280h-350Z"/><g><g class="mark-line role-mark layer_0_marks" role="graphics-object" aria-roledescription="line mark container"><path aria-label="type: Perceived; rank: 7; area: Education" role="graphics-symbol" aria-roledescription="line mark" d="M77.778,165.455L272.222,89.091" stroke="#c9cdd6" stroke-width="1.5"/></g></g><path class="foreground" aria-hidden="true" d="" display="none"/></g><g transform="translate(0,0)"><path class="background" aria-hidden="true" d="M0,0h350v280h-350Z"/><g><g class="mark-line role-mark layer_0_marks" role="graphics-object" aria-roledescription="line mark container"><path aria-label="type: Perceived; rank: 8; area: Social care" role="graphics-symbol" aria-roledescription="line mark" d="M77.778,190.909L272.222,190.909" stroke="#c9cdd6" stroke-width="1.5"/></g></g><path class="foreground" aria-hidden="true" d="" display="none"/></g><g transform="translate(0,0)"><path class="background" aria-hidden="true" d="M0,0h350v280h-350Z"/><g><g class="mark-line role-mark layer_0_marks" role="graphics-object" aria-roledescription="line mark container"><path aria-label="type: Perceived; rank: 9; area: Overseas aid" role="graphics-symbol" aria-roledescription="line mark" d="M77.778,216.364L272.222,267.273" stroke="#c9cdd6" stroke-width="1.5"/></g></g><path class="foreground" aria-hidden="true" d="" display="none"/></g><g transform="translate(0,0)"><path class="background" aria-hidden="true" d="M0,0h350v280h-350Z"/><g><g class="mark-line role-mark layer_0_marks" role="graphics-object" aria-roledescription="line mark container"><path aria-label="type: Perceived; rank: 10; area: Housing" role="graphics-symbol" aria-roledescription="line mark" d="M77.778,241.818L272.222,241.818" stroke="#c9cdd6" stroke-width="1.5"/></g></g><path class="foreground" aria-hidden="true" d="" display="none"/></g><g transform="translate(0,0)"><path class="background" aria-hidden="true" d="M0,0h350v280h-350Z"/><g><g class="mark-line role-mark layer_0_marks" role="graphics-object" aria-roledescription="line mark container"><path aria-label="type: Perceived; rank: 11; area: Transport" role="graphics-symbol" aria-roledescription="line mark" d="M77.778,267.273L272.222,216.364" stroke="#c9cdd6" stroke-width="1.5"/></g></g><path class="foreground" aria-hidden="true" d="" display="none"/></g></g><g class="mark-symbol role-mark layer_1_marks" role="graphics-object" aria-roledescription="symbol mark container"><path aria-label="type: Perceived; rank: 1" role="graphics-symbol" aria-roledescription="circle" transform="translate(77.77777777777779,12.727272727272728)" d="M4.183,0A4.183,4.183,0,1,1,-4.183,0A4.183,4.183,0,1,1,4.183,0" fill="#E6224B" stroke-width="2" opacity="0.7"/><path aria-label="type: Perceived; rank: 2" role="graphics-symbol" aria-roledescription="circle" transform="translate(77.77777777777779,38.18181818181818)" d="M4.183,0A4.183,4.183,0,1,1,-4.183,0A4.183,4.183,0,1,1,4.183,0" fill="#c9cdd6" stroke-width="2" opacity="0.7"/><path aria-label="type: Perceived; rank: 3" role="graphics-symbol" aria-roledescription="circle" transform="translate(77.77777777777779,63.63636363636363)" d="M4.183,0A4.183,4.183,0,1,1,-4.183,0A4.183,4.183,0,1,1,4.183,0" fill="#c9cdd6" stroke-width="2" opacity="0.7"/><path aria-label="type: Perceived; rank: 4" role="graphics-symbol" aria-roledescription="circle" transform="translate(77.77777777777779,89.0909090909091)" d="M4.183,0A4.183,4.183,0,1,1,-4.183,0A4.183,4.183,0,1,1,4.183,0" fill="#c9cdd6" stroke-width="2" opacity="0.7"/><path aria-label="type: Perceived; rank: 5" role="graphics-symbol" aria-roledescription="circle" transform="translate(77.77777777777779,114.54545454545455)" d="M4.183,0A4.183,4.183,0,1,1,-4.183,0A4.183,4.183,0,1,1,4.183,0" fill="#c9cdd6" stroke-width="2" opacity="0.7"/><path aria-label="type: Perceived; rank: 6" role="graphics-symbol" aria-roledescription="circle" transform="translate(77.77777777777779,140)" d="M4.183,0A4.183,4.183,0,1,1,-4.183,0A4.183,4.183,0,1,1,4.183,0" fill="#c9cdd6" stroke-width="2" opacity="0.7"/><path aria-label="type: Perceived; rank: 7" role="graphics-symbol" aria-roledescription="circle" transform="translate(77.77777777777779,165.45454545454547)" d="M4.183,0A4.183,4.183,0,1,1,-4.183,0A4.183,4.183,0,1,1,4.183,0" fill="#c9cdd6" stroke-width="2" opacity="0.7"/><path aria-label="type: Perceived; rank: 8" role="graphics-symbol" aria-roledescription="circle" transform="translate(77.77777777777779,190.9090909090909)" d="M4.183,0A4.183,4.183,0,1,1,-4.183,0A4.183,4.183,0,1,1,4.183,0" fill="#c9cdd6" stroke-width="2" opacity="0.7"/><path aria-label="type: Perceived; rank: 9" role="graphics-symbol" aria-roledescription="circle" transform="translate(77.77777777777779,216.36363636363635)" d="M4.183,0A4.183,4.183,0,1,1,-4.183,0A4.183,4.183,0,1,1,4.183,0" fill="#c9cdd6" stroke-width="2" opacity="0.7"/><path aria-label="type: Perceived; rank: 10" role="graphics-symbol" aria-roledescription="circle" transform="translate(77.77777777777779,241.8181818181818)" d="M4.183,0A4.183,4.183,0,1,1,-4.183,0A4.183,4.183,0,1,1,4.183,0" fill="#c9cdd6" stroke-width="2" opacity="0.7"/><path aria-label="type: Perceived; rank: 11" role="graphics-symbol" aria-roledescription="circle" transform="translate(77.77777777777779,267.2727272727273)" d="M4.183,0A4.183,4.183,0,1,1,-4.183,0A4.183,4.183,0,1,1,4.183,0" fill="#c9cdd6" stroke-width="2" opacity="0.7"/><path aria-label="type: Actual; rank: 5" role="graphics-symbol" aria-roledescription="circle" transform="translate(272.22222222222223,114.54545454545455)" d="M4.183,0A4.183,4.183,0,1,1,-4.183,0A4.183,4.183,0,1,1,4.183,0" fill="#E6224B" stroke-width="2" opacity="0.7"/><path aria-label="type: Actual; rank: 2" role="graphics-symbol" aria-roledescription="circle" transform="translate(272.22222222222223,38.18181818181818)" d="M4.183,0A4.183,4.183,0,1,1,-4.183,0A4.183,4.183,0,1,1,4.183,0" fill="#c9cdd6" stroke-width="2" opacity="0.7"/><path aria-label="type: Actual; rank: 1" role="graphics-symbol" aria-roledescription="circle" transform="translate(272.22222222222223,12.727272727272728)" d="M4.183,0A4.183,4.183,0,1,1,-4.183,0A4.183,4.183,0,1,1,4.183,0" fill="#c9cdd6" stroke-width="2" opacity="0.7"/><path aria-label="type: Actual; rank: 7" role="graphics-symbol" aria-roledescription="circle" transform="translate(272.22222222222223,165.45454545454547)" d="M4.183,0A4.183,4.183,0,1,1,-4.183,0A4.183,4.183,0,1,1,4.183,0" fill="#c9cdd6" stroke-width="2" opacity="0.7"/><path aria-label="type: Actual; rank: 6" role="graphics-symbol" aria-roledescription="circle" transform="translate(272.22222222222223,140)" d="M4.183,0A4.183,4.183,0,1,1,-4.183,0A4.183,4.183,0,1,1,4.183,0" fill="#c9cdd6" stroke-width="2" opacity="0.7"/><path aria-label="type: Actual; rank: 3" role="graphics-symbol" aria-roledescription="circle" transform="translate(272.22222222222223,63.63636363636363)" d="M4.183,0A4.183,4.183,0,1,1,-4.183,0A4.183,4.183,0,1,1,4.183,0" fill="#c9cdd6" stroke-width="2" opacity="0.7"/><path aria-label="type: Actual; rank: 4" role="graphics-symbol" aria-roledescription="circle" transform="translate(272.22222222222223,89.0909090909091)" d="M4.183,0A4.183,4.183,0,1,1,-4.183,0A4.183,4.183,0,1,1,4.183,0" fill="#c9cdd6" stroke-width="2" opacity="0.7"/><path aria-label="type: Actual; rank: 8" role="graphics-symbol" aria-roledescription="circle" transform="translate(272.22222222222223,190.9090909090909)" d="M4.183,0A4.183,4.183,0,1,1,-4.183,0A4.183,4.183,0,1,1,4.183,0" fill="#c9cdd6" stroke-width="2" opacity="0.7"/><path aria-label="type: Actual; rank: 11" role="graphics-symbol" aria-roledescription="circle" transform="translate(272.22222222222223,267.2727272727273)" d="M4.183,0A4.183,4.183,0,1,1,-4.183,0A4.183,4.183,0,1,1,4.183,0" fill="#c9cdd6" stroke-width="2" opacity="0.7"/><path aria-label="type: Actual; rank: 10" role="graphics-symbol" aria-roledescription="circle" transform="translate(272.22222222222223,241.8181818181818)" d="M4.183,0A4.183,4.183,0,1,1,-4.183,0A4.183,4.183,0,1,1,4.183,0" fill="#c9cdd6" stroke-width="2" opacity="0.7"/><path aria-label="type: Actual; rank: 9" role="graphics-symbol" aria-roledescription="circle" transform="translate(272.22222222222223,216.36363636363635)" d="M4.183,0A4.183,4.183,0,1,1,-4.183,0A4.183,4.183,0,1,1,4.183,0" fill="#c9cdd6" stroke-width="2" opacity="0.7"/></g><g class="mark-text role-mark layer_2_marks" role="graphics-object" aria-roledescription="text mark container"><text aria-label="type: Perceived; rank: 1; area: Debt interest" role="graphics-symbol" aria-roledescription="text mark" text-anchor="end" transform="translate(67.77777777777779,15.727272727272728)" font-family="Circular Std" font-size="11px" fill="#E6224B">Debt interest</text><text aria-label="type: Perceived; rank: 2; area: NHS and health" role="graphics-symbol" aria-roledescription="text mark" text-anchor="end" transform="translate(67.77777777777779,41.18181818181818)" font-family="Circular Std" font-size="11px" fill="#676A86">NHS and health</text><text aria-label="type: Perceived; rank: 3; area: Working-age benefits" role="graphics-symbol" aria-roledescription="text mark" text-anchor="end" transform="translate(67.77777777777779,66.63636363636363)" font-family="Circular Std" font-size="11px" fill="#676A86">Working-age benefits</text><text aria-label="type: Perceived; rank: 4; area: Public order &amp; safety" role="graphics-symbol" aria-roledescription="text mark" text-anchor="end" transform="translate(67.77777777777779,92.0909090909091)" font-family="Circular Std" font-size="11px" fill="#676A86">Public order &amp; safety</text><text aria-label="type: Perceived; rank: 5; area: Defence" role="graphics-symbol" aria-roledescription="text mark" text-anchor="end" transform="translate(67.77777777777779,117.54545454545455)" font-family="Circular Std" font-size="11px" fill="#676A86">Defence</text><text aria-label="type: Perceived; rank: 6; area: State pension" role="graphics-symbol" aria-roledescription="text mark" text-anchor="end" transform="translate(67.77777777777779,143)" font-family="Circular Std" font-size="11px" fill="#676A86">State pension</text><text aria-label="type: Perceived; rank: 7; area: Education" role="graphics-symbol" aria-roledescription="text mark" text-anchor="end" transform="translate(67.77777777777779,168.45454545454547)" font-family="Circular Std" font-size="11px" fill="#676A86">Education</text><text aria-label="type: Perceived; rank: 8; area: Social care" role="graphics-symbol" aria-roledescription="text mark" text-anchor="end" transform="translate(67.77777777777779,193.9090909090909)" font-family="Circular Std" font-size="11px" fill="#676A86">Social care</text><text aria-label="type: Perceived; rank: 9; area: Overseas aid" role="graphics-symbol" aria-roledescription="text mark" text-anchor="end" transform="translate(67.77777777777779,219.36363636363635)" font-family="Circular Std" font-size="11px" fill="#676A86">Overseas aid</text><text aria-label="type: Perceived; rank: 10; area: Housing" role="graphics-symbol" aria-roledescription="text mark" text-anchor="end" transform="translate(67.77777777777779,244.8181818181818)" font-family="Circular Std" font-size="11px" fill="#676A86">Housing</text><text aria-label="type: Perceived; rank: 11; area: Transport" role="graphics-symbol" aria-roledescription="text mark" text-anchor="end" transform="translate(67.77777777777779,270.2727272727273)" font-family="Circular Std" font-size="11px" fill="#676A86">Transport</text></g><g class="mark-text role-mark layer_3_marks" role="graphics-object" aria-roledescription="text mark container"><text aria-label="type: Actual; rank: 5; area: Debt interest" role="graphics-symbol" aria-roledescription="text mark" text-anchor="start" transform="translate(282.22222222222223,117.54545454545455)" font-family="Circular Std" font-size="11px" fill="#E6224B">Debt interest</text><text aria-label="type: Actual; rank: 2; area: NHS and health" role="graphics-symbol" aria-roledescription="text mark" text-anchor="start" transform="translate(282.22222222222223,41.18181818181818)" font-family="Circular Std" font-size="11px" fill="#676A86">NHS and health</text><text aria-label="type: Actual; rank: 1; area: Working-age benefits" role="graphics-symbol" aria-roledescription="text mark" text-anchor="start" transform="translate(282.22222222222223,15.727272727272728)" font-family="Circular Std" font-size="11px" fill="#676A86">Working-age benefits</text><text aria-label="type: Actual; rank: 7; area: Public order &amp; safety" role="graphics-symbol" aria-roledescription="text mark" text-anchor="start" transform="translate(282.22222222222223,168.45454545454547)" font-family="Circular Std" font-size="11px" fill="#676A86">Public order &amp; safety</text><text aria-label="type: Actual; rank: 6; area: Defence" role="graphics-symbol" aria-roledescription="text mark" text-anchor="start" transform="translate(282.22222222222223,143)" font-family="Circular Std" font-size="11px" fill="#676A86">Defence</text><text aria-label="type: Actual; rank: 3; area: State pension" role="graphics-symbol" aria-roledescription="text mark" text-anchor="start" transform="translate(282.22222222222223,66.63636363636363)" font-family="Circular Std" font-size="11px" fill="#676A86">State pension</text><text aria-label="type: Actual; rank: 4; area: Education" role="graphics-symbol" aria-roledescription="text mark" text-anchor="start" transform="translate(282.22222222222223,92.0909090909091)" font-family="Circular Std" font-size="11px" fill="#676A86">Education</text><text aria-label="type: Actual; rank: 8; area: Social care" role="graphics-symbol" aria-roledescription="text mark" text-anchor="start" transform="translate(282.22222222222223,193.9090909090909)" font-family="Circular Std" font-size="11px" fill="#676A86">Social care</text><text aria-label="type: Actual; rank: 11; area: Overseas aid" role="graphics-symbol" aria-roledescription="text mark" text-anchor="start" transform="translate(282.22222222222223,270.2727272727273)" font-family="Circular Std" font-size="11px" fill="#676A86">Overseas aid</text><text aria-label="type: Actual; rank: 10; area: Housing" role="graphics-symbol" aria-roledescription="text mark" text-anchor="start" transform="translate(282.22222222222223,244.8181818181818)" font-family="Circular Std" font-size="11px" fill="#676A86">Housing</text><text aria-label="type: Actual; rank: 9; area: Transport" role="graphics-symbol" aria-roledescription="text mark" text-anchor="start" transform="translate(282.22222222222223,219.36363636363635)" font-family="Circular Std" font-size="11px" fill="#676A86">Transport</text></g><g class="mark-group role-title"><g transform="translate(0,299)"><path class="background" aria-hidden="true" d="M0,0h0v0h0Z" pointer-events="none"/><g><g class="mark-text role-title-text" role="graphics-symbol" aria-roledescription="title" aria-label="Title text 'Source: YouGov conjoint (Nov 2025, n=4,197); PESA 2024-25'" pointer-events="none"><text text-anchor="start" transform="translate(0,21)" font-family="Circular Std" font-size="11px" font-weight="bold" fill="#676A86" opacity="1">Source: YouGov conjoint (Nov 2025, n=4,197); PESA 2024-25</text></g><g class="mark-text role-title-subtitle" role="graphics-symbol" aria-roledescription="subtitle" aria-label="Subtitle text 'Where the public ranks each area for spending vs where it actually ranks. Debt interest: ranked 1st for spending, but only 5th in reality.'" pointer-events="none"><text text-anchor="start" transform="translate(0,35)" font-family="Circular Std" font-size="10px" fill="#676A86" opacity="1"><tspan>Where the public ranks each area for spending vs where it actually ranks.</tspan><tspan x="0" dy="12">Debt interest: ranked 1st for spending, but only 5th in reality.</tspan></text></g></g><path class="foreground" aria-hidden="true" d="" pointer-events="none" display="none"/></g></g></g><path class="foreground" aria-hidden="true" d="" display="none"/></g></g></g></svg>