<svg xmlns="http://www.w3.org/2000/svg" xmlns:xlink="http://www.w3.org/1999/xlink" version="1.1" class="marks" width="539" height="375" viewBox="0 0 539 375"><rect width="539" height="375" fill="white"/><g fill="none" stroke-miterlimit="10" transform="translate(183,5)"><g class="mark-group role-frame root" role="graphics-object" aria-roledescription="group mark container"><g transform="translate(0,0)"><path class="background" aria-hidden="true" d="M0.5,0.5h350v280h-350Z"/><g><g class="mark-group role-axis" aria-hidden="true"><g transform="translate(0.5,280.5)"><path class="background" aria-hidden="true" d="M0,0h0v0h0Z" pointer-events="none"/><g><g class="mark-rule role-axis-grid" pointer-events="none"><line transform="translate(0,0)" x2="0" y2="-280" stroke="#e5e7eb" stroke-opacity="0.5" stroke-width="1" stroke-dasharray="2,2" opacity="1"/><line transform="translate(29,0)" x2="0" y2="-280" stroke="#e5e7eb" stroke-opacity="0.5" stroke-width="1" stroke-dasharray="2,2" opacity="1"/><line transform="translate(58,0)" x2="0" y2="-280" stroke="#e5e7eb" stroke-opacity="0.5" stroke-width="1" stroke-dasharray="2,2" opacity="1"/><line transform="translate(88,0)" x2="0" y2="-280" stroke="#e5e7eb" stroke-opacity="0.5" stroke-width="1" stroke-dasharray="2,2" opacity="1"/><line transform="translate(117,0)" x2="0" y2="-280" stroke="#e5e7eb" stroke-opacity="0.5" stroke-width="1" stroke-dasharray="2,2" opacity="1"/><line transform="translate(146,0)" x2="0" y2="-280" stroke="#e5e7eb" stroke-opacity="0.5" stroke-width="1" stroke-dasharray="2,2" opacity="1"/><line transform="translate(175,0)" x2="0" y2="-280" stroke="#e5e7eb" stroke-opacity="0.5" stroke-width="1" stroke-dasharray="2,2" opacity="1"/><line transform="translate(204,0)" x2="0" y2="-280" stroke="#e5e7eb" stroke-opacity="0.5" stroke-width="1" stroke-dasharray="2,2" opacity="1"/><line transform="translate(233,0)" x2="0" y2="-280" stroke="#e5e7eb" stroke-opacity="0.5" stroke-width="1" stroke-dasharray="2,2" opacity="1"/><line transform="translate(263,0)" x2="0" y2="-280" stroke="#e5e7eb" stroke-opacity="0.5" stroke-width="1" stroke-dasharray="2,2" opacity="1"/><line transform="translate(292,0)" x2="0" y2="-280" stroke="#e5e7eb" stroke-opacity="0.5" stroke-width="1" stroke-dasharray="2,2" opacity="1"/><line transform="translate(321,0)" x2="0" y2="-280" stroke="#e5e7eb" stroke-opacity="0.5" stroke-width="1" stroke-dasharray="2,2" opacity="1"/><line transform="translate(350,0)" x2="0" y2="-280" stroke="#e5e7eb" stroke-opacity="0.5" stroke-width="1" stroke-dasharray="2,2" opacity="1"/></g></g><path class="foreground" aria-hidden="true" d="" pointer-events="none" display="none"/></g></g><g class="mark-group role-axis" role="graphics-symbol" aria-roledescription="axis" aria-label="X-axis titled 'Net agreement (% agree − % disagree)' for a linear scale with values from 0 to 60"><g transform="translate(0.5,280.5)"><path class="background" aria-hidden="true" d="M0,0h0v0h0Z" pointer-events="none"/><g><g class="mark-rule role-axis-tick" pointer-events="none"><line transform="translate(0,0)" x2="0" y2="4" stroke="#676A86" stroke-opacity="0.5" stroke-width="1" opacity="1"/><line transform="translate(29,0)" x2="0" y2="4" stroke="#676A86" stroke-opacity="0.5" stroke-width="1" opacity="1"/><line transform="translate(58,0)" x2="0" y2="4" stroke="#676A86" stroke-opacity="0.5" stroke-width="1" opacity="1"/><line transform="translate(88,0)" x2="0" y2="4" stroke="#676A86" stroke-opacity="0.5" stroke-width="1" opacity="1"/><line transform="translate(117,0)" x2="0" y2="4" stroke="#676A86" stroke-opacity="0.5" stroke-width="1" opacity="1"/><line transform="translate(146,0)" x2="0" y2="4" stroke="#676A86" stroke-opacity="0.5" stroke-width="1" opacity="1"/><line transform="translate(175,0)" x2="0" y2="4" stroke="#676A86" stroke-opacity="0.5" stroke-width="1" opacity="1"/><line transform="translate(204,0)" x2="0" y2="4" stroke="#676A86" stroke-opacity="0.5" stroke-width="1" opacity="1"/><line transform="translate(233,0)" x2="0" y2="4" stroke="#676A86" stroke-opacity="0.5" stroke-width="1" opacity="1"/><line transform="translate(263,0)" x2="0" y2="4" stroke="#676A86" stroke-opacity="0.5" stroke-width="1" opacity="1"/><line transform="translate(292,0)" x2="0" y2="4" stroke="#676A86" stroke-opacity="0.5" stroke-width="1" opacity="1"/><line transform="translate(321,0)" x2="0" y2="4" stroke="#676A86" stroke-opacity="0.5" stroke-width="1" opacity="1"/><line transform="translate(350,0)" x2="0" y2="4" stroke="#676A86" stroke-opacity="0.5" stroke-width="1" opacity="1"/></g><g class="mark-text role-axis-label" pointer-events="none"><text text-anchor="start" transform="translate(0,15)" font-family="Circular Std" font-size="11px" fill="#676A86" fill-opacity="0.7" opacity="1">0</text><text text-anchor="middle" transform="translate(29.166666666666664,15)" font-family="Circular Std" font-size="11px" fill="#676A86" fill-opacity="0.7" opacity="1">5</text><text text-anchor="middle" transform="translate(58.33333333333333,15)" font-family="Circular Std" font-size="11px" fill="#676A86" fill-opacity="0.7" opacity="1">10</text><text text-anchor="middle" transform="translate(87.5,15)" font-family="Circular Std" font-size="11px" fill="#676A86" fill-opacity="0.7" opacity="1">15</text><text text-anchor="middle" transform="translate(116.66666666666666,15)" font-family="Circular Std" font-size="11px" fill="#676A86" fill-opacity="0.7" opacity="1">20</text><text text-anchor="middle" transform="translate(145.83333333333334,15)" font-family="Circular Std" font-size="11px" fill="#676A86" fill-opacity="0.7" opacity="1">25</text><text text-anchor="middle" transform="translate(175,15)" font-family="Circular Std" font-size="11px" fill="#676A86" fill-opacity="0.7" opacity="1">30</text><text text-anchor="middle" transform="translate(204.16666666666669,15)" font-family="Circular Std" font-size="11px" fill="#676A86" fill-opacity="0.7" opacity="1">35</text><text text-anchor="middle" transform="translate(233.33333333333331,15)" font-family="Circular Std" font-size="11px" fill="#676A86" fill-opacity="0.7" opacity="1">40</text><text text-anchor="middle" transform="translate(262.5,15)" font-family="Circular Std" font-size="11px" fill="#676A86" fill-opacity="0.7" opacity="1">45</text><text text-anchor="middle" transform="translate(291.6666666666667,15)" font-family="Circular Std" font-size="11px" fill="#676A86" fill-opacity="0.7" opacity="1">50</text><text text-anchor="middle" transform="translate(320.8333333333333,15)" font-family="Circular Std" font-size="11px" fill="#676A86" fill-opacity="0.7" opacity="1">55</text><text text-anchor="end" transform="translate(350,15)" font-family="Circular Std" font-size="11px" fill="#676A86" fill-opacity="0.7" opacity="1">60</text></g><g class="mark-rule role-axis-domain" pointer-events="none"><line transform="translate(0,0)" x2="350" y2="0" stroke="#cbd5e1" stroke-opacity="0.5" stroke-width="1" opacity="1"/></g><g class="mark-text role-axis-title" pointer-events="none"><text text-anchor="middle" transform="translate(175,30)" font-family="Circular Std" font-size="11px" font-weight="bold" fill="#676A86" fill-opacity="0.8" opacity="1">Net agreement (% agree − % disagree)</text></g></g><path class="foreground" aria-hidden="true" d="" pointer-events="none" display="none"/></g></g><g class="mark-group role-axis" role="graphics-symbol" aria-roledescription="axis" aria-label="Y-axis for a discrete scale with 2 values: Government is in too much debt, Government has no money"><g transform="translate(0.5,0.5)"><path class="background" aria-hidden="true" d="M0,0h0v0h0Z" pointer-events="none"/><g><g class="mark-text role-axis-label" pointer-events="none"><text text-anchor="end" transform="translate(-5,73.5)" font-family="Circular Std" font-size="13px" fill="#676A86" fill-opacity="0.7" opacity="1">Government is in too much debt</text><text text-anchor="end" transform="translate(-5,213.5)" font-family="Circular Std" font-size="13px" fill="#676A86" fill-opacity="0.7" opacity="1">Government has no money</text></g><g class="mark-rule role-axis-domain" pointer-events="none"><line transform="translate(0,0)" x2="0" y2="280" stroke="#cbd5e1" stroke-opacity="0.5" stroke-width="1" opacity="1"/></g></g><path class="foreground" aria-hidden="true" d="" pointer-events="none" display="none"/></g></g><g class="mark-group role-scope" role="graphics-object" aria-roledescription="group mark container"><g transform="translate(0,7)"><path class="background" aria-hidden="true" d="M2,0L289.6666666666667,0C290.7704967156547,0,291.6666666666667,0.896169951012,291.6666666666667,2L291.6666666666667,124C291.6666666666667,125.103830048988,290.7704967156547,126,289.6666666666667,126L2,126C0.896169951012,126,0,125.103830048988,0,124L0,2C0,0.896169951012,0.896169951012,0,2,0Z"/><g clip-path="url(#clip15)"><g class="mark-group role-scope" role="graphics-object" aria-roledescription="group mark container"><g transform="translate(0,0)"><path class="background" aria-hidden="true" d="M0,0h0v126h0Z"/><g><g class="mark-rect role-mark layer_0_marks" role="graphics-object" aria-roledescription="rect mark container"><path aria-label="Net agreement (% agree − % disagree): 50; stmt: Government is in too much debt; series: net" role="graphics-symbol" aria-roledescription="bar" d="M0,0h291.6666666666667v126h-291.6666666666667Z" fill="#36B7B4"/></g></g><path class="foreground" aria-hidden="true" d="" display="none"/></g></g></g><path class="foreground" aria-hidden="true" d="" display="none"/></g><g transform="translate(0,147)"><path class="background" aria-hidden="true" d="M2,0L27.166666666666664,0C28.270496715654666,0,29.166666666666664,0.896169951012,29.166666666666664,2L29.166666666666664,124C29.166666666666664,125.103830048988,28.270496715654666,126,27.166666666666664,126L2,126C0.896169951012,126,0,125.103830048988,0,124L0,2C0,0.896169951012,0.896169951012,0,2,0Z"/><g clip-path="url(#clip16)"><g class="mark-group role-scope" role="graphics-object" aria-roledescription="group mark container"><g transform="translate(0,0)"><path class="background" aria-hidden="true" d="M0,0h0v126h0Z"/><g><g class="mark-rect role-mark layer_0_marks" role="graphics-object" aria-roledescription="rect mark container"><path aria-label="Net agreement (% agree − % disagree): 5; stmt: Government has no money; series: net" role="graphics-symbol" aria-roledescription="bar" d="M0,0h29.166666666666664v126h-29.166666666666664Z" fill="#36B7B4"/></g></g><path class="foreground" aria-hidden="true" d="" display="none"/></g></g></g><path class="foreground" aria-hidden="true" d="" display="none"/></g></g><g class="mark-text role-mark layer_1_marks" role="graphics-object" aria-roledescription="text mark container"><text aria-label="net: 50; stmt: Government is in too much debt" role="graphics-symbol" aria-roledescription="text mark" text-anchor="start" transform="translate(297.6666666666667,74)" font-family="Circular Std" font-size="14px" font-weight="bold" fill="#676A86">+50</text><text aria-label="net: 5; stmt: Government has no money" role="graphics-symbol" aria-roledescription="text mark" text-anchor="start" transform="translate(35.166666666666664,214)" font-family="Circular Std" font-size="14px" font-weight="bold" fill="#676A86">+5</text></g><g class="mark-group role-title"><g transform="translate(0,316)"><path class="background" aria-hidden="true" d="M0,0h0v0h0Z" pointer-events="none"/><g><g class="mark-text role-title-text" role="graphics-symbol" aria-roledescription="title" aria-label="Title text 'Source: Public First, fieldwork 11–15 March 2025 (n=2,055)'" pointer-events="none"><text text-anchor="start" transform="translate(0,21)" font-family="Circular Std" font-size="11px" font-weight="bold" fill="#676A86" opacity="1">Source: Public First, fieldwork 11–15 March 2025 (n=2,055)</text></g><g class="mark-text role-title-subtitle" role="graphics-symbol" aria-roledescription="subtitle" aria-label="Subtitle text 'Net agreement with two statements about the public finances. Near-consensus that debt is too high — but no agreement the government is broke.'" pointer-events="none"><text text-anchor="start" transform="translate(0,35)" font-family="Circular Std" font-size="10px" fill="#676A86" opacity="1"><tspan>Net agreement with two statements about the public finances.</tspan><tspan x="0" dy="12">Near-consensus that debt is too high — but no agreement the government is broke.</tspan></text></g></g><path class="foreground" aria-hidden="true" d="" pointer-events="none" display="none"/></g></g></g><path class="foreground" aria-hidden="true" d="" display="none"/></g></g></g><defs><clipPath id="clip15"><path d="M2,0L289.6666666666667,0C290.7704967156547,0,291.6666666666667,0.896169951012,291.6666666666667,2L291.6666666666667,124C291.6666666666667,125.103830048988,290.7704967156547,126,289.6666666666667,126L2,126C0.896169951012,126,0,125.103830048988,0,124L0,2C0,0.896169951012,0.896169951012,0,2,0Z"/></clipPath><clipPath id="clip16"><path d="M2,0L27.166666666666664,0C28.270496715654666,0,29.166666666666664,0.896169951012,29.166666666666664,2L29.166666666666664,124C29.166666666666664,125.103830048988,28.270496715654666,126,27.166666666666664,126L2,126C0.896169951012,126,0,125.103830048988,0,124L0,2C0,0.896169951012,0.896169951012,0,2,0Z"/></clipPath></defs></svg>