<svg xmlns="http://www.w3.org/2000/svg" xmlns:xlink="http://www.w3.org/1999/xlink" version="1.1" class="marks" width="529" height="360" viewBox="0 0 529 360"><rect width="529" height="360" fill="white"/><g fill="none" stroke-miterlimit="10" transform="translate(22,63)"><g class="mark-group role-frame root" role="graphics-object" aria-roledescription="group mark container"><g transform="translate(0,0)"><path class="background" aria-hidden="true" d="M0,0h350v280h-350Z"/><g><g class="mark-group role-axis" aria-hidden="true"><g transform="translate(0.5,0.5)"><path class="background" aria-hidden="true" d="M0,0h0v0h0Z" pointer-events="none"/><g><g class="mark-rule role-axis-grid" pointer-events="none"><line transform="translate(0,280)" x2="350" y2="0" stroke="#676A86" stroke-opacity="0.5" stroke-width="1" stroke-dasharray="1,5" opacity="1"/><line transform="translate(0,245)" x2="350" y2="0" stroke="#676A86" stroke-opacity="0.5" stroke-width="1" stroke-dasharray="1,5" opacity="1"/><line transform="translate(0,210)" x2="350" y2="0" stroke="#676A86" stroke-opacity="0.5" stroke-width="1" stroke-dasharray="1,5" opacity="1"/><line transform="translate(0,175)" x2="350" y2="0" stroke="#676A86" stroke-opacity="0.5" stroke-width="1" stroke-dasharray="1,5" opacity="1"/><line transform="translate(0,140)" x2="350" y2="0" stroke="#676A86" stroke-opacity="0.5" stroke-width="1" stroke-dasharray="1,5" opacity="1"/><line transform="translate(0,105)" x2="350" y2="0" stroke="#676A86" stroke-opacity="0.5" stroke-width="1" stroke-dasharray="1,5" opacity="1"/><line transform="translate(0,70)" x2="350" y2="0" stroke="#676A86" stroke-opacity="0.5" stroke-width="1" stroke-dasharray="1,5" opacity="1"/><line transform="translate(0,35)" x2="350" y2="0" stroke="#676A86" stroke-opacity="0.5" stroke-width="1" stroke-dasharray="1,5" opacity="1"/><line transform="translate(0,0)" x2="350" y2="0" stroke="#676A86" stroke-opacity="0.5" stroke-width="1" stroke-dasharray="1,5" opacity="1"/></g></g><path class="foreground" aria-hidden="true" d="" pointer-events="none" display="none"/></g></g><g class="mark-group role-axis" role="graphics-symbol" aria-roledescription="axis" aria-label="X-axis for a time scale with values from 06 September to 25 October"><g transform="translate(0.5,280.5)"><path class="background" aria-hidden="true" d="M0,0h0v0h0Z" pointer-events="none"/><g><g class="mark-rule role-axis-tick" pointer-events="none"><line transform="translate(36,0)" x2="0" y2="4" stroke="#676A86" stroke-opacity="0.5" stroke-width="1" opacity="1"/><line transform="translate(86,0)" x2="0" y2="4" stroke="#676A86" stroke-opacity="0.5" stroke-width="1" opacity="1"/><line transform="translate(136,0)" x2="0" y2="4" stroke="#676A86" stroke-opacity="0.5" stroke-width="1" opacity="1"/><line transform="translate(186,0)" x2="0" y2="4" stroke="#676A86" stroke-opacity="0.5" stroke-width="1" opacity="1"/><line transform="translate(236,0)" x2="0" y2="4" stroke="#676A86" stroke-opacity="0.5" stroke-width="1" opacity="1"/><line transform="translate(286,0)" x2="0" y2="4" stroke="#676A86" stroke-opacity="0.5" stroke-width="1" opacity="1"/><line transform="translate(336,0)" x2="0" y2="4" stroke="#676A86" stroke-opacity="0.5" stroke-width="1" opacity="1"/></g><g class="mark-text role-axis-label" pointer-events="none"><text text-anchor="middle" transform="translate(35.714285714285715,15)" font-family="Circular Std" font-size="11px" fill="#676A86" fill-opacity="0.7" opacity="1">11 Sep</text><text text-anchor="middle" transform="translate(85.71428571428571,15)" font-family="Circular Std" font-size="11px" fill="#676A86" fill-opacity="0.7" opacity="1">18 Sep</text><text text-anchor="middle" transform="translate(135.71428571428572,15)" font-family="Circular Std" font-size="11px" fill="#676A86" fill-opacity="0.7" opacity="1">25 Sep</text><text text-anchor="middle" transform="translate(185.71428571428572,15)" font-family="Circular Std" font-size="11px" fill="#676A86" fill-opacity="0.7" opacity="1">02 Oct</text><text text-anchor="middle" transform="translate(235.7142857142857,15)" font-family="Circular Std" font-size="11px" fill="#676A86" fill-opacity="0.7" opacity="1">09 Oct</text><text text-anchor="middle" transform="translate(285.7142857142857,15)" font-family="Circular Std" font-size="11px" fill="#676A86" fill-opacity="0.7" opacity="1">16 Oct</text><text text-anchor="middle" transform="translate(335.7142857142857,15)" font-family="Circular Std" font-size="11px" fill="#676A86" fill-opacity="0.7" opacity="1">23 Oct</text></g><g class="mark-rule role-axis-domain" pointer-events="none"><line transform="translate(0,0)" x2="350" y2="0" stroke="#676A86" stroke-opacity="0.5" stroke-width="1" opacity="1"/></g></g><path class="foreground" aria-hidden="true" d="" pointer-events="none" display="none"/></g></g><g class="mark-group role-axis" role="graphics-symbol" aria-roledescription="axis" aria-label="Y-axis titled '10-year government bond yield, %' for a linear scale with values from 1 to 5"><g transform="translate(0.5,0.5)"><path class="background" aria-hidden="true" d="M0,0h0v0h0Z" pointer-events="none"/><g><g class="mark-text role-axis-label" pointer-events="none"><text text-anchor="end" transform="translate(-5,283)" font-family="Circular Std" font-size="11px" fill="#676A86" fill-opacity="0.7" opacity="1">1.0</text><text text-anchor="end" transform="translate(-5,248)" font-family="Circular Std" font-size="11px" fill="#676A86" fill-opacity="0.7" opacity="1">1.5</text><text text-anchor="end" transform="translate(-5,213)" font-family="Circular Std" font-size="11px" fill="#676A86" fill-opacity="0.7" opacity="1">2.0</text><text text-anchor="end" transform="translate(-5,178)" font-family="Circular Std" font-size="11px" fill="#676A86" fill-opacity="0.7" opacity="1">2.5</text><text text-anchor="end" transform="translate(-5,143)" font-family="Circular Std" font-size="11px" fill="#676A86" fill-opacity="0.7" opacity="1">3.0</text><text text-anchor="end" transform="translate(-5,108)" font-family="Circular Std" font-size="11px" fill="#676A86" fill-opacity="0.7" opacity="1">3.5</text><text text-anchor="end" transform="translate(-5,73)" font-family="Circular Std" font-size="11px" fill="#676A86" fill-opacity="0.7" opacity="1">4.0</text><text text-anchor="end" transform="translate(-5,38)" font-family="Circular Std" font-size="11px" fill="#676A86" fill-opacity="0.7" opacity="1">4.5</text><text text-anchor="end" transform="translate(-5,3)" font-family="Circular Std" font-size="11px" fill="#676A86" fill-opacity="0.7" opacity="1">5.0</text></g><g class="mark-rule role-axis-domain" pointer-events="none"><line transform="translate(0,280)" x2="0" y2="-280" stroke="#676A86" stroke-opacity="0.5" stroke-width="1" opacity="1"/></g><g class="mark-text role-axis-title" pointer-events="none"><text text-anchor="start" transform="translate(0,-7)" font-family="Circular Std" font-size="11px" font-weight="bold" fill="#676A86" fill-opacity="0.8" opacity="1">10-year government bond yield, %</text></g></g><path class="foreground" aria-hidden="true" d="" pointer-events="none" display="none"/></g></g><g class="mark-rule role-mark layer_0_marks" role="graphics-object" aria-roledescription="rule mark container"><line aria-label="date: Sep 23, 2022" role="graphics-symbol" aria-roledescription="rule mark" transform="translate(121.42857142857143,0)" x2="0" y2="280" stroke="#676A86" stroke-width="1" stroke-dasharray="3,3"/><line aria-label="date: Oct 14, 2022" role="graphics-symbol" aria-roledescription="rule mark" transform="translate(271.42857142857144,0)" x2="0" y2="280" stroke="#676A86" stroke-width="1" stroke-dasharray="3,3"/><line aria-label="date: Oct 20, 2022" role="graphics-symbol" aria-roledescription="rule mark" transform="translate(314.2857142857143,0)" x2="0" y2="280" stroke="#676A86" stroke-width="1" stroke-dasharray="3,3"/></g><g class="mark-group role-scope layer_1_pathgroup" role="graphics-object" aria-roledescription="group mark container"><g transform="translate(0,0)"><path class="background" aria-hidden="true" d="M0,0h350v280h-350Z"/><g><g class="mark-line role-mark layer_1_marks" role="graphics-object" aria-roledescription="line mark container"><path aria-label="date: 06 Sep; 10-year government bond yield, %: 3.084; country: UK" role="graphics-symbol" aria-roledescription="line mark" d="M0,134.12L7.143,139.37L14.286,129.15L21.429,133.49L42.857,135.17L50,127.96L57.143,131.11L64.286,128.73L71.429,130.83L92.857,129.36L100,120.75L107.143,118.72L114.286,105.63L121.429,82.67L142.857,52.43L150,36.05L157.143,67.48L164.286,53.34L171.429,62.65L192.857,72.38L200,79.87L207.143,67.55L214.286,56.56L221.429,52.22L242.857,37.94L250,40.39L257.143,38.92L264.286,57.19L271.429,43.54L292.857,71.33L300,74.34L307.143,77.49L314.286,72.87L321.429,66.36L342.857,90.02L350,94.71" stroke="#E6224B" stroke-width="2.2"/></g></g><path class="foreground" aria-hidden="true" d="" display="none"/></g><g transform="translate(0,0)"><path class="background" aria-hidden="true" d="M0,0h350v280h-350Z"/><g><g class="mark-line role-mark layer_1_marks" role="graphics-object" aria-roledescription="line mark container"><path aria-label="date: 07 Sep; 10-year government bond yield, %: 1.575; country: Germany" role="graphics-symbol" aria-roledescription="line mark" d="M7.143,239.75L14.286,230.16L21.429,231L42.857,234.85L50,229.32L57.143,231.14L64.286,228.13L71.429,226.45L92.857,224.63L100,214.27L107.143,217.56L114.286,211.54L121.429,207.83L142.857,203.56L150,192.36L157.143,199.15L164.286,195.44L171.429,202.37L192.857,217.42L200,218.26L207.143,208.81L214.286,203.98L221.429,196.21L242.857,187.11L250,188.44L257.143,185.78L264.286,189L271.429,184.73L292.857,191.03L300,190.54L307.143,184.17L314.286,182.42L321.429,179.41L342.857,185.92L350,198.1" stroke="#94a3b8" stroke-width="2.2"/></g></g><path class="foreground" aria-hidden="true" d="" display="none"/></g></g><g class="mark-text role-mark layer_2_marks" role="graphics-object" aria-roledescription="text mark container"><text aria-label="Max of date: Oct 25, 2022; yield for max date: 3.647; country: UK" role="graphics-symbol" aria-roledescription="text mark" text-anchor="start" transform="translate(356,98.71000000000001)" font-family="Circular Std" font-size="12px" font-weight="bold" fill="#E6224B">UK</text><text aria-label="Max of date: Oct 25, 2022; yield for max date: 2.17; country: Germany" role="graphics-symbol" aria-roledescription="text mark" text-anchor="start" transform="translate(356,202.1)" font-family="Circular Std" font-size="12px" font-weight="bold" fill="#94a3b8">Germany</text></g><g class="mark-text role-mark layer_3_layer_0_marks" role="graphics-object" aria-roledescription="text mark container"><text aria-label="date: Sep 23, 2022; label: Mini-budget" role="graphics-symbol" aria-roledescription="text mark" text-anchor="start" transform="translate(125.42857142857143,13)" font-family="Circular Std" font-size="11px" fill="#676A86">Mini-budget</text></g><g class="mark-text role-mark layer_3_layer_1_marks" role="graphics-object" aria-roledescription="text mark container"><text aria-label="date: Oct 14, 2022; label: Kwarteng sacked" role="graphics-symbol" aria-roledescription="text mark" text-anchor="end" transform="translate(267.42857142857144,13)" font-family="Circular Std" font-size="11px" fill="#676A86">Kwarteng sacked</text></g><g class="mark-text role-mark layer_3_layer_2_marks" role="graphics-object" aria-roledescription="text mark container"><text aria-label="date: Oct 20, 2022; label: Truss resigns" role="graphics-symbol" aria-roledescription="text mark" text-anchor="start" transform="translate(318.2857142857143,35)" font-family="Circular Std" font-size="11px" fill="#676A86">Truss resigns</text></g><g class="mark-group role-title"><g transform="translate(0,-63)"><path class="background" aria-hidden="true" d="M0,0h0v0h0Z" pointer-events="none"/><g><g class="mark-text role-title-text" role="graphics-symbol" aria-roledescription="title" aria-label="Title text 'A UK-specific shock, not a global one'" pointer-events="none"><text text-anchor="start" transform="translate(0,11)" font-family="Circular Std" font-size="14px" font-weight="bold" fill="#676A86E6" opacity="1">A UK-specific shock, not a global one</text></g><g class="mark-text role-title-subtitle" role="graphics-symbol" aria-roledescription="subtitle" aria-label="Subtitle text 'UK vs German 10-year government bond yields, Sept–Oct 2022. Both rose with global rates — but UK gilts jumped far more after the mini-budget.'" pointer-events="none"><text text-anchor="start" transform="translate(0,27)" font-family="Circular Std" font-size="12px" fill="#676A86" opacity="1"><tspan>UK vs German 10-year government bond yields, Sept–Oct 2022.</tspan><tspan x="0" dy="14">Both rose with global rates — but UK gilts jumped far more after the mini-budget.</tspan></text></g></g><path class="foreground" aria-hidden="true" d="" pointer-events="none" display="none"/></g></g></g><path class="foreground" aria-hidden="true" d="" display="none"/></g></g></g></svg>