<svg xmlns="http://www.w3.org/2000/svg" xmlns:xlink="http://www.w3.org/1999/xlink" version="1.1" class="marks" width="494" height="393" viewBox="0 0 494 393"><rect width="494" height="393" fill="white"/><g fill="none" stroke-miterlimit="10" transform="translate(33,72)"><g class="mark-group role-frame root" role="graphics-object" aria-roledescription="group mark container"><g transform="translate(0,0)"><path class="background" aria-hidden="true" d="M0.5,0.5h400v300h-400Z"/><g><g class="mark-group role-axis" role="graphics-symbol" aria-roledescription="axis" aria-label="X-axis for a time scale with values from Friday, 01 January 1982, 12:00:00 AM to Saturday, 01 January 2022, 12:00:00 AM"><g transform="translate(0.5,300.5)"><path class="background" aria-hidden="true" d="M0,0h0v0h0Z" pointer-events="none"/><g><g class="mark-text role-axis-label" pointer-events="none"><text text-anchor="middle" transform="translate(30.006844626967833,14)" font-family="sans-serif" font-size="10px" fill="#000" opacity="1">1985</text><text text-anchor="middle" transform="translate(80,14)" font-family="sans-serif" font-size="10px" fill="#000" opacity="1">1990</text><text text-anchor="middle" transform="translate(129.99315537303218,14)" font-family="sans-serif" font-size="10px" fill="#000" opacity="1">1995</text><text text-anchor="middle" transform="translate(179.98631074606436,14)" font-family="sans-serif" font-size="10px" fill="#000" opacity="1">2000</text><text text-anchor="middle" transform="translate(230.00684462696782,14)" font-family="sans-serif" font-size="10px" fill="#000" opacity="1">2005</text><text text-anchor="middle" transform="translate(280,14)" font-family="sans-serif" font-size="10px" fill="#000" opacity="1">2010</text><text text-anchor="middle" transform="translate(329.99315537303215,14)" font-family="sans-serif" font-size="10px" fill="#000" opacity="1">2015</text><text text-anchor="middle" transform="translate(379.9863107460643,14)" font-family="sans-serif" font-size="10px" fill="#000" opacity="1">2020</text></g><g class="mark-rule role-axis-domain" pointer-events="none"><line transform="translate(0,0)" x2="400" y2="0" stroke="#888" stroke-width="1" opacity="1"/></g></g><path class="foreground" aria-hidden="true" d="" pointer-events="none" display="none"/></g></g><g class="mark-group role-axis" role="graphics-symbol" aria-roledescription="axis" aria-label="Y-axis for a linear scale with values from 0% to 40%"><g transform="translate(0.5,0.5)"><path class="background" aria-hidden="true" d="M0,0h0v0h0Z" pointer-events="none"/><g><g class="mark-rule role-axis-tick" pointer-events="none"><line transform="translate(0,300)" x2="-5" y2="0" stroke="#888" stroke-opacity="0" stroke-width="1" opacity="1"/><line transform="translate(0,263)" x2="-5" y2="0" stroke="#888" stroke-opacity="0" stroke-width="1" opacity="1"/><line transform="translate(0,225)" x2="-5" y2="0" stroke="#888" stroke-opacity="0" stroke-width="1" opacity="1"/><line transform="translate(0,188)" x2="-5" y2="0" stroke="#888" stroke-opacity="0" stroke-width="1" opacity="1"/><line transform="translate(0,150)" x2="-5" y2="0" stroke="#888" stroke-opacity="0" stroke-width="1" opacity="1"/><line transform="translate(0,113)" x2="-5" y2="0" stroke="#888" stroke-opacity="0" stroke-width="1" opacity="1"/><line transform="translate(0,75)" x2="-5" y2="0" stroke="#888" stroke-opacity="0" stroke-width="1" opacity="1"/><line transform="translate(0,38)" x2="-5" y2="0" stroke="#888" stroke-opacity="0" stroke-width="1" opacity="1"/><line transform="translate(0,0)" x2="-5" y2="0" stroke="#888" stroke-opacity="0" stroke-width="1" opacity="1"/></g><g class="mark-text role-axis-label" pointer-events="none"><text text-anchor="end" transform="translate(-7,303)" font-family="sans-serif" font-size="10px" fill="#000" opacity="1">0%</text><text text-anchor="end" transform="translate(-7,265.5)" font-family="sans-serif" font-size="10px" fill="#000" opacity="1">5%</text><text text-anchor="end" transform="translate(-7,228)" font-family="sans-serif" font-size="10px" fill="#000" opacity="1">10%</text><text text-anchor="end" transform="translate(-7,190.5)" font-family="sans-serif" font-size="10px" fill="#000" opacity="1">15%</text><text text-anchor="end" transform="translate(-7,153)" font-family="sans-serif" font-size="10px" fill="#000" opacity="1">20%</text><text text-anchor="end" transform="translate(-7,115.5)" font-family="sans-serif" font-size="10px" fill="#000" opacity="1">25%</text><text text-anchor="end" transform="translate(-7,78.00000000000003)" font-family="sans-serif" font-size="10px" fill="#000" opacity="1">30%</text><text text-anchor="end" transform="translate(-7,40.500000000000036)" font-family="sans-serif" font-size="10px" fill="#000" opacity="1">35%</text><text text-anchor="end" transform="translate(-7,3)" font-family="sans-serif" font-size="10px" fill="#000" opacity="1">40%</text></g><g class="mark-rule role-axis-domain" pointer-events="none"><line transform="translate(0,300)" x2="0" y2="-300" stroke="#888" stroke-width="1" opacity="1"/></g></g><path class="foreground" aria-hidden="true" d="" pointer-events="none" display="none"/></g></g><g class="mark-group role-scope layer_0_pathgroup" role="graphics-object" aria-roledescription="group mark container"><g transform="translate(0,0)"><path class="background" aria-hidden="true" d="M0,0h400v300h-400Z"/><g><g class="mark-line role-mark layer_0_marks" role="graphics-object" aria-roledescription="line mark container"><path aria-label="Year: Jan 01, 1982; Value: 27.858400%; Series: Spending" role="graphics-symbol" aria-roledescription="line mark" d="M0,91.062L9.993,87.427L19.986,98.246L30.007,106.678L40,107.813L49.993,124.172L59.986,143.597L70.007,160.537L80,163.447L89.993,175.179L99.986,189.379L110.007,198.526L120,206.482L129.993,216.171L139.986,216.787L150.007,212.799L160,204.487L169.993,187.314L179.986,177.988L190.007,169.201L200,161.518L209.993,163.291L219.986,165.967L230.007,162.998L240,162.458L249.993,163.867L259.986,131.061L270.007,107.591L280,111.792L289.993,96.607L299.986,88.81L310.007,85.767L320,83.324L329.993,63.359L339.986,57.629L350.007,55.236L360,50.423L369.993,43.855L379.986,34.479L390.007,54.854L400,49.497" stroke="rgb(119, 22, 8)" stroke-width="2"/></g></g><path class="foreground" aria-hidden="true" d="" display="none"/></g><g transform="translate(0,0)"><path class="background" aria-hidden="true" d="M0,0h400v300h-400Z"/><g><g class="mark-line role-mark layer_0_marks" role="graphics-object" aria-roledescription="line mark container"><path aria-label="Year: Jan 01, 1982; Value: 26.524700%; Series: Revenue" role="graphics-symbol" aria-roledescription="line mark" d="M0,101.065L9.993,99.502L19.986,109.068L30.007,110.088L40,121.463L49.993,139.783L59.986,160.249L70.007,167.39L80,168.839L89.993,183.006L99.986,198.566L110.007,205.242L120,219.158L129.993,223.315L139.986,222.339L150.007,218.299L160,212.644L169.993,204.733L179.986,199.333L190.007,188.67L200,183.144L209.993,181.248L219.986,177.306L230.007,173.509L240,171.036L249.993,163.425L259.986,131.247L270.007,120.723L280,114.507L289.993,97.343L299.986,91.072L310.007,92.038L320,88.447L329.993,82.435L339.986,83.068L350.007,80.762L360,82.549L369.993,89.62L379.986,107.365L390.007,100.191L400,105.865" stroke="rgb(9, 32, 95)" stroke-width="2"/></g></g><path class="foreground" aria-hidden="true" d="" display="none"/></g></g><g class="mark-text role-mark layer_1_marks" role="graphics-object" aria-roledescription="text mark container"><text aria-label="Year: Jan 01, 2022; Value: 33.400353%; Series: Spending" role="graphics-symbol" aria-roledescription="text mark" text-anchor="start" transform="translate(405,48.49735482500004)" font-family="sans-serif" font-size="12px" fill="rgb(119, 22, 8)">Spending</text><text aria-label="Year: Jan 01, 2022; Value: 25.884632%; Series: Revenue" role="graphics-symbol" aria-roledescription="text mark" text-anchor="start" transform="translate(405,104.86525707500002)" font-family="sans-serif" font-size="12px" fill="rgb(9, 32, 95)">Revenue</text></g><g class="mark-text role-mark layer_2_marks" role="graphics-object" aria-roledescription="text mark container"><text aria-label="Year: Jan 01, 2022; Value: 33.400353%; Series: Spending" role="graphics-symbol" aria-roledescription="text mark" text-anchor="start" transform="translate(405,58.49735482500004)" font-family="sans-serif" font-size="12px" fill="rgb(119, 22, 8)">33%</text><text aria-label="Year: Jan 01, 2022; Value: 25.884632%; Series: Revenue" role="graphics-symbol" aria-roledescription="text mark" text-anchor="start" transform="translate(405,114.86525707500002)" font-family="sans-serif" font-size="12px" fill="rgb(9, 32, 95)">26%</text></g><g class="mark-group role-title"><g transform="translate(-27.0146484375,-67)"><path class="background" aria-hidden="true" d="M0,0h0v0h0Z" pointer-events="none"/><g><g class="mark-text role-title-text" role="graphics-symbol" aria-roledescription="title" aria-label="Title text 'China: Surplus or Shortfall?'" pointer-events="none"><text text-anchor="start" transform="translate(0,13)" font-family="sans-serif" font-size="16px" font-weight="bold" fill="black" opacity="1">China: Surplus or Shortfall?</text></g><g class="mark-text role-title-subtitle" role="graphics-symbol" aria-roledescription="subtitle" aria-label="Subtitle text 'Central Government, % of GDP Source: IMF '" pointer-events="none"><text text-anchor="start" transform="translate(0,28)" font-family="sans-serif" font-size="12px" font-style="italic" fill="#000" opacity="1"><tspan>Central Government, % of GDP</tspan><tspan x="0" dy="14">Source: IMF</tspan><tspan x="0" dy="14"/></text></g></g><path class="foreground" aria-hidden="true" d="" pointer-events="none" display="none"/></g></g></g><path class="foreground" aria-hidden="true" d="" display="none"/></g></g></g></svg>