<svg xmlns="http://www.w3.org/2000/svg" xmlns:xlink="http://www.w3.org/1999/xlink" version="1.1" class="marks" width="698" height="475" viewBox="0 0 698 475"><rect width="698" height="475" fill="white"/><g fill="none" stroke-miterlimit="10" transform="translate(31,5)"><g class="mark-group role-frame root" role="graphics-object" aria-roledescription="group mark container"><g transform="translate(0,0)"><path class="background" aria-hidden="true" d="M0,0h640v0h-640Z"/><g><g class="mark-group role-scope concat_0_group" role="graphics-object" aria-roledescription="group mark container"><g transform="translate(0,0)"><path class="background" aria-hidden="true" d="M0,0h640v22h-640Z" stroke-width="0"/><g><g class="mark-text role-mark concat_0_marks" role="graphics-object" aria-roledescription="text mark container"><text text-anchor="start" transform="translate(0,14)" font-family="Circular Std" font-size="16px" font-weight="bold" fill="#122b39">El Salvador: GDP per capita relative to the United States</text></g></g><path class="foreground" aria-hidden="true" d="" display="none"/></g></g><g class="mark-group role-scope concat_1_group" role="graphics-object" aria-roledescription="group mark container"><g transform="translate(0,46)"><path class="background" aria-hidden="true" d="M0,0h640v380h-640Z" stroke-width="0"/><g><g class="mark-group role-axis" aria-hidden="true"><g transform="translate(0.5,0.5)"><path class="background" aria-hidden="true" d="M0,0h0v0h0Z" pointer-events="none"/><g><g class="mark-rule role-axis-grid" pointer-events="none"><line transform="translate(0,380)" x2="640" y2="0" stroke="#122b39" stroke-opacity="0.5" stroke-width="1" stroke-dasharray="1,5" opacity="1"/><line transform="translate(0,322)" x2="640" y2="0" stroke="#122b39" stroke-opacity="0.5" stroke-width="1" stroke-dasharray="1,5" opacity="1"/><line transform="translate(0,263)" x2="640" y2="0" stroke="#122b39" stroke-opacity="0.5" stroke-width="1" stroke-dasharray="1,5" opacity="1"/><line transform="translate(0,205)" x2="640" y2="0" stroke="#122b39" stroke-opacity="0.5" stroke-width="1" stroke-dasharray="1,5" opacity="1"/><line transform="translate(0,146)" x2="640" y2="0" stroke="#122b39" stroke-opacity="0.5" stroke-width="1" stroke-dasharray="1,5" opacity="1"/><line transform="translate(0,88)" x2="640" y2="0" stroke="#122b39" stroke-opacity="0.5" stroke-width="1" stroke-dasharray="1,5" opacity="1"/><line transform="translate(0,29)" x2="640" y2="0" stroke="#122b39" stroke-opacity="0.5" stroke-width="1" stroke-dasharray="1,5" opacity="1"/></g></g><path class="foreground" aria-hidden="true" d="" pointer-events="none" display="none"/></g></g><g class="mark-group role-axis" role="graphics-symbol" aria-roledescription="axis" aria-label="X-axis for a linear scale with values from 1963 to 2029"><g transform="translate(0.5,380.5)"><path class="background" aria-hidden="true" d="M0,0h0v0h0Z" pointer-events="none"/><g><g class="mark-rule role-axis-tick" pointer-events="none"><line transform="translate(68,0)" x2="0" y2="0" stroke="#122b39" stroke-width="1" opacity="1"/><line transform="translate(213,0)" x2="0" y2="0" stroke="#122b39" stroke-width="1" opacity="1"/><line transform="translate(359,0)" x2="0" y2="0" stroke="#122b39" stroke-width="1" opacity="1"/><line transform="translate(504,0)" x2="0" y2="0" stroke="#122b39" stroke-width="1" opacity="1"/></g><g class="mark-text role-axis-label" pointer-events="none"><text text-anchor="middle" transform="translate(67.87878787878788,14)" font-family="Circular Std" font-size="11px" fill="#122b39" opacity="1">1970</text><text text-anchor="middle" transform="translate(213.33333333333331,14)" font-family="Circular Std" font-size="11px" fill="#122b39" opacity="1">1985</text><text text-anchor="middle" transform="translate(358.78787878787875,14)" font-family="Circular Std" font-size="11px" fill="#122b39" opacity="1">2000</text><text text-anchor="middle" transform="translate(504.24242424242425,14)" font-family="Circular Std" font-size="11px" fill="#122b39" opacity="1">2015</text></g><g class="mark-rule role-axis-domain" pointer-events="none"><line transform="translate(0,0)" x2="640" y2="0" stroke="#122b39" stroke-opacity="0.5" stroke-width="1" opacity="1"/></g></g><path class="foreground" aria-hidden="true" d="" pointer-events="none" display="none"/></g></g><g class="mark-group role-axis" role="graphics-symbol" aria-roledescription="axis" aria-label="Y-axis titled 'GDP per capita, % of US level' for a linear scale with values from 0 to 13"><g transform="translate(0.5,0.5)"><path class="background" aria-hidden="true" d="M0,0h0v0h0Z" pointer-events="none"/><g><g class="mark-rule role-axis-tick" pointer-events="none"><line transform="translate(0,380)" x2="0" y2="0" stroke="#122b39" stroke-width="1" opacity="1"/><line transform="translate(0,322)" x2="0" y2="0" stroke="#122b39" stroke-width="1" opacity="1"/><line transform="translate(0,263)" x2="0" y2="0" stroke="#122b39" stroke-width="1" opacity="1"/><line transform="translate(0,205)" x2="0" y2="0" stroke="#122b39" stroke-width="1" opacity="1"/><line transform="translate(0,146)" x2="0" y2="0" stroke="#122b39" stroke-width="1" opacity="1"/><line transform="translate(0,88)" x2="0" y2="0" stroke="#122b39" stroke-width="1" opacity="1"/><line transform="translate(0,29)" x2="0" y2="0" stroke="#122b39" stroke-width="1" opacity="1"/></g><g class="mark-text role-axis-label" pointer-events="none"><text text-anchor="end" transform="translate(-5,383)" font-family="Circular Std" font-size="11px" fill="#122b39" opacity="1">0%</text><text text-anchor="end" transform="translate(-5,324.53846153846155)" font-family="Circular Std" font-size="11px" fill="#122b39" opacity="1">2%</text><text text-anchor="end" transform="translate(-5,266.0769230769231)" font-family="Circular Std" font-size="11px" fill="#122b39" opacity="1">4%</text><text text-anchor="end" transform="translate(-5,207.6153846153846)" font-family="Circular Std" font-size="11px" fill="#122b39" opacity="1">6%</text><text text-anchor="end" transform="translate(-5,149.15384615384613)" font-family="Circular Std" font-size="11px" fill="#122b39" opacity="1">8%</text><text text-anchor="end" transform="translate(-5,90.69230769230768)" font-family="Circular Std" font-size="11px" fill="#122b39" opacity="1">10%</text><text text-anchor="end" transform="translate(-5,32.23076923076921)" font-family="Circular Std" font-size="11px" fill="#122b39" opacity="1">12%</text></g><g class="mark-rule role-axis-domain" pointer-events="none"><line transform="translate(0,380)" x2="0" y2="-380" stroke="#122b39" stroke-opacity="0.5" stroke-width="1" opacity="1"/></g><g class="mark-text role-axis-title" pointer-events="none"><text text-anchor="start" transform="translate(0,-9)" font-family="Circular Std" font-size="11px" font-weight="bold" fill="#122b39" fill-opacity="0.9" opacity="1">GDP per capita, % of US level</text></g></g><path class="foreground" aria-hidden="true" d="" pointer-events="none" display="none"/></g></g><g class="mark-rule role-mark concat_1_layer_0_marks" role="graphics-object" aria-roledescription="rule mark container"><line aria-label="x: 1979" role="graphics-symbol" aria-roledescription="rule mark" transform="translate(155.15151515151516,0)" x2="0" y2="380" stroke="rgba(24, 42, 56)" stroke-width="1" stroke-dasharray="4,3" opacity="0.45"/><line aria-label="x: 1992" role="graphics-symbol" aria-roledescription="rule mark" transform="translate(281.2121212121212,0)" x2="0" y2="380" stroke="rgba(24, 42, 56)" stroke-width="1" stroke-dasharray="4,3" opacity="0.45"/></g><g class="mark-rule role-mark concat_1_layer_1_marks" role="graphics-object" aria-roledescription="rule mark container"><line aria-label="x: 2019" role="graphics-symbol" aria-roledescription="rule mark" transform="translate(543.030303030303,0)" x2="0" y2="380" stroke="#122b39" stroke-width="1" stroke-dasharray="4,3" opacity="0.55"/></g><g class="mark-line role-mark concat_1_layer_2_marks" role="graphics-object" aria-roledescription="line mark container"><path aria-label="year: 1965; ratio: 11.7063507077" role="graphics-symbol" aria-roledescription="line mark" d="M19.394,37.814L29.091,41.374L38.788,37.66L48.485,48.737L58.182,53.219L67.879,48.83L77.576,50.742L87.273,52.263L96.97,59.184L106.667,44.905L116.364,38.662L126.061,43.842L135.758,40.775L145.455,45.082L155.152,71.535L164.848,120.681L174.545,140.808L184.242,152.182L193.939,160.808L203.636,175.016L213.333,184.196L223.03,192.379L232.727,196.098L242.424,202.127L252.121,208.533L261.818,204.899L271.515,202.825L281.212,197.288L290.909,191.842L300.606,190.124L310.303,185.647L320,190.403L329.697,191.786L339.394,194.067L349.091,197.661L358.788,201.734L368.485,200.841L378.182,199.958L387.879,200.935L397.576,204.596L407.273,204.372L416.97,199.894L426.667,198.678L436.364,193.827L446.061,191.878L455.758,191.9L465.455,186.914L475.152,185.114L484.848,184.204L494.545,184.974L504.242,185.109L513.939,182.73L523.636,182.171L533.333,182.278L543.03,181.621L552.727,193.003L562.424,183.224L572.121,182.047L581.818,180.527L591.515,179.905" stroke="#179fdb" stroke-width="2.75"/></g><g class="mark-text role-mark concat_1_layer_3_marks" role="graphics-object" aria-roledescription="text mark container"><text aria-label="x: 1985.5; y: 12.6; label: Civil war" role="graphics-symbol" aria-roledescription="text mark" text-anchor="middle" transform="translate(218.18181818181816,14.692307692307693)" font-family="Circular Std" font-size="10.5px" fill="rgba(24, 42, 56)">Civil war</text></g><g class="mark-text role-mark concat_1_layer_4_marks" role="graphics-object" aria-roledescription="text mark container"><text aria-label="x: 2019; y: 3; t: Bukele first term begins" role="graphics-symbol" aria-roledescription="text mark" text-anchor="start" transform="translate(548.030303030303,295.30769230769226)" font-family="Circular Std" font-size="10.5px" fill="rgba(24, 42, 56)">Bukele first term begins</text></g><g class="mark-symbol role-mark concat_1_layer_5_layer_0_marks" role="graphics-object" aria-roledescription="symbol mark container"><path aria-label="x: 2024; y: 6.84534422923" role="graphics-symbol" aria-roledescription="point" transform="translate(591.5151515151515,179.90532253026115)" d="M3.873,0A3.873,3.873,0,1,1,-3.873,0A3.873,3.873,0,1,1,3.873,0" fill="#179fdb" stroke-width="2" opacity="1"/></g><g class="mark-text role-mark concat_1_layer_5_layer_1_marks" role="graphics-object" aria-roledescription="text mark container"><text aria-label="x: 2024; y: 6.84534422923; t: 6.8%" role="graphics-symbol" aria-roledescription="text mark" text-anchor="start" transform="translate(599.5151515151515,182.90532253026115)" font-family="Circular Std" font-size="11px" font-weight="600" fill="#179fdb">6.8%</text></g></g><path class="foreground" aria-hidden="true" d="" display="none"/></g></g><g class="mark-group role-scope concat_2_group" role="graphics-object" aria-roledescription="group mark container"><g transform="translate(0,448)"><path class="background" aria-hidden="true" d="M0,0h640v14h-640Z" stroke-width="0"/><g><g class="mark-text role-mark concat_2_marks" role="graphics-object" aria-roledescription="text mark container"><text text-anchor="start" transform="translate(0,15)" font-family="Circular Std" font-size="9.5px" fill="rgba(24, 42, 56)">Source: World Bank, World Development Indicators.</text></g></g><path class="foreground" aria-hidden="true" d="" display="none"/></g></g></g><path class="foreground" aria-hidden="true" d="" display="none"/></g></g></g></svg>