<svg xmlns="http://www.w3.org/2000/svg" xmlns:xlink="http://www.w3.org/1999/xlink" version="1.1" class="marks" width="692" height="475" viewBox="0 0 692 475"><rect width="692" height="475" fill="white"/><g fill="none" stroke-miterlimit="10" transform="translate(47,5)"><g class="mark-group role-frame root" role="graphics-object" aria-roledescription="group mark container"><g transform="translate(0,0)"><path class="background" aria-hidden="true" d="M0,0h640v0h-640Z"/><g><g class="mark-group role-scope concat_0_group" role="graphics-object" aria-roledescription="group mark container"><g transform="translate(0,0)"><path class="background" aria-hidden="true" d="M0,0h640v22h-640Z" stroke-width="0"/><g><g class="mark-text role-mark concat_0_marks" role="graphics-object" aria-roledescription="text mark container"><text text-anchor="start" transform="translate(0,14)" font-family="Circular Std" font-size="16px" font-weight="bold" fill="#122b39">El Salvador: global export market share by sector</text></g></g><path class="foreground" aria-hidden="true" d="" display="none"/></g></g><g class="mark-group role-scope concat_1_group" role="graphics-object" aria-roledescription="group mark container"><g transform="translate(0,46)"><path class="background" aria-hidden="true" d="M0,0h640v380h-640Z" stroke-width="0"/><g><g class="mark-group role-axis" aria-hidden="true"><g transform="translate(0.5,380.5)"><path class="background" aria-hidden="true" d="M0,0h0v0h0Z" pointer-events="none"/><g><g class="mark-rule role-axis-grid" pointer-events="none"><line transform="translate(17,-380)" x2="0" y2="380" stroke="#ddd" stroke-opacity="0" stroke-width="1" opacity="1"/><line transform="translate(190,-380)" x2="0" y2="380" stroke="#ddd" stroke-opacity="0" stroke-width="1" opacity="1"/><line transform="translate(363,-380)" x2="0" y2="380" stroke="#ddd" stroke-opacity="0" stroke-width="1" opacity="1"/><line transform="translate(519,-380)" x2="0" y2="380" stroke="#ddd" stroke-opacity="0" stroke-width="1" opacity="1"/></g></g><path class="foreground" aria-hidden="true" d="" pointer-events="none" display="none"/></g></g><g class="mark-group role-axis" aria-hidden="true"><g transform="translate(0.5,0.5)"><path class="background" aria-hidden="true" d="M0,0h0v0h0Z" pointer-events="none"/><g><g class="mark-rule role-axis-grid" pointer-events="none"><line transform="translate(0,315)" x2="640" y2="0" stroke="#122b39" stroke-opacity="0.5" stroke-width="1" stroke-dasharray="1,5" opacity="1"/><line transform="translate(0,191)" x2="640" y2="0" stroke="#122b39" stroke-opacity="0.5" stroke-width="1" stroke-dasharray="1,5" opacity="1"/><line transform="translate(0,67)" x2="640" y2="0" stroke="#122b39" stroke-opacity="0.5" stroke-width="1" stroke-dasharray="1,5" opacity="1"/></g></g><path class="foreground" aria-hidden="true" d="" pointer-events="none" display="none"/></g></g><g class="mark-group role-axis" role="graphics-symbol" aria-roledescription="axis" aria-label="X-axis for a linear scale with values from 1994 to 2031"><g transform="translate(0.5,380.5)"><path class="background" aria-hidden="true" d="M0,0h0v0h0Z" pointer-events="none"/><g><g class="mark-rule role-axis-tick" pointer-events="none"><line transform="translate(17,0)" x2="0" y2="0" stroke="#122b39" stroke-width="1" opacity="1"/><line transform="translate(190,0)" x2="0" y2="0" stroke="#122b39" stroke-width="1" opacity="1"/><line transform="translate(363,0)" x2="0" y2="0" stroke="#122b39" stroke-width="1" opacity="1"/><line transform="translate(519,0)" x2="0" y2="0" stroke="#122b39" stroke-width="1" opacity="1"/></g><g class="mark-text role-axis-label" pointer-events="none"><text text-anchor="middle" transform="translate(17.2972972972973,14)" font-family="Circular Std" font-size="11px" fill="#122b39" opacity="1">1995</text><text text-anchor="middle" transform="translate(190.2702702702703,14)" font-family="Circular Std" font-size="11px" fill="#122b39" opacity="1">2005</text><text text-anchor="middle" transform="translate(363.2432432432432,14)" font-family="Circular Std" font-size="11px" fill="#122b39" opacity="1">2015</text><text text-anchor="middle" transform="translate(518.918918918919,14)" font-family="Circular Std" font-size="11px" fill="#122b39" opacity="1">2024</text></g><g class="mark-rule role-axis-domain" pointer-events="none"><line transform="translate(0,0)" x2="640" y2="0" stroke="#122b39" stroke-opacity="0.5" stroke-width="1" opacity="1"/></g></g><path class="foreground" aria-hidden="true" d="" pointer-events="none" display="none"/></g></g><g class="mark-group role-axis" role="graphics-symbol" aria-roledescription="axis" aria-label="Y-axis titled 'Share of world exports (%)' for a log scale with values from 0.0003 to 0.35"><g transform="translate(0.5,0.5)"><path class="background" aria-hidden="true" d="M0,0h0v0h0Z" pointer-events="none"/><g><g class="mark-rule role-axis-tick" pointer-events="none"><line transform="translate(0,315)" x2="0" y2="0" stroke="#122b39" stroke-width="1" opacity="1"/><line transform="translate(0,191)" x2="0" y2="0" stroke="#122b39" stroke-width="1" opacity="1"/><line transform="translate(0,67)" x2="0" y2="0" stroke="#122b39" stroke-width="1" opacity="1"/></g><g class="mark-text role-axis-label" pointer-events="none"><text text-anchor="end" transform="translate(-5,318.21442110495195)" font-family="Circular Std" font-size="11px" fill="#122b39" opacity="1">0.001%</text><text text-anchor="end" transform="translate(-5,194.31269536103463)" font-family="Circular Std" font-size="11px" fill="#122b39" opacity="1">0.01%</text><text text-anchor="end" transform="translate(-5,70.41096961711726)" font-family="Circular Std" font-size="11px" fill="#122b39" opacity="1">0.1%</text></g><g class="mark-rule role-axis-domain" pointer-events="none"><line transform="translate(0,380)" x2="0" y2="-380" stroke="#122b39" stroke-opacity="0.5" stroke-width="1" opacity="1"/></g><g class="mark-text role-axis-title" pointer-events="none"><text text-anchor="start" transform="translate(0,-9)" font-family="Circular Std" font-size="11px" font-weight="bold" fill="#122b39" fill-opacity="0.9" opacity="1">Share of world exports (%)</text></g></g><path class="foreground" aria-hidden="true" d="" pointer-events="none" display="none"/></g></g><g class="mark-group role-scope concat_1_layer_0_pathgroup" role="graphics-object" aria-roledescription="group mark container"><g transform="translate(0,0)"><path class="background" aria-hidden="true" d="M0,0h640v380h-640Z"/><g><g class="mark-line role-mark concat_1_layer_0_marks" role="graphics-object" aria-roledescription="line mark container"><path aria-label="Year: 1995; pct: 0.00035645059826; lcol: #d6d4d4; order: 0; Sector: Vehicles" role="graphics-symbol" aria-roledescription="line mark" d="M17.297,370.722L34.595,165.83L51.892,351.265L69.189,331.189L86.486,309.84L103.784,190.798L121.081,345.504L138.378,352.57L155.676,363.446L172.973,333.676L190.27,339.29L207.568,306.38L224.865,342.934L242.162,331.956L259.459,347.201L276.757,340.536L294.054,319.921L311.351,336.063L328.649,303.428L345.946,319.38L363.243,311.664L380.541,312.005L397.838,277.144L415.135,317.809L432.432,327.74L449.73,277.426L467.027,308.132L484.324,270.595L501.622,320.355L518.919,305.529" stroke="#d6d4d4" stroke-width="2.25"/></g></g><path class="foreground" aria-hidden="true" d="" display="none"/></g><g transform="translate(0,0)"><path class="background" aria-hidden="true" d="M0,0h640v380h-640Z"/><g><g class="mark-line role-mark concat_1_layer_0_marks" role="graphics-object" aria-roledescription="line mark container"><path aria-label="Year: 1995; pct: 0.0227280151681; lcol: #d6d4d4; order: 0; Sector: Services" role="graphics-symbol" aria-roledescription="line mark" d="M17.297,147.134L34.595,138.8L51.892,129.936L69.189,121.314L86.486,120.263L103.784,117.738L121.081,116.012L138.378,118.104L155.676,117L172.973,127.824L190.27,134.623L207.568,139.487L224.865,147.422L242.162,154.736L259.459,158.172L276.757,155.169L294.054,156.688L311.351,151.266L328.649,147.439L345.946,146.751L363.243,140.809L380.541,139.929L397.838,144.236L415.135,143.478L432.432,136.903L449.73,149.257L467.027,139.408L484.324,129.441L501.622,126.176L518.919,122.008" stroke="#d6d4d4" stroke-width="2.25"/></g></g><path class="foreground" aria-hidden="true" d="" display="none"/></g><g transform="translate(0,0)"><path class="background" aria-hidden="true" d="M0,0h640v380h-640Z"/><g><g class="mark-line role-mark concat_1_layer_0_marks" role="graphics-object" aria-roledescription="line mark container"><path aria-label="Year: 1995; pct: 0.0852846419668; lcol: #e6224b; order: 1; Sector: Agriculture" role="graphics-symbol" aria-roledescription="line mark" d="M17.297,75.976L34.595,74.701L51.892,61.886L69.189,66.792L86.486,73.269L103.784,77.854L121.081,89.33L138.378,91.567L155.676,95.613L172.973,98.632L190.27,85.971L207.568,82.354L224.865,78.766L242.162,75.694L259.459,78.478L276.757,83.437L294.054,74.133L311.351,80.157L328.649,78.031L345.946,89.318L363.243,81.331L380.541,85.475L397.838,82.686L415.135,87.847L432.432,83L449.73,89.462L467.027,89.244L484.324,87.174L501.622,86.063L518.919,84.413" stroke="#e6224b" stroke-width="2.25"/></g></g><path class="foreground" aria-hidden="true" d="" display="none"/></g><g transform="translate(0,0)"><path class="background" aria-hidden="true" d="M0,0h640v380h-640Z"/><g><g class="mark-line role-mark concat_1_layer_0_marks" role="graphics-object" aria-roledescription="line mark container"><path aria-label="Year: 1995; pct: 0.00278269918921; lcol: #d6d4d4; order: 0; Sector: Machinery" role="graphics-symbol" aria-roledescription="line mark" d="M17.297,260.144L34.595,254.609L51.892,257.018L69.189,238.131L86.486,243.791L103.784,247.696L121.081,239.441L138.378,236.181L155.676,206.635L172.973,237.045L190.27,242.424L207.568,253.033L224.865,258.602L242.162,250.683L259.459,254.399L276.757,250.46L294.054,257.328L311.351,257.081L328.649,254.388L345.946,254.62L363.243,245.53L380.541,245.419L397.838,249.702L415.135,256.835L432.432,257.505L449.73,264.608L467.027,261.541L484.324,262.54L501.622,261.873L518.919,252.469" stroke="#d6d4d4" stroke-width="2.25"/></g></g><path class="foreground" aria-hidden="true" d="" display="none"/></g><g transform="translate(0,0)"><path class="background" aria-hidden="true" d="M0,0h640v380h-640Z"/><g><g class="mark-line role-mark concat_1_layer_0_marks" role="graphics-object" aria-roledescription="line mark container"><path aria-label="Year: 1995; pct: 0.0772083899519; lcol: #179fdb; order: 1; Sector: Textiles" role="graphics-symbol" aria-roledescription="line mark" d="M17.297,81.33L34.595,77.394L51.892,23.293L69.189,71.471L86.486,55.124L103.784,38.132L121.081,26.896L138.378,25.662L155.676,31.935L172.973,35.71L190.27,21.22L207.568,25.71L224.865,26.955L242.162,25.391L259.459,27.835L276.757,24.065L294.054,27.333L311.351,34.359L328.649,24.401L345.946,27.563L363.243,20.542L380.541,20.153L397.838,22.033L415.135,23.336L432.432,23.959L449.73,37.561L467.027,28.724L484.324,34.219L501.622,40.641L518.919,43.254" stroke="#179fdb" stroke-width="2.25"/></g></g><path class="foreground" aria-hidden="true" d="" display="none"/></g><g transform="translate(0,0)"><path class="background" aria-hidden="true" d="M0,0h640v380h-640Z"/><g><g class="mark-line role-mark concat_1_layer_0_marks" role="graphics-object" aria-roledescription="line mark container"><path aria-label="Year: 1995; pct: 0.00057339755997; lcol: #d6d4d4; order: 0; Sector: Minerals" role="graphics-symbol" aria-roledescription="line mark" d="M17.297,345.142L34.595,209.424L51.892,205.02L69.189,167.838L86.486,177.931L103.784,218.269L121.081,221.029L138.378,185.739L155.676,199.894L172.973,210.615L190.27,229.671L207.568,222.767L224.865,212.059L242.162,211.872L259.459,218.121L276.757,227.042L294.054,227.055L311.351,231.917L328.649,232.797L345.946,229.441L363.243,211.619L380.541,186.562L397.838,190.66L415.135,197.034L432.432,196.675L449.73,189.961L467.027,191.55L484.324,196.958L501.622,185.719L518.919,186.121" stroke="#d6d4d4" stroke-width="2.25"/></g></g><path class="foreground" aria-hidden="true" d="" display="none"/></g><g transform="translate(0,0)"><path class="background" aria-hidden="true" d="M0,0h640v380h-640Z"/><g><g class="mark-line role-mark concat_1_layer_0_marks" role="graphics-object" aria-roledescription="line mark container"><path aria-label="Year: 1995; pct: 0.00888623088558; lcol: #d6d4d4; order: 0; Sector: Electronics" role="graphics-symbol" aria-roledescription="line mark" d="M17.297,197.667L34.595,200.69L51.892,202.795L69.189,203.335L86.486,210.452L103.784,179.895L121.081,177.677L138.378,190.71L155.676,189.197L172.973,182.039L190.27,167.633L207.568,171.052L224.865,167.869L242.162,172.802L259.459,175.489L276.757,162.596L294.054,164.484L311.351,175.751L328.649,167.133L345.946,166.119L363.243,168.557L380.541,160.272L397.838,151.888L415.135,145.742L432.432,159.55L449.73,168.701L467.027,168.381L484.324,167.893L501.622,175.398L518.919,172.2" stroke="#d6d4d4" stroke-width="2.25"/></g></g><path class="foreground" aria-hidden="true" d="" display="none"/></g><g transform="translate(0,0)"><path class="background" aria-hidden="true" d="M0,0h640v380h-640Z"/><g><g class="mark-line role-mark concat_1_layer_0_marks" role="graphics-object" aria-roledescription="line mark container"><path aria-label="Year: 1995; pct: 0.0198370852598; lcol: #d6d4d4; order: 0; Sector: Chemicals" role="graphics-symbol" aria-roledescription="line mark" d="M17.297,154.455L34.595,145.46L51.892,145.888L69.189,128.302L86.486,133.508L103.784,140.415L121.081,137.086L138.378,141.704L155.676,152.84L172.973,156.917L190.27,155.936L207.568,161.475L224.865,153.106L242.162,146.644L259.459,147.896L276.757,146.419L294.054,148.613L311.351,144.87L328.649,139.557L345.946,141.832L363.243,131.408L380.541,130.977L397.838,132.615L415.135,138.012L432.432,131.737L449.73,134.821L467.027,134.055L484.324,129.788L501.622,132.829L518.919,131.241" stroke="#d6d4d4" stroke-width="2.25"/></g></g><path class="foreground" aria-hidden="true" d="" display="none"/></g><g transform="translate(0,0)"><path class="background" aria-hidden="true" d="M0,0h640v380h-640Z"/><g><g class="mark-line role-mark concat_1_layer_0_marks" role="graphics-object" aria-roledescription="line mark container"><path aria-label="Year: 1995; pct: 0.0155513256007; lcol: #d6d4d4; order: 0; Sector: Metals" role="graphics-symbol" aria-roledescription="line mark" d="M17.297,167.552L34.595,166.733L51.892,156.217L69.189,138.86L86.486,137.049L103.784,141.364L121.081,135.774L138.378,133.766L155.676,139.995L172.973,146.145L190.27,147.96L207.568,158.136L224.865,152.657L242.162,147.348L259.459,153.858L276.757,151.474L294.054,148.411L311.351,147.844L328.649,141.425L345.946,151.203L363.243,141.406L380.541,140.202L397.838,142.209L415.135,140.684L432.432,142.513L449.73,150.338L467.027,148.961L484.324,148.71L501.622,140.388L518.919,141.402" stroke="#d6d4d4" stroke-width="2.25"/></g></g><path class="foreground" aria-hidden="true" d="" display="none"/></g><g transform="translate(0,0)"><path class="background" aria-hidden="true" d="M0,0h640v380h-640Z"/><g><g class="mark-line role-mark concat_1_layer_0_marks" role="graphics-object" aria-roledescription="line mark container"><path aria-label="Year: 1995; pct: 0.00182012544612; lcol: #d6d4d4; order: 0; Sector: Stone" role="graphics-symbol" aria-roledescription="line mark" d="M17.297,282.987L34.595,277.083L51.892,239.003L69.189,245.371L86.486,202.237L103.784,231.873L121.081,211.428L138.378,204.823L155.676,246.535L172.973,242.654L190.27,233.828L207.568,217.144L224.865,203.408L242.162,188.625L259.459,150.778L276.757,144.898L294.054,157.968L311.351,193.517L328.649,201.344L345.946,201.9L363.243,207.123L380.541,206.582L397.838,203.98L415.135,209.604L432.432,199L449.73,200.747L467.027,202.856L484.324,223.638L501.622,237.601L518.919,222.223" stroke="#d6d4d4" stroke-width="2.25"/></g></g><path class="foreground" aria-hidden="true" d="" display="none"/></g></g><g class="mark-text role-mark concat_1_layer_1_marks" role="graphics-object" aria-roledescription="text mark container"><text aria-label="Year: 2024; label_y: 0.0305373430385; tcol: rgba(93, 115, 102, 1); Sector: Chemicals" role="graphics-symbol" aria-roledescription="text mark" text-anchor="start" transform="translate(524.918918918919,134.24126707390994)" font-family="Circular Std" font-size="11px" font-weight="600" fill="rgba(93, 115, 102, 1)">Chemicals</text><text aria-label="Year: 2024; label_y: 0.00320931967736; tcol: rgba(93, 115, 102, 1); Sector: Machinery" role="graphics-symbol" aria-roledescription="text mark" text-anchor="start" transform="translate(524.918918918919,255.46897907749803)" font-family="Circular Std" font-size="11px" font-weight="600" fill="rgba(93, 115, 102, 1)">Machinery</text><text aria-label="Year: 2024; label_y: 0.0110129065076; tcol: rgba(93, 115, 102, 1); Sector: Minerals" role="graphics-symbol" aria-roledescription="text mark" text-anchor="start" transform="translate(524.918918918919,189.12097115117913)" font-family="Circular Std" font-size="11px" font-weight="600" fill="rgba(93, 115, 102, 1)">Minerals</text><text aria-label="Year: 2024; label_y: 0.0252826505518; tcol: rgba(93, 115, 102, 1); Sector: Metals" role="graphics-symbol" aria-roledescription="text mark" text-anchor="start" transform="translate(524.918918918919,144.40227980030227)" font-family="Circular Std" font-size="11px" font-weight="600" fill="rgba(93, 115, 102, 1)">Metals</text><text aria-label="Year: 2024; label_y: 0.0729087966397; tcol: #e6224b; Sector: Agriculture" role="graphics-symbol" aria-roledescription="text mark" text-anchor="start" transform="translate(524.918918918919,87.4127730645505)" font-family="Circular Std" font-size="11px" font-weight="600" fill="#e6224b">Agriculture</text><text aria-label="Year: 2024; label_y: 0.0142643922902; tcol: rgba(93, 115, 102, 1); Sector: Electronics" role="graphics-symbol" aria-roledescription="text mark" text-anchor="start" transform="translate(524.918918918919,175.2004485082073)" font-family="Circular Std" font-size="11px" font-weight="600" fill="rgba(93, 115, 102, 1)">Electronics</text><text aria-label="Year: 2024; label_y: 0.00563020986302; tcol: rgba(93, 115, 102, 1); Sector: Stone" role="graphics-symbol" aria-roledescription="text mark" text-anchor="start" transform="translate(524.918918918919,225.22313002773677)" font-family="Circular Std" font-size="11px" font-weight="600" fill="rgba(93, 115, 102, 1)">Stone</text><text aria-label="Year: 2024; label_y: 0.156662415776; tcol: #179fdb; Sector: Textiles" role="graphics-symbol" aria-roledescription="text mark" text-anchor="start" transform="translate(524.918918918919,46.25449205963225)" font-family="Circular Std" font-size="11px" font-weight="600" fill="#179fdb">Textiles</text><text aria-label="Year: 2024; label_y: 0.00119719896212; tcol: rgba(93, 115, 102, 1); Sector: Vehicles" role="graphics-symbol" aria-roledescription="text mark" text-anchor="start" transform="translate(524.918918918919,308.5294777161914)" font-family="Circular Std" font-size="11px" font-weight="600" fill="rgba(93, 115, 102, 1)">Vehicles</text><text aria-label="Year: 2024; label_y: 0.0362538167328; tcol: rgba(93, 115, 102, 1); Sector: Services" role="graphics-symbol" aria-roledescription="text mark" text-anchor="start" transform="translate(524.918918918919,125.00780229200642)" font-family="Circular Std" font-size="11px" font-weight="600" fill="rgba(93, 115, 102, 1)">Services</text></g></g><path class="foreground" aria-hidden="true" d="" display="none"/></g></g><g class="mark-group role-scope concat_2_group" role="graphics-object" aria-roledescription="group mark container"><g transform="translate(0,448)"><path class="background" aria-hidden="true" d="M0,0h640v14h-640Z" stroke-width="0"/><g><g class="mark-text role-mark concat_2_marks" role="graphics-object" aria-roledescription="text mark container"><text text-anchor="start" transform="translate(0,15)" font-family="Circular Std" font-size="9.5px" fill="rgba(24, 42, 56)">Source: Atlas of Economic Complexity. Note: log scale.</text></g></g><path class="foreground" aria-hidden="true" d="" display="none"/></g></g></g><path class="foreground" aria-hidden="true" d="" display="none"/></g></g></g></svg>