<svg xmlns="http://www.w3.org/2000/svg" xmlns:xlink="http://www.w3.org/1999/xlink" version="1.1" class="marks" width="682" height="484" viewBox="0 0 682 484"><rect width="682" height="484" fill="white"/><g fill="none" stroke-miterlimit="10" transform="translate(37,5)"><g class="mark-group role-frame root" role="graphics-object" aria-roledescription="group mark container"><g transform="translate(0,0)"><path class="background" aria-hidden="true" d="M0,0h640v0h-640Z"/><g><g class="mark-group role-scope concat_0_group" role="graphics-object" aria-roledescription="group mark container"><g transform="translate(0,0)"><path class="background" aria-hidden="true" d="M0,0h0v0h0Z"/><g><g class="mark-group role-scope concat_0_concat_0_group" role="graphics-object" aria-roledescription="group mark container"><g transform="translate(0,0)"><path class="background" aria-hidden="true" d="M0,0h640v22h-640Z" stroke-width="0"/><g><g class="mark-text role-mark concat_0_concat_0_marks" role="graphics-object" aria-roledescription="text mark container"><text text-anchor="start" transform="translate(0,14)" font-family="Circular Std" font-size="16px" font-weight="bold" fill="#122b39">El Salvador: real per-capita exports by sector</text></g></g><path class="foreground" aria-hidden="true" d="" display="none"/></g></g><g class="mark-group role-scope concat_0_concat_1_group" role="graphics-object" aria-roledescription="group mark container"><g transform="translate(0,23)"><path class="background" aria-hidden="true" d="M0,0h640v18h-640Z" stroke-width="0"/><g><g class="mark-text role-mark concat_0_concat_1_marks" role="graphics-object" aria-roledescription="text mark container"><text text-anchor="start" transform="translate(0,18)" font-family="Circular Std" font-size="12px" fill="rgba(24, 42, 56)">Gross exports per person, constant 2024 US$</text></g></g><path class="foreground" aria-hidden="true" d="" display="none"/></g></g></g><path class="foreground" aria-hidden="true" d="" display="none"/></g></g><g class="mark-group role-scope concat_1_group" role="graphics-object" aria-roledescription="group mark container"><g transform="translate(0,55)"><path class="background" aria-hidden="true" d="M0,0h640v380h-640Z" stroke-width="0"/><g><g class="mark-group role-axis" aria-hidden="true"><g transform="translate(0.5,0.5)"><path class="background" aria-hidden="true" d="M0,0h0v0h0Z" pointer-events="none"/><g><g class="mark-rule role-axis-grid" pointer-events="none"><line transform="translate(0,380)" x2="640" y2="0" stroke="#122b39" stroke-opacity="0.5" stroke-width="1" stroke-dasharray="1,5" opacity="1"/><line transform="translate(0,285)" x2="640" y2="0" stroke="#122b39" stroke-opacity="0.5" stroke-width="1" stroke-dasharray="1,5" opacity="1"/><line transform="translate(0,190)" x2="640" y2="0" stroke="#122b39" stroke-opacity="0.5" stroke-width="1" stroke-dasharray="1,5" opacity="1"/><line transform="translate(0,95)" x2="640" y2="0" stroke="#122b39" stroke-opacity="0.5" stroke-width="1" stroke-dasharray="1,5" opacity="1"/><line transform="translate(0,0)" x2="640" y2="0" stroke="#122b39" stroke-opacity="0.5" stroke-width="1" stroke-dasharray="1,5" opacity="1"/></g></g><path class="foreground" aria-hidden="true" d="" pointer-events="none" display="none"/></g></g><g class="mark-group role-axis" role="graphics-symbol" aria-roledescription="axis" aria-label="X-axis for a linear scale with values from 1995 to 2031"><g transform="translate(0.5,380.5)"><path class="background" aria-hidden="true" d="M0,0h0v0h0Z" pointer-events="none"/><g><g class="mark-rule role-axis-tick" pointer-events="none"><line transform="translate(0,0)" x2="0" y2="0" stroke="#122b39" stroke-width="1" opacity="1"/><line transform="translate(178,0)" x2="0" y2="0" stroke="#122b39" stroke-width="1" opacity="1"/><line transform="translate(356,0)" x2="0" y2="0" stroke="#122b39" stroke-width="1" opacity="1"/><line transform="translate(516,0)" x2="0" y2="0" stroke="#122b39" stroke-width="1" opacity="1"/></g><g class="mark-text role-axis-label" pointer-events="none"><text text-anchor="middle" transform="translate(0,14)" font-family="Circular Std" font-size="11px" fill="#122b39" opacity="1">1995</text><text text-anchor="middle" transform="translate(177.77777777777777,14)" font-family="Circular Std" font-size="11px" fill="#122b39" opacity="1">2005</text><text text-anchor="middle" transform="translate(355.55555555555554,14)" font-family="Circular Std" font-size="11px" fill="#122b39" opacity="1">2015</text><text text-anchor="middle" transform="translate(515.5555555555555,14)" font-family="Circular Std" font-size="11px" fill="#122b39" opacity="1">2024</text></g><g class="mark-rule role-axis-domain" pointer-events="none"><line transform="translate(0,0)" x2="640" y2="0" stroke="#122b39" stroke-opacity="0.5" stroke-width="1" opacity="1"/></g></g><path class="foreground" aria-hidden="true" d="" pointer-events="none" display="none"/></g></g><g class="mark-group role-axis" role="graphics-symbol" aria-roledescription="axis" aria-label="Y-axis for a linear scale with values from $0 to $200"><g transform="translate(0.5,0.5)"><path class="background" aria-hidden="true" d="M0,0h0v0h0Z" pointer-events="none"/><g><g class="mark-rule role-axis-tick" pointer-events="none"><line transform="translate(0,380)" x2="0" y2="0" stroke="#122b39" stroke-width="1" opacity="1"/><line transform="translate(0,285)" x2="0" y2="0" stroke="#122b39" stroke-width="1" opacity="1"/><line transform="translate(0,190)" x2="0" y2="0" stroke="#122b39" stroke-width="1" opacity="1"/><line transform="translate(0,95)" x2="0" y2="0" stroke="#122b39" stroke-width="1" opacity="1"/><line transform="translate(0,0)" x2="0" y2="0" stroke="#122b39" stroke-width="1" opacity="1"/></g><g class="mark-text role-axis-label" pointer-events="none"><text text-anchor="end" transform="translate(-5,383)" font-family="Circular Std" font-size="11px" fill="#122b39" opacity="1">$0</text><text text-anchor="end" transform="translate(-5,288)" font-family="Circular Std" font-size="11px" fill="#122b39" opacity="1">$50</text><text text-anchor="end" transform="translate(-5,193)" font-family="Circular Std" font-size="11px" fill="#122b39" opacity="1">$100</text><text text-anchor="end" transform="translate(-5,98)" font-family="Circular Std" font-size="11px" fill="#122b39" opacity="1">$150</text><text text-anchor="end" transform="translate(-5,3)" font-family="Circular Std" font-size="11px" fill="#122b39" opacity="1">$200</text></g><g class="mark-rule role-axis-domain" pointer-events="none"><line transform="translate(0,380)" x2="0" y2="-380" stroke="#122b39" stroke-opacity="0.5" stroke-width="1" opacity="1"/></g></g><path class="foreground" aria-hidden="true" d="" pointer-events="none" display="none"/></g></g><g class="mark-group role-scope concat_1_layer_0_pathgroup" role="graphics-object" aria-roledescription="group mark container"><g transform="translate(0,0)"><path class="background" aria-hidden="true" d="M0,0h640v380h-640Z"/><g><g class="mark-area role-mark concat_1_layer_0_marks" role="graphics-object" aria-roledescription="area mark container"><path aria-label="year: 1995; value: $21; fill: #f4c245; rank: 2" role="graphics-symbol" aria-roledescription="area mark" d="M0,288.847L17.778,277.393L35.556,211.597L53.333,244.295L71.111,240.982L88.889,230.256L106.667,213.84L124.444,212.444L142.222,206.211L160,217.131L177.778,201.079L195.556,195.953L213.333,189.123L231.111,164.407L248.889,211.024L266.667,197.573L284.444,176.089L302.222,184.636L320,151.412L337.778,149.05L355.556,118.583L373.333,132.065L391.111,137.445L408.889,134.104L426.667,110.616L444.444,184.178L462.222,163.062L480,140.705L497.778,128.797L515.556,109.258L515.556,159.25L497.778,177.733L480,189.232L462.222,208.933L444.444,231.046L426.667,163.864L408.889,182.762L391.111,189.567L373.333,180.933L355.556,173.321L337.778,198.313L320,209.067L302.222,238.021L284.444,236.422L266.667,242.074L248.889,256.892L231.111,223.153L213.333,235.093L195.556,234.848L177.778,234.95L160,244.622L142.222,234.156L124.444,239.686L106.667,241.977L88.889,262.786L71.111,278.52L53.333,289.602L35.556,261.603L17.778,316.795L0,328.084Z" fill="#f4c245" opacity="0.95"/></g></g><path class="foreground" aria-hidden="true" d="" display="none"/></g><g transform="translate(0,0)"><path class="background" aria-hidden="true" d="M0,0h640v380h-640Z"/><g><g class="mark-area role-mark concat_1_layer_0_marks" role="graphics-object" aria-roledescription="area mark container"><path aria-label="year: 1995; value: $4; fill: #eb5c2e; rank: 3" role="graphics-symbol" aria-roledescription="area mark" d="M0,281.251L17.778,268.486L35.556,202.345L53.333,231.062L71.111,229.173L88.889,219.896L106.667,201.885L124.444,200.859L142.222,195.491L160,206.142L177.778,189.739L195.556,184.637L213.333,174.599L231.111,145.306L248.889,196.071L266.667,180.928L284.444,158.034L302.222,165.802L320,130.501L337.778,128.141L355.556,94.412L373.333,108.798L391.111,113.966L408.889,111.189L426.667,85.03L444.444,160.141L462.222,137.886L480,113.24L497.778,104.376L515.556,84.298L515.556,109.258L497.778,128.797L480,140.705L462.222,163.062L444.444,184.178L426.667,110.616L408.889,134.104L391.111,137.445L373.333,132.065L355.556,118.583L337.778,149.05L320,151.412L302.222,184.636L284.444,176.089L266.667,197.573L248.889,211.024L231.111,164.407L213.333,189.123L195.556,195.953L177.778,201.079L160,217.131L142.222,206.211L124.444,212.444L106.667,213.84L88.889,230.256L71.111,240.982L53.333,244.295L35.556,211.597L17.778,277.393L0,288.847Z" fill="#eb5c2e" opacity="0.95"/></g></g><path class="foreground" aria-hidden="true" d="" display="none"/></g><g transform="translate(0,0)"><path class="background" aria-hidden="true" d="M0,0h640v380h-640Z"/><g><g class="mark-area role-mark concat_1_layer_0_marks" role="graphics-object" aria-roledescription="area mark container"><path aria-label="year: 1995; value: $2; fill: #36b7b4; rank: 4" role="graphics-symbol" aria-roledescription="area mark" d="M0,277.706L17.778,265.132L35.556,198.84L53.333,227.494L71.111,225.878L88.889,213.339L106.667,195.46L124.444,195.863L142.222,189.832L160,198.969L177.778,180.579L195.556,174.884L213.333,163.949L231.111,134.767L248.889,188.08L266.667,169.254L284.444,146.365L302.222,156.377L320,119.04L337.778,115.812L355.556,82.231L373.333,95.296L391.111,97.553L408.889,91.764L426.667,70.027L444.444,147.319L462.222,124.959L480,100.387L497.778,93.47L515.556,72.557L515.556,84.298L497.778,104.376L480,113.24L462.222,137.886L444.444,160.141L426.667,85.03L408.889,111.189L391.111,113.966L373.333,108.798L355.556,94.412L337.778,128.141L320,130.501L302.222,165.802L284.444,158.034L266.667,180.928L248.889,196.071L231.111,145.306L213.333,174.599L195.556,184.637L177.778,189.739L160,206.142L142.222,195.491L124.444,200.859L106.667,201.885L88.889,219.896L71.111,229.173L53.333,231.062L35.556,202.345L17.778,268.486L0,281.251Z" fill="#36b7b4" opacity="0.95"/></g></g><path class="foreground" aria-hidden="true" d="" display="none"/></g><g transform="translate(0,0)"><path class="background" aria-hidden="true" d="M0,0h640v380h-640Z"/><g><g class="mark-area role-mark concat_1_layer_0_marks" role="graphics-object" aria-roledescription="area mark container"><path aria-label="year: 1995; value: $1; fill: rgba(93, 115, 102, 1); rank: 7" role="graphics-symbol" aria-roledescription="area mark" d="M0,272.144L17.778,257.733L35.556,190.126L53.333,215.037L71.111,214.339L88.889,203.245L106.667,184.395L124.444,182.645L142.222,174.128L160,184.502L177.778,166.793L195.556,159.992L213.333,145.731L231.111,110.437L248.889,174.355L266.667,152.986L284.444,127.023L302.222,138.098L320,100.212L337.778,97.808L355.556,63.531L373.333,76.197L391.111,77.29L408.889,70.135L426.667,49.889L444.444,131.138L462.222,105.467L480,79.277L497.778,71.177L515.556,50.967L515.556,54.035L497.778,73.669L480,81.664L462.222,108.023L444.444,133.623L426.667,52.886L408.889,73.185L391.111,80.589L373.333,79.624L355.556,67.151L337.778,100.95L320,103.197L302.222,140.966L284.444,129.887L266.667,155.991L248.889,176.887L231.111,114.036L213.333,148.481L195.556,162.798L177.778,169.847L160,187.927L142.222,179.685L124.444,185.551L106.667,187.182L88.889,205.574L71.111,216.802L53.333,217.824L35.556,192.027L17.778,259.584L0,273.758Z" fill="rgba(93, 115, 102, 1)" opacity="0.95"/></g></g><path class="foreground" aria-hidden="true" d="" display="none"/></g><g transform="translate(0,0)"><path class="background" aria-hidden="true" d="M0,0h640v380h-640Z"/><g><g class="mark-area role-mark concat_1_layer_0_marks" role="graphics-object" aria-roledescription="area mark container"><path aria-label="year: 1995; value: $2; fill: #122b39; rank: 5" role="graphics-symbol" aria-roledescription="area mark" d="M0,273.902L17.778,261.583L35.556,194.289L53.333,221.231L71.111,220.061L88.889,207.742L106.667,189.175L124.444,189.243L142.222,183.059L160,191.321L177.778,172.887L195.556,166.957L213.333,153.839L231.111,121.835L248.889,181.172L266.667,160.464L284.444,135.731L302.222,146.382L320,108.197L337.778,106.192L355.556,71.735L373.333,85.731L391.111,87.472L408.889,80.563L426.667,59.87L444.444,139.251L462.222,115.184L480,90.556L497.778,82.94L515.556,62.559L515.556,72.557L497.778,93.47L480,100.387L462.222,124.959L444.444,147.319L426.667,70.027L408.889,91.764L391.111,97.553L373.333,95.296L355.556,82.231L337.778,115.812L320,119.04L302.222,156.377L284.444,146.365L266.667,169.254L248.889,188.08L231.111,134.767L213.333,163.949L195.556,174.884L177.778,180.579L160,198.969L142.222,189.832L124.444,195.863L106.667,195.46L88.889,213.339L71.111,225.878L53.333,227.494L35.556,198.84L17.778,265.132L0,277.706Z" fill="#122b39" opacity="0.95"/></g></g><path class="foreground" aria-hidden="true" d="" display="none"/></g><g transform="translate(0,0)"><path class="background" aria-hidden="true" d="M0,0h640v380h-640Z"/><g><g class="mark-area role-mark concat_1_layer_0_marks" role="graphics-object" aria-roledescription="area mark container"><path aria-label="year: 1995; value: $0; fill: #a8c0de; rank: 6" role="graphics-symbol" aria-roledescription="area mark" d="M0,273.758L17.778,259.584L35.556,192.027L53.333,217.824L71.111,216.802L88.889,205.574L106.667,187.182L124.444,185.551L142.222,179.685L160,187.927L177.778,169.847L195.556,162.798L213.333,148.481L231.111,114.036L248.889,176.887L266.667,155.991L284.444,129.887L302.222,140.966L320,103.197L337.778,100.95L355.556,67.151L373.333,79.624L391.111,80.589L408.889,73.185L426.667,52.886L444.444,133.623L462.222,108.023L480,81.664L497.778,73.669L515.556,54.035L515.556,62.559L497.778,82.94L480,90.556L462.222,115.184L444.444,139.251L426.667,59.87L408.889,80.563L391.111,87.472L373.333,85.731L355.556,71.735L337.778,106.192L320,108.197L302.222,146.382L284.444,135.731L266.667,160.464L248.889,181.172L231.111,121.835L213.333,153.839L195.556,166.957L177.778,172.887L160,191.321L142.222,183.059L124.444,189.243L106.667,189.175L88.889,207.742L71.111,220.061L53.333,221.231L35.556,194.289L17.778,261.583L0,273.902Z" fill="#a8c0de" opacity="0.95"/></g></g><path class="foreground" aria-hidden="true" d="" display="none"/></g><g transform="translate(0,0)"><path class="background" aria-hidden="true" d="M0,0h640v380h-640Z"/><g><g class="mark-area role-mark concat_1_layer_0_marks" role="graphics-object" aria-roledescription="area mark container"><path aria-label="year: 1995; value: $14; fill: #d6d4d4; rank: 8" role="graphics-symbol" aria-roledescription="area mark" d="M0,246.171L17.778,232.308L35.556,189.34L53.333,166.465L71.111,168.056L88.889,133.992L106.667,117.494L124.444,113.135L142.222,106.775L160,121.759L177.778,154.488L195.556,147.464L213.333,137.42L231.111,101.114L248.889,166.516L266.667,143.98L284.444,116.59L302.222,127.508L320,97.092L337.778,95.013L355.556,59.347L373.333,72.453L391.111,77.143L408.889,70.086L426.667,48.399L444.444,128.388L462.222,100.916L480,75.999L497.778,67.945L515.556,48.681L515.556,50.967L497.778,71.177L480,79.277L462.222,105.467L444.444,131.138L426.667,49.889L408.889,70.135L391.111,77.29L373.333,76.197L355.556,63.531L337.778,97.808L320,100.212L302.222,138.098L284.444,127.023L266.667,152.986L248.889,174.355L231.111,110.437L213.333,145.731L195.556,159.992L177.778,166.793L160,184.502L142.222,174.128L124.444,182.645L106.667,184.395L88.889,203.245L71.111,214.339L53.333,215.037L35.556,190.126L17.778,257.733L0,272.144Z" fill="#d6d4d4" opacity="0.95"/></g></g><path class="foreground" aria-hidden="true" d="" display="none"/></g><g transform="translate(0,0)"><path class="background" aria-hidden="true" d="M0,0h640v380h-640Z"/><g><g class="mark-area role-mark concat_1_layer_0_marks" role="graphics-object" aria-roledescription="area mark container"><path aria-label="year: 1995; value: $16; fill: #179fdb; rank: 0" role="graphics-symbol" aria-roledescription="area mark" d="M0,349.665L17.778,339.999L35.556,329.795L53.333,317.41L71.111,314.318L88.889,311.031L106.667,303.543L124.444,303.142L142.222,295.686L160,303.872L177.778,309.597L195.556,309.301L213.333,312.736L231.111,310.991L248.889,324.877L266.667,320.22L284.444,318.256L302.222,309.9L320,300.791L337.778,291.565L355.556,279.975L373.333,281.143L391.111,285.806L408.889,278.908L426.667,260.433L444.444,301.406L462.222,288.703L480,260.768L497.778,237.451L515.556,215.466L515.556,380L497.778,380L480,380L462.222,380L444.444,380L426.667,380L408.889,380L391.111,380L373.333,380L355.556,380L337.778,380L320,380L302.222,380L284.444,380L266.667,380L248.889,380L231.111,380L213.333,380L195.556,380L177.778,380L160,380L142.222,380L124.444,380L106.667,380L88.889,380L71.111,380L53.333,380L35.556,380L17.778,380L0,380Z" fill="#179fdb" opacity="0.95"/></g></g><path class="foreground" aria-hidden="true" d="" display="none"/></g><g transform="translate(0,0)"><path class="background" aria-hidden="true" d="M0,0h640v380h-640Z"/><g><g class="mark-area role-mark concat_1_layer_0_marks" role="graphics-object" aria-roledescription="area mark container"><path aria-label="year: 1995; value: $0; fill: rgba(24, 42, 56, 0.2); rank: 9" role="graphics-symbol" aria-roledescription="area mark" d="M0,245.986L17.778,232.096L35.556,188.887L53.333,166.06L71.111,167.179L88.889,133.467L106.667,116.719L124.444,112.243L142.222,106.329L160,121.232L177.778,153.86L195.556,146.489L213.333,135.995L231.111,98.808L248.889,162.764L266.667,138.93L284.444,111.554L302.222,124.47L320,94.203L337.778,92.465L355.556,57.095L373.333,70.28L391.111,74.981L408.889,68.174L426.667,45.988L444.444,125.924L462.222,98.601L480,74.418L497.778,66.716L515.556,47.06L515.556,48.681L497.778,67.945L480,75.999L462.222,100.916L444.444,128.388L426.667,48.399L408.889,70.086L391.111,77.143L373.333,72.453L355.556,59.347L337.778,95.013L320,97.092L302.222,127.508L284.444,116.59L266.667,143.98L248.889,166.516L231.111,101.114L213.333,137.42L195.556,147.464L177.778,154.488L160,121.759L142.222,106.775L124.444,113.135L106.667,117.494L88.889,133.992L71.111,168.056L53.333,166.465L35.556,189.34L17.778,232.308L0,246.171Z" fill="rgba(24, 42, 56, 0.2)" opacity="0.95"/></g></g><path class="foreground" aria-hidden="true" d="" display="none"/></g><g transform="translate(0,0)"><path class="background" aria-hidden="true" d="M0,0h640v380h-640Z"/><g><g class="mark-area role-mark concat_1_layer_0_marks" role="graphics-object" aria-roledescription="area mark container"><path aria-label="year: 1995; value: $11; fill: #e6224b; rank: 1" role="graphics-symbol" aria-roledescription="area mark" d="M0,328.084L17.778,316.795L35.556,261.603L53.333,289.602L71.111,278.52L88.889,262.786L106.667,241.977L124.444,239.686L142.222,234.156L160,244.622L177.778,234.95L195.556,234.848L213.333,235.093L231.111,223.153L248.889,256.892L266.667,242.074L284.444,236.422L302.222,238.021L320,209.067L337.778,198.313L355.556,173.321L373.333,180.933L391.111,189.567L408.889,182.762L426.667,163.864L444.444,231.046L462.222,208.933L480,189.232L497.778,177.733L515.556,159.25L515.556,215.466L497.778,237.451L480,260.768L462.222,288.703L444.444,301.406L426.667,260.433L408.889,278.908L391.111,285.806L373.333,281.143L355.556,279.975L337.778,291.565L320,300.791L302.222,309.9L284.444,318.256L266.667,320.22L248.889,324.877L231.111,310.991L213.333,312.736L195.556,309.301L177.778,309.597L160,303.872L142.222,295.686L124.444,303.142L106.667,303.543L88.889,311.031L71.111,314.318L53.333,317.41L35.556,329.795L17.778,339.999L0,349.665Z" fill="#e6224b" opacity="0.95"/></g></g><path class="foreground" aria-hidden="true" d="" display="none"/></g><g transform="translate(0,0)"><path class="background" aria-hidden="true" d="M0,0h640v380h-640Z"/><g><g class="mark-area role-mark concat_1_layer_0_marks" role="graphics-object" aria-roledescription="area mark container"><path aria-label="year: 1995; value: $0; fill: rgba(24, 42, 56, 0.1); rank: 10" role="graphics-symbol" aria-roledescription="area mark" d="M0,245.862L17.778,226.341L35.556,188.689L53.333,165.74L71.111,166.718L88.889,129.402L106.667,116.471L124.444,112.016L142.222,106.126L160,120.863L177.778,153.534L195.556,145.811L213.333,135.621L231.111,98.295L248.889,162.502L266.667,138.584L284.444,110.996L302.222,124.054L320,93.434L337.778,91.856L355.556,56.378L373.333,69.593L391.111,73.666L408.889,67.551L426.667,45.473L444.444,124.84L462.222,98.013L480,73.266L497.778,66.17L515.556,46.37L515.556,47.06L497.778,66.716L480,74.418L462.222,98.601L444.444,125.924L426.667,45.988L408.889,68.174L391.111,74.981L373.333,70.28L355.556,57.095L337.778,92.465L320,94.203L302.222,124.47L284.444,111.554L266.667,138.93L248.889,162.764L231.111,98.808L213.333,135.995L195.556,146.489L177.778,153.86L160,121.232L142.222,106.329L124.444,112.243L106.667,116.719L88.889,133.467L71.111,167.179L53.333,166.06L35.556,188.887L17.778,232.096L0,245.986Z" fill="rgba(24, 42, 56, 0.1)" opacity="0.95"/></g></g><path class="foreground" aria-hidden="true" d="" display="none"/></g></g><g class="mark-rule role-mark concat_1_layer_1_marks" role="graphics-object" aria-roledescription="rule mark container"><line aria-label="year: 2024; ymid: 43.298383424; label_x: 2024.6; ylab: 30.5761822794; tcol: #179fdb" role="graphics-symbol" aria-roledescription="rule mark" transform="translate(515.5555555555555,297.7330714943491)" x2="10.666666666665037" y2="24.172182174766533" stroke="#179fdb" stroke-width="1" opacity="0.55"/><line aria-label="year: 2024; ymid: 101.390542356; label_x: 2024.6; ylab: 88.6683412119; tcol: #e6224b" role="graphics-symbol" aria-roledescription="rule mark" transform="translate(515.5555555555555,187.35796952266853)" x2="10.666666666665037" y2="24.172182174766533" stroke="#e6224b" stroke-width="1" opacity="0.55"/><line aria-label="year: 2024; ymid: 129.340037261; label_x: 2024.6; ylab: 116.617836117; tcol: #f4c245" role="graphics-symbol" aria-roledescription="rule mark" transform="translate(515.5555555555555,134.25392920353343)" x2="10.666666666665037" y2="24.172182174766505" stroke="#f4c245" stroke-width="1" opacity="0.55"/><line aria-label="year: 2024; ymid: 149.064072733; label_x: 2024.6; ylab: 136.341871588; tcol: #eb5c2e" role="graphics-symbol" aria-roledescription="rule mark" transform="translate(515.5555555555555,96.77826180771058)" x2="10.666666666665037" y2="24.17218217476656" stroke="#eb5c2e" stroke-width="1" opacity="0.55"/><line aria-label="year: 2024; ymid: 158.722201145; label_x: 2024.6; ylab: 146; tcol: #36b7b4" role="graphics-symbol" aria-roledescription="rule mark" transform="translate(515.5555555555555,78.42781782523345)" x2="10.666666666665037" y2="24.17218217476656" stroke="#36b7b4" stroke-width="1" opacity="0.55"/><line aria-label="year: 2024; ymid: 164.443073967; label_x: 2024.6; ylab: 155; tcol: #122b39" role="graphics-symbol" aria-roledescription="rule mark" transform="translate(515.5555555555555,67.55815946291183)" x2="10.666666666665037" y2="17.941840537088154" stroke="#122b39" stroke-width="1" opacity="0.55"/><line aria-label="year: 2024; ymid: 169.317263211; label_x: 2024.6; ylab: 164; tcol: rgba(93, 115, 102, 1)" role="graphics-symbol" aria-roledescription="rule mark" transform="translate(515.5555555555555,58.29719989968384)" x2="10.666666666665037" y2="10.10280010031618" stroke="rgba(93, 115, 102, 1)" stroke-width="1" opacity="0.55"/><line aria-label="year: 2024; ymid: 172.367792901; label_x: 2024.6; ylab: 173; tcol: rgba(93, 115, 102, 1)" role="graphics-symbol" aria-roledescription="rule mark" transform="translate(515.5555555555555,52.50119348739188)" x2="10.666666666665037" y2="-1.2011934873918761" stroke="rgba(93, 115, 102, 1)" stroke-width="1" opacity="0.55"/><line aria-label="year: 2024; ymid: 173.776800162; label_x: 2024.6; ylab: 182; tcol: rgba(93, 115, 102, 1)" role="graphics-symbol" aria-roledescription="rule mark" transform="translate(515.5555555555555,49.82407969284504)" x2="10.666666666665037" y2="-15.62407969284505" stroke="rgba(93, 115, 102, 1)" stroke-width="1" opacity="0.55"/><line aria-label="year: 2024; ymid: 174.805016996; label_x: 2024.6; ylab: 191; tcol: rgba(93, 115, 102, 1)" role="graphics-symbol" aria-roledescription="rule mark" transform="translate(515.5555555555555,47.87046770759646)" x2="10.666666666665037" y2="-30.770467707596445" stroke="rgba(93, 115, 102, 1)" stroke-width="1" opacity="0.55"/><line aria-label="year: 2024; ymid: 175.413258166; label_x: 2024.6; ylab: 200; tcol: rgba(93, 115, 102, 1)" role="graphics-symbol" aria-roledescription="rule mark" transform="translate(515.5555555555555,46.71480948456279)" x2="10.666666666665037" y2="-46.71480948456279" stroke="rgba(93, 115, 102, 1)" stroke-width="1" opacity="0.55"/></g><g class="mark-text role-mark concat_1_layer_2_marks" role="graphics-object" aria-roledescription="text mark container"><text aria-label="label_x: 2024.6; ylab: 30.5761822794; tcol: #179fdb; band: Services" role="graphics-symbol" aria-roledescription="text mark" text-anchor="start" transform="translate(530.2222222222206,324.9052536691156)" font-family="Circular Std" font-size="11px" font-weight="600" fill="#179fdb">Services</text><text aria-label="label_x: 2024.6; ylab: 88.6683412119; tcol: #e6224b; band: Textiles" role="graphics-symbol" aria-roledescription="text mark" text-anchor="start" transform="translate(530.2222222222206,214.53015169743506)" font-family="Circular Std" font-size="11px" font-weight="600" fill="#e6224b">Textiles</text><text aria-label="label_x: 2024.6; ylab: 116.617836117; tcol: #f4c245; band: Agriculture" role="graphics-symbol" aria-roledescription="text mark" text-anchor="start" transform="translate(530.2222222222206,161.42611137829994)" font-family="Circular Std" font-size="11px" font-weight="600" fill="#f4c245">Agriculture</text><text aria-label="label_x: 2024.6; ylab: 136.341871588; tcol: #eb5c2e; band: Chemicals" role="graphics-symbol" aria-roledescription="text mark" text-anchor="start" transform="translate(530.2222222222206,123.95044398247714)" font-family="Circular Std" font-size="11px" font-weight="600" fill="#eb5c2e">Chemicals</text><text aria-label="label_x: 2024.6; ylab: 146; tcol: #36b7b4; band: Electronics" role="graphics-symbol" aria-roledescription="text mark" text-anchor="start" transform="translate(530.2222222222206,105.60000000000001)" font-family="Circular Std" font-size="11px" font-weight="600" fill="#36b7b4">Electronics</text><text aria-label="label_x: 2024.6; ylab: 155; tcol: #122b39; band: Metals" role="graphics-symbol" aria-roledescription="text mark" text-anchor="start" transform="translate(530.2222222222206,88.49999999999999)" font-family="Circular Std" font-size="11px" font-weight="600" fill="#122b39">Metals</text><text aria-label="label_x: 2024.6; ylab: 164; tcol: rgba(93, 115, 102, 1); band: Minerals" role="graphics-symbol" aria-roledescription="text mark" text-anchor="start" transform="translate(530.2222222222206,71.40000000000002)" font-family="Circular Std" font-size="11px" font-weight="600" fill="rgba(93, 115, 102, 1)">Minerals</text><text aria-label="label_x: 2024.6; ylab: 173; tcol: rgba(93, 115, 102, 1); band: Machinery" role="graphics-symbol" aria-roledescription="text mark" text-anchor="start" transform="translate(530.2222222222206,54.300000000000004)" font-family="Circular Std" font-size="11px" font-weight="600" fill="rgba(93, 115, 102, 1)">Machinery</text><text aria-label="label_x: 2024.6; ylab: 182; tcol: rgba(93, 115, 102, 1); band: Other" role="graphics-symbol" aria-roledescription="text mark" text-anchor="start" transform="translate(530.2222222222206,37.19999999999999)" font-family="Circular Std" font-size="11px" font-weight="600" fill="rgba(93, 115, 102, 1)">Other</text><text aria-label="label_x: 2024.6; ylab: 191; tcol: rgba(93, 115, 102, 1); band: Stone" role="graphics-symbol" aria-roledescription="text mark" text-anchor="start" transform="translate(530.2222222222206,20.100000000000016)" font-family="Circular Std" font-size="11px" font-weight="600" fill="rgba(93, 115, 102, 1)">Stone</text><text aria-label="label_x: 2024.6; ylab: 200; tcol: rgba(93, 115, 102, 1); band: Vehicles" role="graphics-symbol" aria-roledescription="text mark" text-anchor="start" transform="translate(530.2222222222206,3)" font-family="Circular Std" font-size="11px" font-weight="600" fill="rgba(93, 115, 102, 1)">Vehicles</text></g></g><path class="foreground" aria-hidden="true" d="" display="none"/></g></g><g class="mark-group role-scope concat_2_group" role="graphics-object" aria-roledescription="group mark container"><g transform="translate(0,457)"><path class="background" aria-hidden="true" d="M0,0h640v14h-640Z" stroke-width="0"/><g><g class="mark-text role-mark concat_2_marks" role="graphics-object" aria-roledescription="text mark container"><text text-anchor="start" transform="translate(0,15)" font-family="Circular Std" font-size="9.5px" fill="rgba(24, 42, 56)">Source: Atlas of Economic Complexity, Harvard Growth Lab.</text></g></g><path class="foreground" aria-hidden="true" d="" display="none"/></g></g></g><path class="foreground" aria-hidden="true" d="" display="none"/></g></g></g></svg>