<svg xmlns="http://www.w3.org/2000/svg" xmlns:xlink="http://www.w3.org/1999/xlink" version="1.1" class="marks" width="716" height="475" viewBox="0 0 716 475"><rect width="716" height="475" fill="white"/><g fill="none" stroke-miterlimit="10" transform="translate(42,5)"><g class="mark-group role-frame root" role="graphics-object" aria-roledescription="group mark container"><g transform="translate(0,0)"><path class="background" aria-hidden="true" d="M0,0h640v0h-640Z"/><g><g class="mark-group role-scope concat_0_group" role="graphics-object" aria-roledescription="group mark container"><g transform="translate(0,0)"><path class="background" aria-hidden="true" d="M0,0h640v22h-640Z" stroke-width="0"/><g><g class="mark-text role-mark concat_0_marks" role="graphics-object" aria-roledescription="text mark container"><text text-anchor="start" transform="translate(0,14)" font-family="Circular Std" font-size="16px" font-weight="bold" fill="#122b39">El Salvador: net migration as a share of population</text></g></g><path class="foreground" aria-hidden="true" d="" display="none"/></g></g><g class="mark-group role-scope concat_1_group" role="graphics-object" aria-roledescription="group mark container"><g transform="translate(0,46)"><path class="background" aria-hidden="true" d="M0,0h640v380h-640Z" stroke-width="0"/><g><g class="mark-group role-axis" aria-hidden="true"><g transform="translate(0.5,0.5)"><path class="background" aria-hidden="true" d="M0,0h0v0h0Z" pointer-events="none"/><g><g class="mark-rule role-axis-grid" pointer-events="none"><line transform="translate(0,380)" x2="640" y2="0" stroke="#122b39" stroke-opacity="0.5" stroke-width="1" stroke-dasharray="1,5" opacity="1"/><line transform="translate(0,311)" x2="640" y2="0" stroke="#122b39" stroke-opacity="0.5" stroke-width="1" stroke-dasharray="1,5" opacity="1"/><line transform="translate(0,242)" x2="640" y2="0" stroke="#122b39" stroke-opacity="0.5" stroke-width="1" stroke-dasharray="1,5" opacity="1"/><line transform="translate(0,173)" x2="640" y2="0" stroke="#122b39" stroke-opacity="0.5" stroke-width="1" stroke-dasharray="1,5" opacity="1"/><line transform="translate(0,104)" x2="640" y2="0" stroke="#122b39" stroke-opacity="0.5" stroke-width="1" stroke-dasharray="1,5" opacity="1"/><line transform="translate(0,35)" x2="640" y2="0" stroke="#122b39" stroke-opacity="0.5" stroke-width="1" stroke-dasharray="1,5" opacity="1"/></g></g><path class="foreground" aria-hidden="true" d="" pointer-events="none" display="none"/></g></g><g class="mark-group role-axis" role="graphics-symbol" aria-roledescription="axis" aria-label="X-axis for a linear scale with values from 1958 to 2029"><g transform="translate(0.5,380.5)"><path class="background" aria-hidden="true" d="M0,0h0v0h0Z" pointer-events="none"/><g><g class="mark-rule role-axis-tick" pointer-events="none"><line transform="translate(108,0)" x2="0" y2="0" stroke="#122b39" stroke-width="1" opacity="1"/><line transform="translate(243,0)" x2="0" y2="0" stroke="#122b39" stroke-width="1" opacity="1"/><line transform="translate(379,0)" x2="0" y2="0" stroke="#122b39" stroke-width="1" opacity="1"/><line transform="translate(514,0)" x2="0" y2="0" stroke="#122b39" stroke-width="1" opacity="1"/></g><g class="mark-text role-axis-label" pointer-events="none"><text text-anchor="middle" transform="translate(108.16901408450704,14)" font-family="Circular Std" font-size="11px" fill="#122b39" opacity="1">1970</text><text text-anchor="middle" transform="translate(243.38028169014083,14)" font-family="Circular Std" font-size="11px" fill="#122b39" opacity="1">1985</text><text text-anchor="middle" transform="translate(378.59154929577466,14)" font-family="Circular Std" font-size="11px" fill="#122b39" opacity="1">2000</text><text text-anchor="middle" transform="translate(513.8028169014085,14)" font-family="Circular Std" font-size="11px" fill="#122b39" opacity="1">2015</text></g><g class="mark-rule role-axis-domain" pointer-events="none"><line transform="translate(0,0)" x2="640" y2="0" stroke="#122b39" stroke-opacity="0.5" stroke-width="1" opacity="1"/></g></g><path class="foreground" aria-hidden="true" d="" pointer-events="none" display="none"/></g></g><g class="mark-group role-axis" role="graphics-symbol" aria-roledescription="axis" aria-label="Y-axis titled 'Net migration, % of population' for a linear scale with values from −2.5 to 0.3"><g transform="translate(0.5,0.5)"><path class="background" aria-hidden="true" d="M0,0h0v0h0Z" pointer-events="none"/><g><g class="mark-rule role-axis-tick" pointer-events="none"><line transform="translate(0,380)" x2="0" y2="0" stroke="#122b39" stroke-width="1" opacity="1"/><line transform="translate(0,311)" x2="0" y2="0" stroke="#122b39" stroke-width="1" opacity="1"/><line transform="translate(0,242)" x2="0" y2="0" stroke="#122b39" stroke-width="1" opacity="1"/><line transform="translate(0,173)" x2="0" y2="0" stroke="#122b39" stroke-width="1" opacity="1"/><line transform="translate(0,104)" x2="0" y2="0" stroke="#122b39" stroke-width="1" opacity="1"/><line transform="translate(0,35)" x2="0" y2="0" stroke="#122b39" stroke-width="1" opacity="1"/></g><g class="mark-text role-axis-label" pointer-events="none"><text text-anchor="end" transform="translate(-5,383)" font-family="Circular Std" font-size="11px" fill="#122b39" opacity="1">−2.5%</text><text text-anchor="end" transform="translate(-5,313.9090909090909)" font-family="Circular Std" font-size="11px" fill="#122b39" opacity="1">−2.0%</text><text text-anchor="end" transform="translate(-5,244.8181818181818)" font-family="Circular Std" font-size="11px" fill="#122b39" opacity="1">−1.5%</text><text text-anchor="end" transform="translate(-5,175.72727272727275)" font-family="Circular Std" font-size="11px" fill="#122b39" opacity="1">−1.0%</text><text text-anchor="end" transform="translate(-5,106.63636363636363)" font-family="Circular Std" font-size="11px" fill="#122b39" opacity="1">−0.5%</text><text text-anchor="end" transform="translate(-5,37.545454545454554)" font-family="Circular Std" font-size="11px" fill="#122b39" opacity="1">0.0%</text></g><g class="mark-rule role-axis-domain" pointer-events="none"><line transform="translate(0,380)" x2="0" y2="-380" stroke="#122b39" stroke-opacity="0.5" stroke-width="1" opacity="1"/></g><g class="mark-text role-axis-title" pointer-events="none"><text text-anchor="start" transform="translate(0,-9)" font-family="Circular Std" font-size="11px" font-weight="bold" fill="#122b39" fill-opacity="0.9" opacity="1">Net migration, % of population</text></g></g><path class="foreground" aria-hidden="true" d="" pointer-events="none" display="none"/></g></g><g class="mark-rule role-mark concat_1_layer_0_marks" role="graphics-object" aria-roledescription="rule mark container"><line aria-label="x: 1979" role="graphics-symbol" aria-roledescription="rule mark" transform="translate(189.29577464788733,0)" x2="0" y2="380" stroke="rgba(24, 42, 56)" stroke-width="1" stroke-dasharray="4,3" opacity="0.45"/><line aria-label="x: 1992" role="graphics-symbol" aria-roledescription="rule mark" transform="translate(306.4788732394366,0)" x2="0" y2="380" stroke="rgba(24, 42, 56)" stroke-width="1" stroke-dasharray="4,3" opacity="0.45"/></g><g class="mark-rule role-mark concat_1_layer_1_marks" role="graphics-object" aria-roledescription="rule mark container"><line aria-label="x: 2019" role="graphics-symbol" aria-roledescription="rule mark" transform="translate(549.8591549295775,0)" x2="0" y2="380" stroke="#122b39" stroke-width="1" stroke-dasharray="4,3" opacity="0.55"/></g><g class="mark-line role-mark concat_1_layer_2_marks" role="graphics-object" aria-roledescription="line mark container"><path aria-label="year: 1960; ratio: −0.174998092395" role="graphics-symbol" aria-roledescription="line mark" d="M18.028,58.727L27.042,54.57L36.056,82.838L45.07,79.139L54.085,69.789L63.099,58.559L72.113,51.11L81.127,47.575L90.141,46.133L99.155,51.372L108.169,77.358L117.183,94.816L126.197,96.75L135.211,102.432L144.225,112.88L153.239,122.402L162.254,137.327L171.268,126.882L180.282,133.487L189.296,171.179L198.31,251.594L207.324,328.907L216.338,145.627L225.352,139.323L234.366,120.274L243.38,116.728L252.394,123.611L261.408,122.212L270.423,116.473L279.437,134.189L288.451,136.112L297.465,161.842L306.479,153.866L315.493,231.654L324.507,245.702L333.521,257.358L342.535,262.997L351.549,263.454L360.563,267.856L369.577,262.302L378.592,255.095L387.606,248.459L396.62,244.377L405.634,239.899L414.648,235.826L423.662,233.575L432.676,232.044L441.69,165.275L450.704,163.086L459.718,162.408L468.732,159.077L477.746,155.782L486.761,148.784L495.775,145.038L504.789,144.693L513.803,149.132L522.817,140.377L531.831,147.092L540.845,154.876L549.859,157.006L558.873,90.426L567.887,94.942L576.901,85.712L585.915,85.47L594.93,84.911" stroke="#179fdb" stroke-width="2.75"/></g><g class="mark-text role-mark concat_1_layer_3_marks" role="graphics-object" aria-roledescription="text mark container"><text aria-label="x: 1985.5; y: 0.15; label: Civil war" role="graphics-symbol" aria-roledescription="text mark" text-anchor="middle" transform="translate(247.88732394366195,16.818181818181824)" font-family="Circular Std" font-size="10.5px" fill="rgba(24, 42, 56)">Civil war</text></g><g class="mark-text role-mark concat_1_layer_4_marks" role="graphics-object" aria-roledescription="text mark container"><text aria-label="x: 2019; y: −2.35; t: Bukele first term begins" role="graphics-symbol" aria-roledescription="text mark" text-anchor="start" transform="translate(554.8591549295775,362.27272727272725)" font-family="Circular Std" font-size="10.5px" fill="rgba(24, 42, 56)">Bukele first term begins</text></g><g class="mark-symbol role-mark concat_1_layer_5_layer_0_marks" role="graphics-object" aria-roledescription="symbol mark container"><path aria-label="x: 2024; y: −0.364488743085" role="graphics-symbol" aria-roledescription="point" transform="translate(594.9295774647887,84.91117177174233)" d="M3.873,0A3.873,3.873,0,1,1,-3.873,0A3.873,3.873,0,1,1,3.873,0" fill="#179fdb" stroke-width="2" opacity="1"/></g><g class="mark-text role-mark concat_1_layer_5_layer_1_marks" role="graphics-object" aria-roledescription="text mark container"><text aria-label="x: 2024; y: −0.364488743085; t: −0.36%" role="graphics-symbol" aria-roledescription="text mark" text-anchor="start" transform="translate(602.9295774647887,87.91117177174233)" font-family="Circular Std" font-size="11px" font-weight="600" fill="#179fdb">−0.36%</text></g></g><path class="foreground" aria-hidden="true" d="" display="none"/></g></g><g class="mark-group role-scope concat_2_group" role="graphics-object" aria-roledescription="group mark container"><g transform="translate(0,448)"><path class="background" aria-hidden="true" d="M0,0h640v14h-640Z" stroke-width="0"/><g><g class="mark-text role-mark concat_2_marks" role="graphics-object" aria-roledescription="text mark container"><text text-anchor="start" transform="translate(0,15)" font-family="Circular Std" font-size="9.5px" fill="rgba(24, 42, 56)">Source: World Bank, World Development Indicators. Note: negative values indicate net emigration.</text></g></g><path class="foreground" aria-hidden="true" d="" display="none"/></g></g></g><path class="foreground" aria-hidden="true" d="" display="none"/></g></g></g></svg>