<svg xmlns="http://www.w3.org/2000/svg" xmlns:xlink="http://www.w3.org/1999/xlink" version="1.1" class="marks" width="832" height="510" viewBox="0 0 832 510"><rect width="832" height="510" fill="white"/><g fill="none" stroke-miterlimit="10" transform="translate(52,41)"><g class="mark-group role-frame root" role="graphics-object" aria-roledescription="group mark container"><g transform="translate(0,0)"><path class="background" aria-hidden="true" d="M0,0h700v0h-700Z"/><g><g class="mark-group role-scope concat_0_group" role="graphics-object" aria-roledescription="group mark container"><g transform="translate(0,0)"><path class="background" aria-hidden="true" d="M0.5,0.5h700v420h-700Z"/><g><g class="mark-group role-axis" role="graphics-symbol" aria-roledescription="axis" aria-label="X-axis for a discrete scale with 25 values: 2000, 2001, 2002, 2003, 2004, ending with 2024"><g transform="translate(0.5,420.5)"><path class="background" aria-hidden="true" d="M0,0h0v0h0Z" pointer-events="none"/><g><g class="mark-rule role-axis-tick" pointer-events="none"><line transform="translate(14,0)" x2="0" y2="0" stroke="#122b39" stroke-width="1" opacity="1"/><line transform="translate(126,0)" x2="0" y2="0" stroke="#122b39" stroke-width="1" opacity="1"/><line transform="translate(238,0)" x2="0" y2="0" stroke="#122b39" stroke-width="1" opacity="1"/><line transform="translate(350,0)" x2="0" y2="0" stroke="#122b39" stroke-width="1" opacity="1"/><line transform="translate(462,0)" x2="0" y2="0" stroke="#122b39" stroke-width="1" opacity="1"/><line transform="translate(574,0)" x2="0" y2="0" stroke="#122b39" stroke-width="1" opacity="1"/><line transform="translate(686,0)" x2="0" y2="0" stroke="#122b39" stroke-width="1" opacity="1"/></g><g class="mark-text role-axis-label" pointer-events="none"><text text-anchor="middle" transform="translate(14,14)" font-family="Circular Std" font-size="11px" fill="#122b39" opacity="1">2000</text><text text-anchor="middle" transform="translate(126,14)" font-family="Circular Std" font-size="11px" fill="#122b39" opacity="1">2004</text><text text-anchor="middle" transform="translate(238,14)" font-family="Circular Std" font-size="11px" fill="#122b39" opacity="1">2008</text><text text-anchor="middle" transform="translate(350,14)" font-family="Circular Std" font-size="11px" fill="#122b39" opacity="1">2012</text><text text-anchor="middle" transform="translate(462,14)" font-family="Circular Std" font-size="11px" fill="#122b39" opacity="1">2016</text><text text-anchor="middle" transform="translate(574,14)" font-family="Circular Std" font-size="11px" fill="#122b39" opacity="1">2020</text><text text-anchor="middle" transform="translate(686,14)" font-family="Circular Std" font-size="11px" fill="#122b39" opacity="1">2024</text></g><g class="mark-rule role-axis-domain" pointer-events="none"><line transform="translate(0,0)" x2="700" y2="0" stroke="#122b39" stroke-opacity="0.5" stroke-width="1" opacity="1"/></g></g><path class="foreground" aria-hidden="true" d="" pointer-events="none" display="none"/></g></g><g class="mark-group role-axis" role="graphics-symbol" aria-roledescription="axis" aria-label="Y-axis titled 'Average annual wage (USD, PPP)' for a linear scale with values from 10,000 to 100,000"><g transform="translate(0.5,0.5)"><path class="background" aria-hidden="true" d="M0,0h0v0h0Z" pointer-events="none"/><g><g class="mark-rule role-axis-tick" pointer-events="none"><line transform="translate(0,420)" x2="0" y2="0" stroke="#122b39" stroke-width="1" opacity="1"/><line transform="translate(0,373)" x2="0" y2="0" stroke="#122b39" stroke-width="1" opacity="1"/><line transform="translate(0,327)" x2="0" y2="0" stroke="#122b39" stroke-width="1" opacity="1"/><line transform="translate(0,280)" x2="0" y2="0" stroke="#122b39" stroke-width="1" opacity="1"/><line transform="translate(0,233)" x2="0" y2="0" stroke="#122b39" stroke-width="1" opacity="1"/><line transform="translate(0,187)" x2="0" y2="0" stroke="#122b39" stroke-width="1" opacity="1"/><line transform="translate(0,140)" x2="0" y2="0" stroke="#122b39" stroke-width="1" opacity="1"/><line transform="translate(0,93)" x2="0" y2="0" stroke="#122b39" stroke-width="1" opacity="1"/><line transform="translate(0,47)" x2="0" y2="0" stroke="#122b39" stroke-width="1" opacity="1"/><line transform="translate(0,0)" x2="0" y2="0" stroke="#122b39" stroke-width="1" opacity="1"/></g><g class="mark-text role-axis-label" pointer-events="none"><text text-anchor="end" transform="translate(-5,423)" font-family="Circular Std" font-size="11px" fill="#122b39" opacity="1">10,000</text><text text-anchor="end" transform="translate(-5,376.3333333333333)" font-family="Circular Std" font-size="11px" fill="#122b39" opacity="1">20,000</text><text text-anchor="end" transform="translate(-5,329.6666666666667)" font-family="Circular Std" font-size="11px" fill="#122b39" opacity="1">30,000</text><text text-anchor="end" transform="translate(-5,283.00000000000006)" font-family="Circular Std" font-size="11px" fill="#122b39" opacity="1">40,000</text><text text-anchor="end" transform="translate(-5,236.33333333333334)" font-family="Circular Std" font-size="11px" fill="#122b39" opacity="1">50,000</text><text text-anchor="end" transform="translate(-5,189.66666666666666)" font-family="Circular Std" font-size="11px" fill="#122b39" opacity="1">60,000</text><text text-anchor="end" transform="translate(-5,143.00000000000003)" font-family="Circular Std" font-size="11px" fill="#122b39" opacity="1">70,000</text><text text-anchor="end" transform="translate(-5,96.33333333333333)" font-family="Circular Std" font-size="11px" fill="#122b39" opacity="1">80,000</text><text text-anchor="end" transform="translate(-5,49.666666666666686)" font-family="Circular Std" font-size="11px" fill="#122b39" opacity="1">90,000</text><text text-anchor="end" transform="translate(-5,3)" font-family="Circular Std" font-size="11px" fill="#122b39" opacity="1">100,000</text></g><g class="mark-rule role-axis-domain" pointer-events="none"><line transform="translate(0,420)" x2="0" y2="-420" stroke="#122b39" stroke-opacity="0.5" stroke-width="1" opacity="1"/></g><g class="mark-text role-axis-title" pointer-events="none"><text text-anchor="start" transform="translate(0,-9)" font-family="Circular Std" font-size="11px" font-weight="bold" fill="#122b39" fill-opacity="0.9" opacity="1">Average annual wage (USD, PPP)</text></g></g><path class="foreground" aria-hidden="true" d="" pointer-events="none" display="none"/></g></g><g class="mark-group role-scope concat_0_layer_0_pathgroup" role="graphics-object" aria-roledescription="group mark container"><g transform="translate(0,0)"><path class="background" aria-hidden="true" d="M0,0h700v420h-700Z"/><g><g class="mark-line role-mark concat_0_layer_0_marks" role="graphics-object" aria-roledescription="line mark container"><path aria-label="year: 2000; Average annual wage (USD, PPP): 57806.507; country_code: AUS" role="graphics-symbol" aria-roledescription="line mark" d="M14,196.903L42,194.233L70,191.755L98,187.842L126,179.064L154,175.712L182,173.744L210,165.663L238,163.354L266,166.105L294,155.374L322,145.064L350,142.833L378,143.783L406,140.571L434,142.497L462,140.903L490,141.964L518,140.783L546,137.658L574,131.061L602,127.322L630,134.82L658,138.03L686,136.564" stroke="#d6d4d4" stroke-width="0.7" opacity="0.35"/></g></g><path class="foreground" aria-hidden="true" d="" display="none"/></g><g transform="translate(0,0)"><path class="background" aria-hidden="true" d="M0,0h700v420h-700Z"/><g><g class="mark-line role-mark concat_0_layer_0_marks" role="graphics-object" aria-roledescription="line mark container"><path aria-label="year: 2000; Average annual wage (USD, PPP): 66028.413; country_code: AUT" role="graphics-symbol" aria-roledescription="line mark" d="M14,158.534L42,159.466L70,154.816L98,154.097L126,148.158L154,146.429L182,141.626L210,139.724L238,134.316L266,128.635L294,130.183L322,133.804L350,131.918L378,131.778L406,130.508L434,128.059L462,124.816L490,124.772L518,123.479L546,120.644L574,119.686L602,114.325L630,122.446L658,123.268L686,113.087" stroke="#d6d4d4" stroke-width="0.7" opacity="0.35"/></g></g><path class="foreground" aria-hidden="true" d="" display="none"/></g><g transform="translate(0,0)"><path class="background" aria-hidden="true" d="M0,0h700v420h-700Z"/><g><g class="mark-line role-mark concat_0_layer_0_marks" role="graphics-object" aria-roledescription="line mark container"><path aria-label="year: 2000; Average annual wage (USD, PPP): 69596.967; country_code: BEL" role="graphics-symbol" aria-roledescription="line mark" d="M14,141.881L42,140.891L70,132.481L98,130.489L126,132.252L154,135.427L182,133.176L210,133.795L238,132.359L266,127.704L294,129.271L322,125.822L350,123.066L378,119.662L406,117.718L434,120.091L462,119.349L490,121.779L518,119.738L546,116.322L574,126.968L602,116.237L630,123.525L658,113.579L686,111.492" stroke="#d6d4d4" stroke-width="0.7" opacity="0.35"/></g></g><path class="foreground" aria-hidden="true" d="" display="none"/></g><g transform="translate(0,0)"><path class="background" aria-hidden="true" d="M0,0h700v420h-700Z"/><g><g class="mark-line role-mark concat_0_layer_0_marks" role="graphics-object" aria-roledescription="line mark container"><path aria-label="year: 2000; Average annual wage (USD, PPP): 55365.75; country_code: CAN" role="graphics-symbol" aria-roledescription="line mark" d="M14,208.293L42,209.357L70,211.431L98,211.352L126,205.835L154,198.301L182,190.129L210,182.744L238,177.76L266,175.88L294,175.362L322,171.856L350,168.365L378,165.205L406,161.266L434,159.019L462,164.85L490,159.941L518,154.189L546,152.938L574,141.574L602,139.992L630,143.247L658,143.27L686,142.72" stroke="#d6d4d4" stroke-width="0.7" opacity="0.35"/></g></g><path class="foreground" aria-hidden="true" d="" display="none"/></g><g transform="translate(0,0)"><path class="background" aria-hidden="true" d="M0,0h700v420h-700Z"/><g><g class="mark-line role-mark concat_0_layer_0_marks" role="graphics-object" aria-roledescription="line mark container"><path aria-label="year: 2005; Average annual wage (USD, PPP): 22002.526; country_code: COL" role="graphics-symbol" aria-roledescription="line mark" d="M154,363.988L182,360.221L210,355.46L238,343.384L266,338.328L294,333.847L322,334.24L350,330.847L378,327.363L406,327.439L434,326.982L462,328.541L490,324.716L518,319.271L546,318.459L574,298.044L602,314.086L630,329.915L658,332.087" stroke="#d6d4d4" stroke-width="0.7" opacity="0.35"/></g></g><path class="foreground" aria-hidden="true" d="" display="none"/></g><g transform="translate(0,0)"><path class="background" aria-hidden="true" d="M0,0h700v420h-700Z"/><g><g class="mark-line role-mark concat_0_layer_0_marks" role="graphics-object" aria-roledescription="line mark container"><path aria-label="year: 2000; Average annual wage (USD, PPP): 25111.405; country_code: CRI" role="graphics-symbol" aria-roledescription="line mark" d="M14,349.48L42,345.556L70,344.199L98,348.018L126,347.977L154,358.537L182,354.452L210,356.564L238,352.119L266,336.265L294,330.494L322,323.965L350,320.856L378,308.985L406,308.128L434,297.471L462,290.52L490,291.163L518,287.548L546,282.557L574,264.933L602,269.613L630,285.883L658,275.288" stroke="#d6d4d4" stroke-width="0.7" opacity="0.35"/></g></g><path class="foreground" aria-hidden="true" d="" display="none"/></g><g transform="translate(0,0)"><path class="background" aria-hidden="true" d="M0,0h700v420h-700Z"/><g><g class="mark-line role-mark concat_0_layer_0_marks" role="graphics-object" aria-roledescription="line mark container"><path aria-label="year: 2000; Average annual wage (USD, PPP): 22209.995; country_code: CZE" role="graphics-symbol" aria-roledescription="line mark" d="M14,363.02L42,357.674L70,351.081L98,342.268L126,336.667L154,332.846L182,327.482L210,323.329L238,322.561L266,323.138L294,318.729L322,317.52L350,317.247L378,318.181L406,315.046L434,310.586L462,305.074L490,296.82L518,287.822L546,280.395L574,283.073L602,279.366L630,291.118L658,294.238L686,287.054" stroke="#d6d4d4" stroke-width="0.7" opacity="0.35"/></g></g><path class="foreground" aria-hidden="true" d="" display="none"/></g><g transform="translate(0,0)"><path class="background" aria-hidden="true" d="M0,0h700v420h-700Z"/><g><g class="mark-line role-mark concat_0_layer_0_marks" role="graphics-object" aria-roledescription="line mark container"><path aria-label="year: 2000; Average annual wage (USD, PPP): 57499.691; country_code: DNK" role="graphics-symbol" aria-roledescription="line mark" d="M14,198.335L42,196.686L70,190.514L98,183.709L126,177.444L154,172.486L182,167.523L210,164.139L238,160.171L266,154.962L294,151.892L322,153.637L350,153.739L378,151.68L406,145.267L434,140.123L462,137.019L490,135.025L518,132.571L546,130.171L574,125.416L602,123.272L630,134.636L658,133.174L686,121.232" stroke="#d6d4d4" stroke-width="0.7" opacity="0.35"/></g></g><path class="foreground" aria-hidden="true" d="" display="none"/></g><g transform="translate(0,0)"><path class="background" aria-hidden="true" d="M0,0h700v420h-700Z"/><g><g class="mark-line role-mark concat_0_layer_0_marks" role="graphics-object" aria-roledescription="line mark container"><path aria-label="year: 2000; Average annual wage (USD, PPP): 16215.205; country_code: EST" role="graphics-symbol" aria-roledescription="line mark" d="M14,390.996L42,388.363L70,383.741L98,375.773L126,368.576L154,362.039L182,352.435L210,333.888L238,332.149L266,335.396L294,336.844L322,339.846L350,337.928L378,334.768L406,327.499L434,320.988L462,313.549L490,310.159L518,299.967L546,291.68L574,282.531L602,272.209L630,286.57L658,288.68L686,284.784" stroke="#d6d4d4" stroke-width="0.7" opacity="0.35"/></g></g><path class="foreground" aria-hidden="true" d="" display="none"/></g><g transform="translate(0,0)"><path class="background" aria-hidden="true" d="M0,0h700v420h-700Z"/><g><g class="mark-line role-mark concat_0_layer_0_marks" role="graphics-object" aria-roledescription="line mark container"><path aria-label="year: 2000; Average annual wage (USD, PPP): 50356.433; country_code: FIN" role="graphics-symbol" aria-roledescription="line mark" d="M14,231.67L42,230.434L70,229.165L98,224.651L126,199.27L154,211.4L182,206.117L210,202.635L238,200.377L266,198.079L294,194.364L322,194.286L350,194.071L378,196.788L406,196.886L434,194.771L462,192.387L490,193.959L518,191.942L546,187.974L574,186.465L602,176.716L630,186.179L658,189.37L686,188.549" stroke="#d6d4d4" stroke-width="0.7" opacity="0.35"/></g></g><path class="foreground" aria-hidden="true" d="" display="none"/></g><g transform="translate(0,0)"><path class="background" aria-hidden="true" d="M0,0h700v420h-700Z"/><g><g class="mark-line role-mark concat_0_layer_0_marks" role="graphics-object" aria-roledescription="line mark container"><path aria-label="year: 2000; Average annual wage (USD, PPP): 50645.173; country_code: FRA" role="graphics-symbol" aria-roledescription="line mark" d="M14,230.323L42,228.835L70,222.417L98,220.425L126,216.411L154,213.395L182,210.566L210,209.63L238,210.122L266,201.964L294,196.619L322,197.103L350,195.349L378,193.024L406,191.131L434,188.532L462,185.339L490,181.44L518,181.805L546,179.052L574,193.243L602,182.463L630,181.27L658,186.011L686,183.829" stroke="#d6d4d4" stroke-width="0.7" opacity="0.35"/></g></g><path class="foreground" aria-hidden="true" d="" display="none"/></g><g transform="translate(0,0)"><path class="background" aria-hidden="true" d="M0,0h700v420h-700Z"/><g><g class="mark-line role-mark concat_0_layer_0_marks" role="graphics-object" aria-roledescription="line mark container"><path aria-label="year: 2000; Average annual wage (USD, PPP): 59354.424; country_code: DEU" role="graphics-symbol" aria-roledescription="line mark" d="M14,189.679L42,187.657L70,186.019L98,185.086L126,185.124L154,184.106L182,184.161L210,185.018L238,183.758L266,183.702L294,181.218L322,175.463L350,171.578L378,168.799L406,163.806L434,156.847L462,152.088L490,148.784L518,144.338L546,138.949L574,141.163L602,140.8L630,148.281L658,148.847L686,142.646" stroke="#d6d4d4" stroke-width="0.7" opacity="0.35"/></g></g><path class="foreground" aria-hidden="true" d="" display="none"/></g><g transform="translate(0,0)"><path class="background" aria-hidden="true" d="M0,0h700v420h-700Z"/><g><g class="mark-line role-mark concat_0_layer_0_marks" role="graphics-object" aria-roledescription="line mark container"><path aria-label="year: 2000; Average annual wage (USD, PPP): 34401.754; country_code: GRC" role="graphics-symbol" aria-roledescription="line mark" d="M14,306.125L42,300.729L70,285.64L98,277.666L126,274.2L154,274.843L182,272.561L210,272.525L238,275.53L266,266.507L294,275.644L322,287.767L350,298.18L378,309.185L406,309.837L434,308.294L462,311.931L490,310.939L518,318.128L546,317.881L574,317.444L602,315.982L630,319.869L658,319.211L686,316.133" stroke="#d6d4d4" stroke-width="0.7" opacity="0.35"/></g></g><path class="foreground" aria-hidden="true" d="" display="none"/></g><g transform="translate(0,0)"><path class="background" aria-hidden="true" d="M0,0h700v420h-700Z"/><g><g class="mark-line role-mark concat_0_layer_0_marks" role="graphics-object" aria-roledescription="line mark container"><path aria-label="year: 2000; Average annual wage (USD, PPP): 20062.623; country_code: HUN" role="graphics-symbol" aria-roledescription="line mark" d="M14,373.041L42,365.924L70,360.889L98,352.42L126,344.442L154,339.053L182,336.57L210,337.537L238,335.739L266,343.221L294,341.59L322,339.971L350,344.192L378,345.441L406,347.029L434,346.102L462,345.007L490,336.207L518,329.848L546,325.274L574,322.832L602,318.987L630,313.789L658,315.117L686,303.353" stroke="#d6d4d4" stroke-width="0.7" opacity="0.35"/></g></g><path class="foreground" aria-hidden="true" d="" display="none"/></g><g transform="translate(0,0)"><path class="background" aria-hidden="true" d="M0,0h700v420h-700Z"/><g><g class="mark-line role-mark concat_0_layer_0_marks" role="graphics-object" aria-roledescription="line mark container"><path aria-label="year: 2000; Average annual wage (USD, PPP): 67326.245; country_code: ISL" role="graphics-symbol" aria-roledescription="line mark" d="M14,152.478L42,154.884L70,145.923L98,154.069L126,135.191L154,109.481L182,90.69L210,79.4L238,123.358L266,176.478L294,167.717L322,154.963L350,156.673L378,152.004L406,147.554L434,126.522L462,99.303L490,64.331L518,41.899L546,55.544L574,80.671L602,64.37L630,36.211L658,47.967L686,46.914" stroke="#d6d4d4" stroke-width="0.7" opacity="0.35"/></g></g><path class="foreground" aria-hidden="true" d="" display="none"/></g><g transform="translate(0,0)"><path class="background" aria-hidden="true" d="M0,0h700v420h-700Z"/><g><g class="mark-line role-mark concat_0_layer_0_marks" role="graphics-object" aria-roledescription="line mark container"><path aria-label="year: 2000; Average annual wage (USD, PPP): 49303.745; country_code: ISR" role="graphics-symbol" aria-roledescription="line mark" d="M14,236.583L42,230.12L70,239.741L98,246.369L126,249.683L154,250.072L182,244.494L210,242.278L238,245.913L266,252.322L294,251.764L322,249.898L350,262.89L378,262.314L406,260.905L434,254.244L462,245.5L490,238.521L518,231.172L546,225.892L574,225.591L602,212.756L630,210.512L658,210.681L686,211.231" stroke="#d6d4d4" stroke-width="0.7" opacity="0.35"/></g></g><path class="foreground" aria-hidden="true" d="" display="none"/></g><g transform="translate(0,0)"><path class="background" aria-hidden="true" d="M0,0h700v420h-700Z"/><g><g class="mark-line role-mark concat_0_layer_0_marks" role="graphics-object" aria-roledescription="line mark container"><path aria-label="year: 2000; Average annual wage (USD, PPP): 52237.08; country_code: ITA" role="graphics-symbol" aria-roledescription="line mark" d="M14,222.894L42,221.18L70,222.92L98,223.567L126,218.946L154,215.578L182,213.988L210,214.119L238,214.458L266,212.526L294,210.354L322,214.443L350,222.449L378,221.65L406,220.696L434,218.568L462,216.583L490,218.184L518,217.903L546,216.663L574,228.593L602,217.853L630,224.234L658,230.932L686,228.578" stroke="#d6d4d4" stroke-width="0.7" opacity="0.35"/></g></g><path class="foreground" aria-hidden="true" d="" display="none"/></g><g transform="translate(0,0)"><path class="background" aria-hidden="true" d="M0,0h700v420h-700Z"/><g><g class="mark-line role-mark concat_0_layer_0_marks" role="graphics-object" aria-roledescription="line mark container"><path aria-label="year: 2000; Average annual wage (USD, PPP): 50109.108; country_code: JPN" role="graphics-symbol" aria-roledescription="line mark" d="M14,232.824L42,235.701L70,240.527L98,239.941L126,237.236L154,231.479L182,232.294L210,231.51L238,232.564L266,235.528L294,236.248L322,235.123L350,234.991L378,233.629L406,235.681L434,237.039L462,234.544L490,234.37L518,230.511L546,228.209L574,230.01L602,228.024L630,231.194L658,237.192L686,235.919" stroke="#d6d4d4" stroke-width="0.7" opacity="0.35"/></g></g><path class="foreground" aria-hidden="true" d="" display="none"/></g><g transform="translate(0,0)"><path class="background" aria-hidden="true" d="M0,0h700v420h-700Z"/><g><g class="mark-line role-mark concat_0_layer_0_marks" role="graphics-object" aria-roledescription="line mark container"><path aria-label="year: 2000; Average annual wage (USD, PPP): 15604.122; country_code: LVA" role="graphics-symbol" aria-roledescription="line mark" d="M14,393.847L42,391.476L70,393.764L98,388.553L126,381.75L154,367.893L182,357.756L210,332.388L238,328.151L266,341.592L294,346.416L322,350.603L350,345.91L378,340.11L406,331.622L434,320.249L462,311.577L490,306.039L518,300.134L546,293.311L574,286.484L602,277.131L630,278.725L658,269.384L686,254.023" stroke="#d6d4d4" stroke-width="0.7" opacity="0.35"/></g></g><path class="foreground" aria-hidden="true" d="" display="none"/></g><g transform="translate(0,0)"><path class="background" aria-hidden="true" d="M0,0h700v420h-700Z"/><g><g class="mark-line role-mark concat_0_layer_0_marks" role="graphics-object" aria-roledescription="line mark container"><path aria-label="year: 2000; Average annual wage (USD, PPP): 19105.341; country_code: LTU" role="graphics-symbol" aria-roledescription="line mark" d="M14,377.508L42,372.585L70,366.214L98,355.311L126,343.132L154,330.17L182,310.383L210,300.278L238,297.158L266,319.077L294,318.461L322,315.371L350,312.834L378,306.942L406,299.54L434,288.903L462,280.27L490,269.677L518,260.806L546,246.943L574,235.79L602,220.805L630,235.689L658,232.43L686,219.811" stroke="#d6d4d4" stroke-width="0.7" opacity="0.35"/></g></g><path class="foreground" aria-hidden="true" d="" display="none"/></g><g transform="translate(0,0)"><path class="background" aria-hidden="true" d="M0,0h700v420h-700Z"/><g><g class="mark-line role-mark concat_0_layer_0_marks" role="graphics-object" aria-roledescription="line mark container"><path aria-label="year: 2000; Average annual wage (USD, PPP): 20612.173; country_code: MEX" role="graphics-symbol" aria-roledescription="line mark" d="M14,370.477L42,363.557L70,362.844L98,361.545L126,365.29L154,366.118L182,365.407L210,366.477L238,368.793L266,368.934L294,376.527L322,374.297L350,375.484L378,373.503L406,374.146L434,371.173L462,373.205L490,373.938L518,372.336L546,370.672L574,374.261L602,371.625L630,370.501L658,369.434L686,371.36" stroke="#d6d4d4" stroke-width="0.7" opacity="0.35"/></g></g><path class="foreground" aria-hidden="true" d="" display="none"/></g><g transform="translate(0,0)"><path class="background" aria-hidden="true" d="M0,0h700v420h-700Z"/><g><g class="mark-line role-mark concat_0_layer_0_marks" role="graphics-object" aria-roledescription="line mark container"><path aria-label="year: 2000; Average annual wage (USD, PPP): 72084.869; country_code: NLD" role="graphics-symbol" aria-roledescription="line mark" d="M14,130.271L42,125.279L70,124.22L98,121.804L126,116.379L154,116.381L182,117.143L210,112.271L238,110.121L266,96.44L294,95.944L322,97.141L350,95.911L378,94.801L406,96.822L434,92.316L462,90.823L490,93.563L518,97.695L546,100.296L574,92.273L602,96.545L630,110.888L658,118.771L686,114.94" stroke="#d6d4d4" stroke-width="0.7" opacity="0.35"/></g></g><path class="foreground" aria-hidden="true" d="" display="none"/></g><g transform="translate(0,0)"><path class="background" aria-hidden="true" d="M0,0h700v420h-700Z"/><g><g class="mark-line role-mark concat_0_layer_0_marks" role="graphics-object" aria-roledescription="line mark container"><path aria-label="year: 2000; Average annual wage (USD, PPP): 42401.147; country_code: NZL" role="graphics-symbol" aria-roledescription="line mark" d="M14,268.795L42,265.045L70,261.32L98,253.705L126,246.247L154,242.518L182,241.142L210,227.97L238,230.742L266,227.86L294,225.245L322,225.423L350,220.212L378,223.514L406,222.564L434,218.167L462,210.071L490,208.311L518,201.859L546,193.882L574,186.749L602,174.772L630,178.1L658,177.568L686,175.296" stroke="#d6d4d4" stroke-width="0.7" opacity="0.35"/></g></g><path class="foreground" aria-hidden="true" d="" display="none"/></g><g transform="translate(0,0)"><path class="background" aria-hidden="true" d="M0,0h700v420h-700Z"/><g><g class="mark-line role-mark concat_0_layer_0_marks" role="graphics-object" aria-roledescription="line mark container"><path aria-label="year: 2000; Average annual wage (USD, PPP): 51727.496; country_code: NOR" role="graphics-symbol" aria-roledescription="line mark" d="M14,225.272L42,218.522L70,209.307L98,205.91L126,197.127L154,189.341L182,178.271L210,165.467L238,159.134L266,155.92L294,151.846L322,140.781L350,131.895L378,125.039L406,123.495L434,121.781L462,127.366L490,128.218L518,126.601L546,120.493L574,119.516L602,110.15L630,112.644L658,116.542L686,117.303" stroke="#d6d4d4" stroke-width="0.7" opacity="0.35"/></g></g><path class="foreground" aria-hidden="true" d="" display="none"/></g><g transform="translate(0,0)"><path class="background" aria-hidden="true" d="M0,0h700v420h-700Z"/><g><g class="mark-line role-mark concat_0_layer_0_marks" role="graphics-object" aria-roledescription="line mark container"><path aria-label="year: 2000; Average annual wage (USD, PPP): 37274.178; country_code: PRT" role="graphics-symbol" aria-roledescription="line mark" d="M14,292.721L42,292.022L70,292.097L98,292.499L126,292.268L154,293.222L182,296.986L210,295.854L238,296.424L266,289.759L294,290.419L322,294.489L350,302.05L378,298.93L406,301.673L434,302.067L462,302.017L490,301.336L518,298.64L546,292.114L574,290.914L602,287.446L630,289.513L658,284.862L686,279.989" stroke="#d6d4d4" stroke-width="0.7" opacity="0.35"/></g></g><path class="foreground" aria-hidden="true" d="" display="none"/></g><g transform="translate(0,0)"><path class="background" aria-hidden="true" d="M0,0h700v420h-700Z"/><g><g class="mark-line role-mark concat_0_layer_0_marks" role="graphics-object" aria-roledescription="line mark container"><path aria-label="year: 2000; Average annual wage (USD, PPP): 21643.829; country_code: SVK" role="graphics-symbol" aria-roledescription="line mark" d="M14,365.662L42,365.644L70,360.436L98,358.392L126,356.817L154,350.074L182,346.055L210,338.638L238,337.332L266,332.919L294,327.037L322,328.272L350,330.01L378,328.946L406,326.195L434,320.665L462,316.037L490,311.583L518,307.186L546,301.976L574,299.84L602,296.067L630,304.996L658,305.376L686,298.175" stroke="#d6d4d4" stroke-width="0.7" opacity="0.35"/></g></g><path class="foreground" aria-hidden="true" d="" display="none"/></g><g transform="translate(0,0)"><path class="background" aria-hidden="true" d="M0,0h700v420h-700Z"/><g><g class="mark-line role-mark concat_0_layer_0_marks" role="graphics-object" aria-roledescription="line mark container"><path aria-label="year: 2000; Average annual wage (USD, PPP): 38154.495; country_code: SVN" role="graphics-symbol" aria-roledescription="line mark" d="M14,288.612L42,281.412L70,281.071L98,276.905L126,267.285L154,260.009L182,253.548L210,248.911L238,245.307L266,243.143L294,236.792L322,237.559L350,244.893L378,247.457L406,243.542L434,239.229L462,230.764L490,225.339L518,220.998L546,214.094L574,206.611L602,195.503L630,205.658L658,193.517L686,178.377" stroke="#d6d4d4" stroke-width="0.7" opacity="0.35"/></g></g><path class="foreground" aria-hidden="true" d="" display="none"/></g><g transform="translate(0,0)"><path class="background" aria-hidden="true" d="M0,0h700v420h-700Z"/><g><g class="mark-line role-mark concat_0_layer_0_marks" role="graphics-object" aria-roledescription="line mark container"><path aria-label="year: 2000; Average annual wage (USD, PPP): 51905.267; country_code: ESP" role="graphics-symbol" aria-roledescription="line mark" d="M14,224.442L42,225.71L70,224.502L98,225.733L126,228.8L154,227.774L182,228.914L210,226.339L238,217.846L266,202.182L294,204.691L322,209.368L350,216.577L378,216.541L406,217.323L434,213.601L462,215.007L490,218.286L518,218.94L546,216.065L574,217.172L602,208.336L630,214.879L658,212.522L686,212.033" stroke="#d6d4d4" stroke-width="0.7" opacity="0.35"/></g></g><path class="foreground" aria-hidden="true" d="" display="none"/></g><g transform="translate(0,0)"><path class="background" aria-hidden="true" d="M0,0h700v420h-700Z"/><g><g class="mark-line role-mark concat_0_layer_0_marks" role="graphics-object" aria-roledescription="line mark container"><path aria-label="year: 2000; Average annual wage (USD, PPP): 44677.134; country_code: SWE" role="graphics-symbol" aria-roledescription="line mark" d="M14,258.173L42,255.714L70,252.91L98,251.128L126,244.015L154,238.45L182,232.058L210,224.177L238,219.532L266,218.699L294,215.656L322,211.802L350,206.42L378,203.517L406,200.585L434,196.621L462,192.397L490,190.879L518,189.503L546,186.576L574,183.013L602,176.213L630,184.022L658,191.062L686,184.729" stroke="#d6d4d4" stroke-width="0.7" opacity="0.35"/></g></g><path class="foreground" aria-hidden="true" d="" display="none"/></g><g transform="translate(0,0)"><path class="background" aria-hidden="true" d="M0,0h700v420h-700Z"/><g><g class="mark-line role-mark concat_0_layer_0_marks" role="graphics-object" aria-roledescription="line mark container"><path aria-label="year: 2000; Average annual wage (USD, PPP): 72385.662; country_code: CHE" role="graphics-symbol" aria-roledescription="line mark" d="M14,128.867L42,110.093L70,102.908L98,104.736L126,107.349L154,101.714L182,100.668L210,96.339L238,94.344L266,87.745L294,89.491L322,87.068L350,81.542L378,76.536L406,75.776L434,73.432L462,74.826L490,76.678L518,77.8L546,70.415L574,78.611L602,63.528L630,59.084L658,62.835L686,58.482" stroke="#d6d4d4" stroke-width="0.7" opacity="0.35"/></g></g><path class="foreground" aria-hidden="true" d="" display="none"/></g><g transform="translate(0,0)"><path class="background" aria-hidden="true" d="M0,0h700v420h-700Z"/><g><g class="mark-line role-mark concat_0_layer_0_marks" role="graphics-object" aria-roledescription="line mark container"><path aria-label="year: 2000; Average annual wage (USD, PPP): 21455.859; country_code: TUR" role="graphics-symbol" aria-roledescription="line mark" d="M14,366.539L42,374.756L70,373.508L98,367.739L126,361.193L154,357.221L182,356.622L210,352.834L238,353.489L266,352.206L294,349.358L322,347.462L350,342.651L378,336.942L406,332.517L434,329.134L462,312.21L490,315.115L518,312.379L546,302.579L574,303.572L602,297.582L630,300.181L658,246.155" stroke="#d6d4d4" stroke-width="0.7" opacity="0.35"/></g></g><path class="foreground" aria-hidden="true" d="" display="none"/></g><g transform="translate(0,0)"><path class="background" aria-hidden="true" d="M0,0h700v420h-700Z"/><g><g class="mark-line role-mark concat_0_layer_0_marks" role="graphics-object" aria-roledescription="line mark container"><path aria-label="year: 2000; Average annual wage (USD, PPP): 51214.815; country_code: OECD" role="graphics-symbol" aria-roledescription="line mark" d="M14,227.664L42,225.165L70,224.322L98,222.135L126,218.884L154,217.176L182,215.144L210,211.766L238,211.907L266,210.044L294,209.576L322,209.071L350,208.835L378,207.801L406,205.704L434,201.444L462,199.135L490,197.193L518,193.139L546,188.497L574,184.203L602,179.632L630,185.728L658,184.353L686,181.314" stroke="#d6d4d4" stroke-width="0.7" opacity="0.35"/></g></g><path class="foreground" aria-hidden="true" d="" display="none"/></g></g><g class="mark-group role-scope concat_0_layer_1_pathgroup" role="graphics-object" aria-roledescription="group mark container"><g transform="translate(0,0)"><path class="background" aria-hidden="true" d="M0,0h700v420h-700Z"/><g><g class="mark-line role-mark concat_0_layer_1_marks" role="graphics-object" aria-roledescription="line mark container"><path aria-label="year: 2000; value: 23827.814; label: " role="graphics-symbol" aria-roledescription="line mark" d="M14,355.47L42,351.546L70,350.011L98,348.158L126,350.088L154,350.893L182,347.055L210,343.703L238,340.608L266,327.694L294,299.091L322,295.226L350,290.196L378,285.532L406,283.887L434,284.425L462,276.347L490,282.297L518,298.151L546,295.439L574,294.522L602,285.255L630,290.797L658,288.728" stroke-width="2.5"/></g></g><path class="foreground" aria-hidden="true" d="" display="none"/></g><g transform="translate(0,0)"><path class="background" aria-hidden="true" d="M0,0h700v420h-700Z"/><g><g class="mark-line role-mark concat_0_layer_1_marks" role="graphics-object" aria-roledescription="line mark container"><path aria-label="year: 2000; value: 45898.423; label: Ireland" role="graphics-symbol" aria-roledescription="line mark" d="M14,252.474L42,243.467L70,240.737L98,233.735L126,225.362L154,215.315L182,213.32L210,205.855L238,194.259L266,167.714L294,166.433L322,170.741L350,173.274L378,179.805L406,182.234L434,182.311L462,178.591L490,175.092L518,171.046L546,166.394L574,161.779L602,164.678L630,175.75L658,183.829L686,184.656" stroke="#eb5c2e" stroke-width="2.5"/></g></g><path class="foreground" aria-hidden="true" d="" display="none"/></g><g transform="translate(0,0)"><path class="background" aria-hidden="true" d="M0,0h700v420h-700Z"/><g><g class="mark-line role-mark concat_0_layer_1_marks" role="graphics-object" aria-roledescription="line mark container"><path aria-label="year: 2000; value: 34917.22; label: South Korea" role="graphics-symbol" aria-roledescription="line mark" d="M14,303.72L42,298.072L70,292.274L98,285.83L126,281.75L154,276.046L182,273.59L210,269.414L238,270.002L266,268.982L294,265.879L322,263.246L350,266.236L378,261.173L406,260.747L434,255.023L462,248.82L490,243.696L518,236.016L546,228.093L574,222.607L602,222.077L630,230.198L658,231.869L686,228.915" stroke="#f4c245" stroke-width="2.5"/></g></g><path class="foreground" aria-hidden="true" d="" display="none"/></g><g transform="translate(0,0)"><path class="background" aria-hidden="true" d="M0,0h700v420h-700Z"/><g><g class="mark-line role-mark concat_0_layer_1_marks" role="graphics-object" aria-roledescription="line mark container"><path aria-label="year: 2000; value: 73914.368; label: Luxembourg" role="graphics-symbol" aria-roledescription="line mark" d="M14,121.733L42,119.969L70,112.974L98,115.399L126,111.308L154,109.525L182,104.673L210,94.846L238,96.957L266,85.435L294,85.215L322,83.093L350,86.989L378,82.401L406,76.111L434,73.924L462,74.974L490,70.075L518,67.859L546,67.036L574,65.651L602,45.92L630,47.346L658,32.389L686,25.915" stroke="#36b7b4" stroke-width="2.5"/></g></g><path class="foreground" aria-hidden="true" d="" display="none"/></g><g transform="translate(0,0)"><path class="background" aria-hidden="true" d="M0,0h700v420h-700Z"/><g><g class="mark-line role-mark concat_0_layer_1_marks" role="graphics-object" aria-roledescription="line mark container"><path aria-label="year: 2000; value: 27136.382; label: Poland" role="graphics-symbol" aria-roledescription="line mark" d="M14,340.03L42,332.836L70,333.311L98,331.682L126,334.658L154,335.175L182,334.296L210,329.958L238,322.777L266,322.869L294,317.017L322,316.19L350,317.667L378,316.047L406,312.61L434,308.816L462,300.465L490,293.669L518,282.63L546,271.263L574,267.822L602,268.878L630,277.486L658,272.638L686,260.35" stroke="#36b7b4" stroke-width="2.5"/></g></g><path class="foreground" aria-hidden="true" d="" display="none"/></g><g transform="translate(0,0)"><path class="background" aria-hidden="true" d="M0,0h700v420h-700Z"/><g><g class="mark-line role-mark concat_0_layer_1_marks" role="graphics-object" aria-roledescription="line mark container"><path aria-label="year: 2000; value: 52593.342; label: United Kingdom" role="graphics-symbol" aria-roledescription="line mark" d="M14,221.231L42,211.195L70,208.415L98,200.224L126,192.402L154,189.666L182,185.029L210,173.527L238,181.352L266,182.178L294,180.954L322,186.167L350,188.369L378,185.977L406,185.081L434,181.221L462,177.862L490,175.922L518,174.929L546,171.557L574,175.313L602,169.931L630,175.109L658,173.614L686,169.443" stroke="#179fdb" stroke-width="2.5"/></g></g><path class="foreground" aria-hidden="true" d="" display="none"/></g><g transform="translate(0,0)"><path class="background" aria-hidden="true" d="M0,0h700v420h-700Z"/><g><g class="mark-line role-mark concat_0_layer_1_marks" role="graphics-object" aria-roledescription="line mark container"><path aria-label="year: 2000; value: 64927.983; label: United States" role="graphics-symbol" aria-roledescription="line mark" d="M14,163.669L42,161.341L70,158.885L98,155.578L126,149.812L154,149.515L182,144.767L210,138.677L238,139.484L266,136.204L294,133.282L322,132.829L350,129.981L378,131.472L406,126.202L434,117.483L462,116.894L490,113.079L518,108.903L546,102.46L574,80.344L602,73.681L630,84.757L658,83.634L686,79.646" stroke="#e6224b" stroke-width="2.5"/></g></g><path class="foreground" aria-hidden="true" d="" display="none"/></g></g><g class="mark-line role-mark concat_0_layer_2_marks" role="graphics-object" aria-roledescription="line mark container"><path aria-label="year: 2000; value: 44397.1693947; label: OECD" role="graphics-symbol" aria-roledescription="line mark" d="M14,259.48L42,256.134L70,253.139L98,250.38L126,245.484L154,245.112L182,240.899L210,235.529L238,234.762L266,233.188L294,230.842L322,230.025L350,230.131L378,228.39L406,226.291L434,222.275L462,218.384L490,215.463L518,212.063L546,207.857L574,205.804L602,200.003L630,205.532L658,204.063L686,189.967" stroke="#122b39" stroke-width="2" stroke-dasharray="6,4"/></g><g class="mark-text role-mark concat_0_layer_3_marks" role="graphics-object" aria-roledescription="text mark container"><text aria-label="year: 2023; value: 38129.817; label: " role="graphics-symbol" aria-roledescription="text mark" text-anchor="start" transform="translate(664,291.7275206666667)" font-family="Circular Std" font-size="11px" font-weight="500"/><text aria-label="year: 2024; value: 63690.773; label: United Kingdom" role="graphics-symbol" aria-roledescription="text mark" text-anchor="start" transform="translate(692,172.4430593333333)" font-family="Circular Std" font-size="11px" font-weight="500" fill="#179fdb">United Kingdom</text><text aria-label="year: 2024; value: 60430.786; label: Ireland" role="graphics-symbol" aria-roledescription="text mark" text-anchor="start" transform="translate(692,187.65633200000002)" font-family="Circular Std" font-size="11px" font-weight="500" fill="#eb5c2e">Ireland</text><text aria-label="year: 2024; value: 50946.72; label: South Korea" role="graphics-symbol" aria-roledescription="text mark" text-anchor="start" transform="translate(692,231.91530666666665)" font-family="Circular Std" font-size="11px" font-weight="500" fill="#f4c245">South Korea</text><text aria-label="year: 2024; value: 94446.74; label: Luxembourg" role="graphics-symbol" aria-roledescription="text mark" text-anchor="start" transform="translate(692,28.915213333333323)" font-family="Circular Std" font-size="11px" font-weight="500" fill="#36b7b4">Luxembourg</text><text aria-label="year: 2024; value: 44210.61; label: Poland" role="graphics-symbol" aria-roledescription="text mark" text-anchor="start" transform="translate(692,263.35048666666665)" font-family="Circular Std" font-size="11px" font-weight="500" fill="#36b7b4">Poland</text><text aria-label="year: 2024; value: 82932.937; label: United States" role="graphics-symbol" aria-roledescription="text mark" text-anchor="start" transform="translate(692,82.64629399999998)" font-family="Circular Std" font-size="11px" font-weight="500" fill="#e6224b">United States</text></g><g class="mark-text role-mark concat_0_layer_4_marks" role="graphics-object" aria-roledescription="text mark container"><text aria-label="year: 2024; label_y: 58000; label: OECD" role="graphics-symbol" aria-roledescription="text mark" text-anchor="start" transform="translate(692,199)" font-family="Circular Std" font-size="11px" font-weight="500" fill="#122b39">OECD</text></g><g class="mark-group role-title"><g transform="translate(350,-35)"><path class="background" aria-hidden="true" d="M0,0h0v0h0Z" pointer-events="none"/><g><g class="mark-text role-title-text" role="graphics-symbol" aria-roledescription="title" aria-label="Title text 'UK wages have barely grown in two decades'" pointer-events="none"><text text-anchor="middle" transform="translate(0,10)" font-family="Circular Std" font-size="13px" font-weight="bold" fill="#000" opacity="1">UK wages have barely grown in two decades</text></g></g><path class="foreground" aria-hidden="true" d="" pointer-events="none" display="none"/></g></g></g><path class="foreground" aria-hidden="true" d="" display="none"/></g></g><g class="mark-group role-scope concat_1_group" role="graphics-object" aria-roledescription="group mark container"><g transform="translate(0,438)"><path class="background" aria-hidden="true" d="M0.5,0.5h700v16h-700Z"/><g><g class="mark-text role-mark concat_1_marks" role="graphics-object" aria-roledescription="text mark container"><text aria-label="text: Source: OECD." role="graphics-symbol" aria-roledescription="text mark" text-anchor="end" transform="translate(700,23)" font-family="Circular Std" font-size="10px" fill="#122b39" opacity="0.5">Source: OECD.</text></g></g><path class="foreground" aria-hidden="true" d="" display="none"/></g></g></g><path class="foreground" aria-hidden="true" d="" display="none"/></g></g></g></svg>