<svg xmlns="http://www.w3.org/2000/svg" xmlns:xlink="http://www.w3.org/1999/xlink" version="1.1" class="marks" width="540" height="347" viewBox="0 0 540 347"><rect width="540" height="347" fill="white"/><g fill="none" stroke-miterlimit="10" transform="translate(29,25)"><g class="mark-group role-frame root" role="graphics-object" aria-roledescription="group mark container"><g transform="translate(0,0)"><path class="background" aria-hidden="true" d="M0.5,0.5h500v300h-500Z"/><g><g class="mark-group role-axis" aria-hidden="true"><g transform="translate(0.5,0.5)"><path class="background" aria-hidden="true" d="M0,0h0v0h0Z" pointer-events="none"/><g><g class="mark-rule role-axis-grid" pointer-events="none"><line transform="translate(0,300)" x2="500" y2="0" stroke="#676A86" stroke-opacity="0.5" stroke-width="1" stroke-dasharray="1,5" opacity="1"/><line transform="translate(0,250)" x2="500" y2="0" stroke="#676A86" stroke-opacity="0.5" stroke-width="1" stroke-dasharray="1,5" opacity="1"/><line transform="translate(0,200)" x2="500" y2="0" stroke="#676A86" stroke-opacity="0.5" stroke-width="1" stroke-dasharray="1,5" opacity="1"/><line transform="translate(0,150)" x2="500" y2="0" stroke="#676A86" stroke-opacity="0.5" stroke-width="1" stroke-dasharray="1,5" opacity="1"/><line transform="translate(0,100)" x2="500" y2="0" stroke="#676A86" stroke-opacity="0.5" stroke-width="1" stroke-dasharray="1,5" opacity="1"/><line transform="translate(0,50)" x2="500" y2="0" stroke="#676A86" stroke-opacity="0.5" stroke-width="1" stroke-dasharray="1,5" opacity="1"/><line transform="translate(0,0)" x2="500" y2="0" stroke="#676A86" stroke-opacity="0.5" stroke-width="1" stroke-dasharray="1,5" opacity="1"/></g></g><path class="foreground" aria-hidden="true" d="" pointer-events="none" display="none"/></g></g><g class="mark-group role-axis" role="graphics-symbol" aria-roledescription="axis" aria-label="X-axis for a time scale with values from Thursday, 01 January 1998, 12:00:00 AM to Wednesday, 01 May 2024, 12:00:00 AM"><g transform="translate(0.5,300.5)"><path class="background" aria-hidden="true" d="M0,0h0v0h0Z" pointer-events="none"/><g><g class="mark-rule role-axis-tick" pointer-events="none"><line transform="translate(0,0)" x2="0" y2="5" stroke="#676A86" stroke-opacity="0.5" stroke-width="1" opacity="1"/><line transform="translate(38,0)" x2="0" y2="5" stroke="#676A86" stroke-opacity="0.5" stroke-width="1" opacity="1"/><line transform="translate(76,0)" x2="0" y2="5" stroke="#676A86" stroke-opacity="0.5" stroke-width="1" opacity="1"/><line transform="translate(114,0)" x2="0" y2="5" stroke="#676A86" stroke-opacity="0.5" stroke-width="1" opacity="1"/><line transform="translate(152,0)" x2="0" y2="5" stroke="#676A86" stroke-opacity="0.5" stroke-width="1" opacity="1"/><line transform="translate(190,0)" x2="0" y2="5" stroke="#676A86" stroke-opacity="0.5" stroke-width="1" opacity="1"/><line transform="translate(228,0)" x2="0" y2="5" stroke="#676A86" stroke-opacity="0.5" stroke-width="1" opacity="1"/><line transform="translate(266,0)" x2="0" y2="5" stroke="#676A86" stroke-opacity="0.5" stroke-width="1" opacity="1"/><line transform="translate(304,0)" x2="0" y2="5" stroke="#676A86" stroke-opacity="0.5" stroke-width="1" opacity="1"/><line transform="translate(342,0)" x2="0" y2="5" stroke="#676A86" stroke-opacity="0.5" stroke-width="1" opacity="1"/><line transform="translate(380,0)" x2="0" y2="5" stroke="#676A86" stroke-opacity="0.5" stroke-width="1" opacity="1"/><line transform="translate(418,0)" x2="0" y2="5" stroke="#676A86" stroke-opacity="0.5" stroke-width="1" opacity="1"/><line transform="translate(456,0)" x2="0" y2="5" stroke="#676A86" stroke-opacity="0.5" stroke-width="1" opacity="1"/><line transform="translate(494,0)" x2="0" y2="5" stroke="#676A86" stroke-opacity="0.5" stroke-width="1" opacity="1"/></g><g class="mark-text role-axis-label" pointer-events="none"><text text-anchor="start" transform="translate(0,15)" font-family="Circular Std" font-size="10px" fill="#676A86" fill-opacity="0.7" opacity="1">1998</text><text text-anchor="middle" transform="translate(37.95378822999303,15)" font-family="Circular Std" font-size="10px" fill="#676A86" fill-opacity="0.7" opacity="1">2000</text><text text-anchor="middle" transform="translate(75.95956795071207,15)" font-family="Circular Std" font-size="10px" fill="#676A86" fill-opacity="0.7" opacity="1">2002</text><text text-anchor="middle" transform="translate(113.9133561807051,15)" font-family="Circular Std" font-size="10px" fill="#676A86" fill-opacity="0.7" opacity="1">2004</text><text text-anchor="middle" transform="translate(151.91913590142414,15)" font-family="Circular Std" font-size="10px" fill="#676A86" fill-opacity="0.7" opacity="1">2006</text><text text-anchor="middle" transform="translate(189.87292413141716,15)" font-family="Circular Std" font-size="10px" fill="#676A86" fill-opacity="0.7" opacity="1">2008</text><text text-anchor="middle" transform="translate(227.8787038521362,15)" font-family="Circular Std" font-size="10px" fill="#676A86" fill-opacity="0.7" opacity="1">2010</text><text text-anchor="middle" transform="translate(265.83249208212925,15)" font-family="Circular Std" font-size="10px" fill="#676A86" fill-opacity="0.7" opacity="1">2012</text><text text-anchor="middle" transform="translate(303.8382718028483,15)" font-family="Circular Std" font-size="10px" fill="#676A86" fill-opacity="0.7" opacity="1">2014</text><text text-anchor="middle" transform="translate(341.7920600328413,15)" font-family="Circular Std" font-size="10px" fill="#676A86" fill-opacity="0.7" opacity="1">2016</text><text text-anchor="middle" transform="translate(379.79783975356037,15)" font-family="Circular Std" font-size="10px" fill="#676A86" fill-opacity="0.7" opacity="1">2018</text><text text-anchor="middle" transform="translate(417.75162798355336,15)" font-family="Circular Std" font-size="10px" fill="#676A86" fill-opacity="0.7" opacity="1">2020</text><text text-anchor="middle" transform="translate(455.7574077042724,15)" font-family="Circular Std" font-size="10px" fill="#676A86" fill-opacity="0.7" opacity="1">2022</text><text text-anchor="middle" transform="translate(493.71119593426545,15)" font-family="Circular Std" font-size="10px" fill="#676A86" fill-opacity="0.7" opacity="1">2024</text></g><g class="mark-rule role-axis-domain" pointer-events="none"><line transform="translate(0,0)" x2="500" y2="0" stroke="#676A86" stroke-opacity="0.5" stroke-width="1" opacity="1"/></g></g><path class="foreground" aria-hidden="true" d="" pointer-events="none" display="none"/></g></g><g class="mark-group role-axis" role="graphics-symbol" aria-roledescription="axis" aria-label="Y-axis titled 'Economic Policy Uncertainty Index' for a linear scale with values from 0 to 600"><g transform="translate(0.5,0.5)"><path class="background" aria-hidden="true" d="M0,0h0v0h0Z" pointer-events="none"/><g><g class="mark-text role-axis-label" pointer-events="none"><text text-anchor="end" transform="translate(-5,303)" font-family="Circular Std" font-size="10px" fill="#676A86" fill-opacity="0.7" opacity="1">0</text><text text-anchor="end" transform="translate(-5,253)" font-family="Circular Std" font-size="10px" fill="#676A86" fill-opacity="0.7" opacity="1">100</text><text text-anchor="end" transform="translate(-5,203.00000000000003)" font-family="Circular Std" font-size="10px" fill="#676A86" fill-opacity="0.7" opacity="1">200</text><text text-anchor="end" transform="translate(-5,153)" font-family="Circular Std" font-size="10px" fill="#676A86" fill-opacity="0.7" opacity="1">300</text><text text-anchor="end" transform="translate(-5,103.00000000000001)" font-family="Circular Std" font-size="10px" fill="#676A86" fill-opacity="0.7" opacity="1">400</text><text text-anchor="end" transform="translate(-5,52.999999999999986)" font-family="Circular Std" font-size="10px" fill="#676A86" fill-opacity="0.7" opacity="1">500</text><text text-anchor="end" transform="translate(-5,3)" font-family="Circular Std" font-size="10px" fill="#676A86" fill-opacity="0.7" opacity="1">600</text></g><g class="mark-rule role-axis-domain" pointer-events="none"><line transform="translate(0,300)" x2="0" y2="-300" stroke="#676A86" stroke-opacity="0.5" stroke-width="1" opacity="1"/></g><g class="mark-text role-axis-title" pointer-events="none"><text text-anchor="start" transform="translate(0,-10)" font-family="Circular Std" font-size="12px" font-weight="bold" fill="#676A86" fill-opacity="0.8" opacity="1">Economic Policy Uncertainty Index</text></g></g><path class="foreground" aria-hidden="true" d="" pointer-events="none" display="none"/></g></g><g class="mark-line role-mark marks" role="graphics-object" aria-roledescription="line mark container"><path aria-label="date: Jan 01, 1998; Economic Policy Uncertainty Index: 114.233030419" role="graphics-symbol" aria-roledescription="line mark" d="M0,242.883L1.612,264.424L3.067,225.957L4.677,226.512L6.237,244.242L7.849,257.254L9.408,209.603L11.02,229.701L12.632,203.069L14.192,171.966L15.805,213.571L17.365,238.228L18.977,250.188L20.589,255.349L22.044,257.648L23.654,268.035L25.214,264.056L26.825,273.872L28.385,259.384L29.997,263.712L31.609,266.436L33.168,238.438L34.782,286.577L36.342,275.655L37.954,273.126L39.566,270.802L41.073,269.02L42.683,242.995L44.243,276.816L45.854,233.392L47.414,263.147L49.026,278.626L50.638,272.211L52.197,272.089L53.811,265.504L55.371,266.775L56.983,280.796L58.594,271.653L60.05,254.179L61.66,249.505L63.219,250.872L64.831,262.579L66.391,266.808L68.003,247.434L69.614,197.372L71.174,220.639L72.788,226.942L74.348,245.943L75.96,257.247L77.571,264.603L79.027,261.836L80.637,260.956L82.196,266.297L83.808,256.56L85.368,255.764L86.98,253.138L88.591,236.364L90.151,245.785L91.765,242.45L93.325,240.679L94.936,226.97L96.548,210.631L98.004,212.514L99.614,223.247L101.173,253.143L102.785,237.497L104.345,259.532L105.956,258.319L107.568,267.294L109.128,268.851L110.742,260.776L112.302,276.854L113.913,287.982L115.525,271.435L117.033,269.058L118.642,280.724L120.202,278.559L121.814,275.28L123.374,273.691L124.985,280.303L126.597,275.417L128.157,266.435L129.771,265.637L131.331,277.545L132.942,278.005L134.554,280.177L136.01,282.961L137.619,265.471L139.179,264.114L140.791,270.298L142.351,276.293L143.962,275.729L145.574,264.834L147.134,279.693L148.748,276.22L150.307,283.447L151.919,277.98L153.531,281.434L154.987,278.772L156.596,281.457L158.156,262.989L159.768,270.09L161.327,276.228L162.939,266.393L164.551,271.883L166.111,267.372L167.725,270.255L169.284,267.756L170.896,275.384L172.508,273.464L173.964,261.472L175.573,269.518L177.133,266.713L178.745,273.266L180.304,275.621L181.916,261.306L183.528,233.867L185.088,254.154L186.701,234.188L188.261,224.563L189.873,230.714L191.485,227.108L192.992,215.625L194.602,235.245L196.162,243.741L197.773,246.495L199.333,243.307L200.945,228.178L202.557,204.47L204.116,178.883L205.73,215.225L207.29,238.254L208.902,235.277L210.514,235.024L211.969,244.052L213.579,244.155L215.139,241.695L216.75,222.907L218.31,235.519L219.922,241.126L221.534,249.962L223.093,246.229L224.707,246.214L226.267,232.011L227.879,225.867L229.49,228.329L230.946,219.956L232.556,219.498L234.116,178.231L235.727,207.991L237.287,228.569L238.899,217.008L240.51,236.049L242.07,211.099L243.684,223.376L245.244,238.611L246.856,238.16L248.467,240.439L249.923,234.289L251.533,251.032L253.092,252.878L254.704,238.651L256.264,225.486L257.876,211.123L259.487,223.336L261.047,225.155L262.661,195.051L264.221,229.686L265.832,231.369L267.444,233.99L268.952,248.135L270.562,245.344L272.121,224.107L273.733,215.175L275.293,235.008L276.905,250.911L278.516,237.782L280.076,223.004L281.69,218.95L283.25,229.678L284.861,206.115L286.473,251.309L287.929,245.518L289.538,249.296L291.098,263.509L292.71,254.746L294.27,265.906L295.881,254.176L297.493,252.869L299.053,244.502L300.667,258.963L302.227,255.288L303.838,248.001L305.45,241.152L306.906,244.476L308.515,264.437L310.075,254.918L311.687,265.611L313.247,268.832L314.858,233.763L316.47,211.858L318.03,252.015L319.644,256.717L321.203,239.204L322.815,232.135L324.427,240.458L325.883,234.251L327.492,214.763L329.052,229.544L330.664,225.592L332.223,231.95L333.835,256.928L335.447,232.462L337.007,255.043L338.621,239.569L340.18,258.564L341.792,232.184L343.404,204.592L344.912,154.535L346.521,201.415L348.081,176.623L349.693,48.029L351.252,20.888L352.864,144.318L354.476,195.181L356.036,164.988L357.649,120.586L359.209,201.828L360.821,171.076L362.433,202.978L363.888,183.77L365.498,215.412L367.058,220.299L368.669,140.504L370.229,208.171L371.841,224.398L373.453,229.611L375.012,207.985L376.626,192.515L378.186,219.639L379.798,238.42L381.41,245.126L382.865,241.697L384.475,248.856L386.035,239.228L387.646,247.257L389.206,235.189L390.818,239.185L392.43,221.342L393.989,208.374L395.603,204.017L397.163,180.154L398.775,145.014L400.386,201.52L401.842,193.609L403.452,232.241L405.012,220.659L406.623,225.097L408.183,198.978L409.795,180.542L411.406,206.295L412.966,183.344L414.58,197.201L416.14,164.348L417.752,200.922L419.363,230.189L420.871,159.396L422.481,207.324L424.04,184.622L425.652,216.151L427.212,205.019L428.824,211.726L430.435,207.742L431.995,205.438L433.609,192.769L435.169,196.197L436.781,243.68L438.392,230.995L439.848,228.797L441.458,252.36L443.017,250.944L444.629,254.833L446.189,255.858L447.801,260.445L449.412,260.65L450.972,248.005L452.586,262.341L454.146,212.584L455.757,255.9L457.369,259.642L458.825,214.977L460.434,238.282L461.994,247.402L463.606,240.594L465.166,207.864L466.777,237.855L468.389,184.97L469.949,100.097L471.563,189.947L473.123,216.184L474.734,229.966L476.346,239.395L477.802,233.553L479.411,233.542L480.971,240.999L482.583,240.969L484.143,240.576L485.754,241.962L487.366,234.762L488.926,246.033L490.54,242.019L492.099,239.564L493.711,249.673L495.323,242.98L496.831,232.218L498.44,248.667L500,226.979" stroke="#36B7B4" stroke-width="2"/></g></g><path class="foreground" aria-hidden="true" d="" display="none"/></g></g></g></svg>