<svg xmlns="http://www.w3.org/2000/svg" xmlns:xlink="http://www.w3.org/1999/xlink" version="1.1" class="marks" width="561" height="332" viewBox="0 0 561 332"><rect width="561" height="332" fill="white"/><g fill="none" stroke-miterlimit="10" transform="translate(35,10)"><g class="mark-group role-frame root" role="graphics-object" aria-roledescription="group mark container"><g transform="translate(0,0)"><path class="background" aria-hidden="true" d="M0.5,0.5h500v300h-500Z"/><g><g class="mark-group role-axis" aria-hidden="true"><g transform="translate(0.5,0.5)"><path class="background" aria-hidden="true" d="M0,0h0v0h0Z" pointer-events="none"/><g><g class="mark-rule role-axis-grid" pointer-events="none"><line transform="translate(0,300)" x2="500" y2="0" stroke="#676A86" stroke-opacity="0.5" stroke-width="1" stroke-dasharray="1,5" opacity="1"/><line transform="translate(0,240)" x2="500" y2="0" stroke="#676A86" stroke-opacity="0.5" stroke-width="1" stroke-dasharray="1,5" opacity="1"/><line transform="translate(0,180)" x2="500" y2="0" stroke="#676A86" stroke-opacity="0.5" stroke-width="1" stroke-dasharray="1,5" opacity="1"/><line transform="translate(0,120)" x2="500" y2="0" stroke="#676A86" stroke-opacity="0.5" stroke-width="1" stroke-dasharray="1,5" opacity="1"/><line transform="translate(0,60)" x2="500" y2="0" stroke="#676A86" stroke-opacity="0.5" stroke-width="1" stroke-dasharray="1,5" opacity="1"/><line transform="translate(0,0)" x2="500" y2="0" stroke="#676A86" stroke-opacity="0.5" stroke-width="1" stroke-dasharray="1,5" opacity="1"/></g></g><path class="foreground" aria-hidden="true" d="" pointer-events="none" display="none"/></g></g><g class="mark-group role-axis" role="graphics-symbol" aria-roledescription="axis" aria-label="X-axis for a time scale with values from Sunday, 01 January 2012, 12:00:00 AM to Sunday, 01 January 2023, 12:00:00 AM"><g transform="translate(0.5,300.5)"><path class="background" aria-hidden="true" d="M0,0h0v0h0Z" pointer-events="none"/><g><g class="mark-rule role-axis-tick" pointer-events="none"><line transform="translate(0,0)" x2="0" y2="5" stroke="#676A86" stroke-opacity="0.5" stroke-width="1" opacity="1"/><line transform="translate(46,0)" x2="0" y2="5" stroke="#676A86" stroke-opacity="0.5" stroke-width="1" opacity="1"/><line transform="translate(91,0)" x2="0" y2="5" stroke="#676A86" stroke-opacity="0.5" stroke-width="1" opacity="1"/><line transform="translate(136,0)" x2="0" y2="5" stroke="#676A86" stroke-opacity="0.5" stroke-width="1" opacity="1"/><line transform="translate(182,0)" x2="0" y2="5" stroke="#676A86" stroke-opacity="0.5" stroke-width="1" opacity="1"/><line transform="translate(227,0)" x2="0" y2="5" stroke="#676A86" stroke-opacity="0.5" stroke-width="1" opacity="1"/><line transform="translate(273,0)" x2="0" y2="5" stroke="#676A86" stroke-opacity="0.5" stroke-width="1" opacity="1"/><line transform="translate(318,0)" x2="0" y2="5" stroke="#676A86" stroke-opacity="0.5" stroke-width="1" opacity="1"/><line transform="translate(364,0)" x2="0" y2="5" stroke="#676A86" stroke-opacity="0.5" stroke-width="1" opacity="1"/><line transform="translate(409,0)" x2="0" y2="5" stroke="#676A86" stroke-opacity="0.5" stroke-width="1" opacity="1"/><line transform="translate(455,0)" x2="0" y2="5" stroke="#676A86" stroke-opacity="0.5" stroke-width="1" opacity="1"/><line transform="translate(500,0)" x2="0" y2="5" stroke="#676A86" stroke-opacity="0.5" stroke-width="1" opacity="1"/></g><g class="mark-text role-axis-label" pointer-events="none"><text text-anchor="start" transform="translate(0,15)" font-family="Circular Std" font-size="10px" fill="#676A86" fill-opacity="0.7" opacity="1">2012</text><text text-anchor="middle" transform="translate(45.54504728720757,15)" font-family="Circular Std" font-size="10px" fill="#676A86" fill-opacity="0.7" opacity="1">2013</text><text text-anchor="middle" transform="translate(90.96565455450472,15)" font-family="Circular Std" font-size="10px" fill="#676A86" fill-opacity="0.7" opacity="1">2014</text><text text-anchor="middle" transform="translate(136.3862618218019,15)" font-family="Circular Std" font-size="10px" fill="#676A86" fill-opacity="0.7" opacity="1">2015</text><text text-anchor="middle" transform="translate(181.80686908909905,15)" font-family="Circular Std" font-size="10px" fill="#676A86" fill-opacity="0.7" opacity="1">2016</text><text text-anchor="middle" transform="translate(227.3519163763066,15)" font-family="Circular Std" font-size="10px" fill="#676A86" fill-opacity="0.7" opacity="1">2017</text><text text-anchor="middle" transform="translate(272.7725236436038,15)" font-family="Circular Std" font-size="10px" fill="#676A86" fill-opacity="0.7" opacity="1">2018</text><text text-anchor="middle" transform="translate(318.19313091090095,15)" font-family="Circular Std" font-size="10px" fill="#676A86" fill-opacity="0.7" opacity="1">2019</text><text text-anchor="middle" transform="translate(363.6137381781981,15)" font-family="Circular Std" font-size="10px" fill="#676A86" fill-opacity="0.7" opacity="1">2020</text><text text-anchor="middle" transform="translate(409.1587854654057,15)" font-family="Circular Std" font-size="10px" fill="#676A86" fill-opacity="0.7" opacity="1">2021</text><text text-anchor="middle" transform="translate(454.5793927327028,15)" font-family="Circular Std" font-size="10px" fill="#676A86" fill-opacity="0.7" opacity="1">2022</text><text text-anchor="end" transform="translate(500,15)" font-family="Circular Std" font-size="10px" fill="#676A86" fill-opacity="0.7" opacity="1">2023</text></g><g class="mark-rule role-axis-domain" pointer-events="none"><line transform="translate(0,0)" x2="500" y2="0" stroke="#676A86" stroke-opacity="0.5" stroke-width="1" opacity="1"/></g></g><path class="foreground" aria-hidden="true" d="" pointer-events="none" display="none"/></g></g><g class="mark-group role-axis" role="graphics-symbol" aria-roledescription="axis" aria-label="Y-axis for a linear scale with values from 0 to 100"><g transform="translate(0.5,0.5)"><path class="background" aria-hidden="true" d="M0,0h0v0h0Z" pointer-events="none"/><g><g class="mark-text role-axis-label" pointer-events="none"><text text-anchor="end" transform="translate(-5,303)" font-family="Circular Std" font-size="10px" fill="#676A86" fill-opacity="0.7" opacity="1">0%</text><text text-anchor="end" transform="translate(-5,243)" font-family="Circular Std" font-size="10px" fill="#676A86" fill-opacity="0.7" opacity="1">20%</text><text text-anchor="end" transform="translate(-5,183)" font-family="Circular Std" font-size="10px" fill="#676A86" fill-opacity="0.7" opacity="1">40%</text><text text-anchor="end" transform="translate(-5,123)" font-family="Circular Std" font-size="10px" fill="#676A86" fill-opacity="0.7" opacity="1">60%</text><text text-anchor="end" transform="translate(-5,62.999999999999986)" font-family="Circular Std" font-size="10px" fill="#676A86" fill-opacity="0.7" opacity="1">80%</text><text text-anchor="end" transform="translate(-5,3)" font-family="Circular Std" font-size="10px" fill="#676A86" fill-opacity="0.7" opacity="1">100%</text></g><g class="mark-rule role-axis-domain" pointer-events="none"><line transform="translate(0,300)" x2="0" y2="-300" stroke="#676A86" stroke-opacity="0.5" stroke-width="1" opacity="1"/></g></g><path class="foreground" aria-hidden="true" d="" pointer-events="none" display="none"/></g></g><g class="mark-group role-scope layer_0_pathgroup" role="graphics-object" aria-roledescription="group mark container"><g transform="translate(0,0)"><path class="background" aria-hidden="true" d="M0,0h500v300h-500Z"/><g><g class="mark-line role-mark layer_0_marks" role="graphics-object" aria-roledescription="line mark container"><path aria-label="year: Jan 01, 2012; value: 59.52; country: Belgium" role="graphics-symbol" aria-roledescription="line mark" d="M0,121.44L45.545,117.3L90.966,115.2L136.386,107.49L181.807,112.5L227.352,120.12L272.773,114.93L318.193,98.97L363.614,113.4L409.159,127.2L454.579,117" stroke="#C8BCB4" stroke-width="2"/></g></g><path class="foreground" aria-hidden="true" d="" display="none"/></g><g transform="translate(0,0)"><path class="background" aria-hidden="true" d="M0,0h500v300h-500Z"/><g><g class="mark-line role-mark layer_0_marks" role="graphics-object" aria-roledescription="line mark container"><path aria-label="year: Jan 01, 2012; value: 77.12; country: Austria" role="graphics-symbol" aria-roledescription="line mark" d="M0,68.64L45.545,72.6L90.966,70.2L136.386,71.22L181.807,79.89L227.352,75.51L272.773,75.27L318.193,96.18L363.614,91.8L409.159,94.8L454.579,99.3" stroke="#C8BCB4" stroke-width="2"/></g></g><path class="foreground" aria-hidden="true" d="" display="none"/></g><g transform="translate(0,0)"><path class="background" aria-hidden="true" d="M0,0h500v300h-500Z"/><g><g class="mark-line role-mark layer_0_marks" role="graphics-object" aria-roledescription="line mark container"><path aria-label="year: Jan 01, 2012; value: 83.17; country: Bulgaria" role="graphics-symbol" aria-roledescription="line mark" d="M0,50.49L45.545,53.1L90.966,44.1L136.386,48.12L181.807,35.49L227.352,35.22L272.773,38.31L318.193,38.07L363.614,50.1L409.159,39.3L454.579,36.6" stroke="#C8BCB4" stroke-width="2"/></g></g><path class="foreground" aria-hidden="true" d="" display="none"/></g><g transform="translate(0,0)"><path class="background" aria-hidden="true" d="M0,0h500v300h-500Z"/><g><g class="mark-line role-mark layer_0_marks" role="graphics-object" aria-roledescription="line mark container"><path aria-label="year: Jan 01, 2012; value: 75.9; country: Germany" role="graphics-symbol" aria-roledescription="line mark" d="M0,72.3L45.545,75.9L90.966,71.7L136.386,68.1L181.807,70.5L227.352,70.02L272.773,79.77L318.193,81.69L363.614,108L409.159,65.1L454.579,43.8" stroke="#C8BCB4" stroke-width="2"/></g></g><path class="foreground" aria-hidden="true" d="" display="none"/></g><g transform="translate(0,0)"><path class="background" aria-hidden="true" d="M0,0h500v300h-500Z"/><g><g class="mark-line role-mark layer_0_marks" role="graphics-object" aria-roledescription="line mark container"><path aria-label="year: Jan 01, 2012; value: 63.9333333333; country: Ireland" role="graphics-symbol" aria-roledescription="line mark" d="M0,108.2L45.545,144L90.966,111.3L136.386,107.76L181.807,112.98L227.352,118.2L272.773,134.55L318.193,143.07L363.614,155.4L409.159,168.9L454.579,157.8" stroke="#C8BCB4" stroke-width="2"/></g></g><path class="foreground" aria-hidden="true" d="" display="none"/></g><g transform="translate(0,0)"><path class="background" aria-hidden="true" d="M0,0h500v300h-500Z"/><g><g class="mark-line role-mark layer_0_marks" role="graphics-object" aria-roledescription="line mark container"><path aria-label="year: Jan 01, 2012; value: 71.83; country: Croatia" role="graphics-symbol" aria-roledescription="line mark" d="M0,84.51L45.545,93.555L90.966,102.6L136.386,94.02L181.807,84.54L227.352,95.16L272.773,86.52L318.193,95.37L363.614,126.9L409.159,84L454.579,85.8" stroke="#C8BCB4" stroke-width="2"/></g></g><path class="foreground" aria-hidden="true" d="" display="none"/></g><g transform="translate(0,0)"><path class="background" aria-hidden="true" d="M0,0h500v300h-500Z"/><g><g class="mark-line role-mark layer_0_marks" role="graphics-object" aria-roledescription="line mark container"><path aria-label="year: Jan 01, 2012; value: 77.68; country: Greece" role="graphics-symbol" aria-roledescription="line mark" d="M0,66.96L45.545,50.1L90.966,54.9L136.386,59.13L181.807,51.12L227.352,32.49L272.773,52.29L318.193,58.92L363.614,36L409.159,33L454.579,31.8" stroke="#C8BCB4" stroke-width="2"/></g></g><path class="foreground" aria-hidden="true" d="" display="none"/></g><g transform="translate(0,0)"><path class="background" aria-hidden="true" d="M0,0h500v300h-500Z"/><g><g class="mark-line role-mark layer_0_marks" role="graphics-object" aria-roledescription="line mark container"><path aria-label="year: Jan 01, 2012; value: 93.6; country: Cyprus" role="graphics-symbol" aria-roledescription="line mark" d="M0,19.2L45.545,24.6L90.966,27.6L136.386,24.12L181.807,26.1L227.352,26.07L272.773,30.75L318.193,29.61L363.614,32.7L409.159,42L454.579,32.4" stroke="#C8BCB4" stroke-width="2"/></g></g><path class="foreground" aria-hidden="true" d="" display="none"/></g><g transform="translate(0,0)"><path class="background" aria-hidden="true" d="M0,0h500v300h-500Z"/><g><g class="mark-line role-mark layer_0_marks" role="graphics-object" aria-roledescription="line mark container"><path aria-label="year: Jan 01, 2012; value: 77.18; country: Spain" role="graphics-symbol" aria-roledescription="line mark" d="M0,68.46L45.545,78.9L90.966,66.3L136.386,56.85L181.807,62.37L227.352,75.03L272.773,70.77L318.193,92.22L363.614,146.4L409.159,72.6L454.579,77.1" stroke="#C8BCB4" stroke-width="2"/></g></g><path class="foreground" aria-hidden="true" d="" display="none"/></g><g transform="translate(0,0)"><path class="background" aria-hidden="true" d="M0,0h500v300h-500Z"/><g><g class="mark-line role-mark layer_0_marks" role="graphics-object" aria-roledescription="line mark container"><path aria-label="year: Jan 01, 2012; value: 82.41; country: France" role="graphics-symbol" aria-roledescription="line mark" d="M0,52.77L45.545,67.2L90.966,65.7L136.386,59.88L181.807,55.98L227.352,62.64L272.773,65.73L318.193,65.97L363.614,101.7L409.159,56.7L454.579,57.3" stroke="#C8BCB4" stroke-width="2"/></g></g><path class="foreground" aria-hidden="true" d="" display="none"/></g><g transform="translate(0,0)"><path class="background" aria-hidden="true" d="M0,0h500v300h-500Z"/><g><g class="mark-line role-mark layer_0_marks" role="graphics-object" aria-roledescription="line mark container"><path aria-label="year: Jan 01, 2012; value: 79.82; country: Finland" role="graphics-symbol" aria-roledescription="line mark" d="M0,60.54L45.545,63.2L90.966,59.7L136.386,60.12L181.807,59.4L227.352,68.01L272.773,71.73L318.193,68.88L363.614,81.6L409.159,81.3L454.579,88.2" stroke="#C8BCB4" stroke-width="2"/></g></g><path class="foreground" aria-hidden="true" d="" display="none"/></g><g transform="translate(0,0)"><path class="background" aria-hidden="true" d="M0,0h500v300h-500Z"/><g><g class="mark-line role-mark layer_0_marks" role="graphics-object" aria-roledescription="line mark container"><path aria-label="year: Jan 01, 2012; value: 80.21; country: Italy" role="graphics-symbol" aria-roledescription="line mark" d="M0,59.37L45.545,58.2L90.966,71.4L136.386,93.39L181.807,61.86L227.352,63.99L272.773,59.49L318.193,75.36L363.614,140.1L409.159,126.6L454.579,117.6" stroke="#C8BCB4" stroke-width="2"/></g></g><path class="foreground" aria-hidden="true" d="" display="none"/></g><g transform="translate(0,0)"><path class="background" aria-hidden="true" d="M0,0h500v300h-500Z"/><g><g class="mark-line role-mark layer_0_marks" role="graphics-object" aria-roledescription="line mark container"><path aria-label="year: Jan 01, 2012; value: 78.18; country: Latvia" role="graphics-symbol" aria-roledescription="line mark" d="M0,65.46L45.545,75.3L90.966,73.2L136.386,65.58L181.807,62.34L227.352,71.55L272.773,74.49L318.193,93.06L363.614,105.6L409.159,97.8L454.579,95.4" stroke="#C8BCB4" stroke-width="2"/></g></g><path class="foreground" aria-hidden="true" d="" display="none"/></g><g transform="translate(0,0)"><path class="background" aria-hidden="true" d="M0,0h500v300h-500Z"/><g><g class="mark-line role-mark layer_0_marks" role="graphics-object" aria-roledescription="line mark container"><path aria-label="year: Jan 01, 2012; value: 85.82; country: Lithuania" role="graphics-symbol" aria-roledescription="line mark" d="M0,42.54L45.545,46.8L90.966,38.1L136.386,37.92L181.807,26.4L227.352,43.47L272.773,38.49L318.193,41.13L363.614,124.2L409.159,69.3L454.579,50.4" stroke="#C8BCB4" stroke-width="2"/></g></g><path class="foreground" aria-hidden="true" d="" display="none"/></g><g transform="translate(0,0)"><path class="background" aria-hidden="true" d="M0,0h500v300h-500Z"/><g><g class="mark-line role-mark layer_0_marks" role="graphics-object" aria-roledescription="line mark container"><path aria-label="year: Jan 01, 2012; value: 90.8; country: Malta" role="graphics-symbol" aria-roledescription="line mark" d="M0,27.6L45.545,32.4L90.966,38.4L136.386,34.59L181.807,39.03L227.352,46.62L272.773,39.45L318.193,39.09L363.614,43.2L409.159,37.2L454.579,36.9" stroke="#C8BCB4" stroke-width="2"/></g></g><path class="foreground" aria-hidden="true" d="" display="none"/></g><g transform="translate(0,0)"><path class="background" aria-hidden="true" d="M0,0h500v300h-500Z"/><g><g class="mark-line role-mark layer_0_marks" role="graphics-object" aria-roledescription="line mark container"><path aria-label="year: Jan 01, 2012; value: 77.29; country: Poland" role="graphics-symbol" aria-roledescription="line mark" d="M0,68.13L45.545,83.1L90.966,79.8L136.386,94.8L181.807,96.42L227.352,70.32L272.773,76.14L318.193,75.84L363.614,87.9L409.159,72.9L454.579,70.2" stroke="#C8BCB4" stroke-width="2"/></g></g><path class="foreground" aria-hidden="true" d="" display="none"/></g><g transform="translate(0,0)"><path class="background" aria-hidden="true" d="M0,0h500v300h-500Z"/><g><g class="mark-line role-mark layer_0_marks" role="graphics-object" aria-roledescription="line mark container"><path aria-label="year: Jan 01, 2012; value: 93.76; country: Portugal" role="graphics-symbol" aria-roledescription="line mark" d="M0,18.72L45.545,23.1L90.966,20.4L136.386,26.16L181.807,22.59L227.352,25.02L272.773,20.13L318.193,18.24L363.614,134.7L409.159,95.7L454.579,53.4" stroke="#C8BCB4" stroke-width="2"/></g></g><path class="foreground" aria-hidden="true" d="" display="none"/></g><g transform="translate(0,0)"><path class="background" aria-hidden="true" d="M0,0h500v300h-500Z"/><g><g class="mark-line role-mark layer_0_marks" role="graphics-object" aria-roledescription="line mark container"><path aria-label="year: Jan 01, 2012; value: 53.35; country: Norway" role="graphics-symbol" aria-roledescription="line mark" d="M0,139.95L45.545,150L90.966,108.6L136.386,111.03L181.807,100.38L227.352,112.14L272.773,108.84L318.193,120.93L363.614,144L409.159,110.55L454.579,90.9" stroke="#C8BCB4" stroke-width="2"/></g></g><path class="foreground" aria-hidden="true" d="" display="none"/></g><g transform="translate(0,0)"><path class="background" aria-hidden="true" d="M0,0h500v300h-500Z"/><g><g class="mark-line role-mark layer_0_marks" role="graphics-object" aria-roledescription="line mark container"><path aria-label="year: Jan 01, 2012; value: 94.92; country: Romania" role="graphics-symbol" aria-roledescription="line mark" d="M0,15.24L45.545,12L90.966,10.8L136.386,16.68L181.807,14.88L227.352,14.88L272.773,17.16L318.193,15.18L363.614,23.1L409.159,20.7L454.579,18.3" stroke="#C8BCB4" stroke-width="2"/></g></g><path class="foreground" aria-hidden="true" d="" display="none"/></g><g transform="translate(0,0)"><path class="background" aria-hidden="true" d="M0,0h500v300h-500Z"/><g><g class="mark-line role-mark layer_0_marks" role="graphics-object" aria-roledescription="line mark container"><path aria-label="year: Jan 01, 2012; value: 60.52; country: Sweden" role="graphics-symbol" aria-roledescription="line mark" d="M0,118.44L45.545,131.4L90.966,142.5L136.386,147.18L181.807,149.46L227.352,146.31L272.773,148.41L318.193,149.7L363.614,177.3L409.159,161.1L454.579,150.3" stroke="#C8BCB4" stroke-width="2"/></g></g><path class="foreground" aria-hidden="true" d="" display="none"/></g></g><g class="mark-line role-mark layer_1_marks" role="graphics-object" aria-roledescription="line mark container"><path aria-label="year: Jan 01, 2012; value: 49.925; country: UK" role="graphics-symbol" aria-roledescription="line mark" d="M0,150.225L45.545,146.475L90.966,143.7L136.386,160.59L181.807,172.29L227.352,171.54L272.773,175.95L318.193,182.85L363.614,209.19L409.159,232.14L454.579,237.99L500,255.75" stroke="#CE3140" stroke-width="2"/></g><g class="mark-line role-mark layer_2_marks" role="graphics-object" aria-roledescription="line mark container"><path aria-label="year: Jan 01, 2012; value: null; country: US" role="graphics-symbol" aria-roledescription="line mark" d="M90.966,33.75L136.386,38.31L181.807,40.05L227.352,42.66L272.773,46.86L318.193,51.96L363.614,83.01L409.159,70.65L454.579,81.42" stroke="#208FCE" stroke-width="2"/></g><g class="mark-text role-mark layer_3_marks" role="graphics-object" aria-roledescription="text mark container"><text aria-label="year: Jan 01, 2023; value: 72.86; country: US" role="graphics-symbol" aria-roledescription="text mark" text-anchor="start" transform="translate(470,88.41999999999999)" font-family="Circular Std" font-size="11px" fill="#208FCE">US</text></g><g class="mark-text role-mark layer_4_marks" role="graphics-object" aria-roledescription="text mark container"><text aria-label="year: Jan 01, 2023; value: 14.75; country: UK" role="graphics-symbol" aria-roledescription="text mark" text-anchor="start" transform="translate(505,269.75)" font-family="Circular Std" font-size="11px" fill="#E6224B">UK</text></g></g><path class="foreground" aria-hidden="true" d="" display="none"/></g></g></g></svg>