<svg xmlns="http://www.w3.org/2000/svg" xmlns:xlink="http://www.w3.org/1999/xlink" version="1.1" class="marks" width="538" height="365" viewBox="0 0 538 365"><rect width="538" height="365" fill="white"/><g fill="none" stroke-miterlimit="10" transform="translate(33,43)"><g class="mark-group role-frame root" role="graphics-object" aria-roledescription="group mark container"><g transform="translate(0,0)"><path class="background" aria-hidden="true" d="M0.5,0.5h500v300h-500Z"/><g><g class="mark-group role-axis" aria-hidden="true"><g transform="translate(0.5,0.5)"><path class="background" aria-hidden="true" d="M0,0h0v0h0Z" pointer-events="none"/><g><g class="mark-rule role-axis-grid" pointer-events="none"><line transform="translate(0,300)" x2="500" y2="0" stroke="#676A86" stroke-opacity="0.5" stroke-width="1" stroke-dasharray="1,5" opacity="1"/><line transform="translate(0,254)" x2="500" y2="0" stroke="#676A86" stroke-opacity="0.5" stroke-width="1" stroke-dasharray="1,5" opacity="1"/><line transform="translate(0,207)" x2="500" y2="0" stroke="#676A86" stroke-opacity="0.5" stroke-width="1" stroke-dasharray="1,5" opacity="1"/><line transform="translate(0,161)" x2="500" y2="0" stroke="#676A86" stroke-opacity="0.5" stroke-width="1" stroke-dasharray="1,5" opacity="1"/><line transform="translate(0,115)" x2="500" y2="0" stroke="#676A86" stroke-opacity="0.5" stroke-width="1" stroke-dasharray="1,5" opacity="1"/><line transform="translate(0,69)" x2="500" y2="0" stroke="#676A86" stroke-opacity="0.5" stroke-width="1" stroke-dasharray="1,5" opacity="1"/><line transform="translate(0,22)" x2="500" y2="0" stroke="#676A86" stroke-opacity="0.5" stroke-width="1" stroke-dasharray="1,5" opacity="1"/></g></g><path class="foreground" aria-hidden="true" d="" pointer-events="none" display="none"/></g></g><g class="mark-group role-axis" role="graphics-symbol" aria-roledescription="axis" aria-label="X-axis for a time scale with values from Tuesday, 01 January 1856, 12:00:00 AM to Tuesday, 05 November 2019, 12:00:00 AM"><g transform="translate(0.5,300.5)"><path class="background" aria-hidden="true" d="M0,0h0v0h0Z" pointer-events="none"/><g><g class="mark-rule role-axis-tick" pointer-events="none"><line transform="translate(12,0)" x2="0" y2="5" stroke="#676A86" stroke-opacity="0.5" stroke-width="1" opacity="1"/><line transform="translate(73,0)" x2="0" y2="5" stroke="#676A86" stroke-opacity="0.5" stroke-width="1" opacity="1"/><line transform="translate(134,0)" x2="0" y2="5" stroke="#676A86" stroke-opacity="0.5" stroke-width="1" opacity="1"/><line transform="translate(195,0)" x2="0" y2="5" stroke="#676A86" stroke-opacity="0.5" stroke-width="1" opacity="1"/><line transform="translate(256,0)" x2="0" y2="5" stroke="#676A86" stroke-opacity="0.5" stroke-width="1" opacity="1"/><line transform="translate(317,0)" x2="0" y2="5" stroke="#676A86" stroke-opacity="0.5" stroke-width="1" opacity="1"/><line transform="translate(378,0)" x2="0" y2="5" stroke="#676A86" stroke-opacity="0.5" stroke-width="1" opacity="1"/><line transform="translate(439,0)" x2="0" y2="5" stroke="#676A86" stroke-opacity="0.5" stroke-width="1" opacity="1"/></g><g class="mark-text role-axis-label" pointer-events="none"><text text-anchor="middle" transform="translate(12.20694242239443,15)" font-family="Circular Std" font-size="10px" fill="#676A86" fill-opacity="0.7" opacity="1">1860</text><text text-anchor="middle" transform="translate(73.24165453436659,15)" font-family="Circular Std" font-size="10px" fill="#676A86" fill-opacity="0.7" opacity="1">1880</text><text text-anchor="middle" transform="translate(134.27632873850172,15)" font-family="Circular Std" font-size="10px" fill="#676A86" fill-opacity="0.7" opacity="1">1900</text><text text-anchor="middle" transform="translate(195.30268565374396,15)" font-family="Circular Std" font-size="10px" fill="#676A86" fill-opacity="0.7" opacity="1">1920</text><text text-anchor="middle" transform="translate(256.3373977657161,15)" font-family="Circular Std" font-size="10px" fill="#676A86" fill-opacity="0.7" opacity="1">1940</text><text text-anchor="middle" transform="translate(317.3721098776883,15)" font-family="Circular Std" font-size="10px" fill="#676A86" fill-opacity="0.7" opacity="1">1960</text><text text-anchor="middle" transform="translate(378.4068219896604,15)" font-family="Circular Std" font-size="10px" fill="#676A86" fill-opacity="0.7" opacity="1">1980</text><text text-anchor="middle" transform="translate(439.44153410163256,15)" font-family="Circular Std" font-size="10px" fill="#676A86" fill-opacity="0.7" opacity="1">2000</text></g><g class="mark-rule role-axis-domain" pointer-events="none"><line transform="translate(0,0)" x2="500" y2="0" stroke="#676A86" stroke-opacity="0.5" stroke-width="1" opacity="1"/></g></g><path class="foreground" aria-hidden="true" d="" pointer-events="none" display="none"/></g></g><g class="mark-group role-axis" role="graphics-symbol" aria-roledescription="axis" aria-label="Y-axis titled 'Gross housebuilding, % of existing stock' for a linear scale with values from 0.0% to 3.2%"><g transform="translate(0.5,0.5)"><path class="background" aria-hidden="true" d="M0,0h0v0h0Z" pointer-events="none"/><g><g class="mark-text role-axis-label" pointer-events="none"><text text-anchor="end" transform="translate(-5,303)" font-family="Circular Std" font-size="10px" fill="#676A86" fill-opacity="0.7" opacity="1">0.0%</text><text text-anchor="end" transform="translate(-5,256.719723183391)" font-family="Circular Std" font-size="10px" fill="#676A86" fill-opacity="0.7" opacity="1">0.5%</text><text text-anchor="end" transform="translate(-5,210.439446366782)" font-family="Circular Std" font-size="10px" fill="#676A86" fill-opacity="0.7" opacity="1">1.0%</text><text text-anchor="end" transform="translate(-5,164.159169550173)" font-family="Circular Std" font-size="10px" fill="#676A86" fill-opacity="0.7" opacity="1">1.5%</text><text text-anchor="end" transform="translate(-5,117.878892733564)" font-family="Circular Std" font-size="10px" fill="#676A86" fill-opacity="0.7" opacity="1">2.0%</text><text text-anchor="end" transform="translate(-5,71.598615916955)" font-family="Circular Std" font-size="10px" fill="#676A86" fill-opacity="0.7" opacity="1">2.5%</text><text text-anchor="end" transform="translate(-5,25.318339100345995)" font-family="Circular Std" font-size="10px" fill="#676A86" fill-opacity="0.7" opacity="1">3.0%</text></g><g class="mark-rule role-axis-domain" pointer-events="none"><line transform="translate(0,300)" x2="0" y2="-300" stroke="#676A86" stroke-opacity="0.5" stroke-width="1" opacity="1"/></g><g class="mark-text role-axis-title" pointer-events="none"><text text-anchor="start" transform="translate(0,-28)" font-family="Circular Std" font-size="12px" font-weight="bold" fill="#676A86" fill-opacity="0.8" opacity="1">Gross housebuilding, % of existing stock</text></g></g><path class="foreground" aria-hidden="true" d="" pointer-events="none" display="none"/></g></g><g class="mark-area role-mark layer_0_marks" role="graphics-object" aria-roledescription="area mark container"><path aria-label="date: Mar 13, 1919; Gross housebuilding, % of existing stock: 0.000000%" role="graphics-symbol" aria-roledescription="area mark" d="M192.846,300L198.962,153.633L202.254,195.156L205.546,201.903L217.778,47.751L220.594,122.491L223.894,94.983L226.718,115.225L229.534,103.806L233.294,106.401L239.886,0L242.234,11.938L245.058,2.595L251.174,29.066L260.581,293.772L263.406,297.924L269.513,297.405L272.346,293.253L276.105,202.941L282.213,134.429L285.046,170.242L291.154,173.356L297.746,101.211L300.561,90.311L303.853,111.592L306.201,123.01L309.502,124.567L312.793,142.734L316.085,139.1L318.901,129.239L321.734,130.796L325.025,127.682L328.317,134.429L331.133,97.059L333.966,95.502L337.249,98.097L340.073,93.426L343.365,92.388L346.189,121.453L349.013,132.872L352.305,132.872L361.713,174.394L364.537,157.785L371.121,161.938L377.237,193.08L380.52,195.156L386.168,223.183L388.993,214.36L392.752,210.727L395.585,216.955L404.516,203.979L411.569,229.412L414.393,231.488L417.216,234.083L423.332,228.893L425.68,229.412L428.972,232.526L432.272,233.045L436.501,239.273L444.972,243.945L453.904,235.121L460.02,233.564L463.312,228.893L472.252,257.439L474.6,255.363L478.36,254.844L481.66,256.401L484.952,253.806L487.3,245.502L491.06,246.021L493.892,238.754L497.184,238.754L500,235.121L500,300L497.184,300L493.892,300L491.06,300L487.3,300L484.952,300L481.66,300L478.36,300L474.6,300L472.252,300L463.312,300L460.02,300L453.904,300L444.972,300L436.501,300L432.272,300L428.972,300L425.68,300L423.332,300L417.216,300L414.393,300L411.569,300L404.516,300L395.585,300L392.752,300L388.993,300L386.168,300L380.52,300L377.237,300L371.121,300L364.537,300L361.713,300L352.305,300L349.013,300L346.189,300L343.365,300L340.073,300L337.249,300L333.966,300L331.133,300L328.317,300L325.025,300L321.734,300L318.901,300L316.085,300L312.793,300L309.502,300L306.201,300L303.853,300L300.561,300L297.746,300L291.154,300L285.046,300L282.213,300L276.105,300L272.346,300L269.513,300L263.406,300L260.581,300L251.174,300L245.058,300L242.234,300L239.886,300L233.294,300L229.534,300L226.718,300L223.894,300L220.594,300L217.778,300L205.546,300L202.254,300L198.962,300L192.846,300Z" fill="#E6224B"/></g><g class="mark-group role-scope layer_1_pathgroup" role="graphics-object" aria-roledescription="group mark container"><g transform="translate(0,0)"><path class="background" aria-hidden="true" d="M0,0h500v300h-500Z"/><g><g class="mark-area role-mark layer_1_marks" role="graphics-object" aria-roledescription="area mark container"><path aria-label="date: Jan 01, 1856; Gross housebuilding, % of existing stock: 1.239252%; series: Private" role="graphics-symbol" aria-roledescription="area mark" d="M0,185.294L2.816,195.675L8.932,183.218L11.756,187.889L15.048,185.294L18.348,159.862L24.456,144.291L27.28,162.976L30.572,158.304L42.336,103.806L45.628,104.325L48.911,91.349L51.735,110.554L61.611,7.266L63.967,26.99L70.551,118.858L72.907,129.758L76.199,130.277L79.968,140.657L82.315,139.1L86.075,141.176L88.908,157.266L92.191,162.976L94.547,157.785L97.831,162.976L101.131,163.495L103.955,173.356L107.247,173.356L110.531,166.09L112.887,150.519L116.187,151.038L119.471,147.924L128.411,64.879L131.235,69.031L134.527,92.388L137.343,100.692L140.167,93.426L143.927,92.907L146.742,115.744L150.043,116.782L152.867,138.581L158.974,173.875L162.742,175.952L172.142,227.336L177.799,243.945L183.906,280.277L192.846,300L196.138,250.173L199.43,246.54L202.254,260.554L208.362,170.761L214.486,145.329L217.302,158.304L221.062,181.661L224.362,156.228L226.718,171.799L230.002,172.318L233.294,160.9L238.006,60.208L238.942,38.927L242.234,58.651L245.058,63.322L260.581,296.367L266.222,299.481L269.981,298.962L272.813,299.481L276.573,276.125L278.921,270.934L284.57,281.834L288.338,281.315L291.621,284.429L294.445,277.682L303.386,226.817L306.677,221.626L309.034,220.069L312.793,220.069L318.901,196.713L321.734,193.08L325.025,196.713L328.317,196.713L331.133,173.875L340.541,189.965L343.365,181.661L346.189,204.498L349.481,211.765L352.305,203.979L355.597,202.422L358.889,209.17L361.713,233.045L365.005,228.893L367.821,229.931L371.121,235.64L373.945,234.083L382.885,249.654L386.645,245.502L389.46,236.159L392.284,232.007L395.585,233.564L404.984,216.955L410.632,236.678L413.457,238.754L416.272,243.945L420.04,246.54L422.864,243.426L429.44,245.502L432.74,243.426L435.564,247.059L438.856,246.54L444.504,250.173L456.728,240.83L460.488,241.869L462.844,237.716L472.252,266.782L478.836,265.744L481.66,265.744L484.952,264.187L487.768,257.439L491.06,255.882L493.892,249.654L497.184,250.173L500,248.097L500,300L497.184,300L493.892,300L491.06,300L487.768,300L484.952,300L481.66,300L478.836,300L472.252,300L462.844,300L460.488,300L456.728,300L444.504,300L438.856,300L435.564,300L432.74,300L429.44,300L422.864,300L420.04,300L416.272,300L413.457,300L410.632,300L404.984,300L395.585,300L392.284,300L389.46,300L386.645,300L382.885,300L373.945,300L371.121,300L367.821,300L365.005,300L361.713,300L358.889,300L355.597,300L352.305,300L349.481,300L346.189,300L343.365,300L340.541,300L331.133,300L328.317,300L325.025,300L321.734,300L318.901,300L312.793,300L309.034,300L306.677,300L303.386,300L294.445,300L291.621,300L288.338,300L284.57,300L278.921,300L276.573,300L272.813,300L269.981,300L266.222,300L260.581,300L245.058,300L242.234,300L238.942,300L238.006,300L233.294,300L230.002,300L226.718,300L224.362,300L221.062,300L217.302,300L214.486,300L208.362,300L202.254,300L199.43,300L196.138,300L192.846,300L183.906,300L177.799,300L172.142,300L162.742,300L158.974,300L152.867,300L150.043,300L146.742,300L143.927,300L140.167,300L137.343,300L134.527,300L131.235,300L128.411,300L119.471,300L116.187,300L112.887,300L110.531,300L107.247,300L103.955,300L101.131,300L97.831,300L94.547,300L92.191,300L88.908,300L86.075,300L82.315,300L79.968,300L76.199,300L72.907,300L70.551,300L63.967,300L61.611,300L51.735,300L48.911,300L45.628,300L42.336,300L30.572,300L27.28,300L24.456,300L18.348,300L15.048,300L11.756,300L8.932,300L2.816,300L0,300Z" fill="#36b7b4"/></g></g><path class="foreground" aria-hidden="true" d="" display="none"/></g></g><g class="mark-group role-legend" role="graphics-symbol" aria-roledescription="legend" aria-label="Symbol legend for fill color with 2 values: Private, Public"><g transform="translate(0,-20)"><path class="background" aria-hidden="true" d="M0,0h103v11h-103Z" pointer-events="none"/><g><g class="mark-group role-legend-entry"><g transform="translate(0,0)"><path class="background" aria-hidden="true" d="M0,0h0v0h0Z" pointer-events="none"/><g><g class="mark-group role-scope" role="graphics-object" aria-roledescription="group mark container"><g transform="translate(0,0)"><path class="background" aria-hidden="true" d="M0,0h47.97999954223633v11h-47.97999954223633Z" pointer-events="none" opacity="1"/><g><g class="mark-symbol role-legend-symbol" pointer-events="none"><path transform="translate(6,6)" d="M5,0A5,5,0,1,1,-5,0A5,5,0,1,1,5,0" fill="#36b7b4" stroke-width="1.5" opacity="1"/></g><g class="mark-text role-legend-label" pointer-events="none"><text text-anchor="start" transform="translate(16,9)" font-family="Circular Std" font-size="10px" fill="#000" opacity="1">Private</text></g></g><path class="foreground" aria-hidden="true" d="" pointer-events="none" display="none"/></g><g transform="translate(58,0)"><path class="background" aria-hidden="true" d="M0,0h44.349998474121094v11h-44.349998474121094Z" pointer-events="none" opacity="1"/><g><g class="mark-symbol role-legend-symbol" pointer-events="none"><path transform="translate(6,6)" d="M5,0A5,5,0,1,1,-5,0A5,5,0,1,1,5,0" fill="#E6224B" stroke-width="1.5" opacity="1"/></g><g class="mark-text role-legend-label" pointer-events="none"><text text-anchor="start" transform="translate(16,9)" font-family="Circular Std" font-size="10px" fill="#000" opacity="1">Public</text></g></g><path class="foreground" aria-hidden="true" d="" pointer-events="none" display="none"/></g></g></g><path class="foreground" aria-hidden="true" d="" pointer-events="none" display="none"/></g></g></g><path class="foreground" aria-hidden="true" d="" pointer-events="none" display="none"/></g></g></g><path class="foreground" aria-hidden="true" d="" display="none"/></g></g></g></svg>