<svg xmlns="http://www.w3.org/2000/svg" xmlns:xlink="http://www.w3.org/1999/xlink" version="1.1" class="marks" width="639" height="415" viewBox="0 0 639 415"><rect width="639" height="415" fill="white"/><g fill="none" stroke-miterlimit="10" transform="translate(33,93)"><g class="mark-group role-frame root" role="graphics-object" aria-roledescription="group mark container"><g transform="translate(0,0)"><path class="background" aria-hidden="true" d="M0.5,0.5h600v300h-600Z"/><g><g class="mark-group role-axis" aria-hidden="true"><g transform="translate(0.5,0.5)"><path class="background" aria-hidden="true" d="M0,0h0v0h0Z" pointer-events="none"/><g><g class="mark-rule role-axis-grid" pointer-events="none"><line transform="translate(0,300)" x2="600" y2="0" stroke="#676A86" stroke-opacity="0.5" stroke-width="1" stroke-dasharray="1,5" opacity="1"/><line transform="translate(0,254)" x2="600" y2="0" stroke="#676A86" stroke-opacity="0.5" stroke-width="1" stroke-dasharray="1,5" opacity="1"/><line transform="translate(0,207)" x2="600" y2="0" stroke="#676A86" stroke-opacity="0.5" stroke-width="1" stroke-dasharray="1,5" opacity="1"/><line transform="translate(0,161)" x2="600" y2="0" stroke="#676A86" stroke-opacity="0.5" stroke-width="1" stroke-dasharray="1,5" opacity="1"/><line transform="translate(0,114)" x2="600" y2="0" stroke="#676A86" stroke-opacity="0.5" stroke-width="1" stroke-dasharray="1,5" opacity="1"/><line transform="translate(0,68)" x2="600" y2="0" stroke="#676A86" stroke-opacity="0.5" stroke-width="1" stroke-dasharray="1,5" opacity="1"/><line transform="translate(0,21)" x2="600" y2="0" stroke="#676A86" stroke-opacity="0.5" stroke-width="1" stroke-dasharray="1,5" opacity="1"/></g></g><path class="foreground" aria-hidden="true" d="" pointer-events="none" display="none"/></g></g><g class="mark-group role-axis" role="graphics-symbol" aria-roledescription="axis" aria-label="X-axis for a time scale with values from Sunday, 01 January 1922, 1:00:00 AM to Wednesday, 01 January 2020, 1:00:00 AM"><g transform="translate(0.5,300.5)"><path class="background" aria-hidden="true" d="M0,0h0v0h0Z" pointer-events="none"/><g><g class="mark-rule role-axis-tick" pointer-events="none"><line transform="translate(49,0)" x2="0" y2="5" stroke="#676A86" stroke-opacity="0.5" stroke-width="1" opacity="1"/><line transform="translate(110,0)" x2="0" y2="5" stroke="#676A86" stroke-opacity="0.5" stroke-width="1" opacity="1"/><line transform="translate(171,0)" x2="0" y2="5" stroke="#676A86" stroke-opacity="0.5" stroke-width="1" opacity="1"/><line transform="translate(233,0)" x2="0" y2="5" stroke="#676A86" stroke-opacity="0.5" stroke-width="1" opacity="1"/><line transform="translate(294,0)" x2="0" y2="5" stroke="#676A86" stroke-opacity="0.5" stroke-width="1" opacity="1"/><line transform="translate(355,0)" x2="0" y2="5" stroke="#676A86" stroke-opacity="0.5" stroke-width="1" opacity="1"/><line transform="translate(416,0)" x2="0" y2="5" stroke="#676A86" stroke-opacity="0.5" stroke-width="1" opacity="1"/><line transform="translate(478,0)" x2="0" y2="5" stroke="#676A86" stroke-opacity="0.5" stroke-width="1" opacity="1"/><line transform="translate(539,0)" x2="0" y2="5" stroke="#676A86" stroke-opacity="0.5" stroke-width="1" opacity="1"/><line transform="translate(600,0)" x2="0" y2="5" stroke="#676A86" stroke-opacity="0.5" stroke-width="1" opacity="1"/></g><g class="mark-text role-axis-label" pointer-events="none"><text text-anchor="middle" transform="translate(48.97957758283511,15)" font-family="Circular Std" font-size="10px" fill="#676A86" fill-opacity="0.7" opacity="1">1930</text><text text-anchor="middle" transform="translate(110.19654131977427,15)" font-family="Circular Std" font-size="10px" fill="#676A86" fill-opacity="0.7" opacity="1">1940</text><text text-anchor="middle" transform="translate(171.43026764262166,15)" font-family="Circular Std" font-size="10px" fill="#676A86" fill-opacity="0.7" opacity="1">1950</text><text text-anchor="middle" transform="translate(232.64723137956082,15)" font-family="Circular Std" font-size="10px" fill="#676A86" fill-opacity="0.7" opacity="1">1960</text><text text-anchor="middle" transform="translate(293.88095770240824,15)" font-family="Circular Std" font-size="10px" fill="#676A86" fill-opacity="0.7" opacity="1">1970</text><text text-anchor="middle" transform="translate(355.0979214393474,15)" font-family="Circular Std" font-size="10px" fill="#676A86" fill-opacity="0.7" opacity="1">1980</text><text text-anchor="middle" transform="translate(416.3316477621948,15)" font-family="Circular Std" font-size="10px" fill="#676A86" fill-opacity="0.7" opacity="1">1990</text><text text-anchor="middle" transform="translate(477.5486114991339,15)" font-family="Circular Std" font-size="10px" fill="#676A86" fill-opacity="0.7" opacity="1">2000</text><text text-anchor="middle" transform="translate(538.7823378219814,15)" font-family="Circular Std" font-size="10px" fill="#676A86" fill-opacity="0.7" opacity="1">2010</text><text text-anchor="end" transform="translate(599.9993015589205,15)" font-family="Circular Std" font-size="10px" fill="#676A86" fill-opacity="0.7" opacity="1">2020</text></g><g class="mark-rule role-axis-domain" pointer-events="none"><line transform="translate(0,0)" x2="600" y2="0" stroke="#676A86" stroke-opacity="0.5" stroke-width="1" opacity="1"/></g></g><path class="foreground" aria-hidden="true" d="" pointer-events="none" display="none"/></g></g><g class="mark-group role-axis" role="graphics-symbol" aria-roledescription="axis" aria-label="Y-axis for a linear scale with values from 0.0% to 3.2%"><g transform="translate(0.5,0.5)"><path class="background" aria-hidden="true" d="M0,0h0v0h0Z" pointer-events="none"/><g><g class="mark-text role-axis-label" pointer-events="none"><text text-anchor="end" transform="translate(-5,303)" font-family="Circular Std" font-size="10px" fill="#676A86" fill-opacity="0.7" opacity="1">0.0%</text><text text-anchor="end" transform="translate(-5,256.57142857142856)" font-family="Circular Std" font-size="10px" fill="#676A86" fill-opacity="0.7" opacity="1">0.5%</text><text text-anchor="end" transform="translate(-5,210.14285714285714)" font-family="Circular Std" font-size="10px" fill="#676A86" fill-opacity="0.7" opacity="1">1.0%</text><text text-anchor="end" transform="translate(-5,163.71428571428567)" font-family="Circular Std" font-size="10px" fill="#676A86" fill-opacity="0.7" opacity="1">1.5%</text><text text-anchor="end" transform="translate(-5,117.28571428571425)" font-family="Circular Std" font-size="10px" fill="#676A86" fill-opacity="0.7" opacity="1">2.0%</text><text text-anchor="end" transform="translate(-5,70.85714285714278)" font-family="Circular Std" font-size="10px" fill="#676A86" fill-opacity="0.7" opacity="1">2.5%</text><text text-anchor="end" transform="translate(-5,24.428571428571384)" font-family="Circular Std" font-size="10px" fill="#676A86" fill-opacity="0.7" opacity="1">3.0%</text></g><g class="mark-rule role-axis-domain" pointer-events="none"><line transform="translate(0,300)" x2="0" y2="-300" stroke="#676A86" stroke-opacity="0.5" stroke-width="1" opacity="1"/></g></g><path class="foreground" aria-hidden="true" d="" pointer-events="none" display="none"/></g></g><g class="mark-group role-scope pathgroup" role="graphics-object" aria-roledescription="group mark container"><g transform="translate(0,0)"><path class="background" aria-hidden="true" d="M0,0h600v300h-600Z"/><g><g class="mark-area role-mark marks" role="graphics-object" aria-roledescription="area mark container"><path aria-label="date: Jan 01, 1922; value: −0.005629%; series: Public" role="graphics-symbol" aria-roledescription="area mark" d="M0,300.523L12.237,300.523L12.237,206.969L18.372,206.969L18.372,234.669L42.862,234.669L42.862,217.944L48.98,217.944L48.98,240.418L61.217,240.418L61.217,223.171L67.352,223.171L67.352,231.533L79.589,231.533L79.589,245.645L85.707,245.645L85.707,261.847L91.842,261.847L91.842,252.439L97.961,252.439L97.961,238.85L110.197,238.85L110.197,217.944L128.569,217.944L128.569,298.955L146.941,298.955L146.941,297.387L153.059,297.387L153.059,293.206L159.178,293.206L159.178,225.261L177.549,225.261L177.549,189.199L189.803,189.199L189.803,188.153L214.293,188.153L214.293,184.495L220.411,184.495L220.411,201.22L232.648,201.22L232.648,222.648L244.901,222.648L244.901,232.056L251.02,232.056L251.02,237.282L257.138,237.282L257.138,231.533L263.273,231.533L263.273,236.76L269.392,236.76L269.392,223.693L287.763,223.693L287.763,202.787L293.882,202.787L293.882,211.15L300,211.15L300,216.899L306.118,216.899L306.118,220.557L312.253,220.557L312.253,228.92L330.608,228.92L330.608,240.418L336.744,240.418L336.744,228.92L348.98,228.92L348.98,227.352L379.589,227.352L379.589,278.049L385.724,278.049L385.724,278.571L391.842,278.571L391.842,282.23L410.214,282.23L410.214,287.456L422.451,287.456L422.451,292.683L428.569,292.683L428.569,291.115L434.704,291.115L434.704,289.547L446.941,289.547L446.941,285.366L459.194,285.366L459.194,286.934L465.313,286.934L465.313,290.07L471.431,290.07L471.431,291.115L489.803,291.115L489.803,293.206L520.411,293.206L520.411,291.638L526.53,291.638L526.53,291.115L544.901,291.115L544.901,290.07L557.155,290.07L557.155,290.07L563.273,290.07L563.273,290.592L569.392,290.592L569.392,289.024L575.51,289.024L575.51,287.979L581.645,287.979L581.645,290.07L587.763,290.07L587.763,287.979L593.882,287.979L593.882,288.502L600,288.502L600,287.456L600,300L600,300L593.882,300L593.882,300L587.763,300L587.763,300L581.645,300L581.645,300L575.51,300L575.51,300L569.392,300L569.392,300L563.273,300L563.273,300L557.155,300L557.155,300L544.901,300L544.901,300L526.53,300L526.53,300L520.411,300L520.411,300L489.803,300L489.803,300L471.431,300L471.431,300L465.313,300L465.313,300L459.194,300L459.194,300L446.941,300L446.941,300L434.704,300L434.704,300L428.569,300L428.569,300L422.451,300L422.451,300L410.214,300L410.214,300L391.842,300L391.842,300L385.724,300L385.724,300L379.589,300L379.589,300L348.98,300L348.98,300L336.744,300L336.744,300L330.608,300L330.608,300L312.253,300L312.253,300L306.118,300L306.118,300L300,300L300,300L293.882,300L293.882,300L287.763,300L287.763,300L269.392,300L269.392,300L263.273,300L263.273,300L257.138,300L257.138,300L251.02,300L251.02,300L244.901,300L244.901,300L232.648,300L232.648,300L220.411,300L220.411,300L214.293,300L214.293,300L189.803,300L189.803,300L177.549,300L177.549,300L159.178,300L159.178,300L153.059,300L153.059,300L146.941,300L146.941,300L128.569,300L128.569,300L110.197,300L110.197,300L97.961,300L97.961,300L91.842,300L91.842,300L85.707,300L85.707,300L79.589,300L79.589,300L67.352,300L67.352,300L61.217,300L61.217,300L48.98,300L48.98,300L42.862,300L42.862,300L18.372,300L18.372,300L12.237,300L12.237,300L0,300Z" fill="#E6224B"/></g></g><path class="foreground" aria-hidden="true" d="" display="none"/></g><g transform="translate(0,0)"><path class="background" aria-hidden="true" d="M0,0h600v300h-600Z"/><g><g class="mark-area role-mark marks" role="graphics-object" aria-roledescription="area mark container"><path aria-label="date: Jan 01, 1922; value: 0.011257%; series: Private" role="graphics-symbol" aria-roledescription="area mark" d="M0,298.955L12.237,298.955L12.237,152.613L18.372,152.613L18.372,194.425L42.862,194.425L42.862,62.718L48.98,62.718L48.98,121.777L61.217,121.777L61.217,94.077L67.352,94.077L67.352,102.962L79.589,102.962L79.589,106.098L85.707,106.098L85.707,0L91.842,0L91.842,10.453L97.961,10.453L97.961,2.091L110.197,2.091L110.197,28.223L128.569,28.223L128.569,294.251L146.941,294.251L146.941,296.341L153.059,296.341L153.059,292.683L159.178,292.683L159.178,201.22L177.549,201.22L177.549,169.861L189.803,169.861L189.803,172.474L214.293,172.474L214.293,110.279L220.411,110.279L220.411,121.777L232.648,121.777L232.648,142.16L244.901,142.16L244.901,128.049L251.02,128.049L251.02,130.139L257.138,130.139L257.138,127.003L263.273,127.003L263.273,133.275L269.392,133.275L269.392,97.213L287.763,97.213L287.763,91.986L293.882,91.986L293.882,91.463L300,91.463L300,120.732L306.118,120.732L306.118,131.707L312.253,131.707L312.253,131.707L330.608,131.707L330.608,172.474L336.744,172.474L336.744,156.794L348.98,156.794L348.98,160.976L379.589,160.976L379.589,213.763L385.724,213.763L385.724,210.105L391.842,210.105L391.842,215.854L410.214,215.854L410.214,203.833L422.451,203.833L422.451,228.397L428.569,228.397L428.569,229.965L434.704,229.965L434.704,233.624L446.941,233.624L446.941,227.875L459.194,227.875L459.194,232.056L465.313,232.056L465.313,232.578L471.431,232.578L471.431,237.282L489.803,237.282L489.803,242.509L520.411,242.509L520.411,232.578L526.53,232.578L526.53,227.875L544.901,227.875L544.901,256.098L557.155,256.098L557.155,254.53L563.273,254.53L563.273,256.098L569.392,256.098L569.392,252.439L575.51,252.439L575.51,244.599L581.645,244.599L581.645,245.122L587.763,245.122L587.763,237.805L593.882,237.805L593.882,237.805L600,237.805L600,234.669L600,287.456L600,288.502L593.882,288.502L593.882,287.979L587.763,287.979L587.763,290.07L581.645,290.07L581.645,287.979L575.51,287.979L575.51,289.024L569.392,289.024L569.392,290.592L563.273,290.592L563.273,290.07L557.155,290.07L557.155,290.07L544.901,290.07L544.901,291.115L526.53,291.115L526.53,291.638L520.411,291.638L520.411,293.206L489.803,293.206L489.803,291.115L471.431,291.115L471.431,290.07L465.313,290.07L465.313,286.934L459.194,286.934L459.194,285.366L446.941,285.366L446.941,289.547L434.704,289.547L434.704,291.115L428.569,291.115L428.569,292.683L422.451,292.683L422.451,287.456L410.214,287.456L410.214,282.23L391.842,282.23L391.842,278.571L385.724,278.571L385.724,278.049L379.589,278.049L379.589,227.352L348.98,227.352L348.98,228.92L336.744,228.92L336.744,240.418L330.608,240.418L330.608,228.92L312.253,228.92L312.253,220.557L306.118,220.557L306.118,216.899L300,216.899L300,211.15L293.882,211.15L293.882,202.787L287.763,202.787L287.763,223.693L269.392,223.693L269.392,236.76L263.273,236.76L263.273,231.533L257.138,231.533L257.138,237.282L251.02,237.282L251.02,232.056L244.901,232.056L244.901,222.648L232.648,222.648L232.648,201.22L220.411,201.22L220.411,184.495L214.293,184.495L214.293,188.153L189.803,188.153L189.803,189.199L177.549,189.199L177.549,225.261L159.178,225.261L159.178,293.206L153.059,293.206L153.059,297.387L146.941,297.387L146.941,298.955L128.569,298.955L128.569,217.944L110.197,217.944L110.197,238.85L97.961,238.85L97.961,252.439L91.842,252.439L91.842,261.847L85.707,261.847L85.707,245.645L79.589,245.645L79.589,231.533L67.352,231.533L67.352,223.171L61.217,223.171L61.217,240.418L48.98,240.418L48.98,217.944L42.862,217.944L42.862,234.669L18.372,234.669L18.372,206.969L12.237,206.969L12.237,300L0,300Z" fill="#36B7B4"/></g></g><path class="foreground" aria-hidden="true" d="" display="none"/></g></g><g class="mark-group role-legend" role="graphics-symbol" aria-roledescription="legend" aria-label="Symbol legend for fill color with 2 values: Private, Public"><g transform="translate(0,-29)"><path class="background" aria-hidden="true" d="M0,0h103v11h-103Z" pointer-events="none"/><g><g class="mark-group role-legend-entry"><g transform="translate(0,0)"><path class="background" aria-hidden="true" d="M0,0h0v0h0Z" pointer-events="none"/><g><g class="mark-group role-scope" role="graphics-object" aria-roledescription="group mark container"><g transform="translate(0,0)"><path class="background" aria-hidden="true" d="M0,0h47.97999954223633v11h-47.97999954223633Z" pointer-events="none" opacity="1"/><g><g class="mark-symbol role-legend-symbol" pointer-events="none"><path transform="translate(6,6)" d="M5,0A5,5,0,1,1,-5,0A5,5,0,1,1,5,0" fill="#36B7B4" stroke-width="1.5" opacity="1"/></g><g class="mark-text role-legend-label" pointer-events="none"><text text-anchor="start" transform="translate(16,9)" font-family="Circular Std" font-size="10px" fill="#000" opacity="1">Private</text></g></g><path class="foreground" aria-hidden="true" d="" pointer-events="none" display="none"/></g><g transform="translate(58,0)"><path class="background" aria-hidden="true" d="M0,0h44.349998474121094v11h-44.349998474121094Z" pointer-events="none" opacity="1"/><g><g class="mark-symbol role-legend-symbol" pointer-events="none"><path transform="translate(6,6)" d="M5,0A5,5,0,1,1,-5,0A5,5,0,1,1,5,0" fill="#E6224B" stroke-width="1.5" opacity="1"/></g><g class="mark-text role-legend-label" pointer-events="none"><text text-anchor="start" transform="translate(16,9)" font-family="Circular Std" font-size="10px" fill="#000" opacity="1">Public</text></g></g><path class="foreground" aria-hidden="true" d="" pointer-events="none" display="none"/></g></g></g><path class="foreground" aria-hidden="true" d="" pointer-events="none" display="none"/></g></g></g><path class="foreground" aria-hidden="true" d="" pointer-events="none" display="none"/></g></g><g class="mark-group role-title"><g transform="translate(-27.90999984741211,-88)"><path class="background" aria-hidden="true" d="M0,0h0v0h0Z" pointer-events="none"/><g><g class="mark-text role-title-text" role="graphics-symbol" aria-roledescription="title" aria-label="Title text 'Housebuilding in England and Wales'" pointer-events="none"><text text-anchor="start" transform="translate(30,10)" font-family="Circular Std" font-size="13px" font-weight="bold" fill="#000" opacity="1">Housebuilding in England and Wales</text></g><g class="mark-text role-title-subtitle" role="graphics-symbol" aria-roledescription="subtitle" aria-label="Subtitle text 'Gross housebuilding each year relative to existing stock Source: Waitling and Breach (2023) based on Holman (2005) '" pointer-events="none"><text text-anchor="start" transform="translate(30,25)" font-family="Circular Std" font-size="12px" fill="#676A86" opacity="1"><tspan>Gross housebuilding each year relative to existing stock</tspan><tspan x="0" dy="14">Source: Waitling and Breach (2023) based on Holman (2005)</tspan><tspan x="0" dy="14"/></text></g></g><path class="foreground" aria-hidden="true" d="" pointer-events="none" display="none"/></g></g></g><path class="foreground" aria-hidden="true" d="" display="none"/></g></g></g></svg>