<svg xmlns="http://www.w3.org/2000/svg" xmlns:xlink="http://www.w3.org/1999/xlink" version="1.1" class="marks" width="643" height="499" viewBox="0 0 643 499"><rect width="643" height="499" fill="#F5F4EF"/><g fill="none" stroke-miterlimit="10" transform="translate(111,62)"><g class="mark-group role-frame root" role="graphics-object" aria-roledescription="group mark container"><g transform="translate(0,0)"><path class="background" aria-hidden="true" d="M0,0h0v400h0Z"/><g><g class="mark-group role-scope concat_0_group" role="graphics-object" aria-roledescription="group mark container"><g transform="translate(0,0)"><path class="background" aria-hidden="true" d="M0,0h400v400h-400Z"/><g><g class="mark-group role-axis" role="graphics-symbol" aria-roledescription="axis" aria-label="X-axis titled 'Graduate net gain rate' for a linear scale with values from −0.6 to 1.2"><g transform="translate(0.5,400.5)"><path class="background" aria-hidden="true" d="M0,0h0v0h0Z" pointer-events="none"/><g><g class="mark-rule role-axis-tick" pointer-events="none"><line transform="translate(0,0)" x2="0" y2="4" stroke="#676A86" stroke-opacity="0.5" stroke-width="1" opacity="1"/><line transform="translate(44,0)" x2="0" y2="4" stroke="#676A86" stroke-opacity="0.5" stroke-width="1" opacity="1"/><line transform="translate(89,0)" x2="0" y2="4" stroke="#676A86" stroke-opacity="0.5" stroke-width="1" opacity="1"/><line transform="translate(133,0)" x2="0" y2="4" stroke="#676A86" stroke-opacity="0.5" stroke-width="1" opacity="1"/><line transform="translate(178,0)" x2="0" y2="4" stroke="#676A86" stroke-opacity="0.5" stroke-width="1" opacity="1"/><line transform="translate(222,0)" x2="0" y2="4" stroke="#676A86" stroke-opacity="0.5" stroke-width="1" opacity="1"/><line transform="translate(267,0)" x2="0" y2="4" stroke="#676A86" stroke-opacity="0.5" stroke-width="1" opacity="1"/><line transform="translate(311,0)" x2="0" y2="4" stroke="#676A86" stroke-opacity="0.5" stroke-width="1" opacity="1"/><line transform="translate(356,0)" x2="0" y2="4" stroke="#676A86" stroke-opacity="0.5" stroke-width="1" opacity="1"/><line transform="translate(400,0)" x2="0" y2="4" stroke="#676A86" stroke-opacity="0.5" stroke-width="1" opacity="1"/></g><g class="mark-text role-axis-label" pointer-events="none"><text text-anchor="start" transform="translate(0,15)" font-family="Circular Std" font-size="11px" fill="#676A86" fill-opacity="0.7" opacity="1">-60%</text><text text-anchor="middle" transform="translate(44.444444444444436,15)" font-family="Circular Std" font-size="11px" fill="#676A86" fill-opacity="0.7" opacity="0">-40%</text><text text-anchor="middle" transform="translate(88.8888888888889,15)" font-family="Circular Std" font-size="11px" fill="#676A86" fill-opacity="0.7" opacity="1">-20%</text><text text-anchor="middle" transform="translate(133.33333333333334,15)" font-family="Circular Std" font-size="11px" fill="#676A86" fill-opacity="0.7" opacity="0">0%</text><text text-anchor="middle" transform="translate(177.7777777777778,15)" font-family="Circular Std" font-size="11px" fill="#676A86" fill-opacity="0.7" opacity="1">+20%</text><text text-anchor="middle" transform="translate(222.22222222222223,15)" font-family="Circular Std" font-size="11px" fill="#676A86" fill-opacity="0.7" opacity="0">+40%</text><text text-anchor="middle" transform="translate(266.6666666666667,15)" font-family="Circular Std" font-size="11px" fill="#676A86" fill-opacity="0.7" opacity="1">+60%</text><text text-anchor="middle" transform="translate(311.11111111111114,15)" font-family="Circular Std" font-size="11px" fill="#676A86" fill-opacity="0.7" opacity="0">+80%</text><text text-anchor="middle" transform="translate(355.5555555555556,15)" font-family="Circular Std" font-size="11px" fill="#676A86" fill-opacity="0.7" opacity="1">+100%</text><text text-anchor="end" transform="translate(400,15)" font-family="Circular Std" font-size="11px" fill="#676A86" fill-opacity="0.7" opacity="0">+120%</text></g><g class="mark-rule role-axis-domain" pointer-events="none"><line transform="translate(0,0)" x2="400" y2="0" stroke="#676A86" stroke-opacity="0.5" stroke-width="1" opacity="1"/></g><g class="mark-text role-axis-title" pointer-events="none"><text text-anchor="middle" transform="translate(200,30)" font-family="Circular Std" font-size="11px" font-weight="bold" fill="#676A86" fill-opacity="0.8" opacity="1">Graduate net gain rate</text></g></g><path class="foreground" aria-hidden="true" d="" pointer-events="none" display="none"/></g></g><g class="mark-group role-axis" role="graphics-symbol" aria-roledescription="axis" aria-label="Y-axis for a discrete scale with 17 values: York, Selby, Norton-on-Derwent, Thirsk, Sherburn in Elmet, ending with Richmond"><g transform="translate(0.5,0.5)"><path class="background" aria-hidden="true" d="M0,0h0v0h0Z" pointer-events="none"/><g><g class="mark-text role-axis-label" pointer-events="none"><text text-anchor="end" transform="translate(-5,14.264705882352953)" font-family="Circular Std" font-size="11px" fill="#676A86" fill-opacity="0.7" opacity="1">York</text><text text-anchor="end" transform="translate(-5,37.79411764705884)" font-family="Circular Std" font-size="11px" fill="#676A86" fill-opacity="0.7" opacity="1">Selby</text><text text-anchor="end" transform="translate(-5,61.323529411764724)" font-family="Circular Std" font-size="11px" fill="#676A86" fill-opacity="0.7" opacity="1">Norton-on-Derwent</text><text text-anchor="end" transform="translate(-5,84.85294117647061)" font-family="Circular Std" font-size="11px" fill="#676A86" fill-opacity="0.7" opacity="1">Thirsk</text><text text-anchor="end" transform="translate(-5,108.38235294117649)" font-family="Circular Std" font-size="11px" fill="#676A86" fill-opacity="0.7" opacity="1">Sherburn in Elmet</text><text text-anchor="end" transform="translate(-5,131.91176470588238)" font-family="Circular Std" font-size="11px" fill="#676A86" fill-opacity="0.7" opacity="1">Skipton</text><text text-anchor="end" transform="translate(-5,155.44117647058826)" font-family="Circular Std" font-size="11px" fill="#676A86" fill-opacity="0.7" opacity="1">Harrogate</text><text text-anchor="end" transform="translate(-5,178.97058823529414)" font-family="Circular Std" font-size="11px" fill="#676A86" fill-opacity="0.7" opacity="1">Scarborough</text><text text-anchor="end" transform="translate(-5,202.50000000000003)" font-family="Circular Std" font-size="11px" fill="#676A86" fill-opacity="0.7" opacity="1">Northallerton</text><text text-anchor="end" transform="translate(-5,226.0294117647059)" font-family="Circular Std" font-size="11px" fill="#676A86" fill-opacity="0.7" opacity="1">Whitby</text><text text-anchor="end" transform="translate(-5,249.5588235294118)" font-family="Circular Std" font-size="11px" fill="#676A86" fill-opacity="0.7" opacity="1">Knaresborough</text><text text-anchor="end" transform="translate(-5,273.0882352941177)" font-family="Circular Std" font-size="11px" fill="#676A86" fill-opacity="0.7" opacity="1">Haxby</text><text text-anchor="end" transform="translate(-5,296.61764705882354)" font-family="Circular Std" font-size="11px" fill="#676A86" fill-opacity="0.7" opacity="1">Cross Hills</text><text text-anchor="end" transform="translate(-5,320.1470588235294)" font-family="Circular Std" font-size="11px" fill="#676A86" fill-opacity="0.7" opacity="1">Strensall</text><text text-anchor="end" transform="translate(-5,343.6764705882353)" font-family="Circular Std" font-size="11px" fill="#676A86" fill-opacity="0.7" opacity="1">Catterick Garrison</text><text text-anchor="end" transform="translate(-5,367.2058823529412)" font-family="Circular Std" font-size="11px" fill="#676A86" fill-opacity="0.7" opacity="1">Ripon</text><text text-anchor="end" transform="translate(-5,390.7352941176471)" font-family="Circular Std" font-size="11px" fill="#676A86" fill-opacity="0.7" opacity="1">Richmond</text></g><g class="mark-rule role-axis-domain" pointer-events="none"><line transform="translate(0,0)" x2="0" y2="400" stroke="#676A86" stroke-opacity="0.5" stroke-width="1" opacity="1"/></g></g><path class="foreground" aria-hidden="true" d="" pointer-events="none" display="none"/></g></g><g class="mark-group role-scope" role="graphics-object" aria-roledescription="group mark container"><g transform="translate(133.33333333333334,4.764705882352953)"><path class="background" aria-hidden="true" d="M0,0L226.7777777777778,0C228.4335228512598,0,229.7777777777778,1.344254926518,229.7777777777778,3L229.7777777777778,11C229.7777777777778,12.655745073482,228.4335228512598,14,226.7777777777778,14L0,14C0,14,0,14,0,14L0,0C0,0,0,0,0,0Z"/><g clip-path="url(#clip1)"><g class="mark-group role-scope" role="graphics-object" aria-roledescription="group mark container"><g transform="translate(-133.33333333333334,0)"><path class="background" aria-hidden="true" d="M0,0h0v14h0Z"/><g><g class="mark-rect role-mark concat_0_layer_0_marks" role="graphics-object" aria-roledescription="rect mark container"><path aria-label="Graduate net gain rate: 1.034; label: York; polarity: Brain gain; Town: York; Net gain rate: +103.4%; Left Yorkshire entirely: 26.2%; University: University" role="graphics-symbol" aria-roledescription="bar" d="M133.33333333333334,0h229.7777777777778v14h-229.7777777777778Z" fill="#2A9D8F"/></g></g><path class="foreground" aria-hidden="true" d="" display="none"/></g></g></g><path class="foreground" aria-hidden="true" d="" display="none"/></g><g transform="translate(133.33333333333334,28.29411764705884)"><path class="background" aria-hidden="true" d="M0,0L10.111111111111114,0C11.766856184593115,0,13.111111111111114,1.344254926518,13.111111111111114,3L13.111111111111114,11C13.111111111111114,12.655745073482,11.766856184593115,14,10.111111111111114,14L0,14C0,14,0,14,0,14L0,0C0,0,0,0,0,0Z"/><g clip-path="url(#clip2)"><g class="mark-group role-scope" role="graphics-object" aria-roledescription="group mark container"><g transform="translate(-133.33333333333334,0)"><path class="background" aria-hidden="true" d="M0,0h0v14h0Z"/><g><g class="mark-rect role-mark concat_0_layer_0_marks" role="graphics-object" aria-roledescription="rect mark container"><path aria-label="Graduate net gain rate: 0.059; label: Selby; polarity: Brain gain; Town: Selby; Net gain rate: +5.9%; Left Yorkshire entirely: 17.7%; University: No University" role="graphics-symbol" aria-roledescription="bar" d="M133.33333333333334,0h13.111111111111114v14h-13.111111111111114Z" fill="#2A9D8F"/></g></g><path class="foreground" aria-hidden="true" d="" display="none"/></g></g></g><path class="foreground" aria-hidden="true" d="" display="none"/></g><g transform="translate(118.44444444444444,51.823529411764724)"><path class="background" aria-hidden="true" d="M0,0L11.8888888888889,0C13.5446339623709,0,14.8888888888889,1.344254926518,14.8888888888889,3L14.8888888888889,11C14.8888888888889,12.655745073482,13.5446339623709,14,11.8888888888889,14L0,14C0,14,0,14,0,14L0,0C0,0,0,0,0,0Z"/><g clip-path="url(#clip3)"><g class="mark-group role-scope" role="graphics-object" aria-roledescription="group mark container"><g transform="translate(-118.44444444444444,0)"><path class="background" aria-hidden="true" d="M0,0h0v14h0Z"/><g><g class="mark-rect role-mark concat_0_layer_0_marks" role="graphics-object" aria-roledescription="rect mark container"><path aria-label="Graduate net gain rate: −0.067; label: Norton-on-Derwent; polarity: Brain drain; Town: Norton-on-Derwent; Net gain rate: −6.7%; Left Yorkshire entirely: null; University: No University" role="graphics-symbol" aria-roledescription="bar" d="M118.44444444444444,0h14.8888888888889v14h-14.8888888888889Z" fill="#C0392B"/></g></g><path class="foreground" aria-hidden="true" d="" display="none"/></g></g></g><path class="foreground" aria-hidden="true" d="" display="none"/></g><g transform="translate(116.88888888888891,75.35294117647061)"><path class="background" aria-hidden="true" d="M0,0L13.444444444444429,0C15.10018951792643,0,16.44444444444443,1.344254926518,16.44444444444443,3L16.44444444444443,11C16.44444444444443,12.655745073482,15.10018951792643,14,13.444444444444429,14L0,14C0,14,0,14,0,14L0,0C0,0,0,0,0,0Z"/><g clip-path="url(#clip4)"><g class="mark-group role-scope" role="graphics-object" aria-roledescription="group mark container"><g transform="translate(-116.88888888888891,0)"><path class="background" aria-hidden="true" d="M0,0h0v14h0Z"/><g><g class="mark-rect role-mark concat_0_layer_0_marks" role="graphics-object" aria-roledescription="rect mark container"><path aria-label="Graduate net gain rate: −0.074; label: Thirsk; polarity: Brain drain; Town: Thirsk; Net gain rate: −7.4%; Left Yorkshire entirely: 33.3%; University: No University" role="graphics-symbol" aria-roledescription="bar" d="M116.88888888888891,0h16.44444444444443v14h-16.44444444444443Z" fill="#C0392B"/></g></g><path class="foreground" aria-hidden="true" d="" display="none"/></g></g></g><path class="foreground" aria-hidden="true" d="" display="none"/></g><g transform="translate(114.00000000000001,98.88235294117649)"><path class="background" aria-hidden="true" d="M0,0L16.33333333333333,0C17.989078406815327,0,19.33333333333333,1.344254926518,19.33333333333333,3L19.33333333333333,11C19.33333333333333,12.655745073482,17.989078406815327,14,16.33333333333333,14L0,14C0,14,0,14,0,14L0,0C0,0,0,0,0,0Z"/><g clip-path="url(#clip5)"><g class="mark-group role-scope" role="graphics-object" aria-roledescription="group mark container"><g transform="translate(-114.00000000000001,0)"><path class="background" aria-hidden="true" d="M0,0h0v14h0Z"/><g><g class="mark-rect role-mark concat_0_layer_0_marks" role="graphics-object" aria-roledescription="rect mark container"><path aria-label="Graduate net gain rate: −0.087; label: Sherburn in Elmet; polarity: Brain drain; Town: Sherburn in Elmet; Net gain rate: −8.7%; Left Yorkshire entirely: 26.1%; University: No University" role="graphics-symbol" aria-roledescription="bar" d="M114.00000000000001,0h19.33333333333333v14h-19.33333333333333Z" fill="#C0392B"/></g></g><path class="foreground" aria-hidden="true" d="" display="none"/></g></g></g><path class="foreground" aria-hidden="true" d="" display="none"/></g><g transform="translate(107.7777777777778,122.41176470588238)"><path class="background" aria-hidden="true" d="M0,0L22.555555555555543,0C24.21130062903754,0,25.555555555555543,1.344254926518,25.555555555555543,3L25.555555555555543,11C25.555555555555543,12.655745073482,24.21130062903754,14,22.555555555555543,14L0,14C0,14,0,14,0,14L0,0C0,0,0,0,0,0Z"/><g clip-path="url(#clip6)"><g class="mark-group role-scope" role="graphics-object" aria-roledescription="group mark container"><g transform="translate(-107.7777777777778,0)"><path class="background" aria-hidden="true" d="M0,0h0v14h0Z"/><g><g class="mark-rect role-mark concat_0_layer_0_marks" role="graphics-object" aria-roledescription="rect mark container"><path aria-label="Graduate net gain rate: −0.115; label: Skipton; polarity: Brain drain; Town: Skipton; Net gain rate: −11.5%; Left Yorkshire entirely: 26.9%; University: No University" role="graphics-symbol" aria-roledescription="bar" d="M107.7777777777778,0h25.555555555555543v14h-25.555555555555543Z" fill="#C0392B"/></g></g><path class="foreground" aria-hidden="true" d="" display="none"/></g></g></g><path class="foreground" aria-hidden="true" d="" display="none"/></g><g transform="translate(80.44444444444446,145.94117647058826)"><path class="background" aria-hidden="true" d="M0,0L49.888888888888886,0C51.54463396237089,0,52.888888888888886,1.344254926518,52.888888888888886,3L52.888888888888886,11C52.888888888888886,12.655745073482,51.54463396237089,14,49.888888888888886,14L0,14C0,14,0,14,0,14L0,0C0,0,0,0,0,0Z"/><g clip-path="url(#clip7)"><g class="mark-group role-scope" role="graphics-object" aria-roledescription="group mark container"><g transform="translate(-80.44444444444446,0)"><path class="background" aria-hidden="true" d="M0,0h0v14h0Z"/><g><g class="mark-rect role-mark concat_0_layer_0_marks" role="graphics-object" aria-roledescription="rect mark container"><path aria-label="Graduate net gain rate: −0.238; label: Harrogate; polarity: Brain drain; Town: Harrogate; Net gain rate: −23.8%; Left Yorkshire entirely: 29.8%; University: No University" role="graphics-symbol" aria-roledescription="bar" d="M80.44444444444446,0h52.888888888888886v14h-52.888888888888886Z" fill="#C0392B"/></g></g><path class="foreground" aria-hidden="true" d="" display="none"/></g></g></g><path class="foreground" aria-hidden="true" d="" display="none"/></g><g transform="translate(78.22222222222223,169.47058823529414)"><path class="background" aria-hidden="true" d="M0,0L52.111111111111114,0C53.76685618459312,0,55.111111111111114,1.344254926518,55.111111111111114,3L55.111111111111114,11C55.111111111111114,12.655745073482,53.76685618459312,14,52.111111111111114,14L0,14C0,14,0,14,0,14L0,0C0,0,0,0,0,0Z"/><g clip-path="url(#clip8)"><g class="mark-group role-scope" role="graphics-object" aria-roledescription="group mark container"><g transform="translate(-78.22222222222223,0)"><path class="background" aria-hidden="true" d="M0,0h0v14h0Z"/><g><g class="mark-rect role-mark concat_0_layer_0_marks" role="graphics-object" aria-roledescription="rect mark container"><path aria-label="Graduate net gain rate: −0.248; label: Scarborough; polarity: Brain drain; Town: Scarborough; Net gain rate: −24.8%; Left Yorkshire entirely: 26.1%; University: No University" role="graphics-symbol" aria-roledescription="bar" d="M78.22222222222223,0h55.111111111111114v14h-55.111111111111114Z" fill="#C0392B"/></g></g><path class="foreground" aria-hidden="true" d="" display="none"/></g></g></g><path class="foreground" aria-hidden="true" d="" display="none"/></g><g transform="translate(69.77777777777779,193.00000000000003)"><path class="background" aria-hidden="true" d="M0,0L60.55555555555556,0C62.21130062903756,0,63.55555555555556,1.344254926518,63.55555555555556,3L63.55555555555556,11C63.55555555555556,12.655745073482,62.21130062903756,14,60.55555555555556,14L0,14C0,14,0,14,0,14L0,0C0,0,0,0,0,0Z"/><g clip-path="url(#clip9)"><g class="mark-group role-scope" role="graphics-object" aria-roledescription="group mark container"><g transform="translate(-69.77777777777779,0)"><path class="background" aria-hidden="true" d="M0,0h0v14h0Z"/><g><g class="mark-rect role-mark concat_0_layer_0_marks" role="graphics-object" aria-roledescription="rect mark container"><path aria-label="Graduate net gain rate: −0.286; label: Northallerton; polarity: Brain drain; Town: Northallerton; Net gain rate: −28.6%; Left Yorkshire entirely: 28.6%; University: No University" role="graphics-symbol" aria-roledescription="bar" d="M69.77777777777779,0h63.55555555555556v14h-63.55555555555556Z" fill="#C0392B"/></g></g><path class="foreground" aria-hidden="true" d="" display="none"/></g></g></g><path class="foreground" aria-hidden="true" d="" display="none"/></g><g transform="translate(62,216.5294117647059)"><path class="background" aria-hidden="true" d="M0,0L68.33333333333334,0C69.98907840681534,0,71.33333333333334,1.344254926518,71.33333333333334,3L71.33333333333334,11C71.33333333333334,12.655745073482,69.98907840681534,14,68.33333333333334,14L0,14C0,14,0,14,0,14L0,0C0,0,0,0,0,0Z"/><g clip-path="url(#clip10)"><g class="mark-group role-scope" role="graphics-object" aria-roledescription="group mark container"><g transform="translate(-62,0)"><path class="background" aria-hidden="true" d="M0,0h0v14h0Z"/><g><g class="mark-rect role-mark concat_0_layer_0_marks" role="graphics-object" aria-roledescription="rect mark container"><path aria-label="Graduate net gain rate: −0.321; label: Whitby; polarity: Brain drain; Town: Whitby; Net gain rate: −32.1%; Left Yorkshire entirely: 32.1%; University: No University" role="graphics-symbol" aria-roledescription="bar" d="M62,0h71.33333333333334v14h-71.33333333333334Z" fill="#C0392B"/></g></g><path class="foreground" aria-hidden="true" d="" display="none"/></g></g></g><path class="foreground" aria-hidden="true" d="" display="none"/></g><g transform="translate(58.22222222222222,240.0588235294118)"><path class="background" aria-hidden="true" d="M0,0L72.11111111111111,0C73.76685618459311,0,75.11111111111111,1.344254926518,75.11111111111111,3L75.11111111111111,11C75.11111111111111,12.655745073482,73.76685618459311,14,72.11111111111111,14L0,14C0,14,0,14,0,14L0,0C0,0,0,0,0,0Z"/><g clip-path="url(#clip11)"><g class="mark-group role-scope" role="graphics-object" aria-roledescription="group mark container"><g transform="translate(-58.22222222222222,0)"><path class="background" aria-hidden="true" d="M0,0h0v14h0Z"/><g><g class="mark-rect role-mark concat_0_layer_0_marks" role="graphics-object" aria-roledescription="rect mark container"><path aria-label="Graduate net gain rate: −0.338; label: Knaresborough; polarity: Brain drain; Town: Knaresborough; Net gain rate: −33.8%; Left Yorkshire entirely: 26.5%; University: No University" role="graphics-symbol" aria-roledescription="bar" d="M58.22222222222222,0h75.11111111111111v14h-75.11111111111111Z" fill="#C0392B"/></g></g><path class="foreground" aria-hidden="true" d="" display="none"/></g></g></g><path class="foreground" aria-hidden="true" d="" display="none"/></g><g transform="translate(57.55555555555555,263.5882352941177)"><path class="background" aria-hidden="true" d="M0,0L72.7777777777778,0C74.4335228512598,0,75.7777777777778,1.344254926518,75.7777777777778,3L75.7777777777778,11C75.7777777777778,12.655745073482,74.4335228512598,14,72.7777777777778,14L0,14C0,14,0,14,0,14L0,0C0,0,0,0,0,0Z"/><g clip-path="url(#clip12)"><g class="mark-group role-scope" role="graphics-object" aria-roledescription="group mark container"><g transform="translate(-57.55555555555555,0)"><path class="background" aria-hidden="true" d="M0,0h0v14h0Z"/><g><g class="mark-rect role-mark concat_0_layer_0_marks" role="graphics-object" aria-roledescription="rect mark container"><path aria-label="Graduate net gain rate: −0.341; label: Haxby; polarity: Brain drain; Town: Haxby; Net gain rate: −34.1%; Left Yorkshire entirely: 26.8%; University: No University" role="graphics-symbol" aria-roledescription="bar" d="M57.55555555555555,0h75.7777777777778v14h-75.7777777777778Z" fill="#C0392B"/></g></g><path class="foreground" aria-hidden="true" d="" display="none"/></g></g></g><path class="foreground" aria-hidden="true" d="" display="none"/></g><g transform="translate(52.44444444444445,287.11764705882354)"><path class="background" aria-hidden="true" d="M0,0L77.88888888888889,0C79.54463396237088,0,80.88888888888889,1.344254926518,80.88888888888889,3L80.88888888888889,11C80.88888888888889,12.655745073482,79.54463396237088,14,77.88888888888889,14L0,14C0,14,0,14,0,14L0,0C0,0,0,0,0,0Z"/><g clip-path="url(#clip13)"><g class="mark-group role-scope" role="graphics-object" aria-roledescription="group mark container"><g transform="translate(-52.44444444444445,0)"><path class="background" aria-hidden="true" d="M0,0h0v14h0Z"/><g><g class="mark-rect role-mark concat_0_layer_0_marks" role="graphics-object" aria-roledescription="rect mark container"><path aria-label="Graduate net gain rate: −0.364; label: Cross Hills; polarity: Brain drain; Town: Cross Hills; Net gain rate: −36.4%; Left Yorkshire entirely: 27.3%; University: No University" role="graphics-symbol" aria-roledescription="bar" d="M52.44444444444445,0h80.88888888888889v14h-80.88888888888889Z" fill="#C0392B"/></g></g><path class="foreground" aria-hidden="true" d="" display="none"/></g></g></g><path class="foreground" aria-hidden="true" d="" display="none"/></g><g transform="translate(46,310.6470588235294)"><path class="background" aria-hidden="true" d="M0,0L84.33333333333334,0C85.98907840681534,0,87.33333333333334,1.344254926518,87.33333333333334,3L87.33333333333334,11C87.33333333333334,12.655745073482,85.98907840681534,14,84.33333333333334,14L0,14C0,14,0,14,0,14L0,0C0,0,0,0,0,0Z"/><g clip-path="url(#clip14)"><g class="mark-group role-scope" role="graphics-object" aria-roledescription="group mark container"><g transform="translate(-46,0)"><path class="background" aria-hidden="true" d="M0,0h0v14h0Z"/><g><g class="mark-rect role-mark concat_0_layer_0_marks" role="graphics-object" aria-roledescription="rect mark container"><path aria-label="Graduate net gain rate: −0.393; label: Strensall; polarity: Brain drain; Town: Strensall; Net gain rate: −39.3%; Left Yorkshire entirely: 25.0%; University: No University" role="graphics-symbol" aria-roledescription="bar" d="M46,0h87.33333333333334v14h-87.33333333333334Z" fill="#C0392B"/></g></g><path class="foreground" aria-hidden="true" d="" display="none"/></g></g></g><path class="foreground" aria-hidden="true" d="" display="none"/></g><g transform="translate(44.444444444444436,334.1764705882353)"><path class="background" aria-hidden="true" d="M0,0L85.88888888888891,0C87.54463396237091,0,88.88888888888891,1.344254926518,88.88888888888891,3L88.88888888888891,11C88.88888888888891,12.655745073482,87.54463396237091,14,85.88888888888891,14L0,14C0,14,0,14,0,14L0,0C0,0,0,0,0,0Z"/><g clip-path="url(#clip15)"><g class="mark-group role-scope" role="graphics-object" aria-roledescription="group mark container"><g transform="translate(-44.444444444444436,0)"><path class="background" aria-hidden="true" d="M0,0h0v14h0Z"/><g><g class="mark-rect role-mark concat_0_layer_0_marks" role="graphics-object" aria-roledescription="rect mark container"><path aria-label="Graduate net gain rate: −0.4; label: Catterick Garrison; polarity: Brain drain; Town: Catterick Garrison; Net gain rate: −40.0%; Left Yorkshire entirely: 53.4%; University: No University" role="graphics-symbol" aria-roledescription="bar" d="M44.444444444444436,0h88.88888888888891v14h-88.88888888888891Z" fill="#C0392B"/></g></g><path class="foreground" aria-hidden="true" d="" display="none"/></g></g></g><path class="foreground" aria-hidden="true" d="" display="none"/></g><g transform="translate(43.55555555555555,357.7058823529412)"><path class="background" aria-hidden="true" d="M0,0L86.7777777777778,0C88.4335228512598,0,89.7777777777778,1.344254926518,89.7777777777778,3L89.7777777777778,11C89.7777777777778,12.655745073482,88.4335228512598,14,86.7777777777778,14L0,14C0,14,0,14,0,14L0,0C0,0,0,0,0,0Z"/><g clip-path="url(#clip16)"><g class="mark-group role-scope" role="graphics-object" aria-roledescription="group mark container"><g transform="translate(-43.55555555555555,0)"><path class="background" aria-hidden="true" d="M0,0h0v14h0Z"/><g><g class="mark-rect role-mark concat_0_layer_0_marks" role="graphics-object" aria-roledescription="rect mark container"><path aria-label="Graduate net gain rate: −0.404; label: Ripon; polarity: Brain drain; Town: Ripon; Net gain rate: −40.4%; Left Yorkshire entirely: 29.8%; University: No University" role="graphics-symbol" aria-roledescription="bar" d="M43.55555555555555,0h89.7777777777778v14h-89.7777777777778Z" fill="#C0392B"/></g></g><path class="foreground" aria-hidden="true" d="" display="none"/></g></g></g><path class="foreground" aria-hidden="true" d="" display="none"/></g><g transform="translate(8.66666666666665,381.2352941176471)"><path class="background" aria-hidden="true" d="M0,0L121.66666666666669,0C123.32241174014868,0,124.66666666666669,1.344254926518,124.66666666666669,3L124.66666666666669,11C124.66666666666669,12.655745073482,123.32241174014868,14,121.66666666666669,14L0,14C0,14,0,14,0,14L0,0C0,0,0,0,0,0Z"/><g clip-path="url(#clip17)"><g class="mark-group role-scope" role="graphics-object" aria-roledescription="group mark container"><g transform="translate(-8.66666666666665,0)"><path class="background" aria-hidden="true" d="M0,0h0v14h0Z"/><g><g class="mark-rect role-mark concat_0_layer_0_marks" role="graphics-object" aria-roledescription="rect mark container"><path aria-label="Graduate net gain rate: −0.561; label: Richmond; polarity: Brain drain; Town: Richmond; Net gain rate: −56.1%; Left Yorkshire entirely: 43.9%; University: No University" role="graphics-symbol" aria-roledescription="bar" d="M8.66666666666665,0h124.66666666666669v14h-124.66666666666669Z" fill="#C0392B"/></g></g><path class="foreground" aria-hidden="true" d="" display="none"/></g></g></g><path class="foreground" aria-hidden="true" d="" display="none"/></g></g><g class="mark-rule role-mark concat_0_layer_1_marks" role="graphics-object" aria-roledescription="rule mark container"><line aria-label="x: 0" role="graphics-symbol" aria-roledescription="rule mark" transform="translate(133.33333333333334,0)" x2="0" y2="400" stroke="#333333" stroke-width="1.5" opacity="0.85"/></g></g><path class="foreground" aria-hidden="true" d="" display="none"/></g></g><g class="mark-group role-legend" role="graphics-symbol" aria-roledescription="legend" aria-label="Symbol legend for fill color with 2 values: Brain gain, Brain drain"><g transform="translate(18,18)"><path class="background" aria-hidden="true" d="M0,0h71v24h-71Z" pointer-events="none"/><g><g class="mark-group role-legend-entry"><g transform="translate(0,0)"><path class="background" aria-hidden="true" d="M0,0h0v0h0Z" pointer-events="none"/><g><g class="mark-group role-scope" role="graphics-object" aria-roledescription="group mark container"><g transform="translate(0,0)"><path class="background" aria-hidden="true" d="M0,0h70.58200073242188v11h-70.58200073242188Z" pointer-events="none" opacity="1"/><g><g class="mark-symbol role-legend-symbol" pointer-events="none"><path transform="translate(6,6)" d="M-5,-5h10v10h-10Z" fill="#2A9D8F" stroke-width="1.5" opacity="1"/></g><g class="mark-text role-legend-label" pointer-events="none"><text text-anchor="start" transform="translate(16,9)" font-family="Circular Std" font-size="11px" fill="#122b39" opacity="1">Brain gain</text></g></g><path class="foreground" aria-hidden="true" d="" pointer-events="none" display="none"/></g><g transform="translate(0,13)"><path class="background" aria-hidden="true" d="M0,0h70.58200073242188v11h-70.58200073242188Z" pointer-events="none" opacity="1"/><g><g class="mark-symbol role-legend-symbol" pointer-events="none"><path transform="translate(6,6)" d="M-5,-5h10v10h-10Z" fill="#C0392B" stroke-width="1.5" opacity="1"/></g><g class="mark-text role-legend-label" pointer-events="none"><text text-anchor="start" transform="translate(16,9)" font-family="Circular Std" font-size="11px" fill="#122b39" opacity="1">Brain drain</text></g></g><path class="foreground" aria-hidden="true" d="" pointer-events="none" display="none"/></g></g></g><path class="foreground" aria-hidden="true" d="" pointer-events="none" display="none"/></g></g></g><path class="foreground" aria-hidden="true" d="" pointer-events="none" display="none"/></g></g><g class="mark-group role-title"><g transform="translate(0,-56.5)"><path class="background" aria-hidden="true" d="M0,0h0v0h0Z" pointer-events="none"/><g><g class="mark-text role-title-text" role="graphics-symbol" aria-roledescription="title" aria-label="Title text 'Brain drain by town — YNYCA graduate net gain rate'" pointer-events="none"><text text-anchor="start" transform="translate(0,10)" font-family="Circular Std" font-size="13px" font-weight="bold" fill="#676A86E6" opacity="1">Brain drain by town — YNYCA graduate net gain rate</text></g><g class="mark-text role-title-subtitle" role="graphics-symbol" aria-roledescription="subtitle" aria-label="Subtitle text 'Net gain rate = graduates arriving minus leaving, as share of local cohort. Right panel: share of all graduates from that town confirmed leaving Yorkshire entirely (movers × regional exit rate). 15 of 17 YNYCA towns are net losers of graduates.  Source: ONS Graduate Retention Study.'" pointer-events="none"><text text-anchor="start" transform="translate(0,25)" font-family="Circular Std" font-size="10px" fill="#676A86" opacity="1"><tspan>Net gain rate = graduates arriving minus leaving, as share of local cohort.</tspan><tspan x="0" dy="12">Right panel: share of all graduates from that town confirmed leaving Yorkshire entirely (movers × regional exit rate).</tspan><tspan x="0" dy="12">15 of 17 YNYCA towns are net losers of graduates.  Source: ONS Graduate Retention Study.</tspan></text></g></g><path class="foreground" aria-hidden="true" d="" pointer-events="none" display="none"/></g></g></g><path class="foreground" aria-hidden="true" d="" display="none"/></g></g></g><defs><clipPath id="clip1"><path d="M0,0L226.7777777777778,0C228.4335228512598,0,229.7777777777778,1.344254926518,229.7777777777778,3L229.7777777777778,11C229.7777777777778,12.655745073482,228.4335228512598,14,226.7777777777778,14L0,14C0,14,0,14,0,14L0,0C0,0,0,0,0,0Z"/></clipPath><clipPath id="clip2"><path d="M0,0L10.111111111111114,0C11.766856184593115,0,13.111111111111114,1.344254926518,13.111111111111114,3L13.111111111111114,11C13.111111111111114,12.655745073482,11.766856184593115,14,10.111111111111114,14L0,14C0,14,0,14,0,14L0,0C0,0,0,0,0,0Z"/></clipPath><clipPath id="clip3"><path d="M0,0L11.8888888888889,0C13.5446339623709,0,14.8888888888889,1.344254926518,14.8888888888889,3L14.8888888888889,11C14.8888888888889,12.655745073482,13.5446339623709,14,11.8888888888889,14L0,14C0,14,0,14,0,14L0,0C0,0,0,0,0,0Z"/></clipPath><clipPath id="clip4"><path d="M0,0L13.444444444444429,0C15.10018951792643,0,16.44444444444443,1.344254926518,16.44444444444443,3L16.44444444444443,11C16.44444444444443,12.655745073482,15.10018951792643,14,13.444444444444429,14L0,14C0,14,0,14,0,14L0,0C0,0,0,0,0,0Z"/></clipPath><clipPath id="clip5"><path d="M0,0L16.33333333333333,0C17.989078406815327,0,19.33333333333333,1.344254926518,19.33333333333333,3L19.33333333333333,11C19.33333333333333,12.655745073482,17.989078406815327,14,16.33333333333333,14L0,14C0,14,0,14,0,14L0,0C0,0,0,0,0,0Z"/></clipPath><clipPath id="clip6"><path d="M0,0L22.555555555555543,0C24.21130062903754,0,25.555555555555543,1.344254926518,25.555555555555543,3L25.555555555555543,11C25.555555555555543,12.655745073482,24.21130062903754,14,22.555555555555543,14L0,14C0,14,0,14,0,14L0,0C0,0,0,0,0,0Z"/></clipPath><clipPath id="clip7"><path d="M0,0L49.888888888888886,0C51.54463396237089,0,52.888888888888886,1.344254926518,52.888888888888886,3L52.888888888888886,11C52.888888888888886,12.655745073482,51.54463396237089,14,49.888888888888886,14L0,14C0,14,0,14,0,14L0,0C0,0,0,0,0,0Z"/></clipPath><clipPath id="clip8"><path d="M0,0L52.111111111111114,0C53.76685618459312,0,55.111111111111114,1.344254926518,55.111111111111114,3L55.111111111111114,11C55.111111111111114,12.655745073482,53.76685618459312,14,52.111111111111114,14L0,14C0,14,0,14,0,14L0,0C0,0,0,0,0,0Z"/></clipPath><clipPath id="clip9"><path d="M0,0L60.55555555555556,0C62.21130062903756,0,63.55555555555556,1.344254926518,63.55555555555556,3L63.55555555555556,11C63.55555555555556,12.655745073482,62.21130062903756,14,60.55555555555556,14L0,14C0,14,0,14,0,14L0,0C0,0,0,0,0,0Z"/></clipPath><clipPath id="clip10"><path d="M0,0L68.33333333333334,0C69.98907840681534,0,71.33333333333334,1.344254926518,71.33333333333334,3L71.33333333333334,11C71.33333333333334,12.655745073482,69.98907840681534,14,68.33333333333334,14L0,14C0,14,0,14,0,14L0,0C0,0,0,0,0,0Z"/></clipPath><clipPath id="clip11"><path d="M0,0L72.11111111111111,0C73.76685618459311,0,75.11111111111111,1.344254926518,75.11111111111111,3L75.11111111111111,11C75.11111111111111,12.655745073482,73.76685618459311,14,72.11111111111111,14L0,14C0,14,0,14,0,14L0,0C0,0,0,0,0,0Z"/></clipPath><clipPath id="clip12"><path d="M0,0L72.7777777777778,0C74.4335228512598,0,75.7777777777778,1.344254926518,75.7777777777778,3L75.7777777777778,11C75.7777777777778,12.655745073482,74.4335228512598,14,72.7777777777778,14L0,14C0,14,0,14,0,14L0,0C0,0,0,0,0,0Z"/></clipPath><clipPath id="clip13"><path d="M0,0L77.88888888888889,0C79.54463396237088,0,80.88888888888889,1.344254926518,80.88888888888889,3L80.88888888888889,11C80.88888888888889,12.655745073482,79.54463396237088,14,77.88888888888889,14L0,14C0,14,0,14,0,14L0,0C0,0,0,0,0,0Z"/></clipPath><clipPath id="clip14"><path d="M0,0L84.33333333333334,0C85.98907840681534,0,87.33333333333334,1.344254926518,87.33333333333334,3L87.33333333333334,11C87.33333333333334,12.655745073482,85.98907840681534,14,84.33333333333334,14L0,14C0,14,0,14,0,14L0,0C0,0,0,0,0,0Z"/></clipPath><clipPath id="clip15"><path d="M0,0L85.88888888888891,0C87.54463396237091,0,88.88888888888891,1.344254926518,88.88888888888891,3L88.88888888888891,11C88.88888888888891,12.655745073482,87.54463396237091,14,85.88888888888891,14L0,14C0,14,0,14,0,14L0,0C0,0,0,0,0,0Z"/></clipPath><clipPath id="clip16"><path d="M0,0L86.7777777777778,0C88.4335228512598,0,89.7777777777778,1.344254926518,89.7777777777778,3L89.7777777777778,11C89.7777777777778,12.655745073482,88.4335228512598,14,86.7777777777778,14L0,14C0,14,0,14,0,14L0,0C0,0,0,0,0,0Z"/></clipPath><clipPath id="clip17"><path d="M0,0L121.66666666666669,0C123.32241174014868,0,124.66666666666669,1.344254926518,124.66666666666669,3L124.66666666666669,11C124.66666666666669,12.655745073482,123.32241174014868,14,121.66666666666669,14L0,14C0,14,0,14,0,14L0,0C0,0,0,0,0,0Z"/></clipPath></defs></svg>