<svg xmlns="http://www.w3.org/2000/svg" xmlns:xlink="http://www.w3.org/1999/xlink" version="1.1" class="marks" width="546" height="409" viewBox="0 0 546 409"><rect width="546" height="409" fill="white"/><g fill="none" stroke-miterlimit="10" transform="translate(30,68)"><g class="mark-group role-frame root" role="graphics-object" aria-roledescription="group mark container"><g transform="translate(0,0)"><path class="background" aria-hidden="true" d="M0.5,0.5h500v320h-500Z"/><g><g class="mark-group role-axis" aria-hidden="true"><g transform="translate(0.5,0.5)"><path class="background" aria-hidden="true" d="M0,0h0v0h0Z" pointer-events="none"/><g><g class="mark-rule role-axis-grid" pointer-events="none"><line transform="translate(0,320)" x2="500" y2="0" stroke="#122b39" stroke-opacity="0.5" stroke-width="1" stroke-dasharray="1,5" opacity="1"/><line transform="translate(0,263)" x2="500" y2="0" stroke="#122b39" stroke-opacity="0.5" stroke-width="1" stroke-dasharray="1,5" opacity="1"/><line transform="translate(0,206)" x2="500" y2="0" stroke="#122b39" stroke-opacity="0.5" stroke-width="1" stroke-dasharray="1,5" opacity="1"/><line transform="translate(0,149)" x2="500" y2="0" stroke="#122b39" stroke-opacity="0.5" stroke-width="1" stroke-dasharray="1,5" opacity="1"/><line transform="translate(0,91)" x2="500" y2="0" stroke="#122b39" stroke-opacity="0.5" stroke-width="1" stroke-dasharray="1,5" opacity="1"/><line transform="translate(0,34)" x2="500" y2="0" stroke="#122b39" stroke-opacity="0.5" stroke-width="1" stroke-dasharray="1,5" opacity="1"/></g></g><path class="foreground" aria-hidden="true" d="" pointer-events="none" display="none"/></g></g><g class="mark-group role-axis" role="graphics-symbol" aria-roledescription="axis" aria-label="X-axis for a discrete scale with 29 values: 2000, 2001, 2002, 2003, 2004, ending with 2028"><g transform="translate(0.5,320.5)"><path class="background" aria-hidden="true" d="M0,0h0v0h0Z" pointer-events="none"/><g><g class="mark-rule role-axis-tick" pointer-events="none"><line transform="translate(9,0)" x2="0" y2="0" stroke="#122b39" stroke-width="1" opacity="1"/><line transform="translate(95,0)" x2="0" y2="0" stroke="#122b39" stroke-width="1" opacity="1"/><line transform="translate(181,0)" x2="0" y2="0" stroke="#122b39" stroke-width="1" opacity="1"/><line transform="translate(267,0)" x2="0" y2="0" stroke="#122b39" stroke-width="1" opacity="1"/><line transform="translate(353,0)" x2="0" y2="0" stroke="#122b39" stroke-width="1" opacity="1"/></g><g class="mark-text role-axis-label" pointer-events="none"><text text-anchor="middle" transform="translate(8.620689655172384,14)" font-family="Circular Std" font-size="11px" fill="#122b39" opacity="1">2000</text><text text-anchor="middle" transform="translate(94.82758620689653,14)" font-family="Circular Std" font-size="11px" fill="#122b39" opacity="1">2005</text><text text-anchor="middle" transform="translate(181.03448275862067,14)" font-family="Circular Std" font-size="11px" fill="#122b39" opacity="1">2010</text><text text-anchor="middle" transform="translate(267.2413793103448,14)" font-family="Circular Std" font-size="11px" fill="#122b39" opacity="1">2015</text><text text-anchor="middle" transform="translate(353.44827586206895,14)" font-family="Circular Std" font-size="11px" fill="#122b39" opacity="1">2020</text></g><g class="mark-rule role-axis-domain" pointer-events="none"><line transform="translate(0,0)" x2="500" y2="0" stroke="#122b39" stroke-opacity="0.5" stroke-width="1" opacity="1"/></g></g><path class="foreground" aria-hidden="true" d="" pointer-events="none" display="none"/></g></g><g class="mark-group role-axis" role="graphics-symbol" aria-roledescription="axis" aria-label="Y-axis titled 'Index, 2000 = 100' for a linear scale with values from 0 to 280"><g transform="translate(0.5,0.5)"><path class="background" aria-hidden="true" d="M0,0h0v0h0Z" pointer-events="none"/><g><g class="mark-rule role-axis-tick" pointer-events="none"><line transform="translate(0,320)" x2="0" y2="0" stroke="#122b39" stroke-width="1" opacity="1"/><line transform="translate(0,263)" x2="0" y2="0" stroke="#122b39" stroke-width="1" opacity="1"/><line transform="translate(0,206)" x2="0" y2="0" stroke="#122b39" stroke-width="1" opacity="1"/><line transform="translate(0,149)" x2="0" y2="0" stroke="#122b39" stroke-width="1" opacity="1"/><line transform="translate(0,91)" x2="0" y2="0" stroke="#122b39" stroke-width="1" opacity="1"/><line transform="translate(0,34)" x2="0" y2="0" stroke="#122b39" stroke-width="1" opacity="1"/></g><g class="mark-text role-axis-label" pointer-events="none"><text text-anchor="end" transform="translate(-5,323)" font-family="Circular Std" font-size="11px" fill="#122b39" opacity="1">0</text><text text-anchor="end" transform="translate(-5,265.85714285714283)" font-family="Circular Std" font-size="11px" fill="#122b39" opacity="1">50</text><text text-anchor="end" transform="translate(-5,208.7142857142857)" font-family="Circular Std" font-size="11px" fill="#122b39" opacity="1">100</text><text text-anchor="end" transform="translate(-5,151.57142857142858)" font-family="Circular Std" font-size="11px" fill="#122b39" opacity="1">150</text><text text-anchor="end" transform="translate(-5,94.42857142857142)" font-family="Circular Std" font-size="11px" fill="#122b39" opacity="1">200</text><text text-anchor="end" transform="translate(-5,37.28571428571427)" font-family="Circular Std" font-size="11px" fill="#122b39" opacity="1">250</text></g><g class="mark-rule role-axis-domain" pointer-events="none"><line transform="translate(0,320)" x2="0" y2="-320" stroke="#122b39" stroke-opacity="0.5" stroke-width="1" opacity="1"/></g><g class="mark-text role-axis-title" pointer-events="none"><text text-anchor="start" transform="translate(0,-9)" font-family="Circular Std" font-size="11px" font-weight="bold" fill="#122b39" fill-opacity="0.9" opacity="1">Index, 2000 = 100</text></g></g><path class="foreground" aria-hidden="true" d="" pointer-events="none" display="none"/></g></g><g class="mark-rule role-mark layer_0_marks" role="graphics-object" aria-roledescription="rule mark container"><line aria-label="y: 100" role="graphics-symbol" aria-roledescription="rule mark" transform="translate(500,205.7142857142857)" x2="-500" y2="0" stroke="#122b39" stroke-width="2" stroke-dasharray="1,0" opacity="0.9"/></g><g class="mark-group role-scope layer_1_pathgroup" role="graphics-object" aria-roledescription="group mark container"><g transform="translate(0,0)"><path class="background" aria-hidden="true" d="M0,0h500v320h-500Z"/><g><g class="mark-line role-mark layer_1_marks" role="graphics-object" aria-roledescription="line mark container"><path aria-label="year: 2000; Index, 2000 = 100: 100; group: Mexico" role="graphics-symbol" aria-roledescription="line mark" d="M8.621,205.714L25.862,207.904L43.103,209.766L60.345,210.008L77.586,207.631L94.828,206.793L112.069,202.949L129.31,202.187L146.552,202.8L163.793,211.772L181.034,208.015L198.276,205.786L215.517,203.322L232.759,203.845L250,202.369L267.241,200.475L284.483,199.53L301.724,198.417L318.966,197.188L336.207,198.827L353.448,209.857L370.69,203.972L387.931,200.569L405.172,197.705L422.414,196.989" stroke="#36b7b4" stroke-width="2.5" stroke-dasharray="0"/></g></g><path class="foreground" aria-hidden="true" d="" display="none"/></g><g transform="translate(0,0)"><path class="background" aria-hidden="true" d="M0,0h500v320h-500Z"/><g><g class="mark-line role-mark layer_1_marks" role="graphics-object" aria-roledescription="line mark container"><path aria-label="year: 2000; Index, 2000 = 100: 100; group: Chile" role="graphics-symbol" aria-roledescription="line mark" d="M8.621,205.714L25.862,203.464L43.103,201.052L60.345,196.731L77.586,189.824L94.828,183.586L112.069,176.739L129.31,170.802L146.552,166.688L163.793,169.924L181.034,162.73L198.276,154.582L215.517,146.076L232.759,142.028L250,140.634L267.241,138.637L284.483,137.676L301.724,138.104L318.966,134.194L336.207,135.981L353.448,148.828L370.69,130.299L387.931,127.172L405.172,127.209L422.414,123.172" stroke="#f4c245" stroke-width="2.5" stroke-dasharray="0"/></g></g><path class="foreground" aria-hidden="true" d="" display="none"/></g><g transform="translate(0,0)"><path class="background" aria-hidden="true" d="M0,0h500v320h-500Z"/><g><g class="mark-line role-mark layer_1_marks" role="graphics-object" aria-roledescription="line mark container"><path aria-label="year: 2000; Index, 2000 = 100: 100; group: Costa Rica" role="graphics-symbol" aria-roledescription="line mark" d="M8.621,205.714L25.862,203.825L43.103,201.824L60.345,198.601L77.586,195.079L94.828,191.976L112.069,184.507L129.31,175.348L146.552,170.535L163.793,173.807L181.034,167.87L198.276,163.027L215.517,157.273L232.759,155.059L250,151.043L267.241,146.724L284.483,141.255L301.724,135.573L318.966,132.453L336.207,129.522L353.448,138.921L370.69,125.543L387.931,117.563L405.172,108.205L422.414,100.103" stroke="grey" stroke-width="2.5" stroke-dasharray="0"/></g></g><path class="foreground" aria-hidden="true" d="" display="none"/></g><g transform="translate(0,0)"><path class="background" aria-hidden="true" d="M0,0h500v320h-500Z"/><g><g class="mark-line role-mark layer_1_marks" role="graphics-object" aria-roledescription="line mark container"><path aria-label="year: 2000; Index, 2000 = 100: 100; group: LAC" role="graphics-symbol" aria-roledescription="line mark" d="M8.621,205.714L25.862,206.173L43.103,206.257L60.345,202.725L77.586,197.198L94.828,191.975L112.069,185.007L129.31,176.704L146.552,170.981L163.793,173.813L181.034,165.207L198.276,158.008L215.517,153.453L232.759,148.763L250,147.34L267.241,145.669L284.483,145.089L301.724,143.27L318.966,141.668L336.207,141.369L353.448,155.572L370.69,140.335L387.931,134.11L405.172,132.999L422.414,129.638" stroke="#122b39" stroke-width="2.5" stroke-dasharray="5,3"/></g></g><path class="foreground" aria-hidden="true" d="" display="none"/></g><g transform="translate(0,0)"><path class="background" aria-hidden="true" d="M0,0h500v320h-500Z"/><g><g class="mark-line role-mark layer_1_marks" role="graphics-object" aria-roledescription="line mark container"><path aria-label="year: 2000; Index, 2000 = 100: 100; group: Dynamic Asia" role="graphics-symbol" aria-roledescription="line mark" d="M8.621,205.714L25.862,203.522L43.103,199.64L60.345,194.03L77.586,187.586L94.828,181.704L112.069,175.41L129.31,168.245L146.552,164.172L163.793,161.748L181.034,152.641L198.276,147.122L215.517,139.063L232.759,131.942L250,124.182L267.241,115.159L284.483,105.441L301.724,95.085L318.966,84.375L336.207,75.193L353.448,86.968L370.69,78.222L387.931,63.405L405.172,51.601L422.414,38.694" stroke="#eb5c2e" stroke-width="2.5" stroke-dasharray="0"/></g></g><path class="foreground" aria-hidden="true" d="" display="none"/></g><g transform="translate(0,0)"><path class="background" aria-hidden="true" d="M0,0h500v320h-500Z"/><g><g class="mark-line role-mark layer_1_marks" role="graphics-object" aria-roledescription="line mark container"><path aria-label="year: 2000; Index, 2000 = 100: 100; group: United Kingdom" role="graphics-symbol" aria-roledescription="line mark" d="M8.621,205.714L25.862,203.224L43.103,201.63L60.345,198.465L77.586,196.185L94.828,193.672L112.069,191.611L129.31,189.263L146.552,190.611L163.793,197.519L181.034,195.762L198.276,195.326L215.517,194.342L232.759,192.934L250,189.851L267.241,187.915L284.483,186.441L301.724,183.639L318.966,182.397L336.207,180.879L353.448,195.416L370.69,185.216L387.931,179.99L405.172,181.256L422.414,181.217" stroke="#179fdb" stroke-width="2.5" stroke-dasharray="0"/></g></g><path class="foreground" aria-hidden="true" d="" display="none"/></g><g transform="translate(0,0)"><path class="background" aria-hidden="true" d="M0,0h500v320h-500Z"/><g><g class="mark-line role-mark layer_1_marks" role="graphics-object" aria-roledescription="line mark container"><path aria-label="year: 2000; Index, 2000 = 100: 100; group: United States" role="graphics-symbol" aria-roledescription="line mark" d="M8.621,205.714L25.862,205.759L43.103,204.889L60.345,202.684L77.586,199.292L94.828,196.233L112.069,194.007L129.31,192.699L146.552,193.754L163.793,198.08L181.034,195.849L198.276,194.902L215.517,193.056L232.759,191.345L250,189.144L267.241,186.36L284.483,184.993L301.724,182.63L318.966,179.382L336.207,176.49L353.448,180.167L370.69,171.933L387.931,169.084L405.172,166.012L422.414,163.244" stroke-width="2.5" stroke-dasharray="0"/></g></g><path class="foreground" aria-hidden="true" d="" display="none"/></g></g><g class="mark-text role-mark layer_2_marks" role="graphics-object" aria-roledescription="text mark container"><text aria-label="year: 2024; index: 107.634308694; group: Mexico" role="graphics-symbol" aria-roledescription="text mark" text-anchor="start" transform="translate(428.4137931034483,199.9893614926479)" font-family="Circular Std" font-size="11px" font-weight="500" fill="#36b7b4">Mexico</text><text aria-label="year: 2024; index: 172.224360295; group: Chile" role="graphics-symbol" aria-roledescription="text mark" text-anchor="start" transform="translate(428.4137931034483,126.17215966229642)" font-family="Circular Std" font-size="11px" font-weight="500" fill="#f4c245">Chile</text><text aria-label="year: 2024; index: 192.409812478; group: Costa Rica" role="graphics-symbol" aria-roledescription="text mark" text-anchor="start" transform="translate(428.4137931034483,103.1030714531894)" font-family="Circular Std" font-size="11px" font-weight="500" fill="grey">Costa Rica</text><text aria-label="year: 2024; index: 166.567137635; group: LAC" role="graphics-symbol" aria-roledescription="text mark" text-anchor="start" transform="translate(428.4137931034483,132.6375569889687)" font-family="Circular Std" font-size="11px" font-weight="500" fill="#122b39">LAC</text><text aria-label="year: 2024; index: 246.142673048; group: Dynamic Asia" role="graphics-symbol" aria-roledescription="text mark" text-anchor="start" transform="translate(428.4137931034483,41.694087945653344)" font-family="Circular Std" font-size="11px" font-weight="500" fill="#eb5c2e">Dynamic Asia</text><text aria-label="year: 2024; index: 121.435503182; group: United Kingdom" role="graphics-symbol" aria-roledescription="text mark" text-anchor="start" transform="translate(428.4137931034483,184.21656779172025)" font-family="Circular Std" font-size="11px" font-weight="500" fill="#179fdb">United Kingdom</text><text aria-label="year: 2024; index: 137.161151587; group: United States" role="graphics-symbol" aria-roledescription="text mark" text-anchor="start" transform="translate(428.4137931034483,166.24439818654218)" font-family="Circular Std" font-size="11px" font-weight="500">United States</text></g><g class="mark-group role-title"><g transform="translate(250,-63)"><path class="background" aria-hidden="true" d="M0,0h0v0h0Z" pointer-events="none"/><g><g class="mark-text role-title-text" role="graphics-symbol" aria-roledescription="title" aria-label="Title text 'Mexico's GDP per capita has barely grown compared to peers'" pointer-events="none"><text text-anchor="middle" transform="translate(0,10)" font-family="Circular Std" font-size="13px" font-weight="bold" fill="#000" opacity="1">Mexico's GDP per capita has barely grown compared to peers</text></g><g class="mark-text role-title-subtitle" role="graphics-symbol" aria-roledescription="subtitle" aria-label="Subtitle text 'Index of real PPP-adjusted GDP per capita Constant 2017 international $, PPP'" pointer-events="none"><text text-anchor="middle" transform="translate(0,25)" font-family="Circular Std" font-size="12px" fill="#000" opacity="1"><tspan>Index of real PPP-adjusted GDP per capita</tspan><tspan x="0" dy="14">Constant 2017 international $, PPP</tspan></text></g></g><path class="foreground" aria-hidden="true" d="" pointer-events="none" display="none"/></g></g></g><path class="foreground" aria-hidden="true" d="" display="none"/></g></g></g></svg>