<svg xmlns="http://www.w3.org/2000/svg" xmlns:xlink="http://www.w3.org/1999/xlink" version="1.1" class="marks" width="537" height="409" viewBox="0 0 537 409"><rect width="537" height="409" fill="white"/><g fill="none" stroke-miterlimit="10" transform="translate(30,68)"><g class="mark-group role-frame root" role="graphics-object" aria-roledescription="group mark container"><g transform="translate(0,0)"><path class="background" aria-hidden="true" d="M0.5,0.5h500v320h-500Z"/><g><g class="mark-group role-axis" aria-hidden="true"><g transform="translate(0.5,0.5)"><path class="background" aria-hidden="true" d="M0,0h0v0h0Z" pointer-events="none"/><g><g class="mark-rule role-axis-grid" pointer-events="none"><line transform="translate(0,320)" x2="500" y2="0" stroke="#122b39" stroke-opacity="0.5" stroke-width="1" stroke-dasharray="1,5" opacity="1"/><line transform="translate(0,258)" x2="500" y2="0" stroke="#122b39" stroke-opacity="0.5" stroke-width="1" stroke-dasharray="1,5" opacity="1"/><line transform="translate(0,197)" x2="500" y2="0" stroke="#122b39" stroke-opacity="0.5" stroke-width="1" stroke-dasharray="1,5" opacity="1"/><line transform="translate(0,135)" x2="500" y2="0" stroke="#122b39" stroke-opacity="0.5" stroke-width="1" stroke-dasharray="1,5" opacity="1"/><line transform="translate(0,74)" x2="500" y2="0" stroke="#122b39" stroke-opacity="0.5" stroke-width="1" stroke-dasharray="1,5" opacity="1"/><line transform="translate(0,12)" x2="500" y2="0" stroke="#122b39" stroke-opacity="0.5" stroke-width="1" stroke-dasharray="1,5" opacity="1"/></g></g><path class="foreground" aria-hidden="true" d="" pointer-events="none" display="none"/></g></g><g class="mark-group role-axis" role="graphics-symbol" aria-roledescription="axis" aria-label="X-axis for a discrete scale with 29 values: 2000, 2001, 2002, 2003, 2004, ending with 2028"><g transform="translate(0.5,320.5)"><path class="background" aria-hidden="true" d="M0,0h0v0h0Z" pointer-events="none"/><g><g class="mark-rule role-axis-tick" pointer-events="none"><line transform="translate(9,0)" x2="0" y2="0" stroke="#122b39" stroke-width="1" opacity="1"/><line transform="translate(95,0)" x2="0" y2="0" stroke="#122b39" stroke-width="1" opacity="1"/><line transform="translate(181,0)" x2="0" y2="0" stroke="#122b39" stroke-width="1" opacity="1"/><line transform="translate(267,0)" x2="0" y2="0" stroke="#122b39" stroke-width="1" opacity="1"/><line transform="translate(353,0)" x2="0" y2="0" stroke="#122b39" stroke-width="1" opacity="1"/></g><g class="mark-text role-axis-label" pointer-events="none"><text text-anchor="middle" transform="translate(8.620689655172384,14)" font-family="Circular Std" font-size="11px" fill="#122b39" opacity="1">2000</text><text text-anchor="middle" transform="translate(94.82758620689653,14)" font-family="Circular Std" font-size="11px" fill="#122b39" opacity="1">2005</text><text text-anchor="middle" transform="translate(181.03448275862067,14)" font-family="Circular Std" font-size="11px" fill="#122b39" opacity="1">2010</text><text text-anchor="middle" transform="translate(267.2413793103448,14)" font-family="Circular Std" font-size="11px" fill="#122b39" opacity="1">2015</text><text text-anchor="middle" transform="translate(353.44827586206895,14)" font-family="Circular Std" font-size="11px" fill="#122b39" opacity="1">2020</text></g><g class="mark-rule role-axis-domain" pointer-events="none"><line transform="translate(0,0)" x2="500" y2="0" stroke="#122b39" stroke-opacity="0.5" stroke-width="1" opacity="1"/></g></g><path class="foreground" aria-hidden="true" d="" pointer-events="none" display="none"/></g></g><g class="mark-group role-axis" role="graphics-symbol" aria-roledescription="axis" aria-label="Y-axis titled 'Index, 2000 = 100' for a linear scale with values from 0 to 260"><g transform="translate(0.5,0.5)"><path class="background" aria-hidden="true" d="M0,0h0v0h0Z" pointer-events="none"/><g><g class="mark-rule role-axis-tick" pointer-events="none"><line transform="translate(0,320)" x2="0" y2="0" stroke="#122b39" stroke-width="1" opacity="1"/><line transform="translate(0,258)" x2="0" y2="0" stroke="#122b39" stroke-width="1" opacity="1"/><line transform="translate(0,197)" x2="0" y2="0" stroke="#122b39" stroke-width="1" opacity="1"/><line transform="translate(0,135)" x2="0" y2="0" stroke="#122b39" stroke-width="1" opacity="1"/><line transform="translate(0,74)" x2="0" y2="0" stroke="#122b39" stroke-width="1" opacity="1"/><line transform="translate(0,12)" x2="0" y2="0" stroke="#122b39" stroke-width="1" opacity="1"/></g><g class="mark-text role-axis-label" pointer-events="none"><text text-anchor="end" transform="translate(-5,323)" font-family="Circular Std" font-size="11px" fill="#122b39" opacity="1">0</text><text text-anchor="end" transform="translate(-5,261.46153846153845)" font-family="Circular Std" font-size="11px" fill="#122b39" opacity="1">50</text><text text-anchor="end" transform="translate(-5,199.92307692307693)" font-family="Circular Std" font-size="11px" fill="#122b39" opacity="1">100</text><text text-anchor="end" transform="translate(-5,138.38461538461542)" font-family="Circular Std" font-size="11px" fill="#122b39" opacity="1">150</text><text text-anchor="end" transform="translate(-5,76.84615384615384)" font-family="Circular Std" font-size="11px" fill="#122b39" opacity="1">200</text><text text-anchor="end" transform="translate(-5,15.3076923076923)" font-family="Circular Std" font-size="11px" fill="#122b39" opacity="1">250</text></g><g class="mark-rule role-axis-domain" pointer-events="none"><line transform="translate(0,320)" x2="0" y2="-320" stroke="#122b39" stroke-opacity="0.5" stroke-width="1" opacity="1"/></g><g class="mark-text role-axis-title" pointer-events="none"><text text-anchor="start" transform="translate(0,-9)" font-family="Circular Std" font-size="11px" font-weight="bold" fill="#122b39" fill-opacity="0.9" opacity="1">Index, 2000 = 100</text></g></g><path class="foreground" aria-hidden="true" d="" pointer-events="none" display="none"/></g></g><g class="mark-rule role-mark layer_0_marks" role="graphics-object" aria-roledescription="rule mark container"><line aria-label="y: 100" role="graphics-symbol" aria-roledescription="rule mark" transform="translate(500,196.92307692307693)" x2="-500" y2="0" stroke="#122b39" stroke-width="2" stroke-dasharray="1,0" opacity="0.9"/></g><g class="mark-group role-scope layer_1_pathgroup" role="graphics-object" aria-roledescription="group mark container"><g transform="translate(0,0)"><path class="background" aria-hidden="true" d="M0,0h500v320h-500Z"/><g><g class="mark-line role-mark layer_1_marks" role="graphics-object" aria-roledescription="line mark container"><path aria-label="year: 2000; Index, 2000 = 100: 100; group: Mexico" role="graphics-symbol" aria-roledescription="line mark" d="M8.621,196.923L25.862,199.282L43.103,201.286L60.345,201.547L77.586,198.987L94.828,198.085L112.069,193.945L129.31,193.125L146.552,193.784L163.793,203.446L181.034,199.401L198.276,197.001L215.517,194.347L232.759,194.91L250,193.32L267.241,191.281L284.483,190.263L301.724,189.065L318.966,187.74L336.207,189.506L353.448,201.384L370.69,195.047L387.931,191.382L405.172,188.297L422.414,187.527" stroke="#36b7b4" stroke-width="2.5" stroke-dasharray="0"/></g></g><path class="foreground" aria-hidden="true" d="" display="none"/></g><g transform="translate(0,0)"><path class="background" aria-hidden="true" d="M0,0h500v320h-500Z"/><g><g class="mark-line role-mark layer_1_marks" role="graphics-object" aria-roledescription="line mark container"><path aria-label="year: 2000; Index, 2000 = 100: 100; group: Chile" role="graphics-symbol" aria-roledescription="line mark" d="M8.621,196.923L25.862,194.5L43.103,191.902L60.345,187.248L77.586,179.81L94.828,173.093L112.069,165.719L129.31,159.326L146.552,154.895L163.793,158.38L181.034,150.632L198.276,141.857L215.517,132.698L232.759,128.338L250,126.837L267.241,124.686L284.483,123.651L301.724,124.112L318.966,119.901L336.207,121.826L353.448,135.661L370.69,115.707L387.931,112.339L405.172,112.379L422.414,108.032" stroke="#e6224b" stroke-width="2.5" stroke-dasharray="0"/></g></g><path class="foreground" aria-hidden="true" d="" display="none"/></g><g transform="translate(0,0)"><path class="background" aria-hidden="true" d="M0,0h500v320h-500Z"/><g><g class="mark-line role-mark layer_1_marks" role="graphics-object" aria-roledescription="line mark container"><path aria-label="year: 2000; Index, 2000 = 100: 100; group: Costa Rica" role="graphics-symbol" aria-roledescription="line mark" d="M8.621,196.923L25.862,194.889L43.103,192.733L60.345,189.262L77.586,185.47L94.828,182.128L112.069,174.084L129.31,164.221L146.552,159.037L163.793,162.561L181.034,156.167L198.276,150.952L215.517,144.755L232.759,142.372L250,138.046L267.241,133.395L284.483,127.505L301.724,121.386L318.966,118.026L336.207,114.87L353.448,124.992L370.69,110.584L387.931,101.991L405.172,91.913L422.414,83.188" stroke="#f4c245" stroke-width="2.5" stroke-dasharray="0"/></g></g><path class="foreground" aria-hidden="true" d="" display="none"/></g><g transform="translate(0,0)"><path class="background" aria-hidden="true" d="M0,0h500v320h-500Z"/><g><g class="mark-line role-mark layer_1_marks" role="graphics-object" aria-roledescription="line mark container"><path aria-label="year: 2000; Index, 2000 = 100: 100; group: LAC" role="graphics-symbol" aria-roledescription="line mark" d="M8.621,196.923L25.862,197.418L43.103,197.508L60.345,193.704L77.586,187.752L94.828,182.127L112.069,174.623L129.31,165.681L146.552,159.518L163.793,162.567L181.034,153.3L198.276,145.547L215.517,140.641L232.759,135.591L250,134.059L267.241,132.259L284.483,131.634L301.724,129.675L318.966,127.95L336.207,127.628L353.448,142.924L370.69,126.515L387.931,119.811L405.172,118.614L422.414,114.994" stroke="#122b39" stroke-width="2.5" stroke-dasharray="5,3"/></g></g><path class="foreground" aria-hidden="true" d="" display="none"/></g><g transform="translate(0,0)"><path class="background" aria-hidden="true" d="M0,0h500v320h-500Z"/><g><g class="mark-line role-mark layer_1_marks" role="graphics-object" aria-roledescription="line mark container"><path aria-label="year: 2000; Index, 2000 = 100: 100; group: Dynamic Asia" role="graphics-symbol" aria-roledescription="line mark" d="M8.621,196.923L25.862,194.562L43.103,190.381L60.345,184.34L77.586,177.401L94.828,171.065L112.069,164.287L129.31,156.572L146.552,152.186L163.793,149.575L181.034,139.767L198.276,133.824L215.517,125.145L232.759,117.476L250,109.119L267.241,99.402L284.483,88.936L301.724,77.784L318.966,66.25L336.207,56.362L353.448,69.043L370.69,59.623L387.931,43.667L405.172,30.955L422.414,17.055" stroke="#179fdb" stroke-width="2.5" stroke-dasharray="0"/></g></g><path class="foreground" aria-hidden="true" d="" display="none"/></g></g><g class="mark-text role-mark layer_2_marks" role="graphics-object" aria-roledescription="text mark container"><text aria-label="year: 2024; index: 107.634308694; group: Mexico" role="graphics-symbol" aria-roledescription="text mark" text-anchor="start" transform="translate(428.4137931034483,190.52700468439002)" font-family="Circular Std" font-size="11px" font-weight="500" fill="#36b7b4">Mexico</text><text aria-label="year: 2024; index: 172.224360295; group: Chile" role="graphics-symbol" aria-roledescription="text mark" text-anchor="start" transform="translate(428.4137931034483,111.03155655939617)" font-family="Circular Std" font-size="11px" font-weight="500" fill="#e6224b">Chile</text><text aria-label="year: 2024; index: 192.409812478; group: Costa Rica" role="graphics-symbol" aria-roledescription="text mark" text-anchor="start" transform="translate(428.4137931034483,86.18792310343471)" font-family="Circular Std" font-size="11px" font-weight="500" fill="#f4c245">Costa Rica</text><text aria-label="year: 2024; index: 166.567137635; group: LAC" role="graphics-symbol" aria-roledescription="text mark" text-anchor="start" transform="translate(428.4137931034483,117.99429214196627)" font-family="Circular Std" font-size="11px" font-weight="500" fill="#122b39">LAC</text><text aria-label="year: 2024; index: 246.142673048; group: Dynamic Asia" role="graphics-symbol" aria-roledescription="text mark" text-anchor="start" transform="translate(428.4137931034483,20.05517163378051)" font-family="Circular Std" font-size="11px" font-weight="500" fill="#179fdb">Dynamic Asia</text></g><g class="mark-group role-title"><g transform="translate(250,-63)"><path class="background" aria-hidden="true" d="M0,0h0v0h0Z" pointer-events="none"/><g><g class="mark-text role-title-text" role="graphics-symbol" aria-roledescription="title" aria-label="Title text 'Mexico's GDP per capita has barely grown in two decades'" pointer-events="none"><text text-anchor="middle" transform="translate(0,10)" font-family="Circular Std" font-size="13px" font-weight="bold" fill="#000" opacity="1">Mexico's GDP per capita has barely grown in two decades</text></g><g class="mark-text role-title-subtitle" role="graphics-symbol" aria-roledescription="subtitle" aria-label="Subtitle text 'Index of real PPP-adjusted GDP per capita Constant 2017 international $, PPP'" pointer-events="none"><text text-anchor="middle" transform="translate(0,25)" font-family="Circular Std" font-size="12px" fill="#000" opacity="1"><tspan>Index of real PPP-adjusted GDP per capita</tspan><tspan x="0" dy="14">Constant 2017 international $, PPP</tspan></text></g></g><path class="foreground" aria-hidden="true" d="" pointer-events="none" display="none"/></g></g></g><path class="foreground" aria-hidden="true" d="" display="none"/></g></g></g></svg>