<svg xmlns="http://www.w3.org/2000/svg" xmlns:xlink="http://www.w3.org/1999/xlink" version="1.1" class="marks" width="748" height="487" viewBox="0 0 748 487"><rect width="748" height="487" fill="white"/><g fill="none" stroke-miterlimit="10" transform="translate(36,67)"><g class="mark-group role-frame root" role="graphics-object" aria-roledescription="group mark container"><g transform="translate(0,0)"><path class="background" aria-hidden="true" d="M0,0h0v0h0Z"/><g><g class="mark-group role-scope concat_0_group" role="graphics-object" aria-roledescription="group mark container"><g transform="translate(0,0)"><path class="background" aria-hidden="true" d="M0,0h620v380h-620Z" stroke-width="0"/><g><g class="mark-group role-axis" aria-hidden="true"><g transform="translate(0.5,380.5)"><path class="background" aria-hidden="true" d="M0,0h0v0h0Z" pointer-events="none"/><g><g class="mark-rule role-axis-grid" pointer-events="none"><line transform="translate(23,-380)" x2="0" y2="380" stroke="#ddd" stroke-opacity="0" stroke-width="1" opacity="1"/><line transform="translate(69,-380)" x2="0" y2="380" stroke="#ddd" stroke-opacity="0" stroke-width="1" opacity="1"/><line transform="translate(115,-380)" x2="0" y2="380" stroke="#ddd" stroke-opacity="0" stroke-width="1" opacity="1"/><line transform="translate(161,-380)" x2="0" y2="380" stroke="#ddd" stroke-opacity="0" stroke-width="1" opacity="1"/><line transform="translate(207,-380)" x2="0" y2="380" stroke="#ddd" stroke-opacity="0" stroke-width="1" opacity="1"/><line transform="translate(253,-380)" x2="0" y2="380" stroke="#ddd" stroke-opacity="0" stroke-width="1" opacity="1"/><line transform="translate(299,-380)" x2="0" y2="380" stroke="#ddd" stroke-opacity="0" stroke-width="1" opacity="1"/><line transform="translate(345,-380)" x2="0" y2="380" stroke="#ddd" stroke-opacity="0" stroke-width="1" opacity="1"/><line transform="translate(391,-380)" x2="0" y2="380" stroke="#ddd" stroke-opacity="0" stroke-width="1" opacity="1"/><line transform="translate(436,-380)" x2="0" y2="380" stroke="#ddd" stroke-opacity="0" stroke-width="1" opacity="1"/><line transform="translate(482,-380)" x2="0" y2="380" stroke="#ddd" stroke-opacity="0" stroke-width="1" opacity="1"/><line transform="translate(528,-380)" x2="0" y2="380" stroke="#ddd" stroke-opacity="0" stroke-width="1" opacity="1"/><line transform="translate(574,-380)" x2="0" y2="380" stroke="#ddd" stroke-opacity="0" stroke-width="1" opacity="1"/></g></g><path class="foreground" aria-hidden="true" d="" pointer-events="none" display="none"/></g></g><g class="mark-group role-axis" aria-hidden="true"><g transform="translate(0.5,0.5)"><path class="background" aria-hidden="true" d="M0,0h0v0h0Z" pointer-events="none"/><g><g class="mark-rule role-axis-grid" pointer-events="none"><line transform="translate(0,380)" x2="620" y2="0" stroke="#122b39" stroke-opacity="0.5" stroke-width="1" stroke-dasharray="1,5" opacity="1"/><line transform="translate(0,261)" x2="620" y2="0" stroke="#122b39" stroke-opacity="0.5" stroke-width="1" stroke-dasharray="1,5" opacity="1"/><line transform="translate(0,143)" x2="620" y2="0" stroke="#122b39" stroke-opacity="0.5" stroke-width="1" stroke-dasharray="1,5" opacity="1"/><line transform="translate(0,24)" x2="620" y2="0" stroke="#122b39" stroke-opacity="0.5" stroke-width="1" stroke-dasharray="1,5" opacity="1"/></g></g><path class="foreground" aria-hidden="true" d="" pointer-events="none" display="none"/></g></g><g class="mark-group role-axis" role="graphics-symbol" aria-roledescription="axis" aria-label="X-axis for a time scale with values from 2012 to 2025"><g transform="translate(0.5,380.5)"><path class="background" aria-hidden="true" d="M0,0h0v0h0Z" pointer-events="none"/><g><g class="mark-rule role-axis-tick" pointer-events="none"><line transform="translate(23,0)" x2="0" y2="0" stroke="#122b39" stroke-width="1" opacity="1"/><line transform="translate(69,0)" x2="0" y2="0" stroke="#122b39" stroke-width="1" opacity="1"/><line transform="translate(115,0)" x2="0" y2="0" stroke="#122b39" stroke-width="1" opacity="1"/><line transform="translate(161,0)" x2="0" y2="0" stroke="#122b39" stroke-width="1" opacity="1"/><line transform="translate(207,0)" x2="0" y2="0" stroke="#122b39" stroke-width="1" opacity="1"/><line transform="translate(253,0)" x2="0" y2="0" stroke="#122b39" stroke-width="1" opacity="1"/><line transform="translate(299,0)" x2="0" y2="0" stroke="#122b39" stroke-width="1" opacity="1"/><line transform="translate(345,0)" x2="0" y2="0" stroke="#122b39" stroke-width="1" opacity="1"/><line transform="translate(391,0)" x2="0" y2="0" stroke="#122b39" stroke-width="1" opacity="1"/><line transform="translate(436,0)" x2="0" y2="0" stroke="#122b39" stroke-width="1" opacity="1"/><line transform="translate(482,0)" x2="0" y2="0" stroke="#122b39" stroke-width="1" opacity="1"/><line transform="translate(528,0)" x2="0" y2="0" stroke="#122b39" stroke-width="1" opacity="1"/><line transform="translate(574,0)" x2="0" y2="0" stroke="#122b39" stroke-width="1" opacity="1"/></g><g class="mark-text role-axis-label" pointer-events="none"><text text-anchor="middle" transform="translate(23.2613268676765,14)" font-family="Circular Std" font-size="11px" fill="#122b39" opacity="1">2013</text><text text-anchor="middle" transform="translate(69.14496194104875,14)" font-family="Circular Std" font-size="11px" fill="#122b39" opacity="1">2014</text><text text-anchor="middle" transform="translate(115.02859701442101,14)" font-family="Circular Std" font-size="11px" fill="#122b39" opacity="1">2015</text><text text-anchor="middle" transform="translate(160.91223208779323,14)" font-family="Circular Std" font-size="11px" fill="#122b39" opacity="1">2016</text><text text-anchor="middle" transform="translate(206.92157575040764,14)" font-family="Circular Std" font-size="11px" fill="#122b39" opacity="1">2017</text><text text-anchor="middle" transform="translate(252.80521082377987,14)" font-family="Circular Std" font-size="11px" fill="#122b39" opacity="1">2018</text><text text-anchor="middle" transform="translate(298.68884589715213,14)" font-family="Circular Std" font-size="11px" fill="#122b39" opacity="1">2019</text><text text-anchor="middle" transform="translate(344.5724809705244,14)" font-family="Circular Std" font-size="11px" fill="#122b39" opacity="1">2020</text><text text-anchor="middle" transform="translate(390.58182463313875,14)" font-family="Circular Std" font-size="11px" fill="#122b39" opacity="1">2021</text><text text-anchor="middle" transform="translate(436.465459706511,14)" font-family="Circular Std" font-size="11px" fill="#122b39" opacity="1">2022</text><text text-anchor="middle" transform="translate(482.3490947798832,14)" font-family="Circular Std" font-size="11px" fill="#122b39" opacity="1">2023</text><text text-anchor="middle" transform="translate(528.2327298532555,14)" font-family="Circular Std" font-size="11px" fill="#122b39" opacity="1">2024</text><text text-anchor="middle" transform="translate(574.2420735158698,14)" font-family="Circular Std" font-size="11px" fill="#122b39" opacity="1">2025</text></g><g class="mark-rule role-axis-domain" pointer-events="none"><line transform="translate(0,0)" x2="620" y2="0" stroke="#122b39" stroke-opacity="0.5" stroke-width="1" opacity="1"/></g></g><path class="foreground" aria-hidden="true" d="" pointer-events="none" display="none"/></g></g><g class="mark-group role-axis" role="graphics-symbol" aria-roledescription="axis" aria-label="Y-axis titled 'People' for a linear scale with values from 0.0 to 1.6"><g transform="translate(0.5,0.5)"><path class="background" aria-hidden="true" d="M0,0h0v0h0Z" pointer-events="none"/><g><g class="mark-rule role-axis-tick" pointer-events="none"><line transform="translate(0,380)" x2="0" y2="0" stroke="#122b39" stroke-width="1" opacity="1"/><line transform="translate(0,261)" x2="0" y2="0" stroke="#122b39" stroke-width="1" opacity="1"/><line transform="translate(0,143)" x2="0" y2="0" stroke="#122b39" stroke-width="1" opacity="1"/><line transform="translate(0,24)" x2="0" y2="0" stroke="#122b39" stroke-width="1" opacity="1"/></g><g class="mark-text role-axis-label" pointer-events="none"><text text-anchor="end" transform="translate(-5,383)" font-family="Circular Std" font-size="11px" fill="#122b39" opacity="1">0</text><text text-anchor="end" transform="translate(-5,264.25)" font-family="Circular Std" font-size="11px" fill="#122b39" opacity="1">500k</text><text text-anchor="end" transform="translate(-5,145.5)" font-family="Circular Std" font-size="11px" fill="#122b39" opacity="1">1M</text><text text-anchor="end" transform="translate(-5,26.75)" font-family="Circular Std" font-size="11px" fill="#122b39" opacity="1">1.5M</text></g><g class="mark-rule role-axis-domain" pointer-events="none"><line transform="translate(0,380)" x2="0" y2="-380" stroke="#122b39" stroke-opacity="0.5" stroke-width="1" opacity="1"/></g><g class="mark-text role-axis-title" pointer-events="none"><text text-anchor="start" transform="translate(0,-9)" font-family="Circular Std" font-size="11px" font-weight="bold" fill="#122b39" fill-opacity="0.9" opacity="1">People</text></g></g><path class="foreground" aria-hidden="true" d="" pointer-events="none" display="none"/></g></g><g class="mark-group role-scope concat_0_layer_0_pathgroup" role="graphics-object" aria-roledescription="group mark container"><g transform="translate(0,0)"><path class="background" aria-hidden="true" d="M0,0h620v380h-620Z"/><g><g class="mark-line role-mark concat_0_layer_0_marks" role="graphics-object" aria-roledescription="line mark container"><path aria-label="date: 2012; value_mn: 0.639; Flow: Immigration" role="graphics-symbol" aria-roledescription="line mark" d="M0,228.237C3.855,229.306,7.71,230.375,11.565,230.375C15.422,230.375,19.279,228.042,23.136,227.288C26.907,226.55,30.678,226.813,34.449,225.862C38.261,224.902,42.072,223.893,45.884,221.112C49.739,218.3,53.594,209,57.449,209C61.306,209,65.162,210.663,69.019,210.663C72.789,210.663,76.558,207.327,80.328,206.388C84.141,205.438,87.954,205.913,91.767,204.963C95.622,204.002,99.477,200.885,103.332,199.263C107.189,197.639,111.046,195.549,114.903,195.225C118.672,194.908,122.442,194.75,126.211,194.75C130.025,194.75,133.838,194.99,137.651,195.225C141.506,195.463,145.361,196.175,149.216,196.175C153.073,196.175,156.93,191.674,160.787,190.713C164.598,189.763,168.409,190.238,172.221,189.288C176.034,188.337,179.847,182.4,183.66,182.4C187.515,182.4,191.37,186.676,195.225,189.05C199.082,191.425,202.939,194.865,206.796,196.65C210.565,198.394,214.335,197.679,218.104,199.738C221.918,201.82,225.731,209.475,229.544,209.475C233.399,209.475,237.254,200.925,241.109,200.925C244.966,200.925,248.823,201.083,252.68,201.4C256.449,201.709,260.219,205.2,263.988,205.2C267.801,205.2,271.614,201.399,275.428,200.213C279.283,199.013,283.138,199.5,286.993,198.075C290.85,196.649,294.706,187.354,298.563,184.063C302.334,180.844,306.106,178.363,309.877,178.363C313.688,178.363,317.5,182.808,321.311,185.013C325.166,187.242,329.021,190.871,332.876,191.663C336.733,192.454,340.59,192.85,344.447,192.85C348.258,192.85,352.07,186.438,355.881,186.438C359.694,186.438,363.507,196.994,367.32,205.2C371.176,213.496,375.031,236.075,378.886,236.075C382.742,236.075,386.599,222.775,390.456,222.775C394.226,222.775,397.995,230.613,401.765,230.613C405.578,230.613,409.391,197.881,413.204,185.725C417.059,173.436,420.914,159.045,424.769,157.463C428.626,155.879,432.483,156.671,436.34,155.088C440.109,153.54,443.879,134.782,447.648,126.113C451.461,117.342,455.275,112.579,459.088,102.838C462.943,92.989,466.798,76.355,470.653,67.213C474.51,58.065,478.367,54.053,482.223,47.975C485.993,42.035,489.762,31.113,493.532,31.113C497.345,31.113,501.158,31.511,504.971,31.825C508.826,32.143,512.682,32.221,516.537,33.013C520.393,33.805,524.25,34.596,528.107,37.762C531.92,40.893,535.733,51.616,539.547,57.238C543.358,62.857,547.169,63.651,550.981,71.488C554.836,79.413,558.691,93.38,562.546,104.738C566.403,116.1,570.26,131.153,574.116,139.65C577.886,147.954,581.655,150.678,585.425,155.563C589.238,160.504,593.051,165.819,596.864,169.1C600.719,172.417,604.575,172.307,608.43,175.275C612.286,178.244,616.143,182.578,620,186.913" stroke="#179fdb" stroke-width="2.5"/></g></g><path class="foreground" aria-hidden="true" d="" display="none"/></g><g transform="translate(0,0)"><path class="background" aria-hidden="true" d="M0,0h620v380h-620Z"/><g><g class="mark-line role-mark concat_0_layer_0_marks" role="graphics-object" aria-roledescription="line mark container"><path aria-label="date: 2012; value_mn: 0.477; Flow: Emigration" role="graphics-symbol" aria-roledescription="line mark" d="M0,266.713C3.855,266.871,7.71,267.029,11.565,267.662C15.422,268.296,19.279,273.276,23.136,273.6C26.907,273.917,30.678,274.075,34.449,274.075C38.261,274.075,42.072,272.766,45.884,272.175C49.739,271.577,53.594,271.106,57.449,270.513C61.306,269.919,65.162,269.171,69.019,268.613C72.789,268.066,76.558,267.971,80.328,267.188C84.141,266.395,87.954,264.731,91.767,263.863C95.622,262.984,99.477,261.963,103.332,261.963C107.189,261.963,111.046,262.2,114.903,262.675C118.672,263.139,122.442,264.737,126.211,265.05C130.025,265.367,133.838,265.406,137.651,265.525C141.506,265.645,145.361,265.763,149.216,265.763C153.073,265.763,156.93,263.67,160.787,262.675C164.598,261.692,168.409,260.498,172.221,259.825C176.034,259.152,179.847,258.953,183.66,258.638C187.515,258.318,191.37,258.4,195.225,257.925C199.082,257.45,202.939,255.788,206.796,255.788C210.565,255.788,214.335,256.581,218.104,256.738C221.918,256.896,225.731,256.975,229.544,256.975C233.399,256.975,237.254,249.612,241.109,249.612C244.966,249.612,248.823,250.638,252.68,250.8C256.449,250.958,260.219,250.92,263.988,251.038C267.801,251.156,271.614,251.355,275.428,251.513C279.283,251.672,283.138,251.987,286.993,251.987C290.85,251.987,294.706,251.068,298.563,249.612C302.334,248.189,306.106,245.329,309.877,243.438C313.688,241.526,317.5,238.213,321.311,238.213C325.166,238.213,329.021,239.638,332.876,239.638C336.733,239.638,340.59,238.475,344.447,236.312C348.258,234.175,352.07,226.813,355.881,226.813C359.694,226.813,363.507,228.664,367.32,231.563C371.176,234.493,375.031,244.071,378.886,244.388C382.742,244.704,386.599,244.546,390.456,244.863C394.226,245.172,397.995,262.2,401.765,262.2C405.578,262.2,409.391,245.338,413.204,245.338C417.059,245.338,420.914,246.525,424.769,248.9C428.626,251.276,432.483,266,436.34,266C440.109,266,443.879,262.438,447.648,262.438C451.461,262.438,455.275,264.575,459.088,264.575C462.943,264.575,466.798,263.071,470.653,262.2C474.51,261.329,478.367,260.516,482.223,259.35C485.993,258.21,489.762,256.69,493.532,255.313C497.345,253.919,501.158,252.805,504.971,251.038C508.826,249.25,512.682,246.604,516.537,244.625C520.393,242.645,524.25,241.356,528.107,239.163C531.92,236.994,535.733,233.819,539.547,231.563C543.358,229.307,547.169,227.087,550.981,225.625C554.836,224.146,558.691,223.962,562.546,222.775C566.403,221.587,570.26,219.31,574.116,218.5C577.886,217.708,581.655,217.312,585.425,217.312C589.238,217.312,593.051,220.164,596.864,221.112C600.719,222.071,604.575,221.944,608.43,223.013C612.286,224.081,616.143,225.803,620,227.525" stroke="#e6224b" stroke-width="2.5"/></g></g><path class="foreground" aria-hidden="true" d="" display="none"/></g><g transform="translate(0,0)"><path class="background" aria-hidden="true" d="M0,0h620v380h-620Z"/><g><g class="mark-line role-mark concat_0_layer_0_marks" role="graphics-object" aria-roledescription="line mark container"><path aria-label="date: 2012; value_mn: 0.162; Flow: Net migration" role="graphics-symbol" aria-roledescription="line mark" d="M0,341.525C3.855,342.119,7.71,342.713,11.565,342.713C15.422,342.713,19.279,335.145,23.136,333.688C26.907,332.263,30.678,332.337,34.449,331.55C38.261,330.755,42.072,330.679,45.884,328.938C49.739,327.176,53.594,318.488,57.449,318.488C61.306,318.488,65.162,322.05,69.019,322.05C72.789,322.05,76.558,319.2,80.328,319.2C84.141,319.2,87.954,321.1,91.767,321.1C95.622,321.1,99.477,318.725,103.332,317.3C107.189,315.875,111.046,313.824,114.903,312.55C118.672,311.305,122.442,309.7,126.211,309.7C130.025,309.7,133.838,309.7,137.651,309.7C141.506,309.7,145.361,310.413,149.216,310.413C153.073,310.413,156.93,308.038,160.787,308.038C164.598,308.038,168.409,309.225,172.221,309.225C176.034,309.225,179.847,303.763,183.66,303.763C187.515,303.763,191.37,308.276,195.225,311.125C199.082,313.975,202.939,319.404,206.796,320.863C210.565,322.288,214.335,321.575,218.104,323C221.918,324.442,225.731,332.5,229.544,332.5C233.399,332.5,237.254,331.629,241.109,331.313C244.966,330.996,248.823,330.6,252.68,330.6C256.449,330.6,260.219,334.163,263.988,334.163C267.801,334.163,271.614,330.005,275.428,328.7C279.283,327.381,283.138,327.908,286.993,326.325C290.85,324.741,294.706,314.45,298.563,314.45C302.334,314.45,306.106,314.608,309.877,314.925C313.688,315.245,317.5,323.953,321.311,326.8C325.166,329.679,329.021,330.442,332.876,332.025C336.733,333.609,340.59,335.028,344.447,336.3C348.258,337.557,352.07,337.408,355.881,339.625C359.694,341.843,363.507,348.33,367.32,353.638C371.176,359.003,375.031,371.688,378.886,371.688C382.742,371.688,386.599,361.78,390.456,357.913C394.226,354.133,397.995,354.825,401.765,348.65C405.578,342.403,409.391,330.303,413.204,320.388C417.059,310.363,420.914,297.349,424.769,288.8C428.626,280.247,432.483,276.759,436.34,269.088C440.109,261.589,443.879,251.861,447.648,243.438C451.461,234.916,455.275,227.972,459.088,218.263C462.943,208.447,466.798,193.087,470.653,184.775C474.51,176.459,478.367,173.259,482.223,168.388C485.993,163.627,489.762,155.8,493.532,155.8C497.345,155.8,501.158,158.469,504.971,160.55C508.826,162.654,512.682,165.38,516.537,168.388C520.393,171.396,524.25,172.317,528.107,178.6C531.92,184.811,535.733,197.797,539.547,205.675C543.358,213.55,547.169,216.564,550.981,225.862C554.836,235.267,558.691,249.378,562.546,261.963C566.403,274.553,570.26,291.983,574.116,301.388C577.886,310.579,581.655,313.828,585.425,318.25C589.238,322.723,593.051,325.694,596.864,327.988C600.719,330.306,604.575,330.126,608.43,332.025C612.286,333.925,616.143,336.656,620,339.388" stroke="#d6d4d4" stroke-width="2.5"/></g></g><path class="foreground" aria-hidden="true" d="" display="none"/></g></g><g class="mark-rule role-mark concat_0_layer_1_marks" role="graphics-object" aria-roledescription="rule mark container"><line aria-label="date: Jan 01, 2021" role="graphics-symbol" aria-roledescription="rule mark" transform="translate(390.58182463313875,0)" x2="0" y2="380" stroke="#122b39" stroke-width="1.2" stroke-dasharray="4,4" opacity="0.55"/></g><g class="mark-text role-mark concat_0_layer_2_marks" role="graphics-object" aria-roledescription="text mark container"><text aria-label="date: Jan 01, 2021" role="graphics-symbol" aria-roledescription="text mark" text-anchor="start" transform="translate(396.58182463313875,11)" font-family="Circular Std" font-size="10px" font-weight="500" fill="#122b39"><tspan>End of EU transition,</tspan><tspan x="0" dy="12">new immigration system</tspan></text></g><g class="mark-symbol role-mark concat_0_layer_3_marks" role="graphics-object" aria-roledescription="symbol mark container"><path aria-label="date: Dec 31, 2025; value_mn: 0.813; Flow: Immigration" role="graphics-symbol" aria-roledescription="circle" transform="translate(620,186.91250000000002)" d="M4.183,0A4.183,4.183,0,1,1,-4.183,0A4.183,4.183,0,1,1,4.183,0" fill="#179fdb" stroke-width="2" opacity="0.7"/><path aria-label="date: Dec 31, 2025; value_mn: 0.642; Flow: Emigration" role="graphics-symbol" aria-roledescription="circle" transform="translate(620,227.525)" d="M4.183,0A4.183,4.183,0,1,1,-4.183,0A4.183,4.183,0,1,1,4.183,0" fill="#e6224b" stroke-width="2" opacity="0.7"/><path aria-label="date: Dec 31, 2025; value_mn: 0.171; Flow: Net migration" role="graphics-symbol" aria-roledescription="circle" transform="translate(620,339.3875)" d="M4.183,0A4.183,4.183,0,1,1,-4.183,0A4.183,4.183,0,1,1,4.183,0" fill="#d6d4d4" stroke-width="2" opacity="0.7"/></g><g class="mark-text role-mark concat_0_layer_4_marks" role="graphics-object" aria-roledescription="text mark container"><text aria-label="date: Dec 31, 2025; value_mn: 0.813; Flow: Immigration" role="graphics-symbol" aria-roledescription="text mark" text-anchor="start" transform="translate(630,190.91250000000002)" font-family="Circular Std" font-size="12px" font-weight="500" fill="#179fdb">Immigration</text><text aria-label="date: Dec 31, 2025; value_mn: 0.642; Flow: Emigration" role="graphics-symbol" aria-roledescription="text mark" text-anchor="start" transform="translate(630,231.525)" font-family="Circular Std" font-size="12px" font-weight="500" fill="#e6224b">Emigration</text><text aria-label="date: Dec 31, 2025; value_mn: 0.171; Flow: Net migration" role="graphics-symbol" aria-roledescription="text mark" text-anchor="start" transform="translate(630,343.3875)" font-family="Circular Std" font-size="12px" font-weight="500" fill="#d6d4d4">Net migration</text></g><g class="mark-group role-title"><g transform="translate(-30.608001708984375,-62)"><path class="background" aria-hidden="true" d="M0,0h0v0h0Z" pointer-events="none"/><g><g class="mark-text role-title-text" role="graphics-symbol" aria-roledescription="title" aria-label="Title text 'UK net migration almost halved in 2025'" pointer-events="none"><text text-anchor="start" transform="translate(0,14)" font-family="Circular Std" font-size="18px" font-weight="bold" fill="#000" opacity="1">UK net migration almost halved in 2025</text></g><g class="mark-text role-title-subtitle" role="graphics-symbol" aria-roledescription="subtitle" aria-label="Subtitle text 'Long-term UK migration flows, 12-month rolling estimate'" pointer-events="none"><text text-anchor="start" transform="translate(0,30)" font-family="Circular Std" font-size="12px" fill="#5a6b75" opacity="1">Long-term UK migration flows, 12-month rolling estimate</text></g></g><path class="foreground" aria-hidden="true" d="" pointer-events="none" display="none"/></g></g></g><path class="foreground" aria-hidden="true" d="" display="none"/></g></g><g class="mark-group role-scope concat_1_group" role="graphics-object" aria-roledescription="group mark container"><g transform="translate(0,401)"><path class="background" aria-hidden="true" d="M0,0h400v14h-400Z" stroke-width="0"/><g><g class="mark-text role-mark concat_1_marks" role="graphics-object" aria-roledescription="text mark container"><text text-anchor="start" transform="translate(0,8)" font-family="Circular Std" font-size="10px" fill="#5a6b75">Source: ONS. Latest estimates are provisional.</text></g></g><path class="foreground" aria-hidden="true" d="" display="none"/></g></g></g><path class="foreground" aria-hidden="true" d="" display="none"/></g></g></g></svg>