<svg xmlns="http://www.w3.org/2000/svg" xmlns:xlink="http://www.w3.org/1999/xlink" version="1.1" class="marks" width="429" height="354" viewBox="0 0 429 354"><rect width="429" height="354" fill="white"/><g fill="none" stroke-miterlimit="10" transform="translate(26,16)"><g class="mark-group role-frame root" role="graphics-object" aria-roledescription="group mark container"><g transform="translate(0,0)"><path class="background" aria-hidden="true" d="M0.5,0.5h350v280h-350Z"/><g><g class="mark-group role-axis" aria-hidden="true"><g transform="translate(0.5,0.5)"><path class="background" aria-hidden="true" d="M0,0h0v0h0Z" pointer-events="none"/><g><g class="mark-rule role-axis-grid" pointer-events="none"><line transform="translate(0,280)" x2="350" y2="0" stroke="#676A86" stroke-opacity="0.5" stroke-width="1" stroke-dasharray="1,5" opacity="1"/><line transform="translate(0,237)" x2="350" y2="0" stroke="#676A86" stroke-opacity="0.5" stroke-width="1" stroke-dasharray="1,5" opacity="1"/><line transform="translate(0,194)" x2="350" y2="0" stroke="#676A86" stroke-opacity="0.5" stroke-width="1" stroke-dasharray="1,5" opacity="1"/><line transform="translate(0,151)" x2="350" y2="0" stroke="#676A86" stroke-opacity="0.5" stroke-width="1" stroke-dasharray="1,5" opacity="1"/><line transform="translate(0,108)" x2="350" y2="0" stroke="#676A86" stroke-opacity="0.5" stroke-width="1" stroke-dasharray="1,5" opacity="1"/><line transform="translate(0,65)" x2="350" y2="0" stroke="#676A86" stroke-opacity="0.5" stroke-width="1" stroke-dasharray="1,5" opacity="1"/><line transform="translate(0,22)" x2="350" y2="0" stroke="#676A86" stroke-opacity="0.5" stroke-width="1" stroke-dasharray="1,5" opacity="1"/></g></g><path class="foreground" aria-hidden="true" d="" pointer-events="none" display="none"/></g></g><g class="mark-group role-axis" role="graphics-symbol" aria-roledescription="axis" aria-label="X-axis for a time scale with values from 1990 to 2026"><g transform="translate(0.5,280.5)"><path class="background" aria-hidden="true" d="M0,0h0v0h0Z" pointer-events="none"/><g><g class="mark-rule role-axis-tick" pointer-events="none"><line transform="translate(47,0)" x2="0" y2="4" stroke="#676A86" stroke-opacity="0.5" stroke-width="1" opacity="1"/><line transform="translate(95,0)" x2="0" y2="4" stroke="#676A86" stroke-opacity="0.5" stroke-width="1" opacity="1"/><line transform="translate(142,0)" x2="0" y2="4" stroke="#676A86" stroke-opacity="0.5" stroke-width="1" opacity="1"/><line transform="translate(190,0)" x2="0" y2="4" stroke="#676A86" stroke-opacity="0.5" stroke-width="1" opacity="1"/><line transform="translate(238,0)" x2="0" y2="4" stroke="#676A86" stroke-opacity="0.5" stroke-width="1" opacity="1"/><line transform="translate(286,0)" x2="0" y2="4" stroke="#676A86" stroke-opacity="0.5" stroke-width="1" opacity="1"/><line transform="translate(333,0)" x2="0" y2="4" stroke="#676A86" stroke-opacity="0.5" stroke-width="1" opacity="1"/></g><g class="mark-text role-axis-label" pointer-events="none"><text text-anchor="middle" transform="translate(46.941975953998956,15)" font-family="Circular Std" font-size="11px" fill="#676A86" fill-opacity="0.7" opacity="1">1995</text><text text-anchor="middle" transform="translate(94.66806063774176,15)" font-family="Circular Std" font-size="11px" fill="#676A86" fill-opacity="0.7" opacity="1">2000</text><text text-anchor="middle" transform="translate(142.42028227914273,15)" font-family="Circular Std" font-size="11px" fill="#676A86" fill-opacity="0.7" opacity="1">2005</text><text text-anchor="middle" transform="translate(190.1463669628855,15)" font-family="Circular Std" font-size="11px" fill="#676A86" fill-opacity="0.7" opacity="1">2010</text><text text-anchor="middle" transform="translate(237.87245164662832,15)" font-family="Circular Std" font-size="11px" fill="#676A86" fill-opacity="0.7" opacity="1">2015</text><text text-anchor="middle" transform="translate(285.59853633037113,15)" font-family="Circular Std" font-size="11px" fill="#676A86" fill-opacity="0.7" opacity="1">2020</text><text text-anchor="middle" transform="translate(333.35075797177205,15)" font-family="Circular Std" font-size="11px" fill="#676A86" fill-opacity="0.7" opacity="1">2025</text></g><g class="mark-rule role-axis-domain" pointer-events="none"><line transform="translate(0,0)" x2="350" y2="0" stroke="#676A86" stroke-opacity="0.5" stroke-width="1" opacity="1"/></g></g><path class="foreground" aria-hidden="true" d="" pointer-events="none" display="none"/></g></g><g class="mark-group role-axis" role="graphics-symbol" aria-roledescription="axis" aria-label="Y-axis titled '10-year sovereign bond yield' for a linear scale with values from 0 to 13"><g transform="translate(0.5,0.5)"><path class="background" aria-hidden="true" d="M0,0h0v0h0Z" pointer-events="none"/><g><g class="mark-text role-axis-label" pointer-events="none"><text text-anchor="end" transform="translate(-5,283)" font-family="Circular Std" font-size="11px" fill="#676A86" fill-opacity="0.7" opacity="1">0%</text><text text-anchor="end" transform="translate(-5,239.92307692307693)" font-family="Circular Std" font-size="11px" fill="#676A86" fill-opacity="0.7" opacity="1">2%</text><text text-anchor="end" transform="translate(-5,196.84615384615384)" font-family="Circular Std" font-size="11px" fill="#676A86" fill-opacity="0.7" opacity="1">4%</text><text text-anchor="end" transform="translate(-5,153.76923076923077)" font-family="Circular Std" font-size="11px" fill="#676A86" fill-opacity="0.7" opacity="1">6%</text><text text-anchor="end" transform="translate(-5,110.69230769230768)" font-family="Circular Std" font-size="11px" fill="#676A86" fill-opacity="0.7" opacity="1">8%</text><text text-anchor="end" transform="translate(-5,67.6153846153846)" font-family="Circular Std" font-size="11px" fill="#676A86" fill-opacity="0.7" opacity="1">10%</text><text text-anchor="end" transform="translate(-5,24.538461538461526)" font-family="Circular Std" font-size="11px" fill="#676A86" fill-opacity="0.7" opacity="1">12%</text></g><g class="mark-rule role-axis-domain" pointer-events="none"><line transform="translate(0,280)" x2="0" y2="-280" stroke="#676A86" stroke-opacity="0.5" stroke-width="1" opacity="1"/></g><g class="mark-text role-axis-title" pointer-events="none"><text text-anchor="start" transform="translate(0,-7)" font-family="Circular Std" font-size="11px" font-weight="bold" fill="#676A86" fill-opacity="0.8" opacity="1">10-year sovereign bond yield</text></g></g><path class="foreground" aria-hidden="true" d="" pointer-events="none" display="none"/></g></g><g class="mark-group role-scope layer_0_pathgroup" role="graphics-object" aria-roledescription="group mark container"><g transform="translate(0,0)"><path class="background" aria-hidden="true" d="M0,0h350v280h-350Z"/><g><g class="mark-line role-mark layer_0_marks" role="graphics-object" aria-roledescription="line mark container"><path aria-label="date: 1990; 10-year sovereign bond yield: 10.942; series: UK" role="graphics-symbol" aria-roledescription="line mark" d="M0,44.326L0.732,34.505L1.542,19.492L2.326,4.415L3.136,16.606L3.921,27.095L4.731,24.575L5.541,19.729L6.325,17.705L7.135,29.637L7.919,42.022L8.73,44.52L9.54,59.511L10.272,61.191L11.082,62.009L11.866,59.942L12.676,56.086L13.461,53.975L14.271,61.643L15.081,66.188L15.865,73.597L16.675,71.378L17.459,67.437L18.27,70.022L19.08,77.323L19.838,80.338L20.648,67.415L21.432,82.277L22.243,87.662L23.027,82.708L23.837,79.262L24.647,72.369L25.431,86.8L26.242,103.6L27.026,95.631L27.836,102.243L28.646,105.775L29.378,111.246L30.188,112.926L30.972,105.495L31.783,105.517L32.567,115.877L33.377,122.769L34.187,133.538L34.971,131.6L35.781,132.892L36.566,137.631L37.376,148.831L38.186,146.16L38.918,131.062L39.728,118.483L40.512,111.16L41.323,93.994L42.107,94.015L42.917,97.397L43.727,96.966L44.511,90.225L45.321,91.926L46.106,98.022L46.916,92.4L47.726,93.929L48.458,94.446L49.268,97.225L50.052,98.323L50.863,109.157L51.647,97.44L52.457,103.622L53.267,105.883L54.051,105.065L54.861,109.222L55.646,117.514L56.456,119.991L57.266,118.871L58.024,106.745L58.834,104.548L59.618,106.917L60.429,104.698L61.213,110.191L62.023,109.975L62.833,110.04L63.617,115.274L64.428,116.006L65.212,122.102L66.022,118.311L66.832,120.745L67.564,124.449L68.374,115.877L69.158,122.92L69.969,125.16L70.753,127.228L71.563,129.36L72.373,127.745L73.157,141.314L73.968,139.095L74.752,140.129L75.562,144.458L76.372,149.843L77.104,148.637L77.914,152.837L78.698,153.182L79.509,157.317L80.293,154.323L81.103,155.809L81.913,165.071L82.697,174.655L83.508,171.015L84.292,179.2L85.102,186.252L85.912,190.249L86.644,180.342L87.454,181.44L88.238,180.966L89.049,175.345L89.833,171.058L90.643,164.898L91.453,168.237L92.237,158.954L93.048,163.542L93.832,167.418L94.642,161.969L95.452,156.218L96.21,162.443L97.02,167.009L97.804,167.591L98.615,168.366L99.399,168.625L100.209,167.44L101.019,165.178L101.803,168.022L102.614,168.818L103.398,174.72L104.208,174.655L105.018,175.754L105.75,174.849L106.56,175.194L107.344,169.572L108.155,167.246L108.939,166.018L109.749,172.308L110.559,175.495L111.343,174.849L112.154,182.237L112.938,179.502L113.748,170.908L114.558,174.677L115.29,172.351L116.1,165.76L116.884,168.043L117.695,166.492L118.479,171.963L119.289,175.194L120.099,180.298L120.883,185.382L121.694,181.742L122.478,179.157L123.288,185.662L124.098,187.6L124.83,189.969L125.64,187.6L126.424,184.369L127.235,192.338L128.019,190.185L128.829,182.431L129.639,180.923L130.423,182.215L131.234,172.092L132.018,171.446L132.828,177.262L133.638,174.225L134.396,177.434L135.206,177.649L135.991,172.76L136.801,169.055L137.585,170.218L138.395,170.369L139.205,174.225L139.99,175.926L140.8,177.994L141.584,181.052L142.394,182.258L143.204,180.837L143.936,177.046L144.746,178.985L145.531,182.517L146.341,187.234L147.125,190.163L147.935,187.169L148.745,190.658L149.53,187.665L150.34,186.652L151.124,189.452L151.934,191.822L152.744,190.658L153.476,189.775L154.286,185.188L155.071,179.846L155.881,181.289L156.665,178.683L157.475,180.858L158.285,182.754L159.07,182.56L159.88,182.754L160.664,182.883L161.474,177.843L162.284,172.76L163.016,176.637L163.826,173.708L164.611,171.446L165.421,166.88L166.205,162.357L167.015,166.966L167.825,171.382L168.61,171.425L169.42,172.415L170.204,179.049L171.014,181.655L171.824,182.388L172.582,183.723L173.393,186.286L174.177,179.351L174.987,172.846L175.771,169.508L176.581,176.422L177.392,183.529L178.176,184.132L178.986,182.862L179.77,198.778L180.58,215.018L181.39,200.222L182.122,202.268L182.933,211.852L183.717,204.357L184.527,199.532L185.311,200.631L186.121,198.089L186.932,203.258L187.716,202.742L188.526,202.138L189.31,204.077L190.12,193.588L190.93,195.871L191.662,193.006L192.473,195.009L193.257,195.677L194.067,202.72L194.851,207.674L195.661,208.234L196.472,218.96L197.256,216.548L198.066,213.834L198.85,210.603L199.66,206.877L200.47,201.191L201.202,200.545L202.013,200.502L202.797,204.96L203.607,208.945L204.391,206.985L205.201,218.271L206.012,223.892L206.796,227.877L207.606,227.403L208.39,230.095L209.2,237.418L210.01,237.591L210.768,233.735L211.579,232.572L212.363,234.554L213.173,246.098L213.957,242.717L214.767,248.317L215.578,248.252L216.362,243.062L217.172,240.24L217.956,241.812L218.766,240.455L219.577,234.877L220.308,237.526L221.119,242.049L221.903,243.945L222.713,236.772L223.497,227.468L224.307,229.234L225.118,220.188L225.902,221.437L226.712,223.505L227.496,220.338L228.306,214.695L229.117,221.609L229.848,221.351L230.659,221.006L231.443,222.514L232.253,224.689L233.037,222.471L233.847,223.634L234.658,228.868L235.442,227.64L236.252,231.646L237.036,238.517L237.846,242.178L238.657,250.665L239.388,241.64L240.199,245.926L240.983,240.477L241.793,241.145L242.577,236.277L243.387,239.443L244.198,237.978L244.982,241.963L245.792,238.538L246.576,240.585L247.386,237.763L248.197,246.142L248.955,251.203L249.765,249.502L250.549,245.452L251.359,248.985L252.143,260.637L252.953,265.16L253.764,266.151L254.548,263.652L255.358,253.228L256.142,249.329L256.952,253.292L257.763,249.458L258.495,255.338L259.305,255.403L260.089,256.588L260.899,257.578L261.683,252.926L262.493,253.551L263.304,257.686L264.088,250.665L264.898,251.246L265.682,251.418L266.492,254.412L267.303,247.735L268.035,247.585L268.845,250.902L269.629,249.394L270.439,253.594L271.223,252.409L272.033,251.354L272.844,249.157L273.628,246.12L274.438,248.963L275.222,250.729L276.032,252.668L276.843,253.551L277.574,251.785L278.385,258.397L279.169,254.477L279.979,260.788L280.763,262.08L281.573,266.883L282.384,269.683L283.168,269.532L283.978,266.409L284.762,264.923L285.572,262.231L286.383,268.671L287.141,270.523L287.951,272.354L288.735,275.111L289.545,276.015L290.329,276.295L291.14,277.738L291.95,273.258L292.734,275.003L293.544,274.335L294.328,273.409L295.139,275.778L295.949,272.914L296.681,262.274L297.491,261.778L298.275,261.843L299.085,262.855L299.869,264.535L300.68,267.809L301.49,266.603L302.274,257.988L303.084,257.772L303.868,262.532L304.679,259.065L305.489,251.806L306.221,249.523L307.031,245.388L307.815,238.883L308.625,234.769L309.409,231.754L310.22,240.089L311.03,219.714L311.814,191.778L312.624,204.12L313.408,211.874L314.219,200.975L315.029,208.191L315.761,197.637L316.571,204.831L317.355,199.963L318.165,189.991L318.949,185.511L319.76,187.212L320.57,186.092L321.354,184.218L322.164,182.689L322.948,190.055L323.758,203.775L324.569,198.197L325.327,191.132L326.137,195.182L326.921,186.286L327.731,186.868L328.515,190.055L329.326,194.471L330.136,193.48L330.92,193.631L331.73,184.175L332.514,188.526L333.325,181.505L334.135,182.28L334.867,183.378L335.677,179.265L336.461,184.391L337.271,179.889L338.055,183.378L338.866,181.634L339.676,178.295L340.46,178.748L341.27,185.058L342.054,184.326L342.865,183.637L343.675,182.538L344.407,188.763L345.217,174.074L346.001,171.812L346.811,176.249L347.595,177.494L348.406,171.239L349.216,170.811L350,168.935" stroke="#36B7B4" stroke-width="2.6"/></g></g><path class="foreground" aria-hidden="true" d="" display="none"/></g></g><g class="mark-text role-mark layer_1_marks" role="graphics-object" aria-roledescription="text mark container"><text aria-label="Max of date: Sep 30, 2026; yield for max date: 5.1566; series: UK" role="graphics-symbol" aria-roledescription="text mark" text-anchor="start" transform="translate(356,172.93476923076923)" font-family="Circular Std" font-size="13px" font-weight="bold" fill="#36B7B4">UK</text></g><g class="mark-group role-title"><g transform="translate(0,301)"><path class="background" aria-hidden="true" d="M0,0h0v0h0Z" pointer-events="none"/><g><g class="mark-text role-title-text" role="graphics-symbol" aria-roledescription="title" aria-label="Title text 'Source: LSEG'" pointer-events="none"><text text-anchor="start" transform="translate(0,21)" font-family="Circular Std" font-size="11px" font-weight="bold" fill="#676A86" opacity="1">Source: LSEG</text></g><g class="mark-text role-title-subtitle" role="graphics-symbol" aria-roledescription="subtitle" aria-label="Subtitle text 'UK 10-year sovereign bond yield, %. Monthly, 1990–2026.'" pointer-events="none"><text text-anchor="start" transform="translate(0,35)" font-family="Circular Std" font-size="10px" fill="#676A86" opacity="1">UK 10-year sovereign bond yield, %. Monthly, 1990–2026.</text></g></g><path class="foreground" aria-hidden="true" d="" pointer-events="none" display="none"/></g></g></g><path class="foreground" aria-hidden="true" d="" display="none"/></g></g></g></svg>