<svg xmlns="http://www.w3.org/2000/svg" xmlns:xlink="http://www.w3.org/1999/xlink" version="1.1" class="marks" width="675" height="428" viewBox="0 0 675 428"><rect width="675" height="428" fill="white"/><g fill="none" stroke-miterlimit="10" transform="translate(39,106)"><g class="mark-group role-frame root" role="graphics-object" aria-roledescription="group mark container"><g transform="translate(0,0)"><path class="background" aria-hidden="true" d="M0.5,0.5h600v300h-600Z"/><g><g class="mark-group role-axis" aria-hidden="true"><g transform="translate(0.5,0.5)"><path class="background" aria-hidden="true" d="M0,0h0v0h0Z" pointer-events="none"/><g><g class="mark-rule role-axis-grid" pointer-events="none"><line transform="translate(0,300)" x2="600" y2="0" stroke="#676A86" stroke-opacity="0.5" stroke-width="1" stroke-dasharray="1,5" opacity="1"/><line transform="translate(0,250)" x2="600" y2="0" stroke="#676A86" stroke-opacity="0.5" stroke-width="1" stroke-dasharray="1,5" opacity="1"/><line transform="translate(0,200)" x2="600" y2="0" stroke="#676A86" stroke-opacity="0.5" stroke-width="1" stroke-dasharray="1,5" opacity="1"/><line transform="translate(0,150)" x2="600" y2="0" stroke="#676A86" stroke-opacity="0.5" stroke-width="1" stroke-dasharray="1,5" opacity="1"/><line transform="translate(0,100)" x2="600" y2="0" stroke="#676A86" stroke-opacity="0.5" stroke-width="1" stroke-dasharray="1,5" opacity="1"/><line transform="translate(0,50)" x2="600" y2="0" stroke="#676A86" stroke-opacity="0.5" stroke-width="1" stroke-dasharray="1,5" opacity="1"/><line transform="translate(0,0)" x2="600" y2="0" stroke="#676A86" stroke-opacity="0.5" stroke-width="1" stroke-dasharray="1,5" opacity="1"/></g></g><path class="foreground" aria-hidden="true" d="" pointer-events="none" display="none"/></g></g><g class="mark-group role-axis" role="graphics-symbol" aria-roledescription="axis" aria-label="X-axis for a discrete scale with 13 values: Feb 2024, Mar 2024, Apr 2024, May 2024, Jun 2024, ending with Feb 2025"><g transform="translate(0.5,300.5)"><path class="background" aria-hidden="true" d="M0,0h0v0h0Z" pointer-events="none"/><g><g class="mark-rule role-axis-tick" pointer-events="none"><line transform="translate(23,0)" x2="0" y2="5" stroke="#676A86" stroke-opacity="0.5" stroke-width="1" opacity="1"/><line transform="translate(161,0)" x2="0" y2="5" stroke="#676A86" stroke-opacity="0.5" stroke-width="1" opacity="1"/><line transform="translate(300,0)" x2="0" y2="5" stroke="#676A86" stroke-opacity="0.5" stroke-width="1" opacity="1"/><line transform="translate(438,0)" x2="0" y2="5" stroke="#676A86" stroke-opacity="0.5" stroke-width="1" opacity="1"/><line transform="translate(576,0)" x2="0" y2="5" stroke="#676A86" stroke-opacity="0.5" stroke-width="1" opacity="1"/></g><g class="mark-text role-axis-label" pointer-events="none"><text text-anchor="middle" transform="translate(22.57692307692309,15)" font-family="Circular Std" font-size="10px" fill="#676A86" fill-opacity="0.7" opacity="1">Feb 2024</text><text text-anchor="middle" transform="translate(161.03846153846155,15)" font-family="Circular Std" font-size="10px" fill="#676A86" fill-opacity="0.7" opacity="1">May 2024</text><text text-anchor="middle" transform="translate(299.5,15)" font-family="Circular Std" font-size="10px" fill="#676A86" fill-opacity="0.7" opacity="1">Aug 2024</text><text text-anchor="middle" transform="translate(437.96153846153845,15)" font-family="Circular Std" font-size="10px" fill="#676A86" fill-opacity="0.7" opacity="1">Nov 2024</text><text text-anchor="middle" transform="translate(576.4230769230769,15)" font-family="Circular Std" font-size="10px" fill="#676A86" fill-opacity="0.7" opacity="1">Feb 2025</text></g><g class="mark-rule role-axis-domain" pointer-events="none"><line transform="translate(0,0)" x2="600" y2="0" stroke="#676A86" stroke-opacity="0.5" stroke-width="1" opacity="1"/></g></g><path class="foreground" aria-hidden="true" d="" pointer-events="none" display="none"/></g></g><g class="mark-group role-axis" role="graphics-symbol" aria-roledescription="axis" aria-label="Y-axis for a linear scale with values from −0.2% to 1.0%"><g transform="translate(0.5,0.5)"><path class="background" aria-hidden="true" d="M0,0h0v0h0Z" pointer-events="none"/><g><g class="mark-text role-axis-label" pointer-events="none"><text text-anchor="end" transform="translate(-5,303)" font-family="Circular Std" font-size="10px" fill="#676A86" fill-opacity="0.7" opacity="1">−0.2%</text><text text-anchor="end" transform="translate(-5,253)" font-family="Circular Std" font-size="10px" fill="#676A86" fill-opacity="0.7" opacity="1">0.0%</text><text text-anchor="end" transform="translate(-5,203.00000000000003)" font-family="Circular Std" font-size="10px" fill="#676A86" fill-opacity="0.7" opacity="1">0.2%</text><text text-anchor="end" transform="translate(-5,153)" font-family="Circular Std" font-size="10px" fill="#676A86" fill-opacity="0.7" opacity="1">0.4%</text><text text-anchor="end" transform="translate(-5,103.00000000000001)" font-family="Circular Std" font-size="10px" fill="#676A86" fill-opacity="0.7" opacity="1">0.6%</text><text text-anchor="end" transform="translate(-5,52.999999999999986)" font-family="Circular Std" font-size="10px" fill="#676A86" fill-opacity="0.7" opacity="1">0.8%</text><text text-anchor="end" transform="translate(-5,3)" font-family="Circular Std" font-size="10px" fill="#676A86" fill-opacity="0.7" opacity="1">1.0%</text></g><g class="mark-rule role-axis-domain" pointer-events="none"><line transform="translate(0,300)" x2="0" y2="-300" stroke="#676A86" stroke-opacity="0.5" stroke-width="1" opacity="1"/></g></g><path class="foreground" aria-hidden="true" d="" pointer-events="none" display="none"/></g></g><g class="mark-rule role-mark layer_0_marks" role="graphics-object" aria-roledescription="rule mark container"><line aria-label="y: 0" role="graphics-symbol" aria-roledescription="rule mark" transform="translate(600,250)" x2="-600" y2="0" stroke="#676A86"/></g><g class="mark-rect role-mark layer_1_marks" role="graphics-object" aria-roledescription="rect mark container"><path aria-label="Month: Feb 2024; Value: 0.0%; Sector: Construction" role="graphics-symbol" aria-roledescription="bar" d="M2.307692307692321,250h41.53846153846154v7.5h-41.53846153846154Z" fill="#7db4e9"/><path aria-label="Month: Mar 2024; Value: 0.0%; Sector: Construction" role="graphics-symbol" aria-roledescription="bar" d="M48.461538461538474,22.499999999999986h41.53846153846154v0h-41.53846153846154Z" fill="#7db4e9"/><path aria-label="Month: Apr 2024; Value: 0.0%; Sector: Construction" role="graphics-symbol" aria-roledescription="bar" d="M94.61538461538463,250h41.53846153846154v10h-41.53846153846154Z" fill="#7db4e9"/><path aria-label="Month: May 2024; Value: 0.0%; Sector: Construction" role="graphics-symbol" aria-roledescription="bar" d="M140.76923076923077,27.500000000000004h41.53846153846154v0h-41.53846153846154Z" fill="#7db4e9"/><path aria-label="Month: Jun 2024; Value: 0.0%; Sector: Construction" role="graphics-symbol" aria-roledescription="bar" d="M186.92307692307693,122.50000000000003h41.53846153846154v4.999999999999986h-41.53846153846154Z" fill="#7db4e9"/><path aria-label="Month: Jul 2024; Value: 0.1%; Sector: Construction" role="graphics-symbol" aria-roledescription="bar" d="M233.0769230769231,165h41.53846153846154v17.50000000000003h-41.53846153846154Z" fill="#7db4e9"/><path aria-label="Month: Aug 2024; Value: 0.1%; Sector: Construction" role="graphics-symbol" aria-roledescription="bar" d="M279.2307692307692,237.5h41.53846153846154v12.5h-41.53846153846154Z" fill="#7db4e9"/><path aria-label="Month: Sep 2024; Value: 0.0%; Sector: Construction" role="graphics-symbol" aria-roledescription="bar" d="M325.3846153846154,240h41.53846153846154v5h-41.53846153846154Z" fill="#7db4e9"/><path aria-label="Month: Oct 2024; Value: 0.0%; Sector: Construction" role="graphics-symbol" aria-roledescription="bar" d="M371.53846153846155,250h41.53846153846154v0h-41.53846153846154Z" fill="#7db4e9"/><path aria-label="Month: Nov 2024; Value: 0.0%; Sector: Construction" role="graphics-symbol" aria-roledescription="bar" d="M417.6923076923077,245h41.53846153846154v2.5h-41.53846153846154Z" fill="#7db4e9"/><path aria-label="Month: Dec 2024; Value: 0.0%; Sector: Construction" role="graphics-symbol" aria-roledescription="bar" d="M463.84615384615387,222.5h41.53846153846154v5h-41.53846153846154Z" fill="#7db4e9"/><path aria-label="Month: Jan 2025; Value: 0.0%; Sector: Construction" role="graphics-symbol" aria-roledescription="bar" d="M510,175.00000000000006h41.53846153846154v2.499999999999943h-41.53846153846154Z" fill="#7db4e9"/><path aria-label="Month: Feb 2025; Value: 0.0%; Sector: Construction" role="graphics-symbol" aria-roledescription="bar" d="M556.1538461538462,97.50000000000001h41.53846153846154v0h-41.53846153846154Z" fill="#7db4e9"/><path aria-label="Month: Feb 2024; Value: 0.5%; Sector: Services" role="graphics-symbol" aria-roledescription="bar" d="M2.307692307692321,135.00000000000003h41.53846153846154v114.99999999999997h-41.53846153846154Z" fill="#86c7a8"/><path aria-label="Month: Mar 2024; Value: 0.9%; Sector: Services" role="graphics-symbol" aria-roledescription="bar" d="M48.461538461538474,29.999999999999993h41.53846153846154v220h-41.53846153846154Z" fill="#86c7a8"/><path aria-label="Month: Apr 2024; Value: 0.9%; Sector: Services" role="graphics-symbol" aria-roledescription="bar" d="M94.61538461538463,32.500000000000014h41.53846153846154v217.5h-41.53846153846154Z" fill="#86c7a8"/><path aria-label="Month: May 2024; Value: 0.9%; Sector: Services" role="graphics-symbol" aria-roledescription="bar" d="M140.76923076923077,27.500000000000004h41.53846153846154v222.5h-41.53846153846154Z" fill="#86c7a8"/><path aria-label="Month: Jun 2024; Value: 0.5%; Sector: Services" role="graphics-symbol" aria-roledescription="bar" d="M186.92307692307693,127.50000000000001h41.53846153846154v122.49999999999999h-41.53846153846154Z" fill="#86c7a8"/><path aria-label="Month: Jul 2024; Value: 0.3%; Sector: Services" role="graphics-symbol" aria-roledescription="bar" d="M233.0769230769231,182.50000000000003h41.53846153846154v67.49999999999997h-41.53846153846154Z" fill="#86c7a8"/><path aria-label="Month: Aug 2024; Value: 0.0%; Sector: Services" role="graphics-symbol" aria-roledescription="bar" d="M279.2307692307692,250h41.53846153846154v0h-41.53846153846154Z" fill="#86c7a8"/><path aria-label="Month: Sep 2024; Value: 0.0%; Sector: Services" role="graphics-symbol" aria-roledescription="bar" d="M325.3846153846154,245h41.53846153846154v5h-41.53846153846154Z" fill="#86c7a8"/><path aria-label="Month: Oct 2024; Value: 0.0%; Sector: Services" role="graphics-symbol" aria-roledescription="bar" d="M371.53846153846155,250h41.53846153846154v2.5h-41.53846153846154Z" fill="#86c7a8"/><path aria-label="Month: Nov 2024; Value: 0.0%; Sector: Services" role="graphics-symbol" aria-roledescription="bar" d="M417.6923076923077,247.5h41.53846153846154v2.5h-41.53846153846154Z" fill="#86c7a8"/><path aria-label="Month: Dec 2024; Value: 0.1%; Sector: Services" role="graphics-symbol" aria-roledescription="bar" d="M463.84615384615387,227.5h41.53846153846154v22.5h-41.53846153846154Z" fill="#86c7a8"/><path aria-label="Month: Jan 2025; Value: 0.3%; Sector: Services" role="graphics-symbol" aria-roledescription="bar" d="M510,177.5h41.53846153846154v72.5h-41.53846153846154Z" fill="#86c7a8"/><path aria-label="Month: Feb 2025; Value: 0.5%; Sector: Services" role="graphics-symbol" aria-roledescription="bar" d="M556.1538461538462,120h41.53846153846154v130h-41.53846153846154Z" fill="#86c7a8"/><path aria-label="Month: Feb 2024; Value: 0.0%; Sector: Production" role="graphics-symbol" aria-roledescription="bar" d="M2.307692307692321,135.00000000000003h41.53846153846154v0h-41.53846153846154Z" fill="#bce3e1"/><path aria-label="Month: Mar 2024; Value: 0.0%; Sector: Production" role="graphics-symbol" aria-roledescription="bar" d="M48.461538461538474,22.499999999999986h41.53846153846154v7.500000000000007h-41.53846153846154Z" fill="#bce3e1"/><path aria-label="Month: Apr 2024; Value: 0.0%; Sector: Production" role="graphics-symbol" aria-roledescription="bar" d="M94.61538461538463,22.500000000000053h41.53846153846154v9.999999999999961h-41.53846153846154Z" fill="#bce3e1"/><path aria-label="Month: May 2024; Value: 0.0%; Sector: Production" role="graphics-symbol" aria-roledescription="bar" d="M140.76923076923077,250h41.53846153846154v2.5h-41.53846153846154Z" fill="#bce3e1"/><path aria-label="Month: Jun 2024; Value: −0.1%; Sector: Production" role="graphics-symbol" aria-roledescription="bar" d="M186.92307692307693,250h41.53846153846154v15h-41.53846153846154Z" fill="#bce3e1"/><path aria-label="Month: Jul 2024; Value: −0.1%; Sector: Production" role="graphics-symbol" aria-roledescription="bar" d="M233.0769230769231,250h41.53846153846154v30h-41.53846153846154Z" fill="#bce3e1"/><path aria-label="Month: Aug 2024; Value: −0.1%; Sector: Production" role="graphics-symbol" aria-roledescription="bar" d="M279.2307692307692,250h41.53846153846154v17.5h-41.53846153846154Z" fill="#bce3e1"/><path aria-label="Month: Sep 2024; Value: 0.0%; Sector: Production" role="graphics-symbol" aria-roledescription="bar" d="M325.3846153846154,250h41.53846153846154v10h-41.53846153846154Z" fill="#bce3e1"/><path aria-label="Month: Oct 2024; Value: 0.0%; Sector: Production" role="graphics-symbol" aria-roledescription="bar" d="M371.53846153846155,252.5h41.53846153846154v2.5h-41.53846153846154Z" fill="#bce3e1"/><path aria-label="Month: Nov 2024; Value: −0.1%; Sector: Production" role="graphics-symbol" aria-roledescription="bar" d="M417.6923076923077,250h41.53846153846154v17.5h-41.53846153846154Z" fill="#bce3e1"/><path aria-label="Month: Dec 2024; Value: −0.1%; Sector: Production" role="graphics-symbol" aria-roledescription="bar" d="M463.84615384615387,250h41.53846153846154v15h-41.53846153846154Z" fill="#bce3e1"/><path aria-label="Month: Jan 2025; Value: 0.0%; Sector: Production" role="graphics-symbol" aria-roledescription="bar" d="M510,250h41.53846153846154v10h-41.53846153846154Z" fill="#bce3e1"/><path aria-label="Month: Feb 2025; Value: 0.1%; Sector: Production" role="graphics-symbol" aria-roledescription="bar" d="M556.1538461538462,97.50000000000001h41.53846153846154v22.499999999999986h-41.53846153846154Z" fill="#bce3e1"/></g><g class="mark-group role-scope layer_2_layer_0_pathgroup" role="graphics-object" aria-roledescription="group mark container"><g transform="translate(0,0)"><path class="background" aria-hidden="true" d="M0,0h600v300h-600Z"/><g><g class="mark-line role-mark layer_2_layer_0_marks" role="graphics-object" aria-roledescription="line mark container"><path aria-label="Month: Feb 2024; GDP: 0.0043; Sector: GDP" role="graphics-symbol" aria-roledescription="line mark" d="M23.077,142.5L69.231,22.5L115.385,32.5L161.538,30L207.692,140L253.846,192.5L300,255L346.154,250L392.308,252.5L438.462,260L484.615,235L530.769,185L576.923,97.5" stroke="#1f78b4" stroke-width="2"/></g></g><path class="foreground" aria-hidden="true" d="" display="none"/></g></g><g class="mark-symbol role-mark layer_2_layer_1_marks" role="graphics-object" aria-roledescription="symbol mark container"><path aria-label="Month: Feb 2024; GDP: 0.0043; Sector: GDP" role="graphics-symbol" aria-roledescription="point" transform="translate(23.07692307692309,142.5)" d="M2.739,0A2.739,2.739,0,1,1,-2.739,0A2.739,2.739,0,1,1,2.739,0" fill="#1f78b4" stroke-width="2" opacity="1"/><path aria-label="Month: Mar 2024; GDP: 0.0091; Sector: GDP" role="graphics-symbol" aria-roledescription="point" transform="translate(69.23076923076924,22.499999999999986)" d="M2.739,0A2.739,2.739,0,1,1,-2.739,0A2.739,2.739,0,1,1,2.739,0" fill="#1f78b4" stroke-width="2" opacity="1"/><path aria-label="Month: Apr 2024; GDP: 0.0087; Sector: GDP" role="graphics-symbol" aria-roledescription="point" transform="translate(115.3846153846154,32.500000000000014)" d="M2.739,0A2.739,2.739,0,1,1,-2.739,0A2.739,2.739,0,1,1,2.739,0" fill="#1f78b4" stroke-width="2" opacity="1"/><path aria-label="Month: May 2024; GDP: 0.0088; Sector: GDP" role="graphics-symbol" aria-roledescription="point" transform="translate(161.53846153846155,29.999999999999993)" d="M2.739,0A2.739,2.739,0,1,1,-2.739,0A2.739,2.739,0,1,1,2.739,0" fill="#1f78b4" stroke-width="2" opacity="1"/><path aria-label="Month: Jun 2024; GDP: 0.0044; Sector: GDP" role="graphics-symbol" aria-roledescription="point" transform="translate(207.6923076923077,140)" d="M2.739,0A2.739,2.739,0,1,1,-2.739,0A2.739,2.739,0,1,1,2.739,0" fill="#1f78b4" stroke-width="2" opacity="1"/><path aria-label="Month: Jul 2024; GDP: 0.0023; Sector: GDP" role="graphics-symbol" aria-roledescription="point" transform="translate(253.84615384615387,192.49999999999997)" d="M2.739,0A2.739,2.739,0,1,1,-2.739,0A2.739,2.739,0,1,1,2.739,0" fill="#1f78b4" stroke-width="2" opacity="1"/><path aria-label="Month: Aug 2024; GDP: −0.0002; Sector: GDP" role="graphics-symbol" aria-roledescription="point" transform="translate(300,255)" d="M2.739,0A2.739,2.739,0,1,1,-2.739,0A2.739,2.739,0,1,1,2.739,0" fill="#1f78b4" stroke-width="2" opacity="1"/><path aria-label="Month: Sep 2024; GDP: 0; Sector: GDP" role="graphics-symbol" aria-roledescription="point" transform="translate(346.1538461538462,250)" d="M2.739,0A2.739,2.739,0,1,1,-2.739,0A2.739,2.739,0,1,1,2.739,0" fill="#1f78b4" stroke-width="2" opacity="1"/><path aria-label="Month: Oct 2024; GDP: −0.0001; Sector: GDP" role="graphics-symbol" aria-roledescription="point" transform="translate(392.3076923076923,252.5)" d="M2.739,0A2.739,2.739,0,1,1,-2.739,0A2.739,2.739,0,1,1,2.739,0" fill="#1f78b4" stroke-width="2" opacity="1"/><path aria-label="Month: Nov 2024; GDP: −0.0004; Sector: GDP" role="graphics-symbol" aria-roledescription="point" transform="translate(438.46153846153845,260)" d="M2.739,0A2.739,2.739,0,1,1,-2.739,0A2.739,2.739,0,1,1,2.739,0" fill="#1f78b4" stroke-width="2" opacity="1"/><path aria-label="Month: Dec 2024; GDP: 0.0006; Sector: GDP" role="graphics-symbol" aria-roledescription="point" transform="translate(484.61538461538464,235)" d="M2.739,0A2.739,2.739,0,1,1,-2.739,0A2.739,2.739,0,1,1,2.739,0" fill="#1f78b4" stroke-width="2" opacity="1"/><path aria-label="Month: Jan 2025; GDP: 0.0026; Sector: GDP" role="graphics-symbol" aria-roledescription="point" transform="translate(530.7692307692307,185)" d="M2.739,0A2.739,2.739,0,1,1,-2.739,0A2.739,2.739,0,1,1,2.739,0" fill="#1f78b4" stroke-width="2" opacity="1"/><path aria-label="Month: Feb 2025; GDP: 0.0061; Sector: GDP" role="graphics-symbol" aria-roledescription="point" transform="translate(576.9230769230769,97.50000000000001)" d="M2.739,0A2.739,2.739,0,1,1,-2.739,0A2.739,2.739,0,1,1,2.739,0" fill="#1f78b4" stroke-width="2" opacity="1"/></g><g class="mark-text role-mark layer_3_marks" role="graphics-object" aria-roledescription="text mark container"><text aria-label="Month: Feb 2025; GDP: 0.0061; Label: GDP: 0.6%" role="graphics-symbol" aria-roledescription="text mark" text-anchor="start" transform="translate(571.9230769230769,91.50000000000001)" font-family="Circular Std" font-size="12px" fill="#1f78b4">GDP: 0.6%</text></g><g class="mark-group role-legend" role="graphics-symbol" aria-roledescription="legend" aria-label="Symbol legend for fill color and stroke color with 4 values: Production, Construction, Services, GDP"><g transform="translate(0,-31)"><path class="background" aria-hidden="true" d="M0,0h268v13h-268Z" pointer-events="none"/><g><g class="mark-group role-legend-entry"><g transform="translate(0,0)"><path class="background" aria-hidden="true" d="M0,0h0v0h0Z" pointer-events="none"/><g><g class="mark-group role-scope" role="graphics-object" aria-roledescription="group mark container"><g transform="translate(0,0.25)"><path class="background" aria-hidden="true" d="M0,0h66.43999481201172v12.5h-66.43999481201172Z" pointer-events="none" opacity="1"/><g><g class="mark-symbol role-legend-symbol" pointer-events="none"><path transform="translate(6,6)" d="M5,0A5,5,0,1,1,-5,0A5,5,0,1,1,5,0" fill="#bce3e1" stroke="#bce3e1" stroke-width="1.5" opacity="1"/></g><g class="mark-text role-legend-label" pointer-events="none"><text text-anchor="start" transform="translate(16,9)" font-family="Circular Std" font-size="10px" fill="#000" opacity="1">Production</text></g></g><path class="foreground" aria-hidden="true" d="" pointer-events="none" display="none"/></g><g transform="translate(78,0.25)"><path class="background" aria-hidden="true" d="M0,0h75.91000366210938v12.5h-75.91000366210938Z" pointer-events="none" opacity="1"/><g><g class="mark-symbol role-legend-symbol" pointer-events="none"><path transform="translate(6,6)" d="M5,0A5,5,0,1,1,-5,0A5,5,0,1,1,5,0" fill="#7db4e9" stroke="#7db4e9" stroke-width="1.5" opacity="1"/></g><g class="mark-text role-legend-label" pointer-events="none"><text text-anchor="start" transform="translate(16,9)" font-family="Circular Std" font-size="10px" fill="#000" opacity="1">Construction</text></g></g><path class="foreground" aria-hidden="true" d="" pointer-events="none" display="none"/></g><g transform="translate(165,0.25)"><path class="background" aria-hidden="true" d="M0,0h54.679996490478516v12.5h-54.679996490478516Z" pointer-events="none" opacity="1"/><g><g class="mark-symbol role-legend-symbol" pointer-events="none"><path transform="translate(6,6)" d="M5,0A5,5,0,1,1,-5,0A5,5,0,1,1,5,0" fill="#86c7a8" stroke="#86c7a8" stroke-width="1.5" opacity="1"/></g><g class="mark-text role-legend-label" pointer-events="none"><text text-anchor="start" transform="translate(16,9)" font-family="Circular Std" font-size="10px" fill="#000" opacity="1">Services</text></g></g><path class="foreground" aria-hidden="true" d="" pointer-events="none" display="none"/></g><g transform="translate(231,0.25)"><path class="background" aria-hidden="true" d="M0,0h36.97999954223633v12.5h-36.97999954223633Z" pointer-events="none" opacity="1"/><g><g class="mark-symbol role-legend-symbol" pointer-events="none"><path transform="translate(6,6)" d="M5,0A5,5,0,1,1,-5,0A5,5,0,1,1,5,0" fill="#1f78b4" stroke="#1f78b4" stroke-width="1.5" opacity="1"/></g><g class="mark-text role-legend-label" pointer-events="none"><text text-anchor="start" transform="translate(16,9)" font-family="Circular Std" font-size="10px" fill="#000" opacity="1">GDP</text></g></g><path class="foreground" aria-hidden="true" d="" pointer-events="none" display="none"/></g></g></g><path class="foreground" aria-hidden="true" d="" pointer-events="none" display="none"/></g></g></g><path class="foreground" aria-hidden="true" d="" pointer-events="none" display="none"/></g></g><g class="mark-group role-title"><g transform="translate(0,-100)"><path class="background" aria-hidden="true" d="M0,0h0v0h0Z" pointer-events="none"/><g><g class="mark-text role-title-text" role="graphics-symbol" aria-roledescription="title" aria-label="Title text 'UK: GDP Contribution by Sector'" pointer-events="none"><text text-anchor="start" transform="translate(0,17)" font-family="Circular Std" font-size="22px" font-weight="bold" fill="#000" opacity="1">UK: GDP Contribution by Sector</text></g><g class="mark-text role-title-subtitle" role="graphics-symbol" aria-roledescription="subtitle" aria-label="Subtitle text 'Three months averages, Feb 2024 - Feb 2025 Source: ONS 2025 '" pointer-events="none"><text text-anchor="start" transform="translate(0,34)" font-family="Circular Std" font-size="12px" fill="#676A86" opacity="1"><tspan>Three months averages, Feb 2024 - Feb 2025</tspan><tspan x="0" dy="14">Source: ONS 2025</tspan><tspan x="0" dy="14"/></text></g></g><path class="foreground" aria-hidden="true" d="" pointer-events="none" display="none"/></g></g></g><path class="foreground" aria-hidden="true" d="" display="none"/></g></g></g></svg>